<?xml version="1.0" encoding="UTF-8" standalone="no"?>
<svg
   viewBox="0 0 173.216 96.000002"
   id="svg-logo-bmbf"
   width="144.34666"
   height="80"
   version="1.1"
   xmlns="http://www.w3.org/2000/svg"
   xmlns:svg="http://www.w3.org/2000/svg">
  <defs
     id="defs15" />
  <g
     clip-rule="evenodd"
     fill-rule="evenodd"
     stroke-linejoin="round"
     stroke-miterlimit="1.414"
     id="g10"
     transform="translate(11.999,12)">
    <path
       d="M 55.628,12.342 V 1.027 h 5.559 L 61.088,2.158 H 57.054 V 6.34 h 3.723 v 1.13 h -3.723 v 4.87 h -1.426 z m 11.97,-5.215 c 0,0.339 -0.01,0.631 -0.032,0.877 A 23.24,23.24 0 0 1 67.5,8.652 h -4.017 c 0.043,0.93 0.243,1.613 0.598,2.05 0.355,0.437 0.867,0.656 1.533,0.656 0.23,0 0.438,-0.027 0.624,-0.082 a 2.35,2.35 0 0 0 1.033,-0.607 l 0.492,0.935 c -0.055,0.055 -0.137,0.134 -0.246,0.238 -0.11,0.103 -0.257,0.207 -0.443,0.311 a 3.177,3.177 0 0 1 -0.689,0.27 3.614,3.614 0 0 1 -0.967,0.116 c -0.492,0 -0.938,-0.082 -1.337,-0.246 A 2.528,2.528 0 0 1 63.064,11.53 c -0.278,-0.344 -0.494,-0.782 -0.647,-1.312 -0.153,-0.53 -0.23,-1.167 -0.23,-1.91 0,-0.7 0.08,-1.304 0.238,-1.812 0.158,-0.509 0.374,-0.927 0.648,-1.255 0.273,-0.328 0.59,-0.571 0.95,-0.73 0.362,-0.158 0.75,-0.237 1.165,-0.237 0.754,0 1.345,0.237 1.771,0.713 0.426,0.475 0.64,1.189 0.64,2.14 z M 65.106,5.356 c -0.47,0 -0.847,0.197 -1.131,0.59 -0.285,0.394 -0.449,0.962 -0.492,1.706 h 2.87 c 0.01,-0.055 0.019,-0.134 0.024,-0.238 a 6.52,6.52 0 0 0 0.008,-0.336 c 0,-0.547 -0.11,-0.97 -0.328,-1.271 -0.219,-0.3 -0.535,-0.451 -0.95,-0.451 z M 69.01,8.52 c 0,-0.798 0.104,-1.465 0.312,-2 0.207,-0.536 0.475,-0.968 0.803,-1.296 0.328,-0.328 0.7,-0.56 1.115,-0.697 a 3.97,3.97 0 0 1 1.246,-0.205 c 0.252,0 0.47,0.019 0.656,0.057 0.186,0.038 0.34,0.085 0.46,0.14 V 0.748 L 74.929,0.6 v 11.742 h -1.214 v -0.837 h -0.032 a 1.885,1.885 0 0 1 -0.542,0.615 2.173,2.173 0 0 1 -0.574,0.296 c -0.23,0.082 -0.497,0.123 -0.803,0.123 -0.372,0 -0.724,-0.074 -1.058,-0.222 A 2.282,2.282 0 0 1 69.829,11.612 C 69.577,11.289 69.378,10.874 69.23,10.366 69.083,9.857 69.009,9.242 69.009,8.521 Z m 3.116,2.837 a 1.72,1.72 0 0 0 1.287,-0.541 c 0.082,-0.088 0.145,-0.164 0.189,-0.23 V 5.733 A 1.983,1.983 0 0 0 73.183,5.536 1.86,1.86 0 0 0 72.585,5.454 c -0.306,0 -0.593,0.052 -0.861,0.156 -0.268,0.104 -0.5,0.276 -0.697,0.517 -0.197,0.24 -0.353,0.552 -0.467,0.934 -0.115,0.383 -0.173,0.853 -0.173,1.41 0,0.547 0.047,1.004 0.14,1.37 0.093,0.366 0.221,0.661 0.385,0.885 0.164,0.225 0.35,0.386 0.558,0.484 0.207,0.099 0.426,0.148 0.656,0.148 z m 9.888,-4.231 c 0,0.339 -0.01,0.631 -0.033,0.877 a 23.24,23.24 0 0 1 -0.065,0.648 h -4.018 c 0.044,0.93 0.243,1.613 0.599,2.05 0.355,0.437 0.866,0.656 1.533,0.656 0.23,0 0.437,-0.027 0.623,-0.082 a 2.35,2.35 0 0 0 1.033,-0.607 l 0.492,0.935 c -0.055,0.055 -0.137,0.134 -0.246,0.238 -0.11,0.103 -0.257,0.207 -0.443,0.311 a 3.177,3.177 0 0 1 -0.688,0.27 3.614,3.614 0 0 1 -0.968,0.116 c -0.492,0 -0.937,-0.082 -1.336,-0.246 A 2.528,2.528 0 0 1 77.48,11.529 c -0.279,-0.344 -0.495,-0.782 -0.648,-1.312 -0.153,-0.53 -0.23,-1.167 -0.23,-1.91 0,-0.7 0.08,-1.304 0.238,-1.812 0.159,-0.509 0.375,-0.927 0.648,-1.255 0.273,-0.328 0.59,-0.571 0.951,-0.73 0.361,-0.158 0.749,-0.237 1.165,-0.237 0.754,0 1.344,0.237 1.77,0.713 0.427,0.475 0.64,1.189 0.64,2.14 z M 79.522,5.355 c -0.47,0 -0.848,0.197 -1.132,0.59 -0.284,0.394 -0.448,0.962 -0.492,1.706 h 2.87 c 0.01,-0.055 0.019,-0.134 0.025,-0.238 a 6.52,6.52 0 0 0 0.008,-0.336 c 0,-0.547 -0.11,-0.97 -0.328,-1.271 -0.219,-0.3 -0.536,-0.451 -0.951,-0.451 z m 7.723,0.279 A 0.948,0.948 0 0 0 87.032,5.552 1.595,1.595 0 0 0 86.589,5.502 c -0.415,0 -0.74,0.113 -0.975,0.337 a 1.965,1.965 0 0 0 -0.5,0.73 v 5.772 H 83.785 V 4.47 h 1.214 v 1.066 h 0.033 c 0.054,-0.153 0.125,-0.303 0.213,-0.45 0.087,-0.148 0.196,-0.28 0.328,-0.394 0.13,-0.115 0.287,-0.205 0.467,-0.27 a 1.9,1.9 0 0 1 0.648,-0.1 c 0.186,0 0.336,0.017 0.45,0.05 0.116,0.033 0.206,0.06 0.271,0.082 z m 0.771,4.706 c 0,-0.46 0.088,-0.842 0.262,-1.148 0.175,-0.306 0.41,-0.555 0.706,-0.746 a 3.01,3.01 0 0 1 1.041,-0.41 6.304,6.304 0 0 1 1.27,-0.123 h 0.41 V 7.16 c 0,-0.667 -0.117,-1.126 -0.352,-1.378 -0.235,-0.251 -0.566,-0.377 -0.992,-0.377 -0.393,0 -0.721,0.085 -0.984,0.254 -0.262,0.17 -0.47,0.32 -0.623,0.451 L 88.196,5.225 c 0.088,-0.088 0.2,-0.186 0.337,-0.295 0.136,-0.11 0.303,-0.214 0.5,-0.312 0.197,-0.098 0.42,-0.18 0.672,-0.246 0.252,-0.066 0.536,-0.098 0.853,-0.098 0.809,0 1.421,0.224 1.837,0.672 0.415,0.448 0.623,1.17 0.623,2.165 v 3.59 c 0,0.34 0.01,0.67 0.032,0.993 0.022,0.323 0.044,0.538 0.066,0.648 h -1.263 l -0.049,-0.87 h -0.033 c -0.043,0.099 -0.109,0.211 -0.196,0.337 -0.088,0.126 -0.197,0.24 -0.328,0.344 a 1.97,1.97 0 0 1 -0.476,0.27 1.717,1.717 0 0 1 -0.656,0.116 c -0.295,0 -0.571,-0.055 -0.828,-0.164 a 2.041,2.041 0 0 1 -1.115,-1.157 2.405,2.405 0 0 1 -0.156,-0.877 z m 2.378,1.066 c 0.186,0 0.35,-0.027 0.492,-0.082 0.142,-0.055 0.265,-0.12 0.369,-0.197 0.104,-0.076 0.191,-0.161 0.262,-0.254 0.071,-0.093 0.134,-0.172 0.189,-0.238 V 8.898 l -0.427,0.016 c -0.634,0.022 -1.115,0.132 -1.443,0.328 -0.328,0.197 -0.492,0.514 -0.492,0.952 0,0.404 0.093,0.707 0.28,0.91 0.185,0.202 0.442,0.303 0.77,0.303 z m 5.936,-0.902 c 0,0.328 0.047,0.558 0.14,0.689 0.093,0.131 0.254,0.197 0.483,0.197 0.12,0 0.222,-0.011 0.304,-0.033 0.082,-0.022 0.145,-0.044 0.188,-0.066 l 0.115,0.984 a 2.8,2.8 0 0 1 -0.36,0.131 2.44,2.44 0 0 1 -0.706,0.082 c -0.448,0 -0.809,-0.136 -1.082,-0.41 -0.273,-0.273 -0.41,-0.76 -0.41,-1.46 V 0.749 L 96.329,0.6 v 9.905 z m 15.612,-9.478 v 11.315 h -1.378 v -5.378 -1 c 0,-0.328 0.003,-0.634 0.009,-0.919 0.005,-0.284 0.013,-0.535 0.024,-0.754 0.011,-0.219 0.022,-0.388 0.033,-0.508 h -0.05 a 18.43,18.43 0 0 1 -0.335,1.221 c -0.17,0.563 -0.364,1.167 -0.583,1.812 l -1.87,5.527 h -1.13 l -1.87,-5.527 A 55.083,55.083 0 0 1 104.21,5.003 c -0.17,-0.563 -0.282,-0.97 -0.336,-1.221 h -0.05 a 25.158,25.158 0 0 1 0.057,1.27 c 0.006,0.28 0.009,0.583 0.009,0.91 v 6.381 h -1.377 V 1.027 h 1.59 l 2.673,7.805 c 0.12,0.361 0.227,0.714 0.32,1.058 0.093,0.344 0.15,0.642 0.172,0.894 h 0.033 c 0.011,-0.252 0.063,-0.547 0.156,-0.886 0.093,-0.339 0.2,-0.688 0.32,-1.05 l 2.673,-7.821 h 1.492 z m 3.64,11.315 h -1.328 V 4.47 h 1.328 v 7.872 z m -0.656,-9.774 c -0.273,0 -0.492,-0.087 -0.656,-0.262 -0.164,-0.175 -0.246,-0.405 -0.246,-0.689 0,-0.273 0.082,-0.497 0.246,-0.672 0.164,-0.175 0.383,-0.263 0.656,-0.263 0.263,0 0.476,0.088 0.64,0.263 0.164,0.175 0.246,0.399 0.246,0.672 0,0.284 -0.082,0.514 -0.246,0.689 a 0.837,0.837 0 0 1 -0.64,0.262 z m 6.986,9.774 V 7.275 c 0,-0.667 -0.112,-1.146 -0.336,-1.435 -0.224,-0.29 -0.566,-0.435 -1.025,-0.435 -0.393,0 -0.721,0.098 -0.984,0.295 -0.262,0.197 -0.47,0.388 -0.623,0.574 v 6.068 h -1.328 V 4.47 h 1.213 v 0.886 h 0.033 a 2.054,2.054 0 0 1 0.64,-0.648 3.01,3.01 0 0 1 0.623,-0.303 c 0.24,-0.088 0.514,-0.131 0.82,-0.131 0.35,0 0.667,0.052 0.95,0.155 0.285,0.104 0.526,0.271 0.722,0.5 0.197,0.23 0.35,0.528 0.46,0.894 0.109,0.366 0.164,0.818 0.164,1.353 v 5.166 h -1.329 z m 4.641,0 h -1.328 V 4.47 h 1.328 v 7.872 z m -0.656,-9.774 c -0.273,0 -0.492,-0.087 -0.656,-0.262 -0.164,-0.175 -0.246,-0.405 -0.246,-0.689 0,-0.273 0.082,-0.497 0.246,-0.672 0.164,-0.175 0.383,-0.263 0.656,-0.263 0.262,0 0.476,0.088 0.64,0.263 0.164,0.175 0.246,0.399 0.246,0.672 0,0.284 -0.082,0.514 -0.246,0.689 a 0.837,0.837 0 0 1 -0.64,0.262 z m 6.084,3.493 a 3.344,3.344 0 0 0 -0.476,-0.402 c -0.23,-0.17 -0.53,-0.254 -0.901,-0.254 -0.35,0 -0.618,0.082 -0.804,0.246 a 0.76,0.76 0 0 0 -0.279,0.59 c 0,0.296 0.085,0.539 0.254,0.73 0.17,0.192 0.43,0.396 0.78,0.615 l 0.491,0.295 c 0.536,0.317 0.957,0.659 1.263,1.025 0.306,0.366 0.46,0.84 0.46,1.419 0,0.623 -0.217,1.148 -0.649,1.574 -0.431,0.426 -1.052,0.64 -1.86,0.64 -0.318,0 -0.597,-0.033 -0.837,-0.099 a 3.65,3.65 0 0 1 -0.631,-0.23 2.074,2.074 0 0 1 -0.451,-0.286 c -0.12,-0.104 -0.22,-0.2 -0.296,-0.287 l 0.64,-1.05 c 0.065,0.066 0.145,0.142 0.238,0.23 a 2.152,2.152 0 0 0 0.779,0.459 c 0.164,0.055 0.355,0.082 0.574,0.082 0.393,0 0.694,-0.088 0.901,-0.263 a 0.807,0.807 0 0 0 0.312,-0.64 1.43,1.43 0 0 0 -0.074,-0.483 1.108,1.108 0 0 0 -0.221,-0.369 2.062,2.062 0 0 0 -0.36,-0.311 19.104,19.104 0 0 0 -0.493,-0.328 l -0.492,-0.312 c -0.492,-0.317 -0.877,-0.65 -1.156,-1 -0.279,-0.35 -0.418,-0.798 -0.418,-1.345 0,-0.295 0.057,-0.566 0.172,-0.812 a 1.91,1.91 0 0 1 0.484,-0.64 c 0.208,-0.18 0.45,-0.322 0.73,-0.426 a 2.54,2.54 0 0 1 0.893,-0.155 3,3 0 0 1 0.787,0.09 2.355,2.355 0 0 1 0.96,0.508 c 0.104,0.093 0.188,0.172 0.254,0.238 z m 5.707,-0.508 h -1.722 v 4.362 c 0,0.557 0.071,0.937 0.213,1.14 0.142,0.202 0.383,0.303 0.722,0.303 0.196,0 0.366,-0.027 0.508,-0.082 a 1.7,1.7 0 0 0 0.312,-0.148 l 0.18,1.066 a 2.27,2.27 0 0 1 -0.394,0.205 c -0.207,0.093 -0.486,0.14 -0.836,0.14 -0.678,0 -1.186,-0.189 -1.525,-0.566 -0.339,-0.377 -0.508,-1.003 -0.508,-1.878 V 5.553 h -0.952 V 4.667 l 0.952,-0.197 0.147,-2.197 h 1.18 V 4.47 h 1.887 l -0.164,1.083 z m 4.969,0.082 a 0.948,0.948 0 0 0 -0.214,-0.082 1.595,1.595 0 0 0 -0.442,-0.05 c -0.416,0 -0.741,0.113 -0.976,0.337 a 1.965,1.965 0 0 0 -0.5,0.73 v 5.772 h -1.329 V 4.47 h 1.214 v 1.066 h 0.033 c 0.054,-0.153 0.125,-0.303 0.213,-0.45 0.087,-0.148 0.197,-0.28 0.328,-0.394 0.131,-0.115 0.287,-0.205 0.467,-0.27 a 1.9,1.9 0 0 1 0.648,-0.1 c 0.186,0 0.336,0.017 0.451,0.05 0.115,0.033 0.205,0.06 0.27,0.082 z m 6.56,-1.165 -2.46,8.33 c -0.285,0.963 -0.632,1.69 -1.042,2.182 -0.41,0.492 -1.003,0.738 -1.78,0.738 -0.163,0 -0.3,-0.02 -0.41,-0.057 a 2.226,2.226 0 0 1 -0.229,-0.09 v -1.149 c 0.055,0.022 0.126,0.047 0.213,0.074 0.088,0.028 0.203,0.041 0.345,0.041 0.47,0 0.828,-0.147 1.074,-0.443 0.246,-0.295 0.456,-0.748 0.631,-1.36 l 0.115,-0.41 -2.542,-7.856 h 1.427 l 1.23,4.362 c 0.12,0.449 0.23,0.867 0.328,1.255 0.098,0.388 0.158,0.735 0.18,1.041 h 0.033 c 0.022,-0.306 0.074,-0.65 0.156,-1.033 0.082,-0.383 0.183,-0.798 0.303,-1.246 l 1.115,-4.379 h 1.312 z m -94.23,20.474 c 0,-0.722 0.085,-1.345 0.254,-1.87 0.17,-0.525 0.4,-0.954 0.69,-1.287 0.289,-0.334 0.622,-0.58 1,-0.738 a 3.08,3.08 0 0 1 1.205,-0.238 c 0.437,0 0.841,0.08 1.213,0.238 0.372,0.158 0.694,0.404 0.968,0.738 0.273,0.333 0.489,0.762 0.647,1.287 0.159,0.525 0.238,1.148 0.238,1.87 0,0.732 -0.082,1.36 -0.246,1.885 -0.164,0.525 -0.39,0.954 -0.68,1.288 -0.29,0.333 -0.626,0.576 -1.009,0.73 -0.383,0.153 -0.787,0.23 -1.213,0.23 -0.438,0 -0.842,-0.077 -1.214,-0.23 a 2.446,2.446 0 0 1 -0.967,-0.73 c -0.274,-0.334 -0.49,-0.76 -0.648,-1.28 -0.159,-0.519 -0.238,-1.15 -0.238,-1.893 z m 4.838,0 c 0,-1.05 -0.153,-1.813 -0.46,-2.288 -0.306,-0.476 -0.732,-0.713 -1.279,-0.713 -0.546,0 -0.97,0.237 -1.27,0.713 -0.301,0.475 -0.451,1.238 -0.451,2.288 0,1.05 0.153,1.803 0.459,2.263 0.306,0.459 0.732,0.688 1.279,0.688 0.546,0 0.97,-0.23 1.27,-0.688 0.301,-0.46 0.452,-1.214 0.452,-2.263 z m 6.264,-2.854 h -1.607 v 6.79 h -1.328 v -6.79 h -0.952 v -0.885 l 0.952,-0.18 v -1.575 c 0,-0.426 0.06,-0.793 0.18,-1.099 0.12,-0.306 0.279,-0.557 0.476,-0.754 a 1.74,1.74 0 0 1 0.688,-0.426 c 0.263,-0.088 0.541,-0.132 0.837,-0.132 0.284,0 0.524,0.039 0.721,0.115 0.197,0.077 0.328,0.137 0.394,0.18 l -0.279,1.1 a 1.635,1.635 0 0 0 -0.279,-0.14 1.172,1.172 0 0 0 -0.443,-0.074 c -0.317,0 -0.557,0.099 -0.721,0.295 -0.164,0.197 -0.246,0.558 -0.246,1.083 v 1.41 h 1.771 z m 10.233,-3.394 h -4.034 v 3.903 h 3.706 v 1.131 h -3.706 v 3.969 h 4.444 l -0.082,1.18 H 70.861 V 17.563 h 5.56 l -0.1,1.132 z m 1.558,6.362 c 0,-0.798 0.104,-1.465 0.311,-2 0.208,-0.536 0.476,-0.968 0.804,-1.296 0.328,-0.328 0.7,-0.56 1.115,-0.697 a 3.97,3.97 0 0 1 1.246,-0.205 c 0.252,0 0.47,0.02 0.656,0.058 0.186,0.038 0.339,0.084 0.46,0.14 V 17.284 L 83.8,17.137 v 11.741 h -1.214 v -0.836 h -0.033 a 1.885,1.885 0 0 1 -0.54,0.615 2.173,2.173 0 0 1 -0.575,0.295 c -0.23,0.082 -0.497,0.123 -0.803,0.123 -0.372,0 -0.725,-0.074 -1.058,-0.221 A 2.282,2.282 0 0 1 78.7,28.148 C 78.448,27.826 78.249,27.411 78.101,26.902 77.954,26.394 77.88,25.779 77.88,25.057 Z m 3.115,2.837 a 1.72,1.72 0 0 0 1.287,-0.541 c 0.083,-0.087 0.146,-0.164 0.19,-0.23 V 22.27 a 1.983,1.983 0 0 0 -0.419,-0.197 1.86,1.86 0 0 0 -0.598,-0.082 c -0.306,0 -0.594,0.052 -0.861,0.156 -0.268,0.103 -0.5,0.276 -0.697,0.516 -0.197,0.24 -0.353,0.552 -0.468,0.935 -0.114,0.383 -0.172,0.853 -0.172,1.41 0,0.547 0.047,1.003 0.14,1.37 0.092,0.366 0.22,0.66 0.385,0.885 0.164,0.224 0.35,0.385 0.557,0.484 0.208,0.098 0.427,0.147 0.656,0.147 z m 10.348,0.984 H 90.13 v -0.885 h -0.033 a 2.139,2.139 0 0 1 -0.631,0.648 c -0.17,0.114 -0.375,0.215 -0.616,0.303 -0.24,0.087 -0.508,0.131 -0.803,0.131 -0.35,0 -0.664,-0.052 -0.943,-0.156 a 1.715,1.715 0 0 1 -0.713,-0.5 c -0.197,-0.23 -0.348,-0.527 -0.451,-0.894 -0.104,-0.366 -0.156,-0.817 -0.156,-1.353 v -5.165 h 1.328 v 5.067 c 0,0.656 0.107,1.123 0.32,1.402 0.213,0.279 0.544,0.418 0.992,0.418 0.383,0 0.705,-0.095 0.968,-0.287 0.262,-0.191 0.47,-0.38 0.623,-0.565 v -6.035 h 1.328 z m 6.412,-6.346 a 6.06,6.06 0 0 0 -0.156,-0.148 1.659,1.659 0 0 0 -0.27,-0.196 1.887,1.887 0 0 0 -0.394,-0.173 1.714,1.714 0 0 0 -0.525,-0.073 c -0.284,0 -0.55,0.052 -0.795,0.155 -0.246,0.104 -0.46,0.271 -0.64,0.5 -0.18,0.23 -0.322,0.528 -0.426,0.894 -0.104,0.367 -0.156,0.812 -0.156,1.337 0,0.58 0.047,1.066 0.14,1.46 0.093,0.393 0.22,0.707 0.385,0.942 0.164,0.235 0.363,0.405 0.599,0.508 0.235,0.104 0.494,0.156 0.778,0.156 0.405,0 0.714,-0.07 0.927,-0.213 0.213,-0.142 0.363,-0.257 0.45,-0.344 l 0.542,0.918 a 2.414,2.414 0 0 1 -0.238,0.238 2.048,2.048 0 0 1 -0.401,0.27 2.7,2.7 0 0 1 -0.599,0.222 c -0.235,0.06 -0.506,0.09 -0.812,0.09 -0.437,0 -0.847,-0.071 -1.23,-0.213 a 2.432,2.432 0 0 1 -1,-0.705 c -0.284,-0.328 -0.508,-0.755 -0.672,-1.28 -0.164,-0.524 -0.246,-1.175 -0.246,-1.95 0,-0.755 0.098,-1.395 0.295,-1.92 0.197,-0.524 0.454,-0.948 0.77,-1.27 0.318,-0.323 0.67,-0.558 1.058,-0.706 a 3.276,3.276 0 0 1 1.173,-0.22 c 0.295,0 0.555,0.026 0.779,0.081 0.224,0.055 0.415,0.123 0.574,0.205 0.158,0.082 0.29,0.17 0.393,0.262 0.104,0.093 0.189,0.173 0.254,0.238 z m 1.492,4.346 c 0,-0.46 0.088,-0.842 0.263,-1.148 0.174,-0.306 0.41,-0.555 0.705,-0.746 a 3.01,3.01 0 0 1 1.041,-0.41 6.304,6.304 0 0 1 1.27,-0.123 h 0.41 v -0.755 c 0,-0.667 -0.117,-1.126 -0.352,-1.377 -0.235,-0.252 -0.565,-0.377 -0.992,-0.377 -0.393,0 -0.721,0.084 -0.984,0.254 -0.262,0.17 -0.47,0.32 -0.623,0.45 l -0.557,-0.885 c 0.087,-0.087 0.2,-0.186 0.336,-0.295 0.136,-0.11 0.303,-0.213 0.5,-0.312 a 3.384,3.384 0 0 1 1.525,-0.344 c 0.809,0 1.421,0.224 1.837,0.672 0.415,0.449 0.623,1.17 0.623,2.165 v 3.591 c 0,0.34 0.01,0.67 0.033,0.992 0.022,0.323 0.043,0.539 0.065,0.648 h -1.263 l -0.049,-0.869 h -0.033 c -0.043,0.099 -0.109,0.21 -0.196,0.336 -0.088,0.126 -0.197,0.24 -0.328,0.345 a 1.97,1.97 0 0 1 -0.476,0.27 1.717,1.717 0 0 1 -0.656,0.115 c -0.295,0 -0.571,-0.055 -0.828,-0.164 a 2.041,2.041 0 0 1 -1.115,-1.156 2.405,2.405 0 0 1 -0.156,-0.877 z m 2.378,1.066 c 0.186,0 0.35,-0.028 0.492,-0.082 0.142,-0.055 0.265,-0.12 0.369,-0.197 0.104,-0.077 0.191,-0.161 0.262,-0.254 0.071,-0.093 0.134,-0.173 0.189,-0.238 v -1.738 l -0.426,0.016 c -0.635,0.022 -1.116,0.131 -1.444,0.328 -0.328,0.197 -0.492,0.514 -0.492,0.951 0,0.404 0.093,0.708 0.28,0.91 0.185,0.202 0.442,0.304 0.77,0.304 z m 7.986,-5.855 h -1.722 v 4.362 c 0,0.558 0.071,0.938 0.213,1.14 0.143,0.202 0.383,0.303 0.722,0.303 0.197,0 0.366,-0.027 0.508,-0.082 a 1.7,1.7 0 0 0 0.312,-0.147 l 0.18,1.066 a 2.27,2.27 0 0 1 -0.393,0.205 c -0.208,0.093 -0.487,0.14 -0.837,0.14 -0.677,0 -1.186,-0.19 -1.525,-0.567 -0.338,-0.377 -0.508,-1.003 -0.508,-1.877 v -4.543 h -0.951 v -0.885 l 0.951,-0.197 0.148,-2.198 h 1.18 v 2.198 h 1.886 z m 2.837,6.79 h -1.328 v -7.872 h 1.328 v 7.871 z m -0.656,-9.774 c -0.273,0 -0.492,-0.088 -0.656,-0.263 -0.164,-0.175 -0.246,-0.404 -0.246,-0.688 0,-0.274 0.082,-0.498 0.246,-0.673 0.164,-0.175 0.383,-0.262 0.656,-0.262 0.263,0 0.476,0.087 0.64,0.262 0.164,0.175 0.246,0.4 0.246,0.673 0,0.284 -0.082,0.513 -0.246,0.688 a 0.837,0.837 0 0 1 -0.64,0.263 z m 2.329,5.838 c 0,-0.722 0.085,-1.345 0.254,-1.87 0.17,-0.525 0.399,-0.954 0.689,-1.287 0.29,-0.334 0.623,-0.58 1,-0.738 a 3.08,3.08 0 0 1 1.205,-0.238 c 0.438,0 0.842,0.08 1.214,0.238 0.372,0.158 0.694,0.404 0.967,0.738 0.274,0.333 0.49,0.762 0.648,1.287 0.159,0.525 0.238,1.148 0.238,1.87 0,0.732 -0.082,1.36 -0.246,1.885 -0.164,0.525 -0.39,0.954 -0.68,1.288 -0.29,0.333 -0.626,0.576 -1.01,0.73 -0.382,0.153 -0.786,0.23 -1.213,0.23 -0.437,0 -0.841,-0.077 -1.213,-0.23 a 2.446,2.446 0 0 1 -0.968,-0.73 c -0.273,-0.334 -0.489,-0.76 -0.647,-1.28 -0.159,-0.519 -0.238,-1.15 -0.238,-1.893 z m 4.837,0 c 0,-1.05 -0.153,-1.813 -0.459,-2.288 -0.306,-0.476 -0.732,-0.713 -1.279,-0.713 -0.546,0 -0.97,0.237 -1.27,0.713 -0.301,0.475 -0.452,1.238 -0.452,2.288 0,1.05 0.153,1.803 0.46,2.263 0.306,0.459 0.732,0.688 1.279,0.688 0.546,0 0.97,-0.23 1.27,-0.688 0.301,-0.46 0.451,-1.214 0.451,-2.263 z m 7.347,3.935 v -5.067 c 0,-0.667 -0.112,-1.145 -0.336,-1.435 -0.224,-0.29 -0.566,-0.434 -1.025,-0.434 -0.394,0 -0.722,0.098 -0.984,0.295 -0.262,0.197 -0.47,0.388 -0.623,0.574 v 6.067 h -1.328 v -7.871 h 1.213 v 0.885 h 0.033 a 2.054,2.054 0 0 1 0.64,-0.648 3.01,3.01 0 0 1 0.623,-0.303 c 0.24,-0.087 0.513,-0.13 0.82,-0.13 0.35,0 0.666,0.051 0.95,0.155 0.285,0.104 0.525,0.27 0.722,0.5 0.197,0.23 0.35,0.528 0.46,0.894 0.109,0.366 0.163,0.817 0.163,1.353 v 5.165 z M 54.89,43.414 c 0,-0.459 0.087,-0.842 0.262,-1.148 0.175,-0.306 0.41,-0.555 0.705,-0.746 a 3.01,3.01 0 0 1 1.042,-0.41 6.304,6.304 0 0 1 1.27,-0.123 h 0.41 v -0.754 c 0,-0.667 -0.117,-1.126 -0.352,-1.378 -0.235,-0.251 -0.566,-0.377 -0.992,-0.377 -0.394,0 -0.722,0.085 -0.984,0.254 -0.263,0.17 -0.47,0.32 -0.623,0.451 L 55.07,38.298 c 0.088,-0.088 0.2,-0.186 0.336,-0.295 0.137,-0.11 0.304,-0.214 0.5,-0.312 a 3.384,3.384 0 0 1 1.525,-0.344 c 0.81,0 1.422,0.224 1.837,0.672 0.416,0.448 0.623,1.17 0.623,2.165 v 3.59 c 0,0.34 0.011,0.67 0.033,0.993 0.022,0.323 0.044,0.539 0.066,0.648 h -1.263 l -0.05,-0.87 h -0.032 c -0.044,0.1 -0.11,0.211 -0.197,0.337 -0.087,0.126 -0.197,0.24 -0.328,0.344 a 1.97,1.97 0 0 1 -0.475,0.27 1.717,1.717 0 0 1 -0.656,0.116 c -0.295,0 -0.571,-0.055 -0.828,-0.164 A 2.041,2.041 0 0 1 55.046,44.291 2.405,2.405 0 0 1 54.89,43.414 Z m 2.377,1.066 c 0.186,0 0.35,-0.027 0.492,-0.082 0.143,-0.055 0.266,-0.12 0.37,-0.197 0.103,-0.076 0.19,-0.16 0.262,-0.254 0.07,-0.093 0.134,-0.172 0.188,-0.238 v -1.738 l -0.426,0.016 c -0.634,0.022 -1.115,0.132 -1.443,0.328 -0.328,0.197 -0.492,0.514 -0.492,0.952 0,0.404 0.093,0.707 0.279,0.91 0.186,0.202 0.443,0.303 0.77,0.303 z m 8.921,0.935 v -5.067 c 0,-0.667 -0.112,-1.146 -0.336,-1.435 -0.224,-0.29 -0.566,-0.435 -1.025,-0.435 -0.393,0 -0.721,0.099 -0.984,0.295 -0.262,0.197 -0.47,0.388 -0.623,0.574 v 6.068 h -1.328 v -7.872 h 1.213 v 0.886 h 0.033 a 2.054,2.054 0 0 1 0.64,-0.648 3.01,3.01 0 0 1 0.623,-0.303 c 0.24,-0.088 0.514,-0.131 0.82,-0.131 0.35,0 0.667,0.052 0.951,0.155 0.284,0.104 0.525,0.271 0.722,0.5 0.196,0.23 0.35,0.528 0.459,0.894 0.109,0.367 0.164,0.818 0.164,1.353 v 5.166 z m 2.952,-3.821 c 0,-0.798 0.104,-1.465 0.312,-2 0.207,-0.536 0.475,-0.968 0.803,-1.296 0.328,-0.328 0.7,-0.56 1.115,-0.697 a 3.97,3.97 0 0 1 1.247,-0.205 c 0.251,0 0.47,0.019 0.656,0.057 0.186,0.038 0.338,0.085 0.459,0.14 V 33.82 l 1.328,-0.148 v 11.742 h -1.213 v -0.837 h -0.033 a 1.885,1.885 0 0 1 -0.541,0.615 2.173,2.173 0 0 1 -0.574,0.296 c -0.23,0.082 -0.498,0.123 -0.804,0.123 -0.372,0 -0.724,-0.074 -1.058,-0.222 A 2.282,2.282 0 0 1 69.96,44.684 C 69.709,44.362 69.51,43.946 69.362,43.438 69.214,42.929 69.14,42.314 69.14,41.593 Z m 3.116,2.837 a 1.72,1.72 0 0 0 1.287,-0.541 c 0.082,-0.088 0.145,-0.164 0.189,-0.23 v -4.854 a 1.983,1.983 0 0 0 -0.418,-0.197 1.86,1.86 0 0 0 -0.599,-0.082 c -0.306,0 -0.593,0.052 -0.86,0.156 -0.269,0.104 -0.501,0.276 -0.698,0.517 -0.197,0.24 -0.352,0.552 -0.467,0.934 -0.115,0.383 -0.172,0.853 -0.172,1.41 0,0.547 0.046,1.004 0.14,1.37 0.092,0.366 0.22,0.661 0.384,0.885 0.164,0.225 0.35,0.386 0.558,0.484 0.208,0.099 0.426,0.148 0.656,0.148 z m 13.758,0.984 -2.345,-4.641 a 9.374,9.374 0 0 1 -0.77,0.033 h -0.623 v 4.608 H 80.849 V 34.1 h 2.115 c 1.367,0 2.375,0.265 3.026,0.795 0.65,0.53 0.976,1.32 0.976,2.37 0,0.754 -0.159,1.399 -0.476,1.935 -0.317,0.535 -0.804,0.945 -1.46,1.23 l 2.657,4.985 z M 85.44,37.347 c 0,-0.722 -0.2,-1.255 -0.598,-1.6 -0.4,-0.344 -1.025,-0.516 -1.878,-0.516 h -0.688 v 4.444 h 0.623 c 0.863,0 1.503,-0.202 1.918,-0.607 0.416,-0.404 0.623,-0.978 0.623,-1.721 z m 8.48,2.853 c 0,0.339 -0.011,0.631 -0.033,0.877 a 23.24,23.24 0 0 1 -0.066,0.648 h -4.017 c 0.043,0.93 0.243,1.613 0.598,2.05 0.355,0.437 0.867,0.656 1.533,0.656 0.23,0 0.438,-0.027 0.624,-0.082 a 2.35,2.35 0 0 0 1.033,-0.607 l 0.492,0.935 c -0.055,0.055 -0.137,0.134 -0.246,0.238 -0.11,0.103 -0.257,0.207 -0.443,0.311 a 3.177,3.177 0 0 1 -0.689,0.27 3.614,3.614 0 0 1 -0.967,0.116 c -0.492,0 -0.938,-0.082 -1.337,-0.246 a 2.528,2.528 0 0 1 -1.017,-0.763 c -0.278,-0.344 -0.494,-0.782 -0.647,-1.312 -0.153,-0.53 -0.23,-1.167 -0.23,-1.91 0,-0.7 0.08,-1.304 0.238,-1.812 0.158,-0.509 0.374,-0.927 0.648,-1.255 0.273,-0.328 0.59,-0.571 0.95,-0.73 0.361,-0.158 0.75,-0.237 1.165,-0.237 0.754,0 1.345,0.237 1.771,0.713 0.426,0.475 0.64,1.189 0.64,2.14 z m -2.493,-1.771 c -0.47,0 -0.847,0.197 -1.132,0.59 -0.284,0.394 -0.448,0.962 -0.491,1.706 h 2.87 c 0.01,-0.055 0.018,-0.134 0.024,-0.238 a 6.52,6.52 0 0 0 0.008,-0.336 c 0,-0.547 -0.11,-0.97 -0.328,-1.271 -0.219,-0.3 -0.536,-0.451 -0.951,-0.451 z m 7.658,0.705 A 3.344,3.344 0 0 0 98.61,38.732 c -0.23,-0.17 -0.53,-0.254 -0.902,-0.254 -0.35,0 -0.618,0.082 -0.804,0.246 a 0.76,0.76 0 0 0 -0.279,0.59 c 0,0.296 0.085,0.539 0.255,0.73 0.169,0.192 0.429,0.396 0.779,0.615 l 0.491,0.295 c 0.536,0.317 0.957,0.659 1.263,1.025 0.306,0.366 0.46,0.84 0.46,1.419 0,0.623 -0.217,1.148 -0.648,1.574 -0.432,0.426 -1.053,0.64 -1.862,0.64 -0.317,0 -0.596,-0.033 -0.836,-0.099 a 3.65,3.65 0 0 1 -0.631,-0.23 2.074,2.074 0 0 1 -0.451,-0.286 c -0.12,-0.104 -0.219,-0.2 -0.295,-0.287 l 0.64,-1.05 c 0.065,0.066 0.144,0.142 0.237,0.23 a 2.152,2.152 0 0 0 0.779,0.459 c 0.164,0.055 0.355,0.082 0.574,0.082 0.393,0 0.694,-0.088 0.902,-0.263 a 0.807,0.807 0 0 0 0.311,-0.64 1.43,1.43 0 0 0 -0.073,-0.483 1.108,1.108 0 0 0 -0.222,-0.369 2.062,2.062 0 0 0 -0.36,-0.311 19.104,19.104 0 0 0 -0.493,-0.328 l -0.492,-0.312 c -0.492,-0.317 -0.877,-0.65 -1.156,-1 -0.278,-0.35 -0.418,-0.798 -0.418,-1.345 0,-0.295 0.058,-0.566 0.172,-0.812 a 1.91,1.91 0 0 1 0.484,-0.64 c 0.208,-0.18 0.451,-0.322 0.73,-0.426 a 2.54,2.54 0 0 1 0.894,-0.155 3,3 0 0 1 0.787,0.09 2.355,2.355 0 0 1 0.959,0.508 c 0.104,0.093 0.189,0.172 0.254,0.238 z m 7.396,1.066 c 0,0.339 -0.011,0.631 -0.033,0.877 a 23.24,23.24 0 0 1 -0.065,0.648 h -4.018 c 0.044,0.93 0.243,1.613 0.599,2.05 0.355,0.437 0.866,0.656 1.533,0.656 0.23,0 0.437,-0.027 0.623,-0.082 a 2.35,2.35 0 0 0 1.033,-0.607 l 0.492,0.935 c -0.055,0.055 -0.137,0.134 -0.246,0.238 -0.11,0.103 -0.257,0.207 -0.443,0.311 a 3.177,3.177 0 0 1 -0.688,0.27 3.614,3.614 0 0 1 -0.968,0.116 c -0.492,0 -0.937,-0.082 -1.336,-0.246 a 2.528,2.528 0 0 1 -1.017,-0.763 c -0.279,-0.344 -0.495,-0.782 -0.648,-1.312 -0.153,-0.53 -0.23,-1.167 -0.23,-1.91 0,-0.7 0.08,-1.304 0.238,-1.812 0.159,-0.509 0.375,-0.927 0.648,-1.255 0.273,-0.328 0.59,-0.571 0.951,-0.73 0.36,-0.158 0.749,-0.237 1.164,-0.237 0.755,0 1.345,0.237 1.771,0.713 0.427,0.475 0.64,1.189 0.64,2.14 z m -2.493,-1.771 c -0.47,0 -0.847,0.197 -1.131,0.59 -0.284,0.394 -0.448,0.962 -0.492,1.706 h 2.87 c 0.01,-0.055 0.019,-0.134 0.024,-0.238 a 6.52,6.52 0 0 0 0.009,-0.336 c 0,-0.547 -0.11,-0.97 -0.328,-1.271 -0.22,-0.3 -0.536,-0.451 -0.952,-0.451 z m 3.805,4.985 c 0,-0.459 0.087,-0.842 0.262,-1.148 0.175,-0.306 0.41,-0.555 0.705,-0.746 a 3.01,3.01 0 0 1 1.042,-0.41 6.304,6.304 0 0 1 1.27,-0.123 h 0.41 v -0.754 c 0,-0.667 -0.117,-1.126 -0.352,-1.378 -0.235,-0.251 -0.566,-0.377 -0.992,-0.377 -0.394,0 -0.722,0.085 -0.984,0.254 -0.262,0.17 -0.47,0.32 -0.623,0.451 l -0.558,-0.885 c 0.088,-0.088 0.2,-0.186 0.337,-0.295 0.136,-0.11 0.303,-0.214 0.5,-0.312 a 3.384,3.384 0 0 1 1.525,-0.344 c 0.809,0 1.42,0.224 1.836,0.672 0.416,0.448 0.624,1.17 0.624,2.165 v 3.59 c 0,0.34 0.01,0.67 0.032,0.993 0.022,0.323 0.044,0.539 0.066,0.648 h -1.263 l -0.049,-0.87 h -0.033 c -0.043,0.1 -0.11,0.211 -0.197,0.337 -0.087,0.126 -0.196,0.24 -0.328,0.344 a 1.97,1.97 0 0 1 -0.475,0.27 1.717,1.717 0 0 1 -0.656,0.116 c -0.295,0 -0.571,-0.055 -0.828,-0.164 a 2.041,2.041 0 0 1 -1.115,-1.157 2.405,2.405 0 0 1 -0.156,-0.877 z m 2.378,1.066 c 0.186,0 0.35,-0.027 0.492,-0.082 0.142,-0.055 0.265,-0.12 0.369,-0.197 0.103,-0.076 0.191,-0.16 0.262,-0.254 0.071,-0.093 0.134,-0.172 0.189,-0.238 v -1.738 l -0.427,0.016 c -0.634,0.022 -1.115,0.132 -1.443,0.328 -0.328,0.197 -0.492,0.514 -0.492,0.952 0,0.404 0.093,0.707 0.279,0.91 0.186,0.202 0.443,0.303 0.77,0.303 z m 8.084,-5.772 a 0.948,0.948 0 0 0 -0.213,-0.082 1.595,1.595 0 0 0 -0.443,-0.05 c -0.415,0 -0.74,0.113 -0.975,0.337 a 1.965,1.965 0 0 0 -0.5,0.73 v 5.772 h -1.329 v -7.872 h 1.214 v 1.066 h 0.032 c 0.055,-0.153 0.126,-0.303 0.214,-0.45 0.087,-0.148 0.196,-0.28 0.328,-0.394 0.13,-0.115 0.287,-0.205 0.467,-0.27 a 1.9,1.9 0 0 1 0.648,-0.1 c 0.186,0 0.336,0.017 0.45,0.05 0.116,0.033 0.206,0.06 0.271,0.082 l -0.164,1.18 z m 5.494,0.36 a 6.06,6.06 0 0 0 -0.156,-0.147 1.659,1.659 0 0 0 -0.27,-0.197 1.887,1.887 0 0 0 -0.394,-0.172 1.714,1.714 0 0 0 -0.525,-0.074 c -0.284,0 -0.55,0.052 -0.795,0.156 -0.246,0.104 -0.46,0.27 -0.64,0.5 -0.18,0.23 -0.322,0.528 -0.426,0.894 -0.104,0.366 -0.156,0.812 -0.156,1.336 0,0.58 0.047,1.066 0.14,1.46 0.092,0.393 0.22,0.708 0.385,0.943 0.164,0.235 0.363,0.404 0.599,0.508 0.234,0.104 0.494,0.156 0.778,0.156 0.405,0 0.714,-0.071 0.927,-0.213 0.213,-0.142 0.363,-0.257 0.45,-0.345 l 0.542,0.919 a 2.414,2.414 0 0 1 -0.238,0.237 2.048,2.048 0 0 1 -0.402,0.271 2.7,2.7 0 0 1 -0.598,0.221 c -0.235,0.06 -0.506,0.09 -0.812,0.09 -0.437,0 -0.847,-0.07 -1.23,-0.213 a 2.432,2.432 0 0 1 -1,-0.705 c -0.284,-0.328 -0.508,-0.754 -0.672,-1.279 -0.164,-0.525 -0.246,-1.175 -0.246,-1.951 0,-0.755 0.098,-1.394 0.295,-1.919 0.197,-0.525 0.453,-0.948 0.77,-1.27 0.318,-0.323 0.67,-0.558 1.058,-0.706 a 3.276,3.276 0 0 1 1.173,-0.221 c 0.295,0 0.555,0.027 0.779,0.082 0.224,0.054 0.415,0.123 0.574,0.205 0.158,0.082 0.29,0.169 0.393,0.262 0.104,0.093 0.189,0.172 0.254,0.238 z m 6.248,6.347 v -5.067 c 0,-0.667 -0.112,-1.146 -0.336,-1.435 -0.225,-0.29 -0.566,-0.435 -1.025,-0.435 -0.394,0 -0.722,0.099 -0.984,0.295 -0.263,0.197 -0.47,0.388 -0.623,0.574 v 6.068 H 125.7 V 33.82 l 1.329,-0.148 v 4.674 h 0.032 c 0.044,-0.066 0.112,-0.153 0.205,-0.262 0.093,-0.11 0.222,-0.22 0.386,-0.328 a 2.515,2.515 0 0 1 1.427,-0.41 c 0.688,0 1.235,0.224 1.64,0.672 0.404,0.448 0.606,1.192 0.606,2.23 v 5.166 h -1.328 z M 19.43,11.43 c 0.038,-0.308 0.06,-0.626 0.06,-0.951 0,-0.178 0.001,-0.385 -0.021,-0.62 2.746,-0.038 5.155,-2.017 5.155,-4.292 0,-1.157 -0.755,-2.03 -1.18,-2.553 0.094,-0.02 0.19,-0.043 0.289,-0.066 0.402,0.35 1.543,1.593 1.543,3.162 0,2.73 -2.728,5.264 -5.846,5.32 M 16.663,1.924 A 1.873,1.873 0 0 0 16.32,1.107 c 0.01,-0.279 0.124,-0.545 0.572,-0.326 -0.242,0.248 -0.055,0.688 -0.055,0.688 0,0 0.496,-0.23 0.393,-0.558 0.736,0.176 0.206,1.164 -0.567,1.013 M 16.025,3.325 A 2.877,2.877 0 0 0 15.452,2.183 C 15.209,1.896 14.808,1.556 14.268,1.556 c -0.246,0 -0.66,0.116 -0.923,0.227 -0.098,-0.179 -0.29,-0.61 -0.29,-0.805 0,-0.2 0.338,-0.402 0.985,-0.402 1.422,0 2.27,0.642 2.27,1.72 0,0.379 -0.15,0.723 -0.285,1.03 m 3.652,18.327 a 0.84,0.84 0 0 1 0.342,0.062 c 0.41,1.114 1.987,3.215 2.053,3.305 l 0.014,0.019 0.023,-0.005 c 0.388,-0.062 1.376,-0.211 2.202,-0.211 h 0.02 c 0.09,0 0.191,0 0.256,0.063 0.054,0.054 0.08,0.148 0.08,0.281 0,0.206 -0.087,0.557 -0.192,0.707 -0.289,-0.315 -0.759,-0.457 -1.511,-0.457 -0.226,0 -0.494,0.067 -0.638,0.106 l -0.06,0.012 -0.067,0.018 0.434,0.434 c 0.67,0.67 1.248,1.247 1.248,1.632 0,0.231 -0.226,0.533 -0.432,0.667 -0.046,-0.704 -0.757,-1.647 -1.45,-2.175 l -0.06,-0.044 -0.01,0.248 c -0.01,0.168 -0.025,0.42 -0.025,0.69 0,1.341 -0.136,1.545 -0.6,1.545 a 0.848,0.848 0 0 1 -0.249,-0.045 c 0.262,-0.324 0.365,-0.751 0.365,-1.5 L 21.416,26.658 21.412,26.38 c 0,-0.307 0.032,-0.535 0.057,-0.718 l 0.013,-0.103 -0.073,-0.01 a 7.522,7.522 0 0 0 -0.93,-0.086 c -0.663,0 -1.112,0.061 -1.437,0.367 -0.215,-0.174 -0.436,-0.473 -0.436,-0.661 0,-0.28 0.174,-0.302 0.403,-0.302 0.115,0 0.223,0.016 0.372,0.034 0.285,0.043 0.714,0.106 1.597,0.106 h 0.055 l -0.018,-0.053 c -0.223,-0.641 -0.838,-1.573 -1.823,-2.77 0.088,-0.321 0.175,-0.53 0.485,-0.53 m -8.508,3.3 -0.018,0.053 h 0.055 c 0.882,0 1.312,-0.063 1.597,-0.106 0.15,-0.018 0.257,-0.034 0.372,-0.034 0.228,0 0.403,0.022 0.403,0.302 0,0.188 -0.22,0.487 -0.434,0.661 -0.327,-0.306 -0.776,-0.367 -1.438,-0.367 -0.31,0 -0.715,0.056 -0.931,0.086 l -0.035,0.004 -0.038,0.006 0.012,0.103 c 0.026,0.183 0.058,0.41 0.058,0.718 l -0.004,0.278 -0.004,0.346 c 0,0.75 0.103,1.177 0.366,1.5 a 0.865,0.865 0 0 1 -0.249,0.046 c -0.466,0 -0.6,-0.204 -0.6,-1.544 0,-0.27 -0.015,-0.523 -0.024,-0.69 l -0.014,-0.25 -0.058,0.045 C 9.493,26.639 8.78,27.581 8.737,28.286 8.529,28.152 8.303,27.85 8.303,27.619 c 0,-0.385 0.578,-0.962 1.248,-1.632 l 0.385,-0.384 0.05,-0.05 -0.127,-0.03 a 2.703,2.703 0 0 0 -0.64,-0.106 c -0.75,0 -1.22,0.142 -1.51,0.457 -0.105,-0.15 -0.192,-0.501 -0.192,-0.707 0,-0.133 0.026,-0.227 0.08,-0.28 0.065,-0.064 0.167,-0.064 0.256,-0.064 h 0.02 c 0.827,0 1.816,0.149 2.202,0.21 l 0.023,0.006 0.014,-0.02 c 0.068,-0.089 1.644,-2.19 2.055,-3.304 a 0.823,0.823 0 0 1 0.34,-0.062 c 0.31,0 0.397,0.21 0.487,0.53 -0.987,1.198 -1.602,2.13 -1.825,2.77 M 6.909,6.11 C 6.909,4.54 8.051,3.298 8.453,2.948 8.549,2.971 8.646,2.993 8.743,3.014 8.315,3.536 7.56,4.41 7.56,5.567 c 0,2.299 2.456,4.294 5.237,4.294 a 6.832,6.832 0 0 0 -0.028,0.618 c 0,0.339 0.02,0.654 0.052,0.952 C 9.677,11.411 6.908,8.859 6.908,6.111 M 28,10.95 c 1.412,2.231 2.515,2.194 4.183,2.194 -1.38,-1.057 -2.292,-2.411 -2.727,-3.103 L 26.879,5.918 a 6.099,6.099 0 0 0 -1.896,-3.35 c 0.332,-0.126 0.607,-0.258 0.773,-0.383 -1.683,0 -3.35,-0.855 -4.268,-0.855 -0.59,0 -0.969,0.353 -0.969,0.819 0.037,0.52 0.572,1.047 1.56,1.047 0.223,0 0.51,-0.029 0.824,-0.081 0.535,0.745 0.966,1.42 0.966,2.381 0,1.805 -2.158,3.212 -4.337,3.212 -0.124,0 -0.24,-0.005 -0.363,-0.014 -0.197,-0.447 -0.855,-1.198 -0.855,-2.053 0,-1.434 0.936,-2.606 0.936,-4.026 0,-0.884 -0.43,-1.43 -0.595,-1.658 0.267,-0.248 0.56,-0.553 0.628,-0.762 C 19.127,0.262 18.943,0.27 18.673,0.27 17.63,0.271 16.779,0 15.949,0 c -0.474,0 -0.6,0.146 -0.6,0.285 0,0.051 0.006,0.104 0.02,0.128 A 2.794,2.794 0 0 0 14.83,0.263 4.208,4.208 0 0 0 14.04,0.193 c -1.008,0 -1.367,0.423 -1.367,0.785 0,0.306 0.242,0.866 0.516,1.293 0.393,-0.198 0.865,-0.332 1.08,-0.332 0.536,0 1.012,0.51 1.264,1.113 -0.36,0.044 -0.429,0.06 -0.792,0.06 -0.983,0 -1.651,-0.352 -1.79,-0.352 -0.012,0 -0.038,0.007 -0.038,0.03 0,0.137 0.279,0.5 0.827,0.7 0.724,0.265 1.807,0.375 1.987,0.406 0,0.031 -0.183,0.373 -0.388,0.44 A 0.223,0.223 0 0 1 15.21,4.339 C 14.455,4.191 14.244,4.127 13.287,3.763 13.257,3.753 13.24,3.77 13.24,3.801 c 0,0.379 0.981,1.215 1.86,1.536 -0.734,0.937 -1.65,1.896 -2.083,3.358 a 5.349,5.349 0 0 1 -0.364,0.014 c -2.179,0 -4.337,-1.407 -4.337,-3.212 0,-0.962 0.431,-1.636 0.966,-2.381 0.314,0.052 0.6,0.081 0.824,0.081 0.988,0 1.523,-0.528 1.562,-1.047 0,-0.466 -0.38,-0.819 -0.97,-0.819 -0.918,0 -2.584,0.855 -4.27,0.855 0.167,0.125 0.443,0.257 0.773,0.383 A 6.105,6.105 0 0 0 5.306,5.919 L 2.73,10.042 c -0.435,0.692 -1.35,2.046 -2.729,3.103 1.667,0 2.773,0.037 4.184,-2.194 L 5.506,8.837 c 0.098,0.275 0.218,0.542 0.36,0.804 l -2.628,4.204 c -0.437,0.697 -1.344,2.04 -2.729,3.104 1.668,0 2.773,0.038 4.184,-2.192 l 2.262,-3.621 c 0.17,0.18 0.347,0.357 0.534,0.525 l -3.191,5.11 c -0.438,0.698 -1.34,2.038 -2.727,3.1 1.667,0 2.772,0.04 4.182,-2.19 l 3.112,-4.982 c 0.205,0.13 0.414,0.255 0.632,0.373 l -3.8,6.079 c -0.437,0.698 -1.339,2.034 -2.726,3.1 1.667,0 2.772,0.039 4.183,-2.19 L 11.065,13.8 c 0.232,0.088 0.466,0.173 0.704,0.25 L 7.35,21.122 c -0.431,0.689 -1.353,2.049 -2.726,3.1 1.666,0 2.773,0.039 4.183,-2.19 l 4.71,-7.539 c 0.048,0.009 0.095,0.015 0.142,0.025 0.128,0.408 0.218,0.788 0.218,1.167 0,2.37 -1.555,4.461 -3.42,6.076 0.12,0.052 0.327,0.07 0.519,0.07 0.386,0 0.634,-0.02 0.809,-0.05 -0.433,0.982 -1.362,2.251 -1.83,2.907 -0.61,-0.11 -1.5,-0.196 -2.081,-0.196 -0.61,0 -0.678,0.356 -0.678,0.674 0,0.553 0.259,0.992 0.56,1.238 0.112,-0.283 0.34,-0.66 1.464,-0.66 0.022,0 0.06,0.002 0.113,0.006 -0.328,0.366 -1.357,1.198 -1.357,1.868 0,0.443 0.486,1.11 1.127,1.11 C 9.066,28.584 9.07,28.453 9.07,28.354 c 0,-0.543 0.48,-1.179 0.887,-1.622 -0.012,0.132 -0.005,0.118 -0.005,0.273 0,1.282 0.116,1.872 0.93,1.872 0.4,0 0.675,-0.219 0.77,-0.285 -0.529,-0.486 -0.556,-0.87 -0.556,-1.589 l 0.005,-0.623 a 3.495,3.495 0 0 0 -0.027,-0.54 c 0.29,-0.04 0.409,-0.04 0.633,-0.04 0,0 1.157,-0.092 1.436,0.51 0.315,-0.288 0.77,-0.695 0.77,-1.142 0,-0.297 -0.14,-0.632 -0.737,-0.632 -0.226,0 -0.935,0.138 -1.53,0.138 0.16,-0.354 0.87,-1.393 1.486,-2.147 0.094,0.292 0.239,0.608 0.561,0.867 0.046,-0.485 0.33,-2.019 1.088,-2.916 0.088,0.606 0.206,1.228 0.206,2.538 0,3.19 -0.766,5.544 -2.393,5.994 0.212,0.368 0.66,0.7 1.124,0.7 0.595,0 0.92,-0.674 1.25,-1.31 0.172,0.469 0.648,1.618 1.124,1.618 0.477,0 0.954,-1.149 1.126,-1.618 0.33,0.636 0.655,1.31 1.25,1.31 0.465,0 0.912,-0.332 1.125,-0.7 -1.628,-0.45 -2.395,-2.805 -2.395,-5.994 0,-1.31 0.118,-1.932 0.206,-2.538 0.76,0.897 1.045,2.431 1.088,2.916 0.323,-0.259 0.47,-0.575 0.562,-0.867 0.614,0.754 1.326,1.793 1.485,2.147 -0.594,0 -1.305,-0.138 -1.53,-0.138 -0.595,0 -0.735,0.335 -0.735,0.632 0,0.447 0.456,0.854 0.77,1.142 0.277,-0.602 1.436,-0.51 1.436,-0.51 0.223,0 0.342,0 0.634,0.04 a 3.331,3.331 0 0 0 -0.028,0.54 l 0.005,0.623 c 0,0.72 -0.028,1.103 -0.557,1.589 0.095,0.066 0.37,0.285 0.77,0.285 0.815,0 0.932,-0.59 0.932,-1.872 0,-0.155 0.004,-0.141 -0.007,-0.273 0.406,0.443 0.887,1.079 0.887,1.622 0,0.099 0.006,0.23 -0.034,0.373 0.642,0 1.13,-0.666 1.13,-1.11 0,-0.669 -1.03,-1.501 -1.36,-1.867 0.053,-0.004 0.092,-0.006 0.113,-0.006 1.126,0 1.353,0.377 1.466,0.66 a 1.6,1.6 0 0 0 0.56,-1.238 c 0,-0.318 -0.07,-0.674 -0.679,-0.674 -0.581,0 -1.469,0.086 -2.08,0.196 -0.47,-0.656 -1.396,-1.925 -1.83,-2.908 0.175,0.03 0.424,0.051 0.808,0.051 0.193,0 0.4,-0.018 0.52,-0.07 -1.866,-1.615 -3.42,-3.707 -3.42,-6.076 0,-0.379 0.09,-0.759 0.217,-1.167 0.046,-0.01 0.095,-0.016 0.142,-0.025 l 4.71,7.538 c 1.41,2.23 2.517,2.191 4.183,2.191 -1.373,-1.051 -2.295,-2.411 -2.726,-3.1 l -4.42,-7.074 c 0.24,-0.076 0.475,-0.161 0.706,-0.25 l 3.91,6.261 c 1.41,2.23 2.516,2.191 4.184,2.191 -1.388,-1.066 -2.29,-2.402 -2.728,-3.1 L 22.69,13.071 c 0.215,-0.118 0.426,-0.244 0.63,-0.373 l 3.113,4.981 c 1.411,2.231 2.515,2.191 4.183,2.191 -1.388,-1.062 -2.288,-2.402 -2.728,-3.1 l -3.191,-5.11 c 0.187,-0.168 0.366,-0.345 0.533,-0.525 l 2.264,3.621 c 1.41,2.23 2.515,2.192 4.183,2.192 -1.387,-1.064 -2.29,-2.407 -2.729,-3.104 L 26.322,9.64 c 0.14,-0.262 0.26,-0.53 0.36,-0.804 z M 45.375,28.878 H 40.552 V 1.318 h 4.823 z"
       id="path4" />
    <path
       d="M 45.375,56.44 H 40.552 V 28.877 h 4.823 z"
       fill="#ff0000"
       id="path6" />
    <path
       d="M 45.375,84 H 40.552 V 56.44 h 4.823 z"
       fill="#ffcc00"
       id="path8" />
  </g>
</svg>
