<?xml version="1.0" encoding="UTF-8" standalone="no"?>
<!-- Generator: Adobe Illustrator 25.4.1, SVG Export Plug-In . SVG Version: 6.00 Build 0)  -->

<svg
   version="1.1"
   id="Layer_1"
   x="0px"
   y="0px"
   viewBox="0 0 500.55 184"
   xml:space="preserve"
   width="217.63043"
   height="80"
   xmlns="http://www.w3.org/2000/svg"
   xmlns:svg="http://www.w3.org/2000/svg"><defs
   id="defs41" />
<style
   type="text/css"
   id="style2">
    .st0{fill-rule:evenodd;clip-rule:evenodd;fill:#F15D22;}
    .st1{fill:#F15D22;}
</style>
<g
   id="g36"
   transform="translate(18.68,46)">
    <path
   d="m 145.37,10.45 v 4.83 c -2.59,-3.68 -7.06,-5.69 -11.97,-5.69 -9.73,0 -17.23,8.07 -17.23,18.52 0,10.45 7.5,18.52 17.23,18.52 4.9,0 9.37,-2.31 11.97,-5.98 v 5.12 h 8.22 V 10.45 Z m -20.83,17.66 c 0,-6.13 4.61,-10.96 10.6,-10.96 5.98,0 10.6,4.83 10.6,10.96 0,6.13 -4.61,10.96 -10.6,10.96 -5.99,0 -10.6,-4.83 -10.6,-10.96 z"
   id="path4" />
    <path
   d="m 164.1,0 v 10.45 h -5.26 v 7.06 h 5.26 v 17.37 c 0,7.35 4.25,11.75 11.32,11.75 2.88,0 4.97,-0.58 6.34,-1.3 v -7.42 c -1.08,0.72 -2.59,1.08 -3.89,1.08 -3.75,0 -5.48,-1.73 -5.48,-5.62 V 17.52 h 9.37 v -7.06 h -9.37 V 0 Z"
   id="path6" />
    <path
   d="m 203.83,9.59 c -10.81,0 -18.81,8.15 -18.81,18.52 0,10.37 8,18.52 18.81,18.52 10.81,0 18.81,-8.15 18.81,-18.52 0,-10.37 -7.99,-18.52 -18.81,-18.52 z m 0,7.64 c 5.91,0 10.52,4.83 10.52,10.88 0,6.05 -4.6,10.89 -10.52,10.89 -5.91,0 -10.52,-4.83 -10.52,-10.88 0,-6.05 4.61,-10.89 10.52,-10.89 z"
   id="path8" />
    <path
   d="m 237.61,27.03 c 0,-5.98 3.03,-9.8 7.57,-9.8 4.4,0 6.78,3.32 6.78,8.72 v 19.82 h 8.36 v -19.1 c 0.07,-5.77 3.1,-9.44 7.57,-9.44 4.4,0 6.78,3.24 6.78,8.43 v 20.11 h 8.36 v -21.7 c 0,-8.79 -4.69,-14.49 -12.83,-14.49 -5.91,0 -9.73,3.17 -11.75,6.56 -1.95,-4.11 -5.69,-6.56 -10.74,-6.56 -4.76,0 -8.22,2.16 -10.09,5.55 v -4.69 h -8.36 v 35.32 h 8.36 V 27.03 Z"
   id="path10" />
    <path
   d="m 116.18,81.67 c 0,10.74 7.64,18.52 18.6,18.52 3.39,0 6.7,-0.86 9.66,-2.52 v -8.29 c -2.52,1.73 -5.55,3.17 -8.87,3.17 -6.34,0 -10.96,-4.76 -10.96,-10.88 0,-6.2 4.69,-10.88 10.96,-10.88 3.1,0 5.98,1.08 8.72,3.17 v -8.29 c -2.74,-1.66 -6.05,-2.52 -9.44,-2.52 -10.96,0 -18.67,8 -18.67,18.52 z"
   id="path12" />
    <path
   d="m 167.55,63.15 c -10.81,0 -18.81,8.15 -18.81,18.53 0,10.38 8,18.52 18.81,18.52 10.81,0 18.81,-8.14 18.81,-18.52 0,-10.38 -8,-18.53 -18.81,-18.53 z m 0,7.64 c 5.91,0 10.52,4.83 10.52,10.88 0,6.05 -4.61,10.88 -10.52,10.88 -5.91,0 -10.52,-4.83 -10.52,-10.88 -0.01,-6.05 4.61,-10.88 10.52,-10.88 z"
   id="path14" />
    <path
   d="m 201.32,80.59 c 0,-5.98 3.03,-9.8 7.57,-9.8 4.4,0 6.78,3.32 6.78,8.72 v 19.82 h 8.36 v -19.1 c 0.07,-5.77 3.1,-9.44 7.57,-9.44 4.4,0 6.78,3.24 6.78,8.43 v 20.11 h 8.36 v -21.7 c 0,-8.79 -4.69,-14.49 -12.83,-14.49 -5.91,0 -9.73,3.17 -11.75,6.56 -1.95,-4.11 -5.69,-6.56 -10.74,-6.56 -4.76,0 -8.22,2.16 -10.09,5.55 V 64 h -8.36 v 35.32 h 8.36 V 80.59 Z"
   id="path16" />
    <path
   d="m 255.22,64.01 v 50.31 h 8.29 V 94.5 c 2.59,3.6 7.06,5.69 11.97,5.69 9.73,0 17.23,-8.14 17.23,-18.52 0,-10.52 -7.5,-18.53 -17.23,-18.53 -4.9,0 -9.37,2.31 -11.97,5.91 V 64 h -8.29 z m 29.12,17.66 c 0,6.13 -4.61,10.96 -10.6,10.96 -5.98,0 -10.6,-4.83 -10.6,-10.96 0,-6.13 4.61,-10.96 10.6,-10.96 5.99,0 10.6,4.83 10.6,10.96 z"
   id="path18" />
    <path
   d="m 322.9,82.61 c 0,6.05 -3.24,9.88 -8.22,9.88 -4.83,0 -7.64,-3.32 -7.64,-8.79 V 64.01 h -8.36 v 21.26 c 0,9.15 5.12,14.92 13.48,14.92 4.9,0 8.58,-2.23 10.74,-5.55 v 4.69 h 8.36 V 64.01 h -8.36 z"
   id="path20" />
    <path
   d="m 341.7,53.56 v 10.45 h -5.26 v 7.06 h 5.26 v 17.37 c 0,7.35 4.25,11.75 11.32,11.75 2.88,0 4.97,-0.58 6.34,-1.3 v -7.42 c -1.08,0.72 -2.59,1.08 -3.89,1.08 -3.75,0 -5.48,-1.73 -5.48,-5.62 V 71.07 h 9.37 v -7.06 h -9.37 V 53.56 Z"
   id="path22" />
    <path
   d="M 374.14,99.33 V 64.01 h -8.36 v 35.32 z m 0.94,-45.63 c 0,-2.81 -2.23,-5.19 -5.19,-5.19 -2.81,0 -5.12,2.31 -5.12,5.19 0,2.81 2.31,5.12 5.12,5.12 2.95,0 5.19,-2.38 5.19,-5.12 z"
   id="path24" />
    <path
   d="m 391.42,80.73 c 0,-6.05 3.32,-9.87 8.29,-9.87 5.05,0 7.86,3.32 7.86,8.79 v 19.68 h 8.36 V 78.07 c 0,-9.15 -5.12,-14.92 -13.69,-14.92 -4.98,0 -8.65,2.23 -10.81,5.55 v -4.69 h -8.36 v 35.32 h 8.36 v -18.6 z"
   id="path26" />
    <path
   d="m 450.65,93.28 v 3.96 c 0,6.85 -3.89,11.03 -10.23,11.03 -4.47,0 -8.29,-2.23 -10.45,-6.2 l -6.63,4.18 c 3.03,5.84 9.23,9.3 17.08,9.3 11.53,0 18.45,-7.42 18.45,-18.38 V 64.01 h -8.22 v 4.76 c -2.38,-3.46 -6.7,-5.62 -11.6,-5.62 -9.59,0 -16.94,7.86 -16.94,18.02 0,10.16 7.35,17.8 16.94,17.8 4.83,0 9.22,-2.31 11.6,-5.69 z m 0.36,-12.11 c 0,5.91 -4.47,10.6 -10.23,10.6 -5.76,0 -10.23,-4.69 -10.23,-10.6 0,-5.84 4.47,-10.52 10.23,-10.52 5.76,0 10.23,4.68 10.23,10.52 z"
   id="path28" />
    <g
   id="g34">
        <path
   class="st0"
   d="m 53.91,8.67 c 0.03,0 0.07,0 0.1,0 v 0 c 10.68,0.1 17.43,7.63 21.75,15.75 4.36,8.22 7.25,18.86 9.66,28.71 0.55,2.23 1.07,4.42 1.57,6.55 1.82,7.65 3.46,14.56 5.44,20.04 1.26,3.49 2.46,5.81 3.55,7.16 0.51,0.64 0.87,0.9 1.03,0.99 0.1,0.06 0.12,0.05 0.14,0.05 0,0 0,0 0.01,0 3.5,0 6.34,2.84 6.34,6.34 0,3.5 -2.84,6.34 -6.34,6.34 -4.92,0 -8.57,-2.68 -11.05,-5.77 -2.4,-2.98 -4.17,-6.86 -5.6,-10.8 C 78.26,77.8 76.39,69.92 74.54,62.16 74.06,60.13 73.58,58.12 73.1,56.14 70.67,46.18 68.08,37 64.56,30.36 61.04,23.74 57.59,21.39 53.91,21.34 c -3.68,0.04 -7.13,2.39 -10.65,9.02 -3.53,6.64 -6.11,15.82 -8.54,25.78 -0.48,1.98 -0.96,4 -1.44,6.02 -1.84,7.76 -3.71,15.64 -5.97,21.87 -1.43,3.94 -3.2,7.82 -5.6,10.8 -2.49,3.09 -6.13,5.77 -11.05,5.77 -3.5,0 -6.34,-2.84 -6.34,-6.34 0,-3.5 2.84,-6.34 6.34,-6.34 0,0 0,0 0.01,0 0.02,0 0.04,0 0.14,-0.05 0.16,-0.09 0.52,-0.35 1.03,-0.99 1.09,-1.35 2.29,-3.67 3.55,-7.16 1.98,-5.48 3.62,-12.39 5.44,-20.04 0.51,-2.13 1.03,-4.32 1.57,-6.55 2.41,-9.86 5.3,-20.49 9.66,-28.71 C 36.37,16.3 43.13,8.77 53.8,8.67 v 0 c 0.04,0 0.07,0 0.11,0 z"
   id="path30" />
        <circle
   class="st1"
   cx="53.91"
   cy="55.84"
   r="10.07"
   id="circle32" />
    </g>
</g>
</svg>
