<svg xmlns="http://www.w3.org/2000/svg" height="60" width="240">
  <g transform="translate(16.0 6.858013) scale(0.18 0.18)">
    <path
       style="fill:#ffffff;fill-opacity:1"
       d="M 128.00106,0 C 57.317293,0 0,57.306694 0,128.00106 c 0,56.55422 36.6762,104.53448 87.534937,121.45984 6.397085,1.18488 8.745651,-2.77674 8.745651,-6.15757 0,-3.05229 -0.1187,-13.13543 -0.173811,-23.83115 -35.610019,7.74305 -43.124156,-15.10247 -43.124156,-15.10247 -5.822663,-14.79511 -14.212213,-18.72917 -14.212213,-18.72917 -11.61353,-7.94443 0.875413,-7.78122 0.875413,-7.78122 12.853521,0.90297 19.621544,13.19055 19.621544,13.19055 11.416403,19.56855 29.94421,13.91122 37.248503,10.64061 1.148847,-8.27297 4.466092,-13.9197 8.126712,-17.11612 -28.430781,-3.2367 -58.317761,-14.21222 -58.317761,-63.25866 0,-13.97481 5.00024,-25.393332 13.188425,-34.357306 -1.329017,-3.223979 -5.710321,-16.242832 1.239991,-33.87403 0,0 10.748715,-3.440183 35.209406,13.120595 10.210329,-2.836083 21.160409,-4.258364 32.038419,-4.307116 10.87801,0.04875 21.83657,1.471033 32.06597,4.307116 24.43102,-16.560778 35.1649,-13.120595 35.1649,-13.120595 6.96727,17.631198 2.58384,30.650051 1.25483,33.87403 8.20726,8.963974 13.17358,20.382496 13.17358,34.357306 0,49.16302 -29.94421,59.98805 -58.44706,63.15691 4.59115,3.97222 8.68206,11.76191 8.68206,23.70398 0,17.12673 -0.14837,30.91077 -0.14837,35.12674 0,3.40627 2.30405,7.39756 8.79228,6.14061 C 219.37043,232.49951 256,184.5362 256,128.00106 256,57.306694 198.69119,0 128.00106,0 Z M 47.940559,182.34021 c -0.281912,0.63589 -1.282385,0.82666 -2.193831,0.39002 -0.928405,-0.41757 -1.449837,-1.28451 -1.148847,-1.92252 0.275553,-0.65497 1.278145,-0.83726 2.204429,-0.39849 0.930524,0.41757 1.460435,1.29298 1.138249,1.93099 z m 6.29623,5.61804 c -0.610457,0.56595 -1.803817,0.30311 -2.613521,-0.59138 -0.837259,-0.89237 -0.994113,-2.08573 -0.375177,-2.66015 0.629534,-0.56595 1.78686,-0.30099 2.626239,0.59138 0.837259,0.90297 1.000472,2.08785 0.362459,2.66015 z m 4.319452,7.1881 c -0.784268,0.54475 -2.066652,0.0339 -2.859399,-1.10434 -0.784269,-1.13825 -0.784269,-2.5033 0.01696,-3.05017 0.794866,-0.54686 2.058174,-0.0551 2.861519,1.07466 0.782149,1.15733 0.782149,2.52238 -0.01908,3.07985 z m 7.305118,8.32482 c -0.701602,0.77368 -2.195951,0.56595 -3.289687,-0.48963 -1.119172,-1.03227 -1.43076,-2.49694 -0.727038,-3.27061 0.710081,-0.77579 2.212908,-0.55747 3.315123,0.48963 1.110694,1.03015 1.449837,2.50542 0.701602,3.27061 z m 9.441156,2.81037 c -0.309468,1.00259 -1.748706,1.45832 -3.198543,1.03227 -1.447716,-0.43877 -2.395197,-1.61305 -2.102686,-2.62624 0.300989,-1.00895 1.746586,-1.48375 3.207021,-1.02803 1.445597,0.43665 2.395198,1.60245 2.094208,2.622 z m 10.744432,1.19209 c 0.03603,1.05558 -1.19336,1.93099 -2.715264,1.95007 -1.530383,0.0339 -2.768255,-0.8203 -2.785212,-1.85893 0,-1.06618 1.201838,-1.93311 2.732221,-1.95855 1.521904,-0.0297 2.768255,0.81818 2.768255,1.86741 z m 10.5552,-0.40461 c 0.18229,1.03015 -0.875413,2.08785 -2.386719,2.36976 -1.48587,0.27132 -2.861519,-0.36457 -3.050168,-1.38624 -0.184409,-1.05558 0.892371,-2.11329 2.376121,-2.38672 1.513426,-0.26284 2.867879,0.3561 3.060766,1.4032 z" />
  </g>
  <rect
     y="0"
     x="0"
     height="60"
     width="240"
     style="fill:none;fill-opacity:1;stroke:#ffffff;stroke-opacity:1" />
</svg>
