<?xml version="1.0" encoding="UTF-8" standalone="no"?>
<!DOCTYPE svg PUBLIC "-//W3C//DTD SVG 1.1//EN"
 "http://www.w3.org/Graphics/SVG/1.1/DTD/svg11.dtd">
<!-- Generated by graphviz version 2.43.0 (0)
 -->
<!-- Title: /__w/pairinteraction/pairinteraction/pairinteraction/Basisnames.hpp Pages: 1 -->
<svg width="731pt" height="218pt"
 viewBox="0.00 0.00 731.00 218.00" xmlns="http://www.w3.org/2000/svg" xmlns:xlink="http://www.w3.org/1999/xlink">
<g id="graph0" class="graph" transform="scale(1 1) rotate(0) translate(4 214)">
<title>/__w/pairinteraction/pairinteraction/pairinteraction/Basisnames.hpp</title>
<!-- Node1 -->
<g id="node1" class="node">
<title>Node1</title>
<g id="a_node1"><a xlink:title=" ">
<polygon fill="#bfbfbf" stroke="black" points="301.5,-168.5 301.5,-209.5 466.5,-209.5 466.5,-168.5 301.5,-168.5"/>
<text text-anchor="start" x="309.5" y="-197.5" font-family="Helvetica,sans-Serif" font-size="10.00">/__w/pairinteraction</text>
<text text-anchor="start" x="309.5" y="-186.5" font-family="Helvetica,sans-Serif" font-size="10.00">/pairinteraction/pairinteraction</text>
<text text-anchor="middle" x="384" y="-175.5" font-family="Helvetica,sans-Serif" font-size="10.00">/Basisnames.hpp</text>
</a>
</g>
</g>
<!-- Node2 -->
<g id="node2" class="node">
<title>Node2</title>
<g id="a_node2"><a xlink:href="ConfParser_8hpp.html" target="_top" xlink:title=" ">
<polygon fill="none" stroke="black" points="38.5,-112.5 38.5,-131.5 129.5,-131.5 129.5,-112.5 38.5,-112.5"/>
<text text-anchor="middle" x="84" y="-119.5" font-family="Helvetica,sans-Serif" font-size="10.00">ConfParser.hpp</text>
</a>
</g>
</g>
<!-- Node1&#45;&gt;Node2 -->
<g id="edge1" class="edge">
<title>Node1&#45;&gt;Node2</title>
<path fill="none" stroke="midnightblue" d="M301.23,-170.07C247.38,-158.4 178.94,-143.57 133.42,-133.71"/>
<polygon fill="midnightblue" stroke="midnightblue" points="134.02,-130.26 123.51,-131.56 132.54,-137.1 134.02,-130.26"/>
</g>
<!-- Node5 -->
<g id="node5" class="node">
<title>Node5</title>
<g id="a_node5"><a xlink:title=" ">
<polygon fill="none" stroke="#bfbfbf" points="130,-56.5 130,-75.5 174,-75.5 174,-56.5 130,-56.5"/>
<text text-anchor="middle" x="152" y="-63.5" font-family="Helvetica,sans-Serif" font-size="10.00">string</text>
</a>
</g>
</g>
<!-- Node1&#45;&gt;Node5 -->
<g id="edge24" class="edge">
<title>Node1&#45;&gt;Node5</title>
<path fill="none" stroke="midnightblue" d="M301.46,-183.12C259.72,-176.68 210.87,-162.55 177,-132 163.69,-120 157.41,-100.1 154.49,-85.48"/>
<polygon fill="midnightblue" stroke="midnightblue" points="157.93,-84.84 152.84,-75.54 151.02,-85.98 157.93,-84.84"/>
</g>
<!-- Node6 -->
<g id="node6" class="node">
<title>Node6</title>
<g id="a_node6"><a xlink:href="Iter_8hpp.html" target="_top" xlink:title=" ">
<polygon fill="none" stroke="black" points="186,-112.5 186,-131.5 240,-131.5 240,-112.5 186,-112.5"/>
<text text-anchor="middle" x="213" y="-119.5" font-family="Helvetica,sans-Serif" font-size="10.00">Iter.hpp</text>
</a>
</g>
</g>
<!-- Node1&#45;&gt;Node6 -->
<g id="edge5" class="edge">
<title>Node1&#45;&gt;Node6</title>
<path fill="none" stroke="midnightblue" d="M332.69,-168.5C304.33,-157.72 269.96,-144.65 245.34,-135.29"/>
<polygon fill="midnightblue" stroke="midnightblue" points="246.35,-131.93 235.76,-131.65 243.87,-138.48 246.35,-131.93"/>
</g>
<!-- Node7 -->
<g id="node7" class="node">
<title>Node7</title>
<g id="a_node7"><a xlink:href="StateOld_8hpp.html" target="_top" xlink:title=" ">
<polygon fill="none" stroke="black" points="258,-112.5 258,-131.5 338,-131.5 338,-112.5 258,-112.5"/>
<text text-anchor="middle" x="298" y="-119.5" font-family="Helvetica,sans-Serif" font-size="10.00">StateOld.hpp</text>
</a>
</g>
</g>
<!-- Node1&#45;&gt;Node7 -->
<g id="edge6" class="edge">
<title>Node1&#45;&gt;Node7</title>
<path fill="none" stroke="midnightblue" d="M358.2,-168.5C345.14,-158.63 329.55,-146.84 317.5,-137.74"/>
<polygon fill="midnightblue" stroke="midnightblue" points="319.54,-134.89 309.45,-131.65 315.32,-140.47 319.54,-134.89"/>
</g>
<!-- Node20 -->
<g id="node20" class="node">
<title>Node20</title>
<g id="a_node20"><a xlink:title=" ">
<polygon fill="none" stroke="#bfbfbf" points="356.5,-112.5 356.5,-131.5 411.5,-131.5 411.5,-112.5 356.5,-112.5"/>
<text text-anchor="middle" x="384" y="-119.5" font-family="Helvetica,sans-Serif" font-size="10.00">fstream</text>
</a>
</g>
</g>
<!-- Node1&#45;&gt;Node20 -->
<g id="edge21" class="edge">
<title>Node1&#45;&gt;Node20</title>
<path fill="none" stroke="midnightblue" d="M384,-168.5C384,-160.07 384,-150.24 384,-141.87"/>
<polygon fill="midnightblue" stroke="midnightblue" points="387.5,-141.65 384,-131.65 380.5,-141.65 387.5,-141.65"/>
</g>
<!-- Node21 -->
<g id="node21" class="node">
<title>Node21</title>
<g id="a_node21"><a xlink:title=" ">
<polygon fill="none" stroke="#bfbfbf" points="430,-112.5 430,-131.5 488,-131.5 488,-112.5 430,-112.5"/>
<text text-anchor="middle" x="459" y="-119.5" font-family="Helvetica,sans-Serif" font-size="10.00">memory</text>
</a>
</g>
</g>
<!-- Node1&#45;&gt;Node21 -->
<g id="edge22" class="edge">
<title>Node1&#45;&gt;Node21</title>
<path fill="none" stroke="midnightblue" d="M406.5,-168.5C417.67,-158.82 430.96,-147.3 441.38,-138.27"/>
<polygon fill="midnightblue" stroke="midnightblue" points="443.75,-140.85 449.02,-131.65 439.17,-135.56 443.75,-140.85"/>
</g>
<!-- Node22 -->
<g id="node22" class="node">
<title>Node22</title>
<g id="a_node22"><a xlink:title=" ">
<polygon fill="none" stroke="#bfbfbf" points="506,-112.5 506,-131.5 538,-131.5 538,-112.5 506,-112.5"/>
<text text-anchor="middle" x="522" y="-119.5" font-family="Helvetica,sans-Serif" font-size="10.00">set</text>
</a>
</g>
</g>
<!-- Node1&#45;&gt;Node22 -->
<g id="edge23" class="edge">
<title>Node1&#45;&gt;Node22</title>
<path fill="none" stroke="midnightblue" d="M425.4,-168.5C448.6,-157.57 476.78,-144.3 496.7,-134.92"/>
<polygon fill="midnightblue" stroke="midnightblue" points="498.2,-138.08 505.76,-130.65 495.22,-131.74 498.2,-138.08"/>
</g>
<!-- Node23 -->
<g id="node23" class="node">
<title>Node23</title>
<g id="a_node23"><a xlink:title=" ">
<polygon fill="none" stroke="#bfbfbf" points="556,-112.5 556,-131.5 642,-131.5 642,-112.5 556,-112.5"/>
<text text-anchor="middle" x="599" y="-119.5" font-family="Helvetica,sans-Serif" font-size="10.00">unordered_set</text>
</a>
</g>
</g>
<!-- Node1&#45;&gt;Node23 -->
<g id="edge25" class="edge">
<title>Node1&#45;&gt;Node23</title>
<path fill="none" stroke="midnightblue" d="M448.51,-168.5C485.23,-157.4 529.96,-143.87 561.07,-134.47"/>
<polygon fill="midnightblue" stroke="midnightblue" points="562.1,-137.81 570.66,-131.57 560.08,-131.11 562.1,-137.81"/>
</g>
<!-- Node24 -->
<g id="node24" class="node">
<title>Node24</title>
<g id="a_node24"><a xlink:title=" ">
<polygon fill="none" stroke="#bfbfbf" points="660.5,-112.5 660.5,-131.5 707.5,-131.5 707.5,-112.5 660.5,-112.5"/>
<text text-anchor="middle" x="684" y="-119.5" font-family="Helvetica,sans-Serif" font-size="10.00">vector</text>
</a>
</g>
</g>
<!-- Node1&#45;&gt;Node24 -->
<g id="edge26" class="edge">
<title>Node1&#45;&gt;Node24</title>
<path fill="none" stroke="midnightblue" d="M466.68,-171.98C517.08,-161.9 583.01,-148.17 650.31,-132.05"/>
<polygon fill="midnightblue" stroke="midnightblue" points="651.35,-135.4 660.25,-129.66 649.71,-128.6 651.35,-135.4"/>
</g>
<!-- Node3 -->
<g id="node3" class="node">
<title>Node3</title>
<g id="a_node3"><a xlink:title=" ">
<polygon fill="none" stroke="#bfbfbf" points="0,-56.5 0,-75.5 38,-75.5 38,-56.5 0,-56.5"/>
<text text-anchor="middle" x="19" y="-63.5" font-family="Helvetica,sans-Serif" font-size="10.00">map</text>
</a>
</g>
</g>
<!-- Node2&#45;&gt;Node3 -->
<g id="edge2" class="edge">
<title>Node2&#45;&gt;Node3</title>
<path fill="none" stroke="midnightblue" d="M73.56,-112.32C63.85,-104.26 49.18,-92.08 37.5,-82.37"/>
<polygon fill="midnightblue" stroke="midnightblue" points="39.56,-79.53 29.63,-75.83 35.09,-84.92 39.56,-79.53"/>
</g>
<!-- Node4 -->
<g id="node4" class="node">
<title>Node4</title>
<g id="a_node4"><a xlink:title=" ">
<polygon fill="none" stroke="#bfbfbf" points="56,-56.5 56,-75.5 112,-75.5 112,-56.5 56,-56.5"/>
<text text-anchor="middle" x="84" y="-63.5" font-family="Helvetica,sans-Serif" font-size="10.00">sstream</text>
</a>
</g>
</g>
<!-- Node2&#45;&gt;Node4 -->
<g id="edge3" class="edge">
<title>Node2&#45;&gt;Node4</title>
<path fill="none" stroke="midnightblue" d="M84,-112.08C84,-105.01 84,-94.86 84,-85.99"/>
<polygon fill="midnightblue" stroke="midnightblue" points="87.5,-85.75 84,-75.75 80.5,-85.75 87.5,-85.75"/>
</g>
<!-- Node2&#45;&gt;Node5 -->
<g id="edge4" class="edge">
<title>Node2&#45;&gt;Node5</title>
<path fill="none" stroke="midnightblue" d="M94.93,-112.32C105.17,-104.18 120.72,-91.84 133,-82.09"/>
<polygon fill="midnightblue" stroke="midnightblue" points="135.22,-84.79 140.88,-75.83 130.87,-79.31 135.22,-84.79"/>
</g>
<!-- Node7&#45;&gt;Node5 -->
<g id="edge18" class="edge">
<title>Node7&#45;&gt;Node5</title>
<path fill="none" stroke="midnightblue" d="M274.87,-112.44C250.23,-103.33 211.08,-88.85 183.61,-78.69"/>
<polygon fill="midnightblue" stroke="midnightblue" points="184.66,-75.35 174.07,-75.16 182.24,-81.91 184.66,-75.35"/>
</g>
<!-- Node8 -->
<g id="node8" class="node">
<title>Node8</title>
<g id="a_node8"><a xlink:href="utils_8hpp.html" target="_top" xlink:title=" ">
<polygon fill="none" stroke="black" points="230.5,-56.5 230.5,-75.5 289.5,-75.5 289.5,-56.5 230.5,-56.5"/>
<text text-anchor="middle" x="260" y="-63.5" font-family="Helvetica,sans-Serif" font-size="10.00">utils.hpp</text>
</a>
</g>
</g>
<!-- Node7&#45;&gt;Node8 -->
<g id="edge7" class="edge">
<title>Node7&#45;&gt;Node8</title>
<path fill="none" stroke="midnightblue" d="M291.73,-112.08C286.36,-104.46 278.48,-93.26 271.92,-83.94"/>
<polygon fill="midnightblue" stroke="midnightblue" points="274.78,-81.91 266.16,-75.75 269.05,-85.94 274.78,-81.91"/>
</g>
<!-- Node10 -->
<g id="node10" class="node">
<title>Node10</title>
<g id="a_node10"><a xlink:title=" ">
<polygon fill="none" stroke="#bfbfbf" points="48,-0.5 48,-19.5 90,-19.5 90,-0.5 48,-0.5"/>
<text text-anchor="middle" x="69" y="-7.5" font-family="Helvetica,sans-Serif" font-size="10.00">array</text>
</a>
</g>
</g>
<!-- Node7&#45;&gt;Node10 -->
<g id="edge15" class="edge">
<title>Node7&#45;&gt;Node10</title>
<path fill="none" stroke="midnightblue" d="M284.17,-112.35C262.9,-99.24 220.67,-73.97 183,-56 155.57,-42.91 123.25,-30.42 100.04,-21.93"/>
<polygon fill="midnightblue" stroke="midnightblue" points="100.98,-18.55 90.38,-18.44 98.6,-25.13 100.98,-18.55"/>
</g>
<!-- Node16 -->
<g id="node16" class="node">
<title>Node16</title>
<g id="a_node16"><a xlink:title=" ">
<polygon fill="none" stroke="#bfbfbf" points="307.5,-56.5 307.5,-75.5 354.5,-75.5 354.5,-56.5 307.5,-56.5"/>
<text text-anchor="middle" x="331" y="-63.5" font-family="Helvetica,sans-Serif" font-size="10.00">cmath</text>
</a>
</g>
</g>
<!-- Node7&#45;&gt;Node16 -->
<g id="edge16" class="edge">
<title>Node7&#45;&gt;Node16</title>
<path fill="none" stroke="midnightblue" d="M303.45,-112.08C308.01,-104.61 314.67,-93.72 320.29,-84.52"/>
<polygon fill="midnightblue" stroke="midnightblue" points="323.42,-86.11 325.65,-75.75 317.45,-82.46 323.42,-86.11"/>
</g>
<!-- Node17 -->
<g id="node17" class="node">
<title>Node17</title>
<g id="a_node17"><a xlink:title=" ">
<polygon fill="none" stroke="#bfbfbf" points="373,-56.5 373,-75.5 433,-75.5 433,-56.5 373,-56.5"/>
<text text-anchor="middle" x="403" y="-63.5" font-family="Helvetica,sans-Serif" font-size="10.00">iostream</text>
</a>
</g>
</g>
<!-- Node7&#45;&gt;Node17 -->
<g id="edge17" class="edge">
<title>Node7&#45;&gt;Node17</title>
<path fill="none" stroke="midnightblue" d="M314.87,-112.32C331.71,-103.66 357.81,-90.24 377.24,-80.25"/>
<polygon fill="midnightblue" stroke="midnightblue" points="378.88,-83.34 386.17,-75.65 375.68,-77.12 378.88,-83.34"/>
</g>
<!-- Node18 -->
<g id="node18" class="node">
<title>Node18</title>
<g id="a_node18"><a xlink:title=" ">
<polygon fill="none" stroke="#bfbfbf" points="451.5,-56.5 451.5,-75.5 576.5,-75.5 576.5,-56.5 451.5,-56.5"/>
<text text-anchor="middle" x="514" y="-63.5" font-family="Helvetica,sans-Serif" font-size="10.00">cereal/types/array.hpp</text>
</a>
</g>
</g>
<!-- Node7&#45;&gt;Node18 -->
<g id="edge19" class="edge">
<title>Node7&#45;&gt;Node18</title>
<path fill="none" stroke="midnightblue" d="M332.23,-112.44C369.51,-103.12 429.27,-88.18 470.01,-78"/>
<polygon fill="midnightblue" stroke="midnightblue" points="471.08,-81.34 479.93,-75.52 469.38,-74.55 471.08,-81.34"/>
</g>
<!-- Node19 -->
<g id="node19" class="node">
<title>Node19</title>
<g id="a_node19"><a xlink:title=" ">
<polygon fill="none" stroke="#bfbfbf" points="595,-56.5 595,-75.5 723,-75.5 723,-56.5 595,-56.5"/>
<text text-anchor="middle" x="659" y="-63.5" font-family="Helvetica,sans-Serif" font-size="10.00">cereal/types/string.hpp</text>
</a>
</g>
</g>
<!-- Node7&#45;&gt;Node19 -->
<g id="edge20" class="edge">
<title>Node7&#45;&gt;Node19</title>
<path fill="none" stroke="midnightblue" d="M338.1,-113.66C341.44,-113.08 344.78,-112.52 348,-112 429.11,-98.84 522.43,-85.59 585.52,-76.91"/>
<polygon fill="midnightblue" stroke="midnightblue" points="586.33,-80.33 595.76,-75.5 585.38,-73.39 586.33,-80.33"/>
</g>
<!-- Node9 -->
<g id="node9" class="node">
<title>Node9</title>
<g id="a_node9"><a xlink:title=" ">
<polygon fill="none" stroke="#bfbfbf" points="108,-0.5 108,-19.5 172,-19.5 172,-0.5 108,-0.5"/>
<text text-anchor="middle" x="140" y="-7.5" font-family="Helvetica,sans-Serif" font-size="10.00">algorithm</text>
</a>
</g>
</g>
<!-- Node8&#45;&gt;Node9 -->
<g id="edge8" class="edge">
<title>Node8&#45;&gt;Node9</title>
<path fill="none" stroke="midnightblue" d="M240.99,-56.44C221.41,-47.64 190.69,-33.81 168.27,-23.72"/>
<polygon fill="midnightblue" stroke="midnightblue" points="169.48,-20.43 158.93,-19.52 166.61,-26.81 169.48,-20.43"/>
</g>
<!-- Node8&#45;&gt;Node10 -->
<g id="edge9" class="edge">
<title>Node8&#45;&gt;Node10</title>
<path fill="none" stroke="midnightblue" d="M230.28,-56.87C199.89,-48.53 151.08,-35.01 100.16,-20.3"/>
<polygon fill="midnightblue" stroke="midnightblue" points="100.87,-16.86 90.29,-17.44 98.92,-23.58 100.87,-16.86"/>
</g>
<!-- Node11 -->
<g id="node11" class="node">
<title>Node11</title>
<g id="a_node11"><a xlink:title=" ">
<polygon fill="none" stroke="#bfbfbf" points="190.5,-0.5 190.5,-19.5 249.5,-19.5 249.5,-0.5 190.5,-0.5"/>
<text text-anchor="middle" x="220" y="-7.5" font-family="Helvetica,sans-Serif" font-size="10.00">complex</text>
</a>
</g>
</g>
<!-- Node8&#45;&gt;Node11 -->
<g id="edge10" class="edge">
<title>Node8&#45;&gt;Node11</title>
<path fill="none" stroke="midnightblue" d="M253.39,-56.08C247.74,-48.46 239.46,-37.26 232.55,-27.94"/>
<polygon fill="midnightblue" stroke="midnightblue" points="235.25,-25.7 226.48,-19.75 229.62,-29.87 235.25,-25.7"/>
</g>
<!-- Node12 -->
<g id="node12" class="node">
<title>Node12</title>
<g id="a_node12"><a xlink:title=" ">
<polygon fill="none" stroke="#bfbfbf" points="267.5,-0.5 267.5,-19.5 332.5,-19.5 332.5,-0.5 267.5,-0.5"/>
<text text-anchor="middle" x="300" y="-7.5" font-family="Helvetica,sans-Serif" font-size="10.00">functional</text>
</a>
</g>
</g>
<!-- Node8&#45;&gt;Node12 -->
<g id="edge11" class="edge">
<title>Node8&#45;&gt;Node12</title>
<path fill="none" stroke="midnightblue" d="M266.61,-56.08C272.26,-48.46 280.54,-37.26 287.45,-27.94"/>
<polygon fill="midnightblue" stroke="midnightblue" points="290.38,-29.87 293.52,-19.75 284.75,-25.7 290.38,-29.87"/>
</g>
<!-- Node13 -->
<g id="node13" class="node">
<title>Node13</title>
<g id="a_node13"><a xlink:title=" ">
<polygon fill="none" stroke="#bfbfbf" points="351,-0.5 351,-19.5 405,-19.5 405,-0.5 351,-0.5"/>
<text text-anchor="middle" x="378" y="-7.5" font-family="Helvetica,sans-Serif" font-size="10.00">random</text>
</a>
</g>
</g>
<!-- Node8&#45;&gt;Node13 -->
<g id="edge12" class="edge">
<title>Node8&#45;&gt;Node13</title>
<path fill="none" stroke="midnightblue" d="M278.7,-56.44C297.94,-47.64 328.15,-33.81 350.2,-23.72"/>
<polygon fill="midnightblue" stroke="midnightblue" points="351.75,-26.86 359.39,-19.52 348.84,-20.5 351.75,-26.86"/>
</g>
<!-- Node14 -->
<g id="node14" class="node">
<title>Node14</title>
<g id="a_node14"><a xlink:title=" ">
<polygon fill="none" stroke="#bfbfbf" points="423.5,-0.5 423.5,-19.5 492.5,-19.5 492.5,-0.5 423.5,-0.5"/>
<text text-anchor="middle" x="458" y="-7.5" font-family="Helvetica,sans-Serif" font-size="10.00">type_traits</text>
</a>
</g>
</g>
<!-- Node8&#45;&gt;Node14 -->
<g id="edge13" class="edge">
<title>Node8&#45;&gt;Node14</title>
<path fill="none" stroke="midnightblue" d="M289.64,-56.92C323.41,-47.71 378.82,-32.59 416.78,-22.24"/>
<polygon fill="midnightblue" stroke="midnightblue" points="417.79,-25.59 426.52,-19.59 415.95,-18.84 417.79,-25.59"/>
</g>
<!-- Node15 -->
<g id="node15" class="node">
<title>Node15</title>
<g id="a_node15"><a xlink:title=" ">
<polygon fill="none" stroke="#bfbfbf" points="511,-0.5 511,-19.5 567,-19.5 567,-0.5 511,-0.5"/>
<text text-anchor="middle" x="539" y="-7.5" font-family="Helvetica,sans-Serif" font-size="10.00">unistd.h</text>
</a>
</g>
</g>
<!-- Node8&#45;&gt;Node15 -->
<g id="edge14" class="edge">
<title>Node8&#45;&gt;Node15</title>
<path fill="none" stroke="midnightblue" d="M289.78,-57.96C292.89,-57.28 296,-56.61 299,-56 385.71,-38.32 410.64,-38.78 500.92,-20.12"/>
<polygon fill="midnightblue" stroke="midnightblue" points="501.69,-23.53 510.76,-18.06 500.26,-16.68 501.69,-23.53"/>
</g>
</g>
</svg>
