<?xml version="1.0" encoding="UTF-8" standalone="no"?>
<!DOCTYPE svg PUBLIC "-//W3C//DTD SVG 1.1//EN"
 "http://www.w3.org/Graphics/SVG/1.1/DTD/svg11.dtd">
<!-- Generated by graphviz version 2.43.0 (0)
 -->
<!-- Title: MatrixElementCache::getRadial Pages: 1 -->
<svg width="284pt" height="142pt"
 viewBox="0.00 0.00 284.00 142.00" xmlns="http://www.w3.org/2000/svg" xmlns:xlink="http://www.w3.org/1999/xlink">
<g id="graph0" class="graph" transform="scale(1 1) rotate(0) translate(4 138)">
<title>MatrixElementCache::getRadial</title>
<!-- Node1 -->
<g id="node1" class="node">
<title>Node1</title>
<g id="a_node1"><a xlink:title=" ">
<polygon fill="#bfbfbf" stroke="black" points="0,-52 0,-82 119,-82 119,-52 0,-52"/>
<text text-anchor="start" x="8" y="-70" font-family="Helvetica,sans-Serif" font-size="10.00">MatrixElementCache</text>
<text text-anchor="middle" x="59.5" y="-59" font-family="Helvetica,sans-Serif" font-size="10.00">::getRadial</text>
</a>
</g>
</g>
<!-- Node2 -->
<g id="node2" class="node">
<title>Node2</title>
<g id="a_node2"><a xlink:href="classStateOne.html#aedba5bfce70f73fa324b9d5ae1115578" target="_top" xlink:title=" ">
<polygon fill="none" stroke="black" points="172.5,-114.5 172.5,-133.5 258.5,-133.5 258.5,-114.5 172.5,-114.5"/>
<text text-anchor="middle" x="215.5" y="-121.5" font-family="Helvetica,sans-Serif" font-size="10.00">StateOne::getJ</text>
</a>
</g>
</g>
<!-- Node1&#45;&gt;Node2 -->
<g id="edge1" class="edge">
<title>Node1&#45;&gt;Node2</title>
<path fill="none" stroke="midnightblue" d="M96.16,-82.06C113.76,-89.3 135.37,-97.93 155,-105 160.96,-107.15 167.3,-109.3 173.53,-111.35"/>
<polygon fill="midnightblue" stroke="midnightblue" points="172.57,-114.72 183.17,-114.47 174.73,-108.06 172.57,-114.72"/>
</g>
<!-- Node3 -->
<g id="node3" class="node">
<title>Node3</title>
<g id="a_node3"><a xlink:href="classStateOne.html#a3783cebe5bbd63f072caf8450fea4aca" target="_top" xlink:title=" ">
<polygon fill="none" stroke="black" points="171,-76.5 171,-95.5 260,-95.5 260,-76.5 171,-76.5"/>
<text text-anchor="middle" x="215.5" y="-83.5" font-family="Helvetica,sans-Serif" font-size="10.00">StateOne::getL</text>
</a>
</g>
</g>
<!-- Node1&#45;&gt;Node3 -->
<g id="edge2" class="edge">
<title>Node1&#45;&gt;Node3</title>
<path fill="none" stroke="midnightblue" d="M119.16,-74.24C132.84,-75.93 147.35,-77.71 160.8,-79.37"/>
<polygon fill="midnightblue" stroke="midnightblue" points="160.5,-82.86 170.85,-80.62 161.36,-75.92 160.5,-82.86"/>
</g>
<!-- Node4 -->
<g id="node4" class="node">
<title>Node4</title>
<g id="a_node4"><a xlink:href="classStateOne.html#a7deae740570ef5262e7fd2d254a8c530" target="_top" xlink:title=" ">
<polygon fill="none" stroke="black" points="170,-38.5 170,-57.5 261,-57.5 261,-38.5 170,-38.5"/>
<text text-anchor="middle" x="215.5" y="-45.5" font-family="Helvetica,sans-Serif" font-size="10.00">StateOne::getN</text>
</a>
</g>
</g>
<!-- Node1&#45;&gt;Node4 -->
<g id="edge3" class="edge">
<title>Node1&#45;&gt;Node4</title>
<path fill="none" stroke="midnightblue" d="M119.16,-59.76C132.44,-58.12 146.49,-56.39 159.61,-54.77"/>
<polygon fill="midnightblue" stroke="midnightblue" points="160.4,-58.2 169.9,-53.5 159.54,-51.25 160.4,-58.2"/>
</g>
<!-- Node5 -->
<g id="node5" class="node">
<title>Node5</title>
<g id="a_node5"><a xlink:href="classStateOne.html#a45b245f5da0068df4ff72093c654da89" target="_top" xlink:title=" ">
<polygon fill="none" stroke="black" points="155,-0.5 155,-19.5 276,-19.5 276,-0.5 155,-0.5"/>
<text text-anchor="middle" x="215.5" y="-7.5" font-family="Helvetica,sans-Serif" font-size="10.00">StateOne::getSpecies</text>
</a>
</g>
</g>
<!-- Node1&#45;&gt;Node5 -->
<g id="edge4" class="edge">
<title>Node1&#45;&gt;Node5</title>
<path fill="none" stroke="midnightblue" d="M96.16,-51.94C113.76,-44.7 135.37,-36.07 155,-29 160.96,-26.85 167.3,-24.7 173.53,-22.65"/>
<polygon fill="midnightblue" stroke="midnightblue" points="174.73,-25.94 183.17,-19.53 172.57,-19.28 174.73,-25.94"/>
</g>
</g>
</svg>
