<?xml version="1.0" encoding="UTF-8" standalone="no"?>
<!DOCTYPE svg PUBLIC "-//W3C//DTD SVG 1.1//EN"
 "http://www.w3.org/Graphics/SVG/1.1/DTD/svg11.dtd">
<!-- Generated by graphviz version 2.43.0 (0)
 -->
<!-- Title: QuantumDefect Pages: 1 -->
<svg width="178pt" height="183pt"
 viewBox="0.00 0.00 178.00 183.00" xmlns="http://www.w3.org/2000/svg" xmlns:xlink="http://www.w3.org/1999/xlink">
<g id="graph0" class="graph" transform="scale(1 1) rotate(0) translate(4 179)">
<title>QuantumDefect</title>
<!-- Node1 -->
<g id="node1" class="node">
<title>Node1</title>
<g id="a_node1"><a xlink:title="Quantum defect storage.">
<polygon fill="#bfbfbf" stroke="black" points="36,-0.5 36,-19.5 130,-19.5 130,-0.5 36,-0.5"/>
<text text-anchor="middle" x="83" y="-7.5" font-family="Helvetica,sans-Serif" font-size="10.00">QuantumDefect</text>
</a>
</g>
</g>
<!-- Node2 -->
<g id="node2" class="node">
<title>Node2</title>
<g id="a_node2"><a xlink:title=" ">
<polygon fill="none" stroke="#bfbfbf" points="0,-155.5 0,-174.5 50,-174.5 50,-155.5 0,-155.5"/>
<text text-anchor="middle" x="25" y="-162.5" font-family="Helvetica,sans-Serif" font-size="10.00">double</text>
</a>
</g>
</g>
<!-- Node2&#45;&gt;Node1 -->
<g id="edge1" class="edge">
<title>Node2&#45;&gt;Node1</title>
<path fill="none" stroke="#9a32cd" stroke-dasharray="5,2" d="M23.65,-145.24C22.67,-119.17 24.25,-71.45 45,-38 49.78,-30.3 57.65,-24.17 64.99,-19.71"/>
<polygon fill="#9a32cd" stroke="#9a32cd" points="20.15,-145.47 24.19,-155.27 27.14,-145.09 20.15,-145.47"/>
<text text-anchor="middle" x="62" y="-129" font-family="Helvetica,sans-Serif" font-size="10.00"> a1</text>
<text text-anchor="middle" x="62" y="-118" font-family="Helvetica,sans-Serif" font-size="10.00">a2</text>
<text text-anchor="middle" x="62" y="-107" font-family="Helvetica,sans-Serif" font-size="10.00">a3</text>
<text text-anchor="middle" x="62" y="-96" font-family="Helvetica,sans-Serif" font-size="10.00">a4</text>
<text text-anchor="middle" x="62" y="-85" font-family="Helvetica,sans-Serif" font-size="10.00">ac</text>
<text text-anchor="middle" x="62" y="-74" font-family="Helvetica,sans-Serif" font-size="10.00">energy</text>
<text text-anchor="middle" x="62" y="-63" font-family="Helvetica,sans-Serif" font-size="10.00">j</text>
<text text-anchor="middle" x="62" y="-52" font-family="Helvetica,sans-Serif" font-size="10.00">nstar</text>
<text text-anchor="middle" x="62" y="-41" font-family="Helvetica,sans-Serif" font-size="10.00">rc</text>
</g>
<!-- Node3 -->
<g id="node3" class="node">
<title>Node3</title>
<g id="a_node3"><a xlink:title=" ">
<polygon fill="none" stroke="#bfbfbf" points="68.5,-155.5 68.5,-174.5 97.5,-174.5 97.5,-155.5 68.5,-155.5"/>
<text text-anchor="middle" x="83" y="-162.5" font-family="Helvetica,sans-Serif" font-size="10.00">int</text>
</a>
</g>
</g>
<!-- Node3&#45;&gt;Node1 -->
<g id="edge2" class="edge">
<title>Node3&#45;&gt;Node1</title>
<path fill="none" stroke="#9a32cd" stroke-dasharray="5,2" d="M83,-145.11C83,-111.72 83,-43.54 83,-19.57"/>
<polygon fill="#9a32cd" stroke="#9a32cd" points="79.5,-145.34 83,-155.34 86.5,-145.34 79.5,-145.34"/>
<text text-anchor="middle" x="88" y="-96" font-family="Helvetica,sans-Serif" font-size="10.00"> Z</text>
<text text-anchor="middle" x="88" y="-85" font-family="Helvetica,sans-Serif" font-size="10.00">l</text>
<text text-anchor="middle" x="88" y="-74" font-family="Helvetica,sans-Serif" font-size="10.00">n</text>
</g>
<!-- Node4 -->
<g id="node4" class="node">
<title>Node4</title>
<g id="a_node4"><a xlink:title=" ">
<polygon fill="none" stroke="#bfbfbf" points="116,-155.5 116,-174.5 160,-174.5 160,-155.5 116,-155.5"/>
<text text-anchor="middle" x="138" y="-162.5" font-family="Helvetica,sans-Serif" font-size="10.00">string</text>
</a>
</g>
</g>
<!-- Node4&#45;&gt;Node1 -->
<g id="edge3" class="edge">
<title>Node4&#45;&gt;Node1</title>
<path fill="none" stroke="#9a32cd" stroke-dasharray="5,2" d="M132.97,-145.37C126.02,-120.47 112.56,-75.17 97,-38 94.39,-31.77 90.89,-25.02 88.04,-19.82"/>
<polygon fill="#9a32cd" stroke="#9a32cd" points="129.67,-146.55 135.69,-155.27 136.42,-144.7 129.67,-146.55"/>
<text text-anchor="middle" x="150" y="-85" font-family="Helvetica,sans-Serif" font-size="10.00"> species</text>
</g>
</g>
</svg>
