<?xml version="1.0" encoding="UTF-8" standalone="no"?>
<!DOCTYPE svg PUBLIC "-//W3C//DTD SVG 1.1//EN"
 "http://www.w3.org/Graphics/SVG/1.1/DTD/svg11.dtd">
<!-- Generated by graphviz version 2.43.0 (0)
 -->
<!-- Title: StateTwoOld::operator&lt; Pages: 1 -->
<svg width="295pt" height="66pt"
 viewBox="0.00 0.00 295.00 66.00" xmlns="http://www.w3.org/2000/svg" xmlns:xlink="http://www.w3.org/1999/xlink">
<g id="graph0" class="graph" transform="scale(1 1) rotate(0) translate(4 62)">
<title>StateTwoOld::operator&lt;</title>
<!-- Node1 -->
<g id="node1" class="node">
<title>Node1</title>
<g id="a_node1"><a xlink:title=" ">
<polygon fill="#bfbfbf" stroke="black" points="0,-19.5 0,-38.5 133,-38.5 133,-19.5 0,-19.5"/>
<text text-anchor="middle" x="66.5" y="-26.5" font-family="Helvetica,sans-Serif" font-size="10.00">StateTwoOld::operator&lt;</text>
</a>
</g>
</g>
<!-- Node2 -->
<g id="node2" class="node">
<title>Node2</title>
<g id="a_node2"><a xlink:href="classStateTwoOld.html#aad5fb4307dec316a5b602c2e8bfae0a8" target="_top" xlink:title=" ">
<polygon fill="none" stroke="black" points="176.5,-38.5 176.5,-57.5 279.5,-57.5 279.5,-38.5 176.5,-38.5"/>
<text text-anchor="middle" x="228" y="-45.5" font-family="Helvetica,sans-Serif" font-size="10.00">StateTwoOld::first</text>
</a>
</g>
</g>
<!-- Node1&#45;&gt;Node2 -->
<g id="edge1" class="edge">
<title>Node1&#45;&gt;Node2</title>
<path fill="none" stroke="midnightblue" d="M133.3,-36.84C144.22,-38.14 155.51,-39.48 166.3,-40.77"/>
<polygon fill="midnightblue" stroke="midnightblue" points="166.12,-44.27 176.46,-41.98 166.95,-37.32 166.12,-44.27"/>
</g>
<!-- Node3 -->
<g id="node3" class="node">
<title>Node3</title>
<g id="a_node3"><a xlink:href="classStateTwoOld.html#a6efa9c8f92e433004b778f6f5ce212d9" target="_top" xlink:title=" ">
<polygon fill="none" stroke="black" points="169,-0.5 169,-19.5 287,-19.5 287,-0.5 169,-0.5"/>
<text text-anchor="middle" x="228" y="-7.5" font-family="Helvetica,sans-Serif" font-size="10.00">StateTwoOld::second</text>
</a>
</g>
</g>
<!-- Node1&#45;&gt;Node3 -->
<g id="edge2" class="edge">
<title>Node1&#45;&gt;Node3</title>
<path fill="none" stroke="midnightblue" d="M133.3,-21.16C141.65,-20.17 150.22,-19.15 158.62,-18.15"/>
<polygon fill="midnightblue" stroke="midnightblue" points="159.24,-21.6 168.75,-16.94 158.41,-14.65 159.24,-21.6"/>
</g>
</g>
</svg>
