<?xml version="1.0" encoding="UTF-8" standalone="no"?>
<!DOCTYPE svg PUBLIC "-//W3C//DTD SVG 1.1//EN"
 "http://www.w3.org/Graphics/SVG/1.1/DTD/svg11.dtd">
<!-- Generated by graphviz version 2.43.0 (0)
 -->
<!-- Title: SystemOne::initializeBasis Pages: 1 -->
<svg width="424pt" height="66pt"
 viewBox="0.00 0.00 424.00 66.00" xmlns="http://www.w3.org/2000/svg" xmlns:xlink="http://www.w3.org/1999/xlink">
<g id="graph0" class="graph" transform="scale(1 1) rotate(0) translate(4 62)">
<title>SystemOne::initializeBasis</title>
<!-- Node1 -->
<g id="node1" class="node">
<title>Node1</title>
<g id="a_node1"><a xlink:title="Method that allows base class to initialize Basis //////////////.">
<polygon fill="#bfbfbf" stroke="black" points="0,-19.5 0,-38.5 147,-38.5 147,-19.5 0,-19.5"/>
<text text-anchor="middle" x="73.5" y="-26.5" font-family="Helvetica,sans-Serif" font-size="10.00">SystemOne::initializeBasis</text>
</a>
</g>
</g>
<!-- Node2 -->
<g id="node2" class="node">
<title>Node2</title>
<g id="a_node2"><a xlink:href="classStateOne.html#a6262da11406dbaa811f361cab2cf71b6" target="_top" xlink:title=" ">
<polygon fill="none" stroke="black" points="183,-38.5 183,-57.5 300,-57.5 300,-38.5 183,-38.5"/>
<text text-anchor="middle" x="241.5" y="-45.5" font-family="Helvetica,sans-Serif" font-size="10.00">StateOne::getEnergy</text>
</a>
</g>
</g>
<!-- Node1&#45;&gt;Node2 -->
<g id="edge1" class="edge">
<title>Node1&#45;&gt;Node2</title>
<path fill="none" stroke="midnightblue" d="M147.31,-37.33C155.79,-38.3 164.42,-39.29 172.83,-40.26"/>
<polygon fill="midnightblue" stroke="midnightblue" points="172.63,-43.75 182.96,-41.41 173.43,-36.8 172.63,-43.75"/>
</g>
<!-- Node4 -->
<g id="node4" class="node">
<title>Node4</title>
<g id="a_node4"><a xlink:href="classStateOne.html#aab2b41262381d67893113ed6f5ad18bc" target="_top" xlink:title=" ">
<polygon fill="none" stroke="black" points="195.5,-0.5 195.5,-19.5 287.5,-19.5 287.5,-0.5 195.5,-0.5"/>
<text text-anchor="middle" x="241.5" y="-7.5" font-family="Helvetica,sans-Serif" font-size="10.00">StateOne::getM</text>
</a>
</g>
</g>
<!-- Node1&#45;&gt;Node4 -->
<g id="edge3" class="edge">
<title>Node1&#45;&gt;Node4</title>
<path fill="none" stroke="midnightblue" d="M147.31,-20.67C160.1,-19.2 173.23,-17.7 185.44,-16.3"/>
<polygon fill="midnightblue" stroke="midnightblue" points="185.91,-19.77 195.45,-15.16 185.12,-12.82 185.91,-19.77"/>
</g>
<!-- Node3 -->
<g id="node3" class="node">
<title>Node3</title>
<g id="a_node3"><a xlink:href="QuantumDefect_8cpp.html#ac472df8bb08bd6ff27c7ef7633ae62c5" target="_top" xlink:title="Returns only the energy of a state.">
<polygon fill="none" stroke="black" points="336,-38.5 336,-57.5 416,-57.5 416,-38.5 336,-38.5"/>
<text text-anchor="middle" x="376" y="-45.5" font-family="Helvetica,sans-Serif" font-size="10.00">energy_level</text>
</a>
</g>
</g>
<!-- Node2&#45;&gt;Node3 -->
<g id="edge2" class="edge">
<title>Node2&#45;&gt;Node3</title>
<path fill="none" stroke="midnightblue" d="M300.23,-48C308.66,-48 317.29,-48 325.54,-48"/>
<polygon fill="midnightblue" stroke="midnightblue" points="325.74,-51.5 335.74,-48 325.74,-44.5 325.74,-51.5"/>
</g>
</g>
</svg>
