<?xml version="1.0" encoding="UTF-8" standalone="no"?>
<!DOCTYPE svg PUBLIC "-//W3C//DTD SVG 1.1//EN"
 "http://www.w3.org/Graphics/SVG/1.1/DTD/svg11.dtd">
<!-- Generated by graphviz version 2.43.0 (0)
 -->
<!-- Title: Basisnames::configure Pages: 1 -->
<svg width="730pt" height="104pt"
 viewBox="0.00 0.00 730.00 104.00" xmlns="http://www.w3.org/2000/svg" xmlns:xlink="http://www.w3.org/1999/xlink">
<g id="graph0" class="graph" transform="scale(1 1) rotate(0) translate(4 100)">
<title>Basisnames::configure</title>
<!-- Node1 -->
<g id="node1" class="node">
<title>Node1</title>
<g id="a_node1"><a xlink:title=" ">
<polygon fill="#bfbfbf" stroke="black" points="594,-38.5 594,-57.5 722,-57.5 722,-38.5 594,-38.5"/>
<text text-anchor="middle" x="658" y="-45.5" font-family="Helvetica,sans-Serif" font-size="10.00">Basisnames::configure</text>
</a>
</g>
</g>
<!-- Node2 -->
<g id="node2" class="node">
<title>Node2</title>
<g id="a_node2"><a xlink:href="classBasisnamesOne.html#ab3030f74ccafcc178f38e7a8ada13b9b" target="_top" xlink:title=" ">
<polygon fill="none" stroke="black" points="404.5,-76.5 404.5,-95.5 551.5,-95.5 551.5,-76.5 404.5,-76.5"/>
<text text-anchor="middle" x="478" y="-83.5" font-family="Helvetica,sans-Serif" font-size="10.00">BasisnamesOne::fromBoth</text>
</a>
</g>
</g>
<!-- Node1&#45;&gt;Node2 -->
<g id="edge1" class="edge">
<title>Node1&#45;&gt;Node2</title>
<path fill="none" stroke="midnightblue" d="M602.28,-59.68C577.04,-65.07 547.45,-71.39 523.59,-76.48"/>
<polygon fill="midnightblue" stroke="midnightblue" points="603.03,-63.1 612.08,-57.59 601.57,-56.25 603.03,-63.1"/>
</g>
<!-- Node4 -->
<g id="node4" class="node">
<title>Node4</title>
<g id="a_node4"><a xlink:href="classBasisnamesOne.html#a37fe3571090885a8a594eed4019befa9" target="_top" xlink:title=" ">
<polygon fill="none" stroke="black" points="405.5,-0.5 405.5,-19.5 550.5,-19.5 550.5,-0.5 405.5,-0.5"/>
<text text-anchor="middle" x="478" y="-7.5" font-family="Helvetica,sans-Serif" font-size="10.00">BasisnamesOne::fromFirst</text>
</a>
</g>
</g>
<!-- Node1&#45;&gt;Node4 -->
<g id="edge3" class="edge">
<title>Node1&#45;&gt;Node4</title>
<path fill="none" stroke="midnightblue" d="M602.28,-36.32C577.04,-30.93 547.45,-24.61 523.59,-19.52"/>
<polygon fill="midnightblue" stroke="midnightblue" points="601.57,-39.75 612.08,-38.41 603.03,-32.9 601.57,-39.75"/>
</g>
<!-- Node7 -->
<g id="node7" class="node">
<title>Node7</title>
<g id="a_node7"><a xlink:href="classBasisnamesOne.html#a683ae34cba3c56f9a0185e932de62078" target="_top" xlink:title=" ">
<polygon fill="none" stroke="black" points="398,-38.5 398,-57.5 558,-57.5 558,-38.5 398,-38.5"/>
<text text-anchor="middle" x="478" y="-45.5" font-family="Helvetica,sans-Serif" font-size="10.00">BasisnamesOne::fromSecond</text>
</a>
</g>
</g>
<!-- Node1&#45;&gt;Node7 -->
<g id="edge7" class="edge">
<title>Node1&#45;&gt;Node7</title>
<path fill="none" stroke="midnightblue" d="M583.79,-48C575.33,-48 566.68,-48 558.14,-48"/>
<polygon fill="midnightblue" stroke="midnightblue" points="583.99,-51.5 593.99,-48 583.99,-44.5 583.99,-51.5"/>
</g>
<!-- Node3 -->
<g id="node3" class="node">
<title>Node3</title>
<g id="a_node3"><a xlink:href="Interface_8cpp.html#a0ef54d8d2220d2d0f1fec850d07a7b00" target="_top" xlink:title=" ">
<polygon fill="none" stroke="black" points="259.5,-38.5 259.5,-57.5 318.5,-57.5 318.5,-38.5 259.5,-38.5"/>
<text text-anchor="middle" x="289" y="-45.5" font-family="Helvetica,sans-Serif" font-size="10.00">compute</text>
</a>
</g>
</g>
<!-- Node2&#45;&gt;Node3 -->
<g id="edge2" class="edge">
<title>Node2&#45;&gt;Node3</title>
<path fill="none" stroke="midnightblue" d="M419.67,-74.35C386.15,-67.54 345.31,-59.24 318.53,-53.8"/>
<polygon fill="midnightblue" stroke="midnightblue" points="419.32,-77.85 429.81,-76.41 420.71,-70.99 419.32,-77.85"/>
</g>
<!-- Node4&#45;&gt;Node3 -->
<g id="edge6" class="edge">
<title>Node4&#45;&gt;Node3</title>
<path fill="none" stroke="midnightblue" d="M419.67,-21.65C386.15,-28.46 345.31,-36.76 318.53,-42.2"/>
<polygon fill="midnightblue" stroke="midnightblue" points="420.71,-25.01 429.81,-19.59 419.32,-18.15 420.71,-25.01"/>
</g>
<!-- Node5 -->
<g id="node5" class="node">
<title>Node5</title>
<g id="a_node5"><a xlink:href="classHamiltonianTwo.html#aae02015e07387f58d5e7749698e62569" target="_top" xlink:title=" ">
<polygon fill="none" stroke="black" points="216,-0.5 216,-19.5 362,-19.5 362,-0.5 216,-0.5"/>
<text text-anchor="middle" x="289" y="-7.5" font-family="Helvetica,sans-Serif" font-size="10.00">HamiltonianTwo::calculate</text>
</a>
</g>
</g>
<!-- Node4&#45;&gt;Node5 -->
<g id="edge4" class="edge">
<title>Node4&#45;&gt;Node5</title>
<path fill="none" stroke="midnightblue" d="M395.22,-10C384.22,-10 373,-10 362.19,-10"/>
<polygon fill="midnightblue" stroke="midnightblue" points="395.24,-13.5 405.24,-10 395.24,-6.5 395.24,-13.5"/>
</g>
<!-- Node6 -->
<g id="node6" class="node">
<title>Node6</title>
<g id="a_node6"><a xlink:href="classHamiltonianTwo.html#a866502c7ad1a5a2a3f36dbf63e9ef619" target="_top" xlink:title=" ">
<polygon fill="none" stroke="black" points="0,-0.5 0,-19.5 180,-19.5 180,-0.5 0,-0.5"/>
<text text-anchor="middle" x="90" y="-7.5" font-family="Helvetica,sans-Serif" font-size="10.00">HamiltonianTwo::HamiltonianTwo</text>
</a>
</g>
</g>
<!-- Node5&#45;&gt;Node6 -->
<g id="edge5" class="edge">
<title>Node5&#45;&gt;Node6</title>
<path fill="none" stroke="midnightblue" d="M205.65,-10C197.28,-10 188.75,-10 180.32,-10"/>
<polygon fill="midnightblue" stroke="midnightblue" points="205.76,-13.5 215.76,-10 205.76,-6.5 205.76,-13.5"/>
</g>
<!-- Node7&#45;&gt;Node3 -->
<g id="edge9" class="edge">
<title>Node7&#45;&gt;Node3</title>
<path fill="none" stroke="midnightblue" d="M387.69,-48C362.74,-48 337.39,-48 318.77,-48"/>
<polygon fill="midnightblue" stroke="midnightblue" points="387.97,-51.5 397.97,-48 387.97,-44.5 387.97,-51.5"/>
</g>
<!-- Node7&#45;&gt;Node5 -->
<g id="edge8" class="edge">
<title>Node7&#45;&gt;Node5</title>
<path fill="none" stroke="midnightblue" d="M419.87,-36.39C393.27,-30.99 362.03,-24.64 336.85,-19.52"/>
<polygon fill="midnightblue" stroke="midnightblue" points="419.32,-39.85 429.81,-38.41 420.71,-32.99 419.32,-39.85"/>
</g>
</g>
</svg>
