<?xml version="1.0" encoding="UTF-8" standalone="no"?>
<!DOCTYPE svg PUBLIC "-//W3C//DTD SVG 1.1//EN"
 "http://www.w3.org/Graphics/SVG/1.1/DTD/svg11.dtd">
<!-- Generated by graphviz version 2.43.0 (0)
 -->
<!-- Title: StateTwo::getL Pages: 1 -->
<svg width="322pt" height="127pt"
 viewBox="0.00 0.00 322.00 126.50" xmlns="http://www.w3.org/2000/svg" xmlns:xlink="http://www.w3.org/1999/xlink">
<g id="graph0" class="graph" transform="scale(1 1) rotate(0) translate(4 122.5)">
<title>StateTwo::getL</title>
<!-- Node1 -->
<g id="node1" class="node">
<title>Node1</title>
<g id="a_node1"><a xlink:title=" ">
<polygon fill="#bfbfbf" stroke="black" points="226,-44.5 226,-63.5 314,-63.5 314,-44.5 226,-44.5"/>
<text text-anchor="middle" x="270" y="-51.5" font-family="Helvetica,sans-Serif" font-size="10.00">StateTwo::getL</text>
</a>
</g>
</g>
<!-- Node2 -->
<g id="node2" class="node">
<title>Node2</title>
<g id="a_node2"><a xlink:href="classSystemBase.html#a7e55374852ca1118c1bcb908701b31cf" target="_top" xlink:title=" ">
<polygon fill="none" stroke="black" points="0,-88 0,-118 190,-118 190,-88 0,-88"/>
<text text-anchor="start" x="8" y="-106" font-family="Helvetica,sans-Serif" font-size="10.00">SystemBase::checkIsQuantumstate</text>
<text text-anchor="middle" x="95" y="-95" font-family="Helvetica,sans-Serif" font-size="10.00">Valid</text>
</a>
</g>
</g>
<!-- Node1&#45;&gt;Node2 -->
<g id="edge1" class="edge">
<title>Node1&#45;&gt;Node2</title>
<path fill="none" stroke="midnightblue" d="M230.35,-66.71C217.55,-70.79 203.21,-75.23 190,-79 179.39,-82.03 168.06,-85.08 157.07,-87.94"/>
<polygon fill="midnightblue" stroke="midnightblue" points="231.78,-69.93 240.23,-63.54 229.64,-63.26 231.78,-69.93"/>
</g>
<!-- Node3 -->
<g id="node3" class="node">
<title>Node3</title>
<g id="a_node3"><a xlink:href="classPerturbativeInteraction.html#aef0f5d43fdcf0377dc53e31730c99cb9" target="_top" xlink:title=" ">
<polygon fill="none" stroke="black" points="30.5,-39 30.5,-69 159.5,-69 159.5,-39 30.5,-39"/>
<text text-anchor="start" x="38.5" y="-57" font-family="Helvetica,sans-Serif" font-size="10.00">PerturbativeInteraction</text>
<text text-anchor="middle" x="95" y="-46" font-family="Helvetica,sans-Serif" font-size="10.00">::getC6</text>
</a>
</g>
</g>
<!-- Node1&#45;&gt;Node3 -->
<g id="edge2" class="edge">
<title>Node1&#45;&gt;Node3</title>
<path fill="none" stroke="midnightblue" d="M215.63,-54C197.9,-54 177.98,-54 159.55,-54"/>
<polygon fill="midnightblue" stroke="midnightblue" points="215.79,-57.5 225.79,-54 215.79,-50.5 215.79,-57.5"/>
</g>
<!-- Node4 -->
<g id="node4" class="node">
<title>Node4</title>
<g id="a_node4"><a xlink:href="classStateTwo.html#a8144dc47a35a397f9b040a5de5d8673e" target="_top" xlink:title=" ">
<polygon fill="none" stroke="black" points="30.5,-0.5 30.5,-19.5 159.5,-19.5 159.5,-0.5 30.5,-0.5"/>
<text text-anchor="middle" x="95" y="-7.5" font-family="Helvetica,sans-Serif" font-size="10.00">StateTwo::getReflected</text>
</a>
</g>
</g>
<!-- Node1&#45;&gt;Node4 -->
<g id="edge3" class="edge">
<title>Node1&#45;&gt;Node4</title>
<path fill="none" stroke="midnightblue" d="M229.77,-41.36C217.13,-37.48 203.03,-33.36 190,-30 175.46,-26.25 159.52,-22.67 144.97,-19.59"/>
<polygon fill="midnightblue" stroke="midnightblue" points="228.94,-44.77 239.53,-44.39 231.02,-38.08 228.94,-44.77"/>
</g>
</g>
</svg>
