<?xml version="1.0" encoding="UTF-8" standalone="no"?>
<!DOCTYPE svg PUBLIC "-//W3C//DTD SVG 1.1//EN"
 "http://www.w3.org/Graphics/SVG/1.1/DTD/svg11.dtd">
<!-- Generated by graphviz version 2.43.0 (0)
 -->
<!-- Title: sqlite::statement::exec Pages: 1 -->
<svg width="568pt" height="142pt"
 viewBox="0.00 0.00 568.00 142.00" xmlns="http://www.w3.org/2000/svg" xmlns:xlink="http://www.w3.org/1999/xlink">
<g id="graph0" class="graph" transform="scale(1 1) rotate(0) translate(4 138)">
<title>sqlite::statement::exec</title>
<!-- Node1 -->
<g id="node1" class="node">
<title>Node1</title>
<g id="a_node1"><a xlink:title="Execute SQLite statements.">
<polygon fill="#bfbfbf" stroke="black" points="431,-57.5 431,-76.5 560,-76.5 560,-57.5 431,-57.5"/>
<text text-anchor="middle" x="495.5" y="-64.5" font-family="Helvetica,sans-Serif" font-size="10.00">sqlite::statement::exec</text>
</a>
</g>
</g>
<!-- Node2 -->
<g id="node2" class="node">
<title>Node2</title>
<g id="a_node2"><a xlink:href="classHamiltonianOne.html#a6a60cf7ca4f0af0566ce523e2d0915e0" target="_top" xlink:title=" ">
<polygon fill="none" stroke="black" points="243.5,-114.5 243.5,-133.5 369.5,-133.5 369.5,-114.5 243.5,-114.5"/>
<text text-anchor="middle" x="306.5" y="-121.5" font-family="Helvetica,sans-Serif" font-size="10.00">HamiltonianOne::build</text>
</a>
</g>
</g>
<!-- Node1&#45;&gt;Node2 -->
<g id="edge1" class="edge">
<title>Node1&#45;&gt;Node2</title>
<path fill="none" stroke="midnightblue" d="M463.05,-80.41C443.68,-88.32 418.2,-98.1 395,-105 383.08,-108.55 370.07,-111.73 357.8,-114.44"/>
<polygon fill="midnightblue" stroke="midnightblue" points="464.4,-83.64 472.31,-76.58 461.73,-77.17 464.4,-83.64"/>
</g>
<!-- Node4 -->
<g id="node4" class="node">
<title>Node4</title>
<g id="a_node4"><a xlink:href="classHamiltonianTwo.html#aae02015e07387f58d5e7749698e62569" target="_top" xlink:title=" ">
<polygon fill="none" stroke="black" points="233.5,-76.5 233.5,-95.5 379.5,-95.5 379.5,-76.5 233.5,-76.5"/>
<text text-anchor="middle" x="306.5" y="-83.5" font-family="Helvetica,sans-Serif" font-size="10.00">HamiltonianTwo::calculate</text>
</a>
</g>
</g>
<!-- Node1&#45;&gt;Node4 -->
<g id="edge3" class="edge">
<title>Node1&#45;&gt;Node4</title>
<path fill="none" stroke="midnightblue" d="M420.71,-74.5C407.18,-75.87 393.06,-77.31 379.58,-78.68"/>
<polygon fill="midnightblue" stroke="midnightblue" points="421.33,-77.95 430.93,-73.46 420.63,-70.99 421.33,-77.95"/>
</g>
<!-- Node6 -->
<g id="node6" class="node">
<title>Node6</title>
<g id="a_node6"><a xlink:href="classQuantumDefect.html#ae35ddcbfdf6d217950469549c60743d2" target="_top" xlink:title=" ">
<polygon fill="none" stroke="black" points="218,-38.5 218,-57.5 395,-57.5 395,-38.5 218,-38.5"/>
<text text-anchor="middle" x="306.5" y="-45.5" font-family="Helvetica,sans-Serif" font-size="10.00">QuantumDefect::QuantumDefect</text>
</a>
</g>
</g>
<!-- Node1&#45;&gt;Node6 -->
<g id="edge5" class="edge">
<title>Node1&#45;&gt;Node6</title>
<path fill="none" stroke="midnightblue" d="M420.77,-59.51C412.33,-58.65 403.67,-57.77 395.08,-56.9"/>
<polygon fill="midnightblue" stroke="midnightblue" points="420.63,-63.01 430.93,-60.54 421.33,-56.05 420.63,-63.01"/>
</g>
<!-- Node7 -->
<g id="node7" class="node">
<title>Node7</title>
<g id="a_node7"><a xlink:href="sqlite__test_8cpp.html#a5a9c38dd5e620c3ad41229b288d85d9f" target="_top" xlink:title=" ">
<polygon fill="none" stroke="black" points="271,-0.5 271,-19.5 342,-19.5 342,-0.5 271,-0.5"/>
<text text-anchor="middle" x="306.5" y="-7.5" font-family="Helvetica,sans-Serif" font-size="10.00">TEST_CASE</text>
</a>
</g>
</g>
<!-- Node1&#45;&gt;Node7 -->
<g id="edge6" class="edge">
<title>Node1&#45;&gt;Node7</title>
<path fill="none" stroke="midnightblue" d="M463.05,-53.59C443.68,-45.68 418.2,-35.9 395,-29 377.87,-23.9 358.47,-19.55 342.3,-16.3"/>
<polygon fill="midnightblue" stroke="midnightblue" points="461.73,-56.83 472.31,-57.42 464.4,-50.36 461.73,-56.83"/>
</g>
<!-- Node3 -->
<g id="node3" class="node">
<title>Node3</title>
<g id="a_node3"><a xlink:href="classHamiltonianOne.html#a8f603206e4305d3340a1be6e7c2e51d6" target="_top" xlink:title=" ">
<polygon fill="none" stroke="black" points="0,-114.5 0,-133.5 182,-133.5 182,-114.5 0,-114.5"/>
<text text-anchor="middle" x="91" y="-121.5" font-family="Helvetica,sans-Serif" font-size="10.00">HamiltonianOne::HamiltonianOne</text>
</a>
</g>
</g>
<!-- Node2&#45;&gt;Node3 -->
<g id="edge2" class="edge">
<title>Node2&#45;&gt;Node3</title>
<path fill="none" stroke="midnightblue" d="M233.43,-124C217.04,-124 199.43,-124 182.39,-124"/>
<polygon fill="midnightblue" stroke="midnightblue" points="233.46,-127.5 243.46,-124 233.46,-120.5 233.46,-127.5"/>
</g>
<!-- Node5 -->
<g id="node5" class="node">
<title>Node5</title>
<g id="a_node5"><a xlink:href="classHamiltonianTwo.html#a866502c7ad1a5a2a3f36dbf63e9ef619" target="_top" xlink:title=" ">
<polygon fill="none" stroke="black" points="1,-76.5 1,-95.5 181,-95.5 181,-76.5 1,-76.5"/>
<text text-anchor="middle" x="91" y="-83.5" font-family="Helvetica,sans-Serif" font-size="10.00">HamiltonianTwo::HamiltonianTwo</text>
</a>
</g>
</g>
<!-- Node4&#45;&gt;Node5 -->
<g id="edge4" class="edge">
<title>Node4&#45;&gt;Node5</title>
<path fill="none" stroke="midnightblue" d="M222.91,-86C209.26,-86 195.05,-86 181.25,-86"/>
<polygon fill="midnightblue" stroke="midnightblue" points="223.22,-89.5 233.22,-86 223.22,-82.5 223.22,-89.5"/>
</g>
</g>
</svg>
