<?xml version="1.0" encoding="UTF-8" standalone="no"?>
<!DOCTYPE svg PUBLIC "-//W3C//DTD SVG 1.1//EN"
 "http://www.w3.org/Graphics/SVG/1.1/DTD/svg11.dtd">
<!-- Generated by graphviz version 2.43.0 (0)
 -->
<!-- Title: BasisnamesTwo::BasisnamesTwo Pages: 1 -->
<svg width="555pt" height="83pt"
 viewBox="0.00 0.00 555.00 83.00" xmlns="http://www.w3.org/2000/svg" xmlns:xlink="http://www.w3.org/1999/xlink">
<g id="graph0" class="graph" transform="scale(1 1) rotate(0) translate(4 79)">
<title>BasisnamesTwo::BasisnamesTwo</title>
<!-- Node1 -->
<g id="node1" class="node">
<title>Node1</title>
<g id="a_node1"><a xlink:title=" ">
<polygon fill="#bfbfbf" stroke="black" points="0,-28 0,-47 179,-47 179,-28 0,-28"/>
<text text-anchor="middle" x="89.5" y="-35" font-family="Helvetica,sans-Serif" font-size="10.00">BasisnamesTwo::BasisnamesTwo</text>
</a>
</g>
</g>
<!-- Node2 -->
<g id="node2" class="node">
<title>Node2</title>
<g id="a_node2"><a xlink:href="classBasisnamesTwo.html#ab71dd902cba60c033247f4d4bb04abca" target="_top" xlink:title=" ">
<polygon fill="none" stroke="black" points="226.5,-50 226.5,-69 351.5,-69 351.5,-50 226.5,-50"/>
<text text-anchor="middle" x="289" y="-57" font-family="Helvetica,sans-Serif" font-size="10.00">BasisnamesTwo::build</text>
</a>
</g>
</g>
<!-- Node1&#45;&gt;Node2 -->
<g id="edge1" class="edge">
<title>Node1&#45;&gt;Node2</title>
<path fill="none" stroke="midnightblue" d="M175.98,-47.02C189.39,-48.52 203.13,-50.05 216.19,-51.5"/>
<polygon fill="midnightblue" stroke="midnightblue" points="216.17,-55.02 226.5,-52.65 216.95,-48.06 216.17,-55.02"/>
</g>
<!-- Node4 -->
<g id="node4" class="node">
<title>Node4</title>
<g id="a_node4"><a xlink:href="classBasisnames.html#a534f7e2dcc2987a1f969cb89c070da04" target="_top" xlink:title=" ">
<polygon fill="none" stroke="black" points="215,-0.5 215,-30.5 363,-30.5 363,-0.5 215,-0.5"/>
<text text-anchor="start" x="223" y="-18.5" font-family="Helvetica,sans-Serif" font-size="10.00">Basisnames&lt; StateTwoOld</text>
<text text-anchor="middle" x="289" y="-7.5" font-family="Helvetica,sans-Serif" font-size="10.00"> &gt;::configure</text>
</a>
</g>
</g>
<!-- Node1&#45;&gt;Node4 -->
<g id="edge3" class="edge">
<title>Node1&#45;&gt;Node4</title>
<path fill="none" stroke="midnightblue" d="M175.98,-27.98C185.47,-26.92 195.13,-25.84 204.6,-24.79"/>
<polygon fill="midnightblue" stroke="midnightblue" points="205.23,-28.24 214.78,-23.66 204.45,-21.29 205.23,-28.24"/>
</g>
<!-- Node3 -->
<g id="node3" class="node">
<title>Node3</title>
<g id="a_node3"><a xlink:href="classBasisnames.html#aeb309b54332021c9144d793488703109" target="_top" xlink:title=" ">
<polygon fill="none" stroke="black" points="399,-44.5 399,-74.5 547,-74.5 547,-44.5 399,-44.5"/>
<text text-anchor="start" x="407" y="-62.5" font-family="Helvetica,sans-Serif" font-size="10.00">Basisnames&lt; StateTwoOld</text>
<text text-anchor="middle" x="473" y="-51.5" font-family="Helvetica,sans-Serif" font-size="10.00"> &gt;::size</text>
</a>
</g>
</g>
<!-- Node2&#45;&gt;Node3 -->
<g id="edge2" class="edge">
<title>Node2&#45;&gt;Node3</title>
<path fill="none" stroke="midnightblue" d="M351.62,-59.5C363.46,-59.5 376.05,-59.5 388.45,-59.5"/>
<polygon fill="midnightblue" stroke="midnightblue" points="388.8,-63 398.8,-59.5 388.8,-56 388.8,-63"/>
</g>
</g>
</svg>
