<?xml version="1.0" encoding="UTF-8" standalone="no"?>
<!DOCTYPE svg PUBLIC "-//W3C//DTD SVG 1.1//EN"
 "http://www.w3.org/Graphics/SVG/1.1/DTD/svg11.dtd">
<!-- Generated by graphviz version 2.43.0 (0)
 -->
<!-- Title: PerturbativeInteraction::getC6 Pages: 1 -->
<svg width="472pt" height="154pt"
 viewBox="0.00 0.00 472.00 153.50" xmlns="http://www.w3.org/2000/svg" xmlns:xlink="http://www.w3.org/1999/xlink">
<g id="graph0" class="graph" transform="scale(1 1) rotate(0) translate(4 149.5)">
<title>PerturbativeInteraction::getC6</title>
<!-- Node1 -->
<g id="node1" class="node">
<title>Node1</title>
<g id="a_node1"><a xlink:title=" ">
<polygon fill="#bfbfbf" stroke="black" points="0,-52 0,-82 129,-82 129,-52 0,-52"/>
<text text-anchor="start" x="8" y="-70" font-family="Helvetica,sans-Serif" font-size="10.00">PerturbativeInteraction</text>
<text text-anchor="middle" x="64.5" y="-59" font-family="Helvetica,sans-Serif" font-size="10.00">::getC6</text>
</a>
</g>
</g>
<!-- Node2 -->
<g id="node2" class="node">
<title>Node2</title>
<g id="a_node2"><a xlink:href="classMatrixElementCache.html#ac6191cd01c85dd9cf28a373b524f0b1b" target="_top" xlink:title="Get matrix elements ////////////////////////////////////////////.">
<polygon fill="none" stroke="black" points="177,-115 177,-145 296,-145 296,-115 177,-115"/>
<text text-anchor="start" x="185" y="-133" font-family="Helvetica,sans-Serif" font-size="10.00">MatrixElementCache</text>
<text text-anchor="middle" x="236.5" y="-122" font-family="Helvetica,sans-Serif" font-size="10.00">::getElectricDipole</text>
</a>
</g>
</g>
<!-- Node1&#45;&gt;Node2 -->
<g id="edge1" class="edge">
<title>Node1&#45;&gt;Node2</title>
<path fill="none" stroke="midnightblue" d="M104.17,-82.01C122.55,-89.09 144.87,-97.59 165,-105 170.84,-107.15 176.96,-109.37 183.06,-111.56"/>
<polygon fill="midnightblue" stroke="midnightblue" points="181.97,-114.89 192.57,-114.96 184.33,-108.3 181.97,-114.89"/>
</g>
<!-- Node4 -->
<g id="node4" class="node">
<title>Node4</title>
<g id="a_node4"><a xlink:href="classStateTwo.html#a3f9e530a17bed5048f16653dcd9c7991" target="_top" xlink:title=" ">
<polygon fill="none" stroke="black" points="178.5,-76.5 178.5,-95.5 294.5,-95.5 294.5,-76.5 178.5,-76.5"/>
<text text-anchor="middle" x="236.5" y="-83.5" font-family="Helvetica,sans-Serif" font-size="10.00">StateTwo::getEnergy</text>
</a>
</g>
</g>
<!-- Node1&#45;&gt;Node4 -->
<g id="edge3" class="edge">
<title>Node1&#45;&gt;Node4</title>
<path fill="none" stroke="midnightblue" d="M129.29,-74.13C142,-75.55 155.39,-77.05 168.21,-78.48"/>
<polygon fill="midnightblue" stroke="midnightblue" points="168.03,-81.98 178.35,-79.61 168.8,-75.02 168.03,-81.98"/>
</g>
<!-- Node5 -->
<g id="node5" class="node">
<title>Node5</title>
<g id="a_node5"><a xlink:href="classStateTwo.html#a48d2a882bdaf347c38d36ea1a2de4d25" target="_top" xlink:title=" ">
<polygon fill="none" stroke="black" points="172.5,-38.5 172.5,-57.5 300.5,-57.5 300.5,-38.5 172.5,-38.5"/>
<text text-anchor="middle" x="236.5" y="-45.5" font-family="Helvetica,sans-Serif" font-size="10.00">StateTwo::getFirstState</text>
</a>
</g>
</g>
<!-- Node1&#45;&gt;Node5 -->
<g id="edge4" class="edge">
<title>Node1&#45;&gt;Node5</title>
<path fill="none" stroke="midnightblue" d="M129.29,-59.87C140.11,-58.66 151.42,-57.4 162.45,-56.16"/>
<polygon fill="midnightblue" stroke="midnightblue" points="162.94,-59.63 172.49,-55.04 162.16,-52.68 162.94,-59.63"/>
</g>
<!-- Node6 -->
<g id="node6" class="node">
<title>Node6</title>
<g id="a_node6"><a xlink:href="classStateTwo.html#a5f39ceea2e8f442364fec097566365d0" target="_top" xlink:title=" ">
<polygon fill="none" stroke="black" points="165,-0.5 165,-19.5 308,-19.5 308,-0.5 165,-0.5"/>
<text text-anchor="middle" x="236.5" y="-7.5" font-family="Helvetica,sans-Serif" font-size="10.00">StateTwo::getSecondState</text>
</a>
</g>
</g>
<!-- Node1&#45;&gt;Node6 -->
<g id="edge5" class="edge">
<title>Node1&#45;&gt;Node6</title>
<path fill="none" stroke="midnightblue" d="M102.51,-51.84C121.1,-44.49 144.07,-35.8 165,-29 172.21,-26.66 179.9,-24.37 187.45,-22.25"/>
<polygon fill="midnightblue" stroke="midnightblue" points="188.53,-25.58 197.24,-19.55 186.67,-18.83 188.53,-25.58"/>
</g>
<!-- Node3 -->
<g id="node3" class="node">
<title>Node3</title>
<g id="a_node3"><a xlink:href="classMatrixElementCache.html#a2407b99847793920a9d4ed0d8b156d8a" target="_top" xlink:title=" ">
<polygon fill="none" stroke="black" points="344,-115 344,-145 464,-145 464,-115 344,-115"/>
<text text-anchor="start" x="352" y="-133" font-family="Helvetica,sans-Serif" font-size="10.00">MatrixElementCache</text>
<text text-anchor="middle" x="404" y="-122" font-family="Helvetica,sans-Serif" font-size="10.00">::getElectricMultipole</text>
</a>
</g>
</g>
<!-- Node2&#45;&gt;Node3 -->
<g id="edge2" class="edge">
<title>Node2&#45;&gt;Node3</title>
<path fill="none" stroke="midnightblue" d="M296.32,-130C308.36,-130 321.15,-130 333.54,-130"/>
<polygon fill="midnightblue" stroke="midnightblue" points="333.82,-133.5 343.82,-130 333.82,-126.5 333.82,-133.5"/>
</g>
</g>
</svg>
