<?xml version="1.0" encoding="UTF-8" standalone="no"?>
<!DOCTYPE svg PUBLIC "-//W3C//DTD SVG 1.1//EN"
 "http://www.w3.org/Graphics/SVG/1.1/DTD/svg11.dtd">
<!-- Generated by graphviz version 2.43.0 (0)
 -->
<!-- Title: StateOneOld Pages: 1 -->
<svg width="234pt" height="184pt"
 viewBox="0.00 0.00 233.50 184.00" xmlns="http://www.w3.org/2000/svg" xmlns:xlink="http://www.w3.org/1999/xlink">
<g id="graph0" class="graph" transform="scale(1 1) rotate(0) translate(4 180)">
<title>StateOneOld</title>
<!-- Node1 -->
<g id="node1" class="node">
<title>Node1</title>
<g id="a_node1"><a xlink:title="One&#45;atom Rydberg state">
<polygon fill="#bfbfbf" stroke="black" points="83.5,-0.5 83.5,-19.5 161.5,-19.5 161.5,-0.5 83.5,-0.5"/>
<text text-anchor="middle" x="122.5" y="-7.5" font-family="Helvetica,sans-Serif" font-size="10.00">StateOneOld</text>
</a>
</g>
</g>
<!-- Node2 -->
<g id="node2" class="node">
<title>Node2</title>
<g id="a_node2"><a xlink:href="classStateOld.html" target="_top" xlink:title="Base class for states">
<polygon fill="none" stroke="black" points="0,-89.5 0,-108.5 59,-108.5 59,-89.5 0,-89.5"/>
<text text-anchor="middle" x="29.5" y="-96.5" font-family="Helvetica,sans-Serif" font-size="10.00">StateOld</text>
</a>
</g>
</g>
<!-- Node2&#45;&gt;Node1 -->
<g id="edge1" class="edge">
<title>Node2&#45;&gt;Node1</title>
<path fill="none" stroke="midnightblue" d="M46.09,-82.48C65.7,-64.14 97.64,-34.26 113.28,-19.62"/>
<polygon fill="midnightblue" stroke="midnightblue" points="43.67,-79.95 38.76,-89.34 48.45,-85.06 43.67,-79.95"/>
</g>
<!-- Node3 -->
<g id="node3" class="node">
<title>Node3</title>
<g id="a_node3"><a xlink:title=" ">
<polygon fill="none" stroke="#bfbfbf" points="1.5,-156.5 1.5,-175.5 57.5,-175.5 57.5,-156.5 1.5,-156.5"/>
<text text-anchor="middle" x="29.5" y="-163.5" font-family="Helvetica,sans-Serif" font-size="10.00">uint32_t</text>
</a>
</g>
</g>
<!-- Node3&#45;&gt;Node2 -->
<g id="edge2" class="edge">
<title>Node3&#45;&gt;Node2</title>
<path fill="none" stroke="#9a32cd" stroke-dasharray="5,2" d="M29.5,-146.04C29.5,-133.67 29.5,-118.12 29.5,-108.63"/>
<polygon fill="#9a32cd" stroke="#9a32cd" points="26,-146.23 29.5,-156.23 33,-146.23 26,-146.23"/>
<text text-anchor="middle" x="39" y="-130" font-family="Helvetica,sans-Serif" font-size="10.00"> idx</text>
</g>
<!-- Node4 -->
<g id="node4" class="node">
<title>Node4</title>
<g id="a_node4"><a xlink:title=" ">
<polygon fill="none" stroke="#bfbfbf" points="77,-89.5 77,-108.5 116,-108.5 116,-89.5 77,-89.5"/>
<text text-anchor="middle" x="96.5" y="-96.5" font-family="Helvetica,sans-Serif" font-size="10.00">float</text>
</a>
</g>
</g>
<!-- Node4&#45;&gt;Node1 -->
<g id="edge3" class="edge">
<title>Node4&#45;&gt;Node1</title>
<path fill="none" stroke="#9a32cd" stroke-dasharray="5,2" d="M101.96,-79.71C107.48,-61.25 115.76,-33.54 119.92,-19.62"/>
<polygon fill="#9a32cd" stroke="#9a32cd" points="98.6,-78.76 99.09,-89.34 105.3,-80.76 98.6,-78.76"/>
<text text-anchor="middle" x="118.5" y="-63" font-family="Helvetica,sans-Serif" font-size="10.00"> j</text>
<text text-anchor="middle" x="118.5" y="-52" font-family="Helvetica,sans-Serif" font-size="10.00">m</text>
<text text-anchor="middle" x="118.5" y="-41" font-family="Helvetica,sans-Serif" font-size="10.00">s</text>
</g>
<!-- Node5 -->
<g id="node5" class="node">
<title>Node5</title>
<g id="a_node5"><a xlink:title=" ">
<polygon fill="none" stroke="#bfbfbf" points="134,-89.5 134,-108.5 163,-108.5 163,-89.5 134,-89.5"/>
<text text-anchor="middle" x="148.5" y="-96.5" font-family="Helvetica,sans-Serif" font-size="10.00">int</text>
</a>
</g>
</g>
<!-- Node5&#45;&gt;Node1 -->
<g id="edge4" class="edge">
<title>Node5&#45;&gt;Node1</title>
<path fill="none" stroke="#9a32cd" stroke-dasharray="5,2" d="M143.04,-79.71C137.52,-61.25 129.24,-33.54 125.08,-19.62"/>
<polygon fill="#9a32cd" stroke="#9a32cd" points="139.7,-80.76 145.91,-89.34 146.4,-78.76 139.7,-80.76"/>
<text text-anchor="middle" x="143" y="-57.5" font-family="Helvetica,sans-Serif" font-size="10.00"> l</text>
<text text-anchor="middle" x="143" y="-46.5" font-family="Helvetica,sans-Serif" font-size="10.00">n</text>
</g>
<!-- Node6 -->
<g id="node6" class="node">
<title>Node6</title>
<g id="a_node6"><a xlink:title=" ">
<polygon fill="none" stroke="#bfbfbf" points="181.5,-89.5 181.5,-108.5 225.5,-108.5 225.5,-89.5 181.5,-89.5"/>
<text text-anchor="middle" x="203.5" y="-96.5" font-family="Helvetica,sans-Serif" font-size="10.00">string</text>
</a>
</g>
</g>
<!-- Node6&#45;&gt;Node1 -->
<g id="edge5" class="edge">
<title>Node6&#45;&gt;Node1</title>
<path fill="none" stroke="#9a32cd" stroke-dasharray="5,2" d="M189.67,-81.64C179.17,-69.4 164.24,-52.36 150.5,-38 144.43,-31.66 137.3,-24.79 131.76,-19.57"/>
<polygon fill="#9a32cd" stroke="#9a32cd" points="187.01,-83.92 196.16,-89.26 192.34,-79.38 187.01,-83.92"/>
<text text-anchor="middle" x="201.5" y="-57.5" font-family="Helvetica,sans-Serif" font-size="10.00"> element</text>
<text text-anchor="middle" x="201.5" y="-46.5" font-family="Helvetica,sans-Serif" font-size="10.00">species</text>
</g>
</g>
</svg>
