<?xml version="1.0" encoding="UTF-8" standalone="no"?>
<!DOCTYPE svg PUBLIC "-//W3C//DTD SVG 1.1//EN"
 "http://www.w3.org/Graphics/SVG/1.1/DTD/svg11.dtd">
<!-- Generated by graphviz version 2.43.0 (0)
 -->
<!-- Title: PerturbativeInteraction::getC6 Pages: 1 -->
<svg width="472pt" height="382pt"
 viewBox="0.00 0.00 472.00 381.50" xmlns="http://www.w3.org/2000/svg" xmlns:xlink="http://www.w3.org/1999/xlink">
<g id="graph0" class="graph" transform="scale(1 1) rotate(0) translate(4 377.5)">
<title>PerturbativeInteraction::getC6</title>
<!-- Node1 -->
<g id="node1" class="node">
<title>Node1</title>
<g id="a_node1"><a xlink:title=" ">
<polygon fill="#bfbfbf" stroke="black" points="0,-166 0,-196 129,-196 129,-166 0,-166"/>
<text text-anchor="start" x="8" y="-184" font-family="Helvetica,sans-Serif" font-size="10.00">PerturbativeInteraction</text>
<text text-anchor="middle" x="64.5" y="-173" font-family="Helvetica,sans-Serif" font-size="10.00">::getC6</text>
</a>
</g>
</g>
<!-- Node2 -->
<g id="node2" class="node">
<title>Node2</title>
<g id="a_node2"><a xlink:href="classMatrixElementCache.html#ac6191cd01c85dd9cf28a373b524f0b1b" target="_top" xlink:title="Get matrix elements ////////////////////////////////////////////.">
<polygon fill="none" stroke="black" points="177,-343 177,-373 296,-373 296,-343 177,-343"/>
<text text-anchor="start" x="185" y="-361" font-family="Helvetica,sans-Serif" font-size="10.00">MatrixElementCache</text>
<text text-anchor="middle" x="236.5" y="-350" font-family="Helvetica,sans-Serif" font-size="10.00">::getElectricDipole</text>
</a>
</g>
</g>
<!-- Node1&#45;&gt;Node2 -->
<g id="edge1" class="edge">
<title>Node1&#45;&gt;Node2</title>
<path fill="none" stroke="midnightblue" d="M71.52,-196.31C84.22,-226.7 116.64,-295 165,-333 167.3,-334.81 169.74,-336.49 172.27,-338.05"/>
<polygon fill="midnightblue" stroke="midnightblue" points="170.76,-341.21 181.21,-342.93 174.11,-335.07 170.76,-341.21"/>
</g>
<!-- Node4 -->
<g id="node4" class="node">
<title>Node4</title>
<g id="a_node4"><a xlink:href="classStateTwo.html#a3f9e530a17bed5048f16653dcd9c7991" target="_top" xlink:title=" ">
<polygon fill="none" stroke="black" points="178.5,-304.5 178.5,-323.5 294.5,-323.5 294.5,-304.5 178.5,-304.5"/>
<text text-anchor="middle" x="236.5" y="-311.5" font-family="Helvetica,sans-Serif" font-size="10.00">StateTwo::getEnergy</text>
</a>
</g>
</g>
<!-- Node1&#45;&gt;Node4 -->
<g id="edge3" class="edge">
<title>Node1&#45;&gt;Node4</title>
<path fill="none" stroke="midnightblue" d="M74.45,-196.1C89.81,-220.67 123.56,-269.12 165,-295 168.41,-297.13 172.06,-299.02 175.83,-300.71"/>
<polygon fill="midnightblue" stroke="midnightblue" points="174.82,-304.07 185.41,-304.47 177.38,-297.56 174.82,-304.07"/>
</g>
<!-- Node5 -->
<g id="node5" class="node">
<title>Node5</title>
<g id="a_node5"><a xlink:href="classStateTwo.html#a48d2a882bdaf347c38d36ea1a2de4d25" target="_top" xlink:title=" ">
<polygon fill="none" stroke="black" points="172.5,-266.5 172.5,-285.5 300.5,-285.5 300.5,-266.5 172.5,-266.5"/>
<text text-anchor="middle" x="236.5" y="-273.5" font-family="Helvetica,sans-Serif" font-size="10.00">StateTwo::getFirstState</text>
</a>
</g>
</g>
<!-- Node1&#45;&gt;Node5 -->
<g id="edge4" class="edge">
<title>Node1&#45;&gt;Node5</title>
<path fill="none" stroke="midnightblue" d="M81.08,-196.05C99.63,-213.17 132.24,-240.86 165,-257 169.83,-259.38 175,-261.5 180.27,-263.37"/>
<polygon fill="midnightblue" stroke="midnightblue" points="179.2,-266.7 189.79,-266.47 181.37,-260.04 179.2,-266.7"/>
</g>
<!-- Node6 -->
<g id="node6" class="node">
<title>Node6</title>
<g id="a_node6"><a xlink:href="classStateTwo.html#a8da7f3d40cddcdd7dbb2886427f7952d" target="_top" xlink:title=" ">
<polygon fill="none" stroke="black" points="193.5,-228.5 193.5,-247.5 279.5,-247.5 279.5,-228.5 193.5,-228.5"/>
<text text-anchor="middle" x="236.5" y="-235.5" font-family="Helvetica,sans-Serif" font-size="10.00">StateTwo::getJ</text>
</a>
</g>
</g>
<!-- Node1&#45;&gt;Node6 -->
<g id="edge5" class="edge">
<title>Node1&#45;&gt;Node6</title>
<path fill="none" stroke="midnightblue" d="M102.51,-196.16C121.1,-203.51 144.07,-212.2 165,-219 172.21,-221.34 179.9,-223.63 187.45,-225.75"/>
<polygon fill="midnightblue" stroke="midnightblue" points="186.67,-229.17 197.24,-228.45 188.53,-222.42 186.67,-229.17"/>
</g>
<!-- Node7 -->
<g id="node7" class="node">
<title>Node7</title>
<g id="a_node7"><a xlink:href="classStateTwo.html#aba98b05bc1257f73bcbbb9b079ad2928" target="_top" xlink:title=" ">
<polygon fill="none" stroke="black" points="192.5,-190.5 192.5,-209.5 280.5,-209.5 280.5,-190.5 192.5,-190.5"/>
<text text-anchor="middle" x="236.5" y="-197.5" font-family="Helvetica,sans-Serif" font-size="10.00">StateTwo::getL</text>
</a>
</g>
</g>
<!-- Node1&#45;&gt;Node7 -->
<g id="edge6" class="edge">
<title>Node1&#45;&gt;Node7</title>
<path fill="none" stroke="midnightblue" d="M129.29,-188.13C146.68,-190.07 165.35,-192.16 182.11,-194.03"/>
<polygon fill="midnightblue" stroke="midnightblue" points="181.94,-197.54 192.26,-195.17 182.71,-190.58 181.94,-197.54"/>
</g>
<!-- Node8 -->
<g id="node8" class="node">
<title>Node8</title>
<g id="a_node8"><a xlink:href="classStateTwo.html#af2e91e00e5839735357e41e14646a0bd" target="_top" xlink:title=" ">
<polygon fill="none" stroke="black" points="190.5,-152.5 190.5,-171.5 282.5,-171.5 282.5,-152.5 190.5,-152.5"/>
<text text-anchor="middle" x="236.5" y="-159.5" font-family="Helvetica,sans-Serif" font-size="10.00">StateTwo::getM</text>
</a>
</g>
</g>
<!-- Node1&#45;&gt;Node8 -->
<g id="edge7" class="edge">
<title>Node1&#45;&gt;Node8</title>
<path fill="none" stroke="midnightblue" d="M129.29,-173.87C145.98,-172.01 163.84,-170.01 180.06,-168.2"/>
<polygon fill="midnightblue" stroke="midnightblue" points="180.9,-171.62 190.45,-167.03 180.13,-164.67 180.9,-171.62"/>
</g>
<!-- Node9 -->
<g id="node9" class="node">
<title>Node9</title>
<g id="a_node9"><a xlink:href="classStateTwo.html#a63046074605d8d7a3201082ba9e13673" target="_top" xlink:title=" ">
<polygon fill="none" stroke="black" points="191.5,-114.5 191.5,-133.5 281.5,-133.5 281.5,-114.5 191.5,-114.5"/>
<text text-anchor="middle" x="236.5" y="-121.5" font-family="Helvetica,sans-Serif" font-size="10.00">StateTwo::getN</text>
</a>
</g>
</g>
<!-- Node1&#45;&gt;Node9 -->
<g id="edge8" class="edge">
<title>Node1&#45;&gt;Node9</title>
<path fill="none" stroke="midnightblue" d="M102.51,-165.84C121.1,-158.49 144.07,-149.8 165,-143 172.21,-140.66 179.9,-138.37 187.45,-136.25"/>
<polygon fill="midnightblue" stroke="midnightblue" points="188.53,-139.58 197.24,-133.55 186.67,-132.83 188.53,-139.58"/>
</g>
<!-- Node10 -->
<g id="node10" class="node">
<title>Node10</title>
<g id="a_node10"><a xlink:href="classStateTwo.html#a9f1e6b6e11b9941a85b7fd587ebe15aa" target="_top" xlink:title=" ">
<polygon fill="none" stroke="black" points="192,-76.5 192,-95.5 281,-95.5 281,-76.5 192,-76.5"/>
<text text-anchor="middle" x="236.5" y="-83.5" font-family="Helvetica,sans-Serif" font-size="10.00">StateTwo::getS</text>
</a>
</g>
</g>
<!-- Node1&#45;&gt;Node10 -->
<g id="edge9" class="edge">
<title>Node1&#45;&gt;Node10</title>
<path fill="none" stroke="midnightblue" d="M81.08,-165.95C99.63,-148.83 132.24,-121.14 165,-105 170.32,-102.38 176.05,-100.08 181.86,-98.08"/>
<polygon fill="midnightblue" stroke="midnightblue" points="183.18,-101.33 191.65,-94.98 181.06,-94.66 183.18,-101.33"/>
</g>
<!-- Node11 -->
<g id="node11" class="node">
<title>Node11</title>
<g id="a_node11"><a xlink:href="classStateTwo.html#a5f39ceea2e8f442364fec097566365d0" target="_top" xlink:title=" ">
<polygon fill="none" stroke="black" points="165,-38.5 165,-57.5 308,-57.5 308,-38.5 165,-38.5"/>
<text text-anchor="middle" x="236.5" y="-45.5" font-family="Helvetica,sans-Serif" font-size="10.00">StateTwo::getSecondState</text>
</a>
</g>
</g>
<!-- Node1&#45;&gt;Node11 -->
<g id="edge10" class="edge">
<title>Node1&#45;&gt;Node11</title>
<path fill="none" stroke="midnightblue" d="M74.45,-165.9C89.81,-141.33 123.56,-92.88 165,-67 168.41,-64.87 172.06,-62.98 175.83,-61.29"/>
<polygon fill="midnightblue" stroke="midnightblue" points="177.38,-64.44 185.41,-57.53 174.82,-57.93 177.38,-64.44"/>
</g>
<!-- Node12 -->
<g id="node12" class="node">
<title>Node12</title>
<g id="a_node12"><a xlink:href="classStateTwo.html#a11bbc5b4c7f83c44a3536a349e78a925" target="_top" xlink:title=" ">
<polygon fill="none" stroke="black" points="176.5,-0.5 176.5,-19.5 296.5,-19.5 296.5,-0.5 176.5,-0.5"/>
<text text-anchor="middle" x="236.5" y="-7.5" font-family="Helvetica,sans-Serif" font-size="10.00">StateTwo::getSpecies</text>
</a>
</g>
</g>
<!-- Node1&#45;&gt;Node12 -->
<g id="edge11" class="edge">
<title>Node1&#45;&gt;Node12</title>
<path fill="none" stroke="midnightblue" d="M71.09,-165.84C83.21,-135.11 114.95,-65.28 165,-29 167.67,-27.07 170.52,-25.33 173.5,-23.77"/>
<polygon fill="midnightblue" stroke="midnightblue" points="175.04,-26.91 182.71,-19.6 172.16,-20.53 175.04,-26.91"/>
</g>
<!-- Node3 -->
<g id="node3" class="node">
<title>Node3</title>
<g id="a_node3"><a xlink:href="classMatrixElementCache.html#a2407b99847793920a9d4ed0d8b156d8a" target="_top" xlink:title=" ">
<polygon fill="none" stroke="black" points="344,-343 344,-373 464,-373 464,-343 344,-343"/>
<text text-anchor="start" x="352" y="-361" font-family="Helvetica,sans-Serif" font-size="10.00">MatrixElementCache</text>
<text text-anchor="middle" x="404" y="-350" font-family="Helvetica,sans-Serif" font-size="10.00">::getElectricMultipole</text>
</a>
</g>
</g>
<!-- Node2&#45;&gt;Node3 -->
<g id="edge2" class="edge">
<title>Node2&#45;&gt;Node3</title>
<path fill="none" stroke="midnightblue" d="M296.32,-358C308.36,-358 321.15,-358 333.54,-358"/>
<polygon fill="midnightblue" stroke="midnightblue" points="333.82,-361.5 343.82,-358 333.82,-354.5 333.82,-361.5"/>
</g>
</g>
</svg>
