<?xml version="1.0" encoding="UTF-8" standalone="no"?>
<!DOCTYPE svg PUBLIC "-//W3C//DTD SVG 1.1//EN"
 "http://www.w3.org/Graphics/SVG/1.1/DTD/svg11.dtd">
<!-- Generated by graphviz version 2.43.0 (0)
 -->
<!-- Title: SystemBase::checkIsQuantumstateValid Pages: 1 -->
<svg width="326pt" height="142pt"
 viewBox="0.00 0.00 326.00 142.00" xmlns="http://www.w3.org/2000/svg" xmlns:xlink="http://www.w3.org/1999/xlink">
<g id="graph0" class="graph" transform="scale(1 1) rotate(0) translate(4 138)">
<title>SystemBase::checkIsQuantumstateValid</title>
<!-- Node1 -->
<g id="node1" class="node">
<title>Node1</title>
<g id="a_node1"><a xlink:title=" ">
<polygon fill="#bfbfbf" stroke="black" points="0,-52 0,-82 190,-82 190,-52 0,-52"/>
<text text-anchor="start" x="8" y="-70" font-family="Helvetica,sans-Serif" font-size="10.00">SystemBase::checkIsQuantumstate</text>
<text text-anchor="middle" x="95" y="-59" font-family="Helvetica,sans-Serif" font-size="10.00">Valid</text>
</a>
</g>
</g>
<!-- Node2 -->
<g id="node2" class="node">
<title>Node2</title>
<g id="a_node2"><a xlink:href="classStateOne.html#aedba5bfce70f73fa324b9d5ae1115578" target="_top" xlink:title=" ">
<polygon fill="none" stroke="black" points="229,-114.5 229,-133.5 315,-133.5 315,-114.5 229,-114.5"/>
<text text-anchor="middle" x="272" y="-121.5" font-family="Helvetica,sans-Serif" font-size="10.00">StateOne::getJ</text>
</a>
</g>
</g>
<!-- Node1&#45;&gt;Node2 -->
<g id="edge1" class="edge">
<title>Node1&#45;&gt;Node2</title>
<path fill="none" stroke="midnightblue" d="M142.44,-82.13C170.36,-91.22 205.5,-102.67 231.98,-111.29"/>
<polygon fill="midnightblue" stroke="midnightblue" points="231.08,-114.68 241.68,-114.45 233.25,-108.02 231.08,-114.68"/>
</g>
<!-- Node3 -->
<g id="node3" class="node">
<title>Node3</title>
<g id="a_node3"><a xlink:href="classStateOne.html#a3783cebe5bbd63f072caf8450fea4aca" target="_top" xlink:title=" ">
<polygon fill="none" stroke="black" points="227.5,-76.5 227.5,-95.5 316.5,-95.5 316.5,-76.5 227.5,-76.5"/>
<text text-anchor="middle" x="272" y="-83.5" font-family="Helvetica,sans-Serif" font-size="10.00">StateOne::getL</text>
</a>
</g>
</g>
<!-- Node1&#45;&gt;Node3 -->
<g id="edge2" class="edge">
<title>Node1&#45;&gt;Node3</title>
<path fill="none" stroke="midnightblue" d="M190.16,-77.22C199.36,-78.22 208.47,-79.21 217.06,-80.14"/>
<polygon fill="midnightblue" stroke="midnightblue" points="216.94,-83.65 227.26,-81.25 217.7,-76.69 216.94,-83.65"/>
</g>
<!-- Node4 -->
<g id="node4" class="node">
<title>Node4</title>
<g id="a_node4"><a xlink:href="classStateOne.html#aab2b41262381d67893113ed6f5ad18bc" target="_top" xlink:title=" ">
<polygon fill="none" stroke="black" points="226,-38.5 226,-57.5 318,-57.5 318,-38.5 226,-38.5"/>
<text text-anchor="middle" x="272" y="-45.5" font-family="Helvetica,sans-Serif" font-size="10.00">StateOne::getM</text>
</a>
</g>
</g>
<!-- Node1&#45;&gt;Node4 -->
<g id="edge3" class="edge">
<title>Node1&#45;&gt;Node4</title>
<path fill="none" stroke="midnightblue" d="M190.16,-56.78C198.92,-55.83 207.59,-54.88 215.82,-53.99"/>
<polygon fill="midnightblue" stroke="midnightblue" points="216.41,-57.45 225.97,-52.89 215.65,-50.49 216.41,-57.45"/>
</g>
<!-- Node5 -->
<g id="node5" class="node">
<title>Node5</title>
<g id="a_node5"><a xlink:href="classStateOne.html#a7deae740570ef5262e7fd2d254a8c530" target="_top" xlink:title=" ">
<polygon fill="none" stroke="black" points="226.5,-0.5 226.5,-19.5 317.5,-19.5 317.5,-0.5 226.5,-0.5"/>
<text text-anchor="middle" x="272" y="-7.5" font-family="Helvetica,sans-Serif" font-size="10.00">StateOne::getN</text>
</a>
</g>
</g>
<!-- Node1&#45;&gt;Node5 -->
<g id="edge4" class="edge">
<title>Node1&#45;&gt;Node5</title>
<path fill="none" stroke="midnightblue" d="M142.44,-51.87C170.36,-42.78 205.5,-31.33 231.98,-22.71"/>
<polygon fill="midnightblue" stroke="midnightblue" points="233.25,-25.98 241.68,-19.55 231.08,-19.32 233.25,-25.98"/>
</g>
</g>
</svg>
