<?xml version="1.0" encoding="UTF-8" standalone="no"?>
<!DOCTYPE svg PUBLIC "-//W3C//DTD SVG 1.1//EN"
 "http://www.w3.org/Graphics/SVG/1.1/DTD/svg11.dtd">
<!-- Generated by graphviz version 2.43.0 (0)
 -->
<!-- Title: StateOne::getN Pages: 1 -->
<svg width="507pt" height="301pt"
 viewBox="0.00 0.00 507.00 300.50" xmlns="http://www.w3.org/2000/svg" xmlns:xlink="http://www.w3.org/1999/xlink">
<g id="graph0" class="graph" transform="scale(1 1) rotate(0) translate(4 296.5)">
<title>StateOne::getN</title>
<!-- Node1 -->
<g id="node1" class="node">
<title>Node1</title>
<g id="a_node1"><a xlink:title=" ">
<polygon fill="#bfbfbf" stroke="black" points="408,-120.5 408,-139.5 499,-139.5 499,-120.5 408,-120.5"/>
<text text-anchor="middle" x="453.5" y="-127.5" font-family="Helvetica,sans-Serif" font-size="10.00">StateOne::getN</text>
</a>
</g>
</g>
<!-- Node2 -->
<g id="node2" class="node">
<title>Node2</title>
<g id="a_node2"><a xlink:href="classSystemBase.html#a0d11ab32c8640902d7c5dbbc6b9e09d4" target="_top" xlink:title=" ">
<polygon fill="none" stroke="black" points="182,-262 182,-292 372,-292 372,-262 182,-262"/>
<text text-anchor="start" x="190" y="-280" font-family="Helvetica,sans-Serif" font-size="10.00">SystemBase::checkIsQuantumstate</text>
<text text-anchor="middle" x="277" y="-269" font-family="Helvetica,sans-Serif" font-size="10.00">Valid</text>
</a>
</g>
</g>
<!-- Node1&#45;&gt;Node2 -->
<g id="edge1" class="edge">
<title>Node1&#45;&gt;Node2</title>
<path fill="none" stroke="midnightblue" d="M445.16,-149.38C433.77,-176.77 409.21,-226.4 372,-253 367.2,-256.43 361.96,-259.37 356.49,-261.89"/>
<polygon fill="midnightblue" stroke="midnightblue" points="448.54,-150.34 449,-139.76 442.04,-147.75 448.54,-150.34"/>
</g>
<!-- Node3 -->
<g id="node3" class="node">
<title>Node3</title>
<g id="a_node3"><a xlink:href="classMatrixElementCache.html#afc9f56a599c9ea24bbfbd4aeb41efbd4" target="_top" xlink:title=" ">
<polygon fill="none" stroke="black" points="217,-213 217,-243 337,-243 337,-213 217,-213"/>
<text text-anchor="start" x="225" y="-231" font-family="Helvetica,sans-Serif" font-size="10.00">MatrixElementCache</text>
<text text-anchor="middle" x="277" y="-220" font-family="Helvetica,sans-Serif" font-size="10.00">::getElectricMultipole</text>
</a>
</g>
</g>
<!-- Node1&#45;&gt;Node3 -->
<g id="edge2" class="edge">
<title>Node1&#45;&gt;Node3</title>
<path fill="none" stroke="midnightblue" d="M438.08,-147.55C423.24,-164.48 398.58,-189.6 372,-204 361.34,-209.78 349.24,-214.2 337.35,-217.58"/>
<polygon fill="midnightblue" stroke="midnightblue" points="441.09,-149.42 444.91,-139.54 435.76,-144.88 441.09,-149.42"/>
</g>
<!-- Node4 -->
<g id="node4" class="node">
<title>Node4</title>
<g id="a_node4"><a xlink:href="classMatrixElementCache.html#aeef0496ad6db911dac50c0625660d9c0" target="_top" xlink:title=" ">
<polygon fill="none" stroke="black" points="217.5,-164 217.5,-194 336.5,-194 336.5,-164 217.5,-164"/>
<text text-anchor="start" x="225.5" y="-182" font-family="Helvetica,sans-Serif" font-size="10.00">MatrixElementCache</text>
<text text-anchor="middle" x="277" y="-171" font-family="Helvetica,sans-Serif" font-size="10.00">::getMagneticDipole</text>
</a>
</g>
</g>
<!-- Node1&#45;&gt;Node4 -->
<g id="edge3" class="edge">
<title>Node1&#45;&gt;Node4</title>
<path fill="none" stroke="midnightblue" d="M413.49,-142.56C400.35,-146.67 385.58,-151.16 372,-155 360.57,-158.23 348.31,-161.5 336.54,-164.55"/>
<polygon fill="midnightblue" stroke="midnightblue" points="414.68,-145.85 423.17,-139.51 412.58,-139.17 414.68,-145.85"/>
</g>
<!-- Node5 -->
<g id="node5" class="node">
<title>Node5</title>
<g id="a_node5"><a xlink:href="classMatrixElementCache.html#ad624534d20e42d8c4f495b51d6084057" target="_top" xlink:title=" ">
<polygon fill="none" stroke="black" points="217.5,-115 217.5,-145 336.5,-145 336.5,-115 217.5,-115"/>
<text text-anchor="start" x="225.5" y="-133" font-family="Helvetica,sans-Serif" font-size="10.00">MatrixElementCache</text>
<text text-anchor="middle" x="277" y="-122" font-family="Helvetica,sans-Serif" font-size="10.00">::getRadial</text>
</a>
</g>
</g>
<!-- Node1&#45;&gt;Node5 -->
<g id="edge4" class="edge">
<title>Node1&#45;&gt;Node5</title>
<path fill="none" stroke="midnightblue" d="M397.39,-130C378.05,-130 356.24,-130 336.62,-130"/>
<polygon fill="midnightblue" stroke="midnightblue" points="397.56,-133.5 407.56,-130 397.56,-126.5 397.56,-133.5"/>
</g>
<!-- Node7 -->
<g id="node7" class="node">
<title>Node7</title>
<g id="a_node7"><a xlink:href="classStateOne.html#a0b5646c4160083ef4b24460e9159ad2c" target="_top" xlink:title=" ">
<polygon fill="none" stroke="black" points="212,-76.5 212,-95.5 342,-95.5 342,-76.5 212,-76.5"/>
<text text-anchor="middle" x="277" y="-83.5" font-family="Helvetica,sans-Serif" font-size="10.00">StateOne::getReflected</text>
</a>
</g>
</g>
<!-- Node1&#45;&gt;Node7 -->
<g id="edge6" class="edge">
<title>Node1&#45;&gt;Node7</title>
<path fill="none" stroke="midnightblue" d="M414.57,-117.35C401.2,-113.12 386.01,-108.58 372,-105 358.45,-101.54 343.67,-98.3 329.93,-95.51"/>
<polygon fill="midnightblue" stroke="midnightblue" points="413.8,-120.78 424.39,-120.5 415.93,-114.11 413.8,-120.78"/>
</g>
<!-- Node9 -->
<g id="node9" class="node">
<title>Node9</title>
<g id="a_node9"><a xlink:href="classStateOne.html#a5b05a258a43a682cfe7af5eb57d0221c" target="_top" xlink:title="Implementation of one&#45;atom state ///////////////////////////////.">
<polygon fill="none" stroke="black" points="220.5,-38.5 220.5,-57.5 333.5,-57.5 333.5,-38.5 220.5,-38.5"/>
<text text-anchor="middle" x="277" y="-45.5" font-family="Helvetica,sans-Serif" font-size="10.00">StateOne::StateOne</text>
</a>
</g>
</g>
<!-- Node1&#45;&gt;Node9 -->
<g id="edge8" class="edge">
<title>Node1&#45;&gt;Node9</title>
<path fill="none" stroke="midnightblue" d="M435.53,-112.81C420.25,-98.35 396.48,-78.28 372,-67 360.05,-61.5 346.53,-57.58 333.54,-54.8"/>
<polygon fill="midnightblue" stroke="midnightblue" points="433.49,-115.71 443.1,-120.17 438.37,-110.69 433.49,-115.71"/>
</g>
<!-- Node10 -->
<g id="node10" class="node">
<title>Node10</title>
<g id="a_node10"><a xlink:href="integration__test_8cpp.html#a0af1002bd92a4dd0a9d058217f63447e" target="_top" xlink:title=" ">
<polygon fill="none" stroke="black" points="217.5,-0.5 217.5,-19.5 336.5,-19.5 336.5,-0.5 217.5,-0.5"/>
<text text-anchor="middle" x="277" y="-7.5" font-family="Helvetica,sans-Serif" font-size="10.00">TEST_CASE_FIXTURE</text>
</a>
</g>
</g>
<!-- Node1&#45;&gt;Node10 -->
<g id="edge9" class="edge">
<title>Node1&#45;&gt;Node10</title>
<path fill="none" stroke="midnightblue" d="M443.09,-111.51C430.3,-88.36 405.15,-49.26 372,-29 361.35,-22.49 348.87,-18.16 336.55,-15.3"/>
<polygon fill="midnightblue" stroke="midnightblue" points="440.02,-113.18 447.81,-120.36 446.19,-109.89 440.02,-113.18"/>
</g>
<!-- Node6 -->
<g id="node6" class="node">
<title>Node6</title>
<g id="a_node6"><a xlink:href="classStateTwo.html#a10b237929cc9326382eef2b2d9db7eca" target="_top" xlink:title=" ">
<polygon fill="none" stroke="black" points="0,-120.5 0,-139.5 146,-139.5 146,-120.5 0,-120.5"/>
<text text-anchor="middle" x="73" y="-127.5" font-family="Helvetica,sans-Serif" font-size="10.00">StateTwo::getLeRoyRadius</text>
</a>
</g>
</g>
<!-- Node5&#45;&gt;Node6 -->
<g id="edge5" class="edge">
<title>Node5&#45;&gt;Node6</title>
<path fill="none" stroke="midnightblue" d="M207.19,-130C187.51,-130 166,-130 146.12,-130"/>
<polygon fill="midnightblue" stroke="midnightblue" points="207.3,-133.5 217.3,-130 207.3,-126.5 207.3,-133.5"/>
</g>
<!-- Node8 -->
<g id="node8" class="node">
<title>Node8</title>
<g id="a_node8"><a xlink:href="classSystemTwo.html#a2ac476404813bf4c8990a893404a96b9" target="_top" xlink:title="Method that allows base class to initialize Basis //////////////.">
<polygon fill="none" stroke="black" points="0,-76.5 0,-95.5 146,-95.5 146,-76.5 0,-76.5"/>
<text text-anchor="middle" x="73" y="-83.5" font-family="Helvetica,sans-Serif" font-size="10.00">SystemTwo::initializeBasis</text>
</a>
</g>
</g>
<!-- Node7&#45;&gt;Node8 -->
<g id="edge7" class="edge">
<title>Node7&#45;&gt;Node8</title>
<path fill="none" stroke="midnightblue" d="M201.59,-86C183.47,-86 164.11,-86 146.1,-86"/>
<polygon fill="midnightblue" stroke="midnightblue" points="201.81,-89.5 211.81,-86 201.81,-82.5 201.81,-89.5"/>
</g>
</g>
</svg>
