<?xml version="1.0" encoding="UTF-8" standalone="no"?>
<!DOCTYPE svg PUBLIC "-//W3C//DTD SVG 1.1//EN"
 "http://www.w3.org/Graphics/SVG/1.1/DTD/svg11.dtd">
<!-- Generated by graphviz version 2.43.0 (0)
 -->
<!-- Title: StateTwo::getLeRoyRadius Pages: 1 -->
<svg width="466pt" height="142pt"
 viewBox="0.00 0.00 466.00 142.00" xmlns="http://www.w3.org/2000/svg" xmlns:xlink="http://www.w3.org/1999/xlink">
<g id="graph0" class="graph" transform="scale(1 1) rotate(0) translate(4 138)">
<title>StateTwo::getLeRoyRadius</title>
<!-- Node1 -->
<g id="node1" class="node">
<title>Node1</title>
<g id="a_node1"><a xlink:title=" ">
<polygon fill="#bfbfbf" stroke="black" points="0,-57.5 0,-76.5 146,-76.5 146,-57.5 0,-57.5"/>
<text text-anchor="middle" x="73" y="-64.5" font-family="Helvetica,sans-Serif" font-size="10.00">StateTwo::getLeRoyRadius</text>
</a>
</g>
</g>
<!-- Node2 -->
<g id="node2" class="node">
<title>Node2</title>
<g id="a_node2"><a xlink:href="classMatrixElementCache.html#ad624534d20e42d8c4f495b51d6084057" target="_top" xlink:title=" ">
<polygon fill="none" stroke="black" points="182,-52 182,-82 301,-82 301,-52 182,-52"/>
<text text-anchor="start" x="190" y="-70" font-family="Helvetica,sans-Serif" font-size="10.00">MatrixElementCache</text>
<text text-anchor="middle" x="241.5" y="-59" font-family="Helvetica,sans-Serif" font-size="10.00">::getRadial</text>
</a>
</g>
</g>
<!-- Node1&#45;&gt;Node2 -->
<g id="edge1" class="edge">
<title>Node1&#45;&gt;Node2</title>
<path fill="none" stroke="midnightblue" d="M146.06,-67C154.56,-67 163.21,-67 171.67,-67"/>
<polygon fill="midnightblue" stroke="midnightblue" points="171.85,-70.5 181.85,-67 171.85,-63.5 171.85,-70.5"/>
</g>
<!-- Node3 -->
<g id="node3" class="node">
<title>Node3</title>
<g id="a_node3"><a xlink:href="classStateOne.html#aedba5bfce70f73fa324b9d5ae1115578" target="_top" xlink:title=" ">
<polygon fill="none" stroke="black" points="354.5,-114.5 354.5,-133.5 440.5,-133.5 440.5,-114.5 354.5,-114.5"/>
<text text-anchor="middle" x="397.5" y="-121.5" font-family="Helvetica,sans-Serif" font-size="10.00">StateOne::getJ</text>
</a>
</g>
</g>
<!-- Node2&#45;&gt;Node3 -->
<g id="edge2" class="edge">
<title>Node2&#45;&gt;Node3</title>
<path fill="none" stroke="midnightblue" d="M278.16,-82.06C295.76,-89.3 317.37,-97.93 337,-105 342.96,-107.15 349.3,-109.3 355.53,-111.35"/>
<polygon fill="midnightblue" stroke="midnightblue" points="354.57,-114.72 365.17,-114.47 356.73,-108.06 354.57,-114.72"/>
</g>
<!-- Node4 -->
<g id="node4" class="node">
<title>Node4</title>
<g id="a_node4"><a xlink:href="classStateOne.html#a3783cebe5bbd63f072caf8450fea4aca" target="_top" xlink:title=" ">
<polygon fill="none" stroke="black" points="353,-76.5 353,-95.5 442,-95.5 442,-76.5 353,-76.5"/>
<text text-anchor="middle" x="397.5" y="-83.5" font-family="Helvetica,sans-Serif" font-size="10.00">StateOne::getL</text>
</a>
</g>
</g>
<!-- Node2&#45;&gt;Node4 -->
<g id="edge3" class="edge">
<title>Node2&#45;&gt;Node4</title>
<path fill="none" stroke="midnightblue" d="M301.16,-74.24C314.84,-75.93 329.35,-77.71 342.8,-79.37"/>
<polygon fill="midnightblue" stroke="midnightblue" points="342.5,-82.86 352.85,-80.62 343.36,-75.92 342.5,-82.86"/>
</g>
<!-- Node5 -->
<g id="node5" class="node">
<title>Node5</title>
<g id="a_node5"><a xlink:href="classStateOne.html#a7deae740570ef5262e7fd2d254a8c530" target="_top" xlink:title=" ">
<polygon fill="none" stroke="black" points="352,-38.5 352,-57.5 443,-57.5 443,-38.5 352,-38.5"/>
<text text-anchor="middle" x="397.5" y="-45.5" font-family="Helvetica,sans-Serif" font-size="10.00">StateOne::getN</text>
</a>
</g>
</g>
<!-- Node2&#45;&gt;Node5 -->
<g id="edge4" class="edge">
<title>Node2&#45;&gt;Node5</title>
<path fill="none" stroke="midnightblue" d="M301.16,-59.76C314.44,-58.12 328.49,-56.39 341.61,-54.77"/>
<polygon fill="midnightblue" stroke="midnightblue" points="342.4,-58.2 351.9,-53.5 341.54,-51.25 342.4,-58.2"/>
</g>
<!-- Node6 -->
<g id="node6" class="node">
<title>Node6</title>
<g id="a_node6"><a xlink:href="classStateOne.html#a45b245f5da0068df4ff72093c654da89" target="_top" xlink:title=" ">
<polygon fill="none" stroke="black" points="337,-0.5 337,-19.5 458,-19.5 458,-0.5 337,-0.5"/>
<text text-anchor="middle" x="397.5" y="-7.5" font-family="Helvetica,sans-Serif" font-size="10.00">StateOne::getSpecies</text>
</a>
</g>
</g>
<!-- Node2&#45;&gt;Node6 -->
<g id="edge5" class="edge">
<title>Node2&#45;&gt;Node6</title>
<path fill="none" stroke="midnightblue" d="M278.16,-51.94C295.76,-44.7 317.37,-36.07 337,-29 342.96,-26.85 349.3,-24.7 355.53,-22.65"/>
<polygon fill="midnightblue" stroke="midnightblue" points="356.73,-25.94 365.17,-19.53 354.57,-19.28 356.73,-25.94"/>
</g>
</g>
</svg>
