<?xml version="1.0" encoding="UTF-8" standalone="no"?>
<!DOCTYPE svg PUBLIC "-//W3C//DTD SVG 1.1//EN"
 "http://www.w3.org/Graphics/SVG/1.1/DTD/svg11.dtd">
<!-- Generated by graphviz version 2.43.0 (0)
 -->
<!-- Title: StateOne::getEnergy Pages: 1 -->
<svg width="308pt" height="66pt"
 viewBox="0.00 0.00 308.00 66.00" xmlns="http://www.w3.org/2000/svg" xmlns:xlink="http://www.w3.org/1999/xlink">
<g id="graph0" class="graph" transform="scale(1 1) rotate(0) translate(4 62)">
<title>StateOne::getEnergy</title>
<!-- Node1 -->
<g id="node1" class="node">
<title>Node1</title>
<g id="a_node1"><a xlink:title=" ">
<polygon fill="#bfbfbf" stroke="black" points="183,-19.5 183,-38.5 300,-38.5 300,-19.5 183,-19.5"/>
<text text-anchor="middle" x="241.5" y="-26.5" font-family="Helvetica,sans-Serif" font-size="10.00">StateOne::getEnergy</text>
</a>
</g>
</g>
<!-- Node2 -->
<g id="node2" class="node">
<title>Node2</title>
<g id="a_node2"><a xlink:href="classSystemOne.html#aaf50fe3da310c08d60248b5e931d15e8" target="_top" xlink:title="Method that allows base class to initialize Basis //////////////.">
<polygon fill="none" stroke="black" points="0,-38.5 0,-57.5 147,-57.5 147,-38.5 0,-38.5"/>
<text text-anchor="middle" x="73.5" y="-45.5" font-family="Helvetica,sans-Serif" font-size="10.00">SystemOne::initializeBasis</text>
</a>
</g>
</g>
<!-- Node1&#45;&gt;Node2 -->
<g id="edge1" class="edge">
<title>Node1&#45;&gt;Node2</title>
<path fill="none" stroke="midnightblue" d="M172.76,-36.75C164.34,-37.72 155.69,-38.71 147.2,-39.68"/>
<polygon fill="midnightblue" stroke="midnightblue" points="173.37,-40.21 182.91,-35.59 172.57,-33.25 173.37,-40.21"/>
</g>
<!-- Node3 -->
<g id="node3" class="node">
<title>Node3</title>
<g id="a_node3"><a xlink:href="integration__test_8cpp.html#a0af1002bd92a4dd0a9d058217f63447e" target="_top" xlink:title=" ">
<polygon fill="none" stroke="black" points="14,-0.5 14,-19.5 133,-19.5 133,-0.5 14,-0.5"/>
<text text-anchor="middle" x="73.5" y="-7.5" font-family="Helvetica,sans-Serif" font-size="10.00">TEST_CASE_FIXTURE</text>
</a>
</g>
</g>
<!-- Node1&#45;&gt;Node3 -->
<g id="edge2" class="edge">
<title>Node1&#45;&gt;Node3</title>
<path fill="none" stroke="midnightblue" d="M172.94,-21.27C159.74,-19.76 146,-18.18 133.12,-16.71"/>
<polygon fill="midnightblue" stroke="midnightblue" points="172.57,-24.75 182.91,-22.41 173.37,-17.79 172.57,-24.75"/>
</g>
</g>
</svg>
