<?xml version="1.0" encoding="UTF-8" standalone="no"?>
<!DOCTYPE svg PUBLIC "-//W3C//DTD SVG 1.1//EN"
 "http://www.w3.org/Graphics/SVG/1.1/DTD/svg11.dtd">
<!-- Generated by graphviz version 2.43.0 (0)
 -->
<!-- Title: StateOne::getL Pages: 1 -->
<!--zoomable 415 -->
<svg id="main" version="1.1" xmlns="http://www.w3.org/2000/svg" xmlns:xlink="http://www.w3.org/1999/xlink" xml:space="preserve" onload="init(evt)">
<style type="text/css"><![CDATA[
.edge:hover path { stroke: red; }
.edge:hover polygon { stroke: red; fill: red; }
]]></style>
<script type="text/javascript"><![CDATA[
var edges = document.getElementsByTagName('g');
if (edges && edges.length) {
  for (var i=0;i<edges.length;i++) {
    if (edges[i].id.substr(0,4)=='edge') {
      edges[i].setAttribute('class','edge');
    }
  }
}
]]></script>
        <defs>
                <circle id="rim" cx="0" cy="0" r="7"/>
                <circle id="rim2" cx="0" cy="0" r="3.5"/>
                <g id="zoomPlus">
                        <use xlink:href="#rim" fill="#404040">
                                <set attributeName="fill" to="#808080" begin="zoomplus.mouseover" end="zoomplus.mouseout"/>
                        </use>
                        <path d="M-4,0h8M0,-4v8" fill="none" stroke="white" stroke-width="1.5" pointer-events="none"/>
                </g>
                <g id="zoomMin">
                        <use xlink:href="#rim" fill="#404040">
                                <set attributeName="fill" to="#808080" begin="zoomminus.mouseover" end="zoomminus.mouseout"/>
                        </use>
                        <path d="M-4,0h8" fill="none" stroke="white" stroke-width="1.5" pointer-events="none"/>
                </g>
                <g id="dirArrow">
                        <path fill="none" stroke="white" stroke-width="1.5" d="M0,-3.0v7 M-2.5,-0.5L0,-3.0L2.5,-0.5"/>
                </g>
               <g id="resetDef">
                       <use xlink:href="#rim2" fill="#404040">
                               <set attributeName="fill" to="#808080" begin="reset.mouseover" end="reset.mouseout"/>
                       </use>
               </g>
        </defs>

<script type="text/javascript">
var viewWidth = 532;
var viewHeight = 415;
var sectionId = 'dynsection-8';
</script>
<script xlink:href="svgpan.js"/>
<svg id="graph" class="graph">
<g id="viewport">
<title>StateOne::getL</title>
<!-- Node1 -->
<g id="node1" class="node">
<title>Node1</title>
<g id="a_node1"><a xlink:title=" ">
<polygon fill="#bfbfbf" stroke="black" points="435,-171.5 435,-190.5 524,-190.5 524,-171.5 435,-171.5"/>
<text text-anchor="middle" x="479.5" y="-178.5" font-family="Helvetica,sans-Serif" font-size="10.00">StateOne::getL</text>
</a>
</g>
</g>
<!-- Node2 -->
<g id="node2" class="node">
<title>Node2</title>
<g id="a_node2"><a xlink:href="classSystemBase.html#a0d11ab32c8640902d7c5dbbc6b9e09d4" target="_top" xlink:title=" ">
<polygon fill="none" stroke="black" points="209,-376 209,-406 399,-406 399,-376 209,-376"/>
<text text-anchor="start" x="217" y="-394" font-family="Helvetica,sans-Serif" font-size="10.00">SystemBase::checkIsQuantumstate</text>
<text text-anchor="middle" x="304" y="-383" font-family="Helvetica,sans-Serif" font-size="10.00">Valid</text>
</a>
</g>
</g>
<!-- Node1&#45;&gt;Node2 -->
<g id="edge1" class="edge">
<title>Node1&#45;&gt;Node2</title>
<path fill="none" stroke="midnightblue" d="M475.78,-201.22C469.52,-239.55 450.48,-322.89 399,-367 395.04,-370.4 390.65,-373.32 386.01,-375.84"/>
<polygon fill="midnightblue" stroke="midnightblue" points="479.31,-201.27 477.33,-190.86 472.39,-200.23 479.31,-201.27"/>
</g>
<!-- Node3 -->
<g id="node3" class="node">
<title>Node3</title>
<g id="a_node3"><a xlink:href="classMatrixElementCache.html#afc9f56a599c9ea24bbfbd4aeb41efbd4" target="_top" xlink:title=" ">
<polygon fill="none" stroke="black" points="244,-327 244,-357 364,-357 364,-327 244,-327"/>
<text text-anchor="start" x="252" y="-345" font-family="Helvetica,sans-Serif" font-size="10.00">MatrixElementCache</text>
<text text-anchor="middle" x="304" y="-334" font-family="Helvetica,sans-Serif" font-size="10.00">::getElectricMultipole</text>
</a>
</g>
</g>
<!-- Node1&#45;&gt;Node3 -->
<g id="edge2" class="edge">
<title>Node1&#45;&gt;Node3</title>
<path fill="none" stroke="midnightblue" d="M472.66,-200.43C462.64,-230.39 439.24,-287.57 399,-318 388.92,-325.62 376.68,-330.83 364.41,-334.4"/>
<polygon fill="midnightblue" stroke="midnightblue" points="476.05,-201.32 475.76,-190.73 469.38,-199.19 476.05,-201.32"/>
</g>
<!-- Node4 -->
<g id="node4" class="node">
<title>Node4</title>
<g id="a_node4"><a xlink:href="classMatrixElementCache.html#aeef0496ad6db911dac50c0625660d9c0" target="_top" xlink:title=" ">
<polygon fill="none" stroke="black" points="244.5,-278 244.5,-308 363.5,-308 363.5,-278 244.5,-278"/>
<text text-anchor="start" x="252.5" y="-296" font-family="Helvetica,sans-Serif" font-size="10.00">MatrixElementCache</text>
<text text-anchor="middle" x="304" y="-285" font-family="Helvetica,sans-Serif" font-size="10.00">::getMagneticDipole</text>
</a>
</g>
</g>
<!-- Node1&#45;&gt;Node4 -->
<g id="edge3" class="edge">
<title>Node1&#45;&gt;Node4</title>
<path fill="none" stroke="midnightblue" d="M466.93,-199.21C453.18,-219.35 428.37,-251.27 399,-269 388.33,-275.44 375.97,-280.16 363.8,-283.62"/>
<polygon fill="midnightblue" stroke="midnightblue" points="470.01,-200.91 472.61,-190.63 464.17,-197.04 470.01,-200.91"/>
</g>
<!-- Node5 -->
<g id="node5" class="node">
<title>Node5</title>
<g id="a_node5"><a xlink:href="classMatrixElementCache.html#ad624534d20e42d8c4f495b51d6084057" target="_top" xlink:title=" ">
<polygon fill="none" stroke="black" points="244.5,-229 244.5,-259 363.5,-259 363.5,-229 244.5,-229"/>
<text text-anchor="start" x="252.5" y="-247" font-family="Helvetica,sans-Serif" font-size="10.00">MatrixElementCache</text>
<text text-anchor="middle" x="304" y="-236" font-family="Helvetica,sans-Serif" font-size="10.00">::getRadial</text>
</a>
</g>
</g>
<!-- Node1&#45;&gt;Node5 -->
<g id="edge4" class="edge">
<title>Node1&#45;&gt;Node5</title>
<path fill="none" stroke="midnightblue" d="M451.63,-195.38C436.48,-203.1 417.02,-212.36 399,-219 387.75,-223.14 375.51,-226.91 363.69,-230.19"/>
<polygon fill="midnightblue" stroke="midnightblue" points="453.64,-198.28 460.91,-190.58 450.42,-192.07 453.64,-198.28"/>
</g>
<!-- Node7 -->
<g id="node7" class="node">
<title>Node7</title>
<g id="a_node7"><a xlink:href="classStateOne.html#a0b5646c4160083ef4b24460e9159ad2c" target="_top" xlink:title=" ">
<polygon fill="none" stroke="black" points="239,-190.5 239,-209.5 369,-209.5 369,-190.5 239,-190.5"/>
<text text-anchor="middle" x="304" y="-197.5" font-family="Helvetica,sans-Serif" font-size="10.00">StateOne::getReflected</text>
</a>
</g>
</g>
<!-- Node1&#45;&gt;Node7 -->
<g id="edge6" class="edge">
<title>Node1&#45;&gt;Node7</title>
<path fill="none" stroke="midnightblue" d="M424.64,-186.9C407.05,-188.82 387.36,-190.98 369.1,-192.98"/>
<polygon fill="midnightblue" stroke="midnightblue" points="425.16,-190.36 434.72,-185.79 424.4,-183.4 425.16,-190.36"/>
</g>
<!-- Node8 -->
<g id="node8" class="node">
<title>Node8</title>
<g id="a_node8"><a xlink:href="classSystemTwo.html#a2ac476404813bf4c8990a893404a96b9" target="_top" xlink:title="Method that allows base class to initialize Basis //////////////.">
<polygon fill="none" stroke="black" points="13.5,-152.5 13.5,-171.5 159.5,-171.5 159.5,-152.5 13.5,-152.5"/>
<text text-anchor="middle" x="86.5" y="-159.5" font-family="Helvetica,sans-Serif" font-size="10.00">SystemTwo::initializeBasis</text>
</a>
</g>
</g>
<!-- Node1&#45;&gt;Node8 -->
<g id="edge8" class="edge">
<title>Node1&#45;&gt;Node8</title>
<path fill="none" stroke="midnightblue" d="M424.6,-178.38C355.76,-175.04 236.4,-169.24 159.74,-165.51"/>
<polygon fill="midnightblue" stroke="midnightblue" points="424.63,-181.89 434.79,-178.88 424.97,-174.89 424.63,-181.89"/>
</g>
<!-- Node9 -->
<g id="node9" class="node">
<title>Node9</title>
<g id="a_node9"><a xlink:href="MatrixElementCache_8cpp.html#a15aabd3025cfa0ca9485cd672c0a1a4a" target="_top" xlink:title=" ">
<polygon fill="none" stroke="black" points="221,-114.5 221,-133.5 387,-133.5 387,-114.5 221,-114.5"/>
<text text-anchor="middle" x="304" y="-121.5" font-family="Helvetica,sans-Serif" font-size="10.00">selectionRulesMomentumNew</text>
</a>
</g>
</g>
<!-- Node1&#45;&gt;Node9 -->
<g id="edge9" class="edge">
<title>Node1&#45;&gt;Node9</title>
<path fill="none" stroke="midnightblue" d="M448.73,-167.45C433.97,-161.04 415.75,-153.58 399,-148 382.54,-142.51 364.11,-137.56 347.96,-133.59"/>
<polygon fill="midnightblue" stroke="midnightblue" points="447.32,-170.66 457.89,-171.48 450.15,-164.25 447.32,-170.66"/>
</g>
<!-- Node11 -->
<g id="node11" class="node">
<title>Node11</title>
<g id="a_node11"><a xlink:href="MatrixElementCache_8cpp.html#a06a268e07e2a0edb3fca096b8c941c78" target="_top" xlink:title=" ">
<polygon fill="none" stroke="black" points="226.5,-76.5 226.5,-95.5 381.5,-95.5 381.5,-76.5 226.5,-76.5"/>
<text text-anchor="middle" x="304" y="-83.5" font-family="Helvetica,sans-Serif" font-size="10.00">selectionRulesMultipoleNew</text>
</a>
</g>
</g>
<!-- Node1&#45;&gt;Node11 -->
<g id="edge11" class="edge">
<title>Node1&#45;&gt;Node11</title>
<path fill="none" stroke="midnightblue" d="M464.8,-162.95C450.39,-145.32 426.1,-119.15 399,-105 391.62,-101.15 383.54,-98.07 375.31,-95.62"/>
<polygon fill="midnightblue" stroke="midnightblue" points="462.44,-165.61 471.39,-171.28 467.93,-161.26 462.44,-165.61"/>
</g>
<!-- Node13 -->
<g id="node13" class="node">
<title>Node13</title>
<g id="a_node13"><a xlink:href="classStateOne.html#a5b05a258a43a682cfe7af5eb57d0221c" target="_top" xlink:title="Implementation of one&#45;atom state ///////////////////////////////.">
<polygon fill="none" stroke="black" points="247.5,-38.5 247.5,-57.5 360.5,-57.5 360.5,-38.5 247.5,-38.5"/>
<text text-anchor="middle" x="304" y="-45.5" font-family="Helvetica,sans-Serif" font-size="10.00">StateOne::StateOne</text>
</a>
</g>
</g>
<!-- Node1&#45;&gt;Node13 -->
<g id="edge14" class="edge">
<title>Node1&#45;&gt;Node13</title>
<path fill="none" stroke="midnightblue" d="M470.77,-162.06C459.19,-136.23 434.82,-90.5 399,-67 387.72,-59.6 374.17,-54.98 360.92,-52.13"/>
<polygon fill="midnightblue" stroke="midnightblue" points="467.66,-163.69 474.82,-171.49 474.09,-160.92 467.66,-163.69"/>
</g>
<!-- Node14 -->
<g id="node14" class="node">
<title>Node14</title>
<g id="a_node14"><a xlink:href="integration__test_8cpp.html#a0af1002bd92a4dd0a9d058217f63447e" target="_top" xlink:title=" ">
<polygon fill="none" stroke="black" points="244.5,-0.5 244.5,-19.5 363.5,-19.5 363.5,-0.5 244.5,-0.5"/>
<text text-anchor="middle" x="304" y="-7.5" font-family="Helvetica,sans-Serif" font-size="10.00">TEST_CASE_FIXTURE</text>
</a>
</g>
</g>
<!-- Node1&#45;&gt;Node14 -->
<g id="edge15" class="edge">
<title>Node1&#45;&gt;Node14</title>
<path fill="none" stroke="midnightblue" d="M474.1,-161.52C465.6,-128.68 443.71,-62.58 399,-29 388.75,-21.3 376.16,-16.51 363.57,-13.59"/>
<polygon fill="midnightblue" stroke="midnightblue" points="470.71,-162.4 476.48,-171.29 477.51,-160.75 470.71,-162.4"/>
</g>
<!-- Node6 -->
<g id="node6" class="node">
<title>Node6</title>
<g id="a_node6"><a xlink:href="classStateTwo.html#a10b237929cc9326382eef2b2d9db7eca" target="_top" xlink:title=" ">
<polygon fill="none" stroke="black" points="13.5,-234.5 13.5,-253.5 159.5,-253.5 159.5,-234.5 13.5,-234.5"/>
<text text-anchor="middle" x="86.5" y="-241.5" font-family="Helvetica,sans-Serif" font-size="10.00">StateTwo::getLeRoyRadius</text>
</a>
</g>
</g>
<!-- Node5&#45;&gt;Node6 -->
<g id="edge5" class="edge">
<title>Node5&#45;&gt;Node6</title>
<path fill="none" stroke="midnightblue" d="M234.37,-244C210.51,-244 183.68,-244 159.55,-244"/>
<polygon fill="midnightblue" stroke="midnightblue" points="234.4,-247.5 244.4,-244 234.4,-240.5 234.4,-247.5"/>
</g>
<!-- Node7&#45;&gt;Node8 -->
<g id="edge7" class="edge">
<title>Node7&#45;&gt;Node8</title>
<path fill="none" stroke="midnightblue" d="M238.65,-188.65C207.73,-183.2 171.09,-176.74 141.62,-171.54"/>
<polygon fill="midnightblue" stroke="midnightblue" points="238.44,-192.17 248.9,-190.46 239.66,-185.28 238.44,-192.17"/>
</g>
<!-- Node10 -->
<g id="node10" class="node">
<title>Node10</title>
<g id="a_node10"><a xlink:href="classSystemOne.html#acdf73d42ef28f1ed704be057ffb7949c" target="_top" xlink:title="Method that allows base class to calculate the interaction /////.">
<polygon fill="none" stroke="black" points="0,-114.5 0,-133.5 173,-133.5 173,-114.5 0,-114.5"/>
<text text-anchor="middle" x="86.5" y="-121.5" font-family="Helvetica,sans-Serif" font-size="10.00">SystemOne::initializeInteraction</text>
</a>
</g>
</g>
<!-- Node9&#45;&gt;Node10 -->
<g id="edge10" class="edge">
<title>Node9&#45;&gt;Node10</title>
<path fill="none" stroke="midnightblue" d="M210.59,-124C198.21,-124 185.56,-124 173.3,-124"/>
<polygon fill="midnightblue" stroke="midnightblue" points="210.91,-127.5 220.91,-124 210.91,-120.5 210.91,-127.5"/>
</g>
<!-- Node11&#45;&gt;Node10 -->
<g id="edge12" class="edge">
<title>Node11&#45;&gt;Node10</title>
<path fill="none" stroke="midnightblue" d="M238.65,-97.35C207.73,-102.8 171.09,-109.26 141.62,-114.46"/>
<polygon fill="midnightblue" stroke="midnightblue" points="239.66,-100.72 248.9,-95.54 238.44,-93.83 239.66,-100.72"/>
</g>
<!-- Node12 -->
<g id="node12" class="node">
<title>Node12</title>
<g id="a_node12"><a xlink:href="classSystemTwo.html#acc1ccd92ae4e7d8e6c7d176a1aa1fe45" target="_top" xlink:title="Method that allows base class to calculate the interaction /////.">
<polygon fill="none" stroke="black" points="0,-76.5 0,-95.5 173,-95.5 173,-76.5 0,-76.5"/>
<text text-anchor="middle" x="86.5" y="-83.5" font-family="Helvetica,sans-Serif" font-size="10.00">SystemTwo::initializeInteraction</text>
</a>
</g>
</g>
<!-- Node11&#45;&gt;Node12 -->
<g id="edge13" class="edge">
<title>Node11&#45;&gt;Node12</title>
<path fill="none" stroke="midnightblue" d="M216.16,-86C201.93,-86 187.2,-86 173,-86"/>
<polygon fill="midnightblue" stroke="midnightblue" points="216.42,-89.5 226.42,-86 216.42,-82.5 216.42,-89.5"/>
</g>
</g>
</svg>
        <g id="navigator" transform="translate(0 0)" fill="#404254">
                <rect fill="#f2f5e9" fill-opacity="0.5" stroke="#606060" stroke-width=".5" x="0" y="0" width="60" height="60"/>
                <use id="zoomplus" xlink:href="#zoomPlus" x="17" y="9" onmousedown="handleZoom(evt,'in')"/>
                <use id="zoomminus" xlink:href="#zoomMin" x="42" y="9" onmousedown="handleZoom(evt,'out')"/>
                <use id="reset" xlink:href="#resetDef" x="30" y="36" onmousedown="handleReset()"/>
                <g id="arrowUp" xlink:href="#dirArrow" transform="translate(30 24)" onmousedown="handlePan(0,-1)">
                  <use xlink:href="#rim" fill="#404040">
                        <set attributeName="fill" to="#808080" begin="arrowUp.mouseover" end="arrowUp.mouseout"/>
                  </use>
                  <path fill="none" stroke="white" stroke-width="1.5" d="M0,-3.0v7 M-2.5,-0.5L0,-3.0L2.5,-0.5"/>
                </g>
                <g id="arrowRight" xlink:href="#dirArrow" transform="rotate(90) translate(36 -43)" onmousedown="handlePan(1,0)">
                  <use xlink:href="#rim" fill="#404040">
                        <set attributeName="fill" to="#808080" begin="arrowRight.mouseover" end="arrowRight.mouseout"/>
                  </use>
                  <path fill="none" stroke="white" stroke-width="1.5" d="M0,-3.0v7 M-2.5,-0.5L0,-3.0L2.5,-0.5"/>
                </g>
                <g id="arrowDown" xlink:href="#dirArrow" transform="rotate(180) translate(-30 -48)" onmousedown="handlePan(0,1)">
                  <use xlink:href="#rim" fill="#404040">
                        <set attributeName="fill" to="#808080" begin="arrowDown.mouseover" end="arrowDown.mouseout"/>
                  </use>
                  <path fill="none" stroke="white" stroke-width="1.5" d="M0,-3.0v7 M-2.5,-0.5L0,-3.0L2.5,-0.5"/>
                </g>
                <g id="arrowLeft" xlink:href="#dirArrow" transform="rotate(270) translate(-36 17)" onmousedown="handlePan(-1,0)">
                  <use xlink:href="#rim" fill="#404040">
                        <set attributeName="fill" to="#808080" begin="arrowLeft.mouseover" end="arrowLeft.mouseout"/>
                  </use>
                  <path fill="none" stroke="white" stroke-width="1.5" d="M0,-3.0v7 M-2.5,-0.5L0,-3.0L2.5,-0.5"/>
                </g>
        </g>
        <svg viewBox="0 0 15 15" width="100%" height="30px" preserveAspectRatio="xMaxYMin meet">
         <g id="arrow_out" transform="scale(0.3 0.3)">
          <a xlink:href="classStateOne_a3783cebe5bbd63f072caf8450fea4aca_icgraph_org.svg" target="_base">
           <rect id="button" ry="5" rx="5" y="6" x="6" height="38" width="38"
                fill="#f2f5e9" fill-opacity="0.5" stroke="#606060" stroke-width="1.0"/>
           <path id="arrow"
             d="M 11.500037,31.436501 C 11.940474,20.09759 22.043105,11.32322 32.158766,21.979434 L 37.068811,17.246167 C 37.068811,17.246167 37.088388,32 37.088388,32 L 22.160133,31.978069 C 22.160133,31.978069 26.997745,27.140456 26.997745,27.140456 C 18.528582,18.264221 13.291696,25.230495 11.500037,31.436501 z"
             style="fill:#404040;"/>
          </a>
         </g>
        </svg>
</svg>
