<?xml version="1.0" encoding="UTF-8" standalone="no"?>
<!DOCTYPE svg PUBLIC "-//W3C//DTD SVG 1.1//EN"
 "http://www.w3.org/Graphics/SVG/1.1/DTD/svg11.dtd">
<!-- Generated by graphviz version 2.43.0 (0)
 -->
<!-- Title: Hamiltonianmatrix&lt; Scalar &gt; Pages: 1 -->
<svg width="369pt" height="155pt"
 viewBox="0.00 0.00 369.00 155.00" xmlns="http://www.w3.org/2000/svg" xmlns:xlink="http://www.w3.org/1999/xlink">
<g id="graph0" class="graph" transform="scale(1 1) rotate(0) translate(4 151)">
<title>Hamiltonianmatrix&lt; Scalar &gt;</title>
<!-- Node1 -->
<g id="node1" class="node">
<title>Node1</title>
<g id="a_node1"><a xlink:title=" ">
<polygon fill="#bfbfbf" stroke="black" points="244,-61 244,-91 361,-91 361,-61 244,-61"/>
<text text-anchor="start" x="252" y="-79" font-family="Helvetica,sans-Serif" font-size="10.00">Hamiltonianmatrix&lt;</text>
<text text-anchor="middle" x="302.5" y="-68" font-family="Helvetica,sans-Serif" font-size="10.00"> Scalar &gt;</text>
</a>
</g>
</g>
<!-- Node2 -->
<g id="node2" class="node">
<title>Node2</title>
<g id="a_node2"><a xlink:href="classSerializable.html" target="_top" xlink:title=" ">
<polygon fill="none" stroke="black" points="30,-127.5 30,-146.5 104,-146.5 104,-127.5 30,-127.5"/>
<text text-anchor="middle" x="67" y="-134.5" font-family="Helvetica,sans-Serif" font-size="10.00">Serializable</text>
</a>
</g>
</g>
<!-- Node2&#45;&gt;Node1 -->
<g id="edge1" class="edge">
<title>Node2&#45;&gt;Node1</title>
<path fill="none" stroke="midnightblue" d="M114.64,-135.14C146.61,-132.82 189.65,-127.63 226,-116 244.51,-110.08 263.84,-99.74 278.31,-91.06"/>
<polygon fill="midnightblue" stroke="midnightblue" points="114,-131.68 104.25,-135.82 114.46,-138.66 114,-131.68"/>
</g>
<!-- Node3 -->
<g id="node3" class="node">
<title>Node3</title>
<g id="a_node3"><a xlink:title=" ">
<polygon fill="none" stroke="#bfbfbf" points="0,-89.5 0,-108.5 134,-108.5 134,-89.5 0,-89.5"/>
<text text-anchor="middle" x="67" y="-96.5" font-family="Helvetica,sans-Serif" font-size="10.00">SparseMatrix&lt; Scalar &gt;</text>
</a>
</g>
</g>
<!-- Node3&#45;&gt;Node1 -->
<g id="edge2" class="edge">
<title>Node3&#45;&gt;Node1</title>
<path fill="none" stroke="#9a32cd" stroke-dasharray="5,2" d="M144.59,-91.46C176.89,-88.27 213.85,-84.63 243.78,-81.69"/>
<polygon fill="#9a32cd" stroke="#9a32cd" points="143.9,-88.01 134.29,-92.47 144.58,-94.97 143.9,-88.01"/>
<text text-anchor="middle" x="189" y="-104" font-family="Helvetica,sans-Serif" font-size="10.00"> basis_</text>
<text text-anchor="middle" x="189" y="-93" font-family="Helvetica,sans-Serif" font-size="10.00">entries_</text>
</g>
<!-- Node4 -->
<g id="node4" class="node">
<title>Node4</title>
<g id="a_node4"><a xlink:title=" ">
<polygon fill="none" stroke="#bfbfbf" points="6,-39 6,-69 128,-69 128,-39 6,-39"/>
<text text-anchor="start" x="14" y="-57" font-family="Helvetica,sans-Serif" font-size="10.00">vector&lt; Eigen::Triplet</text>
<text text-anchor="middle" x="67" y="-46" font-family="Helvetica,sans-Serif" font-size="10.00">&lt; Scalar &gt; &gt;</text>
</a>
</g>
</g>
<!-- Node4&#45;&gt;Node1 -->
<g id="edge3" class="edge">
<title>Node4&#45;&gt;Node1</title>
<path fill="none" stroke="#9a32cd" stroke-dasharray="5,2" d="M138.58,-50.47C165.99,-50.14 197.57,-51.03 226,-55 235.43,-56.32 245.35,-58.48 254.79,-60.94"/>
<polygon fill="#9a32cd" stroke="#9a32cd" points="138.23,-46.98 128.29,-50.65 138.35,-53.97 138.23,-46.98"/>
<text text-anchor="middle" x="189" y="-69" font-family="Helvetica,sans-Serif" font-size="10.00"> triplets_basis</text>
<text text-anchor="middle" x="189" y="-58" font-family="Helvetica,sans-Serif" font-size="10.00">triplets_entries</text>
</g>
<!-- Node5 -->
<g id="node5" class="node">
<title>Node5</title>
<g id="a_node5"><a xlink:title=" ">
<polygon fill="none" stroke="#bfbfbf" points="16.5,-0.5 16.5,-19.5 117.5,-19.5 117.5,-0.5 16.5,-0.5"/>
<text text-anchor="middle" x="67" y="-7.5" font-family="Helvetica,sans-Serif" font-size="10.00">vector&lt; byte_t &gt;</text>
</a>
</g>
</g>
<!-- Node5&#45;&gt;Node1 -->
<g id="edge4" class="edge">
<title>Node5&#45;&gt;Node1</title>
<path fill="none" stroke="#9a32cd" stroke-dasharray="5,2" d="M128.11,-14.65C158.11,-18.19 194.59,-24.34 226,-35 244.64,-41.33 264.13,-52.03 278.64,-60.91"/>
<polygon fill="#9a32cd" stroke="#9a32cd" points="128.12,-11.13 117.79,-13.51 127.35,-18.09 128.12,-11.13"/>
<text text-anchor="middle" x="189" y="-38" font-family="Helvetica,sans-Serif" font-size="10.00"> bytes</text>
</g>
</g>
</svg>
