<?xml version="1.0" encoding="UTF-8" standalone="no"?>
<!DOCTYPE svg PUBLIC "-//W3C//DTD SVG 1.1//EN"
 "http://www.w3.org/Graphics/SVG/1.1/DTD/svg11.dtd">
<!-- Generated by graphviz version 2.43.0 (0)
 -->
<!-- Title: MatrixElementCache::getMagneticDipole Pages: 1 -->
<svg width="284pt" height="218pt"
 viewBox="0.00 0.00 284.00 218.00" xmlns="http://www.w3.org/2000/svg" xmlns:xlink="http://www.w3.org/1999/xlink">
<g id="graph0" class="graph" transform="scale(1 1) rotate(0) translate(4 214)">
<title>MatrixElementCache::getMagneticDipole</title>
<!-- Node1 -->
<g id="node1" class="node">
<title>Node1</title>
<g id="a_node1"><a xlink:title=" ">
<polygon fill="#bfbfbf" stroke="black" points="0,-90 0,-120 119,-120 119,-90 0,-90"/>
<text text-anchor="start" x="8" y="-108" font-family="Helvetica,sans-Serif" font-size="10.00">MatrixElementCache</text>
<text text-anchor="middle" x="59.5" y="-97" font-family="Helvetica,sans-Serif" font-size="10.00">::getMagneticDipole</text>
</a>
</g>
</g>
<!-- Node2 -->
<g id="node2" class="node">
<title>Node2</title>
<g id="a_node2"><a xlink:href="classStateOne.html#aedba5bfce70f73fa324b9d5ae1115578" target="_top" xlink:title=" ">
<polygon fill="none" stroke="black" points="172.5,-190.5 172.5,-209.5 258.5,-209.5 258.5,-190.5 172.5,-190.5"/>
<text text-anchor="middle" x="215.5" y="-197.5" font-family="Helvetica,sans-Serif" font-size="10.00">StateOne::getJ</text>
</a>
</g>
</g>
<!-- Node1&#45;&gt;Node2 -->
<g id="edge1" class="edge">
<title>Node1&#45;&gt;Node2</title>
<path fill="none" stroke="midnightblue" d="M75.59,-120.13C93.25,-137.08 124.03,-164.35 155,-181 159.03,-183.17 163.35,-185.14 167.75,-186.91"/>
<polygon fill="midnightblue" stroke="midnightblue" points="166.85,-190.31 177.44,-190.5 169.28,-183.75 166.85,-190.31"/>
</g>
<!-- Node3 -->
<g id="node3" class="node">
<title>Node3</title>
<g id="a_node3"><a xlink:href="classStateOne.html#a3783cebe5bbd63f072caf8450fea4aca" target="_top" xlink:title=" ">
<polygon fill="none" stroke="black" points="171,-152.5 171,-171.5 260,-171.5 260,-152.5 171,-152.5"/>
<text text-anchor="middle" x="215.5" y="-159.5" font-family="Helvetica,sans-Serif" font-size="10.00">StateOne::getL</text>
</a>
</g>
</g>
<!-- Node1&#45;&gt;Node3 -->
<g id="edge2" class="edge">
<title>Node1&#45;&gt;Node3</title>
<path fill="none" stroke="midnightblue" d="M96.16,-120.06C113.76,-127.3 135.37,-135.93 155,-143 160.96,-145.15 167.3,-147.3 173.53,-149.35"/>
<polygon fill="midnightblue" stroke="midnightblue" points="172.57,-152.72 183.17,-152.47 174.73,-146.06 172.57,-152.72"/>
</g>
<!-- Node4 -->
<g id="node4" class="node">
<title>Node4</title>
<g id="a_node4"><a xlink:href="classStateOne.html#aab2b41262381d67893113ed6f5ad18bc" target="_top" xlink:title=" ">
<polygon fill="none" stroke="black" points="169.5,-114.5 169.5,-133.5 261.5,-133.5 261.5,-114.5 169.5,-114.5"/>
<text text-anchor="middle" x="215.5" y="-121.5" font-family="Helvetica,sans-Serif" font-size="10.00">StateOne::getM</text>
</a>
</g>
</g>
<!-- Node1&#45;&gt;Node4 -->
<g id="edge3" class="edge">
<title>Node1&#45;&gt;Node4</title>
<path fill="none" stroke="midnightblue" d="M119.16,-112.24C132.31,-113.86 146.21,-115.57 159.21,-117.18"/>
<polygon fill="midnightblue" stroke="midnightblue" points="159.06,-120.69 169.42,-118.44 159.92,-113.74 159.06,-120.69"/>
</g>
<!-- Node5 -->
<g id="node5" class="node">
<title>Node5</title>
<g id="a_node5"><a xlink:href="classStateOne.html#a7deae740570ef5262e7fd2d254a8c530" target="_top" xlink:title=" ">
<polygon fill="none" stroke="black" points="170,-76.5 170,-95.5 261,-95.5 261,-76.5 170,-76.5"/>
<text text-anchor="middle" x="215.5" y="-83.5" font-family="Helvetica,sans-Serif" font-size="10.00">StateOne::getN</text>
</a>
</g>
</g>
<!-- Node1&#45;&gt;Node5 -->
<g id="edge4" class="edge">
<title>Node1&#45;&gt;Node5</title>
<path fill="none" stroke="midnightblue" d="M119.16,-97.76C132.44,-96.12 146.49,-94.39 159.61,-92.77"/>
<polygon fill="midnightblue" stroke="midnightblue" points="160.4,-96.2 169.9,-91.5 159.54,-89.25 160.4,-96.2"/>
</g>
<!-- Node6 -->
<g id="node6" class="node">
<title>Node6</title>
<g id="a_node6"><a xlink:href="classStateOne.html#a5f4c17ef50eca7f317a55b5e0a572117" target="_top" xlink:title=" ">
<polygon fill="none" stroke="black" points="171,-38.5 171,-57.5 260,-57.5 260,-38.5 171,-38.5"/>
<text text-anchor="middle" x="215.5" y="-45.5" font-family="Helvetica,sans-Serif" font-size="10.00">StateOne::getS</text>
</a>
</g>
</g>
<!-- Node1&#45;&gt;Node6 -->
<g id="edge5" class="edge">
<title>Node1&#45;&gt;Node6</title>
<path fill="none" stroke="midnightblue" d="M96.16,-89.94C113.76,-82.7 135.37,-74.07 155,-67 160.96,-64.85 167.3,-62.7 173.53,-60.65"/>
<polygon fill="midnightblue" stroke="midnightblue" points="174.73,-63.94 183.17,-57.53 172.57,-57.28 174.73,-63.94"/>
</g>
<!-- Node7 -->
<g id="node7" class="node">
<title>Node7</title>
<g id="a_node7"><a xlink:href="classStateOne.html#a45b245f5da0068df4ff72093c654da89" target="_top" xlink:title=" ">
<polygon fill="none" stroke="black" points="155,-0.5 155,-19.5 276,-19.5 276,-0.5 155,-0.5"/>
<text text-anchor="middle" x="215.5" y="-7.5" font-family="Helvetica,sans-Serif" font-size="10.00">StateOne::getSpecies</text>
</a>
</g>
</g>
<!-- Node1&#45;&gt;Node7 -->
<g id="edge6" class="edge">
<title>Node1&#45;&gt;Node7</title>
<path fill="none" stroke="midnightblue" d="M75.59,-89.87C93.25,-72.92 124.03,-45.65 155,-29 159.03,-26.83 163.35,-24.86 167.75,-23.09"/>
<polygon fill="midnightblue" stroke="midnightblue" points="169.28,-26.25 177.44,-19.5 166.85,-19.69 169.28,-26.25"/>
</g>
</g>
</svg>
