<?xml version="1.0" encoding="UTF-8" standalone="no"?>
<!DOCTYPE svg PUBLIC "-//W3C//DTD SVG 1.1//EN"
 "http://www.w3.org/Graphics/SVG/1.1/DTD/svg11.dtd">
<!-- Generated by graphviz version 2.43.0 (0)
 -->
<!-- Title: StateTwo::getReflected Pages: 1 -->
<svg width="293pt" height="218pt"
 viewBox="0.00 0.00 293.00 218.00" xmlns="http://www.w3.org/2000/svg" xmlns:xlink="http://www.w3.org/1999/xlink">
<g id="graph0" class="graph" transform="scale(1 1) rotate(0) translate(4 214)">
<title>StateTwo::getReflected</title>
<!-- Node1 -->
<g id="node1" class="node">
<title>Node1</title>
<g id="a_node1"><a xlink:title=" ">
<polygon fill="#bfbfbf" stroke="black" points="0,-95.5 0,-114.5 129,-114.5 129,-95.5 0,-95.5"/>
<text text-anchor="middle" x="64.5" y="-102.5" font-family="Helvetica,sans-Serif" font-size="10.00">StateTwo::getReflected</text>
</a>
</g>
</g>
<!-- Node2 -->
<g id="node2" class="node">
<title>Node2</title>
<g id="a_node2"><a xlink:href="classStateTwo.html#a8da7f3d40cddcdd7dbb2886427f7952d" target="_top" xlink:title=" ">
<polygon fill="none" stroke="black" points="182,-190.5 182,-209.5 268,-209.5 268,-190.5 182,-190.5"/>
<text text-anchor="middle" x="225" y="-197.5" font-family="Helvetica,sans-Serif" font-size="10.00">StateTwo::getJ</text>
</a>
</g>
</g>
<!-- Node1&#45;&gt;Node2 -->
<g id="edge1" class="edge">
<title>Node1&#45;&gt;Node2</title>
<path fill="none" stroke="midnightblue" d="M75.71,-114.74C92.88,-130.63 129.17,-162.26 165,-181 169.19,-183.19 173.68,-185.19 178.24,-187"/>
<polygon fill="midnightblue" stroke="midnightblue" points="177.05,-190.29 187.64,-190.44 179.45,-183.71 177.05,-190.29"/>
</g>
<!-- Node3 -->
<g id="node3" class="node">
<title>Node3</title>
<g id="a_node3"><a xlink:href="classStateTwo.html#aba98b05bc1257f73bcbbb9b079ad2928" target="_top" xlink:title=" ">
<polygon fill="none" stroke="black" points="181,-152.5 181,-171.5 269,-171.5 269,-152.5 181,-152.5"/>
<text text-anchor="middle" x="225" y="-159.5" font-family="Helvetica,sans-Serif" font-size="10.00">StateTwo::getL</text>
</a>
</g>
</g>
<!-- Node1&#45;&gt;Node3 -->
<g id="edge2" class="edge">
<title>Node1&#45;&gt;Node3</title>
<path fill="none" stroke="midnightblue" d="M89.49,-114.58C109.57,-122.49 139.01,-133.86 165,-143 171,-145.11 177.37,-147.26 183.62,-149.31"/>
<polygon fill="midnightblue" stroke="midnightblue" points="182.68,-152.69 193.27,-152.45 184.84,-146.03 182.68,-152.69"/>
</g>
<!-- Node4 -->
<g id="node4" class="node">
<title>Node4</title>
<g id="a_node4"><a xlink:href="classStateTwo.html#af2e91e00e5839735357e41e14646a0bd" target="_top" xlink:title=" ">
<polygon fill="none" stroke="black" points="179,-114.5 179,-133.5 271,-133.5 271,-114.5 179,-114.5"/>
<text text-anchor="middle" x="225" y="-121.5" font-family="Helvetica,sans-Serif" font-size="10.00">StateTwo::getM</text>
</a>
</g>
</g>
<!-- Node1&#45;&gt;Node4 -->
<g id="edge3" class="edge">
<title>Node1&#45;&gt;Node4</title>
<path fill="none" stroke="midnightblue" d="M129.05,-112.62C142.24,-114.2 156.03,-115.85 168.88,-117.39"/>
<polygon fill="midnightblue" stroke="midnightblue" points="168.61,-120.89 178.95,-118.6 169.44,-113.93 168.61,-120.89"/>
</g>
<!-- Node5 -->
<g id="node5" class="node">
<title>Node5</title>
<g id="a_node5"><a xlink:href="classStateTwo.html#a63046074605d8d7a3201082ba9e13673" target="_top" xlink:title=" ">
<polygon fill="none" stroke="black" points="180,-76.5 180,-95.5 270,-95.5 270,-76.5 180,-76.5"/>
<text text-anchor="middle" x="225" y="-83.5" font-family="Helvetica,sans-Serif" font-size="10.00">StateTwo::getN</text>
</a>
</g>
</g>
<!-- Node1&#45;&gt;Node5 -->
<g id="edge4" class="edge">
<title>Node1&#45;&gt;Node5</title>
<path fill="none" stroke="midnightblue" d="M129.05,-97.38C142.51,-95.77 156.59,-94.08 169.67,-92.51"/>
<polygon fill="midnightblue" stroke="midnightblue" points="170.4,-95.95 179.91,-91.29 169.57,-89 170.4,-95.95"/>
</g>
<!-- Node6 -->
<g id="node6" class="node">
<title>Node6</title>
<g id="a_node6"><a xlink:href="classStateTwo.html#a11bbc5b4c7f83c44a3536a349e78a925" target="_top" xlink:title=" ">
<polygon fill="none" stroke="black" points="165,-38.5 165,-57.5 285,-57.5 285,-38.5 165,-38.5"/>
<text text-anchor="middle" x="225" y="-45.5" font-family="Helvetica,sans-Serif" font-size="10.00">StateTwo::getSpecies</text>
</a>
</g>
</g>
<!-- Node1&#45;&gt;Node6 -->
<g id="edge5" class="edge">
<title>Node1&#45;&gt;Node6</title>
<path fill="none" stroke="midnightblue" d="M89.49,-95.42C109.57,-87.51 139.01,-76.14 165,-67 171,-64.89 177.37,-62.74 183.62,-60.69"/>
<polygon fill="midnightblue" stroke="midnightblue" points="184.84,-63.97 193.27,-57.55 182.68,-57.31 184.84,-63.97"/>
</g>
<!-- Node7 -->
<g id="node7" class="node">
<title>Node7</title>
<g id="a_node7"><a xlink:href="classStateTwo.html#a6444d1eb8cef228b718db82bbd7c6031" target="_top" xlink:title=" ">
<polygon fill="none" stroke="black" points="169.5,-0.5 169.5,-19.5 280.5,-19.5 280.5,-0.5 169.5,-0.5"/>
<text text-anchor="middle" x="225" y="-7.5" font-family="Helvetica,sans-Serif" font-size="10.00">StateTwo::StateTwo</text>
</a>
</g>
</g>
<!-- Node1&#45;&gt;Node7 -->
<g id="edge6" class="edge">
<title>Node1&#45;&gt;Node7</title>
<path fill="none" stroke="midnightblue" d="M75.71,-95.26C92.88,-79.37 129.17,-47.74 165,-29 169.19,-26.81 173.68,-24.81 178.24,-23"/>
<polygon fill="midnightblue" stroke="midnightblue" points="179.45,-26.29 187.64,-19.56 177.05,-19.71 179.45,-26.29"/>
</g>
</g>
</svg>
