<?xml version="1.0" encoding="UTF-8" standalone="no"?>
<!DOCTYPE svg PUBLIC "-//W3C//DTD SVG 1.1//EN"
 "http://www.w3.org/Graphics/SVG/1.1/DTD/svg11.dtd">
<!-- Generated by graphviz version 2.43.0 (0)
 -->
<!-- Title: MatrixElements::getMultipole Pages: 1 -->
<svg width="791pt" height="78pt"
 viewBox="0.00 0.00 791.00 77.50" xmlns="http://www.w3.org/2000/svg" xmlns:xlink="http://www.w3.org/1999/xlink">
<g id="graph0" class="graph" transform="scale(1 1) rotate(0) translate(4 73.5)">
<title>MatrixElements::getMultipole</title>
<!-- Node1 -->
<g id="node1" class="node">
<title>Node1</title>
<g id="a_node1"><a xlink:title=" ">
<polygon fill="#bfbfbf" stroke="black" points="622,-28 622,-47 783,-47 783,-28 622,-28"/>
<text text-anchor="middle" x="702.5" y="-35" font-family="Helvetica,sans-Serif" font-size="10.00">MatrixElements::getMultipole</text>
</a>
</g>
</g>
<!-- Node2 -->
<g id="node2" class="node">
<title>Node2</title>
<g id="a_node2"><a xlink:href="classHamiltonianTwo.html#aae02015e07387f58d5e7749698e62569" target="_top" xlink:title=" ">
<polygon fill="none" stroke="black" points="437,-50 437,-69 583,-69 583,-50 437,-50"/>
<text text-anchor="middle" x="510" y="-57" font-family="Helvetica,sans-Serif" font-size="10.00">HamiltonianTwo::calculate</text>
</a>
</g>
</g>
<!-- Node1&#45;&gt;Node2 -->
<g id="edge1" class="edge">
<title>Node1&#45;&gt;Node2</title>
<path fill="none" stroke="midnightblue" d="M611.82,-47.86C602.18,-48.97 592.47,-50.09 583.08,-51.18"/>
<polygon fill="midnightblue" stroke="midnightblue" points="612.28,-51.33 621.81,-46.7 611.48,-44.37 612.28,-51.33"/>
</g>
<!-- Node4 -->
<g id="node4" class="node">
<title>Node4</title>
<g id="a_node4"><a xlink:href="classMatrixElements.html#a028e0fd7873f47d9a598c2e3e1200517" target="_top" xlink:title=" ">
<polygon fill="none" stroke="black" points="434,-0.5 434,-30.5 586,-30.5 586,-0.5 434,-0.5"/>
<text text-anchor="start" x="442" y="-18.5" font-family="Helvetica,sans-Serif" font-size="10.00">MatrixElements::getElectric</text>
<text text-anchor="middle" x="510" y="-7.5" font-family="Helvetica,sans-Serif" font-size="10.00">Momentum</text>
</a>
</g>
</g>
<!-- Node1&#45;&gt;Node4 -->
<g id="edge3" class="edge">
<title>Node1&#45;&gt;Node4</title>
<path fill="none" stroke="midnightblue" d="M611.77,-27.14C603.18,-26.15 594.53,-25.15 586.1,-24.17"/>
<polygon fill="midnightblue" stroke="midnightblue" points="611.48,-30.63 621.81,-28.3 612.28,-23.67 611.48,-30.63"/>
</g>
<!-- Node3 -->
<g id="node3" class="node">
<title>Node3</title>
<g id="a_node3"><a xlink:href="classHamiltonianTwo.html#a866502c7ad1a5a2a3f36dbf63e9ef619" target="_top" xlink:title=" ">
<polygon fill="none" stroke="black" points="218,-50 218,-69 398,-69 398,-50 218,-50"/>
<text text-anchor="middle" x="308" y="-57" font-family="Helvetica,sans-Serif" font-size="10.00">HamiltonianTwo::HamiltonianTwo</text>
</a>
</g>
</g>
<!-- Node2&#45;&gt;Node3 -->
<g id="edge2" class="edge">
<title>Node2&#45;&gt;Node3</title>
<path fill="none" stroke="midnightblue" d="M426.69,-59.5C417.29,-59.5 407.67,-59.5 398.18,-59.5"/>
<polygon fill="midnightblue" stroke="midnightblue" points="426.8,-63 436.8,-59.5 426.8,-56 426.8,-63"/>
</g>
<!-- Node5 -->
<g id="node5" class="node">
<title>Node5</title>
<g id="a_node5"><a xlink:href="classHamiltonianOne.html#a6a60cf7ca4f0af0566ce523e2d0915e0" target="_top" xlink:title=" ">
<polygon fill="none" stroke="black" points="245,-6 245,-25 371,-25 371,-6 245,-6"/>
<text text-anchor="middle" x="308" y="-13" font-family="Helvetica,sans-Serif" font-size="10.00">HamiltonianOne::build</text>
</a>
</g>
</g>
<!-- Node4&#45;&gt;Node5 -->
<g id="edge4" class="edge">
<title>Node4&#45;&gt;Node5</title>
<path fill="none" stroke="midnightblue" d="M423.65,-15.5C405.99,-15.5 387.71,-15.5 371.07,-15.5"/>
<polygon fill="midnightblue" stroke="midnightblue" points="423.96,-19 433.96,-15.5 423.96,-12 423.96,-19"/>
</g>
<!-- Node6 -->
<g id="node6" class="node">
<title>Node6</title>
<g id="a_node6"><a xlink:href="classHamiltonianOne.html#a8f603206e4305d3340a1be6e7c2e51d6" target="_top" xlink:title=" ">
<polygon fill="none" stroke="black" points="0,-6 0,-25 182,-25 182,-6 0,-6"/>
<text text-anchor="middle" x="91" y="-13" font-family="Helvetica,sans-Serif" font-size="10.00">HamiltonianOne::HamiltonianOne</text>
</a>
</g>
</g>
<!-- Node5&#45;&gt;Node6 -->
<g id="edge5" class="edge">
<title>Node5&#45;&gt;Node6</title>
<path fill="none" stroke="midnightblue" d="M234.51,-15.5C217.66,-15.5 199.53,-15.5 182.04,-15.5"/>
<polygon fill="midnightblue" stroke="midnightblue" points="234.81,-19 244.81,-15.5 234.81,-12 234.81,-19"/>
</g>
</g>
</svg>
