<?xml version="1.0" encoding="UTF-8" standalone="no"?>
<!DOCTYPE svg PUBLIC "-//W3C//DTD SVG 1.1//EN"
 "http://www.w3.org/Graphics/SVG/1.1/DTD/svg11.dtd">
<!-- Generated by graphviz version 2.43.0 (0)
 -->
<!-- Title: StateOne::getJ Pages: 1 -->
<svg width="529pt" height="377pt"
 viewBox="0.00 0.00 529.00 376.50" xmlns="http://www.w3.org/2000/svg" xmlns:xlink="http://www.w3.org/1999/xlink">
<g id="graph0" class="graph" transform="scale(1 1) rotate(0) translate(4 372.5)">
<title>StateOne::getJ</title>
<!-- Node1 -->
<g id="node1" class="node">
<title>Node1</title>
<g id="a_node1"><a xlink:title=" ">
<polygon fill="#bfbfbf" stroke="black" points="435,-152.5 435,-171.5 521,-171.5 521,-152.5 435,-152.5"/>
<text text-anchor="middle" x="478" y="-159.5" font-family="Helvetica,sans-Serif" font-size="10.00">StateOne::getJ</text>
</a>
</g>
</g>
<!-- Node2 -->
<g id="node2" class="node">
<title>Node2</title>
<g id="a_node2"><a xlink:href="classSystemBase.html#a0d11ab32c8640902d7c5dbbc6b9e09d4" target="_top" xlink:title=" ">
<polygon fill="none" stroke="black" points="209,-338 209,-368 399,-368 399,-338 209,-338"/>
<text text-anchor="start" x="217" y="-356" font-family="Helvetica,sans-Serif" font-size="10.00">SystemBase::checkIsQuantumstate</text>
<text text-anchor="middle" x="304" y="-345" font-family="Helvetica,sans-Serif" font-size="10.00">Valid</text>
</a>
</g>
</g>
<!-- Node1&#45;&gt;Node2 -->
<g id="edge1" class="edge">
<title>Node1&#45;&gt;Node2</title>
<path fill="none" stroke="midnightblue" d="M473.5,-181.62C466.19,-216.7 445.91,-290.13 399,-329 394.85,-332.44 390.27,-335.39 385.43,-337.93"/>
<polygon fill="midnightblue" stroke="midnightblue" points="476.96,-182.16 475.44,-171.67 470.09,-180.82 476.96,-182.16"/>
</g>
<!-- Node3 -->
<g id="node3" class="node">
<title>Node3</title>
<g id="a_node3"><a xlink:href="classMatrixElementCache.html#afc9f56a599c9ea24bbfbd4aeb41efbd4" target="_top" xlink:title=" ">
<polygon fill="none" stroke="black" points="244,-289 244,-319 364,-319 364,-289 244,-289"/>
<text text-anchor="start" x="252" y="-307" font-family="Helvetica,sans-Serif" font-size="10.00">MatrixElementCache</text>
<text text-anchor="middle" x="304" y="-296" font-family="Helvetica,sans-Serif" font-size="10.00">::getElectricMultipole</text>
</a>
</g>
</g>
<!-- Node1&#45;&gt;Node3 -->
<g id="edge2" class="edge">
<title>Node1&#45;&gt;Node3</title>
<path fill="none" stroke="midnightblue" d="M469.67,-180.99C458.5,-207.34 434.68,-254.61 399,-280 388.71,-287.32 376.38,-292.41 364.09,-295.95"/>
<polygon fill="midnightblue" stroke="midnightblue" points="472.92,-182.28 473.45,-171.7 466.44,-179.64 472.92,-182.28"/>
</g>
<!-- Node4 -->
<g id="node4" class="node">
<title>Node4</title>
<g id="a_node4"><a xlink:href="classMatrixElementCache.html#aeef0496ad6db911dac50c0625660d9c0" target="_top" xlink:title=" ">
<polygon fill="none" stroke="black" points="244.5,-240 244.5,-270 363.5,-270 363.5,-240 244.5,-240"/>
<text text-anchor="start" x="252.5" y="-258" font-family="Helvetica,sans-Serif" font-size="10.00">MatrixElementCache</text>
<text text-anchor="middle" x="304" y="-247" font-family="Helvetica,sans-Serif" font-size="10.00">::getMagneticDipole</text>
</a>
</g>
</g>
<!-- Node1&#45;&gt;Node4 -->
<g id="edge3" class="edge">
<title>Node1&#45;&gt;Node4</title>
<path fill="none" stroke="midnightblue" d="M462.19,-179.11C447.64,-194.86 424.03,-217.74 399,-231 388.13,-236.76 375.82,-241.18 363.77,-244.56"/>
<polygon fill="midnightblue" stroke="midnightblue" points="464.85,-181.39 468.94,-171.61 459.65,-176.71 464.85,-181.39"/>
</g>
<!-- Node5 -->
<g id="node5" class="node">
<title>Node5</title>
<g id="a_node5"><a xlink:href="classMatrixElementCache.html#ad624534d20e42d8c4f495b51d6084057" target="_top" xlink:title=" ">
<polygon fill="none" stroke="black" points="244.5,-191 244.5,-221 363.5,-221 363.5,-191 244.5,-191"/>
<text text-anchor="start" x="252.5" y="-209" font-family="Helvetica,sans-Serif" font-size="10.00">MatrixElementCache</text>
<text text-anchor="middle" x="304" y="-198" font-family="Helvetica,sans-Serif" font-size="10.00">::getRadial</text>
</a>
</g>
</g>
<!-- Node1&#45;&gt;Node5 -->
<g id="edge4" class="edge">
<title>Node1&#45;&gt;Node5</title>
<path fill="none" stroke="midnightblue" d="M429.94,-174.04C409.45,-179.28 385.2,-185.48 363.56,-191.02"/>
<polygon fill="midnightblue" stroke="midnightblue" points="430.86,-177.42 439.68,-171.55 429.12,-170.63 430.86,-177.42"/>
</g>
<!-- Node7 -->
<g id="node7" class="node">
<title>Node7</title>
<g id="a_node7"><a xlink:href="classStateOne.html#a0b5646c4160083ef4b24460e9159ad2c" target="_top" xlink:title=" ">
<polygon fill="none" stroke="black" points="239,-152.5 239,-171.5 369,-171.5 369,-152.5 239,-152.5"/>
<text text-anchor="middle" x="304" y="-159.5" font-family="Helvetica,sans-Serif" font-size="10.00">StateOne::getReflected</text>
</a>
</g>
</g>
<!-- Node1&#45;&gt;Node7 -->
<g id="edge6" class="edge">
<title>Node1&#45;&gt;Node7</title>
<path fill="none" stroke="midnightblue" d="M424.87,-162C407.3,-162 387.49,-162 369.11,-162"/>
<polygon fill="midnightblue" stroke="midnightblue" points="424.92,-165.5 434.92,-162 424.92,-158.5 424.92,-165.5"/>
</g>
<!-- Node8 -->
<g id="node8" class="node">
<title>Node8</title>
<g id="a_node8"><a xlink:href="classSystemTwo.html#a2ac476404813bf4c8990a893404a96b9" target="_top" xlink:title="Method that allows base class to initialize Basis //////////////.">
<polygon fill="none" stroke="black" points="13.5,-133.5 13.5,-152.5 159.5,-152.5 159.5,-133.5 13.5,-133.5"/>
<text text-anchor="middle" x="86.5" y="-140.5" font-family="Helvetica,sans-Serif" font-size="10.00">SystemTwo::initializeBasis</text>
</a>
</g>
</g>
<!-- Node1&#45;&gt;Node8 -->
<g id="edge8" class="edge">
<title>Node1&#45;&gt;Node8</title>
<path fill="none" stroke="midnightblue" d="M435.49,-149.94C423.79,-147.08 410.99,-144.44 399,-143 317.38,-133.2 222.87,-135.04 159.55,-138.15"/>
<polygon fill="midnightblue" stroke="midnightblue" points="434.88,-153.4 445.44,-152.49 436.62,-146.62 434.88,-153.4"/>
</g>
<!-- Node9 -->
<g id="node9" class="node">
<title>Node9</title>
<g id="a_node9"><a xlink:href="MatrixElementCache_8cpp.html#a15aabd3025cfa0ca9485cd672c0a1a4a" target="_top" xlink:title=" ">
<polygon fill="none" stroke="black" points="221,-76.5 221,-95.5 387,-95.5 387,-76.5 221,-76.5"/>
<text text-anchor="middle" x="304" y="-83.5" font-family="Helvetica,sans-Serif" font-size="10.00">selectionRulesMomentumNew</text>
</a>
</g>
</g>
<!-- Node1&#45;&gt;Node9 -->
<g id="edge9" class="edge">
<title>Node1&#45;&gt;Node9</title>
<path fill="none" stroke="midnightblue" d="M457.23,-146.07C442.09,-134.57 420.25,-119.46 399,-110 385.31,-103.9 369.77,-99.14 355.33,-95.53"/>
<polygon fill="midnightblue" stroke="midnightblue" points="455.28,-148.98 465.32,-152.35 459.57,-143.45 455.28,-148.98"/>
</g>
<!-- Node11 -->
<g id="node11" class="node">
<title>Node11</title>
<g id="a_node11"><a xlink:href="MatrixElementCache_8cpp.html#a06a268e07e2a0edb3fca096b8c941c78" target="_top" xlink:title=" ">
<polygon fill="none" stroke="black" points="226.5,-38.5 226.5,-57.5 381.5,-57.5 381.5,-38.5 226.5,-38.5"/>
<text text-anchor="middle" x="304" y="-45.5" font-family="Helvetica,sans-Serif" font-size="10.00">selectionRulesMultipoleNew</text>
</a>
</g>
</g>
<!-- Node1&#45;&gt;Node11 -->
<g id="edge11" class="edge">
<title>Node1&#45;&gt;Node11</title>
<path fill="none" stroke="midnightblue" d="M467.03,-143.36C454.28,-121.44 430.08,-85.69 399,-67 392.58,-63.14 385.51,-60.05 378.22,-57.58"/>
<polygon fill="midnightblue" stroke="midnightblue" points="464.12,-145.33 472.06,-152.34 470.23,-141.91 464.12,-145.33"/>
</g>
<!-- Node13 -->
<g id="node13" class="node">
<title>Node13</title>
<g id="a_node13"><a xlink:href="classStateOne.html#a5b05a258a43a682cfe7af5eb57d0221c" target="_top" xlink:title="Implementation of one&#45;atom state ///////////////////////////////.">
<polygon fill="none" stroke="black" points="247.5,-0.5 247.5,-19.5 360.5,-19.5 360.5,-0.5 247.5,-0.5"/>
<text text-anchor="middle" x="304" y="-7.5" font-family="Helvetica,sans-Serif" font-size="10.00">StateOne::StateOne</text>
</a>
</g>
</g>
<!-- Node1&#45;&gt;Node13 -->
<g id="edge14" class="edge">
<title>Node1&#45;&gt;Node13</title>
<path fill="none" stroke="midnightblue" d="M471.26,-142.5C461.51,-112.99 438.8,-57.41 399,-29 387.89,-21.07 374.25,-16.27 360.84,-13.41"/>
<polygon fill="midnightblue" stroke="midnightblue" points="468.04,-143.93 474.37,-152.43 474.72,-141.84 468.04,-143.93"/>
</g>
<!-- Node6 -->
<g id="node6" class="node">
<title>Node6</title>
<g id="a_node6"><a xlink:href="classStateTwo.html#a10b237929cc9326382eef2b2d9db7eca" target="_top" xlink:title=" ">
<polygon fill="none" stroke="black" points="13.5,-196.5 13.5,-215.5 159.5,-215.5 159.5,-196.5 13.5,-196.5"/>
<text text-anchor="middle" x="86.5" y="-203.5" font-family="Helvetica,sans-Serif" font-size="10.00">StateTwo::getLeRoyRadius</text>
</a>
</g>
</g>
<!-- Node5&#45;&gt;Node6 -->
<g id="edge5" class="edge">
<title>Node5&#45;&gt;Node6</title>
<path fill="none" stroke="midnightblue" d="M234.37,-206C210.51,-206 183.68,-206 159.55,-206"/>
<polygon fill="midnightblue" stroke="midnightblue" points="234.4,-209.5 244.4,-206 234.4,-202.5 234.4,-209.5"/>
</g>
<!-- Node7&#45;&gt;Node8 -->
<g id="edge7" class="edge">
<title>Node7&#45;&gt;Node8</title>
<path fill="none" stroke="midnightblue" d="M228.81,-155.46C206.42,-153.48 181.89,-151.32 159.63,-149.36"/>
<polygon fill="midnightblue" stroke="midnightblue" points="228.66,-158.96 238.93,-156.35 229.27,-151.99 228.66,-158.96"/>
</g>
<!-- Node10 -->
<g id="node10" class="node">
<title>Node10</title>
<g id="a_node10"><a xlink:href="classSystemOne.html#acdf73d42ef28f1ed704be057ffb7949c" target="_top" xlink:title="Method that allows base class to calculate the interaction /////.">
<polygon fill="none" stroke="black" points="0,-76.5 0,-95.5 173,-95.5 173,-76.5 0,-76.5"/>
<text text-anchor="middle" x="86.5" y="-83.5" font-family="Helvetica,sans-Serif" font-size="10.00">SystemOne::initializeInteraction</text>
</a>
</g>
</g>
<!-- Node9&#45;&gt;Node10 -->
<g id="edge10" class="edge">
<title>Node9&#45;&gt;Node10</title>
<path fill="none" stroke="midnightblue" d="M210.59,-86C198.21,-86 185.56,-86 173.3,-86"/>
<polygon fill="midnightblue" stroke="midnightblue" points="210.91,-89.5 220.91,-86 210.91,-82.5 210.91,-89.5"/>
</g>
<!-- Node11&#45;&gt;Node10 -->
<g id="edge12" class="edge">
<title>Node11&#45;&gt;Node10</title>
<path fill="none" stroke="midnightblue" d="M238.65,-59.35C207.73,-64.8 171.09,-71.26 141.62,-76.46"/>
<polygon fill="midnightblue" stroke="midnightblue" points="239.66,-62.72 248.9,-57.54 238.44,-55.83 239.66,-62.72"/>
</g>
<!-- Node12 -->
<g id="node12" class="node">
<title>Node12</title>
<g id="a_node12"><a xlink:href="classSystemTwo.html#acc1ccd92ae4e7d8e6c7d176a1aa1fe45" target="_top" xlink:title="Method that allows base class to calculate the interaction /////.">
<polygon fill="none" stroke="black" points="0,-38.5 0,-57.5 173,-57.5 173,-38.5 0,-38.5"/>
<text text-anchor="middle" x="86.5" y="-45.5" font-family="Helvetica,sans-Serif" font-size="10.00">SystemTwo::initializeInteraction</text>
</a>
</g>
</g>
<!-- Node11&#45;&gt;Node12 -->
<g id="edge13" class="edge">
<title>Node11&#45;&gt;Node12</title>
<path fill="none" stroke="midnightblue" d="M216.16,-48C201.93,-48 187.2,-48 173,-48"/>
<polygon fill="midnightblue" stroke="midnightblue" points="216.42,-51.5 226.42,-48 216.42,-44.5 216.42,-51.5"/>
</g>
</g>
</svg>
