<?xml version="1.0" encoding="UTF-8" standalone="no"?>
<!DOCTYPE svg PUBLIC "-//W3C//DTD SVG 1.1//EN"
 "http://www.w3.org/Graphics/SVG/1.1/DTD/svg11.dtd">
<!-- Generated by graphviz version 2.43.0 (0)
 -->
<!-- Title: StateTwoOld::getEnergy Pages: 1 -->
<svg width="427pt" height="104pt"
 viewBox="0.00 0.00 427.00 104.00" xmlns="http://www.w3.org/2000/svg" xmlns:xlink="http://www.w3.org/1999/xlink">
<g id="graph0" class="graph" transform="scale(1 1) rotate(0) translate(4 100)">
<title>StateTwoOld::getEnergy</title>
<!-- Node1 -->
<g id="node1" class="node">
<title>Node1</title>
<g id="a_node1"><a xlink:title=" ">
<polygon fill="#bfbfbf" stroke="black" points="0,-38.5 0,-57.5 133,-57.5 133,-38.5 0,-38.5"/>
<text text-anchor="middle" x="66.5" y="-45.5" font-family="Helvetica,sans-Serif" font-size="10.00">StateTwoOld::getEnergy</text>
</a>
</g>
</g>
<!-- Node2 -->
<g id="node2" class="node">
<title>Node2</title>
<g id="a_node2"><a xlink:href="classStateTwoOld.html#aad5fb4307dec316a5b602c2e8bfae0a8" target="_top" xlink:title=" ">
<polygon fill="none" stroke="black" points="184.5,-76.5 184.5,-95.5 287.5,-95.5 287.5,-76.5 184.5,-76.5"/>
<text text-anchor="middle" x="236" y="-83.5" font-family="Helvetica,sans-Serif" font-size="10.00">StateTwoOld::first</text>
</a>
</g>
</g>
<!-- Node1&#45;&gt;Node2 -->
<g id="edge1" class="edge">
<title>Node1&#45;&gt;Node2</title>
<path fill="none" stroke="midnightblue" d="M109.77,-57.59C132.07,-62.65 159.62,-68.9 183.2,-74.25"/>
<polygon fill="midnightblue" stroke="midnightblue" points="182.51,-77.68 193.04,-76.48 184.06,-70.85 182.51,-77.68"/>
</g>
<!-- Node3 -->
<g id="node3" class="node">
<title>Node3</title>
<g id="a_node3"><a xlink:href="classStateOneOld.html#a87391af707be61e934c06b4561ba5059" target="_top" xlink:title=" ">
<polygon fill="none" stroke="black" points="169,-38.5 169,-57.5 303,-57.5 303,-38.5 169,-38.5"/>
<text text-anchor="middle" x="236" y="-45.5" font-family="Helvetica,sans-Serif" font-size="10.00">StateOneOld::getEnergy</text>
</a>
</g>
</g>
<!-- Node1&#45;&gt;Node3 -->
<g id="edge2" class="edge">
<title>Node1&#45;&gt;Node3</title>
<path fill="none" stroke="midnightblue" d="M133.22,-48C141.65,-48 150.34,-48 158.92,-48"/>
<polygon fill="midnightblue" stroke="midnightblue" points="158.92,-51.5 168.92,-48 158.92,-44.5 158.92,-51.5"/>
</g>
<!-- Node5 -->
<g id="node5" class="node">
<title>Node5</title>
<g id="a_node5"><a xlink:href="classStateTwoOld.html#a6efa9c8f92e433004b778f6f5ce212d9" target="_top" xlink:title=" ">
<polygon fill="none" stroke="black" points="177,-0.5 177,-19.5 295,-19.5 295,-0.5 177,-0.5"/>
<text text-anchor="middle" x="236" y="-7.5" font-family="Helvetica,sans-Serif" font-size="10.00">StateTwoOld::second</text>
</a>
</g>
</g>
<!-- Node1&#45;&gt;Node5 -->
<g id="edge4" class="edge">
<title>Node1&#45;&gt;Node5</title>
<path fill="none" stroke="midnightblue" d="M109.77,-38.41C132.07,-33.35 159.62,-27.1 183.2,-21.75"/>
<polygon fill="midnightblue" stroke="midnightblue" points="184.06,-25.15 193.04,-19.52 182.51,-18.32 184.06,-25.15"/>
</g>
<!-- Node4 -->
<g id="node4" class="node">
<title>Node4</title>
<g id="a_node4"><a xlink:href="QuantumDefect_8cpp.html#ac472df8bb08bd6ff27c7ef7633ae62c5" target="_top" xlink:title="Returns only the energy of a state.">
<polygon fill="none" stroke="black" points="339,-38.5 339,-57.5 419,-57.5 419,-38.5 339,-38.5"/>
<text text-anchor="middle" x="379" y="-45.5" font-family="Helvetica,sans-Serif" font-size="10.00">energy_level</text>
</a>
</g>
</g>
<!-- Node3&#45;&gt;Node4 -->
<g id="edge3" class="edge">
<title>Node3&#45;&gt;Node4</title>
<path fill="none" stroke="midnightblue" d="M303.37,-48C311.91,-48 320.53,-48 328.72,-48"/>
<polygon fill="midnightblue" stroke="midnightblue" points="328.84,-51.5 338.84,-48 328.84,-44.5 328.84,-51.5"/>
</g>
</g>
</svg>
