<?xml version="1.0" encoding="UTF-8" standalone="no"?>
<!DOCTYPE svg PUBLIC "-//W3C//DTD SVG 1.1//EN"
 "http://www.w3.org/Graphics/SVG/1.1/DTD/svg11.dtd">
<!-- Generated by graphviz version 2.43.0 (0)
 -->
<!-- Title: Hamiltonian&lt; Scalar, Basisnames &gt; Pages: 1 -->
<svg width="378pt" height="176pt"
 viewBox="0.00 0.00 378.00 175.50" xmlns="http://www.w3.org/2000/svg" xmlns:xlink="http://www.w3.org/1999/xlink">
<g id="graph0" class="graph" transform="scale(1 1) rotate(0) translate(4 171.5)">
<title>Hamiltonian&lt; Scalar, Basisnames &gt;</title>
<!-- Node1 -->
<g id="node1" class="node">
<title>Node1</title>
<g id="a_node1"><a xlink:title=" ">
<polygon fill="#bfbfbf" stroke="black" points="249,-74 249,-104 370,-104 370,-74 249,-74"/>
<text text-anchor="start" x="257" y="-92" font-family="Helvetica,sans-Serif" font-size="10.00">Hamiltonian&lt; Scalar,</text>
<text text-anchor="middle" x="309.5" y="-81" font-family="Helvetica,sans-Serif" font-size="10.00"> Basisnames &gt;</text>
</a>
</g>
</g>
<!-- Node2 -->
<g id="node2" class="node">
<title>Node2</title>
<g id="a_node2"><a xlink:title=" ">
<polygon fill="none" stroke="#bfbfbf" points="7.5,-137 7.5,-167 142.5,-167 142.5,-137 7.5,-137"/>
<text text-anchor="start" x="15.5" y="-155" font-family="Helvetica,sans-Serif" font-size="10.00">vector&lt; std::shared</text>
<text text-anchor="middle" x="75" y="-144" font-family="Helvetica,sans-Serif" font-size="10.00">_ptr&lt; Configuration &gt; &gt;</text>
</a>
</g>
</g>
<!-- Node2&#45;&gt;Node1 -->
<g id="edge1" class="edge">
<title>Node2&#45;&gt;Node1</title>
<path fill="none" stroke="#9a32cd" stroke-dasharray="5,2" d="M152.55,-135.16C177.67,-129.25 205.64,-122.26 231,-115 242.32,-111.76 254.45,-107.88 265.67,-104.13"/>
<polygon fill="#9a32cd" stroke="#9a32cd" points="151.66,-131.77 142.72,-137.45 153.25,-138.59 151.66,-131.77"/>
<text text-anchor="middle" x="199.5" y="-133" font-family="Helvetica,sans-Serif" font-size="10.00"> params</text>
</g>
<!-- Node3 -->
<g id="node3" class="node">
<title>Node3</title>
<g id="a_node3"><a xlink:title=" ">
<polygon fill="none" stroke="#bfbfbf" points="15.5,-98.5 15.5,-117.5 134.5,-117.5 134.5,-98.5 15.5,-98.5"/>
<text text-anchor="middle" x="75" y="-105.5" font-family="Helvetica,sans-Serif" font-size="10.00">vector&lt; std::string &gt;</text>
</a>
</g>
</g>
<!-- Node3&#45;&gt;Node1 -->
<g id="edge2" class="edge">
<title>Node3&#45;&gt;Node1</title>
<path fill="none" stroke="#9a32cd" stroke-dasharray="5,2" d="M144.7,-102.39C177.7,-99.69 216.87,-96.49 248.63,-93.89"/>
<polygon fill="#9a32cd" stroke="#9a32cd" points="144.35,-98.9 134.67,-103.21 144.92,-105.88 144.35,-98.9"/>
<text text-anchor="middle" x="199.5" y="-103" font-family="Helvetica,sans-Serif" font-size="10.00"> matrix_path</text>
</g>
<!-- Node4 -->
<g id="node4" class="node">
<title>Node4</title>
<g id="a_node4"><a xlink:title=" ">
<polygon fill="none" stroke="#bfbfbf" points="0,-60.5 0,-79.5 150,-79.5 150,-60.5 0,-60.5"/>
<text text-anchor="middle" x="75" y="-67.5" font-family="Helvetica,sans-Serif" font-size="10.00">shared_ptr&lt; Basisnames &gt;</text>
</a>
</g>
</g>
<!-- Node4&#45;&gt;Node1 -->
<g id="edge3" class="edge">
<title>Node4&#45;&gt;Node1</title>
<path fill="none" stroke="#9a32cd" stroke-dasharray="5,2" d="M160.23,-74.65C183.2,-76.13 208.07,-77.93 231,-80 236.8,-80.52 242.84,-81.13 248.87,-81.76"/>
<polygon fill="#9a32cd" stroke="#9a32cd" points="160.37,-71.15 150.17,-74.01 159.93,-78.14 160.37,-71.15"/>
<text text-anchor="middle" x="199.5" y="-83" font-family="Helvetica,sans-Serif" font-size="10.00"> basis</text>
</g>
<!-- Node5 -->
<g id="node5" class="node">
<title>Node5</title>
<g id="a_node5"><a xlink:title=" ">
<polygon fill="none" stroke="#bfbfbf" points="5.5,-0.5 5.5,-41.5 144.5,-41.5 144.5,-0.5 5.5,-0.5"/>
<text text-anchor="start" x="13.5" y="-29.5" font-family="Helvetica,sans-Serif" font-size="10.00">vector&lt; std::shared</text>
<text text-anchor="start" x="13.5" y="-18.5" font-family="Helvetica,sans-Serif" font-size="10.00">_ptr&lt; Hamiltonianmatrix</text>
<text text-anchor="middle" x="75" y="-7.5" font-family="Helvetica,sans-Serif" font-size="10.00">&lt; Scalar &gt; &gt; &gt;</text>
</a>
</g>
</g>
<!-- Node5&#45;&gt;Node1 -->
<g id="edge4" class="edge">
<title>Node5&#45;&gt;Node1</title>
<path fill="none" stroke="#9a32cd" stroke-dasharray="5,2" d="M154.75,-39.01C179.33,-45.11 206.44,-52.34 231,-60 244.17,-64.11 258.36,-69.21 270.95,-73.99"/>
<polygon fill="#9a32cd" stroke="#9a32cd" points="155.29,-35.54 144.75,-36.55 153.62,-42.34 155.29,-35.54"/>
<text text-anchor="middle" x="199.5" y="-63" font-family="Helvetica,sans-Serif" font-size="10.00"> matrix_diag</text>
</g>
</g>
</svg>
