<?xml version="1.0" encoding="UTF-8" standalone="no"?>
<!DOCTYPE svg PUBLIC "-//W3C//DTD SVG 1.1//EN"
 "http://www.w3.org/Graphics/SVG/1.1/DTD/svg11.dtd">
<!-- Generated by graphviz version 2.43.0 (0)
 -->
<!-- Title: StateOne::getM Pages: 1 -->
<!--zoomable 366 -->
<svg id="main" version="1.1" xmlns="http://www.w3.org/2000/svg" xmlns:xlink="http://www.w3.org/1999/xlink" xml:space="preserve" onload="init(evt)">
<style type="text/css"><![CDATA[
.edge:hover path { stroke: red; }
.edge:hover polygon { stroke: red; fill: red; }
]]></style>
<script type="text/javascript"><![CDATA[
var edges = document.getElementsByTagName('g');
if (edges && edges.length) {
  for (var i=0;i<edges.length;i++) {
    if (edges[i].id.substr(0,4)=='edge') {
      edges[i].setAttribute('class','edge');
    }
  }
}
]]></script>
        <defs>
                <circle id="rim" cx="0" cy="0" r="7"/>
                <circle id="rim2" cx="0" cy="0" r="3.5"/>
                <g id="zoomPlus">
                        <use xlink:href="#rim" fill="#404040">
                                <set attributeName="fill" to="#808080" begin="zoomplus.mouseover" end="zoomplus.mouseout"/>
                        </use>
                        <path d="M-4,0h8M0,-4v8" fill="none" stroke="white" stroke-width="1.5" pointer-events="none"/>
                </g>
                <g id="zoomMin">
                        <use xlink:href="#rim" fill="#404040">
                                <set attributeName="fill" to="#808080" begin="zoomminus.mouseover" end="zoomminus.mouseout"/>
                        </use>
                        <path d="M-4,0h8" fill="none" stroke="white" stroke-width="1.5" pointer-events="none"/>
                </g>
                <g id="dirArrow">
                        <path fill="none" stroke="white" stroke-width="1.5" d="M0,-3.0v7 M-2.5,-0.5L0,-3.0L2.5,-0.5"/>
                </g>
               <g id="resetDef">
                       <use xlink:href="#rim2" fill="#404040">
                               <set attributeName="fill" to="#808080" begin="reset.mouseover" end="reset.mouseout"/>
                       </use>
               </g>
        </defs>

<script type="text/javascript">
var viewWidth = 535;
var viewHeight = 366;
var sectionId = 'dynsection-10';
</script>
<script xlink:href="svgpan.js"/>
<svg id="graph" class="graph">
<g id="viewport">
<title>StateOne::getM</title>
<!-- Node1 -->
<g id="node1" class="node">
<title>Node1</title>
<g id="a_node1"><a xlink:title=" ">
<polygon fill="#bfbfbf" stroke="black" points="435,-152.5 435,-171.5 527,-171.5 527,-152.5 435,-152.5"/>
<text text-anchor="middle" x="481" y="-159.5" font-family="Helvetica,sans-Serif" font-size="10.00">StateOne::getM</text>
</a>
</g>
</g>
<!-- Node2 -->
<g id="node2" class="node">
<title>Node2</title>
<g id="a_node2"><a xlink:href="classSystemBase.html#a0d11ab32c8640902d7c5dbbc6b9e09d4" target="_top" xlink:title=" ">
<polygon fill="none" stroke="black" points="209,-327 209,-357 399,-357 399,-327 209,-327"/>
<text text-anchor="start" x="217" y="-345" font-family="Helvetica,sans-Serif" font-size="10.00">SystemBase::checkIsQuantumstate</text>
<text text-anchor="middle" x="304" y="-334" font-family="Helvetica,sans-Serif" font-size="10.00">Valid</text>
</a>
</g>
</g>
<!-- Node1&#45;&gt;Node2 -->
<g id="edge1" class="edge">
<title>Node1&#45;&gt;Node2</title>
<path fill="none" stroke="midnightblue" d="M475.37,-181.74C466.5,-215.08 443.88,-282.37 399,-318 394.65,-321.46 389.85,-324.42 384.81,-326.96"/>
<polygon fill="midnightblue" stroke="midnightblue" points="478.82,-182.39 477.86,-171.83 472.03,-180.68 478.82,-182.39"/>
</g>
<!-- Node3 -->
<g id="node3" class="node">
<title>Node3</title>
<g id="a_node3"><a xlink:href="classMatrixElementCache.html#afc9f56a599c9ea24bbfbd4aeb41efbd4" target="_top" xlink:title=" ">
<polygon fill="none" stroke="black" points="244,-278 244,-308 364,-308 364,-278 244,-278"/>
<text text-anchor="start" x="252" y="-296" font-family="Helvetica,sans-Serif" font-size="10.00">MatrixElementCache</text>
<text text-anchor="middle" x="304" y="-285" font-family="Helvetica,sans-Serif" font-size="10.00">::getElectricMultipole</text>
</a>
</g>
</g>
<!-- Node1&#45;&gt;Node3 -->
<g id="edge2" class="edge">
<title>Node1&#45;&gt;Node3</title>
<path fill="none" stroke="midnightblue" d="M470.81,-180.94C458.09,-205.14 432.79,-246.55 399,-269 388.62,-275.9 376.38,-280.81 364.24,-284.31"/>
<polygon fill="midnightblue" stroke="midnightblue" points="474.08,-182.24 475.48,-171.74 467.84,-179.07 474.08,-182.24"/>
</g>
<!-- Node4 -->
<g id="node4" class="node">
<title>Node4</title>
<g id="a_node4"><a xlink:href="classMatrixElementCache.html#aeef0496ad6db911dac50c0625660d9c0" target="_top" xlink:title=" ">
<polygon fill="none" stroke="black" points="244.5,-229 244.5,-259 363.5,-259 363.5,-229 244.5,-229"/>
<text text-anchor="start" x="252.5" y="-247" font-family="Helvetica,sans-Serif" font-size="10.00">MatrixElementCache</text>
<text text-anchor="middle" x="304" y="-236" font-family="Helvetica,sans-Serif" font-size="10.00">::getMagneticDipole</text>
</a>
</g>
</g>
<!-- Node1&#45;&gt;Node4 -->
<g id="edge3" class="edge">
<title>Node1&#45;&gt;Node4</title>
<path fill="none" stroke="midnightblue" d="M461.12,-178.22C445.42,-190.95 422.01,-208.26 399,-219 387.98,-224.14 375.73,-228.37 363.8,-231.79"/>
<polygon fill="midnightblue" stroke="midnightblue" points="463.53,-180.76 468.99,-171.69 459.06,-175.38 463.53,-180.76"/>
</g>
<!-- Node5 -->
<g id="node5" class="node">
<title>Node5</title>
<g id="a_node5"><a xlink:href="classStateOne.html#a0b5646c4160083ef4b24460e9159ad2c" target="_top" xlink:title=" ">
<polygon fill="none" stroke="black" points="239,-190.5 239,-209.5 369,-209.5 369,-190.5 239,-190.5"/>
<text text-anchor="middle" x="304" y="-197.5" font-family="Helvetica,sans-Serif" font-size="10.00">StateOne::getReflected</text>
</a>
</g>
</g>
<!-- Node1&#45;&gt;Node5 -->
<g id="edge4" class="edge">
<title>Node1&#45;&gt;Node5</title>
<path fill="none" stroke="midnightblue" d="M425.88,-173.75C401.13,-179.13 372.2,-185.41 348.84,-190.48"/>
<polygon fill="midnightblue" stroke="midnightblue" points="426.81,-177.13 435.84,-171.59 425.33,-170.29 426.81,-177.13"/>
</g>
<!-- Node6 -->
<g id="node6" class="node">
<title>Node6</title>
<g id="a_node6"><a xlink:href="classSystemTwo.html#a2ac476404813bf4c8990a893404a96b9" target="_top" xlink:title="Method that allows base class to initialize Basis //////////////.">
<polygon fill="none" stroke="black" points="13.5,-171.5 13.5,-190.5 159.5,-190.5 159.5,-171.5 13.5,-171.5"/>
<text text-anchor="middle" x="86.5" y="-178.5" font-family="Helvetica,sans-Serif" font-size="10.00">SystemTwo::initializeBasis</text>
</a>
</g>
</g>
<!-- Node1&#45;&gt;Node6 -->
<g id="edge7" class="edge">
<title>Node1&#45;&gt;Node6</title>
<path fill="none" stroke="midnightblue" d="M424.69,-164.68C355.27,-168.04 236.04,-173.81 159.54,-177.51"/>
<polygon fill="midnightblue" stroke="midnightblue" points="425.16,-168.16 434.98,-164.18 424.82,-161.17 425.16,-168.16"/>
</g>
<!-- Node7 -->
<g id="node7" class="node">
<title>Node7</title>
<g id="a_node7"><a xlink:href="classSystemOne.html#aaf50fe3da310c08d60248b5e931d15e8" target="_top" xlink:title="Method that allows base class to initialize Basis //////////////.">
<polygon fill="none" stroke="black" points="230.5,-114.5 230.5,-133.5 377.5,-133.5 377.5,-114.5 230.5,-114.5"/>
<text text-anchor="middle" x="304" y="-121.5" font-family="Helvetica,sans-Serif" font-size="10.00">SystemOne::initializeBasis</text>
</a>
</g>
</g>
<!-- Node1&#45;&gt;Node7 -->
<g id="edge6" class="edge">
<title>Node1&#45;&gt;Node7</title>
<path fill="none" stroke="midnightblue" d="M425.88,-150.25C401.13,-144.87 372.2,-138.59 348.84,-133.52"/>
<polygon fill="midnightblue" stroke="midnightblue" points="425.33,-153.71 435.84,-152.41 426.81,-146.87 425.33,-153.71"/>
</g>
<!-- Node8 -->
<g id="node8" class="node">
<title>Node8</title>
<g id="a_node8"><a xlink:href="MatrixElementCache_8cpp.html#a15aabd3025cfa0ca9485cd672c0a1a4a" target="_top" xlink:title=" ">
<polygon fill="none" stroke="black" points="221,-76.5 221,-95.5 387,-95.5 387,-76.5 221,-76.5"/>
<text text-anchor="middle" x="304" y="-83.5" font-family="Helvetica,sans-Serif" font-size="10.00">selectionRulesMomentumNew</text>
</a>
</g>
</g>
<!-- Node1&#45;&gt;Node8 -->
<g id="edge8" class="edge">
<title>Node1&#45;&gt;Node8</title>
<path fill="none" stroke="midnightblue" d="M461.55,-145.63C445.96,-132.66 422.46,-115.09 399,-105 389.98,-101.12 380.12,-98.02 370.29,-95.54"/>
<polygon fill="midnightblue" stroke="midnightblue" points="459.48,-148.46 469.36,-152.28 464.02,-143.13 459.48,-148.46"/>
</g>
<!-- Node10 -->
<g id="node10" class="node">
<title>Node10</title>
<g id="a_node10"><a xlink:href="MatrixElementCache_8cpp.html#a06a268e07e2a0edb3fca096b8c941c78" target="_top" xlink:title=" ">
<polygon fill="none" stroke="black" points="226.5,-38.5 226.5,-57.5 381.5,-57.5 381.5,-38.5 226.5,-38.5"/>
<text text-anchor="middle" x="304" y="-45.5" font-family="Helvetica,sans-Serif" font-size="10.00">selectionRulesMultipoleNew</text>
</a>
</g>
</g>
<!-- Node1&#45;&gt;Node10 -->
<g id="edge10" class="edge">
<title>Node1&#45;&gt;Node10</title>
<path fill="none" stroke="midnightblue" d="M469.64,-143.65C456.27,-121.76 430.89,-85.77 399,-67 392.4,-63.11 385.14,-60.01 377.66,-57.54"/>
<polygon fill="midnightblue" stroke="midnightblue" points="466.67,-145.51 474.77,-152.34 472.7,-141.95 466.67,-145.51"/>
</g>
<!-- Node12 -->
<g id="node12" class="node">
<title>Node12</title>
<g id="a_node12"><a xlink:href="classStateOne.html#a5b05a258a43a682cfe7af5eb57d0221c" target="_top" xlink:title="Implementation of one&#45;atom state ///////////////////////////////.">
<polygon fill="none" stroke="black" points="247.5,-0.5 247.5,-19.5 360.5,-19.5 360.5,-0.5 247.5,-0.5"/>
<text text-anchor="middle" x="304" y="-7.5" font-family="Helvetica,sans-Serif" font-size="10.00">StateOne::StateOne</text>
</a>
</g>
</g>
<!-- Node1&#45;&gt;Node12 -->
<g id="edge13" class="edge">
<title>Node1&#45;&gt;Node12</title>
<path fill="none" stroke="midnightblue" d="M473.96,-142.88C463.62,-113.45 439.61,-57.48 399,-29 387.82,-21.16 374.16,-16.39 360.75,-13.54"/>
<polygon fill="midnightblue" stroke="midnightblue" points="470.66,-144.05 477.16,-152.42 477.3,-141.83 470.66,-144.05"/>
</g>
<!-- Node5&#45;&gt;Node6 -->
<g id="edge5" class="edge">
<title>Node5&#45;&gt;Node6</title>
<path fill="none" stroke="midnightblue" d="M228.81,-193.46C206.42,-191.48 181.89,-189.32 159.63,-187.36"/>
<polygon fill="midnightblue" stroke="midnightblue" points="228.66,-196.96 238.93,-194.35 229.27,-189.99 228.66,-196.96"/>
</g>
<!-- Node9 -->
<g id="node9" class="node">
<title>Node9</title>
<g id="a_node9"><a xlink:href="classSystemOne.html#acdf73d42ef28f1ed704be057ffb7949c" target="_top" xlink:title="Method that allows base class to calculate the interaction /////.">
<polygon fill="none" stroke="black" points="0,-76.5 0,-95.5 173,-95.5 173,-76.5 0,-76.5"/>
<text text-anchor="middle" x="86.5" y="-83.5" font-family="Helvetica,sans-Serif" font-size="10.00">SystemOne::initializeInteraction</text>
</a>
</g>
</g>
<!-- Node8&#45;&gt;Node9 -->
<g id="edge9" class="edge">
<title>Node8&#45;&gt;Node9</title>
<path fill="none" stroke="midnightblue" d="M210.59,-86C198.21,-86 185.56,-86 173.3,-86"/>
<polygon fill="midnightblue" stroke="midnightblue" points="210.91,-89.5 220.91,-86 210.91,-82.5 210.91,-89.5"/>
</g>
<!-- Node10&#45;&gt;Node9 -->
<g id="edge11" class="edge">
<title>Node10&#45;&gt;Node9</title>
<path fill="none" stroke="midnightblue" d="M238.65,-59.35C207.73,-64.8 171.09,-71.26 141.62,-76.46"/>
<polygon fill="midnightblue" stroke="midnightblue" points="239.66,-62.72 248.9,-57.54 238.44,-55.83 239.66,-62.72"/>
</g>
<!-- Node11 -->
<g id="node11" class="node">
<title>Node11</title>
<g id="a_node11"><a xlink:href="classSystemTwo.html#acc1ccd92ae4e7d8e6c7d176a1aa1fe45" target="_top" xlink:title="Method that allows base class to calculate the interaction /////.">
<polygon fill="none" stroke="black" points="0,-38.5 0,-57.5 173,-57.5 173,-38.5 0,-38.5"/>
<text text-anchor="middle" x="86.5" y="-45.5" font-family="Helvetica,sans-Serif" font-size="10.00">SystemTwo::initializeInteraction</text>
</a>
</g>
</g>
<!-- Node10&#45;&gt;Node11 -->
<g id="edge12" class="edge">
<title>Node10&#45;&gt;Node11</title>
<path fill="none" stroke="midnightblue" d="M216.16,-48C201.93,-48 187.2,-48 173,-48"/>
<polygon fill="midnightblue" stroke="midnightblue" points="216.42,-51.5 226.42,-48 216.42,-44.5 216.42,-51.5"/>
</g>
</g>
</svg>
        <g id="navigator" transform="translate(0 0)" fill="#404254">
                <rect fill="#f2f5e9" fill-opacity="0.5" stroke="#606060" stroke-width=".5" x="0" y="0" width="60" height="60"/>
                <use id="zoomplus" xlink:href="#zoomPlus" x="17" y="9" onmousedown="handleZoom(evt,'in')"/>
                <use id="zoomminus" xlink:href="#zoomMin" x="42" y="9" onmousedown="handleZoom(evt,'out')"/>
                <use id="reset" xlink:href="#resetDef" x="30" y="36" onmousedown="handleReset()"/>
                <g id="arrowUp" xlink:href="#dirArrow" transform="translate(30 24)" onmousedown="handlePan(0,-1)">
                  <use xlink:href="#rim" fill="#404040">
                        <set attributeName="fill" to="#808080" begin="arrowUp.mouseover" end="arrowUp.mouseout"/>
                  </use>
                  <path fill="none" stroke="white" stroke-width="1.5" d="M0,-3.0v7 M-2.5,-0.5L0,-3.0L2.5,-0.5"/>
                </g>
                <g id="arrowRight" xlink:href="#dirArrow" transform="rotate(90) translate(36 -43)" onmousedown="handlePan(1,0)">
                  <use xlink:href="#rim" fill="#404040">
                        <set attributeName="fill" to="#808080" begin="arrowRight.mouseover" end="arrowRight.mouseout"/>
                  </use>
                  <path fill="none" stroke="white" stroke-width="1.5" d="M0,-3.0v7 M-2.5,-0.5L0,-3.0L2.5,-0.5"/>
                </g>
                <g id="arrowDown" xlink:href="#dirArrow" transform="rotate(180) translate(-30 -48)" onmousedown="handlePan(0,1)">
                  <use xlink:href="#rim" fill="#404040">
                        <set attributeName="fill" to="#808080" begin="arrowDown.mouseover" end="arrowDown.mouseout"/>
                  </use>
                  <path fill="none" stroke="white" stroke-width="1.5" d="M0,-3.0v7 M-2.5,-0.5L0,-3.0L2.5,-0.5"/>
                </g>
                <g id="arrowLeft" xlink:href="#dirArrow" transform="rotate(270) translate(-36 17)" onmousedown="handlePan(-1,0)">
                  <use xlink:href="#rim" fill="#404040">
                        <set attributeName="fill" to="#808080" begin="arrowLeft.mouseover" end="arrowLeft.mouseout"/>
                  </use>
                  <path fill="none" stroke="white" stroke-width="1.5" d="M0,-3.0v7 M-2.5,-0.5L0,-3.0L2.5,-0.5"/>
                </g>
        </g>
        <svg viewBox="0 0 15 15" width="100%" height="30px" preserveAspectRatio="xMaxYMin meet">
         <g id="arrow_out" transform="scale(0.3 0.3)">
          <a xlink:href="classStateOne_aab2b41262381d67893113ed6f5ad18bc_icgraph_org.svg" target="_base">
           <rect id="button" ry="5" rx="5" y="6" x="6" height="38" width="38"
                fill="#f2f5e9" fill-opacity="0.5" stroke="#606060" stroke-width="1.0"/>
           <path id="arrow"
             d="M 11.500037,31.436501 C 11.940474,20.09759 22.043105,11.32322 32.158766,21.979434 L 37.068811,17.246167 C 37.068811,17.246167 37.088388,32 37.088388,32 L 22.160133,31.978069 C 22.160133,31.978069 26.997745,27.140456 26.997745,27.140456 C 18.528582,18.264221 13.291696,25.230495 11.500037,31.436501 z"
             style="fill:#404040;"/>
          </a>
         </g>
        </svg>
</svg>
