<?xml version="1.0" encoding="UTF-8" standalone="no"?>
<!DOCTYPE svg PUBLIC "-//W3C//DTD SVG 1.1//EN"
 "http://www.w3.org/Graphics/SVG/1.1/DTD/svg11.dtd">
<!-- Generated by graphviz version 2.43.0 (0)
 -->
<!-- Title: HamiltonianOne::HamiltonianOne Pages: 1 -->
<!--zoomable 923 -->
<svg id="main" version="1.1" xmlns="http://www.w3.org/2000/svg" xmlns:xlink="http://www.w3.org/1999/xlink" xml:space="preserve" onload="init(evt)">
<style type="text/css"><![CDATA[
.edge:hover path { stroke: red; }
.edge:hover polygon { stroke: red; fill: red; }
]]></style>
<script type="text/javascript"><![CDATA[
var edges = document.getElementsByTagName('g');
if (edges && edges.length) {
  for (var i=0;i<edges.length;i++) {
    if (edges[i].id.substr(0,4)=='edge') {
      edges[i].setAttribute('class','edge');
    }
  }
}
]]></script>
        <defs>
                <circle id="rim" cx="0" cy="0" r="7"/>
                <circle id="rim2" cx="0" cy="0" r="3.5"/>
                <g id="zoomPlus">
                        <use xlink:href="#rim" fill="#404040">
                                <set attributeName="fill" to="#808080" begin="zoomplus.mouseover" end="zoomplus.mouseout"/>
                        </use>
                        <path d="M-4,0h8M0,-4v8" fill="none" stroke="white" stroke-width="1.5" pointer-events="none"/>
                </g>
                <g id="zoomMin">
                        <use xlink:href="#rim" fill="#404040">
                                <set attributeName="fill" to="#808080" begin="zoomminus.mouseover" end="zoomminus.mouseout"/>
                        </use>
                        <path d="M-4,0h8" fill="none" stroke="white" stroke-width="1.5" pointer-events="none"/>
                </g>
                <g id="dirArrow">
                        <path fill="none" stroke="white" stroke-width="1.5" d="M0,-3.0v7 M-2.5,-0.5L0,-3.0L2.5,-0.5"/>
                </g>
               <g id="resetDef">
                       <use xlink:href="#rim2" fill="#404040">
                               <set attributeName="fill" to="#808080" begin="reset.mouseover" end="reset.mouseout"/>
                       </use>
               </g>
        </defs>

<script type="text/javascript">
var viewWidth = 795;
var viewHeight = 923;
var sectionId = 'dynsection-2';
</script>
<script xlink:href="svgpan.js"/>
<svg id="graph" class="graph">
<g id="viewport">
<title>HamiltonianOne::HamiltonianOne</title>
<!-- Node1 -->
<g id="node1" class="node">
<title>Node1</title>
<g id="a_node1"><a xlink:title=" ">
<polygon fill="#bfbfbf" stroke="black" points="0,-428.5 0,-447.5 182,-447.5 182,-428.5 0,-428.5"/>
<text text-anchor="middle" x="91" y="-435.5" font-family="Helvetica,sans-Serif" font-size="10.00">HamiltonianOne::HamiltonianOne</text>
</a>
</g>
</g>
<!-- Node2 -->
<g id="node2" class="node">
<title>Node2</title>
<g id="a_node2"><a xlink:href="classHamiltonianOne.html#a6a60cf7ca4f0af0566ce523e2d0915e0" target="_top" xlink:title=" ">
<polygon fill="none" stroke="black" points="229,-447.5 229,-466.5 355,-466.5 355,-447.5 229,-447.5"/>
<text text-anchor="middle" x="292" y="-454.5" font-family="Helvetica,sans-Serif" font-size="10.00">HamiltonianOne::build</text>
</a>
</g>
</g>
<!-- Node1&#45;&gt;Node2 -->
<g id="edge1" class="edge">
<title>Node1&#45;&gt;Node2</title>
<path fill="none" stroke="midnightblue" d="M182.18,-446.61C194.35,-447.77 206.71,-448.95 218.52,-450.08"/>
<polygon fill="midnightblue" stroke="midnightblue" points="218.45,-453.59 228.73,-451.06 219.11,-446.62 218.45,-453.59"/>
</g>
<!-- Node25 -->
<g id="node25" class="node">
<title>Node25</title>
<g id="a_node25"><a xlink:href="classHamiltonianOne.html#a0ee9141ebbb07024e4544588550df40c" target="_top" xlink:title=" ">
<polygon fill="none" stroke="black" points="218,-409.5 218,-428.5 366,-428.5 366,-409.5 218,-409.5"/>
<text text-anchor="middle" x="292" y="-416.5" font-family="Helvetica,sans-Serif" font-size="10.00">HamiltonianOne::configure</text>
</a>
</g>
</g>
<!-- Node1&#45;&gt;Node25 -->
<g id="edge24" class="edge">
<title>Node1&#45;&gt;Node25</title>
<path fill="none" stroke="midnightblue" d="M182.18,-429.39C190.66,-428.58 199.24,-427.76 207.65,-426.96"/>
<polygon fill="midnightblue" stroke="midnightblue" points="208.2,-430.42 217.82,-425.99 207.53,-423.45 208.2,-430.42"/>
</g>
<!-- Node3 -->
<g id="node3" class="node">
<title>Node3</title>
<g id="a_node3"><a xlink:href="classHamiltonianmatrix.html#ac27b4ee9498cab599136a0d422e84b58" target="_top" xlink:title=" ">
<polygon fill="none" stroke="black" points="438.5,-884 438.5,-914 553.5,-914 553.5,-884 438.5,-884"/>
<text text-anchor="start" x="446.5" y="-902" font-family="Helvetica,sans-Serif" font-size="10.00">Hamiltonianmatrix::</text>
<text text-anchor="middle" x="496" y="-891" font-family="Helvetica,sans-Serif" font-size="10.00">addBasis</text>
</a>
</g>
</g>
<!-- Node2&#45;&gt;Node3 -->
<g id="edge2" class="edge">
<title>Node2&#45;&gt;Node3</title>
<path fill="none" stroke="midnightblue" d="M294.21,-466.8C301.44,-523.97 340.81,-813.96 402,-875 409.43,-882.41 418.82,-887.62 428.76,-891.28"/>
<polygon fill="midnightblue" stroke="midnightblue" points="427.82,-894.65 438.41,-894.32 429.93,-887.98 427.82,-894.65"/>
</g>
<!-- Node4 -->
<g id="node4" class="node">
<title>Node4</title>
<g id="a_node4"><a xlink:href="classHamiltonianmatrix.html#a1230f825a3bfe093387a996a3281906d" target="_top" xlink:title=" ">
<polygon fill="none" stroke="black" points="438.5,-835 438.5,-865 553.5,-865 553.5,-835 438.5,-835"/>
<text text-anchor="start" x="446.5" y="-853" font-family="Helvetica,sans-Serif" font-size="10.00">Hamiltonianmatrix::</text>
<text text-anchor="middle" x="496" y="-842" font-family="Helvetica,sans-Serif" font-size="10.00">addEntries</text>
</a>
</g>
</g>
<!-- Node2&#45;&gt;Node4 -->
<g id="edge3" class="edge">
<title>Node2&#45;&gt;Node4</title>
<path fill="none" stroke="midnightblue" d="M292.67,-466.69C291.6,-513.84 293.42,-721.12 402,-826 409.45,-833.2 418.77,-838.32 428.6,-841.94"/>
<polygon fill="midnightblue" stroke="midnightblue" points="427.55,-845.28 438.14,-844.98 429.67,-838.61 427.55,-845.28"/>
</g>
<!-- Node5 -->
<g id="node5" class="node">
<title>Node5</title>
<g id="a_node5"><a xlink:href="classHamiltonianmatrix.html#a22a845d113dabd80dc5215040a684fe8" target="_top" xlink:title=" ">
<polygon fill="none" stroke="black" points="438.5,-786 438.5,-816 553.5,-816 553.5,-786 438.5,-786"/>
<text text-anchor="start" x="446.5" y="-804" font-family="Helvetica,sans-Serif" font-size="10.00">Hamiltonianmatrix::</text>
<text text-anchor="middle" x="496" y="-793" font-family="Helvetica,sans-Serif" font-size="10.00">compress</text>
</a>
</g>
</g>
<!-- Node2&#45;&gt;Node5 -->
<g id="edge4" class="edge">
<title>Node2&#45;&gt;Node5</title>
<path fill="none" stroke="midnightblue" d="M293.16,-466.56C294.44,-509.66 305.59,-687.63 402,-777 409.6,-784.04 418.99,-789.08 428.85,-792.67"/>
<polygon fill="midnightblue" stroke="midnightblue" points="427.82,-796.02 438.41,-795.69 429.93,-789.34 427.82,-796.02"/>
</g>
<!-- Node6 -->
<g id="node6" class="node">
<title>Node6</title>
<g id="a_node6"><a xlink:href="classHamiltonianmatrix.html#a999f039fe247710f679faf730701ae1a" target="_top" xlink:title=" ">
<polygon fill="none" stroke="black" points="438.5,-737 438.5,-767 553.5,-767 553.5,-737 438.5,-737"/>
<text text-anchor="start" x="446.5" y="-755" font-family="Helvetica,sans-Serif" font-size="10.00">Hamiltonianmatrix::</text>
<text text-anchor="middle" x="496" y="-744" font-family="Helvetica,sans-Serif" font-size="10.00">diagonalize</text>
</a>
</g>
</g>
<!-- Node2&#45;&gt;Node6 -->
<g id="edge5" class="edge">
<title>Node2&#45;&gt;Node6</title>
<path fill="none" stroke="midnightblue" d="M293.87,-466.61C297.9,-505.53 318.37,-652.93 402,-727 409.6,-733.73 418.84,-738.68 428.49,-742.31"/>
<polygon fill="midnightblue" stroke="midnightblue" points="427.66,-745.72 438.25,-745.51 429.84,-739.07 427.66,-745.72"/>
</g>
<!-- Node7 -->
<g id="node7" class="node">
<title>Node7</title>
<g id="a_node7"><a xlink:href="QuantumDefect_8cpp.html#ac472df8bb08bd6ff27c7ef7633ae62c5" target="_top" xlink:title="Returns only the energy of a state.">
<polygon fill="none" stroke="black" points="456,-698.5 456,-717.5 536,-717.5 536,-698.5 456,-698.5"/>
<text text-anchor="middle" x="496" y="-705.5" font-family="Helvetica,sans-Serif" font-size="10.00">energy_level</text>
</a>
</g>
</g>
<!-- Node2&#45;&gt;Node7 -->
<g id="edge6" class="edge">
<title>Node2&#45;&gt;Node7</title>
<path fill="none" stroke="midnightblue" d="M294.45,-466.85C300.32,-502.96 325.75,-629.02 402,-689 414.43,-698.78 430.61,-703.9 445.99,-706.47"/>
<polygon fill="midnightblue" stroke="midnightblue" points="445.54,-709.94 455.92,-707.82 446.49,-703.01 445.54,-709.94"/>
</g>
<!-- Node8 -->
<g id="node8" class="node">
<title>Node8</title>
<g id="a_node8"><a xlink:href="classsqlite_1_1statement.html#add6b491603e9505c82779ad762f72888" target="_top" xlink:title="Execute SQLite statements.">
<polygon fill="none" stroke="black" points="431.5,-660.5 431.5,-679.5 560.5,-679.5 560.5,-660.5 431.5,-660.5"/>
<text text-anchor="middle" x="496" y="-667.5" font-family="Helvetica,sans-Serif" font-size="10.00">sqlite::statement::exec</text>
</a>
</g>
</g>
<!-- Node2&#45;&gt;Node8 -->
<g id="edge7" class="edge">
<title>Node2&#45;&gt;Node8</title>
<path fill="none" stroke="midnightblue" d="M295.33,-466.57C303.62,-498.49 334.9,-602.05 402,-651 407.95,-655.34 414.66,-658.74 421.67,-661.41"/>
<polygon fill="midnightblue" stroke="midnightblue" points="420.8,-664.8 431.39,-664.59 422.98,-658.15 420.8,-664.8"/>
</g>
<!-- Node9 -->
<g id="node9" class="node">
<title>Node9</title>
<g id="a_node9"><a xlink:href="classsqlite_1_1statement.html#a881b89458af4ea9bde7a80e416f53903" target="_top" xlink:title="Get value of a field.">
<polygon fill="none" stroke="black" points="435,-622.5 435,-641.5 557,-641.5 557,-622.5 435,-622.5"/>
<text text-anchor="middle" x="496" y="-629.5" font-family="Helvetica,sans-Serif" font-size="10.00">sqlite::statement::get</text>
</a>
</g>
</g>
<!-- Node2&#45;&gt;Node9 -->
<g id="edge8" class="edge">
<title>Node2&#45;&gt;Node9</title>
<path fill="none" stroke="midnightblue" d="M296.68,-466.61C307.81,-494.34 344.01,-574.91 402,-613 409.03,-617.62 416.95,-621.15 425.13,-623.84"/>
<polygon fill="midnightblue" stroke="midnightblue" points="424.23,-627.23 434.81,-626.64 426.18,-620.5 424.23,-627.23"/>
</g>
<!-- Node10 -->
<g id="node10" class="node">
<title>Node10</title>
<g id="a_node10"><a xlink:href="classMatrixElements.html#a236af23d67ee9ccaff40d839764152e1" target="_top" xlink:title=" ">
<polygon fill="none" stroke="black" points="402,-584.5 402,-603.5 590,-603.5 590,-584.5 402,-584.5"/>
<text text-anchor="middle" x="496" y="-591.5" font-family="Helvetica,sans-Serif" font-size="10.00">MatrixElements::getDiamagnetism</text>
</a>
</g>
</g>
<!-- Node2&#45;&gt;Node10 -->
<g id="edge9" class="edge">
<title>Node2&#45;&gt;Node10</title>
<path fill="none" stroke="midnightblue" d="M298.74,-466.5C313.04,-489.29 352.68,-547.2 402,-575 405.98,-577.25 410.2,-579.23 414.54,-580.98"/>
<polygon fill="midnightblue" stroke="midnightblue" points="413.63,-584.37 424.23,-584.45 416,-577.78 413.63,-584.37"/>
</g>
<!-- Node11 -->
<g id="node11" class="node">
<title>Node11</title>
<g id="a_node11"><a xlink:href="classMatrixElements.html#a028e0fd7873f47d9a598c2e3e1200517" target="_top" xlink:title=" ">
<polygon fill="none" stroke="black" points="420,-535 420,-565 572,-565 572,-535 420,-535"/>
<text text-anchor="start" x="428" y="-553" font-family="Helvetica,sans-Serif" font-size="10.00">MatrixElements::getElectric</text>
<text text-anchor="middle" x="496" y="-542" font-family="Helvetica,sans-Serif" font-size="10.00">Momentum</text>
</a>
</g>
</g>
<!-- Node2&#45;&gt;Node11 -->
<g id="edge10" class="edge">
<title>Node2&#45;&gt;Node11</title>
<path fill="none" stroke="midnightblue" d="M305.36,-466.66C324.85,-481.46 364.39,-509.72 402,-526 406.76,-528.06 411.73,-529.97 416.79,-531.74"/>
<polygon fill="midnightblue" stroke="midnightblue" points="416.02,-535.17 426.62,-534.98 418.21,-528.52 416.02,-535.17"/>
</g>
<!-- Node13 -->
<g id="node13" class="node">
<title>Node13</title>
<g id="a_node13"><a xlink:href="classMatrixElements.html#a067d51ef7fad32019f543cf41494fcb6" target="_top" xlink:title=" ">
<polygon fill="none" stroke="black" points="415.5,-486 415.5,-516 576.5,-516 576.5,-486 415.5,-486"/>
<text text-anchor="start" x="423.5" y="-504" font-family="Helvetica,sans-Serif" font-size="10.00">MatrixElements::getMagnetic</text>
<text text-anchor="middle" x="496" y="-493" font-family="Helvetica,sans-Serif" font-size="10.00">Momentum</text>
</a>
</g>
</g>
<!-- Node2&#45;&gt;Node13 -->
<g id="edge12" class="edge">
<title>Node2&#45;&gt;Node13</title>
<path fill="none" stroke="midnightblue" d="M336.83,-466.55C359.98,-471.59 389.1,-477.93 416.03,-483.8"/>
<polygon fill="midnightblue" stroke="midnightblue" points="415.32,-487.23 425.84,-485.93 416.81,-480.39 415.32,-487.23"/>
</g>
<!-- Node14 -->
<g id="node14" class="node">
<title>Node14</title>
<g id="a_node14"><a xlink:href="classHamiltonianmatrix.html#a0bd9dcb748a4503a929e7d49f8a825b9" target="_top" xlink:title=" ">
<polygon fill="none" stroke="black" points="428,-447.5 428,-466.5 564,-466.5 564,-447.5 428,-447.5"/>
<text text-anchor="middle" x="496" y="-454.5" font-family="Helvetica,sans-Serif" font-size="10.00">Hamiltonianmatrix::load</text>
</a>
</g>
</g>
<!-- Node2&#45;&gt;Node14 -->
<g id="edge13" class="edge">
<title>Node2&#45;&gt;Node14</title>
<path fill="none" stroke="midnightblue" d="M355.25,-457C374.98,-457 397.03,-457 417.68,-457"/>
<polygon fill="midnightblue" stroke="midnightblue" points="417.69,-460.5 427.69,-457 417.69,-453.5 417.69,-460.5"/>
</g>
<!-- Node15 -->
<g id="node15" class="node">
<title>Node15</title>
<g id="a_node15"><a xlink:href="classConfiguration.html#a545d28b3d64edc05331ee71898acfd1c" target="_top" xlink:title="Load configuration from JSON file.">
<polygon fill="none" stroke="black" points="441,-398 441,-428 551,-428 551,-398 441,-398"/>
<text text-anchor="start" x="449" y="-416" font-family="Helvetica,sans-Serif" font-size="10.00">Configuration::load</text>
<text text-anchor="middle" x="496" y="-405" font-family="Helvetica,sans-Serif" font-size="10.00">_from_json</text>
</a>
</g>
</g>
<!-- Node2&#45;&gt;Node15 -->
<g id="edge14" class="edge">
<title>Node2&#45;&gt;Node15</title>
<path fill="none" stroke="midnightblue" d="M336.83,-447.45C364.25,-441.48 400.05,-433.68 430.65,-427.02"/>
<polygon fill="midnightblue" stroke="midnightblue" points="431.79,-430.35 440.81,-424.8 430.3,-423.51 431.79,-430.35"/>
</g>
<!-- Node16 -->
<g id="node16" class="node">
<title>Node16</title>
<g id="a_node16"><a xlink:href="classHamiltonianmatrix.html#a5f82781cc5ae99854e842cfc1a9bb4d5" target="_top" xlink:title=" ">
<polygon fill="none" stroke="black" points="438.5,-349 438.5,-379 553.5,-379 553.5,-349 438.5,-349"/>
<text text-anchor="start" x="446.5" y="-367" font-family="Helvetica,sans-Serif" font-size="10.00">Hamiltonianmatrix::</text>
<text text-anchor="middle" x="496" y="-356" font-family="Helvetica,sans-Serif" font-size="10.00">num_basisvectors</text>
</a>
</g>
</g>
<!-- Node2&#45;&gt;Node16 -->
<g id="edge15" class="edge">
<title>Node2&#45;&gt;Node16</title>
<path fill="none" stroke="midnightblue" d="M347.07,-447.45C353.76,-444.99 360.26,-441.9 366,-438 388.37,-422.83 379.69,-404.26 402,-389 409.99,-383.54 419.12,-379.26 428.47,-375.93"/>
<polygon fill="midnightblue" stroke="midnightblue" points="429.81,-379.17 438.25,-372.77 427.66,-372.51 429.81,-379.17"/>
</g>
<!-- Node17 -->
<g id="node17" class="node">
<title>Node17</title>
<g id="a_node17"><a xlink:href="classMatrixElements.html#a32c0094a2cb546133d508f3bf29930ab" target="_top" xlink:title=" ">
<polygon fill="none" stroke="black" points="416,-300 416,-330 576,-330 576,-300 416,-300"/>
<text text-anchor="start" x="424" y="-318" font-family="Helvetica,sans-Serif" font-size="10.00">MatrixElements::precalculate</text>
<text text-anchor="middle" x="496" y="-307" font-family="Helvetica,sans-Serif" font-size="10.00">Diamagnetism</text>
</a>
</g>
</g>
<!-- Node2&#45;&gt;Node17 -->
<g id="edge16" class="edge">
<title>Node2&#45;&gt;Node17</title>
<path fill="none" stroke="midnightblue" d="M351.49,-447.46C356.77,-444.97 361.73,-441.87 366,-438 400.37,-406.83 367.76,-371.31 402,-340 403.7,-338.44 405.5,-336.98 407.36,-335.61"/>
<polygon fill="midnightblue" stroke="midnightblue" points="409.39,-338.46 415.95,-330.14 405.63,-332.55 409.39,-338.46"/>
</g>
<!-- Node18 -->
<g id="node18" class="node">
<title>Node18</title>
<g id="a_node18"><a xlink:href="classMatrixElements.html#a14a519d2b14628f1f00ef425fa033043" target="_top" xlink:title=" ">
<polygon fill="none" stroke="black" points="416,-251 416,-281 576,-281 576,-251 416,-251"/>
<text text-anchor="start" x="424" y="-269" font-family="Helvetica,sans-Serif" font-size="10.00">MatrixElements::precalculate</text>
<text text-anchor="middle" x="496" y="-258" font-family="Helvetica,sans-Serif" font-size="10.00">ElectricMomentum</text>
</a>
</g>
</g>
<!-- Node2&#45;&gt;Node18 -->
<g id="edge17" class="edge">
<title>Node2&#45;&gt;Node18</title>
<path fill="none" stroke="midnightblue" d="M353.01,-447.4C357.8,-444.91 362.23,-441.82 366,-438 413.22,-390.09 354.97,-339.09 402,-291 403.66,-289.3 405.43,-287.71 407.28,-286.23"/>
<polygon fill="midnightblue" stroke="midnightblue" points="409.59,-288.89 415.89,-280.37 405.65,-283.1 409.59,-288.89"/>
</g>
<!-- Node19 -->
<g id="node19" class="node">
<title>Node19</title>
<g id="a_node19"><a xlink:href="classMatrixElements.html#af786718331598916e45d54054752eeab" target="_top" xlink:title=" ">
<polygon fill="none" stroke="black" points="416,-202 416,-232 576,-232 576,-202 416,-202"/>
<text text-anchor="start" x="424" y="-220" font-family="Helvetica,sans-Serif" font-size="10.00">MatrixElements::precalculate</text>
<text text-anchor="middle" x="496" y="-209" font-family="Helvetica,sans-Serif" font-size="10.00">MagneticMomentum</text>
</a>
</g>
</g>
<!-- Node2&#45;&gt;Node19 -->
<g id="edge18" class="edge">
<title>Node2&#45;&gt;Node19</title>
<path fill="none" stroke="midnightblue" d="M353.59,-447.44C358.2,-444.94 362.43,-441.84 366,-438 426.3,-373.13 341.96,-307.11 402,-242 403.61,-240.25 405.33,-238.62 407.14,-237.1"/>
<polygon fill="midnightblue" stroke="midnightblue" points="409.47,-239.74 415.61,-231.11 405.42,-234.03 409.47,-239.74"/>
</g>
<!-- Node20 -->
<g id="node20" class="node">
<title>Node20</title>
<g id="a_node20"><a xlink:href="classsqlite_1_1statement.html#a1b40871fb975892f70ea097f7c6da9c1" target="_top" xlink:title="Prepare the statement.">
<polygon fill="none" stroke="black" points="443,-153 443,-183 549,-183 549,-153 443,-153"/>
<text text-anchor="start" x="451" y="-171" font-family="Helvetica,sans-Serif" font-size="10.00">sqlite::statement::</text>
<text text-anchor="middle" x="496" y="-160" font-family="Helvetica,sans-Serif" font-size="10.00">prepare</text>
</a>
</g>
</g>
<!-- Node2&#45;&gt;Node20 -->
<g id="edge19" class="edge">
<title>Node2&#45;&gt;Node20</title>
<path fill="none" stroke="midnightblue" d="M354.08,-447.38C358.52,-444.89 362.59,-441.8 366,-438 439.48,-356.06 328.85,-275.23 402,-193 410.16,-183.83 421.29,-177.86 433.02,-174.01"/>
<polygon fill="midnightblue" stroke="midnightblue" points="434.26,-177.3 442.96,-171.26 432.39,-170.56 434.26,-177.3"/>
</g>
<!-- Node21 -->
<g id="node21" class="node">
<title>Node21</title>
<g id="a_node21"><a xlink:href="classHamiltonianmatrix.html#aa16c272ac7162d987e851a678e9ff3c6" target="_top" xlink:title=" ">
<polygon fill="none" stroke="black" points="427,-114.5 427,-133.5 565,-133.5 565,-114.5 427,-114.5"/>
<text text-anchor="middle" x="496" y="-121.5" font-family="Helvetica,sans-Serif" font-size="10.00">Hamiltonianmatrix::save</text>
</a>
</g>
</g>
<!-- Node2&#45;&gt;Node21 -->
<g id="edge20" class="edge">
<title>Node2&#45;&gt;Node21</title>
<path fill="none" stroke="midnightblue" d="M354.18,-447.47C358.6,-444.96 362.64,-441.84 366,-438 452.7,-338.94 313.2,-241.18 402,-144 406.39,-139.2 411.62,-135.4 417.35,-132.41"/>
<polygon fill="midnightblue" stroke="midnightblue" points="418.91,-135.55 426.69,-128.36 416.12,-129.13 418.91,-135.55"/>
</g>
<!-- Node22 -->
<g id="node22" class="node">
<title>Node22</title>
<g id="a_node22"><a xlink:href="MatrixElements_8cpp.html#a6f6b84fd868c178f74ba516ddbffac2f" target="_top" xlink:title=" ">
<polygon fill="none" stroke="black" points="424,-76.5 424,-95.5 568,-95.5 568,-76.5 424,-76.5"/>
<text text-anchor="middle" x="496" y="-83.5" font-family="Helvetica,sans-Serif" font-size="10.00">selectionRulesMomentum</text>
</a>
</g>
</g>
<!-- Node2&#45;&gt;Node22 -->
<g id="edge21" class="edge">
<title>Node2&#45;&gt;Node22</title>
<path fill="none" stroke="midnightblue" d="M354.58,-447.33C358.85,-444.84 362.75,-441.77 366,-438 463.25,-325.3 301.79,-215.08 402,-105 405.65,-100.99 409.9,-97.7 414.53,-95"/>
<polygon fill="midnightblue" stroke="midnightblue" points="416.36,-98.01 423.86,-90.53 413.33,-91.7 416.36,-98.01"/>
</g>
<!-- Node23 -->
<g id="node23" class="node">
<title>Node23</title>
<g id="a_node23"><a xlink:href="MatrixElements_8cpp.html#a8091d5442eeac91702ef15b470e70798" target="_top" xlink:title=" ">
<polygon fill="none" stroke="black" points="429,-38.5 429,-57.5 563,-57.5 563,-38.5 429,-38.5"/>
<text text-anchor="middle" x="496" y="-45.5" font-family="Helvetica,sans-Serif" font-size="10.00">selectionRulesMultipole</text>
</a>
</g>
</g>
<!-- Node2&#45;&gt;Node23 -->
<g id="edge22" class="edge">
<title>Node2&#45;&gt;Node23</title>
<path fill="none" stroke="midnightblue" d="M354.62,-447.37C358.89,-444.87 362.77,-441.79 366,-438 419.77,-374.99 346.58,-128.56 402,-67 406.93,-61.53 412.97,-57.39 419.58,-54.28"/>
<polygon fill="midnightblue" stroke="midnightblue" points="420.86,-57.54 428.91,-50.65 418.32,-51.01 420.86,-57.54"/>
</g>
<!-- Node24 -->
<g id="node24" class="node">
<title>Node24</title>
<g id="a_node24"><a xlink:href="classsqlite_1_1statement.html#a0ef0c0c1fd66918b9a9c6167fd2e668f" target="_top" xlink:title="Step the statement.">
<polygon fill="none" stroke="black" points="432.5,-0.5 432.5,-19.5 559.5,-19.5 559.5,-0.5 432.5,-0.5"/>
<text text-anchor="middle" x="496" y="-7.5" font-family="Helvetica,sans-Serif" font-size="10.00">sqlite::statement::step</text>
</a>
</g>
</g>
<!-- Node2&#45;&gt;Node24 -->
<g id="edge23" class="edge">
<title>Node2&#45;&gt;Node24</title>
<path fill="none" stroke="midnightblue" d="M354.66,-447.4C358.92,-444.89 362.79,-441.8 366,-438 424.92,-368.33 341.25,-97.08 402,-29 407.62,-22.71 414.7,-18.17 422.45,-14.94"/>
<polygon fill="midnightblue" stroke="midnightblue" points="423.84,-18.16 432.17,-11.62 421.58,-11.54 423.84,-18.16"/>
</g>
<!-- Node12 -->
<g id="node12" class="node">
<title>Node12</title>
<g id="a_node12"><a xlink:href="classMatrixElements.html#a6b21945229b04895c8a2e896454df444" target="_top" xlink:title=" ">
<polygon fill="none" stroke="black" points="626,-540.5 626,-559.5 787,-559.5 787,-540.5 626,-540.5"/>
<text text-anchor="middle" x="706.5" y="-547.5" font-family="Helvetica,sans-Serif" font-size="10.00">MatrixElements::getMultipole</text>
</a>
</g>
</g>
<!-- Node11&#45;&gt;Node12 -->
<g id="edge11" class="edge">
<title>Node11&#45;&gt;Node12</title>
<path fill="none" stroke="midnightblue" d="M572.27,-550C586.26,-550 601,-550 615.38,-550"/>
<polygon fill="midnightblue" stroke="midnightblue" points="615.76,-553.5 625.76,-550 615.76,-546.5 615.76,-553.5"/>
</g>
</g>
</svg>
        <g id="navigator" transform="translate(0 0)" fill="#404254">
                <rect fill="#f2f5e9" fill-opacity="0.5" stroke="#606060" stroke-width=".5" x="0" y="0" width="60" height="60"/>
                <use id="zoomplus" xlink:href="#zoomPlus" x="17" y="9" onmousedown="handleZoom(evt,'in')"/>
                <use id="zoomminus" xlink:href="#zoomMin" x="42" y="9" onmousedown="handleZoom(evt,'out')"/>
                <use id="reset" xlink:href="#resetDef" x="30" y="36" onmousedown="handleReset()"/>
                <g id="arrowUp" xlink:href="#dirArrow" transform="translate(30 24)" onmousedown="handlePan(0,-1)">
                  <use xlink:href="#rim" fill="#404040">
                        <set attributeName="fill" to="#808080" begin="arrowUp.mouseover" end="arrowUp.mouseout"/>
                  </use>
                  <path fill="none" stroke="white" stroke-width="1.5" d="M0,-3.0v7 M-2.5,-0.5L0,-3.0L2.5,-0.5"/>
                </g>
                <g id="arrowRight" xlink:href="#dirArrow" transform="rotate(90) translate(36 -43)" onmousedown="handlePan(1,0)">
                  <use xlink:href="#rim" fill="#404040">
                        <set attributeName="fill" to="#808080" begin="arrowRight.mouseover" end="arrowRight.mouseout"/>
                  </use>
                  <path fill="none" stroke="white" stroke-width="1.5" d="M0,-3.0v7 M-2.5,-0.5L0,-3.0L2.5,-0.5"/>
                </g>
                <g id="arrowDown" xlink:href="#dirArrow" transform="rotate(180) translate(-30 -48)" onmousedown="handlePan(0,1)">
                  <use xlink:href="#rim" fill="#404040">
                        <set attributeName="fill" to="#808080" begin="arrowDown.mouseover" end="arrowDown.mouseout"/>
                  </use>
                  <path fill="none" stroke="white" stroke-width="1.5" d="M0,-3.0v7 M-2.5,-0.5L0,-3.0L2.5,-0.5"/>
                </g>
                <g id="arrowLeft" xlink:href="#dirArrow" transform="rotate(270) translate(-36 17)" onmousedown="handlePan(-1,0)">
                  <use xlink:href="#rim" fill="#404040">
                        <set attributeName="fill" to="#808080" begin="arrowLeft.mouseover" end="arrowLeft.mouseout"/>
                  </use>
                  <path fill="none" stroke="white" stroke-width="1.5" d="M0,-3.0v7 M-2.5,-0.5L0,-3.0L2.5,-0.5"/>
                </g>
        </g>
        <svg viewBox="0 0 15 15" width="100%" height="30px" preserveAspectRatio="xMaxYMin meet">
         <g id="arrow_out" transform="scale(0.3 0.3)">
          <a xlink:href="classHamiltonianOne_a8f603206e4305d3340a1be6e7c2e51d6_cgraph_org.svg" target="_base">
           <rect id="button" ry="5" rx="5" y="6" x="6" height="38" width="38"
                fill="#f2f5e9" fill-opacity="0.5" stroke="#606060" stroke-width="1.0"/>
           <path id="arrow"
             d="M 11.500037,31.436501 C 11.940474,20.09759 22.043105,11.32322 32.158766,21.979434 L 37.068811,17.246167 C 37.068811,17.246167 37.088388,32 37.088388,32 L 22.160133,31.978069 C 22.160133,31.978069 26.997745,27.140456 26.997745,27.140456 C 18.528582,18.264221 13.291696,25.230495 11.500037,31.436501 z"
             style="fill:#404040;"/>
          </a>
         </g>
        </svg>
</svg>
