<?xml version="1.0" encoding="UTF-8" standalone="no"?>
<!DOCTYPE svg PUBLIC "-//W3C//DTD SVG 1.1//EN"
 "http://www.w3.org/Graphics/SVG/1.1/DTD/svg11.dtd">
<!-- Generated by graphviz version 2.43.0 (0)
 -->
<!-- Title: sqlite::statement::step Pages: 1 -->
<!--zoomable 203 -->
<svg id="main" version="1.1" xmlns="http://www.w3.org/2000/svg" xmlns:xlink="http://www.w3.org/1999/xlink" xml:space="preserve" onload="init(evt)">
<style type="text/css"><![CDATA[
.edge:hover path { stroke: red; }
.edge:hover polygon { stroke: red; fill: red; }
]]></style>
<script type="text/javascript"><![CDATA[
var edges = document.getElementsByTagName('g');
if (edges && edges.length) {
  for (var i=0;i<edges.length;i++) {
    if (edges[i].id.substr(0,4)=='edge') {
      edges[i].setAttribute('class','edge');
    }
  }
}
]]></script>
        <defs>
                <circle id="rim" cx="0" cy="0" r="7"/>
                <circle id="rim2" cx="0" cy="0" r="3.5"/>
                <g id="zoomPlus">
                        <use xlink:href="#rim" fill="#404040">
                                <set attributeName="fill" to="#808080" begin="zoomplus.mouseover" end="zoomplus.mouseout"/>
                        </use>
                        <path d="M-4,0h8M0,-4v8" fill="none" stroke="white" stroke-width="1.5" pointer-events="none"/>
                </g>
                <g id="zoomMin">
                        <use xlink:href="#rim" fill="#404040">
                                <set attributeName="fill" to="#808080" begin="zoomminus.mouseover" end="zoomminus.mouseout"/>
                        </use>
                        <path d="M-4,0h8" fill="none" stroke="white" stroke-width="1.5" pointer-events="none"/>
                </g>
                <g id="dirArrow">
                        <path fill="none" stroke="white" stroke-width="1.5" d="M0,-3.0v7 M-2.5,-0.5L0,-3.0L2.5,-0.5"/>
                </g>
               <g id="resetDef">
                       <use xlink:href="#rim2" fill="#404040">
                               <set attributeName="fill" to="#808080" begin="reset.mouseover" end="reset.mouseout"/>
                       </use>
               </g>
        </defs>

<script type="text/javascript">
var viewWidth = 535;
var viewHeight = 203;
var sectionId = 'dynsection-9';
</script>
<script xlink:href="svgpan.js"/>
<svg id="graph" class="graph">
<g id="viewport">
<title>sqlite::statement::step</title>
<!-- Node1 -->
<g id="node1" class="node">
<title>Node1</title>
<g id="a_node1"><a xlink:title="Step the statement.">
<polygon fill="#bfbfbf" stroke="black" points="400,-93.5 400,-112.5 527,-112.5 527,-93.5 400,-93.5"/>
<text text-anchor="middle" x="463.5" y="-100.5" font-family="Helvetica,sans-Serif" font-size="10.00">sqlite::statement::step</text>
</a>
</g>
</g>
<!-- Node2 -->
<g id="node2" class="node">
<title>Node2</title>
<g id="a_node2"><a xlink:href="classHamiltonianOne.html#a6a60cf7ca4f0af0566ce523e2d0915e0" target="_top" xlink:title=" ">
<polygon fill="none" stroke="black" points="228,-175.5 228,-194.5 354,-194.5 354,-175.5 228,-175.5"/>
<text text-anchor="middle" x="291" y="-182.5" font-family="Helvetica,sans-Serif" font-size="10.00">HamiltonianOne::build</text>
</a>
</g>
</g>
<!-- Node1&#45;&gt;Node2 -->
<g id="edge1" class="edge">
<title>Node1&#45;&gt;Node2</title>
<path fill="none" stroke="midnightblue" d="M442.14,-118.72C422.93,-132.87 392.85,-153.34 364,-166 355.48,-169.74 346.05,-172.88 336.91,-175.46"/>
<polygon fill="midnightblue" stroke="midnightblue" points="444.25,-121.5 450.16,-112.71 440.06,-115.9 444.25,-121.5"/>
</g>
<!-- Node4 -->
<g id="node4" class="node">
<title>Node4</title>
<g id="a_node4"><a xlink:href="classHamiltonianTwo.html#aae02015e07387f58d5e7749698e62569" target="_top" xlink:title=" ">
<polygon fill="none" stroke="black" points="218,-137.5 218,-156.5 364,-156.5 364,-137.5 218,-137.5"/>
<text text-anchor="middle" x="291" y="-144.5" font-family="Helvetica,sans-Serif" font-size="10.00">HamiltonianTwo::calculate</text>
</a>
</g>
</g>
<!-- Node1&#45;&gt;Node4 -->
<g id="edge3" class="edge">
<title>Node1&#45;&gt;Node4</title>
<path fill="none" stroke="midnightblue" d="M415.76,-115.06C388.42,-122.12 354.38,-130.9 328.92,-137.47"/>
<polygon fill="midnightblue" stroke="midnightblue" points="416.7,-118.44 425.5,-112.55 414.95,-111.66 416.7,-118.44"/>
</g>
<!-- Node6 -->
<g id="node6" class="node">
<title>Node6</title>
<g id="a_node6"><a xlink:href="classsqlite_1_1statement_1_1iterator.html#abe9e2121ba042bb0b0b22bafb7098ac5" target="_top" xlink:title=" ">
<polygon fill="none" stroke="black" points="238,-88 238,-118 344,-118 344,-88 238,-88"/>
<text text-anchor="start" x="246" y="-106" font-family="Helvetica,sans-Serif" font-size="10.00">sqlite::statement::</text>
<text text-anchor="middle" x="291" y="-95" font-family="Helvetica,sans-Serif" font-size="10.00">iterator::iterator</text>
</a>
</g>
</g>
<!-- Node1&#45;&gt;Node6 -->
<g id="edge5" class="edge">
<title>Node1&#45;&gt;Node6</title>
<path fill="none" stroke="midnightblue" d="M389.97,-103C374.57,-103 358.61,-103 344.16,-103"/>
<polygon fill="midnightblue" stroke="midnightblue" points="389.98,-106.5 399.98,-103 389.98,-99.5 389.98,-106.5"/>
</g>
<!-- Node7 -->
<g id="node7" class="node">
<title>Node7</title>
<g id="a_node7"><a xlink:href="classsqlite_1_1statement_1_1iterator.html#afc561c92e972b92425906e03ec3b3fbe" target="_top" xlink:title=" ">
<polygon fill="none" stroke="black" points="233,-39 233,-69 349,-69 349,-39 233,-39"/>
<text text-anchor="start" x="241" y="-57" font-family="Helvetica,sans-Serif" font-size="10.00">sqlite::statement::</text>
<text text-anchor="middle" x="291" y="-46" font-family="Helvetica,sans-Serif" font-size="10.00">iterator::operator++</text>
</a>
</g>
</g>
<!-- Node1&#45;&gt;Node7 -->
<g id="edge6" class="edge">
<title>Node1&#45;&gt;Node7</title>
<path fill="none" stroke="midnightblue" d="M419.47,-90.63C396.64,-84.07 368.41,-75.96 344.32,-69.04"/>
<polygon fill="midnightblue" stroke="midnightblue" points="418.64,-94.04 429.22,-93.44 420.58,-87.31 418.64,-94.04"/>
</g>
<!-- Node8 -->
<g id="node8" class="node">
<title>Node8</title>
<g id="a_node8"><a xlink:href="quantum__defect__test_8cpp.html#aace6ba66c48575e316611e6a42c23206" target="_top" xlink:title=" ">
<polygon fill="none" stroke="black" points="255.5,-0.5 255.5,-19.5 326.5,-19.5 326.5,-0.5 255.5,-0.5"/>
<text text-anchor="middle" x="291" y="-7.5" font-family="Helvetica,sans-Serif" font-size="10.00">TEST_CASE</text>
</a>
</g>
</g>
<!-- Node1&#45;&gt;Node8 -->
<g id="edge7" class="edge">
<title>Node1&#45;&gt;Node8</title>
<path fill="none" stroke="midnightblue" d="M445.03,-86.51C426.35,-69.74 395.19,-44.11 364,-29 352.37,-23.36 338.83,-19.23 326.66,-16.29"/>
<polygon fill="midnightblue" stroke="midnightblue" points="442.73,-89.15 452.46,-93.32 447.45,-83.98 442.73,-89.15"/>
</g>
<!-- Node3 -->
<g id="node3" class="node">
<title>Node3</title>
<g id="a_node3"><a xlink:href="classHamiltonianOne.html#a8f603206e4305d3340a1be6e7c2e51d6" target="_top" xlink:title=" ">
<polygon fill="none" stroke="black" points="0,-175.5 0,-194.5 182,-194.5 182,-175.5 0,-175.5"/>
<text text-anchor="middle" x="91" y="-182.5" font-family="Helvetica,sans-Serif" font-size="10.00">HamiltonianOne::HamiltonianOne</text>
</a>
</g>
</g>
<!-- Node2&#45;&gt;Node3 -->
<g id="edge2" class="edge">
<title>Node2&#45;&gt;Node3</title>
<path fill="none" stroke="midnightblue" d="M217.86,-185C206.26,-185 194.12,-185 182.16,-185"/>
<polygon fill="midnightblue" stroke="midnightblue" points="217.89,-188.5 227.89,-185 217.89,-181.5 217.89,-188.5"/>
</g>
<!-- Node5 -->
<g id="node5" class="node">
<title>Node5</title>
<g id="a_node5"><a xlink:href="classHamiltonianTwo.html#a866502c7ad1a5a2a3f36dbf63e9ef619" target="_top" xlink:title=" ">
<polygon fill="none" stroke="black" points="1,-137.5 1,-156.5 181,-156.5 181,-137.5 1,-137.5"/>
<text text-anchor="middle" x="91" y="-144.5" font-family="Helvetica,sans-Serif" font-size="10.00">HamiltonianTwo::HamiltonianTwo</text>
</a>
</g>
</g>
<!-- Node4&#45;&gt;Node5 -->
<g id="edge4" class="edge">
<title>Node4&#45;&gt;Node5</title>
<path fill="none" stroke="midnightblue" d="M207.76,-147C199,-147 190.05,-147 181.2,-147"/>
<polygon fill="midnightblue" stroke="midnightblue" points="207.96,-150.5 217.96,-147 207.96,-143.5 207.96,-150.5"/>
</g>
</g>
</svg>
        <g id="navigator" transform="translate(0 0)" fill="#404254">
                <rect fill="#f2f5e9" fill-opacity="0.5" stroke="#606060" stroke-width=".5" x="0" y="0" width="60" height="60"/>
                <use id="zoomplus" xlink:href="#zoomPlus" x="17" y="9" onmousedown="handleZoom(evt,'in')"/>
                <use id="zoomminus" xlink:href="#zoomMin" x="42" y="9" onmousedown="handleZoom(evt,'out')"/>
                <use id="reset" xlink:href="#resetDef" x="30" y="36" onmousedown="handleReset()"/>
                <g id="arrowUp" xlink:href="#dirArrow" transform="translate(30 24)" onmousedown="handlePan(0,-1)">
                  <use xlink:href="#rim" fill="#404040">
                        <set attributeName="fill" to="#808080" begin="arrowUp.mouseover" end="arrowUp.mouseout"/>
                  </use>
                  <path fill="none" stroke="white" stroke-width="1.5" d="M0,-3.0v7 M-2.5,-0.5L0,-3.0L2.5,-0.5"/>
                </g>
                <g id="arrowRight" xlink:href="#dirArrow" transform="rotate(90) translate(36 -43)" onmousedown="handlePan(1,0)">
                  <use xlink:href="#rim" fill="#404040">
                        <set attributeName="fill" to="#808080" begin="arrowRight.mouseover" end="arrowRight.mouseout"/>
                  </use>
                  <path fill="none" stroke="white" stroke-width="1.5" d="M0,-3.0v7 M-2.5,-0.5L0,-3.0L2.5,-0.5"/>
                </g>
                <g id="arrowDown" xlink:href="#dirArrow" transform="rotate(180) translate(-30 -48)" onmousedown="handlePan(0,1)">
                  <use xlink:href="#rim" fill="#404040">
                        <set attributeName="fill" to="#808080" begin="arrowDown.mouseover" end="arrowDown.mouseout"/>
                  </use>
                  <path fill="none" stroke="white" stroke-width="1.5" d="M0,-3.0v7 M-2.5,-0.5L0,-3.0L2.5,-0.5"/>
                </g>
                <g id="arrowLeft" xlink:href="#dirArrow" transform="rotate(270) translate(-36 17)" onmousedown="handlePan(-1,0)">
                  <use xlink:href="#rim" fill="#404040">
                        <set attributeName="fill" to="#808080" begin="arrowLeft.mouseover" end="arrowLeft.mouseout"/>
                  </use>
                  <path fill="none" stroke="white" stroke-width="1.5" d="M0,-3.0v7 M-2.5,-0.5L0,-3.0L2.5,-0.5"/>
                </g>
        </g>
        <svg viewBox="0 0 15 15" width="100%" height="30px" preserveAspectRatio="xMaxYMin meet">
         <g id="arrow_out" transform="scale(0.3 0.3)">
          <a xlink:href="classsqlite_1_1statement_a0ef0c0c1fd66918b9a9c6167fd2e668f_icgraph_org.svg" target="_base">
           <rect id="button" ry="5" rx="5" y="6" x="6" height="38" width="38"
                fill="#f2f5e9" fill-opacity="0.5" stroke="#606060" stroke-width="1.0"/>
           <path id="arrow"
             d="M 11.500037,31.436501 C 11.940474,20.09759 22.043105,11.32322 32.158766,21.979434 L 37.068811,17.246167 C 37.068811,17.246167 37.088388,32 37.088388,32 L 22.160133,31.978069 C 22.160133,31.978069 26.997745,27.140456 26.997745,27.140456 C 18.528582,18.264221 13.291696,25.230495 11.500037,31.436501 z"
             style="fill:#404040;"/>
          </a>
         </g>
        </svg>
</svg>
