<?xml version="1.0" encoding="UTF-8" standalone="no"?>
<!DOCTYPE svg PUBLIC "-//W3C//DTD SVG 1.1//EN"
 "http://www.w3.org/Graphics/SVG/1.1/DTD/svg11.dtd">
<!-- Generated by graphviz version 2.43.0 (0)
 -->
<!-- Title: Basisnames&lt; T &gt; Pages: 1 -->
<svg width="296pt" height="128pt"
 viewBox="0.00 0.00 296.00 128.00" xmlns="http://www.w3.org/2000/svg" xmlns:xlink="http://www.w3.org/1999/xlink">
<g id="graph0" class="graph" transform="scale(1 1) rotate(0) translate(4 124)">
<title>Basisnames&lt; T &gt;</title>
<!-- Node1 -->
<g id="node1" class="node">
<title>Node1</title>
<g id="a_node1"><a xlink:title=" ">
<polygon fill="#bfbfbf" stroke="black" points="60.5,-0.5 60.5,-19.5 164.5,-19.5 164.5,-0.5 60.5,-0.5"/>
<text text-anchor="middle" x="112.5" y="-7.5" font-family="Helvetica,sans-Serif" font-size="10.00">Basisnames&lt; T &gt;</text>
</a>
</g>
</g>
<!-- Node2 -->
<g id="node2" class="node">
<title>Node2</title>
<g id="a_node2"><a xlink:title=" ">
<polygon fill="none" stroke="#bfbfbf" points="0,-100.5 0,-119.5 45,-119.5 45,-100.5 0,-100.5"/>
<text text-anchor="middle" x="22.5" y="-107.5" font-family="Helvetica,sans-Serif" font-size="10.00">size_t</text>
</a>
</g>
</g>
<!-- Node2&#45;&gt;Node1 -->
<g id="edge1" class="edge">
<title>Node2&#45;&gt;Node1</title>
<path fill="none" stroke="#9a32cd" stroke-dasharray="5,2" d="M23.88,-90.27C25.97,-74.52 31.24,-52.33 44.5,-38 52.35,-29.52 63.21,-23.65 73.95,-19.62"/>
<polygon fill="#9a32cd" stroke="#9a32cd" points="20.38,-90.1 22.84,-100.4 27.34,-90.81 20.38,-90.1"/>
<text text-anchor="middle" x="58.5" y="-57.5" font-family="Helvetica,sans-Serif" font-size="10.00"> dim_</text>
</g>
<!-- Node3 -->
<g id="node3" class="node">
<title>Node3</title>
<g id="a_node3"><a xlink:title=" ">
<polygon fill="none" stroke="#bfbfbf" points="63,-100.5 63,-119.5 92,-119.5 92,-100.5 63,-100.5"/>
<text text-anchor="middle" x="77.5" y="-107.5" font-family="Helvetica,sans-Serif" font-size="10.00">int</text>
</a>
</g>
</g>
<!-- Node3&#45;&gt;Node1 -->
<g id="edge2" class="edge">
<title>Node3&#45;&gt;Node1</title>
<path fill="none" stroke="#9a32cd" stroke-dasharray="5,2" d="M76.72,-90.19C76.83,-75.33 78.64,-54.43 86.5,-38 89.93,-30.84 95.99,-24.37 101.4,-19.56"/>
<polygon fill="#9a32cd" stroke="#9a32cd" points="73.22,-90.27 76.89,-100.2 80.22,-90.14 73.22,-90.27"/>
<text text-anchor="middle" x="106.5" y="-74" font-family="Helvetica,sans-Serif" font-size="10.00"> delta_j</text>
<text text-anchor="middle" x="106.5" y="-63" font-family="Helvetica,sans-Serif" font-size="10.00">delta_l</text>
<text text-anchor="middle" x="106.5" y="-52" font-family="Helvetica,sans-Serif" font-size="10.00">delta_m</text>
<text text-anchor="middle" x="106.5" y="-41" font-family="Helvetica,sans-Serif" font-size="10.00">delta_n</text>
</g>
<!-- Node4 -->
<g id="node4" class="node">
<title>Node4</title>
<g id="a_node4"><a xlink:title=" ">
<polygon fill="none" stroke="#bfbfbf" points="110.5,-100.5 110.5,-119.5 186.5,-119.5 186.5,-100.5 110.5,-100.5"/>
<text text-anchor="middle" x="148.5" y="-107.5" font-family="Helvetica,sans-Serif" font-size="10.00">vector&lt; T &gt;</text>
</a>
</g>
</g>
<!-- Node4&#45;&gt;Node1 -->
<g id="edge3" class="edge">
<title>Node4&#45;&gt;Node1</title>
<path fill="none" stroke="#9a32cd" stroke-dasharray="5,2" d="M143.69,-90.3C139.72,-75.8 133.61,-55.31 126.5,-38 123.93,-31.75 120.43,-25 117.58,-19.81"/>
<polygon fill="#9a32cd" stroke="#9a32cd" points="140.33,-91.31 146.28,-100.08 147.1,-89.52 140.33,-91.31"/>
<text text-anchor="middle" x="161.5" y="-57.5" font-family="Helvetica,sans-Serif" font-size="10.00"> names_</text>
</g>
<!-- Node5 -->
<g id="node5" class="node">
<title>Node5</title>
<g id="a_node5"><a xlink:href="classConfiguration.html" target="_top" xlink:title="Configuration storage">
<polygon fill="none" stroke="black" points="205,-100.5 205,-119.5 288,-119.5 288,-100.5 205,-100.5"/>
<text text-anchor="middle" x="246.5" y="-107.5" font-family="Helvetica,sans-Serif" font-size="10.00">Configuration</text>
</a>
</g>
</g>
<!-- Node5&#45;&gt;Node1 -->
<g id="edge4" class="edge">
<title>Node5&#45;&gt;Node1</title>
<path fill="none" stroke="#9a32cd" stroke-dasharray="5,2" d="M235.87,-91.91C225.17,-75.97 207.3,-52.52 186.5,-38 174.73,-29.78 160.16,-23.76 147.08,-19.52"/>
<polygon fill="#9a32cd" stroke="#9a32cd" points="232.94,-93.82 241.31,-100.31 238.81,-90.01 232.94,-93.82"/>
<text text-anchor="middle" x="240" y="-57.5" font-family="Helvetica,sans-Serif" font-size="10.00"> conf</text>
</g>
</g>
</svg>
