<?xml version="1.0" encoding="UTF-8" standalone="no"?>
<!DOCTYPE svg PUBLIC "-//W3C//DTD SVG 1.1//EN"
 "http://www.w3.org/Graphics/SVG/1.1/DTD/svg11.dtd">
<!-- Generated by graphviz version 2.43.0 (0)
 -->
<!-- Title: HamiltonianOne::build Pages: 1 -->
<!--zoomable 923 -->
<svg id="main" version="1.1" xmlns="http://www.w3.org/2000/svg" xmlns:xlink="http://www.w3.org/1999/xlink" xml:space="preserve" onload="init(evt)">
<style type="text/css"><![CDATA[
.edge:hover path { stroke: red; }
.edge:hover polygon { stroke: red; fill: red; }
]]></style>
<script type="text/javascript"><![CDATA[
var edges = document.getElementsByTagName('g');
if (edges && edges.length) {
  for (var i=0;i<edges.length;i++) {
    if (edges[i].id.substr(0,4)=='edge') {
      edges[i].setAttribute('class','edge');
    }
  }
}
]]></script>
        <defs>
                <circle id="rim" cx="0" cy="0" r="7"/>
                <circle id="rim2" cx="0" cy="0" r="3.5"/>
                <g id="zoomPlus">
                        <use xlink:href="#rim" fill="#404040">
                                <set attributeName="fill" to="#808080" begin="zoomplus.mouseover" end="zoomplus.mouseout"/>
                        </use>
                        <path d="M-4,0h8M0,-4v8" fill="none" stroke="white" stroke-width="1.5" pointer-events="none"/>
                </g>
                <g id="zoomMin">
                        <use xlink:href="#rim" fill="#404040">
                                <set attributeName="fill" to="#808080" begin="zoomminus.mouseover" end="zoomminus.mouseout"/>
                        </use>
                        <path d="M-4,0h8" fill="none" stroke="white" stroke-width="1.5" pointer-events="none"/>
                </g>
                <g id="dirArrow">
                        <path fill="none" stroke="white" stroke-width="1.5" d="M0,-3.0v7 M-2.5,-0.5L0,-3.0L2.5,-0.5"/>
                </g>
               <g id="resetDef">
                       <use xlink:href="#rim2" fill="#404040">
                               <set attributeName="fill" to="#808080" begin="reset.mouseover" end="reset.mouseout"/>
                       </use>
               </g>
        </defs>

<script type="text/javascript">
var viewWidth = 555;
var viewHeight = 923;
var sectionId = 'dynsection-3';
</script>
<script xlink:href="svgpan.js"/>
<svg id="graph" class="graph">
<g id="viewport">
<title>HamiltonianOne::build</title>
<!-- Node1 -->
<g id="node1" class="node">
<title>Node1</title>
<g id="a_node1"><a xlink:title=" ">
<polygon fill="#bfbfbf" stroke="black" points="0,-447.5 0,-466.5 126,-466.5 126,-447.5 0,-447.5"/>
<text text-anchor="middle" x="63" y="-454.5" font-family="Helvetica,sans-Serif" font-size="10.00">HamiltonianOne::build</text>
</a>
</g>
</g>
<!-- Node2 -->
<g id="node2" class="node">
<title>Node2</title>
<g id="a_node2"><a xlink:href="classHamiltonianmatrix.html#ac27b4ee9498cab599136a0d422e84b58" target="_top" xlink:title=" ">
<polygon fill="none" stroke="black" points="198.5,-884 198.5,-914 313.5,-914 313.5,-884 198.5,-884"/>
<text text-anchor="start" x="206.5" y="-902" font-family="Helvetica,sans-Serif" font-size="10.00">Hamiltonianmatrix::</text>
<text text-anchor="middle" x="256" y="-891" font-family="Helvetica,sans-Serif" font-size="10.00">addBasis</text>
</a>
</g>
</g>
<!-- Node1&#45;&gt;Node2 -->
<g id="edge1" class="edge">
<title>Node1&#45;&gt;Node2</title>
<path fill="none" stroke="midnightblue" d="M64.94,-466.79C70.59,-523.89 101.94,-813.58 162,-875 169.33,-882.5 178.68,-887.76 188.6,-891.43"/>
<polygon fill="midnightblue" stroke="midnightblue" points="187.66,-894.81 198.25,-894.49 189.77,-888.13 187.66,-894.81"/>
</g>
<!-- Node3 -->
<g id="node3" class="node">
<title>Node3</title>
<g id="a_node3"><a xlink:href="classHamiltonianmatrix.html#a1230f825a3bfe093387a996a3281906d" target="_top" xlink:title=" ">
<polygon fill="none" stroke="black" points="198.5,-835 198.5,-865 313.5,-865 313.5,-835 198.5,-835"/>
<text text-anchor="start" x="206.5" y="-853" font-family="Helvetica,sans-Serif" font-size="10.00">Hamiltonianmatrix::</text>
<text text-anchor="middle" x="256" y="-842" font-family="Helvetica,sans-Serif" font-size="10.00">addEntries</text>
</a>
</g>
</g>
<!-- Node1&#45;&gt;Node3 -->
<g id="edge2" class="edge">
<title>Node1&#45;&gt;Node3</title>
<path fill="none" stroke="midnightblue" d="M65.24,-466.66C72.22,-519.45 108.15,-772.52 162,-826 169.44,-833.39 178.84,-838.6 188.79,-842.25"/>
<polygon fill="midnightblue" stroke="midnightblue" points="187.85,-845.62 198.44,-845.29 189.96,-838.95 187.85,-845.62"/>
</g>
<!-- Node4 -->
<g id="node4" class="node">
<title>Node4</title>
<g id="a_node4"><a xlink:href="classHamiltonianmatrix.html#a22a845d113dabd80dc5215040a684fe8" target="_top" xlink:title=" ">
<polygon fill="none" stroke="black" points="198.5,-786 198.5,-816 313.5,-816 313.5,-786 198.5,-786"/>
<text text-anchor="start" x="206.5" y="-804" font-family="Helvetica,sans-Serif" font-size="10.00">Hamiltonianmatrix::</text>
<text text-anchor="middle" x="256" y="-793" font-family="Helvetica,sans-Serif" font-size="10.00">compress</text>
</a>
</g>
</g>
<!-- Node1&#45;&gt;Node4 -->
<g id="edge3" class="edge">
<title>Node1&#45;&gt;Node4</title>
<path fill="none" stroke="midnightblue" d="M63.8,-466.53C63.45,-509.51 67.94,-687.05 162,-777 169.49,-784.16 178.82,-789.26 188.66,-792.88"/>
<polygon fill="midnightblue" stroke="midnightblue" points="187.62,-796.22 198.21,-795.91 189.74,-789.55 187.62,-796.22"/>
</g>
<!-- Node5 -->
<g id="node5" class="node">
<title>Node5</title>
<g id="a_node5"><a xlink:href="classHamiltonianmatrix.html#a999f039fe247710f679faf730701ae1a" target="_top" xlink:title=" ">
<polygon fill="none" stroke="black" points="198.5,-737 198.5,-767 313.5,-767 313.5,-737 198.5,-737"/>
<text text-anchor="start" x="206.5" y="-755" font-family="Helvetica,sans-Serif" font-size="10.00">Hamiltonianmatrix::</text>
<text text-anchor="middle" x="256" y="-744" font-family="Helvetica,sans-Serif" font-size="10.00">diagonalize</text>
</a>
</g>
</g>
<!-- Node1&#45;&gt;Node5 -->
<g id="edge4" class="edge">
<title>Node1&#45;&gt;Node5</title>
<path fill="none" stroke="midnightblue" d="M64.44,-466.58C66.76,-505.4 80.81,-652.48 162,-727 169.48,-733.87 178.65,-738.88 188.28,-742.54"/>
<polygon fill="midnightblue" stroke="midnightblue" points="187.43,-745.95 198.03,-745.76 189.63,-739.3 187.43,-745.95"/>
</g>
<!-- Node6 -->
<g id="node6" class="node">
<title>Node6</title>
<g id="a_node6"><a xlink:href="QuantumDefect_8cpp.html#ac472df8bb08bd6ff27c7ef7633ae62c5" target="_top" xlink:title="Returns only the energy of a state.">
<polygon fill="none" stroke="black" points="216,-698.5 216,-717.5 296,-717.5 296,-698.5 216,-698.5"/>
<text text-anchor="middle" x="256" y="-705.5" font-family="Helvetica,sans-Serif" font-size="10.00">energy_level</text>
</a>
</g>
</g>
<!-- Node1&#45;&gt;Node6 -->
<g id="edge5" class="edge">
<title>Node1&#45;&gt;Node6</title>
<path fill="none" stroke="midnightblue" d="M64.96,-466.83C69.04,-502.83 88.26,-628.6 162,-689 174.24,-699.02 190.37,-704.2 205.76,-706.76"/>
<polygon fill="midnightblue" stroke="midnightblue" points="205.34,-710.23 215.71,-708.08 206.26,-703.29 205.34,-710.23"/>
</g>
<!-- Node7 -->
<g id="node7" class="node">
<title>Node7</title>
<g id="a_node7"><a xlink:href="classsqlite_1_1statement.html#add6b491603e9505c82779ad762f72888" target="_top" xlink:title="Execute SQLite statements.">
<polygon fill="none" stroke="black" points="191.5,-660.5 191.5,-679.5 320.5,-679.5 320.5,-660.5 191.5,-660.5"/>
<text text-anchor="middle" x="256" y="-667.5" font-family="Helvetica,sans-Serif" font-size="10.00">sqlite::statement::exec</text>
</a>
</g>
</g>
<!-- Node1&#45;&gt;Node7 -->
<g id="edge6" class="edge">
<title>Node1&#45;&gt;Node7</title>
<path fill="none" stroke="midnightblue" d="M65.77,-466.55C72.23,-498.39 97.53,-601.76 162,-651 167.85,-655.47 174.5,-658.96 181.47,-661.67"/>
<polygon fill="midnightblue" stroke="midnightblue" points="180.56,-665.06 191.16,-664.91 182.78,-658.42 180.56,-665.06"/>
</g>
<!-- Node8 -->
<g id="node8" class="node">
<title>Node8</title>
<g id="a_node8"><a xlink:href="classsqlite_1_1statement.html#a881b89458af4ea9bde7a80e416f53903" target="_top" xlink:title="Get value of a field.">
<polygon fill="none" stroke="black" points="195,-622.5 195,-641.5 317,-641.5 317,-622.5 195,-622.5"/>
<text text-anchor="middle" x="256" y="-629.5" font-family="Helvetica,sans-Serif" font-size="10.00">sqlite::statement::get</text>
</a>
</g>
</g>
<!-- Node1&#45;&gt;Node8 -->
<g id="edge7" class="edge">
<title>Node1&#45;&gt;Node8</title>
<path fill="none" stroke="midnightblue" d="M67.01,-466.6C76.21,-494.28 106.78,-574.76 162,-613 168.91,-617.79 176.77,-621.42 184.91,-624.17"/>
<polygon fill="midnightblue" stroke="midnightblue" points="183.98,-627.55 194.56,-627.01 185.96,-620.83 183.98,-627.55"/>
</g>
<!-- Node9 -->
<g id="node9" class="node">
<title>Node9</title>
<g id="a_node9"><a xlink:href="classMatrixElements.html#a236af23d67ee9ccaff40d839764152e1" target="_top" xlink:title=" ">
<polygon fill="none" stroke="black" points="162,-584.5 162,-603.5 350,-603.5 350,-584.5 162,-584.5"/>
<text text-anchor="middle" x="256" y="-591.5" font-family="Helvetica,sans-Serif" font-size="10.00">MatrixElements::getDiamagnetism</text>
</a>
</g>
</g>
<!-- Node1&#45;&gt;Node9 -->
<g id="edge8" class="edge">
<title>Node1&#45;&gt;Node9</title>
<path fill="none" stroke="midnightblue" d="M68.9,-466.51C81.17,-489.3 115.62,-547.22 162,-575 165.66,-577.19 169.53,-579.13 173.53,-580.85"/>
<polygon fill="midnightblue" stroke="midnightblue" points="172.47,-584.2 183.06,-584.48 174.96,-577.65 172.47,-584.2"/>
</g>
<!-- Node10 -->
<g id="node10" class="node">
<title>Node10</title>
<g id="a_node10"><a xlink:href="classMatrixElements.html#a028e0fd7873f47d9a598c2e3e1200517" target="_top" xlink:title=" ">
<polygon fill="none" stroke="black" points="180,-535 180,-565 332,-565 332,-535 180,-535"/>
<text text-anchor="start" x="188" y="-553" font-family="Helvetica,sans-Serif" font-size="10.00">MatrixElements::getElectric</text>
<text text-anchor="middle" x="256" y="-542" font-family="Helvetica,sans-Serif" font-size="10.00">Momentum</text>
</a>
</g>
</g>
<!-- Node1&#45;&gt;Node10 -->
<g id="edge9" class="edge">
<title>Node1&#45;&gt;Node10</title>
<path fill="none" stroke="midnightblue" d="M74.93,-466.73C92.21,-481.63 127.44,-510.02 162,-526 166.31,-527.99 170.82,-529.84 175.42,-531.55"/>
<polygon fill="midnightblue" stroke="midnightblue" points="174.38,-534.89 184.97,-534.87 176.67,-528.28 174.38,-534.89"/>
</g>
<!-- Node12 -->
<g id="node12" class="node">
<title>Node12</title>
<g id="a_node12"><a xlink:href="classMatrixElements.html#a067d51ef7fad32019f543cf41494fcb6" target="_top" xlink:title=" ">
<polygon fill="none" stroke="black" points="175.5,-486 175.5,-516 336.5,-516 336.5,-486 175.5,-486"/>
<text text-anchor="start" x="183.5" y="-504" font-family="Helvetica,sans-Serif" font-size="10.00">MatrixElements::getMagnetic</text>
<text text-anchor="middle" x="256" y="-493" font-family="Helvetica,sans-Serif" font-size="10.00">Momentum</text>
</a>
</g>
</g>
<!-- Node1&#45;&gt;Node12 -->
<g id="edge11" class="edge">
<title>Node1&#45;&gt;Node12</title>
<path fill="none" stroke="midnightblue" d="M105.44,-466.55C127.14,-471.55 154.39,-477.82 179.66,-483.64"/>
<polygon fill="midnightblue" stroke="midnightblue" points="179.07,-487.1 189.6,-485.93 180.64,-480.28 179.07,-487.1"/>
</g>
<!-- Node13 -->
<g id="node13" class="node">
<title>Node13</title>
<g id="a_node13"><a xlink:href="classHamiltonianmatrix.html#a0bd9dcb748a4503a929e7d49f8a825b9" target="_top" xlink:title=" ">
<polygon fill="none" stroke="black" points="188,-447.5 188,-466.5 324,-466.5 324,-447.5 188,-447.5"/>
<text text-anchor="middle" x="256" y="-454.5" font-family="Helvetica,sans-Serif" font-size="10.00">Hamiltonianmatrix::load</text>
</a>
</g>
</g>
<!-- Node1&#45;&gt;Node13 -->
<g id="edge12" class="edge">
<title>Node1&#45;&gt;Node13</title>
<path fill="none" stroke="midnightblue" d="M126.01,-457C142.49,-457 160.5,-457 177.69,-457"/>
<polygon fill="midnightblue" stroke="midnightblue" points="177.7,-460.5 187.7,-457 177.7,-453.5 177.7,-460.5"/>
</g>
<!-- Node14 -->
<g id="node14" class="node">
<title>Node14</title>
<g id="a_node14"><a xlink:href="classConfiguration.html#a545d28b3d64edc05331ee71898acfd1c" target="_top" xlink:title="Load configuration from JSON file.">
<polygon fill="none" stroke="black" points="201,-398 201,-428 311,-428 311,-398 201,-398"/>
<text text-anchor="start" x="209" y="-416" font-family="Helvetica,sans-Serif" font-size="10.00">Configuration::load</text>
<text text-anchor="middle" x="256" y="-405" font-family="Helvetica,sans-Serif" font-size="10.00">_from_json</text>
</a>
</g>
</g>
<!-- Node1&#45;&gt;Node14 -->
<g id="edge13" class="edge">
<title>Node1&#45;&gt;Node14</title>
<path fill="none" stroke="midnightblue" d="M105.44,-447.45C130.47,-441.69 162.88,-434.22 191.13,-427.71"/>
<polygon fill="midnightblue" stroke="midnightblue" points="191.97,-431.11 200.93,-425.46 190.4,-424.29 191.97,-431.11"/>
</g>
<!-- Node15 -->
<g id="node15" class="node">
<title>Node15</title>
<g id="a_node15"><a xlink:href="classHamiltonianmatrix.html#a5f82781cc5ae99854e842cfc1a9bb4d5" target="_top" xlink:title=" ">
<polygon fill="none" stroke="black" points="198.5,-349 198.5,-379 313.5,-379 313.5,-349 198.5,-349"/>
<text text-anchor="start" x="206.5" y="-367" font-family="Helvetica,sans-Serif" font-size="10.00">Hamiltonianmatrix::</text>
<text text-anchor="middle" x="256" y="-356" font-family="Helvetica,sans-Serif" font-size="10.00">num_basisvectors</text>
</a>
</g>
</g>
<!-- Node1&#45;&gt;Node15 -->
<g id="edge14" class="edge">
<title>Node1&#45;&gt;Node15</title>
<path fill="none" stroke="midnightblue" d="M74.98,-447.46C92.32,-432.85 127.63,-404.96 162,-389 170.35,-385.12 179.42,-381.76 188.5,-378.86"/>
<polygon fill="midnightblue" stroke="midnightblue" points="189.76,-382.14 198.33,-375.9 187.74,-375.43 189.76,-382.14"/>
</g>
<!-- Node16 -->
<g id="node16" class="node">
<title>Node16</title>
<g id="a_node16"><a xlink:href="classMatrixElements.html#a32c0094a2cb546133d508f3bf29930ab" target="_top" xlink:title=" ">
<polygon fill="none" stroke="black" points="176,-300 176,-330 336,-330 336,-300 176,-300"/>
<text text-anchor="start" x="184" y="-318" font-family="Helvetica,sans-Serif" font-size="10.00">MatrixElements::precalculate</text>
<text text-anchor="middle" x="256" y="-307" font-family="Helvetica,sans-Serif" font-size="10.00">Diamagnetism</text>
</a>
</g>
</g>
<!-- Node1&#45;&gt;Node16 -->
<g id="edge15" class="edge">
<title>Node1&#45;&gt;Node16</title>
<path fill="none" stroke="midnightblue" d="M69.22,-447.42C81.95,-424.99 116.88,-368.8 162,-340 165.31,-337.88 168.8,-335.95 172.41,-334.17"/>
<polygon fill="midnightblue" stroke="midnightblue" points="173.87,-337.36 181.58,-330.09 171.02,-330.96 173.87,-337.36"/>
</g>
<!-- Node17 -->
<g id="node17" class="node">
<title>Node17</title>
<g id="a_node17"><a xlink:href="classMatrixElements.html#a14a519d2b14628f1f00ef425fa033043" target="_top" xlink:title=" ">
<polygon fill="none" stroke="black" points="176,-251 176,-281 336,-281 336,-251 176,-251"/>
<text text-anchor="start" x="184" y="-269" font-family="Helvetica,sans-Serif" font-size="10.00">MatrixElements::precalculate</text>
<text text-anchor="middle" x="256" y="-258" font-family="Helvetica,sans-Serif" font-size="10.00">ElectricMomentum</text>
</a>
</g>
</g>
<!-- Node1&#45;&gt;Node17 -->
<g id="edge16" class="edge">
<title>Node1&#45;&gt;Node17</title>
<path fill="none" stroke="midnightblue" d="M66.81,-447.38C75.66,-418.8 105.79,-333.74 162,-291 164.37,-289.2 166.86,-287.52 169.44,-285.97"/>
<polygon fill="midnightblue" stroke="midnightblue" points="171.35,-288.92 178.54,-281.15 168.07,-282.74 171.35,-288.92"/>
</g>
<!-- Node18 -->
<g id="node18" class="node">
<title>Node18</title>
<g id="a_node18"><a xlink:href="classMatrixElements.html#af786718331598916e45d54054752eeab" target="_top" xlink:title=" ">
<polygon fill="none" stroke="black" points="176,-202 176,-232 336,-232 336,-202 176,-202"/>
<text text-anchor="start" x="184" y="-220" font-family="Helvetica,sans-Serif" font-size="10.00">MatrixElements::precalculate</text>
<text text-anchor="middle" x="256" y="-209" font-family="Helvetica,sans-Serif" font-size="10.00">MagneticMomentum</text>
</a>
</g>
</g>
<!-- Node1&#45;&gt;Node18 -->
<g id="edge17" class="edge">
<title>Node1&#45;&gt;Node18</title>
<path fill="none" stroke="midnightblue" d="M65.48,-447.09C71.11,-412.96 94.39,-299.28 162,-242 164.01,-240.3 166.12,-238.71 168.32,-237.23"/>
<polygon fill="midnightblue" stroke="midnightblue" points="170.32,-240.12 177.17,-232.04 166.78,-234.08 170.32,-240.12"/>
</g>
<!-- Node19 -->
<g id="node19" class="node">
<title>Node19</title>
<g id="a_node19"><a xlink:href="classsqlite_1_1statement.html#a1b40871fb975892f70ea097f7c6da9c1" target="_top" xlink:title="Prepare the statement.">
<polygon fill="none" stroke="black" points="203,-153 203,-183 309,-183 309,-153 203,-153"/>
<text text-anchor="start" x="211" y="-171" font-family="Helvetica,sans-Serif" font-size="10.00">sqlite::statement::</text>
<text text-anchor="middle" x="256" y="-160" font-family="Helvetica,sans-Serif" font-size="10.00">prepare</text>
</a>
</g>
</g>
<!-- Node1&#45;&gt;Node19 -->
<g id="edge18" class="edge">
<title>Node1&#45;&gt;Node19</title>
<path fill="none" stroke="midnightblue" d="M64.53,-447.37C67.2,-409 82.32,-265.61 162,-193 170.79,-184.99 181.86,-179.51 193.28,-175.76"/>
<polygon fill="midnightblue" stroke="midnightblue" points="194.27,-179.12 202.91,-173 192.34,-172.39 194.27,-179.12"/>
</g>
<!-- Node20 -->
<g id="node20" class="node">
<title>Node20</title>
<g id="a_node20"><a xlink:href="classHamiltonianmatrix.html#aa16c272ac7162d987e851a678e9ff3c6" target="_top" xlink:title=" ">
<polygon fill="none" stroke="black" points="187,-114.5 187,-133.5 325,-133.5 325,-114.5 187,-114.5"/>
<text text-anchor="middle" x="256" y="-121.5" font-family="Helvetica,sans-Serif" font-size="10.00">Hamiltonianmatrix::save</text>
</a>
</g>
</g>
<!-- Node1&#45;&gt;Node20 -->
<g id="edge19" class="edge">
<title>Node1&#45;&gt;Node20</title>
<path fill="none" stroke="midnightblue" d="M63.79,-447.29C63.43,-404.35 67.98,-229.77 162,-144 166.53,-139.86 171.71,-136.51 177.25,-133.79"/>
<polygon fill="midnightblue" stroke="midnightblue" points="178.96,-136.87 186.86,-129.8 176.28,-130.4 178.96,-136.87"/>
</g>
<!-- Node21 -->
<g id="node21" class="node">
<title>Node21</title>
<g id="a_node21"><a xlink:href="MatrixElements_8cpp.html#a6f6b84fd868c178f74ba516ddbffac2f" target="_top" xlink:title=" ">
<polygon fill="none" stroke="black" points="184,-76.5 184,-95.5 328,-95.5 328,-76.5 184,-76.5"/>
<text text-anchor="middle" x="256" y="-83.5" font-family="Helvetica,sans-Serif" font-size="10.00">selectionRulesMomentum</text>
</a>
</g>
</g>
<!-- Node1&#45;&gt;Node21 -->
<g id="edge20" class="edge">
<title>Node1&#45;&gt;Node21</title>
<path fill="none" stroke="midnightblue" d="M65.31,-447.4C72.54,-396.06 108.99,-154.42 162,-105 165.82,-101.44 170.12,-98.47 174.72,-96"/>
<polygon fill="midnightblue" stroke="midnightblue" points="176.23,-99.15 183.89,-91.83 173.34,-92.78 176.23,-99.15"/>
</g>
<!-- Node22 -->
<g id="node22" class="node">
<title>Node22</title>
<g id="a_node22"><a xlink:href="MatrixElements_8cpp.html#a8091d5442eeac91702ef15b470e70798" target="_top" xlink:title=" ">
<polygon fill="none" stroke="black" points="189,-38.5 189,-57.5 323,-57.5 323,-38.5 189,-38.5"/>
<text text-anchor="middle" x="256" y="-45.5" font-family="Helvetica,sans-Serif" font-size="10.00">selectionRulesMultipole</text>
</a>
</g>
</g>
<!-- Node1&#45;&gt;Node22 -->
<g id="edge21" class="edge">
<title>Node1&#45;&gt;Node22</title>
<path fill="none" stroke="midnightblue" d="M65.03,-447.47C71.11,-393.08 103.98,-122.49 162,-67 167.04,-62.18 172.96,-58.43 179.32,-55.54"/>
<polygon fill="midnightblue" stroke="midnightblue" points="180.82,-58.71 188.92,-51.88 178.33,-52.17 180.82,-58.71"/>
</g>
<!-- Node23 -->
<g id="node23" class="node">
<title>Node23</title>
<g id="a_node23"><a xlink:href="classsqlite_1_1statement.html#a0ef0c0c1fd66918b9a9c6167fd2e668f" target="_top" xlink:title="Step the statement.">
<polygon fill="none" stroke="black" points="192.5,-0.5 192.5,-19.5 319.5,-19.5 319.5,-0.5 192.5,-0.5"/>
<text text-anchor="middle" x="256" y="-7.5" font-family="Helvetica,sans-Serif" font-size="10.00">sqlite::statement::step</text>
</a>
</g>
</g>
<!-- Node1&#45;&gt;Node23 -->
<g id="edge22" class="edge">
<title>Node1&#45;&gt;Node23</title>
<path fill="none" stroke="midnightblue" d="M64.82,-447.31C69.9,-389.5 99.01,-90.52 162,-29 167.87,-23.27 174.97,-19.05 182.6,-15.97"/>
<polygon fill="midnightblue" stroke="midnightblue" points="183.77,-19.27 192.13,-12.75 181.53,-12.63 183.77,-19.27"/>
</g>
<!-- Node11 -->
<g id="node11" class="node">
<title>Node11</title>
<g id="a_node11"><a xlink:href="classMatrixElements.html#a6b21945229b04895c8a2e896454df444" target="_top" xlink:title=" ">
<polygon fill="none" stroke="black" points="386,-540.5 386,-559.5 547,-559.5 547,-540.5 386,-540.5"/>
<text text-anchor="middle" x="466.5" y="-547.5" font-family="Helvetica,sans-Serif" font-size="10.00">MatrixElements::getMultipole</text>
</a>
</g>
</g>
<!-- Node10&#45;&gt;Node11 -->
<g id="edge10" class="edge">
<title>Node10&#45;&gt;Node11</title>
<path fill="none" stroke="midnightblue" d="M332.27,-550C346.26,-550 361,-550 375.38,-550"/>
<polygon fill="midnightblue" stroke="midnightblue" points="375.76,-553.5 385.76,-550 375.76,-546.5 375.76,-553.5"/>
</g>
</g>
</svg>
        <g id="navigator" transform="translate(0 0)" fill="#404254">
                <rect fill="#f2f5e9" fill-opacity="0.5" stroke="#606060" stroke-width=".5" x="0" y="0" width="60" height="60"/>
                <use id="zoomplus" xlink:href="#zoomPlus" x="17" y="9" onmousedown="handleZoom(evt,'in')"/>
                <use id="zoomminus" xlink:href="#zoomMin" x="42" y="9" onmousedown="handleZoom(evt,'out')"/>
                <use id="reset" xlink:href="#resetDef" x="30" y="36" onmousedown="handleReset()"/>
                <g id="arrowUp" xlink:href="#dirArrow" transform="translate(30 24)" onmousedown="handlePan(0,-1)">
                  <use xlink:href="#rim" fill="#404040">
                        <set attributeName="fill" to="#808080" begin="arrowUp.mouseover" end="arrowUp.mouseout"/>
                  </use>
                  <path fill="none" stroke="white" stroke-width="1.5" d="M0,-3.0v7 M-2.5,-0.5L0,-3.0L2.5,-0.5"/>
                </g>
                <g id="arrowRight" xlink:href="#dirArrow" transform="rotate(90) translate(36 -43)" onmousedown="handlePan(1,0)">
                  <use xlink:href="#rim" fill="#404040">
                        <set attributeName="fill" to="#808080" begin="arrowRight.mouseover" end="arrowRight.mouseout"/>
                  </use>
                  <path fill="none" stroke="white" stroke-width="1.5" d="M0,-3.0v7 M-2.5,-0.5L0,-3.0L2.5,-0.5"/>
                </g>
                <g id="arrowDown" xlink:href="#dirArrow" transform="rotate(180) translate(-30 -48)" onmousedown="handlePan(0,1)">
                  <use xlink:href="#rim" fill="#404040">
                        <set attributeName="fill" to="#808080" begin="arrowDown.mouseover" end="arrowDown.mouseout"/>
                  </use>
                  <path fill="none" stroke="white" stroke-width="1.5" d="M0,-3.0v7 M-2.5,-0.5L0,-3.0L2.5,-0.5"/>
                </g>
                <g id="arrowLeft" xlink:href="#dirArrow" transform="rotate(270) translate(-36 17)" onmousedown="handlePan(-1,0)">
                  <use xlink:href="#rim" fill="#404040">
                        <set attributeName="fill" to="#808080" begin="arrowLeft.mouseover" end="arrowLeft.mouseout"/>
                  </use>
                  <path fill="none" stroke="white" stroke-width="1.5" d="M0,-3.0v7 M-2.5,-0.5L0,-3.0L2.5,-0.5"/>
                </g>
        </g>
        <svg viewBox="0 0 15 15" width="100%" height="30px" preserveAspectRatio="xMaxYMin meet">
         <g id="arrow_out" transform="scale(0.3 0.3)">
          <a xlink:href="classHamiltonianOne_a6a60cf7ca4f0af0566ce523e2d0915e0_cgraph_org.svg" target="_base">
           <rect id="button" ry="5" rx="5" y="6" x="6" height="38" width="38"
                fill="#f2f5e9" fill-opacity="0.5" stroke="#606060" stroke-width="1.0"/>
           <path id="arrow"
             d="M 11.500037,31.436501 C 11.940474,20.09759 22.043105,11.32322 32.158766,21.979434 L 37.068811,17.246167 C 37.068811,17.246167 37.088388,32 37.088388,32 L 22.160133,31.978069 C 22.160133,31.978069 26.997745,27.140456 26.997745,27.140456 C 18.528582,18.264221 13.291696,25.230495 11.500037,31.436501 z"
             style="fill:#404040;"/>
          </a>
         </g>
        </svg>
</svg>
