<?xml version="1.0" encoding="UTF-8" standalone="no"?>
<!DOCTYPE svg PUBLIC "-//W3C//DTD SVG 1.1//EN"
 "http://www.w3.org/Graphics/SVG/1.1/DTD/svg11.dtd">
<!-- Generated by graphviz version 2.43.0 (0)
 -->
<!-- Title: MatrixElementCache::getElectricMultipole Pages: 1 -->
<svg width="448pt" height="112pt"
 viewBox="0.00 0.00 448.00 112.00" xmlns="http://www.w3.org/2000/svg" xmlns:xlink="http://www.w3.org/1999/xlink">
<g id="graph0" class="graph" transform="scale(1 1) rotate(0) translate(4 108)">
<title>MatrixElementCache::getElectricMultipole</title>
<!-- Node1 -->
<g id="node1" class="node">
<title>Node1</title>
<g id="a_node1"><a xlink:title=" ">
<polygon fill="#bfbfbf" stroke="black" points="320,-48.5 320,-78.5 440,-78.5 440,-48.5 320,-48.5"/>
<text text-anchor="start" x="328" y="-66.5" font-family="Helvetica,sans-Serif" font-size="10.00">MatrixElementCache</text>
<text text-anchor="middle" x="380" y="-55.5" font-family="Helvetica,sans-Serif" font-size="10.00">::getElectricMultipole</text>
</a>
</g>
</g>
<!-- Node2 -->
<g id="node2" class="node">
<title>Node2</title>
<g id="a_node2"><a xlink:href="classMatrixElementCache.html#ab1120fb945d5c0c5e30821e886c04c42" target="_top" xlink:title=" ">
<polygon fill="none" stroke="black" points="165,-73.5 165,-103.5 284,-103.5 284,-73.5 165,-73.5"/>
<text text-anchor="start" x="173" y="-91.5" font-family="Helvetica,sans-Serif" font-size="10.00">MatrixElementCache</text>
<text text-anchor="middle" x="224.5" y="-80.5" font-family="Helvetica,sans-Serif" font-size="10.00">::getDiamagnetism</text>
</a>
</g>
</g>
<!-- Node1&#45;&gt;Node2 -->
<g id="edge1" class="edge">
<title>Node1&#45;&gt;Node2</title>
<path fill="none" stroke="midnightblue" d="M309.72,-74.78C301.19,-76.17 292.54,-77.58 284.18,-78.94"/>
<polygon fill="midnightblue" stroke="midnightblue" points="310.35,-78.23 319.65,-73.17 309.22,-71.32 310.35,-78.23"/>
</g>
<!-- Node3 -->
<g id="node3" class="node">
<title>Node3</title>
<g id="a_node3"><a xlink:href="classMatrixElementCache.html#ac6191cd01c85dd9cf28a373b524f0b1b" target="_top" xlink:title="Get matrix elements ////////////////////////////////////////////.">
<polygon fill="none" stroke="black" points="165,-24.5 165,-54.5 284,-54.5 284,-24.5 165,-24.5"/>
<text text-anchor="start" x="173" y="-42.5" font-family="Helvetica,sans-Serif" font-size="10.00">MatrixElementCache</text>
<text text-anchor="middle" x="224.5" y="-31.5" font-family="Helvetica,sans-Serif" font-size="10.00">::getElectricDipole</text>
</a>
</g>
</g>
<!-- Node1&#45;&gt;Node3 -->
<g id="edge2" class="edge">
<title>Node1&#45;&gt;Node3</title>
<path fill="none" stroke="midnightblue" d="M309.72,-52.67C301.19,-51.33 292.54,-49.98 284.18,-48.68"/>
<polygon fill="midnightblue" stroke="midnightblue" points="309.23,-56.13 319.65,-54.22 310.31,-49.22 309.23,-56.13"/>
</g>
<!-- Node4 -->
<g id="node4" class="node">
<title>Node4</title>
<g id="a_node4"><a xlink:href="classPerturbativeInteraction.html#a5c942e43241388b87491de1fa3c3bd7e" target="_top" xlink:title=" ">
<polygon fill="none" stroke="black" points="0,-49.5 0,-79.5 129,-79.5 129,-49.5 0,-49.5"/>
<text text-anchor="start" x="8" y="-67.5" font-family="Helvetica,sans-Serif" font-size="10.00">PerturbativeInteraction</text>
<text text-anchor="middle" x="64.5" y="-56.5" font-family="Helvetica,sans-Serif" font-size="10.00">::getC3</text>
</a>
</g>
</g>
<!-- Node3&#45;&gt;Node4 -->
<g id="edge3" class="edge">
<title>Node3&#45;&gt;Node4</title>
<path fill="none" stroke="midnightblue" d="M154.77,-50.37C146.26,-51.72 137.58,-53.09 129.15,-54.43"/>
<polygon fill="midnightblue" stroke="midnightblue" points="155.34,-53.83 164.67,-48.81 154.24,-46.92 155.34,-53.83"/>
</g>
<!-- Node5 -->
<g id="node5" class="node">
<title>Node5</title>
<g id="a_node5"><a xlink:href="classPerturbativeInteraction.html#aef0f5d43fdcf0377dc53e31730c99cb9" target="_top" xlink:title=" ">
<polygon fill="none" stroke="black" points="0,-0.5 0,-30.5 129,-30.5 129,-0.5 0,-0.5"/>
<text text-anchor="start" x="8" y="-18.5" font-family="Helvetica,sans-Serif" font-size="10.00">PerturbativeInteraction</text>
<text text-anchor="middle" x="64.5" y="-7.5" font-family="Helvetica,sans-Serif" font-size="10.00">::getC6</text>
</a>
</g>
</g>
<!-- Node3&#45;&gt;Node5 -->
<g id="edge4" class="edge">
<title>Node3&#45;&gt;Node5</title>
<path fill="none" stroke="midnightblue" d="M154.77,-29.06C146.26,-27.77 137.58,-26.45 129.15,-25.17"/>
<polygon fill="midnightblue" stroke="midnightblue" points="154.25,-32.52 164.67,-30.56 155.31,-25.6 154.25,-32.52"/>
</g>
</g>
</svg>
