<?xml version="1.0" encoding="UTF-8" standalone="no"?>
<!DOCTYPE svg PUBLIC "-//W3C//DTD SVG 1.1//EN"
 "http://www.w3.org/Graphics/SVG/1.1/DTD/svg11.dtd">
<!-- Generated by graphviz version 2.43.0 (0)
 -->
<!-- Title: StateOne::getReflected Pages: 1 -->
<svg width="295pt" height="218pt"
 viewBox="0.00 0.00 295.00 218.00" xmlns="http://www.w3.org/2000/svg" xmlns:xlink="http://www.w3.org/1999/xlink">
<g id="graph0" class="graph" transform="scale(1 1) rotate(0) translate(4 214)">
<title>StateOne::getReflected</title>
<!-- Node1 -->
<g id="node1" class="node">
<title>Node1</title>
<g id="a_node1"><a xlink:title=" ">
<polygon fill="#bfbfbf" stroke="black" points="0,-95.5 0,-114.5 130,-114.5 130,-95.5 0,-95.5"/>
<text text-anchor="middle" x="65" y="-102.5" font-family="Helvetica,sans-Serif" font-size="10.00">StateOne::getReflected</text>
</a>
</g>
</g>
<!-- Node2 -->
<g id="node2" class="node">
<title>Node2</title>
<g id="a_node2"><a xlink:href="classStateOne.html#aedba5bfce70f73fa324b9d5ae1115578" target="_top" xlink:title=" ">
<polygon fill="none" stroke="black" points="183.5,-190.5 183.5,-209.5 269.5,-209.5 269.5,-190.5 183.5,-190.5"/>
<text text-anchor="middle" x="226.5" y="-197.5" font-family="Helvetica,sans-Serif" font-size="10.00">StateOne::getJ</text>
</a>
</g>
</g>
<!-- Node1&#45;&gt;Node2 -->
<g id="edge1" class="edge">
<title>Node1&#45;&gt;Node2</title>
<path fill="none" stroke="midnightblue" d="M76.27,-114.74C93.53,-130.65 130.01,-162.29 166,-181 170.23,-183.2 174.76,-185.2 179.36,-187.01"/>
<polygon fill="midnightblue" stroke="midnightblue" points="178.24,-190.33 188.84,-190.46 180.63,-183.75 178.24,-190.33"/>
</g>
<!-- Node3 -->
<g id="node3" class="node">
<title>Node3</title>
<g id="a_node3"><a xlink:href="classStateOne.html#a3783cebe5bbd63f072caf8450fea4aca" target="_top" xlink:title=" ">
<polygon fill="none" stroke="black" points="182,-152.5 182,-171.5 271,-171.5 271,-152.5 182,-152.5"/>
<text text-anchor="middle" x="226.5" y="-159.5" font-family="Helvetica,sans-Serif" font-size="10.00">StateOne::getL</text>
</a>
</g>
</g>
<!-- Node1&#45;&gt;Node3 -->
<g id="edge2" class="edge">
<title>Node1&#45;&gt;Node3</title>
<path fill="none" stroke="midnightblue" d="M90.11,-114.58C110.29,-122.5 139.88,-133.87 166,-143 172.05,-145.11 178.47,-147.26 184.77,-149.32"/>
<polygon fill="midnightblue" stroke="midnightblue" points="183.92,-152.72 194.51,-152.45 186.07,-146.06 183.92,-152.72"/>
</g>
<!-- Node4 -->
<g id="node4" class="node">
<title>Node4</title>
<g id="a_node4"><a xlink:href="classStateOne.html#aab2b41262381d67893113ed6f5ad18bc" target="_top" xlink:title=" ">
<polygon fill="none" stroke="black" points="180.5,-114.5 180.5,-133.5 272.5,-133.5 272.5,-114.5 180.5,-114.5"/>
<text text-anchor="middle" x="226.5" y="-121.5" font-family="Helvetica,sans-Serif" font-size="10.00">StateOne::getM</text>
</a>
</g>
</g>
<!-- Node1&#45;&gt;Node4 -->
<g id="edge3" class="edge">
<title>Node1&#45;&gt;Node4</title>
<path fill="none" stroke="midnightblue" d="M130.42,-112.67C143.65,-114.25 157.47,-115.9 170.34,-117.43"/>
<polygon fill="midnightblue" stroke="midnightblue" points="170.09,-120.92 180.43,-118.63 170.92,-113.97 170.09,-120.92"/>
</g>
<!-- Node5 -->
<g id="node5" class="node">
<title>Node5</title>
<g id="a_node5"><a xlink:href="classStateOne.html#a7deae740570ef5262e7fd2d254a8c530" target="_top" xlink:title=" ">
<polygon fill="none" stroke="black" points="181,-76.5 181,-95.5 272,-95.5 272,-76.5 181,-76.5"/>
<text text-anchor="middle" x="226.5" y="-83.5" font-family="Helvetica,sans-Serif" font-size="10.00">StateOne::getN</text>
</a>
</g>
</g>
<!-- Node1&#45;&gt;Node5 -->
<g id="edge4" class="edge">
<title>Node1&#45;&gt;Node5</title>
<path fill="none" stroke="midnightblue" d="M130.42,-97.33C143.79,-95.73 157.76,-94.07 170.74,-92.52"/>
<polygon fill="midnightblue" stroke="midnightblue" points="171.4,-95.97 180.91,-91.31 170.57,-89.02 171.4,-95.97"/>
</g>
<!-- Node6 -->
<g id="node6" class="node">
<title>Node6</title>
<g id="a_node6"><a xlink:href="classStateOne.html#a45b245f5da0068df4ff72093c654da89" target="_top" xlink:title=" ">
<polygon fill="none" stroke="black" points="166,-38.5 166,-57.5 287,-57.5 287,-38.5 166,-38.5"/>
<text text-anchor="middle" x="226.5" y="-45.5" font-family="Helvetica,sans-Serif" font-size="10.00">StateOne::getSpecies</text>
</a>
</g>
</g>
<!-- Node1&#45;&gt;Node6 -->
<g id="edge5" class="edge">
<title>Node1&#45;&gt;Node6</title>
<path fill="none" stroke="midnightblue" d="M90.11,-95.42C110.29,-87.5 139.88,-76.13 166,-67 172.05,-64.89 178.47,-62.74 184.77,-60.68"/>
<polygon fill="midnightblue" stroke="midnightblue" points="186.07,-63.94 194.51,-57.55 183.92,-57.28 186.07,-63.94"/>
</g>
<!-- Node7 -->
<g id="node7" class="node">
<title>Node7</title>
<g id="a_node7"><a xlink:href="classStateOne.html#a7eafbf38814e11dc5875e8a0bc99051c" target="_top" xlink:title=" ">
<polygon fill="none" stroke="black" points="170,-0.5 170,-19.5 283,-19.5 283,-0.5 170,-0.5"/>
<text text-anchor="middle" x="226.5" y="-7.5" font-family="Helvetica,sans-Serif" font-size="10.00">StateOne::StateOne</text>
</a>
</g>
</g>
<!-- Node1&#45;&gt;Node7 -->
<g id="edge6" class="edge">
<title>Node1&#45;&gt;Node7</title>
<path fill="none" stroke="midnightblue" d="M76.27,-95.26C93.53,-79.35 130.01,-47.71 166,-29 170.23,-26.8 174.76,-24.8 179.36,-22.99"/>
<polygon fill="midnightblue" stroke="midnightblue" points="180.63,-26.25 188.84,-19.54 178.24,-19.67 180.63,-26.25"/>
</g>
</g>
</svg>
