<?xml version="1.0" encoding="UTF-8" standalone="no"?>
<!DOCTYPE svg PUBLIC "-//W3C//DTD SVG 1.1//EN"
 "http://www.w3.org/Graphics/SVG/1.1/DTD/svg11.dtd">
<!-- Generated by graphviz version 2.43.0 (0)
 -->
<!-- Title: sqlite::statement::prepare Pages: 1 -->
<svg width="514pt" height="104pt"
 viewBox="0.00 0.00 514.00 104.00" xmlns="http://www.w3.org/2000/svg" xmlns:xlink="http://www.w3.org/1999/xlink">
<g id="graph0" class="graph" transform="scale(1 1) rotate(0) translate(4 100)">
<title>sqlite::statement::prepare</title>
<!-- Node1 -->
<g id="node1" class="node">
<title>Node1</title>
<g id="a_node1"><a xlink:title="Prepare the statement.">
<polygon fill="#bfbfbf" stroke="black" points="400,-33 400,-63 506,-63 506,-33 400,-33"/>
<text text-anchor="start" x="408" y="-51" font-family="Helvetica,sans-Serif" font-size="10.00">sqlite::statement::</text>
<text text-anchor="middle" x="453" y="-40" font-family="Helvetica,sans-Serif" font-size="10.00">prepare</text>
</a>
</g>
</g>
<!-- Node2 -->
<g id="node2" class="node">
<title>Node2</title>
<g id="a_node2"><a xlink:href="classHamiltonianOne.html#a6a60cf7ca4f0af0566ce523e2d0915e0" target="_top" xlink:title=" ">
<polygon fill="none" stroke="black" points="228,-76.5 228,-95.5 354,-95.5 354,-76.5 228,-76.5"/>
<text text-anchor="middle" x="291" y="-83.5" font-family="Helvetica,sans-Serif" font-size="10.00">HamiltonianOne::build</text>
</a>
</g>
</g>
<!-- Node1&#45;&gt;Node2 -->
<g id="edge1" class="edge">
<title>Node1&#45;&gt;Node2</title>
<path fill="none" stroke="midnightblue" d="M389.65,-62.81C370.29,-67.41 349.48,-72.35 332.07,-76.48"/>
<polygon fill="midnightblue" stroke="midnightblue" points="390.69,-66.16 399.61,-60.44 389.07,-59.35 390.69,-66.16"/>
</g>
<!-- Node4 -->
<g id="node4" class="node">
<title>Node4</title>
<g id="a_node4"><a xlink:href="classHamiltonianTwo.html#aae02015e07387f58d5e7749698e62569" target="_top" xlink:title=" ">
<polygon fill="none" stroke="black" points="218,-38.5 218,-57.5 364,-57.5 364,-38.5 218,-38.5"/>
<text text-anchor="middle" x="291" y="-45.5" font-family="Helvetica,sans-Serif" font-size="10.00">HamiltonianTwo::calculate</text>
</a>
</g>
</g>
<!-- Node1&#45;&gt;Node4 -->
<g id="edge3" class="edge">
<title>Node1&#45;&gt;Node4</title>
<path fill="none" stroke="midnightblue" d="M389.35,-48C381.12,-48 372.63,-48 364.26,-48"/>
<polygon fill="midnightblue" stroke="midnightblue" points="389.61,-51.5 399.61,-48 389.61,-44.5 389.61,-51.5"/>
</g>
<!-- Node6 -->
<g id="node6" class="node">
<title>Node6</title>
<g id="a_node6"><a xlink:href="quantum__defect__test_8cpp.html#aace6ba66c48575e316611e6a42c23206" target="_top" xlink:title=" ">
<polygon fill="none" stroke="black" points="255.5,-0.5 255.5,-19.5 326.5,-19.5 326.5,-0.5 255.5,-0.5"/>
<text text-anchor="middle" x="291" y="-7.5" font-family="Helvetica,sans-Serif" font-size="10.00">TEST_CASE</text>
</a>
</g>
</g>
<!-- Node1&#45;&gt;Node6 -->
<g id="edge5" class="edge">
<title>Node1&#45;&gt;Node6</title>
<path fill="none" stroke="midnightblue" d="M389.63,-33.19C368.3,-28.12 345.2,-22.64 326.83,-18.27"/>
<polygon fill="midnightblue" stroke="midnightblue" points="389.07,-36.65 399.61,-35.56 390.69,-29.84 389.07,-36.65"/>
</g>
<!-- Node3 -->
<g id="node3" class="node">
<title>Node3</title>
<g id="a_node3"><a xlink:href="classHamiltonianOne.html#a8f603206e4305d3340a1be6e7c2e51d6" target="_top" xlink:title=" ">
<polygon fill="none" stroke="black" points="0,-76.5 0,-95.5 182,-95.5 182,-76.5 0,-76.5"/>
<text text-anchor="middle" x="91" y="-83.5" font-family="Helvetica,sans-Serif" font-size="10.00">HamiltonianOne::HamiltonianOne</text>
</a>
</g>
</g>
<!-- Node2&#45;&gt;Node3 -->
<g id="edge2" class="edge">
<title>Node2&#45;&gt;Node3</title>
<path fill="none" stroke="midnightblue" d="M217.86,-86C206.26,-86 194.12,-86 182.16,-86"/>
<polygon fill="midnightblue" stroke="midnightblue" points="217.89,-89.5 227.89,-86 217.89,-82.5 217.89,-89.5"/>
</g>
<!-- Node5 -->
<g id="node5" class="node">
<title>Node5</title>
<g id="a_node5"><a xlink:href="classHamiltonianTwo.html#a866502c7ad1a5a2a3f36dbf63e9ef619" target="_top" xlink:title=" ">
<polygon fill="none" stroke="black" points="1,-38.5 1,-57.5 181,-57.5 181,-38.5 1,-38.5"/>
<text text-anchor="middle" x="91" y="-45.5" font-family="Helvetica,sans-Serif" font-size="10.00">HamiltonianTwo::HamiltonianTwo</text>
</a>
</g>
</g>
<!-- Node4&#45;&gt;Node5 -->
<g id="edge4" class="edge">
<title>Node4&#45;&gt;Node5</title>
<path fill="none" stroke="midnightblue" d="M207.76,-48C199,-48 190.05,-48 181.2,-48"/>
<polygon fill="midnightblue" stroke="midnightblue" points="207.96,-51.5 217.96,-48 207.96,-44.5 207.96,-51.5"/>
</g>
</g>
</svg>
