<?xml version="1.0" encoding="UTF-8" standalone="no"?>
<!DOCTYPE svg PUBLIC "-//W3C//DTD SVG 1.1//EN"
 "http://www.w3.org/Graphics/SVG/1.1/DTD/svg11.dtd">
<!-- Generated by graphviz version 2.43.0 (0)
 -->
<!-- Title: StateOne::StateOne Pages: 1 -->
<svg width="278pt" height="218pt"
 viewBox="0.00 0.00 278.00 218.00" xmlns="http://www.w3.org/2000/svg" xmlns:xlink="http://www.w3.org/1999/xlink">
<g id="graph0" class="graph" transform="scale(1 1) rotate(0) translate(4 214)">
<title>StateOne::StateOne</title>
<!-- Node1 -->
<g id="node1" class="node">
<title>Node1</title>
<g id="a_node1"><a xlink:title="Implementation of one&#45;atom state ///////////////////////////////.">
<polygon fill="#bfbfbf" stroke="black" points="0,-95.5 0,-114.5 113,-114.5 113,-95.5 0,-95.5"/>
<text text-anchor="middle" x="56.5" y="-102.5" font-family="Helvetica,sans-Serif" font-size="10.00">StateOne::StateOne</text>
</a>
</g>
</g>
<!-- Node2 -->
<g id="node2" class="node">
<title>Node2</title>
<g id="a_node2"><a xlink:href="classStateOne.html#aedba5bfce70f73fa324b9d5ae1115578" target="_top" xlink:title=" ">
<polygon fill="none" stroke="black" points="166.5,-190.5 166.5,-209.5 252.5,-209.5 252.5,-190.5 166.5,-190.5"/>
<text text-anchor="middle" x="209.5" y="-197.5" font-family="Helvetica,sans-Serif" font-size="10.00">StateOne::getJ</text>
</a>
</g>
</g>
<!-- Node1&#45;&gt;Node2 -->
<g id="edge1" class="edge">
<title>Node1&#45;&gt;Node2</title>
<path fill="none" stroke="midnightblue" d="M66.48,-114.54C81.92,-130.45 115.13,-162.45 149,-181 152.96,-183.17 157.2,-185.13 161.54,-186.91"/>
<polygon fill="midnightblue" stroke="midnightblue" points="160.49,-190.25 171.08,-190.48 162.94,-183.7 160.49,-190.25"/>
</g>
<!-- Node3 -->
<g id="node3" class="node">
<title>Node3</title>
<g id="a_node3"><a xlink:href="classStateOne.html#a3783cebe5bbd63f072caf8450fea4aca" target="_top" xlink:title=" ">
<polygon fill="none" stroke="black" points="165,-152.5 165,-171.5 254,-171.5 254,-152.5 165,-152.5"/>
<text text-anchor="middle" x="209.5" y="-159.5" font-family="Helvetica,sans-Serif" font-size="10.00">StateOne::getL</text>
</a>
</g>
</g>
<!-- Node1&#45;&gt;Node3 -->
<g id="edge2" class="edge">
<title>Node1&#45;&gt;Node3</title>
<path fill="none" stroke="midnightblue" d="M79.11,-114.58C97.52,-122.6 124.78,-134.12 149,-143 154.88,-145.16 161.13,-147.31 167.3,-149.34"/>
<polygon fill="midnightblue" stroke="midnightblue" points="166.24,-152.68 176.83,-152.44 168.4,-146.02 166.24,-152.68"/>
</g>
<!-- Node4 -->
<g id="node4" class="node">
<title>Node4</title>
<g id="a_node4"><a xlink:href="classStateOne.html#aab2b41262381d67893113ed6f5ad18bc" target="_top" xlink:title=" ">
<polygon fill="none" stroke="black" points="163.5,-114.5 163.5,-133.5 255.5,-133.5 255.5,-114.5 163.5,-114.5"/>
<text text-anchor="middle" x="209.5" y="-121.5" font-family="Helvetica,sans-Serif" font-size="10.00">StateOne::getM</text>
</a>
</g>
</g>
<!-- Node1&#45;&gt;Node4 -->
<g id="edge3" class="edge">
<title>Node1&#45;&gt;Node4</title>
<path fill="none" stroke="midnightblue" d="M113.3,-112.02C126.29,-113.66 140.12,-115.4 153.1,-117.03"/>
<polygon fill="midnightblue" stroke="midnightblue" points="152.93,-120.54 163.29,-118.31 153.8,-113.59 152.93,-120.54"/>
</g>
<!-- Node5 -->
<g id="node5" class="node">
<title>Node5</title>
<g id="a_node5"><a xlink:href="classStateOne.html#a7deae740570ef5262e7fd2d254a8c530" target="_top" xlink:title=" ">
<polygon fill="none" stroke="black" points="164,-76.5 164,-95.5 255,-95.5 255,-76.5 164,-76.5"/>
<text text-anchor="middle" x="209.5" y="-83.5" font-family="Helvetica,sans-Serif" font-size="10.00">StateOne::getN</text>
</a>
</g>
</g>
<!-- Node1&#45;&gt;Node5 -->
<g id="edge4" class="edge">
<title>Node1&#45;&gt;Node5</title>
<path fill="none" stroke="midnightblue" d="M113.3,-97.98C126.42,-96.33 140.4,-94.57 153.49,-92.92"/>
<polygon fill="midnightblue" stroke="midnightblue" points="154.28,-96.35 163.77,-91.63 153.41,-89.4 154.28,-96.35"/>
</g>
<!-- Node6 -->
<g id="node6" class="node">
<title>Node6</title>
<g id="a_node6"><a xlink:href="classStateOne.html#a45b245f5da0068df4ff72093c654da89" target="_top" xlink:title=" ">
<polygon fill="none" stroke="black" points="149,-38.5 149,-57.5 270,-57.5 270,-38.5 149,-38.5"/>
<text text-anchor="middle" x="209.5" y="-45.5" font-family="Helvetica,sans-Serif" font-size="10.00">StateOne::getSpecies</text>
</a>
</g>
</g>
<!-- Node1&#45;&gt;Node6 -->
<g id="edge5" class="edge">
<title>Node1&#45;&gt;Node6</title>
<path fill="none" stroke="midnightblue" d="M79.11,-95.42C97.52,-87.4 124.78,-75.88 149,-67 154.88,-64.84 161.13,-62.69 167.3,-60.66"/>
<polygon fill="midnightblue" stroke="midnightblue" points="168.4,-63.98 176.83,-57.56 166.24,-57.32 168.4,-63.98"/>
</g>
<!-- Node7 -->
<g id="node7" class="node">
<title>Node7</title>
<g id="a_node7"><a xlink:href="namespaceutils.html#a11e4074d431e26fbbeaf9b97d42f26dd" target="_top" xlink:title="Combine hashes.">
<polygon fill="none" stroke="black" points="152.5,-0.5 152.5,-19.5 266.5,-19.5 266.5,-0.5 152.5,-0.5"/>
<text text-anchor="middle" x="209.5" y="-7.5" font-family="Helvetica,sans-Serif" font-size="10.00">utils::hash_combine</text>
</a>
</g>
</g>
<!-- Node1&#45;&gt;Node7 -->
<g id="edge6" class="edge">
<title>Node1&#45;&gt;Node7</title>
<path fill="none" stroke="midnightblue" d="M66.48,-95.46C81.92,-79.55 115.13,-47.55 149,-29 152.96,-26.83 157.2,-24.87 161.54,-23.09"/>
<polygon fill="midnightblue" stroke="midnightblue" points="162.94,-26.3 171.08,-19.52 160.49,-19.75 162.94,-26.3"/>
</g>
</g>
</svg>
