<?xml version="1.0" encoding="UTF-8" standalone="no"?>
<!DOCTYPE svg PUBLIC "-//W3C//DTD SVG 1.1//EN"
 "http://www.w3.org/Graphics/SVG/1.1/DTD/svg11.dtd">
<!-- Generated by graphviz version 2.43.0 (0)
 -->
<!-- Title: HamiltonianTwo::HamiltonianTwo Pages: 1 -->
<svg width="749pt" height="879pt"
 viewBox="0.00 0.00 749.00 878.50" xmlns="http://www.w3.org/2000/svg" xmlns:xlink="http://www.w3.org/1999/xlink">
<g id="graph0" class="graph" transform="scale(1 1) rotate(0) translate(4 874.5)">
<title>HamiltonianTwo::HamiltonianTwo</title>
<!-- Node1 -->
<g id="node1" class="node">
<title>Node1</title>
<g id="a_node1"><a xlink:title=" ">
<polygon fill="#bfbfbf" stroke="black" points="0,-436.5 0,-455.5 180,-455.5 180,-436.5 0,-436.5"/>
<text text-anchor="middle" x="90" y="-443.5" font-family="Helvetica,sans-Serif" font-size="10.00">HamiltonianTwo::HamiltonianTwo</text>
</a>
</g>
</g>
<!-- Node2 -->
<g id="node2" class="node">
<title>Node2</title>
<g id="a_node2"><a xlink:href="classHamiltonianTwo.html#aae02015e07387f58d5e7749698e62569" target="_top" xlink:title=" ">
<polygon fill="none" stroke="black" points="216,-436.5 216,-455.5 362,-455.5 362,-436.5 216,-436.5"/>
<text text-anchor="middle" x="289" y="-443.5" font-family="Helvetica,sans-Serif" font-size="10.00">HamiltonianTwo::calculate</text>
</a>
</g>
</g>
<!-- Node1&#45;&gt;Node2 -->
<g id="edge1" class="edge">
<title>Node1&#45;&gt;Node2</title>
<path fill="none" stroke="midnightblue" d="M180.28,-446C188.75,-446 197.31,-446 205.7,-446"/>
<polygon fill="midnightblue" stroke="midnightblue" points="205.85,-449.5 215.85,-446 205.85,-442.5 205.85,-449.5"/>
</g>
<!-- Node3 -->
<g id="node3" class="node">
<title>Node3</title>
<g id="a_node3"><a xlink:href="classHamiltonianmatrix.html#a380eba3c9bd10bda4cf48b4f3c751831" target="_top" xlink:title=" ">
<polygon fill="none" stroke="black" points="430,-840 430,-870 545,-870 545,-840 430,-840"/>
<text text-anchor="start" x="438" y="-858" font-family="Helvetica,sans-Serif" font-size="10.00">Hamiltonianmatrix::</text>
<text text-anchor="middle" x="487.5" y="-847" font-family="Helvetica,sans-Serif" font-size="10.00">basis</text>
</a>
</g>
</g>
<!-- Node2&#45;&gt;Node3 -->
<g id="edge2" class="edge">
<title>Node2&#45;&gt;Node3</title>
<path fill="none" stroke="midnightblue" d="M289.52,-455.75C287.72,-504.11 286.34,-720.3 398,-831 404.32,-837.27 412.11,-841.95 420.42,-845.43"/>
<polygon fill="midnightblue" stroke="midnightblue" points="419.38,-848.77 429.97,-848.87 421.75,-842.18 419.38,-848.77"/>
</g>
<!-- Node4 -->
<g id="node4" class="node">
<title>Node4</title>
<g id="a_node4"><a xlink:href="classHamiltonianmatrix.html#a6ec6a4af8a9fc3a166d39a5716d5cbf0" target="_top" xlink:title=" ">
<polygon fill="none" stroke="black" points="430,-791 430,-821 545,-821 545,-791 430,-791"/>
<text text-anchor="start" x="438" y="-809" font-family="Helvetica,sans-Serif" font-size="10.00">Hamiltonianmatrix::</text>
<text text-anchor="middle" x="487.5" y="-798" font-family="Helvetica,sans-Serif" font-size="10.00">changeBasis</text>
</a>
</g>
</g>
<!-- Node2&#45;&gt;Node4 -->
<g id="edge3" class="edge">
<title>Node2&#45;&gt;Node4</title>
<path fill="none" stroke="midnightblue" d="M290.02,-455.64C290.64,-499.94 299.24,-685.78 398,-781 404.35,-787.12 412.07,-791.76 420.29,-795.28"/>
<polygon fill="midnightblue" stroke="midnightblue" points="419.13,-798.58 429.72,-798.79 421.57,-792.02 419.13,-798.58"/>
</g>
<!-- Node5 -->
<g id="node5" class="node">
<title>Node5</title>
<g id="a_node5"><a xlink:href="Hamiltonianmatrix_8cpp.html#add3d976c2b83cb55a2ec58707a1cca2c" target="_top" xlink:title=" ">
<polygon fill="none" stroke="black" points="458,-752.5 458,-771.5 517,-771.5 517,-752.5 458,-752.5"/>
<text text-anchor="middle" x="487.5" y="-759.5" font-family="Helvetica,sans-Serif" font-size="10.00">combine</text>
</a>
</g>
</g>
<!-- Node2&#45;&gt;Node5 -->
<g id="edge4" class="edge">
<title>Node2&#45;&gt;Node5</title>
<path fill="none" stroke="midnightblue" d="M290.32,-455.53C292.27,-496.91 305.75,-662.62 398,-743 411.54,-754.8 430.63,-759.85 447.61,-761.83"/>
<polygon fill="midnightblue" stroke="midnightblue" points="447.59,-765.34 457.85,-762.69 448.18,-758.36 447.59,-765.34"/>
</g>
<!-- Node6 -->
<g id="node6" class="node">
<title>Node6</title>
<g id="a_node6"><a xlink:href="classHamiltonianmatrix.html#a999f039fe247710f679faf730701ae1a" target="_top" xlink:title=" ">
<polygon fill="none" stroke="black" points="430,-703 430,-733 545,-733 545,-703 430,-703"/>
<text text-anchor="start" x="438" y="-721" font-family="Helvetica,sans-Serif" font-size="10.00">Hamiltonianmatrix::</text>
<text text-anchor="middle" x="487.5" y="-710" font-family="Helvetica,sans-Serif" font-size="10.00">diagonalize</text>
</a>
</g>
</g>
<!-- Node2&#45;&gt;Node6 -->
<g id="edge5" class="edge">
<title>Node2&#45;&gt;Node6</title>
<path fill="none" stroke="midnightblue" d="M291.24,-455.51C296.52,-492.16 320.56,-625.5 398,-693 404.49,-698.66 412.17,-703.04 420.25,-706.43"/>
<polygon fill="midnightblue" stroke="midnightblue" points="419.28,-709.8 429.87,-709.98 421.7,-703.24 419.28,-709.8"/>
</g>
<!-- Node7 -->
<g id="node7" class="node">
<title>Node7</title>
<g id="a_node7"><a xlink:href="Hamiltonianmatrix_8cpp.html#a58f0d616238b3fa0fdc43567941a2a82" target="_top" xlink:title=" ">
<polygon fill="none" stroke="black" points="448,-664.5 448,-683.5 527,-683.5 527,-664.5 448,-664.5"/>
<text text-anchor="middle" x="487.5" y="-671.5" font-family="Helvetica,sans-Serif" font-size="10.00">energycutoff</text>
</a>
</g>
</g>
<!-- Node2&#45;&gt;Node7 -->
<g id="edge6" class="edge">
<title>Node2&#45;&gt;Node7</title>
<path fill="none" stroke="midnightblue" d="M291.95,-455.79C299.21,-489.47 327.91,-601.42 398,-655 409.35,-663.68 423.81,-668.59 437.72,-671.31"/>
<polygon fill="midnightblue" stroke="midnightblue" points="437.28,-674.79 447.71,-672.93 438.4,-667.88 437.28,-674.79"/>
</g>
<!-- Node8 -->
<g id="node8" class="node">
<title>Node8</title>
<g id="a_node8"><a xlink:href="classsqlite_1_1statement.html#add6b491603e9505c82779ad762f72888" target="_top" xlink:title="Execute SQLite statements.">
<polygon fill="none" stroke="black" points="423,-626.5 423,-645.5 552,-645.5 552,-626.5 423,-626.5"/>
<text text-anchor="middle" x="487.5" y="-633.5" font-family="Helvetica,sans-Serif" font-size="10.00">sqlite::statement::exec</text>
</a>
</g>
</g>
<!-- Node2&#45;&gt;Node8 -->
<g id="edge7" class="edge">
<title>Node2&#45;&gt;Node8</title>
<path fill="none" stroke="midnightblue" d="M293.07,-455.64C302.95,-485.08 336.96,-574.39 398,-617 402.79,-620.34 408.05,-623.11 413.55,-625.41"/>
<polygon fill="midnightblue" stroke="midnightblue" points="412.39,-628.71 422.98,-628.85 414.78,-622.14 412.39,-628.71"/>
</g>
<!-- Node9 -->
<g id="node9" class="node">
<title>Node9</title>
<g id="a_node9"><a xlink:href="classStateTwoOld.html#aad5fb4307dec316a5b602c2e8bfae0a8" target="_top" xlink:title=" ">
<polygon fill="none" stroke="black" points="436,-588.5 436,-607.5 539,-607.5 539,-588.5 436,-588.5"/>
<text text-anchor="middle" x="487.5" y="-595.5" font-family="Helvetica,sans-Serif" font-size="10.00">StateTwoOld::first</text>
</a>
</g>
</g>
<!-- Node2&#45;&gt;Node9 -->
<g id="edge8" class="edge">
<title>Node2&#45;&gt;Node9</title>
<path fill="none" stroke="midnightblue" d="M294.77,-455.57C307.66,-480.37 345.77,-546.97 398,-579 406.44,-584.18 416.09,-587.95 425.83,-590.71"/>
<polygon fill="midnightblue" stroke="midnightblue" points="425.02,-594.12 435.57,-593.14 426.72,-587.32 425.02,-594.12"/>
</g>
<!-- Node10 -->
<g id="node10" class="node">
<title>Node10</title>
<g id="a_node10"><a xlink:href="classBasisnamesOne.html#a37fe3571090885a8a594eed4019befa9" target="_top" xlink:title=" ">
<polygon fill="none" stroke="black" points="415,-550.5 415,-569.5 560,-569.5 560,-550.5 415,-550.5"/>
<text text-anchor="middle" x="487.5" y="-557.5" font-family="Helvetica,sans-Serif" font-size="10.00">BasisnamesOne::fromFirst</text>
</a>
</g>
</g>
<!-- Node2&#45;&gt;Node10 -->
<g id="edge9" class="edge">
<title>Node2&#45;&gt;Node10</title>
<path fill="none" stroke="midnightblue" d="M297.81,-455.58C314.2,-474.99 354.28,-518.99 398,-541 402.82,-543.43 407.95,-545.55 413.21,-547.4"/>
<polygon fill="midnightblue" stroke="midnightblue" points="412.19,-550.75 422.78,-550.44 414.31,-544.08 412.19,-550.75"/>
</g>
<!-- Node12 -->
<g id="node12" class="node">
<title>Node12</title>
<g id="a_node12"><a xlink:href="classBasisnamesOne.html#a683ae34cba3c56f9a0185e932de62078" target="_top" xlink:title=" ">
<polygon fill="none" stroke="black" points="407.5,-512.5 407.5,-531.5 567.5,-531.5 567.5,-512.5 407.5,-512.5"/>
<text text-anchor="middle" x="487.5" y="-519.5" font-family="Helvetica,sans-Serif" font-size="10.00">BasisnamesOne::fromSecond</text>
</a>
</g>
</g>
<!-- Node2&#45;&gt;Node12 -->
<g id="edge11" class="edge">
<title>Node2&#45;&gt;Node12</title>
<path fill="none" stroke="midnightblue" d="M305.12,-455.7C325.46,-468.35 363.13,-490.33 398,-503 405.27,-505.64 413.02,-507.97 420.78,-510.01"/>
<polygon fill="midnightblue" stroke="midnightblue" points="420.06,-513.43 430.61,-512.43 421.74,-506.64 420.06,-513.43"/>
</g>
<!-- Node13 -->
<g id="node13" class="node">
<title>Node13</title>
<g id="a_node13"><a xlink:href="classsqlite_1_1statement.html#a881b89458af4ea9bde7a80e416f53903" target="_top" xlink:title="Get value of a field.">
<polygon fill="none" stroke="black" points="426.5,-474.5 426.5,-493.5 548.5,-493.5 548.5,-474.5 426.5,-474.5"/>
<text text-anchor="middle" x="487.5" y="-481.5" font-family="Helvetica,sans-Serif" font-size="10.00">sqlite::statement::get</text>
</a>
</g>
</g>
<!-- Node2&#45;&gt;Node13 -->
<g id="edge13" class="edge">
<title>Node2&#45;&gt;Node13</title>
<path fill="none" stroke="midnightblue" d="M339.33,-455.54C365.96,-460.69 399.03,-467.08 427.07,-472.51"/>
<polygon fill="midnightblue" stroke="midnightblue" points="426.67,-475.99 437.15,-474.46 427.99,-469.12 426.67,-475.99"/>
</g>
<!-- Node14 -->
<g id="node14" class="node">
<title>Node14</title>
<g id="a_node14"><a xlink:href="classMatrixElements.html#a6b21945229b04895c8a2e896454df444" target="_top" xlink:title=" ">
<polygon fill="none" stroke="black" points="407,-436.5 407,-455.5 568,-455.5 568,-436.5 407,-436.5"/>
<text text-anchor="middle" x="487.5" y="-443.5" font-family="Helvetica,sans-Serif" font-size="10.00">MatrixElements::getMultipole</text>
</a>
</g>
</g>
<!-- Node2&#45;&gt;Node14 -->
<g id="edge14" class="edge">
<title>Node2&#45;&gt;Node14</title>
<path fill="none" stroke="midnightblue" d="M362.05,-446C373.32,-446 385.08,-446 396.69,-446"/>
<polygon fill="midnightblue" stroke="midnightblue" points="396.83,-449.5 406.83,-446 396.83,-442.5 396.83,-449.5"/>
</g>
<!-- Node15 -->
<g id="node15" class="node">
<title>Node15</title>
<g id="a_node15"><a xlink:href="classHamiltonianmatrix.html#a0bd9dcb748a4503a929e7d49f8a825b9" target="_top" xlink:title=" ">
<polygon fill="none" stroke="black" points="419.5,-398.5 419.5,-417.5 555.5,-417.5 555.5,-398.5 419.5,-398.5"/>
<text text-anchor="middle" x="487.5" y="-405.5" font-family="Helvetica,sans-Serif" font-size="10.00">Hamiltonianmatrix::load</text>
</a>
</g>
</g>
<!-- Node2&#45;&gt;Node15 -->
<g id="edge15" class="edge">
<title>Node2&#45;&gt;Node15</title>
<path fill="none" stroke="midnightblue" d="M339.33,-436.46C365.96,-431.31 399.03,-424.92 427.07,-419.49"/>
<polygon fill="midnightblue" stroke="midnightblue" points="427.99,-422.88 437.15,-417.54 426.67,-416.01 427.99,-422.88"/>
</g>
<!-- Node16 -->
<g id="node16" class="node">
<title>Node16</title>
<g id="a_node16"><a xlink:href="classConfiguration.html#a545d28b3d64edc05331ee71898acfd1c" target="_top" xlink:title="Load configuration from JSON file.">
<polygon fill="none" stroke="black" points="432.5,-349 432.5,-379 542.5,-379 542.5,-349 432.5,-349"/>
<text text-anchor="start" x="440.5" y="-367" font-family="Helvetica,sans-Serif" font-size="10.00">Configuration::load</text>
<text text-anchor="middle" x="487.5" y="-356" font-family="Helvetica,sans-Serif" font-size="10.00">_from_json</text>
</a>
</g>
</g>
<!-- Node2&#45;&gt;Node16 -->
<g id="edge16" class="edge">
<title>Node2&#45;&gt;Node16</title>
<path fill="none" stroke="midnightblue" d="M305.6,-436.42C326.16,-424.11 363.75,-402.7 398,-389 405.78,-385.89 414.09,-383 422.38,-380.38"/>
<polygon fill="midnightblue" stroke="midnightblue" points="423.53,-383.69 432.07,-377.43 421.49,-376.99 423.53,-383.69"/>
</g>
<!-- Node17 -->
<g id="node17" class="node">
<title>Node17</title>
<g id="a_node17"><a xlink:href="classHamiltonianmatrix.html#a5f82781cc5ae99854e842cfc1a9bb4d5" target="_top" xlink:title=" ">
<polygon fill="none" stroke="black" points="430,-300 430,-330 545,-330 545,-300 430,-300"/>
<text text-anchor="start" x="438" y="-318" font-family="Helvetica,sans-Serif" font-size="10.00">Hamiltonianmatrix::</text>
<text text-anchor="middle" x="487.5" y="-307" font-family="Helvetica,sans-Serif" font-size="10.00">num_basisvectors</text>
</a>
</g>
</g>
<!-- Node2&#45;&gt;Node17 -->
<g id="edge17" class="edge">
<title>Node2&#45;&gt;Node17</title>
<path fill="none" stroke="midnightblue" d="M296.95,-436.48C312.6,-415.73 352.78,-366.24 398,-340 404.8,-336.06 412.25,-332.71 419.86,-329.86"/>
<polygon fill="midnightblue" stroke="midnightblue" points="421.23,-333.1 429.54,-326.53 418.95,-326.48 421.23,-333.1"/>
</g>
<!-- Node18 -->
<g id="node18" class="node">
<title>Node18</title>
<g id="a_node18"><a xlink:href="classMatrixElements.html#a9c1a327dedbd617cae43dbcff1685a43" target="_top" xlink:title=" ">
<polygon fill="none" stroke="black" points="407.5,-251 407.5,-281 567.5,-281 567.5,-251 407.5,-251"/>
<text text-anchor="start" x="415.5" y="-269" font-family="Helvetica,sans-Serif" font-size="10.00">MatrixElements::precalculate</text>
<text text-anchor="middle" x="487.5" y="-258" font-family="Helvetica,sans-Serif" font-size="10.00">Multipole</text>
</a>
</g>
</g>
<!-- Node2&#45;&gt;Node18 -->
<g id="edge18" class="edge">
<title>Node2&#45;&gt;Node18</title>
<path fill="none" stroke="midnightblue" d="M293.94,-436.27C305.51,-408.91 342.16,-330.76 398,-291 400.73,-289.06 403.61,-287.26 406.59,-285.61"/>
<polygon fill="midnightblue" stroke="midnightblue" points="408.4,-288.62 415.82,-281.05 405.3,-282.34 408.4,-288.62"/>
</g>
<!-- Node19 -->
<g id="node19" class="node">
<title>Node19</title>
<g id="a_node19"><a xlink:href="classsqlite_1_1statement.html#a1b40871fb975892f70ea097f7c6da9c1" target="_top" xlink:title="Prepare the statement.">
<polygon fill="none" stroke="black" points="434.5,-202 434.5,-232 540.5,-232 540.5,-202 434.5,-202"/>
<text text-anchor="start" x="442.5" y="-220" font-family="Helvetica,sans-Serif" font-size="10.00">sqlite::statement::</text>
<text text-anchor="middle" x="487.5" y="-209" font-family="Helvetica,sans-Serif" font-size="10.00">prepare</text>
</a>
</g>
</g>
<!-- Node2&#45;&gt;Node19 -->
<g id="edge19" class="edge">
<title>Node2&#45;&gt;Node19</title>
<path fill="none" stroke="midnightblue" d="M292.27,-436.15C300.36,-403.23 330.98,-296.15 398,-242 405.82,-235.68 415.16,-230.95 424.78,-227.42"/>
<polygon fill="midnightblue" stroke="midnightblue" points="426.03,-230.7 434.46,-224.28 423.87,-224.04 426.03,-230.7"/>
</g>
<!-- Node20 -->
<g id="node20" class="node">
<title>Node20</title>
<g id="a_node20"><a xlink:href="classHamiltonianmatrix.html#a54bf468687519cbdea0dcd7c7427dfa1" target="_top" xlink:title=" ">
<polygon fill="none" stroke="black" points="398,-153 398,-183 577,-183 577,-153 398,-153"/>
<text text-anchor="start" x="406" y="-171" font-family="Helvetica,sans-Serif" font-size="10.00">Hamiltonianmatrix::</text>
<text text-anchor="middle" x="487.5" y="-160" font-family="Helvetica,sans-Serif" font-size="10.00">removeUnnecessaryBasisvectors</text>
</a>
</g>
</g>
<!-- Node2&#45;&gt;Node20 -->
<g id="edge20" class="edge">
<title>Node2&#45;&gt;Node20</title>
<path fill="none" stroke="midnightblue" d="M291.16,-436.26C296.15,-398.74 319.28,-262.23 398,-193 399.94,-191.29 401.99,-189.7 404.13,-188.22"/>
<polygon fill="midnightblue" stroke="midnightblue" points="405.99,-191.18 412.75,-183.02 402.38,-185.19 405.99,-191.18"/>
</g>
<!-- Node21 -->
<g id="node21" class="node">
<title>Node21</title>
<g id="a_node21"><a xlink:href="classHamiltonianmatrix.html#aa16c272ac7162d987e851a678e9ff3c6" target="_top" xlink:title=" ">
<polygon fill="none" stroke="black" points="418.5,-114.5 418.5,-133.5 556.5,-133.5 556.5,-114.5 418.5,-114.5"/>
<text text-anchor="middle" x="487.5" y="-121.5" font-family="Helvetica,sans-Serif" font-size="10.00">Hamiltonianmatrix::save</text>
</a>
</g>
</g>
<!-- Node2&#45;&gt;Node21 -->
<g id="edge21" class="edge">
<title>Node2&#45;&gt;Node21</title>
<path fill="none" stroke="midnightblue" d="M290.29,-436.34C292.08,-394.38 305.04,-226.32 398,-144 401.41,-140.98 405.18,-138.39 409.18,-136.17"/>
<polygon fill="midnightblue" stroke="midnightblue" points="410.72,-139.31 418.26,-131.87 407.73,-132.98 410.72,-139.31"/>
</g>
<!-- Node22 -->
<g id="node22" class="node">
<title>Node22</title>
<g id="a_node22"><a xlink:href="classStateTwoOld.html#a6efa9c8f92e433004b778f6f5ce212d9" target="_top" xlink:title=" ">
<polygon fill="none" stroke="black" points="428.5,-76.5 428.5,-95.5 546.5,-95.5 546.5,-76.5 428.5,-76.5"/>
<text text-anchor="middle" x="487.5" y="-83.5" font-family="Helvetica,sans-Serif" font-size="10.00">StateTwoOld::second</text>
</a>
</g>
</g>
<!-- Node2&#45;&gt;Node22 -->
<g id="edge22" class="edge">
<title>Node2&#45;&gt;Node22</title>
<path fill="none" stroke="midnightblue" d="M289.82,-436.34C289.53,-391.18 294.61,-198.98 398,-105 404.03,-99.51 411.26,-95.47 418.95,-92.51"/>
<polygon fill="midnightblue" stroke="midnightblue" points="420.06,-95.83 428.5,-89.42 417.91,-89.17 420.06,-95.83"/>
</g>
<!-- Node23 -->
<g id="node23" class="node">
<title>Node23</title>
<g id="a_node23"><a xlink:href="MatrixElements_8cpp.html#a8091d5442eeac91702ef15b470e70798" target="_top" xlink:title=" ">
<polygon fill="none" stroke="black" points="420.5,-38.5 420.5,-57.5 554.5,-57.5 554.5,-38.5 420.5,-38.5"/>
<text text-anchor="middle" x="487.5" y="-45.5" font-family="Helvetica,sans-Serif" font-size="10.00">selectionRulesMultipole</text>
</a>
</g>
</g>
<!-- Node2&#45;&gt;Node23 -->
<g id="edge23" class="edge">
<title>Node2&#45;&gt;Node23</title>
<path fill="none" stroke="midnightblue" d="M291.39,-436.38C299.34,-382.7 340.68,-120.65 398,-67 401.85,-63.4 406.2,-60.42 410.87,-57.95"/>
<polygon fill="midnightblue" stroke="midnightblue" points="412.45,-61.08 420.17,-53.82 409.61,-54.68 412.45,-61.08"/>
</g>
<!-- Node24 -->
<g id="node24" class="node">
<title>Node24</title>
<g id="a_node24"><a xlink:href="classsqlite_1_1statement.html#a0ef0c0c1fd66918b9a9c6167fd2e668f" target="_top" xlink:title="Step the statement.">
<polygon fill="none" stroke="black" points="424,-0.5 424,-19.5 551,-19.5 551,-0.5 424,-0.5"/>
<text text-anchor="middle" x="487.5" y="-7.5" font-family="Helvetica,sans-Serif" font-size="10.00">sqlite::statement::step</text>
</a>
</g>
</g>
<!-- Node2&#45;&gt;Node24 -->
<g id="edge24" class="edge">
<title>Node2&#45;&gt;Node24</title>
<path fill="none" stroke="midnightblue" d="M291.15,-436.19C298.05,-378.95 335.79,-88.65 398,-29 402.69,-24.5 408.17,-20.96 414.07,-18.19"/>
<polygon fill="midnightblue" stroke="midnightblue" points="415.6,-21.35 423.63,-14.43 413.04,-14.83 415.6,-21.35"/>
</g>
<!-- Node11 -->
<g id="node11" class="node">
<title>Node11</title>
<g id="a_node11"><a xlink:href="classBasisnames.html#a534f7e2dcc2987a1f969cb89c070da04" target="_top" xlink:title=" ">
<polygon fill="none" stroke="black" points="613,-531.5 613,-550.5 741,-550.5 741,-531.5 613,-531.5"/>
<text text-anchor="middle" x="677" y="-538.5" font-family="Helvetica,sans-Serif" font-size="10.00">Basisnames::configure</text>
</a>
</g>
</g>
<!-- Node10&#45;&gt;Node11 -->
<g id="edge10" class="edge">
<title>Node10&#45;&gt;Node11</title>
<path fill="none" stroke="midnightblue" d="M560.19,-552.74C574.16,-551.32 588.83,-549.83 602.86,-548.41"/>
<polygon fill="midnightblue" stroke="midnightblue" points="603.34,-551.88 612.93,-547.39 602.63,-544.92 603.34,-551.88"/>
</g>
<!-- Node12&#45;&gt;Node11 -->
<g id="edge12" class="edge">
<title>Node12&#45;&gt;Node11</title>
<path fill="none" stroke="midnightblue" d="M567.75,-530.03C579.42,-531.21 591.4,-532.43 602.94,-533.6"/>
<polygon fill="midnightblue" stroke="midnightblue" points="602.65,-537.08 612.95,-534.61 603.35,-530.12 602.65,-537.08"/>
</g>
</g>
</svg>
