<?xml version="1.0" encoding="UTF-8" standalone="no"?>
<!DOCTYPE svg PUBLIC "-//W3C//DTD SVG 1.1//EN"
 "http://www.w3.org/Graphics/SVG/1.1/DTD/svg11.dtd">
<!-- Generated by graphviz version 2.43.0 (0)
 -->
<!-- Title: SystemBase&lt; Scalar, State &gt; Pages: 1 -->
<svg width="427pt" height="432pt"
 viewBox="0.00 0.00 427.00 432.31" xmlns="http://www.w3.org/2000/svg" xmlns:xlink="http://www.w3.org/1999/xlink">
<g id="graph0" class="graph" transform="scale(1 1) rotate(0) translate(4 428.31)">
<title>SystemBase&lt; Scalar, State &gt;</title>
<!-- Node1 -->
<g id="node1" class="node">
<title>Node1</title>
<g id="a_node1"><a xlink:title=" ">
<polygon fill="#bfbfbf" stroke="black" points="297,-175.31 297,-205.31 419,-205.31 419,-175.31 297,-175.31"/>
<text text-anchor="start" x="305" y="-193.31" font-family="Helvetica,sans-Serif" font-size="10.00">SystemBase&lt; Scalar,</text>
<text text-anchor="middle" x="358" y="-182.31" font-family="Helvetica,sans-Serif" font-size="10.00"> State &gt;</text>
</a>
</g>
</g>
<!-- Node2 -->
<g id="node2" class="node">
<title>Node2</title>
<g id="a_node2"><a xlink:title=" ">
<polygon fill="none" stroke="#bfbfbf" points="27,-393.81 27,-412.81 107,-412.81 107,-393.81 27,-393.81"/>
<text text-anchor="middle" x="67" y="-400.81" font-family="Helvetica,sans-Serif" font-size="10.00">set&lt; State &gt;</text>
</a>
</g>
</g>
<!-- Node2&#45;&gt;Node1 -->
<g id="edge1" class="edge">
<title>Node2&#45;&gt;Node1</title>
<path fill="none" stroke="#9a32cd" stroke-dasharray="5,2" d="M117.4,-411.54C163.76,-416.41 232.71,-416.03 279,-381.31 337.46,-337.47 352.28,-242.21 355.89,-205.32"/>
<polygon fill="#9a32cd" stroke="#9a32cd" points="117.63,-408.04 107.29,-410.35 116.82,-414.99 117.63,-408.04"/>
<text text-anchor="middle" x="215.5" y="-416.31" font-family="Helvetica,sans-Serif" font-size="10.00"> states_to_add</text>
</g>
<!-- Node3 -->
<g id="node3" class="node">
<title>Node3</title>
<g id="a_node3"><a xlink:title=" ">
<polygon fill="none" stroke="#bfbfbf" points="28.5,-348.81 28.5,-367.81 105.5,-367.81 105.5,-348.81 28.5,-348.81"/>
<text text-anchor="middle" x="67" y="-355.81" font-family="Helvetica,sans-Serif" font-size="10.00">set&lt; float &gt;</text>
</a>
</g>
</g>
<!-- Node3&#45;&gt;Node1 -->
<g id="edge2" class="edge">
<title>Node3&#45;&gt;Node1</title>
<path fill="none" stroke="#9a32cd" stroke-dasharray="5,2" d="M115.95,-358.42C169.86,-357.68 253.23,-353.64 279,-336.31 325.74,-304.87 346.63,-235.99 353.86,-205.43"/>
<polygon fill="#9a32cd" stroke="#9a32cd" points="115.88,-354.92 105.92,-358.53 115.95,-361.92 115.88,-354.92"/>
<text text-anchor="middle" x="215.5" y="-371.31" font-family="Helvetica,sans-Serif" font-size="10.00"> range_j</text>
<text text-anchor="middle" x="215.5" y="-360.31" font-family="Helvetica,sans-Serif" font-size="10.00">range_m</text>
</g>
<!-- Node4 -->
<g id="node4" class="node">
<title>Node4</title>
<g id="a_node4"><a xlink:title=" ">
<polygon fill="none" stroke="#bfbfbf" points="0,-259.81 0,-278.81 134,-278.81 134,-259.81 0,-259.81"/>
<text text-anchor="middle" x="67" y="-266.81" font-family="Helvetica,sans-Serif" font-size="10.00">SparseMatrix&lt; Scalar &gt;</text>
</a>
</g>
</g>
<!-- Node4&#45;&gt;Node1 -->
<g id="edge3" class="edge">
<title>Node4&#45;&gt;Node1</title>
<path fill="none" stroke="#9a32cd" stroke-dasharray="5,2" d="M144.28,-268.55C185.33,-266.02 236.16,-259.42 279,-243.31 302.14,-234.6 325.12,-217.73 340.08,-205.35"/>
<polygon fill="#9a32cd" stroke="#9a32cd" points="143.87,-265.06 134.07,-269.1 144.25,-272.05 143.87,-265.06"/>
<text text-anchor="middle" x="215.5" y="-325.31" font-family="Helvetica,sans-Serif" font-size="10.00"> basisvectors</text>
<text text-anchor="start" x="152" y="-314.31" font-family="Helvetica,sans-Serif" font-size="10.00">basisvectors_unperturbed</text>
<text text-anchor="middle" x="215.5" y="-303.31" font-family="Helvetica,sans-Serif" font-size="10.00">_cache</text>
<text text-anchor="middle" x="215.5" y="-292.31" font-family="Helvetica,sans-Serif" font-size="10.00">hamiltonian</text>
<text text-anchor="start" x="152" y="-281.31" font-family="Helvetica,sans-Serif" font-size="10.00">hamiltonian_unperturbed</text>
<text text-anchor="middle" x="215.5" y="-270.31" font-family="Helvetica,sans-Serif" font-size="10.00">_cache</text>
</g>
<!-- Node5 -->
<g id="node5" class="node">
<title>Node5</title>
<g id="a_node5"><a xlink:title=" ">
<polygon fill="none" stroke="#bfbfbf" points="42,-203.81 42,-222.81 92,-222.81 92,-203.81 42,-203.81"/>
<text text-anchor="middle" x="67" y="-210.81" font-family="Helvetica,sans-Serif" font-size="10.00">double</text>
</a>
</g>
</g>
<!-- Node5&#45;&gt;Node1 -->
<g id="edge4" class="edge">
<title>Node5&#45;&gt;Node1</title>
<path fill="none" stroke="#9a32cd" stroke-dasharray="5,2" d="M102.3,-210.58C150.2,-206.76 237.87,-199.79 296.79,-195.1"/>
<polygon fill="#9a32cd" stroke="#9a32cd" points="101.83,-207.1 92.14,-211.38 102.39,-214.08 101.83,-207.1"/>
<text text-anchor="middle" x="215.5" y="-231.31" font-family="Helvetica,sans-Serif" font-size="10.00"> energy_max</text>
<text text-anchor="middle" x="215.5" y="-220.31" font-family="Helvetica,sans-Serif" font-size="10.00">energy_min</text>
<text text-anchor="middle" x="215.5" y="-209.31" font-family="Helvetica,sans-Serif" font-size="10.00">threshold_for_sqnorm</text>
</g>
<!-- Node6 -->
<g id="node6" class="node">
<title>Node6</title>
<g id="a_node6"><a xlink:title=" ">
<polygon fill="none" stroke="#bfbfbf" points="33.5,-158.81 33.5,-177.81 100.5,-177.81 100.5,-158.81 33.5,-158.81"/>
<text text-anchor="middle" x="67" y="-165.81" font-family="Helvetica,sans-Serif" font-size="10.00">set&lt; int &gt;</text>
</a>
</g>
</g>
<!-- Node6&#45;&gt;Node1 -->
<g id="edge5" class="edge">
<title>Node6&#45;&gt;Node1</title>
<path fill="none" stroke="#9a32cd" stroke-dasharray="5,2" d="M110.77,-165.3C153.56,-163.04 221.14,-161.51 279,-169.31 288.73,-170.62 298.97,-172.78 308.71,-175.23"/>
<polygon fill="#9a32cd" stroke="#9a32cd" points="110.5,-161.8 100.71,-165.86 110.89,-168.79 110.5,-161.8"/>
<text text-anchor="middle" x="215.5" y="-183.31" font-family="Helvetica,sans-Serif" font-size="10.00"> range_l</text>
<text text-anchor="middle" x="215.5" y="-172.31" font-family="Helvetica,sans-Serif" font-size="10.00">range_n</text>
</g>
<!-- Node7 -->
<g id="node7" class="node">
<title>Node7</title>
<g id="a_node7"><a xlink:title=" ">
<polygon fill="none" stroke="#bfbfbf" points="48,-82.81 48,-101.81 86,-101.81 86,-82.81 48,-82.81"/>
<text text-anchor="middle" x="67" y="-89.81" font-family="Helvetica,sans-Serif" font-size="10.00">bool</text>
</a>
</g>
</g>
<!-- Node7&#45;&gt;Node1 -->
<g id="edge6" class="edge">
<title>Node7&#45;&gt;Node1</title>
<path fill="none" stroke="#9a32cd" stroke-dasharray="5,2" d="M96.13,-87.45C138.21,-81.56 219,-75.66 279,-104.31 311.2,-119.68 336.16,-154.91 348.5,-175.18"/>
<polygon fill="#9a32cd" stroke="#9a32cd" points="95.43,-84.01 86.06,-88.96 96.47,-90.93 95.43,-84.01"/>
<text text-anchor="start" x="159.5" y="-151.31" font-family="Helvetica,sans-Serif" font-size="10.00"> is_interaction_already</text>
<text text-anchor="middle" x="215.5" y="-140.31" font-family="Helvetica,sans-Serif" font-size="10.00">_contained</text>
<text text-anchor="start" x="159.5" y="-129.31" font-family="Helvetica,sans-Serif" font-size="10.00">is_new_hamiltonian</text>
<text text-anchor="middle" x="215.5" y="-118.31" font-family="Helvetica,sans-Serif" font-size="10.00">_required</text>
<text text-anchor="middle" x="215.5" y="-107.31" font-family="Helvetica,sans-Serif" font-size="10.00">memory_saving</text>
</g>
<!-- Node8 -->
<g id="node8" class="node">
<title>Node8</title>
<g id="a_node8"><a xlink:href="structstates__set.html" target="_top" xlink:title=" ">
<polygon fill="none" stroke="black" points="9.5,-44.81 9.5,-63.81 124.5,-63.81 124.5,-44.81 9.5,-44.81"/>
<text text-anchor="middle" x="67" y="-51.81" font-family="Helvetica,sans-Serif" font-size="10.00">states_set&lt; State &gt;</text>
</a>
</g>
</g>
<!-- Node8&#45;&gt;Node1 -->
<g id="edge7" class="edge">
<title>Node8&#45;&gt;Node1</title>
<path fill="none" stroke="#9a32cd" stroke-dasharray="5,2" d="M131.82,-43.76C176.12,-39.74 234.88,-41.24 279,-67.31 320.58,-91.87 343.54,-148.25 352.51,-175.3"/>
<polygon fill="#9a32cd" stroke="#9a32cd" points="131.33,-40.3 121.74,-44.8 132.04,-47.26 131.33,-40.3"/>
<text text-anchor="middle" x="215.5" y="-70.31" font-family="Helvetica,sans-Serif" font-size="10.00"> states</text>
</g>
<!-- Node9 -->
<g id="node9" class="node">
<title>Node9</title>
<g id="a_node9"><a xlink:href="classMatrixElementCache.html" target="_top" xlink:title=" ">
<polygon fill="none" stroke="black" points="7.5,-6.81 7.5,-25.81 126.5,-25.81 126.5,-6.81 7.5,-6.81"/>
<text text-anchor="middle" x="67" y="-13.81" font-family="Helvetica,sans-Serif" font-size="10.00">MatrixElementCache</text>
</a>
</g>
</g>
<!-- Node9&#45;&gt;Node1 -->
<g id="edge8" class="edge">
<title>Node9&#45;&gt;Node1</title>
<path fill="none" stroke="#9a32cd" stroke-dasharray="5,2" d="M118.29,-5.08C164.08,2.2 231.6,5.23 279,-26.31 331.5,-61.24 349.58,-141.69 354.97,-175.21"/>
<polygon fill="#9a32cd" stroke="#9a32cd" points="117.55,-1.65 108.29,-6.79 118.73,-8.55 117.55,-1.65"/>
<text text-anchor="middle" x="215.5" y="-29.31" font-family="Helvetica,sans-Serif" font-size="10.00"> m_cache</text>
</g>
</g>
</svg>
