<?xml version="1.0" encoding="UTF-8" standalone="no"?>
<!DOCTYPE svg PUBLIC "-//W3C//DTD SVG 1.1//EN"
 "http://www.w3.org/Graphics/SVG/1.1/DTD/svg11.dtd">
<!-- Generated by graphviz version 2.43.0 (0)
 -->
<!-- Title: MatrixElementCache::getDefectDB Pages: 1 -->
<svg width="280pt" height="66pt"
 viewBox="0.00 0.00 280.00 66.00" xmlns="http://www.w3.org/2000/svg" xmlns:xlink="http://www.w3.org/1999/xlink">
<g id="graph0" class="graph" transform="scale(1 1) rotate(0) translate(4 62)">
<title>MatrixElementCache::getDefectDB</title>
<!-- Node1 -->
<g id="node1" class="node">
<title>Node1</title>
<g id="a_node1"><a xlink:title=" ">
<polygon fill="#bfbfbf" stroke="black" points="153,-14 153,-44 272,-44 272,-14 153,-14"/>
<text text-anchor="start" x="161" y="-32" font-family="Helvetica,sans-Serif" font-size="10.00">MatrixElementCache</text>
<text text-anchor="middle" x="212.5" y="-21" font-family="Helvetica,sans-Serif" font-size="10.00">::getDefectDB</text>
</a>
</g>
</g>
<!-- Node2 -->
<g id="node2" class="node">
<title>Node2</title>
<g id="a_node2"><a xlink:href="classStateOne.html#a2088307e9207d0bdfa507f1636477df8" target="_top" xlink:title=" ">
<polygon fill="none" stroke="black" points="0,-38.5 0,-57.5 117,-57.5 117,-38.5 0,-38.5"/>
<text text-anchor="middle" x="58.5" y="-45.5" font-family="Helvetica,sans-Serif" font-size="10.00">StateOne::getEnergy</text>
</a>
</g>
</g>
<!-- Node1&#45;&gt;Node2 -->
<g id="edge1" class="edge">
<title>Node1&#45;&gt;Node2</title>
<path fill="none" stroke="midnightblue" d="M142.75,-37.59C134.18,-38.66 125.49,-39.75 117.11,-40.8"/>
<polygon fill="midnightblue" stroke="midnightblue" points="143.24,-41.06 152.73,-36.35 142.38,-34.11 143.24,-41.06"/>
</g>
<!-- Node3 -->
<g id="node3" class="node">
<title>Node3</title>
<g id="a_node3"><a xlink:href="classStateOne.html#a8ac9c00fea94bb20cbe397a97cf34f78" target="_top" xlink:title=" ">
<polygon fill="none" stroke="black" points="3.5,-0.5 3.5,-19.5 113.5,-19.5 113.5,-0.5 3.5,-0.5"/>
<text text-anchor="middle" x="58.5" y="-7.5" font-family="Helvetica,sans-Serif" font-size="10.00">StateOne::getNStar</text>
</a>
</g>
</g>
<!-- Node1&#45;&gt;Node3 -->
<g id="edge2" class="edge">
<title>Node1&#45;&gt;Node3</title>
<path fill="none" stroke="midnightblue" d="M142.67,-20.4C132.93,-19.18 123.04,-17.94 113.63,-16.77"/>
<polygon fill="midnightblue" stroke="midnightblue" points="142.38,-23.89 152.73,-21.65 143.24,-16.94 142.38,-23.89"/>
</g>
</g>
</svg>
