<?xml version="1.0" encoding="UTF-8" standalone="no"?>
<!DOCTYPE svg PUBLIC "-//W3C//DTD SVG 1.1//EN"
 "http://www.w3.org/Graphics/SVG/1.1/DTD/svg11.dtd">
<!-- Generated by graphviz version 2.43.0 (0)
 -->
<!-- Title: SystemBase::unitarize Pages: 1 -->
<svg width="420pt" height="47pt"
 viewBox="0.00 0.00 420.00 47.00" xmlns="http://www.w3.org/2000/svg" xmlns:xlink="http://www.w3.org/1999/xlink">
<g id="graph0" class="graph" transform="scale(1 1) rotate(0) translate(4 43)">
<title>SystemBase::unitarize</title>
<!-- Node1 -->
<g id="node1" class="node">
<title>Node1</title>
<g id="a_node1"><a xlink:title=" ">
<polygon fill="#bfbfbf" stroke="black" points="0,-19.5 0,-38.5 126,-38.5 126,-19.5 0,-19.5"/>
<text text-anchor="middle" x="63" y="-26.5" font-family="Helvetica,sans-Serif" font-size="10.00">SystemBase::unitarize</text>
</a>
</g>
</g>
<!-- Node2 -->
<g id="node2" class="node">
<title>Node2</title>
<g id="a_node2"><a xlink:href="namespaceutils.html#a11e4074d431e26fbbeaf9b97d42f26dd" target="_top" xlink:title="Combine hashes.">
<polygon fill="none" stroke="black" points="298,-19.5 298,-38.5 412,-38.5 412,-19.5 298,-19.5"/>
<text text-anchor="middle" x="355" y="-26.5" font-family="Helvetica,sans-Serif" font-size="10.00">utils::hash_combine</text>
</a>
</g>
</g>
<!-- Node1&#45;&gt;Node2 -->
<g id="edge1" class="edge">
<title>Node1&#45;&gt;Node2</title>
<path fill="none" stroke="midnightblue" d="M126.21,-29C173.76,-29 239.16,-29 287.69,-29"/>
<polygon fill="midnightblue" stroke="midnightblue" points="287.78,-32.5 297.78,-29 287.78,-25.5 287.78,-32.5"/>
</g>
<!-- Node3 -->
<g id="node3" class="node">
<title>Node3</title>
<g id="a_node3"><a xlink:href="namespaceutils.html#abf58922e3b42ea50854095f06fb12d50" target="_top" xlink:title="Combine hashes of values in a range.">
<polygon fill="none" stroke="black" points="162,-0.5 162,-19.5 262,-19.5 262,-0.5 162,-0.5"/>
<text text-anchor="middle" x="212" y="-7.5" font-family="Helvetica,sans-Serif" font-size="10.00">utils::hash_range</text>
</a>
</g>
</g>
<!-- Node1&#45;&gt;Node3 -->
<g id="edge2" class="edge">
<title>Node1&#45;&gt;Node3</title>
<path fill="none" stroke="midnightblue" d="M126.34,-20.94C134.8,-19.85 143.46,-18.73 151.85,-17.64"/>
<polygon fill="midnightblue" stroke="midnightblue" points="152.47,-21.09 161.94,-16.34 151.57,-14.15 152.47,-21.09"/>
</g>
<!-- Node3&#45;&gt;Node2 -->
<g id="edge3" class="edge">
<title>Node3&#45;&gt;Node2</title>
<path fill="none" stroke="midnightblue" d="M262.31,-16.65C270.53,-17.75 279.18,-18.92 287.74,-20.07"/>
<polygon fill="midnightblue" stroke="midnightblue" points="287.34,-23.55 297.72,-21.42 288.27,-16.61 287.34,-23.55"/>
</g>
</g>
</svg>
