<?xml version="1.0" encoding="UTF-8" standalone="no"?>
<!DOCTYPE svg PUBLIC "-//W3C//DTD SVG 1.1//EN"
 "http://www.w3.org/Graphics/SVG/1.1/DTD/svg11.dtd">
<!-- Generated by graphviz version 2.43.0 (0)
 -->
<!-- Title: Configuration::count Pages: 1 -->
<svg width="231pt" height="66pt"
 viewBox="0.00 0.00 231.00 66.00" xmlns="http://www.w3.org/2000/svg" xmlns:xlink="http://www.w3.org/1999/xlink">
<g id="graph0" class="graph" transform="scale(1 1) rotate(0) translate(4 62)">
<title>Configuration::count</title>
<!-- Node1 -->
<g id="node1" class="node">
<title>Node1</title>
<g id="a_node1"><a xlink:title="Number of elements matching specific key.">
<polygon fill="#bfbfbf" stroke="black" points="107,-19.5 107,-38.5 223,-38.5 223,-19.5 107,-19.5"/>
<text text-anchor="middle" x="165" y="-26.5" font-family="Helvetica,sans-Serif" font-size="10.00">Configuration::count</text>
</a>
</g>
</g>
<!-- Node2 -->
<g id="node2" class="node">
<title>Node2</title>
<g id="a_node2"><a xlink:href="Interface_8cpp.html#a0ef54d8d2220d2d0f1fec850d07a7b00" target="_top" xlink:title=" ">
<polygon fill="none" stroke="black" points="6,-38.5 6,-57.5 65,-57.5 65,-38.5 6,-38.5"/>
<text text-anchor="middle" x="35.5" y="-45.5" font-family="Helvetica,sans-Serif" font-size="10.00">compute</text>
</a>
</g>
</g>
<!-- Node1&#45;&gt;Node2 -->
<g id="edge1" class="edge">
<title>Node1&#45;&gt;Node2</title>
<path fill="none" stroke="midnightblue" d="M96.76,-39.02C85.65,-40.67 74.69,-42.31 65.22,-43.72"/>
<polygon fill="midnightblue" stroke="midnightblue" points="97.59,-42.44 106.96,-37.5 96.56,-35.51 97.59,-42.44"/>
</g>
<!-- Node3 -->
<g id="node3" class="node">
<title>Node3</title>
<g id="a_node3"><a xlink:href="conf__parser__test_8cpp.html#aa24ca6075912197dcb96fc9839b08c16" target="_top" xlink:title=" ">
<polygon fill="none" stroke="black" points="0,-0.5 0,-19.5 71,-19.5 71,-0.5 0,-0.5"/>
<text text-anchor="middle" x="35.5" y="-7.5" font-family="Helvetica,sans-Serif" font-size="10.00">TEST_CASE</text>
</a>
</g>
</g>
<!-- Node1&#45;&gt;Node3 -->
<g id="edge2" class="edge">
<title>Node1&#45;&gt;Node3</title>
<path fill="none" stroke="midnightblue" d="M96.92,-19C88.02,-17.68 79.21,-16.36 71.18,-15.17"/>
<polygon fill="midnightblue" stroke="midnightblue" points="96.56,-22.49 106.96,-20.5 97.59,-15.56 96.56,-22.49"/>
</g>
</g>
</svg>
