<?xml version="1.0" encoding="UTF-8" standalone="no"?>
<!DOCTYPE svg PUBLIC "-//W3C//DTD SVG 1.1//EN"
 "http://www.w3.org/Graphics/SVG/1.1/DTD/svg11.dtd">
<!-- Generated by graphviz version 2.43.0 (0)
 -->
<!-- Title: BasisnamesOne::fromBoth Pages: 1 -->
<svg width="499pt" height="104pt"
 viewBox="0.00 0.00 499.00 104.00" xmlns="http://www.w3.org/2000/svg" xmlns:xlink="http://www.w3.org/1999/xlink">
<g id="graph0" class="graph" transform="scale(1 1) rotate(0) translate(4 100)">
<title>BasisnamesOne::fromBoth</title>
<!-- Node1 -->
<g id="node1" class="node">
<title>Node1</title>
<g id="a_node1"><a xlink:title=" ">
<polygon fill="#bfbfbf" stroke="black" points="0,-57.5 0,-76.5 147,-76.5 147,-57.5 0,-57.5"/>
<text text-anchor="middle" x="73.5" y="-64.5" font-family="Helvetica,sans-Serif" font-size="10.00">BasisnamesOne::fromBoth</text>
</a>
</g>
</g>
<!-- Node2 -->
<g id="node2" class="node">
<title>Node2</title>
<g id="a_node2"><a xlink:href="classBasisnames.html#a534f7e2dcc2987a1f969cb89c070da04" target="_top" xlink:title=" ">
<polygon fill="none" stroke="black" points="183,-76.5 183,-95.5 311,-95.5 311,-76.5 183,-76.5"/>
<text text-anchor="middle" x="247" y="-83.5" font-family="Helvetica,sans-Serif" font-size="10.00">Basisnames::configure</text>
</a>
</g>
</g>
<!-- Node1&#45;&gt;Node2 -->
<g id="edge1" class="edge">
<title>Node1&#45;&gt;Node2</title>
<path fill="none" stroke="midnightblue" d="M147.23,-75.06C155.67,-75.99 164.28,-76.95 172.72,-77.88"/>
<polygon fill="midnightblue" stroke="midnightblue" points="172.6,-81.39 182.92,-79.01 173.37,-74.43 172.6,-81.39"/>
</g>
<!-- Node3 -->
<g id="node3" class="node">
<title>Node3</title>
<g id="a_node3"><a xlink:href="classStateTwoOld.html#a1d7ff079f51711e8a6f40946e5677be8" target="_top" xlink:title=" ">
<polygon fill="none" stroke="black" points="192.5,-38.5 192.5,-57.5 301.5,-57.5 301.5,-38.5 192.5,-38.5"/>
<text text-anchor="middle" x="247" y="-45.5" font-family="Helvetica,sans-Serif" font-size="10.00">StateTwoOld::order</text>
</a>
</g>
</g>
<!-- Node1&#45;&gt;Node3 -->
<g id="edge2" class="edge">
<title>Node1&#45;&gt;Node3</title>
<path fill="none" stroke="midnightblue" d="M147.23,-58.94C158.83,-57.66 170.76,-56.34 182.14,-55.07"/>
<polygon fill="midnightblue" stroke="midnightblue" points="182.85,-58.52 192.41,-53.94 182.08,-51.56 182.85,-58.52"/>
</g>
<!-- Node4 -->
<g id="node4" class="node">
<title>Node4</title>
<g id="a_node4"><a xlink:href="classStateTwoOld.html#aad5fb4307dec316a5b602c2e8bfae0a8" target="_top" xlink:title=" ">
<polygon fill="none" stroke="black" points="367.5,-76.5 367.5,-95.5 470.5,-95.5 470.5,-76.5 367.5,-76.5"/>
<text text-anchor="middle" x="419" y="-83.5" font-family="Helvetica,sans-Serif" font-size="10.00">StateTwoOld::first</text>
</a>
</g>
</g>
<!-- Node3&#45;&gt;Node4 -->
<g id="edge3" class="edge">
<title>Node3&#45;&gt;Node4</title>
<path fill="none" stroke="midnightblue" d="M290.9,-57.59C313.53,-62.65 341.5,-68.9 365.43,-74.25"/>
<polygon fill="midnightblue" stroke="midnightblue" points="364.89,-77.71 375.41,-76.48 366.41,-70.88 364.89,-77.71"/>
</g>
<!-- Node5 -->
<g id="node5" class="node">
<title>Node5</title>
<g id="a_node5"><a xlink:href="classStateTwoOld.html#a6efa9c8f92e433004b778f6f5ce212d9" target="_top" xlink:title=" ">
<polygon fill="none" stroke="black" points="360,-38.5 360,-57.5 478,-57.5 478,-38.5 360,-38.5"/>
<text text-anchor="middle" x="419" y="-45.5" font-family="Helvetica,sans-Serif" font-size="10.00">StateTwoOld::second</text>
</a>
</g>
</g>
<!-- Node3&#45;&gt;Node5 -->
<g id="edge4" class="edge">
<title>Node3&#45;&gt;Node5</title>
<path fill="none" stroke="midnightblue" d="M301.79,-48C316.95,-48 333.65,-48 349.55,-48"/>
<polygon fill="midnightblue" stroke="midnightblue" points="349.85,-51.5 359.85,-48 349.85,-44.5 349.85,-51.5"/>
</g>
<!-- Node6 -->
<g id="node6" class="node">
<title>Node6</title>
<g id="a_node6"><a xlink:href="classStateTwoOld.html#a33b595b744249754cb86bde5cd125c06" target="_top" xlink:title=" ">
<polygon fill="none" stroke="black" points="347,-0.5 347,-19.5 491,-19.5 491,-0.5 347,-0.5"/>
<text text-anchor="middle" x="419" y="-7.5" font-family="Helvetica,sans-Serif" font-size="10.00">StateTwoOld::StateTwoOld</text>
</a>
</g>
</g>
<!-- Node3&#45;&gt;Node6 -->
<g id="edge5" class="edge">
<title>Node3&#45;&gt;Node6</title>
<path fill="none" stroke="midnightblue" d="M290.9,-38.41C313.53,-33.35 341.5,-27.1 365.43,-21.75"/>
<polygon fill="midnightblue" stroke="midnightblue" points="366.41,-25.12 375.41,-19.52 364.89,-18.29 366.41,-25.12"/>
</g>
</g>
</svg>
