<?xml version="1.0" encoding="UTF-8" standalone="no"?>
<!DOCTYPE svg PUBLIC "-//W3C//DTD SVG 1.1//EN"
 "http://www.w3.org/Graphics/SVG/1.1/DTD/svg11.dtd">
<!-- Generated by graphviz version 2.43.0 (0)
 -->
<!-- Title: SystemOne::initializeInteraction Pages: 1 -->
<svg width="511pt" height="104pt"
 viewBox="0.00 0.00 511.00 104.00" xmlns="http://www.w3.org/2000/svg" xmlns:xlink="http://www.w3.org/1999/xlink">
<g id="graph0" class="graph" transform="scale(1 1) rotate(0) translate(4 100)">
<title>SystemOne::initializeInteraction</title>
<!-- Node1 -->
<g id="node1" class="node">
<title>Node1</title>
<g id="a_node1"><a xlink:title="Method that allows base class to calculate the interaction /////.">
<polygon fill="#bfbfbf" stroke="black" points="0,-38.5 0,-57.5 173,-57.5 173,-38.5 0,-38.5"/>
<text text-anchor="middle" x="86.5" y="-45.5" font-family="Helvetica,sans-Serif" font-size="10.00">SystemOne::initializeInteraction</text>
</a>
</g>
</g>
<!-- Node2 -->
<g id="node2" class="node">
<title>Node2</title>
<g id="a_node2"><a xlink:href="MatrixElementCache_8cpp.html#a15aabd3025cfa0ca9485cd672c0a1a4a" target="_top" xlink:title=" ">
<polygon fill="none" stroke="black" points="209,-57.5 209,-76.5 375,-76.5 375,-57.5 209,-57.5"/>
<text text-anchor="middle" x="292" y="-64.5" font-family="Helvetica,sans-Serif" font-size="10.00">selectionRulesMomentumNew</text>
</a>
</g>
</g>
<!-- Node1&#45;&gt;Node2 -->
<g id="edge1" class="edge">
<title>Node1&#45;&gt;Node2</title>
<path fill="none" stroke="midnightblue" d="M173.21,-56C181.72,-56.8 190.39,-57.61 198.96,-58.41"/>
<polygon fill="midnightblue" stroke="midnightblue" points="198.68,-61.9 208.96,-59.34 199.33,-54.93 198.68,-61.9"/>
</g>
<!-- Node6 -->
<g id="node6" class="node">
<title>Node6</title>
<g id="a_node6"><a xlink:href="MatrixElementCache_8cpp.html#a06a268e07e2a0edb3fca096b8c941c78" target="_top" xlink:title=" ">
<polygon fill="none" stroke="black" points="214.5,-19.5 214.5,-38.5 369.5,-38.5 369.5,-19.5 214.5,-19.5"/>
<text text-anchor="middle" x="292" y="-26.5" font-family="Helvetica,sans-Serif" font-size="10.00">selectionRulesMultipoleNew</text>
</a>
</g>
</g>
<!-- Node1&#45;&gt;Node6 -->
<g id="edge5" class="edge">
<title>Node1&#45;&gt;Node6</title>
<path fill="none" stroke="midnightblue" d="M173.21,-40C183.48,-39.04 193.97,-38.06 204.25,-37.1"/>
<polygon fill="midnightblue" stroke="midnightblue" points="204.81,-40.56 214.44,-36.15 204.16,-33.59 204.81,-40.56"/>
</g>
<!-- Node3 -->
<g id="node3" class="node">
<title>Node3</title>
<g id="a_node3"><a xlink:href="classStateOne.html#aedba5bfce70f73fa324b9d5ae1115578" target="_top" xlink:title=" ">
<polygon fill="none" stroke="black" points="414,-76.5 414,-95.5 500,-95.5 500,-76.5 414,-76.5"/>
<text text-anchor="middle" x="457" y="-83.5" font-family="Helvetica,sans-Serif" font-size="10.00">StateOne::getJ</text>
</a>
</g>
</g>
<!-- Node2&#45;&gt;Node3 -->
<g id="edge2" class="edge">
<title>Node2&#45;&gt;Node3</title>
<path fill="none" stroke="midnightblue" d="M374.98,-76.56C384.77,-77.7 394.55,-78.84 403.76,-79.91"/>
<polygon fill="midnightblue" stroke="midnightblue" points="403.54,-83.41 413.88,-81.09 404.36,-76.46 403.54,-83.41"/>
</g>
<!-- Node4 -->
<g id="node4" class="node">
<title>Node4</title>
<g id="a_node4"><a xlink:href="classStateOne.html#a3783cebe5bbd63f072caf8450fea4aca" target="_top" xlink:title=" ">
<polygon fill="none" stroke="black" points="412.5,-38.5 412.5,-57.5 501.5,-57.5 501.5,-38.5 412.5,-38.5"/>
<text text-anchor="middle" x="457" y="-45.5" font-family="Helvetica,sans-Serif" font-size="10.00">StateOne::getL</text>
</a>
</g>
</g>
<!-- Node2&#45;&gt;Node4 -->
<g id="edge3" class="edge">
<title>Node2&#45;&gt;Node4</title>
<path fill="none" stroke="midnightblue" d="M374.98,-57.44C384.21,-56.37 393.43,-55.29 402.17,-54.27"/>
<polygon fill="midnightblue" stroke="midnightblue" points="402.66,-57.74 412.18,-53.11 401.85,-50.79 402.66,-57.74"/>
</g>
<!-- Node5 -->
<g id="node5" class="node">
<title>Node5</title>
<g id="a_node5"><a xlink:href="classStateOne.html#aab2b41262381d67893113ed6f5ad18bc" target="_top" xlink:title=" ">
<polygon fill="none" stroke="black" points="411,-0.5 411,-19.5 503,-19.5 503,-0.5 411,-0.5"/>
<text text-anchor="middle" x="457" y="-7.5" font-family="Helvetica,sans-Serif" font-size="10.00">StateOne::getM</text>
</a>
</g>
</g>
<!-- Node2&#45;&gt;Node5 -->
<g id="edge4" class="edge">
<title>Node2&#45;&gt;Node5</title>
<path fill="none" stroke="midnightblue" d="M343.47,-57.46C354.04,-54.87 365,-51.72 375,-48 391.95,-41.68 394.65,-36.75 411,-29 414.79,-27.2 418.8,-25.39 422.8,-23.63"/>
<polygon fill="midnightblue" stroke="midnightblue" points="424.2,-26.84 432.01,-19.68 421.44,-20.41 424.2,-26.84"/>
</g>
<!-- Node6&#45;&gt;Node3 -->
<g id="edge6" class="edge">
<title>Node6&#45;&gt;Node3</title>
<path fill="none" stroke="midnightblue" d="M343.47,-38.54C354.04,-41.13 365,-44.28 375,-48 391.95,-54.32 394.65,-59.25 411,-67 414.79,-68.8 418.8,-70.61 422.8,-72.37"/>
<polygon fill="midnightblue" stroke="midnightblue" points="421.44,-75.59 432.01,-76.32 424.2,-69.16 421.44,-75.59"/>
</g>
<!-- Node6&#45;&gt;Node4 -->
<g id="edge7" class="edge">
<title>Node6&#45;&gt;Node4</title>
<path fill="none" stroke="midnightblue" d="M369.73,-37.94C380.63,-39.21 391.64,-40.5 401.99,-41.7"/>
<polygon fill="midnightblue" stroke="midnightblue" points="401.74,-45.2 412.08,-42.88 402.55,-38.25 401.74,-45.2"/>
</g>
<!-- Node6&#45;&gt;Node5 -->
<g id="edge8" class="edge">
<title>Node6&#45;&gt;Node5</title>
<path fill="none" stroke="midnightblue" d="M369.73,-20.06C380.15,-18.84 390.67,-17.62 400.61,-16.46"/>
<polygon fill="midnightblue" stroke="midnightblue" points="401.21,-19.91 410.73,-15.28 400.4,-12.96 401.21,-19.91"/>
</g>
</g>
</svg>
