<?xml version="1.0" encoding="UTF-8" standalone="no"?>
<!DOCTYPE svg PUBLIC "-//W3C//DTD SVG 1.1//EN"
 "http://www.w3.org/Graphics/SVG/1.1/DTD/svg11.dtd">
<!-- Generated by graphviz version 2.43.0 (0)
 -->
<!-- Title: MatrixElementCache::getElectricMultipole Pages: 1 -->
<svg width="285pt" height="218pt"
 viewBox="0.00 0.00 285.00 218.00" xmlns="http://www.w3.org/2000/svg" xmlns:xlink="http://www.w3.org/1999/xlink">
<g id="graph0" class="graph" transform="scale(1 1) rotate(0) translate(4 214)">
<title>MatrixElementCache::getElectricMultipole</title>
<!-- Node1 -->
<g id="node1" class="node">
<title>Node1</title>
<g id="a_node1"><a xlink:title=" ">
<polygon fill="#bfbfbf" stroke="black" points="0,-90 0,-120 120,-120 120,-90 0,-90"/>
<text text-anchor="start" x="8" y="-108" font-family="Helvetica,sans-Serif" font-size="10.00">MatrixElementCache</text>
<text text-anchor="middle" x="60" y="-97" font-family="Helvetica,sans-Serif" font-size="10.00">::getElectricMultipole</text>
</a>
</g>
</g>
<!-- Node2 -->
<g id="node2" class="node">
<title>Node2</title>
<g id="a_node2"><a xlink:href="classStateOne.html#aedba5bfce70f73fa324b9d5ae1115578" target="_top" xlink:title=" ">
<polygon fill="none" stroke="black" points="173.5,-190.5 173.5,-209.5 259.5,-209.5 259.5,-190.5 173.5,-190.5"/>
<text text-anchor="middle" x="216.5" y="-197.5" font-family="Helvetica,sans-Serif" font-size="10.00">StateOne::getJ</text>
</a>
</g>
</g>
<!-- Node1&#45;&gt;Node2 -->
<g id="edge1" class="edge">
<title>Node1&#45;&gt;Node2</title>
<path fill="none" stroke="midnightblue" d="M76.19,-120.13C93.95,-137.07 124.91,-164.34 156,-181 160.03,-183.16 164.35,-185.13 168.76,-186.9"/>
<polygon fill="midnightblue" stroke="midnightblue" points="167.86,-190.3 178.45,-190.49 170.29,-183.73 167.86,-190.3"/>
</g>
<!-- Node3 -->
<g id="node3" class="node">
<title>Node3</title>
<g id="a_node3"><a xlink:href="classStateOne.html#a3783cebe5bbd63f072caf8450fea4aca" target="_top" xlink:title=" ">
<polygon fill="none" stroke="black" points="172,-152.5 172,-171.5 261,-171.5 261,-152.5 172,-152.5"/>
<text text-anchor="middle" x="216.5" y="-159.5" font-family="Helvetica,sans-Serif" font-size="10.00">StateOne::getL</text>
</a>
</g>
</g>
<!-- Node1&#45;&gt;Node3 -->
<g id="edge2" class="edge">
<title>Node1&#45;&gt;Node3</title>
<path fill="none" stroke="midnightblue" d="M96.86,-120.05C114.55,-127.29 136.27,-135.92 156,-143 161.96,-145.14 168.3,-147.29 174.53,-149.34"/>
<polygon fill="midnightblue" stroke="midnightblue" points="173.58,-152.71 184.17,-152.46 175.73,-146.05 173.58,-152.71"/>
</g>
<!-- Node4 -->
<g id="node4" class="node">
<title>Node4</title>
<g id="a_node4"><a xlink:href="classStateOne.html#aab2b41262381d67893113ed6f5ad18bc" target="_top" xlink:title=" ">
<polygon fill="none" stroke="black" points="170.5,-114.5 170.5,-133.5 262.5,-133.5 262.5,-114.5 170.5,-114.5"/>
<text text-anchor="middle" x="216.5" y="-121.5" font-family="Helvetica,sans-Serif" font-size="10.00">StateOne::getM</text>
</a>
</g>
</g>
<!-- Node1&#45;&gt;Node4 -->
<g id="edge3" class="edge">
<title>Node1&#45;&gt;Node4</title>
<path fill="none" stroke="midnightblue" d="M120.29,-112.29C133.32,-113.89 147.07,-115.58 159.94,-117.17"/>
<polygon fill="midnightblue" stroke="midnightblue" points="159.69,-120.66 170.05,-118.41 160.55,-113.72 159.69,-120.66"/>
</g>
<!-- Node5 -->
<g id="node5" class="node">
<title>Node5</title>
<g id="a_node5"><a xlink:href="classStateOne.html#a7deae740570ef5262e7fd2d254a8c530" target="_top" xlink:title=" ">
<polygon fill="none" stroke="black" points="171,-76.5 171,-95.5 262,-95.5 262,-76.5 171,-76.5"/>
<text text-anchor="middle" x="216.5" y="-83.5" font-family="Helvetica,sans-Serif" font-size="10.00">StateOne::getN</text>
</a>
</g>
</g>
<!-- Node1&#45;&gt;Node5 -->
<g id="edge4" class="edge">
<title>Node1&#45;&gt;Node5</title>
<path fill="none" stroke="midnightblue" d="M120.29,-97.71C133.45,-96.09 147.35,-94.38 160.34,-92.78"/>
<polygon fill="midnightblue" stroke="midnightblue" points="161.03,-96.23 170.53,-91.53 160.17,-89.28 161.03,-96.23"/>
</g>
<!-- Node6 -->
<g id="node6" class="node">
<title>Node6</title>
<g id="a_node6"><a xlink:href="classStateOne.html#a5f4c17ef50eca7f317a55b5e0a572117" target="_top" xlink:title=" ">
<polygon fill="none" stroke="black" points="172,-38.5 172,-57.5 261,-57.5 261,-38.5 172,-38.5"/>
<text text-anchor="middle" x="216.5" y="-45.5" font-family="Helvetica,sans-Serif" font-size="10.00">StateOne::getS</text>
</a>
</g>
</g>
<!-- Node1&#45;&gt;Node6 -->
<g id="edge5" class="edge">
<title>Node1&#45;&gt;Node6</title>
<path fill="none" stroke="midnightblue" d="M96.86,-89.95C114.55,-82.71 136.27,-74.08 156,-67 161.96,-64.86 168.3,-62.71 174.53,-60.66"/>
<polygon fill="midnightblue" stroke="midnightblue" points="175.73,-63.95 184.17,-57.54 173.58,-57.29 175.73,-63.95"/>
</g>
<!-- Node7 -->
<g id="node7" class="node">
<title>Node7</title>
<g id="a_node7"><a xlink:href="classStateOne.html#a45b245f5da0068df4ff72093c654da89" target="_top" xlink:title=" ">
<polygon fill="none" stroke="black" points="156,-0.5 156,-19.5 277,-19.5 277,-0.5 156,-0.5"/>
<text text-anchor="middle" x="216.5" y="-7.5" font-family="Helvetica,sans-Serif" font-size="10.00">StateOne::getSpecies</text>
</a>
</g>
</g>
<!-- Node1&#45;&gt;Node7 -->
<g id="edge6" class="edge">
<title>Node1&#45;&gt;Node7</title>
<path fill="none" stroke="midnightblue" d="M76.19,-89.87C93.95,-72.93 124.91,-45.66 156,-29 160.03,-26.84 164.35,-24.87 168.76,-23.1"/>
<polygon fill="midnightblue" stroke="midnightblue" points="170.29,-26.27 178.45,-19.51 167.86,-19.7 170.29,-26.27"/>
</g>
</g>
</svg>
