<?xml version="1.0" encoding="UTF-8" standalone="no"?>
<!DOCTYPE svg PUBLIC "-//W3C//DTD SVG 1.1//EN"
 "http://www.w3.org/Graphics/SVG/1.1/DTD/svg11.dtd">
<!-- Generated by graphviz version 2.43.0 (0)
 -->
<!-- Title: SystemTwo::initializeInteraction Pages: 1 -->
<svg width="500pt" height="218pt"
 viewBox="0.00 0.00 500.00 218.00" xmlns="http://www.w3.org/2000/svg" xmlns:xlink="http://www.w3.org/1999/xlink">
<g id="graph0" class="graph" transform="scale(1 1) rotate(0) translate(4 214)">
<title>SystemTwo::initializeInteraction</title>
<!-- Node1 -->
<g id="node1" class="node">
<title>Node1</title>
<g id="a_node1"><a xlink:title="Method that allows base class to calculate the interaction /////.">
<polygon fill="#bfbfbf" stroke="black" points="0,-114.5 0,-133.5 173,-133.5 173,-114.5 0,-114.5"/>
<text text-anchor="middle" x="86.5" y="-121.5" font-family="Helvetica,sans-Serif" font-size="10.00">SystemTwo::initializeInteraction</text>
</a>
</g>
</g>
<!-- Node2 -->
<g id="node2" class="node">
<title>Node2</title>
<g id="a_node2"><a xlink:href="classGreenTensor.html#aac53ebde0a9b5ff5d4dccec359aa99a2" target="_top" xlink:title=" ">
<polygon fill="none" stroke="black" points="217.5,-190.5 217.5,-209.5 355.5,-209.5 355.5,-190.5 217.5,-190.5"/>
<text text-anchor="middle" x="286.5" y="-197.5" font-family="Helvetica,sans-Serif" font-size="10.00">GreenTensor::addSurface</text>
</a>
</g>
</g>
<!-- Node1&#45;&gt;Node2 -->
<g id="edge1" class="edge">
<title>Node1&#45;&gt;Node2</title>
<path fill="none" stroke="midnightblue" d="M105.15,-133.62C128.39,-145.98 170.79,-167.44 209,-181 216.08,-183.51 223.65,-185.82 231.17,-187.9"/>
<polygon fill="midnightblue" stroke="midnightblue" points="230.41,-191.32 240.97,-190.5 232.2,-184.55 230.41,-191.32"/>
</g>
<!-- Node3 -->
<g id="node3" class="node">
<title>Node3</title>
<g id="a_node3"><a xlink:href="classGreenTensor.html#ab39e82921b759d0e6d70458074d288e8" target="_top" xlink:title=" ">
<polygon fill="none" stroke="black" points="213.5,-152.5 213.5,-171.5 359.5,-171.5 359.5,-152.5 213.5,-152.5"/>
<text text-anchor="middle" x="286.5" y="-159.5" font-family="Helvetica,sans-Serif" font-size="10.00">GreenTensor::getDDTensor</text>
</a>
</g>
</g>
<!-- Node1&#45;&gt;Node3 -->
<g id="edge2" class="edge">
<title>Node1&#45;&gt;Node3</title>
<path fill="none" stroke="midnightblue" d="M137.21,-133.54C164.04,-138.69 197.36,-145.08 225.61,-150.51"/>
<polygon fill="midnightblue" stroke="midnightblue" points="225.29,-154.01 235.77,-152.46 226.61,-147.13 225.29,-154.01"/>
</g>
<!-- Node4 -->
<g id="node4" class="node">
<title>Node4</title>
<g id="a_node4"><a xlink:href="classGreenTensor.html#a0e6ffe5211f3dce963418c0504665986" target="_top" xlink:title=" ">
<polygon fill="none" stroke="black" points="213.5,-114.5 213.5,-133.5 359.5,-133.5 359.5,-114.5 213.5,-114.5"/>
<text text-anchor="middle" x="286.5" y="-121.5" font-family="Helvetica,sans-Serif" font-size="10.00">GreenTensor::getDQTensor</text>
</a>
</g>
</g>
<!-- Node1&#45;&gt;Node4 -->
<g id="edge3" class="edge">
<title>Node1&#45;&gt;Node4</title>
<path fill="none" stroke="midnightblue" d="M173.19,-124C183.12,-124 193.23,-124 203.12,-124"/>
<polygon fill="midnightblue" stroke="midnightblue" points="203.32,-127.5 213.32,-124 203.32,-120.5 203.32,-127.5"/>
</g>
<!-- Node5 -->
<g id="node5" class="node">
<title>Node5</title>
<g id="a_node5"><a xlink:href="classGreenTensor.html#aa95b77c9911c6b6f9e500fb95fdf8a1c" target="_top" xlink:title=" ">
<polygon fill="none" stroke="black" points="213.5,-76.5 213.5,-95.5 359.5,-95.5 359.5,-76.5 213.5,-76.5"/>
<text text-anchor="middle" x="286.5" y="-83.5" font-family="Helvetica,sans-Serif" font-size="10.00">GreenTensor::getQDTensor</text>
</a>
</g>
</g>
<!-- Node1&#45;&gt;Node5 -->
<g id="edge4" class="edge">
<title>Node1&#45;&gt;Node5</title>
<path fill="none" stroke="midnightblue" d="M137.21,-114.46C164.04,-109.31 197.36,-102.92 225.61,-97.49"/>
<polygon fill="midnightblue" stroke="midnightblue" points="226.61,-100.87 235.77,-95.54 225.29,-93.99 226.61,-100.87"/>
</g>
<!-- Node6 -->
<g id="node6" class="node">
<title>Node6</title>
<g id="a_node6"><a xlink:href="MatrixElementCache_8cpp.html#a06a268e07e2a0edb3fca096b8c941c78" target="_top" xlink:title=" ">
<polygon fill="none" stroke="black" points="209,-38.5 209,-57.5 364,-57.5 364,-38.5 209,-38.5"/>
<text text-anchor="middle" x="286.5" y="-45.5" font-family="Helvetica,sans-Serif" font-size="10.00">selectionRulesMultipoleNew</text>
</a>
</g>
</g>
<!-- Node1&#45;&gt;Node6 -->
<g id="edge5" class="edge">
<title>Node1&#45;&gt;Node6</title>
<path fill="none" stroke="midnightblue" d="M105.15,-114.38C128.39,-102.02 170.79,-80.56 209,-67 216.08,-64.49 223.65,-62.18 231.17,-60.1"/>
<polygon fill="midnightblue" stroke="midnightblue" points="232.2,-63.45 240.97,-57.5 230.41,-56.68 232.2,-63.45"/>
</g>
<!-- Node7 -->
<g id="node7" class="node">
<title>Node7</title>
<g id="a_node7"><a xlink:href="classStateOne.html#aedba5bfce70f73fa324b9d5ae1115578" target="_top" xlink:title=" ">
<polygon fill="none" stroke="black" points="403,-76.5 403,-95.5 489,-95.5 489,-76.5 403,-76.5"/>
<text text-anchor="middle" x="446" y="-83.5" font-family="Helvetica,sans-Serif" font-size="10.00">StateOne::getJ</text>
</a>
</g>
</g>
<!-- Node6&#45;&gt;Node7 -->
<g id="edge6" class="edge">
<title>Node6&#45;&gt;Node7</title>
<path fill="none" stroke="midnightblue" d="M327.24,-57.59C348.03,-62.6 373.66,-68.79 395.7,-74.11"/>
<polygon fill="midnightblue" stroke="midnightblue" points="395,-77.54 405.54,-76.48 396.64,-70.73 395,-77.54"/>
</g>
<!-- Node8 -->
<g id="node8" class="node">
<title>Node8</title>
<g id="a_node8"><a xlink:href="classStateOne.html#a3783cebe5bbd63f072caf8450fea4aca" target="_top" xlink:title=" ">
<polygon fill="none" stroke="black" points="401.5,-38.5 401.5,-57.5 490.5,-57.5 490.5,-38.5 401.5,-38.5"/>
<text text-anchor="middle" x="446" y="-45.5" font-family="Helvetica,sans-Serif" font-size="10.00">StateOne::getL</text>
</a>
</g>
</g>
<!-- Node6&#45;&gt;Node8 -->
<g id="edge7" class="edge">
<title>Node6&#45;&gt;Node8</title>
<path fill="none" stroke="midnightblue" d="M364.4,-48C373.4,-48 382.42,-48 391.01,-48"/>
<polygon fill="midnightblue" stroke="midnightblue" points="391.24,-51.5 401.24,-48 391.24,-44.5 391.24,-51.5"/>
</g>
<!-- Node9 -->
<g id="node9" class="node">
<title>Node9</title>
<g id="a_node9"><a xlink:href="classStateOne.html#aab2b41262381d67893113ed6f5ad18bc" target="_top" xlink:title=" ">
<polygon fill="none" stroke="black" points="400,-0.5 400,-19.5 492,-19.5 492,-0.5 400,-0.5"/>
<text text-anchor="middle" x="446" y="-7.5" font-family="Helvetica,sans-Serif" font-size="10.00">StateOne::getM</text>
</a>
</g>
</g>
<!-- Node6&#45;&gt;Node9 -->
<g id="edge8" class="edge">
<title>Node6&#45;&gt;Node9</title>
<path fill="none" stroke="midnightblue" d="M327.24,-38.41C348.03,-33.4 373.66,-27.21 395.7,-21.89"/>
<polygon fill="midnightblue" stroke="midnightblue" points="396.64,-25.27 405.54,-19.52 395,-18.46 396.64,-25.27"/>
</g>
</g>
</svg>
