<?xml version="1.0" encoding="UTF-8" standalone="no"?>
<!DOCTYPE svg PUBLIC "-//W3C//DTD SVG 1.1//EN"
 "http://www.w3.org/Graphics/SVG/1.1/DTD/svg11.dtd">
<!-- Generated by graphviz version 2.43.0 (0)
 -->
<!-- Title: SystemTwo::initializeBasis Pages: 1 -->
<svg width="477pt" height="218pt"
 viewBox="0.00 0.00 477.00 218.00" xmlns="http://www.w3.org/2000/svg" xmlns:xlink="http://www.w3.org/1999/xlink">
<g id="graph0" class="graph" transform="scale(1 1) rotate(0) translate(4 214)">
<title>SystemTwo::initializeBasis</title>
<!-- Node1 -->
<g id="node1" class="node">
<title>Node1</title>
<g id="a_node1"><a xlink:title="Method that allows base class to initialize Basis //////////////.">
<polygon fill="#bfbfbf" stroke="black" points="0,-133.5 0,-152.5 146,-152.5 146,-133.5 0,-133.5"/>
<text text-anchor="middle" x="73" y="-140.5" font-family="Helvetica,sans-Serif" font-size="10.00">SystemTwo::initializeBasis</text>
</a>
</g>
</g>
<!-- Node2 -->
<g id="node2" class="node">
<title>Node2</title>
<g id="a_node2"><a xlink:href="classStateOne.html#aedba5bfce70f73fa324b9d5ae1115578" target="_top" xlink:title=" ">
<polygon fill="none" stroke="black" points="365.5,-190.5 365.5,-209.5 451.5,-209.5 451.5,-190.5 365.5,-190.5"/>
<text text-anchor="middle" x="408.5" y="-197.5" font-family="Helvetica,sans-Serif" font-size="10.00">StateOne::getJ</text>
</a>
</g>
</g>
<!-- Node1&#45;&gt;Node2 -->
<g id="edge1" class="edge">
<title>Node1&#45;&gt;Node2</title>
<path fill="none" stroke="midnightblue" d="M113.61,-152.53C133.97,-157.25 159.24,-162.81 182,-167 241.15,-177.88 309.56,-187.48 355.38,-193.48"/>
<polygon fill="midnightblue" stroke="midnightblue" points="355,-196.96 365.37,-194.77 355.91,-190.02 355,-196.96"/>
</g>
<!-- Node3 -->
<g id="node3" class="node">
<title>Node3</title>
<g id="a_node3"><a xlink:href="classStateOne.html#a3783cebe5bbd63f072caf8450fea4aca" target="_top" xlink:title=" ">
<polygon fill="none" stroke="black" points="364,-152.5 364,-171.5 453,-171.5 453,-152.5 364,-152.5"/>
<text text-anchor="middle" x="408.5" y="-159.5" font-family="Helvetica,sans-Serif" font-size="10.00">StateOne::getL</text>
</a>
</g>
</g>
<!-- Node1&#45;&gt;Node3 -->
<g id="edge2" class="edge">
<title>Node1&#45;&gt;Node3</title>
<path fill="none" stroke="midnightblue" d="M146.36,-147.12C208.76,-150.68 297.46,-155.73 353.74,-158.94"/>
<polygon fill="midnightblue" stroke="midnightblue" points="353.67,-162.44 363.85,-159.51 354.07,-155.45 353.67,-162.44"/>
</g>
<!-- Node4 -->
<g id="node4" class="node">
<title>Node4</title>
<g id="a_node4"><a xlink:href="classStateOne.html#aab2b41262381d67893113ed6f5ad18bc" target="_top" xlink:title=" ">
<polygon fill="none" stroke="black" points="362.5,-0.5 362.5,-19.5 454.5,-19.5 454.5,-0.5 362.5,-0.5"/>
<text text-anchor="middle" x="408.5" y="-7.5" font-family="Helvetica,sans-Serif" font-size="10.00">StateOne::getM</text>
</a>
</g>
</g>
<!-- Node1&#45;&gt;Node4 -->
<g id="edge3" class="edge">
<title>Node1&#45;&gt;Node4</title>
<path fill="none" stroke="midnightblue" d="M95.42,-133.35C141.26,-112.87 252.47,-64.05 348,-29 353.88,-26.84 360.13,-24.69 366.29,-22.65"/>
<polygon fill="midnightblue" stroke="midnightblue" points="367.4,-25.98 375.83,-19.56 365.24,-19.32 367.4,-25.98"/>
</g>
<!-- Node5 -->
<g id="node5" class="node">
<title>Node5</title>
<g id="a_node5"><a xlink:href="classStateOne.html#a0b5646c4160083ef4b24460e9159ad2c" target="_top" xlink:title=" ">
<polygon fill="none" stroke="black" points="182,-114.5 182,-133.5 312,-133.5 312,-114.5 182,-114.5"/>
<text text-anchor="middle" x="247" y="-121.5" font-family="Helvetica,sans-Serif" font-size="10.00">StateOne::getReflected</text>
</a>
</g>
</g>
<!-- Node1&#45;&gt;Node5 -->
<g id="edge4" class="edge">
<title>Node1&#45;&gt;Node5</title>
<path fill="none" stroke="midnightblue" d="M146.44,-135C154.8,-134.07 163.33,-133.13 171.71,-132.21"/>
<polygon fill="midnightblue" stroke="midnightblue" points="172.28,-135.67 181.83,-131.09 171.51,-128.71 172.28,-135.67"/>
</g>
<!-- Node5&#45;&gt;Node2 -->
<g id="edge5" class="edge">
<title>Node5&#45;&gt;Node2</title>
<path fill="none" stroke="midnightblue" d="M262.74,-133.71C281.8,-145.96 316.34,-167.11 348,-181 353.03,-183.21 358.39,-185.28 363.77,-187.2"/>
<polygon fill="midnightblue" stroke="midnightblue" points="362.78,-190.56 373.38,-190.45 365.03,-183.93 362.78,-190.56"/>
</g>
<!-- Node5&#45;&gt;Node3 -->
<g id="edge6" class="edge">
<title>Node5&#45;&gt;Node3</title>
<path fill="none" stroke="midnightblue" d="M288.25,-133.59C309.3,-138.6 335.26,-144.79 357.57,-150.11"/>
<polygon fill="midnightblue" stroke="midnightblue" points="357,-153.57 367.54,-152.48 358.62,-146.76 357,-153.57"/>
</g>
<!-- Node5&#45;&gt;Node4 -->
<g id="edge7" class="edge">
<title>Node5&#45;&gt;Node4</title>
<path fill="none" stroke="midnightblue" d="M258.05,-114.22C282.36,-90.59 342.75,-32.11 348,-29 351.62,-26.86 355.51,-24.93 359.51,-23.19"/>
<polygon fill="midnightblue" stroke="midnightblue" points="360.91,-26.4 368.94,-19.5 358.36,-19.89 360.91,-26.4"/>
</g>
<!-- Node6 -->
<g id="node6" class="node">
<title>Node6</title>
<g id="a_node6"><a xlink:href="classStateOne.html#a7deae740570ef5262e7fd2d254a8c530" target="_top" xlink:title=" ">
<polygon fill="none" stroke="black" points="363,-114.5 363,-133.5 454,-133.5 454,-114.5 363,-114.5"/>
<text text-anchor="middle" x="408.5" y="-121.5" font-family="Helvetica,sans-Serif" font-size="10.00">StateOne::getN</text>
</a>
</g>
</g>
<!-- Node5&#45;&gt;Node6 -->
<g id="edge8" class="edge">
<title>Node5&#45;&gt;Node6</title>
<path fill="none" stroke="midnightblue" d="M312.42,-124C325.79,-124 339.76,-124 352.74,-124"/>
<polygon fill="midnightblue" stroke="midnightblue" points="352.91,-127.5 362.91,-124 352.91,-120.5 352.91,-127.5"/>
</g>
<!-- Node7 -->
<g id="node7" class="node">
<title>Node7</title>
<g id="a_node7"><a xlink:href="classStateOne.html#a45b245f5da0068df4ff72093c654da89" target="_top" xlink:title=" ">
<polygon fill="none" stroke="black" points="348,-76.5 348,-95.5 469,-95.5 469,-76.5 348,-76.5"/>
<text text-anchor="middle" x="408.5" y="-83.5" font-family="Helvetica,sans-Serif" font-size="10.00">StateOne::getSpecies</text>
</a>
</g>
</g>
<!-- Node5&#45;&gt;Node7 -->
<g id="edge9" class="edge">
<title>Node5&#45;&gt;Node7</title>
<path fill="none" stroke="midnightblue" d="M288.25,-114.41C309.3,-109.4 335.26,-103.21 357.57,-97.89"/>
<polygon fill="midnightblue" stroke="midnightblue" points="358.62,-101.24 367.54,-95.52 357,-94.43 358.62,-101.24"/>
</g>
<!-- Node8 -->
<g id="node8" class="node">
<title>Node8</title>
<g id="a_node8"><a xlink:href="classStateOne.html#a7eafbf38814e11dc5875e8a0bc99051c" target="_top" xlink:title=" ">
<polygon fill="none" stroke="black" points="352,-38.5 352,-57.5 465,-57.5 465,-38.5 352,-38.5"/>
<text text-anchor="middle" x="408.5" y="-45.5" font-family="Helvetica,sans-Serif" font-size="10.00">StateOne::StateOne</text>
</a>
</g>
</g>
<!-- Node5&#45;&gt;Node8 -->
<g id="edge10" class="edge">
<title>Node5&#45;&gt;Node8</title>
<path fill="none" stroke="midnightblue" d="M262.74,-114.29C281.8,-102.04 316.34,-80.89 348,-67 353.03,-64.79 358.39,-62.72 363.77,-60.8"/>
<polygon fill="midnightblue" stroke="midnightblue" points="365.03,-64.07 373.38,-57.55 362.78,-57.44 365.03,-64.07"/>
</g>
</g>
</svg>
