<?xml version="1.0" encoding="UTF-8" standalone="no"?>
<!DOCTYPE svg PUBLIC "-//W3C//DTD SVG 1.1//EN"
 "http://www.w3.org/Graphics/SVG/1.1/DTD/svg11.dtd">
<!-- Generated by graphviz version 2.43.0 (0)
 -->
<!-- Title: StateTwo::getN Pages: 1 -->
<svg width="324pt" height="127pt"
 viewBox="0.00 0.00 324.00 126.50" xmlns="http://www.w3.org/2000/svg" xmlns:xlink="http://www.w3.org/1999/xlink">
<g id="graph0" class="graph" transform="scale(1 1) rotate(0) translate(4 122.5)">
<title>StateTwo::getN</title>
<!-- Node1 -->
<g id="node1" class="node">
<title>Node1</title>
<g id="a_node1"><a xlink:title=" ">
<polygon fill="#bfbfbf" stroke="black" points="226,-44.5 226,-63.5 316,-63.5 316,-44.5 226,-44.5"/>
<text text-anchor="middle" x="271" y="-51.5" font-family="Helvetica,sans-Serif" font-size="10.00">StateTwo::getN</text>
</a>
</g>
</g>
<!-- Node2 -->
<g id="node2" class="node">
<title>Node2</title>
<g id="a_node2"><a xlink:href="classSystemBase.html#a7e55374852ca1118c1bcb908701b31cf" target="_top" xlink:title=" ">
<polygon fill="none" stroke="black" points="0,-88 0,-118 190,-118 190,-88 0,-88"/>
<text text-anchor="start" x="8" y="-106" font-family="Helvetica,sans-Serif" font-size="10.00">SystemBase::checkIsQuantumstate</text>
<text text-anchor="middle" x="95" y="-95" font-family="Helvetica,sans-Serif" font-size="10.00">Valid</text>
</a>
</g>
</g>
<!-- Node1&#45;&gt;Node2 -->
<g id="edge1" class="edge">
<title>Node1&#45;&gt;Node2</title>
<path fill="none" stroke="midnightblue" d="M231.23,-66.57C218.18,-70.68 203.5,-75.17 190,-79 179.31,-82.03 167.88,-85.1 156.81,-87.98"/>
<polygon fill="midnightblue" stroke="midnightblue" points="232.38,-69.88 240.85,-63.52 230.26,-63.2 232.38,-69.88"/>
</g>
<!-- Node3 -->
<g id="node3" class="node">
<title>Node3</title>
<g id="a_node3"><a xlink:href="classPerturbativeInteraction.html#aef0f5d43fdcf0377dc53e31730c99cb9" target="_top" xlink:title=" ">
<polygon fill="none" stroke="black" points="30.5,-39 30.5,-69 159.5,-69 159.5,-39 30.5,-39"/>
<text text-anchor="start" x="38.5" y="-57" font-family="Helvetica,sans-Serif" font-size="10.00">PerturbativeInteraction</text>
<text text-anchor="middle" x="95" y="-46" font-family="Helvetica,sans-Serif" font-size="10.00">::getC6</text>
</a>
</g>
</g>
<!-- Node1&#45;&gt;Node3 -->
<g id="edge2" class="edge">
<title>Node1&#45;&gt;Node3</title>
<path fill="none" stroke="midnightblue" d="M215.48,-54C197.77,-54 177.96,-54 159.65,-54"/>
<polygon fill="midnightblue" stroke="midnightblue" points="215.64,-57.5 225.64,-54 215.64,-50.5 215.64,-57.5"/>
</g>
<!-- Node4 -->
<g id="node4" class="node">
<title>Node4</title>
<g id="a_node4"><a xlink:href="classStateTwo.html#a8144dc47a35a397f9b040a5de5d8673e" target="_top" xlink:title=" ">
<polygon fill="none" stroke="black" points="30.5,-0.5 30.5,-19.5 159.5,-19.5 159.5,-0.5 30.5,-0.5"/>
<text text-anchor="middle" x="95" y="-7.5" font-family="Helvetica,sans-Serif" font-size="10.00">StateTwo::getReflected</text>
</a>
</g>
</g>
<!-- Node1&#45;&gt;Node4 -->
<g id="edge3" class="edge">
<title>Node1&#45;&gt;Node4</title>
<path fill="none" stroke="midnightblue" d="M230.26,-41.38C217.47,-37.5 203.19,-33.38 190,-30 175.29,-26.24 159.16,-22.62 144.48,-19.52"/>
<polygon fill="midnightblue" stroke="midnightblue" points="229.56,-44.83 240.15,-44.41 231.62,-38.13 229.56,-44.83"/>
</g>
</g>
</svg>
