<?xml version="1.0" encoding="UTF-8" standalone="no"?>
<!DOCTYPE svg PUBLIC "-//W3C//DTD SVG 1.1//EN"
 "http://www.w3.org/Graphics/SVG/1.1/DTD/svg11.dtd">
<!-- Generated by graphviz version 2.43.0 (0)
 -->
<!-- Title: StateOne::getSpecies Pages: 1 -->
<svg width="477pt" height="252pt"
 viewBox="0.00 0.00 477.00 251.50" xmlns="http://www.w3.org/2000/svg" xmlns:xlink="http://www.w3.org/1999/xlink">
<g id="graph0" class="graph" transform="scale(1 1) rotate(0) translate(4 247.5)">
<title>StateOne::getSpecies</title>
<!-- Node1 -->
<g id="node1" class="node">
<title>Node1</title>
<g id="a_node1"><a xlink:title=" ">
<polygon fill="#bfbfbf" stroke="black" points="348,-98.5 348,-117.5 469,-117.5 469,-98.5 348,-98.5"/>
<text text-anchor="middle" x="408.5" y="-105.5" font-family="Helvetica,sans-Serif" font-size="10.00">StateOne::getSpecies</text>
</a>
</g>
</g>
<!-- Node2 -->
<g id="node2" class="node">
<title>Node2</title>
<g id="a_node2"><a xlink:href="classMatrixElementCache.html#afc9f56a599c9ea24bbfbd4aeb41efbd4" target="_top" xlink:title=" ">
<polygon fill="none" stroke="black" points="187,-213 187,-243 307,-243 307,-213 187,-213"/>
<text text-anchor="start" x="195" y="-231" font-family="Helvetica,sans-Serif" font-size="10.00">MatrixElementCache</text>
<text text-anchor="middle" x="247" y="-220" font-family="Helvetica,sans-Serif" font-size="10.00">::getElectricMultipole</text>
</a>
</g>
</g>
<!-- Node1&#45;&gt;Node2 -->
<g id="edge1" class="edge">
<title>Node1&#45;&gt;Node2</title>
<path fill="none" stroke="midnightblue" d="M393.96,-125.65C376.9,-146.84 345.7,-182.24 312,-204 306.82,-207.35 301.1,-210.33 295.28,-212.95"/>
<polygon fill="midnightblue" stroke="midnightblue" points="396.93,-127.54 400.38,-117.52 391.44,-123.2 396.93,-127.54"/>
</g>
<!-- Node3 -->
<g id="node3" class="node">
<title>Node3</title>
<g id="a_node3"><a xlink:href="classMatrixElementCache.html#aeef0496ad6db911dac50c0625660d9c0" target="_top" xlink:title=" ">
<polygon fill="none" stroke="black" points="187.5,-164 187.5,-194 306.5,-194 306.5,-164 187.5,-164"/>
<text text-anchor="start" x="195.5" y="-182" font-family="Helvetica,sans-Serif" font-size="10.00">MatrixElementCache</text>
<text text-anchor="middle" x="247" y="-171" font-family="Helvetica,sans-Serif" font-size="10.00">::getMagneticDipole</text>
</a>
</g>
</g>
<!-- Node1&#45;&gt;Node3 -->
<g id="edge2" class="edge">
<title>Node1&#45;&gt;Node3</title>
<path fill="none" stroke="midnightblue" d="M380.49,-122.18C361.55,-131.9 335.51,-144.84 312,-155 304.92,-158.06 297.31,-161.11 289.89,-163.97"/>
<polygon fill="midnightblue" stroke="midnightblue" points="382.17,-125.25 389.44,-117.55 378.95,-119.04 382.17,-125.25"/>
</g>
<!-- Node4 -->
<g id="node4" class="node">
<title>Node4</title>
<g id="a_node4"><a xlink:href="classMatrixElementCache.html#ad624534d20e42d8c4f495b51d6084057" target="_top" xlink:title=" ">
<polygon fill="none" stroke="black" points="187.5,-115 187.5,-145 306.5,-145 306.5,-115 187.5,-115"/>
<text text-anchor="start" x="195.5" y="-133" font-family="Helvetica,sans-Serif" font-size="10.00">MatrixElementCache</text>
<text text-anchor="middle" x="247" y="-122" font-family="Helvetica,sans-Serif" font-size="10.00">::getRadial</text>
</a>
</g>
</g>
<!-- Node1&#45;&gt;Node4 -->
<g id="edge3" class="edge">
<title>Node1&#45;&gt;Node4</title>
<path fill="none" stroke="midnightblue" d="M337.45,-117.66C327.15,-119.08 316.63,-120.53 306.59,-121.92"/>
<polygon fill="midnightblue" stroke="midnightblue" points="338.23,-121.09 347.65,-116.25 337.27,-114.15 338.23,-121.09"/>
</g>
<!-- Node6 -->
<g id="node6" class="node">
<title>Node6</title>
<g id="a_node6"><a xlink:href="classStateOne.html#a0b5646c4160083ef4b24460e9159ad2c" target="_top" xlink:title=" ">
<polygon fill="none" stroke="black" points="182,-76.5 182,-95.5 312,-95.5 312,-76.5 182,-76.5"/>
<text text-anchor="middle" x="247" y="-83.5" font-family="Helvetica,sans-Serif" font-size="10.00">StateOne::getReflected</text>
</a>
</g>
</g>
<!-- Node1&#45;&gt;Node6 -->
<g id="edge5" class="edge">
<title>Node1&#45;&gt;Node6</title>
<path fill="none" stroke="midnightblue" d="M337.49,-98.34C329.07,-97.18 320.51,-96 312.18,-94.85"/>
<polygon fill="midnightblue" stroke="midnightblue" points="337.27,-101.85 347.65,-99.75 338.23,-94.91 337.27,-101.85"/>
</g>
<!-- Node8 -->
<g id="node8" class="node">
<title>Node8</title>
<g id="a_node8"><a xlink:href="classStateOne.html#a5b05a258a43a682cfe7af5eb57d0221c" target="_top" xlink:title="Implementation of one&#45;atom state ///////////////////////////////.">
<polygon fill="none" stroke="black" points="190.5,-38.5 190.5,-57.5 303.5,-57.5 303.5,-38.5 190.5,-38.5"/>
<text text-anchor="middle" x="247" y="-45.5" font-family="Helvetica,sans-Serif" font-size="10.00">StateOne::StateOne</text>
</a>
</g>
</g>
<!-- Node1&#45;&gt;Node8 -->
<g id="edge7" class="edge">
<title>Node1&#45;&gt;Node8</title>
<path fill="none" stroke="midnightblue" d="M377.75,-94.16C359.08,-85.75 334.4,-75.1 312,-67 302.63,-63.61 292.33,-60.35 282.78,-57.52"/>
<polygon fill="midnightblue" stroke="midnightblue" points="376.36,-97.38 386.92,-98.33 379.26,-91 376.36,-97.38"/>
</g>
<!-- Node9 -->
<g id="node9" class="node">
<title>Node9</title>
<g id="a_node9"><a xlink:href="integration__test_8cpp.html#a0af1002bd92a4dd0a9d058217f63447e" target="_top" xlink:title=" ">
<polygon fill="none" stroke="black" points="187.5,-0.5 187.5,-19.5 306.5,-19.5 306.5,-0.5 187.5,-0.5"/>
<text text-anchor="middle" x="247" y="-7.5" font-family="Helvetica,sans-Serif" font-size="10.00">TEST_CASE_FIXTURE</text>
</a>
</g>
</g>
<!-- Node1&#45;&gt;Node9 -->
<g id="edge8" class="edge">
<title>Node1&#45;&gt;Node9</title>
<path fill="none" stroke="midnightblue" d="M391.11,-90.84C373.21,-73.03 342.95,-45.51 312,-29 304.94,-25.24 297.04,-22.12 289.26,-19.58"/>
<polygon fill="midnightblue" stroke="midnightblue" points="388.91,-93.6 398.42,-98.27 393.9,-88.69 388.91,-93.6"/>
</g>
<!-- Node5 -->
<g id="node5" class="node">
<title>Node5</title>
<g id="a_node5"><a xlink:href="classStateTwo.html#a10b237929cc9326382eef2b2d9db7eca" target="_top" xlink:title=" ">
<polygon fill="none" stroke="black" points="0,-120.5 0,-139.5 146,-139.5 146,-120.5 0,-120.5"/>
<text text-anchor="middle" x="73" y="-127.5" font-family="Helvetica,sans-Serif" font-size="10.00">StateTwo::getLeRoyRadius</text>
</a>
</g>
</g>
<!-- Node4&#45;&gt;Node5 -->
<g id="edge4" class="edge">
<title>Node4&#45;&gt;Node5</title>
<path fill="none" stroke="midnightblue" d="M177.2,-130C166.98,-130 156.43,-130 146.14,-130"/>
<polygon fill="midnightblue" stroke="midnightblue" points="177.29,-133.5 187.29,-130 177.29,-126.5 177.29,-133.5"/>
</g>
<!-- Node7 -->
<g id="node7" class="node">
<title>Node7</title>
<g id="a_node7"><a xlink:href="classSystemTwo.html#a2ac476404813bf4c8990a893404a96b9" target="_top" xlink:title="Method that allows base class to initialize Basis //////////////.">
<polygon fill="none" stroke="black" points="0,-76.5 0,-95.5 146,-95.5 146,-76.5 0,-76.5"/>
<text text-anchor="middle" x="73" y="-83.5" font-family="Helvetica,sans-Serif" font-size="10.00">SystemTwo::initializeBasis</text>
</a>
</g>
</g>
<!-- Node6&#45;&gt;Node7 -->
<g id="edge6" class="edge">
<title>Node6&#45;&gt;Node7</title>
<path fill="none" stroke="midnightblue" d="M171.73,-86C163.26,-86 154.64,-86 146.2,-86"/>
<polygon fill="midnightblue" stroke="midnightblue" points="171.95,-89.5 181.95,-86 171.95,-82.5 171.95,-89.5"/>
</g>
</g>
</svg>
