<?xml version="1.0" encoding="UTF-8" standalone="no"?>
<!DOCTYPE svg PUBLIC "-//W3C//DTD SVG 1.1//EN"
 "http://www.w3.org/Graphics/SVG/1.1/DTD/svg11.dtd">
<!-- Generated by graphviz version 2.43.0 (0)
 -->
<!-- Title: StateTwoOld Pages: 1 -->
<svg width="434pt" height="184pt"
 viewBox="0.00 0.00 434.00 184.00" xmlns="http://www.w3.org/2000/svg" xmlns:xlink="http://www.w3.org/1999/xlink">
<g id="graph0" class="graph" transform="scale(1 1) rotate(0) translate(4 180)">
<title>StateTwoOld</title>
<!-- Node1 -->
<g id="node1" class="node">
<title>Node1</title>
<g id="a_node1"><a xlink:title="Two&#45;atom Rydberg state">
<polygon fill="#bfbfbf" stroke="black" points="163,-0.5 163,-19.5 240,-19.5 240,-0.5 163,-0.5"/>
<text text-anchor="middle" x="201.5" y="-7.5" font-family="Helvetica,sans-Serif" font-size="10.00">StateTwoOld</text>
</a>
</g>
</g>
<!-- Node2 -->
<g id="node2" class="node">
<title>Node2</title>
<g id="a_node2"><a xlink:href="classStateOld.html" target="_top" xlink:title="Base class for states">
<polygon fill="none" stroke="black" points="0,-89.5 0,-108.5 59,-108.5 59,-89.5 0,-89.5"/>
<text text-anchor="middle" x="29.5" y="-96.5" font-family="Helvetica,sans-Serif" font-size="10.00">StateOld</text>
</a>
</g>
</g>
<!-- Node2&#45;&gt;Node1 -->
<g id="edge1" class="edge">
<title>Node2&#45;&gt;Node1</title>
<path fill="none" stroke="midnightblue" d="M55.61,-84.79C91.36,-66.71 154.52,-34.76 184.63,-19.53"/>
<polygon fill="midnightblue" stroke="midnightblue" points="53.65,-81.86 46.31,-89.5 56.81,-88.11 53.65,-81.86"/>
</g>
<!-- Node3 -->
<g id="node3" class="node">
<title>Node3</title>
<g id="a_node3"><a xlink:title=" ">
<polygon fill="none" stroke="#bfbfbf" points="1.5,-156.5 1.5,-175.5 57.5,-175.5 57.5,-156.5 1.5,-156.5"/>
<text text-anchor="middle" x="29.5" y="-163.5" font-family="Helvetica,sans-Serif" font-size="10.00">uint32_t</text>
</a>
</g>
</g>
<!-- Node3&#45;&gt;Node2 -->
<g id="edge2" class="edge">
<title>Node3&#45;&gt;Node2</title>
<path fill="none" stroke="#9a32cd" stroke-dasharray="5,2" d="M29.5,-146.04C29.5,-133.67 29.5,-118.12 29.5,-108.63"/>
<polygon fill="#9a32cd" stroke="#9a32cd" points="26,-146.23 29.5,-156.23 33,-146.23 26,-146.23"/>
<text text-anchor="middle" x="39" y="-130" font-family="Helvetica,sans-Serif" font-size="10.00"> idx</text>
</g>
<!-- Node4 -->
<g id="node4" class="node">
<title>Node4</title>
<g id="a_node4"><a xlink:title=" ">
<polygon fill="none" stroke="#bfbfbf" points="77,-89.5 77,-108.5 202,-108.5 202,-89.5 77,-89.5"/>
<text text-anchor="middle" x="139.5" y="-96.5" font-family="Helvetica,sans-Serif" font-size="10.00">array&lt; std::string, 2 &gt;</text>
</a>
</g>
</g>
<!-- Node4&#45;&gt;Node1 -->
<g id="edge3" class="edge">
<title>Node4&#45;&gt;Node1</title>
<path fill="none" stroke="#9a32cd" stroke-dasharray="5,2" d="M151.62,-80.99C164.76,-62.56 185.2,-33.87 195.35,-19.62"/>
<polygon fill="#9a32cd" stroke="#9a32cd" points="148.62,-79.17 145.67,-89.34 154.33,-83.23 148.62,-79.17"/>
<text text-anchor="middle" x="203.5" y="-57.5" font-family="Helvetica,sans-Serif" font-size="10.00"> element</text>
<text text-anchor="middle" x="203.5" y="-46.5" font-family="Helvetica,sans-Serif" font-size="10.00">species</text>
</g>
<!-- Node5 -->
<g id="node5" class="node">
<title>Node5</title>
<g id="a_node5"><a xlink:title=" ">
<polygon fill="none" stroke="#bfbfbf" points="220,-89.5 220,-108.5 309,-108.5 309,-89.5 220,-89.5"/>
<text text-anchor="middle" x="264.5" y="-96.5" font-family="Helvetica,sans-Serif" font-size="10.00">array&lt; int, 2 &gt;</text>
</a>
</g>
</g>
<!-- Node5&#45;&gt;Node1 -->
<g id="edge4" class="edge">
<title>Node5&#45;&gt;Node1</title>
<path fill="none" stroke="#9a32cd" stroke-dasharray="5,2" d="M255.75,-80.13C249.29,-67.75 239.86,-51.19 229.5,-38 224.24,-31.31 217.38,-24.66 211.76,-19.64"/>
<polygon fill="#9a32cd" stroke="#9a32cd" points="252.79,-82.04 260.43,-89.39 259.04,-78.88 252.79,-82.04"/>
<text text-anchor="middle" x="253" y="-57.5" font-family="Helvetica,sans-Serif" font-size="10.00"> l</text>
<text text-anchor="middle" x="253" y="-46.5" font-family="Helvetica,sans-Serif" font-size="10.00">n</text>
</g>
<!-- Node6 -->
<g id="node6" class="node">
<title>Node6</title>
<g id="a_node6"><a xlink:title=" ">
<polygon fill="none" stroke="#bfbfbf" points="327,-89.5 327,-108.5 426,-108.5 426,-89.5 327,-89.5"/>
<text text-anchor="middle" x="376.5" y="-96.5" font-family="Helvetica,sans-Serif" font-size="10.00">array&lt; float, 2 &gt;</text>
</a>
</g>
</g>
<!-- Node6&#45;&gt;Node1 -->
<g id="edge5" class="edge">
<title>Node6&#45;&gt;Node1</title>
<path fill="none" stroke="#9a32cd" stroke-dasharray="5,2" d="M351.59,-84.67C328.22,-72.28 292.21,-53.45 260.5,-38 247.33,-31.59 232.33,-24.72 220.74,-19.52"/>
<polygon fill="#9a32cd" stroke="#9a32cd" points="350.01,-87.8 360.49,-89.41 353.3,-81.62 350.01,-87.8"/>
<text text-anchor="middle" x="328.5" y="-63" font-family="Helvetica,sans-Serif" font-size="10.00"> j</text>
<text text-anchor="middle" x="328.5" y="-52" font-family="Helvetica,sans-Serif" font-size="10.00">m</text>
<text text-anchor="middle" x="328.5" y="-41" font-family="Helvetica,sans-Serif" font-size="10.00">s</text>
</g>
</g>
</svg>
