<?xml version="1.0" encoding="UTF-8" standalone="no"?>
<!DOCTYPE svg PUBLIC "-//W3C//DTD SVG 1.1//EN"
 "http://www.w3.org/Graphics/SVG/1.1/DTD/svg11.dtd">
<!-- Generated by graphviz version 2.43.0 (0)
 -->
<!-- Title: StateTwo::getSpecies Pages: 1 -->
<svg width="293pt" height="78pt"
 viewBox="0.00 0.00 293.00 77.50" xmlns="http://www.w3.org/2000/svg" xmlns:xlink="http://www.w3.org/1999/xlink">
<g id="graph0" class="graph" transform="scale(1 1) rotate(0) translate(4 73.5)">
<title>StateTwo::getSpecies</title>
<!-- Node1 -->
<g id="node1" class="node">
<title>Node1</title>
<g id="a_node1"><a xlink:title=" ">
<polygon fill="#bfbfbf" stroke="black" points="165,-22.5 165,-41.5 285,-41.5 285,-22.5 165,-22.5"/>
<text text-anchor="middle" x="225" y="-29.5" font-family="Helvetica,sans-Serif" font-size="10.00">StateTwo::getSpecies</text>
</a>
</g>
</g>
<!-- Node2 -->
<g id="node2" class="node">
<title>Node2</title>
<g id="a_node2"><a xlink:href="classPerturbativeInteraction.html#aef0f5d43fdcf0377dc53e31730c99cb9" target="_top" xlink:title=" ">
<polygon fill="none" stroke="black" points="0,-39 0,-69 129,-69 129,-39 0,-39"/>
<text text-anchor="start" x="8" y="-57" font-family="Helvetica,sans-Serif" font-size="10.00">PerturbativeInteraction</text>
<text text-anchor="middle" x="64.5" y="-46" font-family="Helvetica,sans-Serif" font-size="10.00">::getC6</text>
</a>
</g>
</g>
<!-- Node1&#45;&gt;Node2 -->
<g id="edge1" class="edge">
<title>Node1&#45;&gt;Node2</title>
<path fill="none" stroke="midnightblue" d="M154.98,-41.58C146.37,-42.77 137.6,-43.99 129.09,-45.17"/>
<polygon fill="midnightblue" stroke="midnightblue" points="155.56,-45.03 164.98,-40.19 154.59,-38.1 155.56,-45.03"/>
</g>
<!-- Node3 -->
<g id="node3" class="node">
<title>Node3</title>
<g id="a_node3"><a xlink:href="classStateTwo.html#a8144dc47a35a397f9b040a5de5d8673e" target="_top" xlink:title=" ">
<polygon fill="none" stroke="black" points="0,-0.5 0,-19.5 129,-19.5 129,-0.5 0,-0.5"/>
<text text-anchor="middle" x="64.5" y="-7.5" font-family="Helvetica,sans-Serif" font-size="10.00">StateTwo::getReflected</text>
</a>
</g>
</g>
<!-- Node1&#45;&gt;Node3 -->
<g id="edge2" class="edge">
<title>Node1&#45;&gt;Node3</title>
<path fill="none" stroke="midnightblue" d="M154.98,-22.42C146.37,-21.23 137.6,-20.01 129.09,-18.83"/>
<polygon fill="midnightblue" stroke="midnightblue" points="154.59,-25.9 164.98,-23.81 155.56,-18.97 154.59,-25.9"/>
</g>
</g>
</svg>
