<?xml version="1.0" encoding="UTF-8" standalone="no"?>
<!DOCTYPE svg PUBLIC "-//W3C//DTD SVG 1.1//EN"
 "http://www.w3.org/Graphics/SVG/1.1/DTD/svg11.dtd">
<!-- Generated by graphviz version 2.43.0 (0)
 -->
<!-- Title: HamiltonianTwo::calculate Pages: 1 -->
<!--zoomable 879 -->
<svg id="main" version="1.1" xmlns="http://www.w3.org/2000/svg" xmlns:xlink="http://www.w3.org/1999/xlink" xml:space="preserve" onload="init(evt)">
<style type="text/css"><![CDATA[
.edge:hover path { stroke: red; }
.edge:hover polygon { stroke: red; fill: red; }
]]></style>
<script type="text/javascript"><![CDATA[
var edges = document.getElementsByTagName('g');
if (edges && edges.length) {
  for (var i=0;i<edges.length;i++) {
    if (edges[i].id.substr(0,4)=='edge') {
      edges[i].setAttribute('class','edge');
    }
  }
}
]]></script>
        <defs>
                <circle id="rim" cx="0" cy="0" r="7"/>
                <circle id="rim2" cx="0" cy="0" r="3.5"/>
                <g id="zoomPlus">
                        <use xlink:href="#rim" fill="#404040">
                                <set attributeName="fill" to="#808080" begin="zoomplus.mouseover" end="zoomplus.mouseout"/>
                        </use>
                        <path d="M-4,0h8M0,-4v8" fill="none" stroke="white" stroke-width="1.5" pointer-events="none"/>
                </g>
                <g id="zoomMin">
                        <use xlink:href="#rim" fill="#404040">
                                <set attributeName="fill" to="#808080" begin="zoomminus.mouseover" end="zoomminus.mouseout"/>
                        </use>
                        <path d="M-4,0h8" fill="none" stroke="white" stroke-width="1.5" pointer-events="none"/>
                </g>
                <g id="dirArrow">
                        <path fill="none" stroke="white" stroke-width="1.5" d="M0,-3.0v7 M-2.5,-0.5L0,-3.0L2.5,-0.5"/>
                </g>
               <g id="resetDef">
                       <use xlink:href="#rim2" fill="#404040">
                               <set attributeName="fill" to="#808080" begin="reset.mouseover" end="reset.mouseout"/>
                       </use>
               </g>
        </defs>

<script type="text/javascript">
var viewWidth = 533;
var viewHeight = 879;
var sectionId = 'dynsection-4';
</script>
<script xlink:href="svgpan.js"/>
<svg id="graph" class="graph">
<g id="viewport">
<title>HamiltonianTwo::calculate</title>
<!-- Node1 -->
<g id="node1" class="node">
<title>Node1</title>
<g id="a_node1"><a xlink:title=" ">
<polygon fill="#bfbfbf" stroke="black" points="0,-436.5 0,-455.5 146,-455.5 146,-436.5 0,-436.5"/>
<text text-anchor="middle" x="73" y="-443.5" font-family="Helvetica,sans-Serif" font-size="10.00">HamiltonianTwo::calculate</text>
</a>
</g>
</g>
<!-- Node2 -->
<g id="node2" class="node">
<title>Node2</title>
<g id="a_node2"><a xlink:href="classHamiltonianmatrix.html#a380eba3c9bd10bda4cf48b4f3c751831" target="_top" xlink:title=" ">
<polygon fill="none" stroke="black" points="214,-840 214,-870 329,-870 329,-840 214,-840"/>
<text text-anchor="start" x="222" y="-858" font-family="Helvetica,sans-Serif" font-size="10.00">Hamiltonianmatrix::</text>
<text text-anchor="middle" x="271.5" y="-847" font-family="Helvetica,sans-Serif" font-size="10.00">basis</text>
</a>
</g>
</g>
<!-- Node1&#45;&gt;Node2 -->
<g id="edge1" class="edge">
<title>Node1&#45;&gt;Node2</title>
<path fill="none" stroke="midnightblue" d="M73.52,-455.75C71.72,-504.11 70.34,-720.3 182,-831 188.32,-837.27 196.11,-841.95 204.42,-845.43"/>
<polygon fill="midnightblue" stroke="midnightblue" points="203.38,-848.77 213.97,-848.87 205.75,-842.18 203.38,-848.77"/>
</g>
<!-- Node3 -->
<g id="node3" class="node">
<title>Node3</title>
<g id="a_node3"><a xlink:href="classHamiltonianmatrix.html#a6ec6a4af8a9fc3a166d39a5716d5cbf0" target="_top" xlink:title=" ">
<polygon fill="none" stroke="black" points="214,-791 214,-821 329,-821 329,-791 214,-791"/>
<text text-anchor="start" x="222" y="-809" font-family="Helvetica,sans-Serif" font-size="10.00">Hamiltonianmatrix::</text>
<text text-anchor="middle" x="271.5" y="-798" font-family="Helvetica,sans-Serif" font-size="10.00">changeBasis</text>
</a>
</g>
</g>
<!-- Node1&#45;&gt;Node3 -->
<g id="edge2" class="edge">
<title>Node1&#45;&gt;Node3</title>
<path fill="none" stroke="midnightblue" d="M74.02,-455.64C74.64,-499.94 83.24,-685.78 182,-781 188.35,-787.12 196.07,-791.76 204.29,-795.28"/>
<polygon fill="midnightblue" stroke="midnightblue" points="203.13,-798.58 213.72,-798.79 205.57,-792.02 203.13,-798.58"/>
</g>
<!-- Node4 -->
<g id="node4" class="node">
<title>Node4</title>
<g id="a_node4"><a xlink:href="Hamiltonianmatrix_8cpp.html#add3d976c2b83cb55a2ec58707a1cca2c" target="_top" xlink:title=" ">
<polygon fill="none" stroke="black" points="242,-752.5 242,-771.5 301,-771.5 301,-752.5 242,-752.5"/>
<text text-anchor="middle" x="271.5" y="-759.5" font-family="Helvetica,sans-Serif" font-size="10.00">combine</text>
</a>
</g>
</g>
<!-- Node1&#45;&gt;Node4 -->
<g id="edge3" class="edge">
<title>Node1&#45;&gt;Node4</title>
<path fill="none" stroke="midnightblue" d="M74.32,-455.53C76.27,-496.91 89.75,-662.62 182,-743 195.54,-754.8 214.63,-759.85 231.61,-761.83"/>
<polygon fill="midnightblue" stroke="midnightblue" points="231.59,-765.34 241.85,-762.69 232.18,-758.36 231.59,-765.34"/>
</g>
<!-- Node5 -->
<g id="node5" class="node">
<title>Node5</title>
<g id="a_node5"><a xlink:href="classHamiltonianmatrix.html#a999f039fe247710f679faf730701ae1a" target="_top" xlink:title=" ">
<polygon fill="none" stroke="black" points="214,-703 214,-733 329,-733 329,-703 214,-703"/>
<text text-anchor="start" x="222" y="-721" font-family="Helvetica,sans-Serif" font-size="10.00">Hamiltonianmatrix::</text>
<text text-anchor="middle" x="271.5" y="-710" font-family="Helvetica,sans-Serif" font-size="10.00">diagonalize</text>
</a>
</g>
</g>
<!-- Node1&#45;&gt;Node5 -->
<g id="edge4" class="edge">
<title>Node1&#45;&gt;Node5</title>
<path fill="none" stroke="midnightblue" d="M75.24,-455.51C80.52,-492.16 104.56,-625.5 182,-693 188.49,-698.66 196.17,-703.04 204.25,-706.43"/>
<polygon fill="midnightblue" stroke="midnightblue" points="203.28,-709.8 213.87,-709.98 205.7,-703.24 203.28,-709.8"/>
</g>
<!-- Node6 -->
<g id="node6" class="node">
<title>Node6</title>
<g id="a_node6"><a xlink:href="Hamiltonianmatrix_8cpp.html#a58f0d616238b3fa0fdc43567941a2a82" target="_top" xlink:title=" ">
<polygon fill="none" stroke="black" points="232,-664.5 232,-683.5 311,-683.5 311,-664.5 232,-664.5"/>
<text text-anchor="middle" x="271.5" y="-671.5" font-family="Helvetica,sans-Serif" font-size="10.00">energycutoff</text>
</a>
</g>
</g>
<!-- Node1&#45;&gt;Node6 -->
<g id="edge5" class="edge">
<title>Node1&#45;&gt;Node6</title>
<path fill="none" stroke="midnightblue" d="M75.95,-455.79C83.21,-489.47 111.91,-601.42 182,-655 193.35,-663.68 207.81,-668.59 221.72,-671.31"/>
<polygon fill="midnightblue" stroke="midnightblue" points="221.28,-674.79 231.71,-672.93 222.4,-667.88 221.28,-674.79"/>
</g>
<!-- Node7 -->
<g id="node7" class="node">
<title>Node7</title>
<g id="a_node7"><a xlink:href="classsqlite_1_1statement.html#add6b491603e9505c82779ad762f72888" target="_top" xlink:title="Execute SQLite statements.">
<polygon fill="none" stroke="black" points="207,-626.5 207,-645.5 336,-645.5 336,-626.5 207,-626.5"/>
<text text-anchor="middle" x="271.5" y="-633.5" font-family="Helvetica,sans-Serif" font-size="10.00">sqlite::statement::exec</text>
</a>
</g>
</g>
<!-- Node1&#45;&gt;Node7 -->
<g id="edge6" class="edge">
<title>Node1&#45;&gt;Node7</title>
<path fill="none" stroke="midnightblue" d="M77.07,-455.64C86.95,-485.08 120.96,-574.39 182,-617 186.79,-620.34 192.05,-623.11 197.55,-625.41"/>
<polygon fill="midnightblue" stroke="midnightblue" points="196.39,-628.71 206.98,-628.85 198.78,-622.14 196.39,-628.71"/>
</g>
<!-- Node8 -->
<g id="node8" class="node">
<title>Node8</title>
<g id="a_node8"><a xlink:href="classStateTwoOld.html#aad5fb4307dec316a5b602c2e8bfae0a8" target="_top" xlink:title=" ">
<polygon fill="none" stroke="black" points="220,-588.5 220,-607.5 323,-607.5 323,-588.5 220,-588.5"/>
<text text-anchor="middle" x="271.5" y="-595.5" font-family="Helvetica,sans-Serif" font-size="10.00">StateTwoOld::first</text>
</a>
</g>
</g>
<!-- Node1&#45;&gt;Node8 -->
<g id="edge7" class="edge">
<title>Node1&#45;&gt;Node8</title>
<path fill="none" stroke="midnightblue" d="M78.77,-455.57C91.66,-480.37 129.77,-546.97 182,-579 190.44,-584.18 200.09,-587.95 209.83,-590.71"/>
<polygon fill="midnightblue" stroke="midnightblue" points="209.02,-594.12 219.57,-593.14 210.72,-587.32 209.02,-594.12"/>
</g>
<!-- Node9 -->
<g id="node9" class="node">
<title>Node9</title>
<g id="a_node9"><a xlink:href="classBasisnamesOne.html#a37fe3571090885a8a594eed4019befa9" target="_top" xlink:title=" ">
<polygon fill="none" stroke="black" points="199,-550.5 199,-569.5 344,-569.5 344,-550.5 199,-550.5"/>
<text text-anchor="middle" x="271.5" y="-557.5" font-family="Helvetica,sans-Serif" font-size="10.00">BasisnamesOne::fromFirst</text>
</a>
</g>
</g>
<!-- Node1&#45;&gt;Node9 -->
<g id="edge8" class="edge">
<title>Node1&#45;&gt;Node9</title>
<path fill="none" stroke="midnightblue" d="M81.81,-455.58C98.2,-474.99 138.28,-518.99 182,-541 186.82,-543.43 191.95,-545.55 197.21,-547.4"/>
<polygon fill="midnightblue" stroke="midnightblue" points="196.19,-550.75 206.78,-550.44 198.31,-544.08 196.19,-550.75"/>
</g>
<!-- Node11 -->
<g id="node11" class="node">
<title>Node11</title>
<g id="a_node11"><a xlink:href="classBasisnamesOne.html#a683ae34cba3c56f9a0185e932de62078" target="_top" xlink:title=" ">
<polygon fill="none" stroke="black" points="191.5,-512.5 191.5,-531.5 351.5,-531.5 351.5,-512.5 191.5,-512.5"/>
<text text-anchor="middle" x="271.5" y="-519.5" font-family="Helvetica,sans-Serif" font-size="10.00">BasisnamesOne::fromSecond</text>
</a>
</g>
</g>
<!-- Node1&#45;&gt;Node11 -->
<g id="edge10" class="edge">
<title>Node1&#45;&gt;Node11</title>
<path fill="none" stroke="midnightblue" d="M89.12,-455.7C109.46,-468.35 147.13,-490.33 182,-503 189.27,-505.64 197.02,-507.97 204.78,-510.01"/>
<polygon fill="midnightblue" stroke="midnightblue" points="204.06,-513.43 214.61,-512.43 205.74,-506.64 204.06,-513.43"/>
</g>
<!-- Node12 -->
<g id="node12" class="node">
<title>Node12</title>
<g id="a_node12"><a xlink:href="classsqlite_1_1statement.html#a881b89458af4ea9bde7a80e416f53903" target="_top" xlink:title="Get value of a field.">
<polygon fill="none" stroke="black" points="210.5,-474.5 210.5,-493.5 332.5,-493.5 332.5,-474.5 210.5,-474.5"/>
<text text-anchor="middle" x="271.5" y="-481.5" font-family="Helvetica,sans-Serif" font-size="10.00">sqlite::statement::get</text>
</a>
</g>
</g>
<!-- Node1&#45;&gt;Node12 -->
<g id="edge12" class="edge">
<title>Node1&#45;&gt;Node12</title>
<path fill="none" stroke="midnightblue" d="M123.33,-455.54C149.96,-460.69 183.03,-467.08 211.07,-472.51"/>
<polygon fill="midnightblue" stroke="midnightblue" points="210.67,-475.99 221.15,-474.46 211.99,-469.12 210.67,-475.99"/>
</g>
<!-- Node13 -->
<g id="node13" class="node">
<title>Node13</title>
<g id="a_node13"><a xlink:href="classMatrixElements.html#a6b21945229b04895c8a2e896454df444" target="_top" xlink:title=" ">
<polygon fill="none" stroke="black" points="191,-436.5 191,-455.5 352,-455.5 352,-436.5 191,-436.5"/>
<text text-anchor="middle" x="271.5" y="-443.5" font-family="Helvetica,sans-Serif" font-size="10.00">MatrixElements::getMultipole</text>
</a>
</g>
</g>
<!-- Node1&#45;&gt;Node13 -->
<g id="edge13" class="edge">
<title>Node1&#45;&gt;Node13</title>
<path fill="none" stroke="midnightblue" d="M146.05,-446C157.32,-446 169.08,-446 180.69,-446"/>
<polygon fill="midnightblue" stroke="midnightblue" points="180.83,-449.5 190.83,-446 180.83,-442.5 180.83,-449.5"/>
</g>
<!-- Node14 -->
<g id="node14" class="node">
<title>Node14</title>
<g id="a_node14"><a xlink:href="classHamiltonianmatrix.html#a0bd9dcb748a4503a929e7d49f8a825b9" target="_top" xlink:title=" ">
<polygon fill="none" stroke="black" points="203.5,-398.5 203.5,-417.5 339.5,-417.5 339.5,-398.5 203.5,-398.5"/>
<text text-anchor="middle" x="271.5" y="-405.5" font-family="Helvetica,sans-Serif" font-size="10.00">Hamiltonianmatrix::load</text>
</a>
</g>
</g>
<!-- Node1&#45;&gt;Node14 -->
<g id="edge14" class="edge">
<title>Node1&#45;&gt;Node14</title>
<path fill="none" stroke="midnightblue" d="M123.33,-436.46C149.96,-431.31 183.03,-424.92 211.07,-419.49"/>
<polygon fill="midnightblue" stroke="midnightblue" points="211.99,-422.88 221.15,-417.54 210.67,-416.01 211.99,-422.88"/>
</g>
<!-- Node15 -->
<g id="node15" class="node">
<title>Node15</title>
<g id="a_node15"><a xlink:href="classConfiguration.html#a545d28b3d64edc05331ee71898acfd1c" target="_top" xlink:title="Load configuration from JSON file.">
<polygon fill="none" stroke="black" points="216.5,-349 216.5,-379 326.5,-379 326.5,-349 216.5,-349"/>
<text text-anchor="start" x="224.5" y="-367" font-family="Helvetica,sans-Serif" font-size="10.00">Configuration::load</text>
<text text-anchor="middle" x="271.5" y="-356" font-family="Helvetica,sans-Serif" font-size="10.00">_from_json</text>
</a>
</g>
</g>
<!-- Node1&#45;&gt;Node15 -->
<g id="edge15" class="edge">
<title>Node1&#45;&gt;Node15</title>
<path fill="none" stroke="midnightblue" d="M89.6,-436.42C110.16,-424.11 147.75,-402.7 182,-389 189.78,-385.89 198.09,-383 206.38,-380.38"/>
<polygon fill="midnightblue" stroke="midnightblue" points="207.53,-383.69 216.07,-377.43 205.49,-376.99 207.53,-383.69"/>
</g>
<!-- Node16 -->
<g id="node16" class="node">
<title>Node16</title>
<g id="a_node16"><a xlink:href="classHamiltonianmatrix.html#a5f82781cc5ae99854e842cfc1a9bb4d5" target="_top" xlink:title=" ">
<polygon fill="none" stroke="black" points="214,-300 214,-330 329,-330 329,-300 214,-300"/>
<text text-anchor="start" x="222" y="-318" font-family="Helvetica,sans-Serif" font-size="10.00">Hamiltonianmatrix::</text>
<text text-anchor="middle" x="271.5" y="-307" font-family="Helvetica,sans-Serif" font-size="10.00">num_basisvectors</text>
</a>
</g>
</g>
<!-- Node1&#45;&gt;Node16 -->
<g id="edge16" class="edge">
<title>Node1&#45;&gt;Node16</title>
<path fill="none" stroke="midnightblue" d="M80.95,-436.48C96.6,-415.73 136.78,-366.24 182,-340 188.8,-336.06 196.25,-332.71 203.86,-329.86"/>
<polygon fill="midnightblue" stroke="midnightblue" points="205.23,-333.1 213.54,-326.53 202.95,-326.48 205.23,-333.1"/>
</g>
<!-- Node17 -->
<g id="node17" class="node">
<title>Node17</title>
<g id="a_node17"><a xlink:href="classMatrixElements.html#a9c1a327dedbd617cae43dbcff1685a43" target="_top" xlink:title=" ">
<polygon fill="none" stroke="black" points="191.5,-251 191.5,-281 351.5,-281 351.5,-251 191.5,-251"/>
<text text-anchor="start" x="199.5" y="-269" font-family="Helvetica,sans-Serif" font-size="10.00">MatrixElements::precalculate</text>
<text text-anchor="middle" x="271.5" y="-258" font-family="Helvetica,sans-Serif" font-size="10.00">Multipole</text>
</a>
</g>
</g>
<!-- Node1&#45;&gt;Node17 -->
<g id="edge17" class="edge">
<title>Node1&#45;&gt;Node17</title>
<path fill="none" stroke="midnightblue" d="M77.94,-436.27C89.51,-408.91 126.16,-330.76 182,-291 184.73,-289.06 187.61,-287.26 190.59,-285.61"/>
<polygon fill="midnightblue" stroke="midnightblue" points="192.4,-288.62 199.82,-281.05 189.3,-282.34 192.4,-288.62"/>
</g>
<!-- Node18 -->
<g id="node18" class="node">
<title>Node18</title>
<g id="a_node18"><a xlink:href="classsqlite_1_1statement.html#a1b40871fb975892f70ea097f7c6da9c1" target="_top" xlink:title="Prepare the statement.">
<polygon fill="none" stroke="black" points="218.5,-202 218.5,-232 324.5,-232 324.5,-202 218.5,-202"/>
<text text-anchor="start" x="226.5" y="-220" font-family="Helvetica,sans-Serif" font-size="10.00">sqlite::statement::</text>
<text text-anchor="middle" x="271.5" y="-209" font-family="Helvetica,sans-Serif" font-size="10.00">prepare</text>
</a>
</g>
</g>
<!-- Node1&#45;&gt;Node18 -->
<g id="edge18" class="edge">
<title>Node1&#45;&gt;Node18</title>
<path fill="none" stroke="midnightblue" d="M76.27,-436.15C84.36,-403.23 114.98,-296.15 182,-242 189.82,-235.68 199.16,-230.95 208.78,-227.42"/>
<polygon fill="midnightblue" stroke="midnightblue" points="210.03,-230.7 218.46,-224.28 207.87,-224.04 210.03,-230.7"/>
</g>
<!-- Node19 -->
<g id="node19" class="node">
<title>Node19</title>
<g id="a_node19"><a xlink:href="classHamiltonianmatrix.html#a54bf468687519cbdea0dcd7c7427dfa1" target="_top" xlink:title=" ">
<polygon fill="none" stroke="black" points="182,-153 182,-183 361,-183 361,-153 182,-153"/>
<text text-anchor="start" x="190" y="-171" font-family="Helvetica,sans-Serif" font-size="10.00">Hamiltonianmatrix::</text>
<text text-anchor="middle" x="271.5" y="-160" font-family="Helvetica,sans-Serif" font-size="10.00">removeUnnecessaryBasisvectors</text>
</a>
</g>
</g>
<!-- Node1&#45;&gt;Node19 -->
<g id="edge19" class="edge">
<title>Node1&#45;&gt;Node19</title>
<path fill="none" stroke="midnightblue" d="M75.16,-436.26C80.15,-398.74 103.28,-262.23 182,-193 183.94,-191.29 185.99,-189.7 188.13,-188.22"/>
<polygon fill="midnightblue" stroke="midnightblue" points="189.99,-191.18 196.75,-183.02 186.38,-185.19 189.99,-191.18"/>
</g>
<!-- Node20 -->
<g id="node20" class="node">
<title>Node20</title>
<g id="a_node20"><a xlink:href="classHamiltonianmatrix.html#aa16c272ac7162d987e851a678e9ff3c6" target="_top" xlink:title=" ">
<polygon fill="none" stroke="black" points="202.5,-114.5 202.5,-133.5 340.5,-133.5 340.5,-114.5 202.5,-114.5"/>
<text text-anchor="middle" x="271.5" y="-121.5" font-family="Helvetica,sans-Serif" font-size="10.00">Hamiltonianmatrix::save</text>
</a>
</g>
</g>
<!-- Node1&#45;&gt;Node20 -->
<g id="edge20" class="edge">
<title>Node1&#45;&gt;Node20</title>
<path fill="none" stroke="midnightblue" d="M74.29,-436.34C76.08,-394.38 89.04,-226.32 182,-144 185.41,-140.98 189.18,-138.39 193.18,-136.17"/>
<polygon fill="midnightblue" stroke="midnightblue" points="194.72,-139.31 202.26,-131.87 191.73,-132.98 194.72,-139.31"/>
</g>
<!-- Node21 -->
<g id="node21" class="node">
<title>Node21</title>
<g id="a_node21"><a xlink:href="classStateTwoOld.html#a6efa9c8f92e433004b778f6f5ce212d9" target="_top" xlink:title=" ">
<polygon fill="none" stroke="black" points="212.5,-76.5 212.5,-95.5 330.5,-95.5 330.5,-76.5 212.5,-76.5"/>
<text text-anchor="middle" x="271.5" y="-83.5" font-family="Helvetica,sans-Serif" font-size="10.00">StateTwoOld::second</text>
</a>
</g>
</g>
<!-- Node1&#45;&gt;Node21 -->
<g id="edge21" class="edge">
<title>Node1&#45;&gt;Node21</title>
<path fill="none" stroke="midnightblue" d="M73.82,-436.34C73.53,-391.18 78.61,-198.98 182,-105 188.03,-99.51 195.26,-95.47 202.95,-92.51"/>
<polygon fill="midnightblue" stroke="midnightblue" points="204.06,-95.83 212.5,-89.42 201.91,-89.17 204.06,-95.83"/>
</g>
<!-- Node22 -->
<g id="node22" class="node">
<title>Node22</title>
<g id="a_node22"><a xlink:href="MatrixElements_8cpp.html#a8091d5442eeac91702ef15b470e70798" target="_top" xlink:title=" ">
<polygon fill="none" stroke="black" points="204.5,-38.5 204.5,-57.5 338.5,-57.5 338.5,-38.5 204.5,-38.5"/>
<text text-anchor="middle" x="271.5" y="-45.5" font-family="Helvetica,sans-Serif" font-size="10.00">selectionRulesMultipole</text>
</a>
</g>
</g>
<!-- Node1&#45;&gt;Node22 -->
<g id="edge22" class="edge">
<title>Node1&#45;&gt;Node22</title>
<path fill="none" stroke="midnightblue" d="M75.39,-436.38C83.34,-382.7 124.68,-120.65 182,-67 185.85,-63.4 190.2,-60.42 194.87,-57.95"/>
<polygon fill="midnightblue" stroke="midnightblue" points="196.45,-61.08 204.17,-53.82 193.61,-54.68 196.45,-61.08"/>
</g>
<!-- Node23 -->
<g id="node23" class="node">
<title>Node23</title>
<g id="a_node23"><a xlink:href="classsqlite_1_1statement.html#a0ef0c0c1fd66918b9a9c6167fd2e668f" target="_top" xlink:title="Step the statement.">
<polygon fill="none" stroke="black" points="208,-0.5 208,-19.5 335,-19.5 335,-0.5 208,-0.5"/>
<text text-anchor="middle" x="271.5" y="-7.5" font-family="Helvetica,sans-Serif" font-size="10.00">sqlite::statement::step</text>
</a>
</g>
</g>
<!-- Node1&#45;&gt;Node23 -->
<g id="edge23" class="edge">
<title>Node1&#45;&gt;Node23</title>
<path fill="none" stroke="midnightblue" d="M75.15,-436.19C82.05,-378.95 119.79,-88.65 182,-29 186.69,-24.5 192.17,-20.96 198.07,-18.19"/>
<polygon fill="midnightblue" stroke="midnightblue" points="199.6,-21.35 207.63,-14.43 197.04,-14.83 199.6,-21.35"/>
</g>
<!-- Node10 -->
<g id="node10" class="node">
<title>Node10</title>
<g id="a_node10"><a xlink:href="classBasisnames.html#a534f7e2dcc2987a1f969cb89c070da04" target="_top" xlink:title=" ">
<polygon fill="none" stroke="black" points="397,-531.5 397,-550.5 525,-550.5 525,-531.5 397,-531.5"/>
<text text-anchor="middle" x="461" y="-538.5" font-family="Helvetica,sans-Serif" font-size="10.00">Basisnames::configure</text>
</a>
</g>
</g>
<!-- Node9&#45;&gt;Node10 -->
<g id="edge9" class="edge">
<title>Node9&#45;&gt;Node10</title>
<path fill="none" stroke="midnightblue" d="M344.19,-552.74C358.16,-551.32 372.83,-549.83 386.86,-548.41"/>
<polygon fill="midnightblue" stroke="midnightblue" points="387.34,-551.88 396.93,-547.39 386.63,-544.92 387.34,-551.88"/>
</g>
<!-- Node11&#45;&gt;Node10 -->
<g id="edge11" class="edge">
<title>Node11&#45;&gt;Node10</title>
<path fill="none" stroke="midnightblue" d="M351.75,-530.03C363.42,-531.21 375.4,-532.43 386.94,-533.6"/>
<polygon fill="midnightblue" stroke="midnightblue" points="386.65,-537.08 396.95,-534.61 387.35,-530.12 386.65,-537.08"/>
</g>
</g>
</svg>
        <g id="navigator" transform="translate(0 0)" fill="#404254">
                <rect fill="#f2f5e9" fill-opacity="0.5" stroke="#606060" stroke-width=".5" x="0" y="0" width="60" height="60"/>
                <use id="zoomplus" xlink:href="#zoomPlus" x="17" y="9" onmousedown="handleZoom(evt,'in')"/>
                <use id="zoomminus" xlink:href="#zoomMin" x="42" y="9" onmousedown="handleZoom(evt,'out')"/>
                <use id="reset" xlink:href="#resetDef" x="30" y="36" onmousedown="handleReset()"/>
                <g id="arrowUp" xlink:href="#dirArrow" transform="translate(30 24)" onmousedown="handlePan(0,-1)">
                  <use xlink:href="#rim" fill="#404040">
                        <set attributeName="fill" to="#808080" begin="arrowUp.mouseover" end="arrowUp.mouseout"/>
                  </use>
                  <path fill="none" stroke="white" stroke-width="1.5" d="M0,-3.0v7 M-2.5,-0.5L0,-3.0L2.5,-0.5"/>
                </g>
                <g id="arrowRight" xlink:href="#dirArrow" transform="rotate(90) translate(36 -43)" onmousedown="handlePan(1,0)">
                  <use xlink:href="#rim" fill="#404040">
                        <set attributeName="fill" to="#808080" begin="arrowRight.mouseover" end="arrowRight.mouseout"/>
                  </use>
                  <path fill="none" stroke="white" stroke-width="1.5" d="M0,-3.0v7 M-2.5,-0.5L0,-3.0L2.5,-0.5"/>
                </g>
                <g id="arrowDown" xlink:href="#dirArrow" transform="rotate(180) translate(-30 -48)" onmousedown="handlePan(0,1)">
                  <use xlink:href="#rim" fill="#404040">
                        <set attributeName="fill" to="#808080" begin="arrowDown.mouseover" end="arrowDown.mouseout"/>
                  </use>
                  <path fill="none" stroke="white" stroke-width="1.5" d="M0,-3.0v7 M-2.5,-0.5L0,-3.0L2.5,-0.5"/>
                </g>
                <g id="arrowLeft" xlink:href="#dirArrow" transform="rotate(270) translate(-36 17)" onmousedown="handlePan(-1,0)">
                  <use xlink:href="#rim" fill="#404040">
                        <set attributeName="fill" to="#808080" begin="arrowLeft.mouseover" end="arrowLeft.mouseout"/>
                  </use>
                  <path fill="none" stroke="white" stroke-width="1.5" d="M0,-3.0v7 M-2.5,-0.5L0,-3.0L2.5,-0.5"/>
                </g>
        </g>
        <svg viewBox="0 0 15 15" width="100%" height="30px" preserveAspectRatio="xMaxYMin meet">
         <g id="arrow_out" transform="scale(0.3 0.3)">
          <a xlink:href="classHamiltonianTwo_aae02015e07387f58d5e7749698e62569_cgraph_org.svg" target="_base">
           <rect id="button" ry="5" rx="5" y="6" x="6" height="38" width="38"
                fill="#f2f5e9" fill-opacity="0.5" stroke="#606060" stroke-width="1.0"/>
           <path id="arrow"
             d="M 11.500037,31.436501 C 11.940474,20.09759 22.043105,11.32322 32.158766,21.979434 L 37.068811,17.246167 C 37.068811,17.246167 37.088388,32 37.088388,32 L 22.160133,31.978069 C 22.160133,31.978069 26.997745,27.140456 26.997745,27.140456 C 18.528582,18.264221 13.291696,25.230495 11.500037,31.436501 z"
             style="fill:#404040;"/>
          </a>
         </g>
        </svg>
</svg>
