<?xml version="1.0" encoding="UTF-8" standalone="no"?>
<!DOCTYPE svg PUBLIC "-//W3C//DTD SVG 1.1//EN"
 "http://www.w3.org/Graphics/SVG/1.1/DTD/svg11.dtd">
<!-- Generated by graphviz version 2.43.0 (0)
 -->
<!-- Title: Numerov::integrate Pages: 1 -->
<svg width="409pt" height="28pt"
 viewBox="0.00 0.00 409.00 28.00" xmlns="http://www.w3.org/2000/svg" xmlns:xlink="http://www.w3.org/1999/xlink">
<g id="graph0" class="graph" transform="scale(1 1) rotate(0) translate(4 24)">
<title>Numerov::integrate</title>
<!-- Node1 -->
<g id="node1" class="node">
<title>Node1</title>
<g id="a_node1"><a xlink:title="Perform the integration.">
<polygon fill="#bfbfbf" stroke="black" points="0,-0.5 0,-19.5 112,-19.5 112,-0.5 0,-0.5"/>
<text text-anchor="middle" x="56" y="-7.5" font-family="Helvetica,sans-Serif" font-size="10.00">Numerov::integrate</text>
</a>
</g>
</g>
<!-- Node2 -->
<g id="node2" class="node">
<title>Node2</title>
<g id="a_node2"><a xlink:href="namespacemodel__potential.html#a8239dc44dc82bb860c84927579ddda34" target="_top" xlink:title="Helper function for Numerov&#39;s method.s.">
<polygon fill="none" stroke="black" points="148,-0.5 148,-19.5 256,-19.5 256,-0.5 148,-0.5"/>
<text text-anchor="middle" x="202" y="-7.5" font-family="Helvetica,sans-Serif" font-size="10.00">model_potential::g</text>
</a>
</g>
</g>
<!-- Node1&#45;&gt;Node2 -->
<g id="edge1" class="edge">
<title>Node1&#45;&gt;Node2</title>
<path fill="none" stroke="midnightblue" d="M112.26,-10C120.49,-10 129.04,-10 137.42,-10"/>
<polygon fill="midnightblue" stroke="midnightblue" points="137.55,-13.5 147.55,-10 137.55,-6.5 137.55,-13.5"/>
</g>
<!-- Node3 -->
<g id="node3" class="node">
<title>Node3</title>
<g id="a_node3"><a xlink:href="namespacemodel__potential.html#adce6f491eb622389e7db9e598516614d" target="_top" xlink:title="Calculate the model potentials.">
<polygon fill="none" stroke="black" points="292,-0.5 292,-19.5 401,-19.5 401,-0.5 292,-0.5"/>
<text text-anchor="middle" x="346.5" y="-7.5" font-family="Helvetica,sans-Serif" font-size="10.00">model_potential::V</text>
</a>
</g>
</g>
<!-- Node2&#45;&gt;Node3 -->
<g id="edge2" class="edge">
<title>Node2&#45;&gt;Node3</title>
<path fill="none" stroke="midnightblue" d="M256.06,-10C264.48,-10 273.26,-10 281.89,-10"/>
<polygon fill="midnightblue" stroke="midnightblue" points="281.92,-13.5 291.92,-10 281.92,-6.5 281.92,-13.5"/>
</g>
</g>
</svg>
