<?xml version="1.0" encoding="UTF-8" standalone="no"?>
<!DOCTYPE svg PUBLIC "-//W3C//DTD SVG 1.1//EN"
 "http://www.w3.org/Graphics/SVG/1.1/DTD/svg11.dtd">
<!-- Generated by graphviz version 2.43.0 (0)
 -->
<!-- Title: /__w/pairinteraction/pairinteraction/pairinteraction/ConfParser.hpp Pages: 1 -->
<!--zoomable 518 -->
<svg id="main" version="1.1" xmlns="http://www.w3.org/2000/svg" xmlns:xlink="http://www.w3.org/1999/xlink" xml:space="preserve" onload="init(evt)">
<style type="text/css"><![CDATA[
.edge:hover path { stroke: red; }
.edge:hover polygon { stroke: red; fill: red; }
]]></style>
<script type="text/javascript"><![CDATA[
var edges = document.getElementsByTagName('g');
if (edges && edges.length) {
  for (var i=0;i<edges.length;i++) {
    if (edges[i].id.substr(0,4)=='edge') {
      edges[i].setAttribute('class','edge');
    }
  }
}
]]></script>
        <defs>
                <circle id="rim" cx="0" cy="0" r="7"/>
                <circle id="rim2" cx="0" cy="0" r="3.5"/>
                <g id="zoomPlus">
                        <use xlink:href="#rim" fill="#404040">
                                <set attributeName="fill" to="#808080" begin="zoomplus.mouseover" end="zoomplus.mouseout"/>
                        </use>
                        <path d="M-4,0h8M0,-4v8" fill="none" stroke="white" stroke-width="1.5" pointer-events="none"/>
                </g>
                <g id="zoomMin">
                        <use xlink:href="#rim" fill="#404040">
                                <set attributeName="fill" to="#808080" begin="zoomminus.mouseover" end="zoomminus.mouseout"/>
                        </use>
                        <path d="M-4,0h8" fill="none" stroke="white" stroke-width="1.5" pointer-events="none"/>
                </g>
                <g id="dirArrow">
                        <path fill="none" stroke="white" stroke-width="1.5" d="M0,-3.0v7 M-2.5,-0.5L0,-3.0L2.5,-0.5"/>
                </g>
               <g id="resetDef">
                       <use xlink:href="#rim2" fill="#404040">
                               <set attributeName="fill" to="#808080" begin="reset.mouseover" end="reset.mouseout"/>
                       </use>
               </g>
        </defs>

<script type="text/javascript">
var viewWidth = 2396;
var viewHeight = 518;
var sectionId = 'dynsection-1';
</script>
<script xlink:href="svgpan.js"/>
<svg id="graph" class="graph">
<g id="viewport">
<title>/__w/pairinteraction/pairinteraction/pairinteraction/ConfParser.hpp</title>
<!-- Node1 -->
<g id="node1" class="node">
<title>Node1</title>
<g id="a_node1"><a xlink:title=" ">
<polygon fill="#bfbfbf" stroke="black" points="1908.09,-468.5 1908.09,-509.5 2073.09,-509.5 2073.09,-468.5 1908.09,-468.5"/>
<text text-anchor="start" x="1916.09" y="-497.5" font-family="Helvetica,sans-Serif" font-size="10.00">/__w/pairinteraction</text>
<text text-anchor="start" x="1916.09" y="-486.5" font-family="Helvetica,sans-Serif" font-size="10.00">/pairinteraction/pairinteraction</text>
<text text-anchor="middle" x="1990.59" y="-475.5" font-family="Helvetica,sans-Serif" font-size="10.00">/ConfParser.hpp</text>
</a>
</g>
</g>
<!-- Node2 -->
<g id="node2" class="node">
<title>Node2</title>
<g id="a_node2"><a xlink:href="Basisnames_8hpp.html" target="_top" xlink:title=" ">
<polygon fill="none" stroke="black" points="1374.09,-390.5 1374.09,-431.5 1539.09,-431.5 1539.09,-390.5 1374.09,-390.5"/>
<text text-anchor="start" x="1382.09" y="-419.5" font-family="Helvetica,sans-Serif" font-size="10.00">/__w/pairinteraction</text>
<text text-anchor="start" x="1382.09" y="-408.5" font-family="Helvetica,sans-Serif" font-size="10.00">/pairinteraction/pairinteraction</text>
<text text-anchor="middle" x="1456.59" y="-397.5" font-family="Helvetica,sans-Serif" font-size="10.00">/Basisnames.hpp</text>
</a>
</g>
</g>
<!-- Node1&#45;&gt;Node2 -->
<g id="edge1" class="edge">
<title>Node1&#45;&gt;Node2</title>
<path fill="none" stroke="midnightblue" d="M1898.13,-474.84C1797,-460.45 1636.4,-437.59 1539.3,-423.77"/>
<polygon fill="midnightblue" stroke="midnightblue" points="1897.64,-478.31 1908.03,-476.25 1898.63,-471.38 1897.64,-478.31"/>
</g>
<!-- Node6 -->
<g id="node6" class="node">
<title>Node6</title>
<g id="a_node6"><a xlink:href="HamiltonianOne_8hpp.html" target="_top" xlink:title=" ">
<polygon fill="none" stroke="black" points="1632.09,-156.5 1632.09,-197.5 1797.09,-197.5 1797.09,-156.5 1632.09,-156.5"/>
<text text-anchor="start" x="1640.09" y="-185.5" font-family="Helvetica,sans-Serif" font-size="10.00">/__w/pairinteraction</text>
<text text-anchor="start" x="1640.09" y="-174.5" font-family="Helvetica,sans-Serif" font-size="10.00">/pairinteraction/pairinteraction</text>
<text text-anchor="middle" x="1714.59" y="-163.5" font-family="Helvetica,sans-Serif" font-size="10.00">/HamiltonianOne.hpp</text>
</a>
</g>
</g>
<!-- Node1&#45;&gt;Node6 -->
<g id="edge29" class="edge">
<title>Node1&#45;&gt;Node6</title>
<path fill="none" stroke="midnightblue" d="M1992.83,-458.26C1995.07,-405.56 1991.64,-295.53 1931.59,-234 1912.71,-214.65 1850.35,-199.8 1797.31,-190.27"/>
<polygon fill="midnightblue" stroke="midnightblue" points="1989.33,-458.13 1992.31,-468.3 1996.32,-458.5 1989.33,-458.13"/>
</g>
<!-- Node8 -->
<g id="node8" class="node">
<title>Node8</title>
<g id="a_node8"><a xlink:href="HamiltonianTwo_8hpp.html" target="_top" xlink:title=" ">
<polygon fill="none" stroke="black" points="1374.09,-78.5 1374.09,-119.5 1539.09,-119.5 1539.09,-78.5 1374.09,-78.5"/>
<text text-anchor="start" x="1382.09" y="-107.5" font-family="Helvetica,sans-Serif" font-size="10.00">/__w/pairinteraction</text>
<text text-anchor="start" x="1382.09" y="-96.5" font-family="Helvetica,sans-Serif" font-size="10.00">/pairinteraction/pairinteraction</text>
<text text-anchor="middle" x="1456.59" y="-85.5" font-family="Helvetica,sans-Serif" font-size="10.00">/HamiltonianTwo.hpp</text>
</a>
</g>
</g>
<!-- Node1&#45;&gt;Node8 -->
<g id="edge30" class="edge">
<title>Node1&#45;&gt;Node8</title>
<path fill="none" stroke="midnightblue" d="M1897.75,-485.74C1505.05,-475.59 0.59,-430.41 0.59,-334 0.59,-334 0.59,-334 0.59,-254 0.59,-208.58 -6.26,-183.89 29.59,-156 82.84,-114.57 1077.37,-103.11 1373.85,-100.6"/>
<polygon fill="midnightblue" stroke="midnightblue" points="1897.85,-489.25 1907.93,-486 1898.03,-482.25 1897.85,-489.25"/>
</g>
<!-- Node10 -->
<g id="node10" class="node">
<title>Node10</title>
<g id="a_node10"><a xlink:href="Interface_8cpp.html" target="_top" xlink:title=" ">
<polygon fill="none" stroke="black" points="1687.09,-0.5 1687.09,-41.5 1852.09,-41.5 1852.09,-0.5 1687.09,-0.5"/>
<text text-anchor="start" x="1695.09" y="-29.5" font-family="Helvetica,sans-Serif" font-size="10.00">/__w/pairinteraction</text>
<text text-anchor="start" x="1695.09" y="-18.5" font-family="Helvetica,sans-Serif" font-size="10.00">/pairinteraction/pairinteraction</text>
<text text-anchor="middle" x="1769.59" y="-7.5" font-family="Helvetica,sans-Serif" font-size="10.00">/Interface.cpp</text>
</a>
</g>
</g>
<!-- Node1&#45;&gt;Node10 -->
<g id="edge31" class="edge">
<title>Node1&#45;&gt;Node10</title>
<path fill="none" stroke="midnightblue" d="M1996.5,-458.04C2002.08,-427.11 2009.59,-377.38 2009.59,-334 2009.59,-334 2009.59,-334 2009.59,-176 2009.59,-99.26 1921.61,-59 1852.19,-39.17"/>
<polygon fill="midnightblue" stroke="midnightblue" points="1993,-457.69 1994.62,-468.16 1999.89,-458.97 1993,-457.69"/>
</g>
<!-- Node23 -->
<g id="node23" class="node">
<title>Node23</title>
<g id="a_node23"><a xlink:href="ConfParser_8cpp.html" target="_top" xlink:title=" ">
<polygon fill="none" stroke="black" points="2038.09,-390.5 2038.09,-431.5 2203.09,-431.5 2203.09,-390.5 2038.09,-390.5"/>
<text text-anchor="start" x="2046.09" y="-419.5" font-family="Helvetica,sans-Serif" font-size="10.00">/__w/pairinteraction</text>
<text text-anchor="start" x="2046.09" y="-408.5" font-family="Helvetica,sans-Serif" font-size="10.00">/pairinteraction/pairinteraction</text>
<text text-anchor="middle" x="2120.59" y="-397.5" font-family="Helvetica,sans-Serif" font-size="10.00">/ConfParser.cpp</text>
</a>
</g>
</g>
<!-- Node1&#45;&gt;Node23 -->
<g id="edge28" class="edge">
<title>Node1&#45;&gt;Node23</title>
<path fill="none" stroke="midnightblue" d="M2033.01,-463.2C2050.6,-452.92 2070.72,-441.16 2087.23,-431.51"/>
<polygon fill="midnightblue" stroke="midnightblue" points="2030.94,-460.36 2024.07,-468.43 2034.47,-466.4 2030.94,-460.36"/>
</g>
<!-- Node24 -->
<g id="node24" class="node">
<title>Node24</title>
<g id="a_node24"><a xlink:href="conf__parser__test_8cpp.html" target="_top" xlink:title=" ">
<polygon fill="none" stroke="black" points="2221.09,-390.5 2221.09,-431.5 2388.09,-431.5 2388.09,-390.5 2221.09,-390.5"/>
<text text-anchor="start" x="2229.09" y="-419.5" font-family="Helvetica,sans-Serif" font-size="10.00">/__w/pairinteraction</text>
<text text-anchor="start" x="2229.09" y="-408.5" font-family="Helvetica,sans-Serif" font-size="10.00">/pairinteraction/pairinteraction</text>
<text text-anchor="middle" x="2304.59" y="-397.5" font-family="Helvetica,sans-Serif" font-size="10.00">/unit_test/conf_parser_test.cpp</text>
</a>
</g>
</g>
<!-- Node1&#45;&gt;Node24 -->
<g id="edge32" class="edge">
<title>Node1&#45;&gt;Node24</title>
<path fill="none" stroke="midnightblue" d="M2081.23,-466.06C2126.32,-455.15 2180.37,-442.07 2224,-431.51"/>
<polygon fill="midnightblue" stroke="midnightblue" points="2080.35,-462.67 2071.46,-468.43 2082,-469.48 2080.35,-462.67"/>
</g>
<!-- Node3 -->
<g id="node3" class="node">
<title>Node3</title>
<g id="a_node3"><a xlink:href="Basisnames_8cpp.html" target="_top" xlink:title=" ">
<polygon fill="none" stroke="black" points="616.09,-312.5 616.09,-353.5 781.09,-353.5 781.09,-312.5 616.09,-312.5"/>
<text text-anchor="start" x="624.09" y="-341.5" font-family="Helvetica,sans-Serif" font-size="10.00">/__w/pairinteraction</text>
<text text-anchor="start" x="624.09" y="-330.5" font-family="Helvetica,sans-Serif" font-size="10.00">/pairinteraction/pairinteraction</text>
<text text-anchor="middle" x="698.59" y="-319.5" font-family="Helvetica,sans-Serif" font-size="10.00">/Basisnames.cpp</text>
</a>
</g>
</g>
<!-- Node2&#45;&gt;Node3 -->
<g id="edge2" class="edge">
<title>Node2&#45;&gt;Node3</title>
<path fill="none" stroke="midnightblue" d="M1363.67,-406.01C1234.54,-399.6 993.79,-384.5 790.59,-354 787.52,-353.54 784.4,-353.04 781.25,-352.5"/>
<polygon fill="midnightblue" stroke="midnightblue" points="1363.75,-409.52 1373.91,-406.51 1364.09,-402.53 1363.75,-409.52"/>
</g>
<!-- Node4 -->
<g id="node4" class="node">
<title>Node4</title>
<g id="a_node4"><a xlink:href="Hamiltonianmatrix_8hpp.html" target="_top" xlink:title=" ">
<polygon fill="none" stroke="black" points="1557.09,-312.5 1557.09,-353.5 1722.09,-353.5 1722.09,-312.5 1557.09,-312.5"/>
<text text-anchor="start" x="1565.09" y="-341.5" font-family="Helvetica,sans-Serif" font-size="10.00">/__w/pairinteraction</text>
<text text-anchor="start" x="1565.09" y="-330.5" font-family="Helvetica,sans-Serif" font-size="10.00">/pairinteraction/pairinteraction</text>
<text text-anchor="middle" x="1639.59" y="-319.5" font-family="Helvetica,sans-Serif" font-size="10.00">/Hamiltonianmatrix.hpp</text>
</a>
</g>
</g>
<!-- Node2&#45;&gt;Node4 -->
<g id="edge3" class="edge">
<title>Node2&#45;&gt;Node4</title>
<path fill="none" stroke="midnightblue" d="M1513.25,-386.47C1538.72,-375.89 1568.42,-363.56 1592.63,-353.51"/>
<polygon fill="midnightblue" stroke="midnightblue" points="1511.61,-383.36 1503.72,-390.43 1514.3,-389.82 1511.61,-383.36"/>
</g>
<!-- Node2&#45;&gt;Node6 -->
<g id="edge13" class="edge">
<title>Node2&#45;&gt;Node6</title>
<path fill="none" stroke="midnightblue" d="M1549.43,-397C1671.21,-377.71 1874.22,-337.09 1914.59,-276 1947.9,-225.59 1866.04,-200.21 1797.2,-188.08"/>
<polygon fill="midnightblue" stroke="midnightblue" points="1548.69,-393.57 1539.35,-398.57 1549.77,-400.49 1548.69,-393.57"/>
</g>
<!-- Node2&#45;&gt;Node8 -->
<g id="edge14" class="edge">
<title>Node2&#45;&gt;Node8</title>
<path fill="none" stroke="midnightblue" d="M1363.25,-408.33C1064.03,-402 143.2,-374.61 57.59,-276 22.63,-235.73 20.64,-194.46 57.59,-156 103.37,-108.36 1080.65,-101.25 1374.04,-100.19"/>
<polygon fill="midnightblue" stroke="midnightblue" points="1363.56,-411.84 1373.63,-408.55 1363.71,-404.84 1363.56,-411.84"/>
</g>
<!-- Node12 -->
<g id="node12" class="node">
<title>Node12</title>
<g id="a_node12"><a xlink:href="MatrixElementCache_8hpp.html" target="_top" xlink:title=" ">
<polygon fill="none" stroke="black" points="799.09,-312.5 799.09,-353.5 964.09,-353.5 964.09,-312.5 799.09,-312.5"/>
<text text-anchor="start" x="807.09" y="-341.5" font-family="Helvetica,sans-Serif" font-size="10.00">/__w/pairinteraction</text>
<text text-anchor="start" x="807.09" y="-330.5" font-family="Helvetica,sans-Serif" font-size="10.00">/pairinteraction/pairinteraction</text>
<text text-anchor="middle" x="881.59" y="-319.5" font-family="Helvetica,sans-Serif" font-size="10.00">/MatrixElementCache.hpp</text>
</a>
</g>
</g>
<!-- Node2&#45;&gt;Node12 -->
<g id="edge15" class="edge">
<title>Node2&#45;&gt;Node12</title>
<path fill="none" stroke="midnightblue" d="M1363.76,-397.73C1253.16,-383.11 1070.08,-358.91 964.19,-344.92"/>
<polygon fill="midnightblue" stroke="midnightblue" points="1363.53,-401.23 1373.9,-399.07 1364.45,-394.29 1363.53,-401.23"/>
</g>
<!-- Node21 -->
<g id="node21" class="node">
<title>Node21</title>
<g id="a_node21"><a xlink:href="MatrixElements_8hpp.html" target="_top" xlink:title=" ">
<polygon fill="none" stroke="black" points="1374.09,-234.5 1374.09,-275.5 1539.09,-275.5 1539.09,-234.5 1374.09,-234.5"/>
<text text-anchor="start" x="1382.09" y="-263.5" font-family="Helvetica,sans-Serif" font-size="10.00">/__w/pairinteraction</text>
<text text-anchor="start" x="1382.09" y="-252.5" font-family="Helvetica,sans-Serif" font-size="10.00">/pairinteraction/pairinteraction</text>
<text text-anchor="middle" x="1456.59" y="-241.5" font-family="Helvetica,sans-Serif" font-size="10.00">/MatrixElements.hpp</text>
</a>
</g>
</g>
<!-- Node2&#45;&gt;Node21 -->
<g id="edge24" class="edge">
<title>Node2&#45;&gt;Node21</title>
<path fill="none" stroke="midnightblue" d="M1456.59,-380.36C1456.59,-349.61 1456.59,-302.36 1456.59,-275.83"/>
<polygon fill="midnightblue" stroke="midnightblue" points="1453.09,-380.5 1456.59,-390.5 1460.09,-380.5 1453.09,-380.5"/>
</g>
<!-- Node5 -->
<g id="node5" class="node">
<title>Node5</title>
<g id="a_node5"><a xlink:href="Hamiltonian_8hpp.html" target="_top" xlink:title=" ">
<polygon fill="none" stroke="black" points="1557.09,-234.5 1557.09,-275.5 1722.09,-275.5 1722.09,-234.5 1557.09,-234.5"/>
<text text-anchor="start" x="1565.09" y="-263.5" font-family="Helvetica,sans-Serif" font-size="10.00">/__w/pairinteraction</text>
<text text-anchor="start" x="1565.09" y="-252.5" font-family="Helvetica,sans-Serif" font-size="10.00">/pairinteraction/pairinteraction</text>
<text text-anchor="middle" x="1639.59" y="-241.5" font-family="Helvetica,sans-Serif" font-size="10.00">/Hamiltonian.hpp</text>
</a>
</g>
</g>
<!-- Node4&#45;&gt;Node5 -->
<g id="edge4" class="edge">
<title>Node4&#45;&gt;Node5</title>
<path fill="none" stroke="midnightblue" d="M1639.59,-302.3C1639.59,-293.3 1639.59,-283.65 1639.59,-275.51"/>
<polygon fill="midnightblue" stroke="midnightblue" points="1636.09,-302.43 1639.59,-312.43 1643.09,-302.43 1636.09,-302.43"/>
</g>
<!-- Node11 -->
<g id="node11" class="node">
<title>Node11</title>
<g id="a_node11"><a xlink:href="Hamiltonianmatrix_8cpp.html" target="_top" xlink:title=" ">
<polygon fill="none" stroke="black" points="1740.09,-234.5 1740.09,-275.5 1905.09,-275.5 1905.09,-234.5 1740.09,-234.5"/>
<text text-anchor="start" x="1748.09" y="-263.5" font-family="Helvetica,sans-Serif" font-size="10.00">/__w/pairinteraction</text>
<text text-anchor="start" x="1748.09" y="-252.5" font-family="Helvetica,sans-Serif" font-size="10.00">/pairinteraction/pairinteraction</text>
<text text-anchor="middle" x="1822.59" y="-241.5" font-family="Helvetica,sans-Serif" font-size="10.00">/Hamiltonianmatrix.cpp</text>
</a>
</g>
</g>
<!-- Node4&#45;&gt;Node11 -->
<g id="edge12" class="edge">
<title>Node4&#45;&gt;Node11</title>
<path fill="none" stroke="midnightblue" d="M1696.25,-308.47C1721.72,-297.89 1751.42,-285.56 1775.63,-275.51"/>
<polygon fill="midnightblue" stroke="midnightblue" points="1694.61,-305.36 1686.72,-312.43 1697.3,-311.82 1694.61,-305.36"/>
</g>
<!-- Node5&#45;&gt;Node6 -->
<g id="edge5" class="edge">
<title>Node5&#45;&gt;Node6</title>
<path fill="none" stroke="midnightblue" d="M1666.04,-227.2C1675.7,-217.42 1686.43,-206.54 1695.34,-197.51"/>
<polygon fill="midnightblue" stroke="midnightblue" points="1663.44,-224.85 1658.91,-234.43 1668.42,-229.77 1663.44,-224.85"/>
</g>
<!-- Node5&#45;&gt;Node8 -->
<g id="edge11" class="edge">
<title>Node5&#45;&gt;Node8</title>
<path fill="none" stroke="midnightblue" d="M1629.17,-224.95C1620.21,-203.49 1605.41,-174.85 1584.59,-156 1567.06,-140.13 1544.32,-128.22 1522.88,-119.56"/>
<polygon fill="midnightblue" stroke="midnightblue" points="1625.92,-226.25 1632.88,-234.24 1632.42,-223.66 1625.92,-226.25"/>
</g>
<!-- Node7 -->
<g id="node7" class="node">
<title>Node7</title>
<g id="a_node7"><a xlink:href="HamiltonianOne_8cpp.html" target="_top" xlink:title=" ">
<polygon fill="none" stroke="black" points="1576.09,-78.5 1576.09,-119.5 1741.09,-119.5 1741.09,-78.5 1576.09,-78.5"/>
<text text-anchor="start" x="1584.09" y="-107.5" font-family="Helvetica,sans-Serif" font-size="10.00">/__w/pairinteraction</text>
<text text-anchor="start" x="1584.09" y="-96.5" font-family="Helvetica,sans-Serif" font-size="10.00">/pairinteraction/pairinteraction</text>
<text text-anchor="middle" x="1658.59" y="-85.5" font-family="Helvetica,sans-Serif" font-size="10.00">/HamiltonianOne.cpp</text>
</a>
</g>
</g>
<!-- Node6&#45;&gt;Node7 -->
<g id="edge6" class="edge">
<title>Node6&#45;&gt;Node7</title>
<path fill="none" stroke="midnightblue" d="M1694.21,-148.34C1687.17,-138.78 1679.43,-128.27 1672.96,-119.51"/>
<polygon fill="midnightblue" stroke="midnightblue" points="1691.42,-150.45 1700.17,-156.43 1697.06,-146.3 1691.42,-150.45"/>
</g>
<!-- Node6&#45;&gt;Node8 -->
<g id="edge7" class="edge">
<title>Node6&#45;&gt;Node8</title>
<path fill="none" stroke="midnightblue" d="M1638.48,-153.58C1601.77,-142.76 1558.13,-129.91 1522.81,-119.51"/>
<polygon fill="midnightblue" stroke="midnightblue" points="1637.57,-156.96 1648.15,-156.43 1639.55,-150.24 1637.57,-156.96"/>
</g>
<!-- Node6&#45;&gt;Node10 -->
<g id="edge10" class="edge">
<title>Node6&#45;&gt;Node10</title>
<path fill="none" stroke="midnightblue" d="M1735.66,-147.81C1741.24,-139.24 1746.76,-129.55 1750.59,-120 1760.98,-94.1 1765.82,-62.02 1767.98,-41.77"/>
<polygon fill="midnightblue" stroke="midnightblue" points="1732.63,-146.04 1729.91,-156.28 1738.42,-149.97 1732.63,-146.04"/>
</g>
<!-- Node9 -->
<g id="node9" class="node">
<title>Node9</title>
<g id="a_node9"><a xlink:href="HamiltonianTwo_8cpp.html" target="_top" xlink:title=" ">
<polygon fill="none" stroke="black" points="1374.09,-0.5 1374.09,-41.5 1539.09,-41.5 1539.09,-0.5 1374.09,-0.5"/>
<text text-anchor="start" x="1382.09" y="-29.5" font-family="Helvetica,sans-Serif" font-size="10.00">/__w/pairinteraction</text>
<text text-anchor="start" x="1382.09" y="-18.5" font-family="Helvetica,sans-Serif" font-size="10.00">/pairinteraction/pairinteraction</text>
<text text-anchor="middle" x="1456.59" y="-7.5" font-family="Helvetica,sans-Serif" font-size="10.00">/HamiltonianTwo.cpp</text>
</a>
</g>
</g>
<!-- Node8&#45;&gt;Node9 -->
<g id="edge8" class="edge">
<title>Node8&#45;&gt;Node9</title>
<path fill="none" stroke="midnightblue" d="M1456.59,-68.3C1456.59,-59.3 1456.59,-49.65 1456.59,-41.51"/>
<polygon fill="midnightblue" stroke="midnightblue" points="1453.09,-68.43 1456.59,-78.43 1460.09,-68.43 1453.09,-68.43"/>
</g>
<!-- Node8&#45;&gt;Node10 -->
<g id="edge9" class="edge">
<title>Node8&#45;&gt;Node10</title>
<path fill="none" stroke="midnightblue" d="M1546.94,-76.06C1591.89,-65.15 1645.77,-52.07 1689.26,-41.51"/>
<polygon fill="midnightblue" stroke="midnightblue" points="1546.09,-72.67 1537.2,-78.43 1547.74,-79.47 1546.09,-72.67"/>
</g>
<!-- Node13 -->
<g id="node13" class="node">
<title>Node13</title>
<g id="a_node13"><a xlink:href="integration__bench_8cpp.html" target="_top" xlink:title=" ">
<polygon fill="none" stroke="black" points="1165.09,-234.5 1165.09,-275.5 1356.09,-275.5 1356.09,-234.5 1165.09,-234.5"/>
<text text-anchor="start" x="1173.09" y="-263.5" font-family="Helvetica,sans-Serif" font-size="10.00">/__w/pairinteraction</text>
<text text-anchor="start" x="1173.09" y="-252.5" font-family="Helvetica,sans-Serif" font-size="10.00">/pairinteraction/pairinteraction</text>
<text text-anchor="middle" x="1260.59" y="-241.5" font-family="Helvetica,sans-Serif" font-size="10.00">/benchmarks/integration_bench.cpp</text>
</a>
</g>
</g>
<!-- Node12&#45;&gt;Node13 -->
<g id="edge16" class="edge">
<title>Node12&#45;&gt;Node13</title>
<path fill="none" stroke="midnightblue" d="M974.18,-313.43C1032.1,-301.82 1106.55,-286.89 1165.03,-275.16"/>
<polygon fill="midnightblue" stroke="midnightblue" points="973.41,-310.02 964.3,-315.42 974.79,-316.88 973.41,-310.02"/>
</g>
<!-- Node14 -->
<g id="node14" class="node">
<title>Node14</title>
<g id="a_node14"><a xlink:href="MatrixElementCache_8cpp.html" target="_top" xlink:title=" ">
<polygon fill="none" stroke="black" points="250.09,-234.5 250.09,-275.5 415.09,-275.5 415.09,-234.5 250.09,-234.5"/>
<text text-anchor="start" x="258.09" y="-263.5" font-family="Helvetica,sans-Serif" font-size="10.00">/__w/pairinteraction</text>
<text text-anchor="start" x="258.09" y="-252.5" font-family="Helvetica,sans-Serif" font-size="10.00">/pairinteraction/pairinteraction</text>
<text text-anchor="middle" x="332.59" y="-241.5" font-family="Helvetica,sans-Serif" font-size="10.00">/MatrixElementCache.cpp</text>
</a>
</g>
</g>
<!-- Node12&#45;&gt;Node14 -->
<g id="edge17" class="edge">
<title>Node12&#45;&gt;Node14</title>
<path fill="none" stroke="midnightblue" d="M788.56,-311.77C627.34,-287.01 582.75,-300.88 424.59,-276 421.52,-275.52 418.41,-275 415.26,-274.44"/>
<polygon fill="midnightblue" stroke="midnightblue" points="788.42,-315.29 798.84,-313.38 789.51,-308.38 788.42,-315.29"/>
</g>
<!-- Node15 -->
<g id="node15" class="node">
<title>Node15</title>
<g id="a_node15"><a xlink:href="PerturbativeInteraction_8hpp.html" target="_top" xlink:title=" ">
<polygon fill="none" stroke="black" points="67.09,-234.5 67.09,-275.5 232.09,-275.5 232.09,-234.5 67.09,-234.5"/>
<text text-anchor="start" x="75.09" y="-263.5" font-family="Helvetica,sans-Serif" font-size="10.00">/__w/pairinteraction</text>
<text text-anchor="start" x="75.09" y="-252.5" font-family="Helvetica,sans-Serif" font-size="10.00">/pairinteraction/pairinteraction</text>
<text text-anchor="middle" x="149.59" y="-241.5" font-family="Helvetica,sans-Serif" font-size="10.00">/PerturbativeInteraction.hpp</text>
</a>
</g>
</g>
<!-- Node12&#45;&gt;Node15 -->
<g id="edge18" class="edge">
<title>Node12&#45;&gt;Node15</title>
<path fill="none" stroke="midnightblue" d="M788.68,-311.84C546.24,-278.49 479.82,-309.92 240.59,-276 237.87,-275.61 235.11,-275.19 232.32,-274.74"/>
<polygon fill="midnightblue" stroke="midnightblue" points="788.47,-315.34 798.86,-313.26 789.44,-308.41 788.47,-315.34"/>
</g>
<!-- Node17 -->
<g id="node17" class="node">
<title>Node17</title>
<g id="a_node17"><a xlink:href="State_8cpp.html" target="_top" xlink:title=" ">
<polygon fill="none" stroke="black" points="433.09,-234.5 433.09,-275.5 598.09,-275.5 598.09,-234.5 433.09,-234.5"/>
<text text-anchor="start" x="441.09" y="-263.5" font-family="Helvetica,sans-Serif" font-size="10.00">/__w/pairinteraction</text>
<text text-anchor="start" x="441.09" y="-252.5" font-family="Helvetica,sans-Serif" font-size="10.00">/pairinteraction/pairinteraction</text>
<text text-anchor="middle" x="515.59" y="-241.5" font-family="Helvetica,sans-Serif" font-size="10.00">/State.cpp</text>
</a>
</g>
</g>
<!-- Node12&#45;&gt;Node17 -->
<g id="edge20" class="edge">
<title>Node12&#45;&gt;Node17</title>
<path fill="none" stroke="midnightblue" d="M788.62,-311.61C707.73,-294.9 685.59,-292.15 607.59,-276 604.55,-275.37 601.45,-274.72 598.33,-274.07"/>
<polygon fill="midnightblue" stroke="midnightblue" points="788.28,-315.11 798.78,-313.72 789.7,-308.26 788.28,-315.11"/>
</g>
<!-- Node18 -->
<g id="node18" class="node">
<title>Node18</title>
<g id="a_node18"><a xlink:href="SystemOne_8cpp.html" target="_top" xlink:title=" ">
<polygon fill="none" stroke="black" points="616.09,-234.5 616.09,-275.5 781.09,-275.5 781.09,-234.5 616.09,-234.5"/>
<text text-anchor="start" x="624.09" y="-263.5" font-family="Helvetica,sans-Serif" font-size="10.00">/__w/pairinteraction</text>
<text text-anchor="start" x="624.09" y="-252.5" font-family="Helvetica,sans-Serif" font-size="10.00">/pairinteraction/pairinteraction</text>
<text text-anchor="middle" x="698.59" y="-241.5" font-family="Helvetica,sans-Serif" font-size="10.00">/SystemOne.cpp</text>
</a>
</g>
</g>
<!-- Node12&#45;&gt;Node18 -->
<g id="edge21" class="edge">
<title>Node12&#45;&gt;Node18</title>
<path fill="none" stroke="midnightblue" d="M824.93,-308.47C799.46,-297.89 769.76,-285.56 745.56,-275.51"/>
<polygon fill="midnightblue" stroke="midnightblue" points="823.89,-311.82 834.47,-312.43 826.57,-305.36 823.89,-311.82"/>
</g>
<!-- Node19 -->
<g id="node19" class="node">
<title>Node19</title>
<g id="a_node19"><a xlink:href="SystemTwo_8cpp.html" target="_top" xlink:title=" ">
<polygon fill="none" stroke="black" points="799.09,-234.5 799.09,-275.5 964.09,-275.5 964.09,-234.5 799.09,-234.5"/>
<text text-anchor="start" x="807.09" y="-263.5" font-family="Helvetica,sans-Serif" font-size="10.00">/__w/pairinteraction</text>
<text text-anchor="start" x="807.09" y="-252.5" font-family="Helvetica,sans-Serif" font-size="10.00">/pairinteraction/pairinteraction</text>
<text text-anchor="middle" x="881.59" y="-241.5" font-family="Helvetica,sans-Serif" font-size="10.00">/SystemTwo.cpp</text>
</a>
</g>
</g>
<!-- Node12&#45;&gt;Node19 -->
<g id="edge22" class="edge">
<title>Node12&#45;&gt;Node19</title>
<path fill="none" stroke="midnightblue" d="M881.59,-302.3C881.59,-293.3 881.59,-283.65 881.59,-275.51"/>
<polygon fill="midnightblue" stroke="midnightblue" points="878.09,-302.43 881.59,-312.43 885.09,-302.43 878.09,-302.43"/>
</g>
<!-- Node20 -->
<g id="node20" class="node">
<title>Node20</title>
<g id="a_node20"><a xlink:href="integration__test_8cpp.html" target="_top" xlink:title=" ">
<polygon fill="none" stroke="black" points="982.09,-234.5 982.09,-275.5 1147.09,-275.5 1147.09,-234.5 982.09,-234.5"/>
<text text-anchor="start" x="990.09" y="-263.5" font-family="Helvetica,sans-Serif" font-size="10.00">/__w/pairinteraction</text>
<text text-anchor="start" x="990.09" y="-252.5" font-family="Helvetica,sans-Serif" font-size="10.00">/pairinteraction/pairinteraction</text>
<text text-anchor="middle" x="1064.59" y="-241.5" font-family="Helvetica,sans-Serif" font-size="10.00">/unit_test/integration_test.cpp</text>
</a>
</g>
</g>
<!-- Node12&#45;&gt;Node20 -->
<g id="edge23" class="edge">
<title>Node12&#45;&gt;Node20</title>
<path fill="none" stroke="midnightblue" d="M938.25,-308.47C963.72,-297.89 993.42,-285.56 1017.63,-275.51"/>
<polygon fill="midnightblue" stroke="midnightblue" points="936.61,-305.36 928.72,-312.43 939.3,-311.82 936.61,-305.36"/>
</g>
<!-- Node16 -->
<g id="node16" class="node">
<title>Node16</title>
<g id="a_node16"><a xlink:href="PerturbativeInteraction_8cpp.html" target="_top" xlink:title=" ">
<polygon fill="none" stroke="black" points="67.09,-156.5 67.09,-197.5 232.09,-197.5 232.09,-156.5 67.09,-156.5"/>
<text text-anchor="start" x="75.09" y="-185.5" font-family="Helvetica,sans-Serif" font-size="10.00">/__w/pairinteraction</text>
<text text-anchor="start" x="75.09" y="-174.5" font-family="Helvetica,sans-Serif" font-size="10.00">/pairinteraction/pairinteraction</text>
<text text-anchor="middle" x="149.59" y="-163.5" font-family="Helvetica,sans-Serif" font-size="10.00">/PerturbativeInteraction.cpp</text>
</a>
</g>
</g>
<!-- Node15&#45;&gt;Node16 -->
<g id="edge19" class="edge">
<title>Node15&#45;&gt;Node16</title>
<path fill="none" stroke="midnightblue" d="M149.59,-224.3C149.59,-215.3 149.59,-205.65 149.59,-197.51"/>
<polygon fill="midnightblue" stroke="midnightblue" points="146.09,-224.43 149.59,-234.43 153.09,-224.43 146.09,-224.43"/>
</g>
<!-- Node21&#45;&gt;Node6 -->
<g id="edge25" class="edge">
<title>Node21&#45;&gt;Node6</title>
<path fill="none" stroke="midnightblue" d="M1532.7,-231.58C1569.42,-220.76 1613.05,-207.91 1648.38,-197.51"/>
<polygon fill="midnightblue" stroke="midnightblue" points="1531.64,-228.24 1523.03,-234.43 1533.62,-234.96 1531.64,-228.24"/>
</g>
<!-- Node21&#45;&gt;Node8 -->
<g id="edge26" class="edge">
<title>Node21&#45;&gt;Node8</title>
<path fill="none" stroke="midnightblue" d="M1422.31,-227.47C1413.94,-219.05 1406.1,-209.02 1401.59,-198 1394.53,-180.72 1394.53,-173.28 1401.59,-156 1407.42,-141.75 1418.82,-129.17 1429.74,-119.56"/>
<polygon fill="midnightblue" stroke="midnightblue" points="1420.05,-230.15 1429.74,-234.44 1424.84,-225.04 1420.05,-230.15"/>
</g>
<!-- Node22 -->
<g id="node22" class="node">
<title>Node22</title>
<g id="a_node22"><a xlink:href="MatrixElements_8cpp.html" target="_top" xlink:title=" ">
<polygon fill="none" stroke="black" points="1410.09,-156.5 1410.09,-197.5 1575.09,-197.5 1575.09,-156.5 1410.09,-156.5"/>
<text text-anchor="start" x="1418.09" y="-185.5" font-family="Helvetica,sans-Serif" font-size="10.00">/__w/pairinteraction</text>
<text text-anchor="start" x="1418.09" y="-174.5" font-family="Helvetica,sans-Serif" font-size="10.00">/pairinteraction/pairinteraction</text>
<text text-anchor="middle" x="1492.59" y="-163.5" font-family="Helvetica,sans-Serif" font-size="10.00">/MatrixElements.cpp</text>
</a>
</g>
</g>
<!-- Node21&#45;&gt;Node22 -->
<g id="edge27" class="edge">
<title>Node21&#45;&gt;Node22</title>
<path fill="none" stroke="midnightblue" d="M1470.25,-225.17C1474.62,-215.93 1479.37,-205.92 1483.35,-197.51"/>
<polygon fill="midnightblue" stroke="midnightblue" points="1466.98,-223.89 1465.86,-234.43 1473.31,-226.89 1466.98,-223.89"/>
</g>
</g>
</svg>
        <g id="navigator" transform="translate(0 0)" fill="#404254">
                <rect fill="#f2f5e9" fill-opacity="0.5" stroke="#606060" stroke-width=".5" x="0" y="0" width="60" height="60"/>
                <use id="zoomplus" xlink:href="#zoomPlus" x="17" y="9" onmousedown="handleZoom(evt,'in')"/>
                <use id="zoomminus" xlink:href="#zoomMin" x="42" y="9" onmousedown="handleZoom(evt,'out')"/>
                <use id="reset" xlink:href="#resetDef" x="30" y="36" onmousedown="handleReset()"/>
                <g id="arrowUp" xlink:href="#dirArrow" transform="translate(30 24)" onmousedown="handlePan(0,-1)">
                  <use xlink:href="#rim" fill="#404040">
                        <set attributeName="fill" to="#808080" begin="arrowUp.mouseover" end="arrowUp.mouseout"/>
                  </use>
                  <path fill="none" stroke="white" stroke-width="1.5" d="M0,-3.0v7 M-2.5,-0.5L0,-3.0L2.5,-0.5"/>
                </g>
                <g id="arrowRight" xlink:href="#dirArrow" transform="rotate(90) translate(36 -43)" onmousedown="handlePan(1,0)">
                  <use xlink:href="#rim" fill="#404040">
                        <set attributeName="fill" to="#808080" begin="arrowRight.mouseover" end="arrowRight.mouseout"/>
                  </use>
                  <path fill="none" stroke="white" stroke-width="1.5" d="M0,-3.0v7 M-2.5,-0.5L0,-3.0L2.5,-0.5"/>
                </g>
                <g id="arrowDown" xlink:href="#dirArrow" transform="rotate(180) translate(-30 -48)" onmousedown="handlePan(0,1)">
                  <use xlink:href="#rim" fill="#404040">
                        <set attributeName="fill" to="#808080" begin="arrowDown.mouseover" end="arrowDown.mouseout"/>
                  </use>
                  <path fill="none" stroke="white" stroke-width="1.5" d="M0,-3.0v7 M-2.5,-0.5L0,-3.0L2.5,-0.5"/>
                </g>
                <g id="arrowLeft" xlink:href="#dirArrow" transform="rotate(270) translate(-36 17)" onmousedown="handlePan(-1,0)">
                  <use xlink:href="#rim" fill="#404040">
                        <set attributeName="fill" to="#808080" begin="arrowLeft.mouseover" end="arrowLeft.mouseout"/>
                  </use>
                  <path fill="none" stroke="white" stroke-width="1.5" d="M0,-3.0v7 M-2.5,-0.5L0,-3.0L2.5,-0.5"/>
                </g>
        </g>
        <svg viewBox="0 0 15 15" width="100%" height="30px" preserveAspectRatio="xMaxYMin meet">
         <g id="arrow_out" transform="scale(0.3 0.3)">
          <a xlink:href="ConfParser_8hpp__dep__incl_org.svg" target="_base">
           <rect id="button" ry="5" rx="5" y="6" x="6" height="38" width="38"
                fill="#f2f5e9" fill-opacity="0.5" stroke="#606060" stroke-width="1.0"/>
           <path id="arrow"
             d="M 11.500037,31.436501 C 11.940474,20.09759 22.043105,11.32322 32.158766,21.979434 L 37.068811,17.246167 C 37.068811,17.246167 37.088388,32 37.088388,32 L 22.160133,31.978069 C 22.160133,31.978069 26.997745,27.140456 26.997745,27.140456 C 18.528582,18.264221 13.291696,25.230495 11.500037,31.436501 z"
             style="fill:#404040;"/>
          </a>
         </g>
        </svg>
</svg>
