<?xml version="1.0" encoding="UTF-8" standalone="no"?>
<!DOCTYPE svg PUBLIC "-//W3C//DTD SVG 1.1//EN"
 "http://www.w3.org/Graphics/SVG/1.1/DTD/svg11.dtd">
<!-- Generated by graphviz version 2.43.0 (0)
 -->
<!-- Title: /__w/pairinteraction/pairinteraction/pairinteraction/EigenCompat.hpp Pages: 1 -->
<!--zoomable 440 -->
<svg id="main" version="1.1" xmlns="http://www.w3.org/2000/svg" xmlns:xlink="http://www.w3.org/1999/xlink" xml:space="preserve" onload="init(evt)">
<style type="text/css"><![CDATA[
.edge:hover path { stroke: red; }
.edge:hover polygon { stroke: red; fill: red; }
]]></style>
<script type="text/javascript"><![CDATA[
var edges = document.getElementsByTagName('g');
if (edges && edges.length) {
  for (var i=0;i<edges.length;i++) {
    if (edges[i].id.substr(0,4)=='edge') {
      edges[i].setAttribute('class','edge');
    }
  }
}
]]></script>
        <defs>
                <circle id="rim" cx="0" cy="0" r="7"/>
                <circle id="rim2" cx="0" cy="0" r="3.5"/>
                <g id="zoomPlus">
                        <use xlink:href="#rim" fill="#404040">
                                <set attributeName="fill" to="#808080" begin="zoomplus.mouseover" end="zoomplus.mouseout"/>
                        </use>
                        <path d="M-4,0h8M0,-4v8" fill="none" stroke="white" stroke-width="1.5" pointer-events="none"/>
                </g>
                <g id="zoomMin">
                        <use xlink:href="#rim" fill="#404040">
                                <set attributeName="fill" to="#808080" begin="zoomminus.mouseover" end="zoomminus.mouseout"/>
                        </use>
                        <path d="M-4,0h8" fill="none" stroke="white" stroke-width="1.5" pointer-events="none"/>
                </g>
                <g id="dirArrow">
                        <path fill="none" stroke="white" stroke-width="1.5" d="M0,-3.0v7 M-2.5,-0.5L0,-3.0L2.5,-0.5"/>
                </g>
               <g id="resetDef">
                       <use xlink:href="#rim2" fill="#404040">
                               <set attributeName="fill" to="#808080" begin="reset.mouseover" end="reset.mouseout"/>
                       </use>
               </g>
        </defs>

<script type="text/javascript">
var viewWidth = 1780;
var viewHeight = 440;
var sectionId = 'dynsection-1';
</script>
<script xlink:href="svgpan.js"/>
<svg id="graph" class="graph">
<g id="viewport">
<title>/__w/pairinteraction/pairinteraction/pairinteraction/EigenCompat.hpp</title>
<!-- Node1 -->
<g id="node1" class="node">
<title>Node1</title>
<g id="a_node1"><a xlink:title=" ">
<polygon fill="#bfbfbf" stroke="black" points="665,-390.5 665,-431.5 830,-431.5 830,-390.5 665,-390.5"/>
<text text-anchor="start" x="673" y="-419.5" font-family="Helvetica,sans-Serif" font-size="10.00">/__w/pairinteraction</text>
<text text-anchor="start" x="673" y="-408.5" font-family="Helvetica,sans-Serif" font-size="10.00">/pairinteraction/pairinteraction</text>
<text text-anchor="middle" x="747.5" y="-397.5" font-family="Helvetica,sans-Serif" font-size="10.00">/EigenCompat.hpp</text>
</a>
</g>
</g>
<!-- Node2 -->
<g id="node2" class="node">
<title>Node2</title>
<g id="a_node2"><a xlink:href="GreenTensor_8cpp.html" target="_top" xlink:title=" ">
<polygon fill="none" stroke="black" points="0,-234.5 0,-275.5 165,-275.5 165,-234.5 0,-234.5"/>
<text text-anchor="start" x="8" y="-263.5" font-family="Helvetica,sans-Serif" font-size="10.00">/__w/pairinteraction</text>
<text text-anchor="start" x="8" y="-252.5" font-family="Helvetica,sans-Serif" font-size="10.00">/pairinteraction/pairinteraction</text>
<text text-anchor="middle" x="82.5" y="-241.5" font-family="Helvetica,sans-Serif" font-size="10.00">/GreenTensor.cpp</text>
</a>
</g>
</g>
<!-- Node1&#45;&gt;Node2 -->
<g id="edge1" class="edge">
<title>Node1&#45;&gt;Node2</title>
<path fill="none" stroke="midnightblue" d="M654.62,-408.04C485.67,-403.6 141.7,-390.19 101.5,-354 79.86,-334.52 78.44,-298.4 80.02,-275.87"/>
<polygon fill="midnightblue" stroke="midnightblue" points="654.66,-411.54 664.75,-408.3 654.84,-404.55 654.66,-411.54"/>
</g>
<!-- Node3 -->
<g id="node3" class="node">
<title>Node3</title>
<g id="a_node3"><a xlink:href="GreenTensor_8hpp.html" target="_top" xlink:title=" ">
<polygon fill="none" stroke="black" points="111,-312.5 111,-353.5 276,-353.5 276,-312.5 111,-312.5"/>
<text text-anchor="start" x="119" y="-341.5" font-family="Helvetica,sans-Serif" font-size="10.00">/__w/pairinteraction</text>
<text text-anchor="start" x="119" y="-330.5" font-family="Helvetica,sans-Serif" font-size="10.00">/pairinteraction/pairinteraction</text>
<text text-anchor="middle" x="193.5" y="-319.5" font-family="Helvetica,sans-Serif" font-size="10.00">/GreenTensor.hpp</text>
</a>
</g>
</g>
<!-- Node1&#45;&gt;Node3 -->
<g id="edge2" class="edge">
<title>Node1&#45;&gt;Node3</title>
<path fill="none" stroke="midnightblue" d="M654.47,-400.84C561.9,-391.21 415.95,-374.58 290.5,-354 285.83,-353.23 281.05,-352.4 276.23,-351.53"/>
<polygon fill="midnightblue" stroke="midnightblue" points="654.35,-404.35 664.65,-401.9 655.07,-397.39 654.35,-404.35"/>
</g>
<!-- Node5 -->
<g id="node5" class="node">
<title>Node5</title>
<g id="a_node5"><a xlink:href="Hamiltonianmatrix_8cpp.html" target="_top" xlink:title=" ">
<polygon fill="none" stroke="black" points="1327,-234.5 1327,-275.5 1492,-275.5 1492,-234.5 1327,-234.5"/>
<text text-anchor="start" x="1335" y="-263.5" font-family="Helvetica,sans-Serif" font-size="10.00">/__w/pairinteraction</text>
<text text-anchor="start" x="1335" y="-252.5" font-family="Helvetica,sans-Serif" font-size="10.00">/pairinteraction/pairinteraction</text>
<text text-anchor="middle" x="1409.5" y="-241.5" font-family="Helvetica,sans-Serif" font-size="10.00">/Hamiltonianmatrix.cpp</text>
</a>
</g>
</g>
<!-- Node1&#45;&gt;Node5 -->
<g id="edge5" class="edge">
<title>Node1&#45;&gt;Node5</title>
<path fill="none" stroke="midnightblue" d="M840.62,-401.38C918.57,-392.97 1032.32,-377.9 1129.5,-354 1213.27,-333.4 1307.29,-297.8 1362.28,-275.65"/>
<polygon fill="midnightblue" stroke="midnightblue" points="839.92,-397.93 830.35,-402.47 840.66,-404.89 839.92,-397.93"/>
</g>
<!-- Node6 -->
<g id="node6" class="node">
<title>Node6</title>
<g id="a_node6"><a xlink:href="Hamiltonianmatrix_8hpp.html" target="_top" xlink:title=" ">
<polygon fill="none" stroke="black" points="1290,-312.5 1290,-353.5 1455,-353.5 1455,-312.5 1290,-312.5"/>
<text text-anchor="start" x="1298" y="-341.5" font-family="Helvetica,sans-Serif" font-size="10.00">/__w/pairinteraction</text>
<text text-anchor="start" x="1298" y="-330.5" font-family="Helvetica,sans-Serif" font-size="10.00">/pairinteraction/pairinteraction</text>
<text text-anchor="middle" x="1372.5" y="-319.5" font-family="Helvetica,sans-Serif" font-size="10.00">/Hamiltonianmatrix.hpp</text>
</a>
</g>
</g>
<!-- Node1&#45;&gt;Node6 -->
<g id="edge6" class="edge">
<title>Node1&#45;&gt;Node6</title>
<path fill="none" stroke="midnightblue" d="M840.29,-400.44C939.29,-390.01 1100.66,-372.33 1239.5,-354 1255.82,-351.84 1273.24,-349.36 1289.91,-346.89"/>
<polygon fill="midnightblue" stroke="midnightblue" points="839.89,-396.97 830.31,-401.49 840.62,-403.93 839.89,-396.97"/>
</g>
<!-- Node13 -->
<g id="node13" class="node">
<title>Node13</title>
<g id="a_node13"><a xlink:href="NumpyUtils_8hpp.html" target="_top" xlink:title=" ">
<polygon fill="none" stroke="black" points="1473,-312.5 1473,-353.5 1638,-353.5 1638,-312.5 1473,-312.5"/>
<text text-anchor="start" x="1481" y="-341.5" font-family="Helvetica,sans-Serif" font-size="10.00">/__w/pairinteraction</text>
<text text-anchor="start" x="1481" y="-330.5" font-family="Helvetica,sans-Serif" font-size="10.00">/pairinteraction/pairinteraction</text>
<text text-anchor="middle" x="1555.5" y="-319.5" font-family="Helvetica,sans-Serif" font-size="10.00">/NumpyUtils.hpp</text>
</a>
</g>
</g>
<!-- Node1&#45;&gt;Node13 -->
<g id="edge16" class="edge">
<title>Node1&#45;&gt;Node13</title>
<path fill="none" stroke="midnightblue" d="M840.23,-406.86C977.32,-401.29 1241.89,-386.99 1464.5,-354 1467.22,-353.6 1469.98,-353.16 1472.76,-352.69"/>
<polygon fill="midnightblue" stroke="midnightblue" points="840.03,-403.36 830.18,-407.26 840.31,-410.36 840.03,-403.36"/>
</g>
<!-- Node14 -->
<g id="node14" class="node">
<title>Node14</title>
<g id="a_node14"><a xlink:href="PerturbativeInteraction_8cpp.html" target="_top" xlink:title=" ">
<polygon fill="none" stroke="black" points="1166,-0.5 1166,-41.5 1331,-41.5 1331,-0.5 1166,-0.5"/>
<text text-anchor="start" x="1174" y="-29.5" font-family="Helvetica,sans-Serif" font-size="10.00">/__w/pairinteraction</text>
<text text-anchor="start" x="1174" y="-18.5" font-family="Helvetica,sans-Serif" font-size="10.00">/pairinteraction/pairinteraction</text>
<text text-anchor="middle" x="1248.5" y="-7.5" font-family="Helvetica,sans-Serif" font-size="10.00">/PerturbativeInteraction.cpp</text>
</a>
</g>
</g>
<!-- Node1&#45;&gt;Node14 -->
<g id="edge17" class="edge">
<title>Node1&#45;&gt;Node14</title>
<path fill="none" stroke="midnightblue" d="M840.3,-390.7C875.63,-381.74 915.73,-369.56 950.5,-354 1008.9,-327.86 1028.16,-323.07 1071.5,-276 1112.44,-231.53 1086.87,-191.9 1135.5,-156 1203.24,-105.99 1267.92,-184.95 1321.5,-120 1333.38,-105.6 1329.76,-94.74 1321.5,-78 1314.01,-62.82 1300.21,-50.6 1286.6,-41.51"/>
<polygon fill="midnightblue" stroke="midnightblue" points="839.33,-387.33 830.47,-393.14 841.02,-394.13 839.33,-387.33"/>
</g>
<!-- Node15 -->
<g id="node15" class="node">
<title>Node15</title>
<g id="a_node15"><a xlink:href="serialization__eigen_8hpp.html" target="_top" xlink:title=" ">
<polygon fill="none" stroke="black" points="425,-312.5 425,-353.5 590,-353.5 590,-312.5 425,-312.5"/>
<text text-anchor="start" x="433" y="-341.5" font-family="Helvetica,sans-Serif" font-size="10.00">/__w/pairinteraction</text>
<text text-anchor="start" x="433" y="-330.5" font-family="Helvetica,sans-Serif" font-size="10.00">/pairinteraction/pairinteraction</text>
<text text-anchor="middle" x="507.5" y="-319.5" font-family="Helvetica,sans-Serif" font-size="10.00">/serialization_eigen.hpp</text>
</a>
</g>
</g>
<!-- Node1&#45;&gt;Node15 -->
<g id="edge18" class="edge">
<title>Node1&#45;&gt;Node15</title>
<path fill="none" stroke="midnightblue" d="M675.83,-387.3C641.86,-376.55 601.68,-363.82 569.1,-353.51"/>
<polygon fill="midnightblue" stroke="midnightblue" points="675.1,-390.75 685.69,-390.43 677.22,-384.07 675.1,-390.75"/>
</g>
<!-- Node17 -->
<g id="node17" class="node">
<title>Node17</title>
<g id="a_node17"><a xlink:href="SystemBase_8cpp.html" target="_top" xlink:title=" ">
<polygon fill="none" stroke="black" points="554,-156.5 554,-197.5 719,-197.5 719,-156.5 554,-156.5"/>
<text text-anchor="start" x="562" y="-185.5" font-family="Helvetica,sans-Serif" font-size="10.00">/__w/pairinteraction</text>
<text text-anchor="start" x="562" y="-174.5" font-family="Helvetica,sans-Serif" font-size="10.00">/pairinteraction/pairinteraction</text>
<text text-anchor="middle" x="636.5" y="-163.5" font-family="Helvetica,sans-Serif" font-size="10.00">/SystemBase.cpp</text>
</a>
</g>
</g>
<!-- Node1&#45;&gt;Node17 -->
<g id="edge30" class="edge">
<title>Node1&#45;&gt;Node17</title>
<path fill="none" stroke="midnightblue" d="M723.81,-382.29C702.95,-356.45 673.36,-315.98 656.5,-276 645.64,-250.24 640.53,-218.12 638.23,-197.83"/>
<polygon fill="midnightblue" stroke="midnightblue" points="721.2,-384.63 730.24,-390.15 726.61,-380.19 721.2,-384.63"/>
</g>
<!-- Node21 -->
<g id="node21" class="node">
<title>Node21</title>
<g id="a_node21"><a xlink:href="SystemTwo_8hpp.html" target="_top" xlink:title=" ">
<polygon fill="none" stroke="black" points="222,-78.5 222,-119.5 387,-119.5 387,-78.5 222,-78.5"/>
<text text-anchor="start" x="230" y="-107.5" font-family="Helvetica,sans-Serif" font-size="10.00">/__w/pairinteraction</text>
<text text-anchor="start" x="230" y="-96.5" font-family="Helvetica,sans-Serif" font-size="10.00">/pairinteraction/pairinteraction</text>
<text text-anchor="middle" x="304.5" y="-85.5" font-family="Helvetica,sans-Serif" font-size="10.00">/SystemTwo.hpp</text>
</a>
</g>
</g>
<!-- Node1&#45;&gt;Node21 -->
<g id="edge31" class="edge">
<title>Node1&#45;&gt;Node21</title>
<path fill="none" stroke="midnightblue" d="M654.7,-403.12C570.57,-395.33 454.15,-380.18 416.5,-354 335.38,-297.6 312.36,-168.65 306.41,-119.51"/>
<polygon fill="midnightblue" stroke="midnightblue" points="654.52,-406.62 664.8,-404.04 655.15,-399.65 654.52,-406.62"/>
</g>
<!-- Node23 -->
<g id="node23" class="node">
<title>Node23</title>
<g id="a_node23"><a xlink:href="Wavefunction_8cpp.html" target="_top" xlink:title=" ">
<polygon fill="none" stroke="black" points="665,-234.5 665,-275.5 830,-275.5 830,-234.5 665,-234.5"/>
<text text-anchor="start" x="673" y="-263.5" font-family="Helvetica,sans-Serif" font-size="10.00">/__w/pairinteraction</text>
<text text-anchor="start" x="673" y="-252.5" font-family="Helvetica,sans-Serif" font-size="10.00">/pairinteraction/pairinteraction</text>
<text text-anchor="middle" x="747.5" y="-241.5" font-family="Helvetica,sans-Serif" font-size="10.00">/Wavefunction.cpp</text>
</a>
</g>
</g>
<!-- Node1&#45;&gt;Node23 -->
<g id="edge32" class="edge">
<title>Node1&#45;&gt;Node23</title>
<path fill="none" stroke="midnightblue" d="M747.5,-380.36C747.5,-349.61 747.5,-302.36 747.5,-275.83"/>
<polygon fill="midnightblue" stroke="midnightblue" points="744,-380.5 747.5,-390.5 751,-380.5 744,-380.5"/>
</g>
<!-- Node24 -->
<g id="node24" class="node">
<title>Node24</title>
<g id="a_node24"><a xlink:href="Wavefunction_8hpp.html" target="_top" xlink:title=" ">
<polygon fill="none" stroke="black" points="776,-312.5 776,-353.5 941,-353.5 941,-312.5 776,-312.5"/>
<text text-anchor="start" x="784" y="-341.5" font-family="Helvetica,sans-Serif" font-size="10.00">/__w/pairinteraction</text>
<text text-anchor="start" x="784" y="-330.5" font-family="Helvetica,sans-Serif" font-size="10.00">/pairinteraction/pairinteraction</text>
<text text-anchor="middle" x="858.5" y="-319.5" font-family="Helvetica,sans-Serif" font-size="10.00">/Wavefunction.hpp</text>
</a>
</g>
</g>
<!-- Node1&#45;&gt;Node24 -->
<g id="edge33" class="edge">
<title>Node1&#45;&gt;Node24</title>
<path fill="none" stroke="midnightblue" d="M784.55,-384.64C799.37,-374.49 816.17,-362.98 830.01,-353.51"/>
<polygon fill="midnightblue" stroke="midnightblue" points="782.36,-381.89 776.09,-390.43 786.31,-387.67 782.36,-381.89"/>
</g>
<!-- Node3&#45;&gt;Node2 -->
<g id="edge3" class="edge">
<title>Node3&#45;&gt;Node2</title>
<path fill="none" stroke="midnightblue" d="M156.45,-306.64C141.63,-296.49 124.83,-284.98 110.99,-275.51"/>
<polygon fill="midnightblue" stroke="midnightblue" points="154.69,-309.67 164.91,-312.43 158.64,-303.89 154.69,-309.67"/>
</g>
<!-- Node4 -->
<g id="node4" class="node">
<title>Node4</title>
<g id="a_node4"><a xlink:href="SystemTwo_8cpp.html" target="_top" xlink:title=" ">
<polygon fill="none" stroke="black" points="137,-0.5 137,-41.5 302,-41.5 302,-0.5 137,-0.5"/>
<text text-anchor="start" x="145" y="-29.5" font-family="Helvetica,sans-Serif" font-size="10.00">/__w/pairinteraction</text>
<text text-anchor="start" x="145" y="-18.5" font-family="Helvetica,sans-Serif" font-size="10.00">/pairinteraction/pairinteraction</text>
<text text-anchor="middle" x="219.5" y="-7.5" font-family="Helvetica,sans-Serif" font-size="10.00">/SystemTwo.cpp</text>
</a>
</g>
</g>
<!-- Node3&#45;&gt;Node4 -->
<g id="edge4" class="edge">
<title>Node3&#45;&gt;Node4</title>
<path fill="none" stroke="midnightblue" d="M195.26,-302C198.16,-254.44 204.43,-158.83 212.5,-78 213.71,-65.91 215.39,-52.39 216.8,-41.67"/>
<polygon fill="midnightblue" stroke="midnightblue" points="191.75,-302.02 194.64,-312.21 198.74,-302.44 191.75,-302.02"/>
</g>
<!-- Node6&#45;&gt;Node5 -->
<g id="edge15" class="edge">
<title>Node6&#45;&gt;Node5</title>
<path fill="none" stroke="midnightblue" d="M1386.53,-303.17C1391.03,-293.93 1395.91,-283.92 1400,-275.51"/>
<polygon fill="midnightblue" stroke="midnightblue" points="1383.26,-301.9 1382.03,-312.43 1389.55,-304.97 1383.26,-301.9"/>
</g>
<!-- Node7 -->
<g id="node7" class="node">
<title>Node7</title>
<g id="a_node7"><a xlink:href="Hamiltonian_8hpp.html" target="_top" xlink:title=" ">
<polygon fill="none" stroke="black" points="1510,-234.5 1510,-275.5 1675,-275.5 1675,-234.5 1510,-234.5"/>
<text text-anchor="start" x="1518" y="-263.5" font-family="Helvetica,sans-Serif" font-size="10.00">/__w/pairinteraction</text>
<text text-anchor="start" x="1518" y="-252.5" font-family="Helvetica,sans-Serif" font-size="10.00">/pairinteraction/pairinteraction</text>
<text text-anchor="middle" x="1592.5" y="-241.5" font-family="Helvetica,sans-Serif" font-size="10.00">/Hamiltonian.hpp</text>
</a>
</g>
</g>
<!-- Node6&#45;&gt;Node7 -->
<g id="edge7" class="edge">
<title>Node6&#45;&gt;Node7</title>
<path fill="none" stroke="midnightblue" d="M1439,-309.03C1469.97,-298.33 1506.43,-285.73 1536.04,-275.51"/>
<polygon fill="midnightblue" stroke="midnightblue" points="1437.46,-305.85 1429.16,-312.43 1439.75,-312.47 1437.46,-305.85"/>
</g>
<!-- Node8 -->
<g id="node8" class="node">
<title>Node8</title>
<g id="a_node8"><a xlink:href="HamiltonianOne_8hpp.html" target="_top" xlink:title=" ">
<polygon fill="none" stroke="black" points="1510,-156.5 1510,-197.5 1675,-197.5 1675,-156.5 1510,-156.5"/>
<text text-anchor="start" x="1518" y="-185.5" font-family="Helvetica,sans-Serif" font-size="10.00">/__w/pairinteraction</text>
<text text-anchor="start" x="1518" y="-174.5" font-family="Helvetica,sans-Serif" font-size="10.00">/pairinteraction/pairinteraction</text>
<text text-anchor="middle" x="1592.5" y="-163.5" font-family="Helvetica,sans-Serif" font-size="10.00">/HamiltonianOne.hpp</text>
</a>
</g>
</g>
<!-- Node7&#45;&gt;Node8 -->
<g id="edge8" class="edge">
<title>Node7&#45;&gt;Node8</title>
<path fill="none" stroke="midnightblue" d="M1592.5,-224.3C1592.5,-215.3 1592.5,-205.65 1592.5,-197.51"/>
<polygon fill="midnightblue" stroke="midnightblue" points="1589,-224.43 1592.5,-234.43 1596,-224.43 1589,-224.43"/>
</g>
<!-- Node10 -->
<g id="node10" class="node">
<title>Node10</title>
<g id="a_node10"><a xlink:href="HamiltonianTwo_8hpp.html" target="_top" xlink:title=" ">
<polygon fill="none" stroke="black" points="1369,-78.5 1369,-119.5 1534,-119.5 1534,-78.5 1369,-78.5"/>
<text text-anchor="start" x="1377" y="-107.5" font-family="Helvetica,sans-Serif" font-size="10.00">/__w/pairinteraction</text>
<text text-anchor="start" x="1377" y="-96.5" font-family="Helvetica,sans-Serif" font-size="10.00">/pairinteraction/pairinteraction</text>
<text text-anchor="middle" x="1451.5" y="-85.5" font-family="Helvetica,sans-Serif" font-size="10.00">/HamiltonianTwo.hpp</text>
</a>
</g>
</g>
<!-- Node7&#45;&gt;Node10 -->
<g id="edge14" class="edge">
<title>Node7&#45;&gt;Node10</title>
<path fill="none" stroke="midnightblue" d="M1541.35,-229.21C1527.25,-220.7 1512.75,-210.19 1501.5,-198 1480.12,-174.84 1465.53,-140.83 1457.86,-119.57"/>
<polygon fill="midnightblue" stroke="midnightblue" points="1539.64,-232.27 1550.05,-234.25 1543.15,-226.21 1539.64,-232.27"/>
</g>
<!-- Node9 -->
<g id="node9" class="node">
<title>Node9</title>
<g id="a_node9"><a xlink:href="HamiltonianOne_8cpp.html" target="_top" xlink:title=" ">
<polygon fill="none" stroke="black" points="1552,-78.5 1552,-119.5 1717,-119.5 1717,-78.5 1552,-78.5"/>
<text text-anchor="start" x="1560" y="-107.5" font-family="Helvetica,sans-Serif" font-size="10.00">/__w/pairinteraction</text>
<text text-anchor="start" x="1560" y="-96.5" font-family="Helvetica,sans-Serif" font-size="10.00">/pairinteraction/pairinteraction</text>
<text text-anchor="middle" x="1634.5" y="-85.5" font-family="Helvetica,sans-Serif" font-size="10.00">/HamiltonianOne.cpp</text>
</a>
</g>
</g>
<!-- Node8&#45;&gt;Node9 -->
<g id="edge9" class="edge">
<title>Node8&#45;&gt;Node9</title>
<path fill="none" stroke="midnightblue" d="M1608.27,-147.47C1613.42,-138.14 1619.02,-128.01 1623.72,-119.51"/>
<polygon fill="midnightblue" stroke="midnightblue" points="1605.09,-145.98 1603.32,-156.43 1611.22,-149.37 1605.09,-145.98"/>
</g>
<!-- Node8&#45;&gt;Node10 -->
<g id="edge10" class="edge">
<title>Node8&#45;&gt;Node10</title>
<path fill="none" stroke="midnightblue" d="M1547.28,-151.63C1528.01,-141.24 1505.84,-129.29 1487.69,-119.51"/>
<polygon fill="midnightblue" stroke="midnightblue" points="1545.73,-154.76 1556.19,-156.43 1549.05,-148.6 1545.73,-154.76"/>
</g>
<!-- Node12 -->
<g id="node12" class="node">
<title>Node12</title>
<g id="a_node12"><a xlink:href="Interface_8cpp.html" target="_top" xlink:title=" ">
<polygon fill="none" stroke="black" points="1607,-0.5 1607,-41.5 1772,-41.5 1772,-0.5 1607,-0.5"/>
<text text-anchor="start" x="1615" y="-29.5" font-family="Helvetica,sans-Serif" font-size="10.00">/__w/pairinteraction</text>
<text text-anchor="start" x="1615" y="-18.5" font-family="Helvetica,sans-Serif" font-size="10.00">/pairinteraction/pairinteraction</text>
<text text-anchor="middle" x="1689.5" y="-7.5" font-family="Helvetica,sans-Serif" font-size="10.00">/Interface.cpp</text>
</a>
</g>
</g>
<!-- Node8&#45;&gt;Node12 -->
<g id="edge13" class="edge">
<title>Node8&#45;&gt;Node12</title>
<path fill="none" stroke="midnightblue" d="M1684.4,-154.54C1701.03,-146.45 1716.3,-135.32 1726.5,-120 1742.93,-95.33 1723.44,-62.34 1707.11,-41.63"/>
<polygon fill="midnightblue" stroke="midnightblue" points="1682.74,-151.45 1675.04,-158.73 1685.6,-157.84 1682.74,-151.45"/>
</g>
<!-- Node11 -->
<g id="node11" class="node">
<title>Node11</title>
<g id="a_node11"><a xlink:href="HamiltonianTwo_8cpp.html" target="_top" xlink:title=" ">
<polygon fill="none" stroke="black" points="1369,-0.5 1369,-41.5 1534,-41.5 1534,-0.5 1369,-0.5"/>
<text text-anchor="start" x="1377" y="-29.5" font-family="Helvetica,sans-Serif" font-size="10.00">/__w/pairinteraction</text>
<text text-anchor="start" x="1377" y="-18.5" font-family="Helvetica,sans-Serif" font-size="10.00">/pairinteraction/pairinteraction</text>
<text text-anchor="middle" x="1451.5" y="-7.5" font-family="Helvetica,sans-Serif" font-size="10.00">/HamiltonianTwo.cpp</text>
</a>
</g>
</g>
<!-- Node10&#45;&gt;Node11 -->
<g id="edge11" class="edge">
<title>Node10&#45;&gt;Node11</title>
<path fill="none" stroke="midnightblue" d="M1451.5,-68.3C1451.5,-59.3 1451.5,-49.65 1451.5,-41.51"/>
<polygon fill="midnightblue" stroke="midnightblue" points="1448,-68.43 1451.5,-78.43 1455,-68.43 1448,-68.43"/>
</g>
<!-- Node10&#45;&gt;Node12 -->
<g id="edge12" class="edge">
<title>Node10&#45;&gt;Node12</title>
<path fill="none" stroke="midnightblue" d="M1522.57,-75.3C1556.26,-64.55 1596.11,-51.82 1628.42,-41.51"/>
<polygon fill="midnightblue" stroke="midnightblue" points="1521.25,-72.05 1512.79,-78.43 1523.38,-78.72 1521.25,-72.05"/>
</g>
<!-- Node16 -->
<g id="node16" class="node">
<title>Node16</title>
<g id="a_node16"><a xlink:href="SystemBase_8hpp.html" target="_top" xlink:title=" ">
<polygon fill="none" stroke="black" points="389,-234.5 389,-275.5 554,-275.5 554,-234.5 389,-234.5"/>
<text text-anchor="start" x="397" y="-263.5" font-family="Helvetica,sans-Serif" font-size="10.00">/__w/pairinteraction</text>
<text text-anchor="start" x="397" y="-252.5" font-family="Helvetica,sans-Serif" font-size="10.00">/pairinteraction/pairinteraction</text>
<text text-anchor="middle" x="471.5" y="-241.5" font-family="Helvetica,sans-Serif" font-size="10.00">/SystemBase.hpp</text>
</a>
</g>
</g>
<!-- Node15&#45;&gt;Node16 -->
<g id="edge19" class="edge">
<title>Node15&#45;&gt;Node16</title>
<path fill="none" stroke="midnightblue" d="M493.85,-303.17C489.47,-293.93 484.72,-283.92 480.74,-275.51"/>
<polygon fill="midnightblue" stroke="midnightblue" points="490.79,-304.89 498.23,-312.43 497.11,-301.89 490.79,-304.89"/>
</g>
<!-- Node16&#45;&gt;Node17 -->
<g id="edge20" class="edge">
<title>Node16&#45;&gt;Node17</title>
<path fill="none" stroke="midnightblue" d="M523.19,-230.19C546.02,-219.67 572.52,-207.47 594.15,-197.51"/>
<polygon fill="midnightblue" stroke="midnightblue" points="521.61,-227.07 513.99,-234.43 524.54,-233.42 521.61,-227.07"/>
</g>
<!-- Node18 -->
<g id="node18" class="node">
<title>Node18</title>
<g id="a_node18"><a xlink:href="SystemOne_8hpp.html" target="_top" xlink:title=" ">
<polygon fill="none" stroke="black" points="371,-156.5 371,-197.5 536,-197.5 536,-156.5 371,-156.5"/>
<text text-anchor="start" x="379" y="-185.5" font-family="Helvetica,sans-Serif" font-size="10.00">/__w/pairinteraction</text>
<text text-anchor="start" x="379" y="-174.5" font-family="Helvetica,sans-Serif" font-size="10.00">/pairinteraction/pairinteraction</text>
<text text-anchor="middle" x="453.5" y="-163.5" font-family="Helvetica,sans-Serif" font-size="10.00">/SystemOne.hpp</text>
</a>
</g>
</g>
<!-- Node16&#45;&gt;Node18 -->
<g id="edge21" class="edge">
<title>Node16&#45;&gt;Node18</title>
<path fill="none" stroke="midnightblue" d="M464.53,-224.59C462.38,-215.51 460.07,-205.74 458.12,-197.51"/>
<polygon fill="midnightblue" stroke="midnightblue" points="461.15,-225.5 466.86,-234.43 467.97,-223.89 461.15,-225.5"/>
</g>
<!-- Node16&#45;&gt;Node21 -->
<g id="edge29" class="edge">
<title>Node16&#45;&gt;Node21</title>
<path fill="none" stroke="midnightblue" d="M409.99,-229.94C393.33,-221.51 376.15,-210.86 362.5,-198 338.75,-175.63 321.52,-141.39 312.27,-119.87"/>
<polygon fill="midnightblue" stroke="midnightblue" points="408.64,-233.17 419.16,-234.39 411.7,-226.87 408.64,-233.17"/>
</g>
<!-- Node19 -->
<g id="node19" class="node">
<title>Node19</title>
<g id="a_node19"><a xlink:href="integration__bench_8cpp.html" target="_top" xlink:title=" ">
<polygon fill="none" stroke="black" points="320,-0.5 320,-41.5 511,-41.5 511,-0.5 320,-0.5"/>
<text text-anchor="start" x="328" y="-29.5" font-family="Helvetica,sans-Serif" font-size="10.00">/__w/pairinteraction</text>
<text text-anchor="start" x="328" y="-18.5" font-family="Helvetica,sans-Serif" font-size="10.00">/pairinteraction/pairinteraction</text>
<text text-anchor="middle" x="415.5" y="-7.5" font-family="Helvetica,sans-Serif" font-size="10.00">/benchmarks/integration_bench.cpp</text>
</a>
</g>
</g>
<!-- Node18&#45;&gt;Node19 -->
<g id="edge22" class="edge">
<title>Node18&#45;&gt;Node19</title>
<path fill="none" stroke="midnightblue" d="M446.07,-146.41C443.94,-137.89 441.62,-128.58 439.5,-120 432.77,-92.79 425.08,-61.31 420.25,-41.53"/>
<polygon fill="midnightblue" stroke="midnightblue" points="442.73,-147.46 448.55,-156.31 449.52,-145.76 442.73,-147.46"/>
</g>
<!-- Node20 -->
<g id="node20" class="node">
<title>Node20</title>
<g id="a_node20"><a xlink:href="SystemOne_8cpp.html" target="_top" xlink:title=" ">
<polygon fill="none" stroke="black" points="482,-78.5 482,-119.5 647,-119.5 647,-78.5 482,-78.5"/>
<text text-anchor="start" x="490" y="-107.5" font-family="Helvetica,sans-Serif" font-size="10.00">/__w/pairinteraction</text>
<text text-anchor="start" x="490" y="-96.5" font-family="Helvetica,sans-Serif" font-size="10.00">/pairinteraction/pairinteraction</text>
<text text-anchor="middle" x="564.5" y="-85.5" font-family="Helvetica,sans-Serif" font-size="10.00">/SystemOne.cpp</text>
</a>
</g>
</g>
<!-- Node18&#45;&gt;Node20 -->
<g id="edge23" class="edge">
<title>Node18&#45;&gt;Node20</title>
<path fill="none" stroke="midnightblue" d="M490.55,-150.64C505.37,-140.49 522.17,-128.98 536.01,-119.51"/>
<polygon fill="midnightblue" stroke="midnightblue" points="488.36,-147.89 482.09,-156.43 492.31,-153.67 488.36,-147.89"/>
</g>
<!-- Node18&#45;&gt;Node21 -->
<g id="edge24" class="edge">
<title>Node18&#45;&gt;Node21</title>
<path fill="none" stroke="midnightblue" d="M405.99,-151.77C385.57,-141.35 362.01,-129.34 342.74,-119.51"/>
<polygon fill="midnightblue" stroke="midnightblue" points="404.63,-155 415.13,-156.43 407.81,-148.77 404.63,-155"/>
</g>
<!-- Node22 -->
<g id="node22" class="node">
<title>Node22</title>
<g id="a_node22"><a xlink:href="integration__test_8cpp.html" target="_top" xlink:title=" ">
<polygon fill="none" stroke="black" points="529,-0.5 529,-41.5 694,-41.5 694,-0.5 529,-0.5"/>
<text text-anchor="start" x="537" y="-29.5" font-family="Helvetica,sans-Serif" font-size="10.00">/__w/pairinteraction</text>
<text text-anchor="start" x="537" y="-18.5" font-family="Helvetica,sans-Serif" font-size="10.00">/pairinteraction/pairinteraction</text>
<text text-anchor="middle" x="611.5" y="-7.5" font-family="Helvetica,sans-Serif" font-size="10.00">/unit_test/integration_test.cpp</text>
</a>
</g>
</g>
<!-- Node18&#45;&gt;Node22 -->
<g id="edge28" class="edge">
<title>Node18&#45;&gt;Node22</title>
<path fill="none" stroke="midnightblue" d="M452.49,-146.29C453.31,-125.05 457.74,-96.97 473.5,-78 487.79,-60.8 508.18,-48.83 528.92,-40.52"/>
<polygon fill="midnightblue" stroke="midnightblue" points="448.99,-146.35 452.35,-156.4 455.99,-146.45 448.99,-146.35"/>
</g>
<!-- Node21&#45;&gt;Node4 -->
<g id="edge26" class="edge">
<title>Node21&#45;&gt;Node4</title>
<path fill="none" stroke="midnightblue" d="M274.85,-71.49C263.82,-61.63 251.52,-50.63 241.32,-41.51"/>
<polygon fill="midnightblue" stroke="midnightblue" points="272.82,-74.37 282.61,-78.43 277.49,-69.15 272.82,-74.37"/>
</g>
<!-- Node21&#45;&gt;Node19 -->
<g id="edge25" class="edge">
<title>Node21&#45;&gt;Node19</title>
<path fill="none" stroke="midnightblue" d="M341.55,-72.64C356.37,-62.49 373.17,-50.98 387.01,-41.51"/>
<polygon fill="midnightblue" stroke="midnightblue" points="339.36,-69.89 333.09,-78.43 343.31,-75.67 339.36,-69.89"/>
</g>
<!-- Node21&#45;&gt;Node22 -->
<g id="edge27" class="edge">
<title>Node21&#45;&gt;Node22</title>
<path fill="none" stroke="midnightblue" d="M393.39,-75.99C437.43,-65.09 490.14,-52.04 532.71,-41.51"/>
<polygon fill="midnightblue" stroke="midnightblue" points="392.43,-72.63 383.56,-78.43 394.11,-79.42 392.43,-72.63"/>
</g>
<!-- Node24&#45;&gt;Node23 -->
<g id="edge48" class="edge">
<title>Node24&#45;&gt;Node23</title>
<path fill="none" stroke="midnightblue" d="M821.45,-306.64C806.63,-296.49 789.83,-284.98 775.99,-275.51"/>
<polygon fill="midnightblue" stroke="midnightblue" points="819.69,-309.67 829.91,-312.43 823.64,-303.89 819.69,-309.67"/>
</g>
<!-- Node25 -->
<g id="node25" class="node">
<title>Node25</title>
<g id="a_node25"><a xlink:href="MatrixElementCache_8hpp.html" target="_top" xlink:title=" ">
<polygon fill="none" stroke="black" points="759,-156.5 759,-197.5 924,-197.5 924,-156.5 759,-156.5"/>
<text text-anchor="start" x="767" y="-185.5" font-family="Helvetica,sans-Serif" font-size="10.00">/__w/pairinteraction</text>
<text text-anchor="start" x="767" y="-174.5" font-family="Helvetica,sans-Serif" font-size="10.00">/pairinteraction/pairinteraction</text>
<text text-anchor="middle" x="841.5" y="-163.5" font-family="Helvetica,sans-Serif" font-size="10.00">/MatrixElementCache.hpp</text>
</a>
</g>
</g>
<!-- Node24&#45;&gt;Node25 -->
<g id="edge34" class="edge">
<title>Node24&#45;&gt;Node25</title>
<path fill="none" stroke="midnightblue" d="M855.23,-302.36C851.83,-271.61 846.62,-224.36 843.69,-197.83"/>
<polygon fill="midnightblue" stroke="midnightblue" points="851.77,-302.94 856.35,-312.5 858.73,-302.17 851.77,-302.94"/>
</g>
<!-- Node29 -->
<g id="node29" class="node">
<title>Node29</title>
<g id="a_node29"><a xlink:href="MatrixElements_8hpp.html" target="_top" xlink:title=" ">
<polygon fill="none" stroke="black" points="1144,-234.5 1144,-275.5 1309,-275.5 1309,-234.5 1144,-234.5"/>
<text text-anchor="start" x="1152" y="-263.5" font-family="Helvetica,sans-Serif" font-size="10.00">/__w/pairinteraction</text>
<text text-anchor="start" x="1152" y="-252.5" font-family="Helvetica,sans-Serif" font-size="10.00">/pairinteraction/pairinteraction</text>
<text text-anchor="middle" x="1226.5" y="-241.5" font-family="Helvetica,sans-Serif" font-size="10.00">/MatrixElements.hpp</text>
</a>
</g>
</g>
<!-- Node24&#45;&gt;Node29 -->
<g id="edge43" class="edge">
<title>Node24&#45;&gt;Node29</title>
<path fill="none" stroke="midnightblue" d="M951.2,-312.86C1010.47,-300.62 1086.67,-284.88 1143.87,-273.06"/>
<polygon fill="midnightblue" stroke="midnightblue" points="950.17,-309.49 941.09,-314.94 951.59,-316.35 950.17,-309.49"/>
</g>
<!-- Node31 -->
<g id="node31" class="node">
<title>Node31</title>
<g id="a_node31"><a xlink:href="wavefunction__test_8cpp.html" target="_top" xlink:title=" ">
<polygon fill="none" stroke="black" points="886.5,-234.5 886.5,-275.5 1062.5,-275.5 1062.5,-234.5 886.5,-234.5"/>
<text text-anchor="start" x="894.5" y="-263.5" font-family="Helvetica,sans-Serif" font-size="10.00">/__w/pairinteraction</text>
<text text-anchor="start" x="894.5" y="-252.5" font-family="Helvetica,sans-Serif" font-size="10.00">/pairinteraction/pairinteraction</text>
<text text-anchor="middle" x="974.5" y="-241.5" font-family="Helvetica,sans-Serif" font-size="10.00">/unit_test/wavefunction_test.cpp</text>
</a>
</g>
</g>
<!-- Node24&#45;&gt;Node31 -->
<g id="edge47" class="edge">
<title>Node24&#45;&gt;Node31</title>
<path fill="none" stroke="midnightblue" d="M896.78,-306.92C912.38,-296.7 930.13,-285.07 944.73,-275.51"/>
<polygon fill="midnightblue" stroke="midnightblue" points="894.82,-304.02 888.37,-312.43 898.66,-309.88 894.82,-304.02"/>
</g>
<!-- Node25&#45;&gt;Node4 -->
<g id="edge41" class="edge">
<title>Node25&#45;&gt;Node4</title>
<path fill="none" stroke="midnightblue" d="M754.07,-153.08C731.77,-144.82 708.7,-133.97 689.5,-120 670.3,-106.04 677.28,-89.47 656.5,-78 589.02,-40.75 387.61,-54.21 311.5,-42 308.43,-41.51 305.32,-40.98 302.17,-40.42"/>
<polygon fill="midnightblue" stroke="midnightblue" points="752.97,-156.4 763.57,-156.46 755.33,-149.81 752.97,-156.4"/>
</g>
<!-- Node25&#45;&gt;Node19 -->
<g id="edge35" class="edge">
<title>Node25&#45;&gt;Node19</title>
<path fill="none" stroke="midnightblue" d="M787.84,-151.95C769.92,-142.95 750.26,-131.97 733.5,-120 711.5,-104.29 713.46,-90.53 689.5,-78 681.35,-73.74 586.89,-54.91 511.12,-40.25"/>
<polygon fill="midnightblue" stroke="midnightblue" points="786.51,-155.19 797.03,-156.47 789.6,-148.91 786.51,-155.19"/>
</g>
<!-- Node25&#45;&gt;Node20 -->
<g id="edge40" class="edge">
<title>Node25&#45;&gt;Node20</title>
<path fill="none" stroke="midnightblue" d="M760.29,-153.72C720.76,-142.87 673.68,-129.96 635.59,-119.51"/>
<polygon fill="midnightblue" stroke="midnightblue" points="759.6,-157.16 770.17,-156.43 761.45,-150.41 759.6,-157.16"/>
</g>
<!-- Node25&#45;&gt;Node22 -->
<g id="edge42" class="edge">
<title>Node25&#45;&gt;Node22</title>
<path fill="none" stroke="midnightblue" d="M934.45,-170.18C1028.31,-160.93 1152.42,-137.34 1099.5,-78 1073.04,-48.33 826.13,-32.17 694.02,-25.58"/>
<polygon fill="midnightblue" stroke="midnightblue" points="933.95,-166.71 924.32,-171.14 934.61,-173.68 933.95,-166.71"/>
</g>
<!-- Node26 -->
<g id="node26" class="node">
<title>Node26</title>
<g id="a_node26"><a xlink:href="MatrixElementCache_8cpp.html" target="_top" xlink:title=" ">
<polygon fill="none" stroke="black" points="925,-78.5 925,-119.5 1090,-119.5 1090,-78.5 925,-78.5"/>
<text text-anchor="start" x="933" y="-107.5" font-family="Helvetica,sans-Serif" font-size="10.00">/__w/pairinteraction</text>
<text text-anchor="start" x="933" y="-96.5" font-family="Helvetica,sans-Serif" font-size="10.00">/pairinteraction/pairinteraction</text>
<text text-anchor="middle" x="1007.5" y="-85.5" font-family="Helvetica,sans-Serif" font-size="10.00">/MatrixElementCache.cpp</text>
</a>
</g>
</g>
<!-- Node25&#45;&gt;Node26 -->
<g id="edge36" class="edge">
<title>Node25&#45;&gt;Node26</title>
<path fill="none" stroke="midnightblue" d="M893.51,-152.19C916.47,-141.67 943.13,-129.47 964.9,-119.51"/>
<polygon fill="midnightblue" stroke="midnightblue" points="891.88,-149.08 884.25,-156.43 894.8,-155.45 891.88,-149.08"/>
</g>
<!-- Node27 -->
<g id="node27" class="node">
<title>Node27</title>
<g id="a_node27"><a xlink:href="PerturbativeInteraction_8hpp.html" target="_top" xlink:title=" ">
<polygon fill="none" stroke="black" points="1147,-78.5 1147,-119.5 1312,-119.5 1312,-78.5 1147,-78.5"/>
<text text-anchor="start" x="1155" y="-107.5" font-family="Helvetica,sans-Serif" font-size="10.00">/__w/pairinteraction</text>
<text text-anchor="start" x="1155" y="-96.5" font-family="Helvetica,sans-Serif" font-size="10.00">/pairinteraction/pairinteraction</text>
<text text-anchor="middle" x="1229.5" y="-85.5" font-family="Helvetica,sans-Serif" font-size="10.00">/PerturbativeInteraction.hpp</text>
</a>
</g>
</g>
<!-- Node25&#45;&gt;Node27 -->
<g id="edge37" class="edge">
<title>Node25&#45;&gt;Node27</title>
<path fill="none" stroke="midnightblue" d="M934.14,-158.5C991.34,-147.61 1066.22,-133.21 1132.5,-120 1137.22,-119.06 1142.07,-118.08 1146.96,-117.1"/>
<polygon fill="midnightblue" stroke="midnightblue" points="933.2,-155.11 924.03,-160.42 934.51,-161.99 933.2,-155.11"/>
</g>
<!-- Node28 -->
<g id="node28" class="node">
<title>Node28</title>
<g id="a_node28"><a xlink:href="State_8cpp.html" target="_top" xlink:title=" ">
<polygon fill="none" stroke="black" points="742,-78.5 742,-119.5 907,-119.5 907,-78.5 742,-78.5"/>
<text text-anchor="start" x="750" y="-107.5" font-family="Helvetica,sans-Serif" font-size="10.00">/__w/pairinteraction</text>
<text text-anchor="start" x="750" y="-96.5" font-family="Helvetica,sans-Serif" font-size="10.00">/pairinteraction/pairinteraction</text>
<text text-anchor="middle" x="824.5" y="-85.5" font-family="Helvetica,sans-Serif" font-size="10.00">/State.cpp</text>
</a>
</g>
</g>
<!-- Node25&#45;&gt;Node28 -->
<g id="edge39" class="edge">
<title>Node25&#45;&gt;Node28</title>
<path fill="none" stroke="midnightblue" d="M834.92,-146.59C832.89,-137.51 830.71,-127.74 828.86,-119.51"/>
<polygon fill="midnightblue" stroke="midnightblue" points="831.52,-147.43 837.12,-156.43 838.35,-145.91 831.52,-147.43"/>
</g>
<!-- Node27&#45;&gt;Node14 -->
<g id="edge38" class="edge">
<title>Node27&#45;&gt;Node14</title>
<path fill="none" stroke="midnightblue" d="M1236.85,-68.59C1239.12,-59.51 1241.56,-49.74 1243.62,-41.51"/>
<polygon fill="midnightblue" stroke="midnightblue" points="1233.42,-67.88 1234.39,-78.43 1240.21,-69.58 1233.42,-67.88"/>
</g>
<!-- Node29&#45;&gt;Node8 -->
<g id="edge44" class="edge">
<title>Node29&#45;&gt;Node8</title>
<path fill="none" stroke="midnightblue" d="M1319.13,-233.88C1389.13,-219.15 1457.77,-205.15 1509.71,-194.64"/>
<polygon fill="midnightblue" stroke="midnightblue" points="1318.31,-230.48 1309.24,-235.96 1319.75,-237.32 1318.31,-230.48"/>
</g>
<!-- Node29&#45;&gt;Node10 -->
<g id="edge45" class="edge">
<title>Node29&#45;&gt;Node10</title>
<path fill="none" stroke="midnightblue" d="M1269.14,-229.12C1284.84,-219.67 1302.66,-208.62 1318.5,-198 1356.85,-172.27 1399.57,-140.15 1425.99,-119.84"/>
<polygon fill="midnightblue" stroke="midnightblue" points="1266.95,-226.35 1260.16,-234.48 1270.54,-232.35 1266.95,-226.35"/>
</g>
<!-- Node30 -->
<g id="node30" class="node">
<title>Node30</title>
<g id="a_node30"><a xlink:href="MatrixElements_8cpp.html" target="_top" xlink:title=" ">
<polygon fill="none" stroke="black" points="1144,-156.5 1144,-197.5 1309,-197.5 1309,-156.5 1144,-156.5"/>
<text text-anchor="start" x="1152" y="-185.5" font-family="Helvetica,sans-Serif" font-size="10.00">/__w/pairinteraction</text>
<text text-anchor="start" x="1152" y="-174.5" font-family="Helvetica,sans-Serif" font-size="10.00">/pairinteraction/pairinteraction</text>
<text text-anchor="middle" x="1226.5" y="-163.5" font-family="Helvetica,sans-Serif" font-size="10.00">/MatrixElements.cpp</text>
</a>
</g>
</g>
<!-- Node29&#45;&gt;Node30 -->
<g id="edge46" class="edge">
<title>Node29&#45;&gt;Node30</title>
<path fill="none" stroke="midnightblue" d="M1226.5,-224.3C1226.5,-215.3 1226.5,-205.65 1226.5,-197.51"/>
<polygon fill="midnightblue" stroke="midnightblue" points="1223,-224.43 1226.5,-234.43 1230,-224.43 1223,-224.43"/>
</g>
</g>
</svg>
        <g id="navigator" transform="translate(0 0)" fill="#404254">
                <rect fill="#f2f5e9" fill-opacity="0.5" stroke="#606060" stroke-width=".5" x="0" y="0" width="60" height="60"/>
                <use id="zoomplus" xlink:href="#zoomPlus" x="17" y="9" onmousedown="handleZoom(evt,'in')"/>
                <use id="zoomminus" xlink:href="#zoomMin" x="42" y="9" onmousedown="handleZoom(evt,'out')"/>
                <use id="reset" xlink:href="#resetDef" x="30" y="36" onmousedown="handleReset()"/>
                <g id="arrowUp" xlink:href="#dirArrow" transform="translate(30 24)" onmousedown="handlePan(0,-1)">
                  <use xlink:href="#rim" fill="#404040">
                        <set attributeName="fill" to="#808080" begin="arrowUp.mouseover" end="arrowUp.mouseout"/>
                  </use>
                  <path fill="none" stroke="white" stroke-width="1.5" d="M0,-3.0v7 M-2.5,-0.5L0,-3.0L2.5,-0.5"/>
                </g>
                <g id="arrowRight" xlink:href="#dirArrow" transform="rotate(90) translate(36 -43)" onmousedown="handlePan(1,0)">
                  <use xlink:href="#rim" fill="#404040">
                        <set attributeName="fill" to="#808080" begin="arrowRight.mouseover" end="arrowRight.mouseout"/>
                  </use>
                  <path fill="none" stroke="white" stroke-width="1.5" d="M0,-3.0v7 M-2.5,-0.5L0,-3.0L2.5,-0.5"/>
                </g>
                <g id="arrowDown" xlink:href="#dirArrow" transform="rotate(180) translate(-30 -48)" onmousedown="handlePan(0,1)">
                  <use xlink:href="#rim" fill="#404040">
                        <set attributeName="fill" to="#808080" begin="arrowDown.mouseover" end="arrowDown.mouseout"/>
                  </use>
                  <path fill="none" stroke="white" stroke-width="1.5" d="M0,-3.0v7 M-2.5,-0.5L0,-3.0L2.5,-0.5"/>
                </g>
                <g id="arrowLeft" xlink:href="#dirArrow" transform="rotate(270) translate(-36 17)" onmousedown="handlePan(-1,0)">
                  <use xlink:href="#rim" fill="#404040">
                        <set attributeName="fill" to="#808080" begin="arrowLeft.mouseover" end="arrowLeft.mouseout"/>
                  </use>
                  <path fill="none" stroke="white" stroke-width="1.5" d="M0,-3.0v7 M-2.5,-0.5L0,-3.0L2.5,-0.5"/>
                </g>
        </g>
        <svg viewBox="0 0 15 15" width="100%" height="30px" preserveAspectRatio="xMaxYMin meet">
         <g id="arrow_out" transform="scale(0.3 0.3)">
          <a xlink:href="EigenCompat_8hpp__dep__incl_org.svg" target="_base">
           <rect id="button" ry="5" rx="5" y="6" x="6" height="38" width="38"
                fill="#f2f5e9" fill-opacity="0.5" stroke="#606060" stroke-width="1.0"/>
           <path id="arrow"
             d="M 11.500037,31.436501 C 11.940474,20.09759 22.043105,11.32322 32.158766,21.979434 L 37.068811,17.246167 C 37.068811,17.246167 37.088388,32 37.088388,32 L 22.160133,31.978069 C 22.160133,31.978069 26.997745,27.140456 26.997745,27.140456 C 18.528582,18.264221 13.291696,25.230495 11.500037,31.436501 z"
             style="fill:#404040;"/>
          </a>
         </g>
        </svg>
</svg>
