<?xml version="1.0" encoding="UTF-8" standalone="no"?>
<!DOCTYPE svg PUBLIC "-//W3C//DTD SVG 1.1//EN"
 "http://www.w3.org/Graphics/SVG/1.1/DTD/svg11.dtd">
<!-- Generated by graphviz version 2.43.0 (0)
 -->
<!-- Title: /__w/pairinteraction/pairinteraction/pairinteraction/filesystem.hpp Pages: 1 -->
<svg width="864pt" height="284pt"
 viewBox="0.00 0.00 864.00 284.00" xmlns="http://www.w3.org/2000/svg" xmlns:xlink="http://www.w3.org/1999/xlink">
<g id="graph0" class="graph" transform="scale(1 1) rotate(0) translate(4 280)">
<title>/__w/pairinteraction/pairinteraction/pairinteraction/filesystem.hpp</title>
<!-- Node1 -->
<g id="node1" class="node">
<title>Node1</title>
<g id="a_node1"><a xlink:title=" ">
<polygon fill="#bfbfbf" stroke="black" points="359,-234.5 359,-275.5 524,-275.5 524,-234.5 359,-234.5"/>
<text text-anchor="start" x="367" y="-263.5" font-family="Helvetica,sans-Serif" font-size="10.00">/__w/pairinteraction</text>
<text text-anchor="start" x="367" y="-252.5" font-family="Helvetica,sans-Serif" font-size="10.00">/pairinteraction/pairinteraction</text>
<text text-anchor="middle" x="441.5" y="-241.5" font-family="Helvetica,sans-Serif" font-size="10.00">/filesystem.hpp</text>
</a>
</g>
</g>
<!-- Node2 -->
<g id="node2" class="node">
<title>Node2</title>
<g id="a_node2"><a xlink:href="integration__bench_8cpp.html" target="_top" xlink:title=" ">
<polygon fill="none" stroke="black" points="0,-156.5 0,-197.5 191,-197.5 191,-156.5 0,-156.5"/>
<text text-anchor="start" x="8" y="-185.5" font-family="Helvetica,sans-Serif" font-size="10.00">/__w/pairinteraction</text>
<text text-anchor="start" x="8" y="-174.5" font-family="Helvetica,sans-Serif" font-size="10.00">/pairinteraction/pairinteraction</text>
<text text-anchor="middle" x="95.5" y="-163.5" font-family="Helvetica,sans-Serif" font-size="10.00">/benchmarks/integration_bench.cpp</text>
</a>
</g>
</g>
<!-- Node1&#45;&gt;Node2 -->
<g id="edge1" class="edge">
<title>Node1&#45;&gt;Node2</title>
<path fill="none" stroke="midnightblue" d="M348.59,-233.59C297.6,-222.39 234.7,-208.58 184.36,-197.52"/>
<polygon fill="midnightblue" stroke="midnightblue" points="348.11,-237.07 358.62,-235.8 349.61,-230.23 348.11,-237.07"/>
</g>
<!-- Node3 -->
<g id="node3" class="node">
<title>Node3</title>
<g id="a_node3"><a xlink:href="HamiltonianOne_8cpp.html" target="_top" xlink:title=" ">
<polygon fill="none" stroke="black" points="173,-78.5 173,-119.5 338,-119.5 338,-78.5 173,-78.5"/>
<text text-anchor="start" x="181" y="-107.5" font-family="Helvetica,sans-Serif" font-size="10.00">/__w/pairinteraction</text>
<text text-anchor="start" x="181" y="-96.5" font-family="Helvetica,sans-Serif" font-size="10.00">/pairinteraction/pairinteraction</text>
<text text-anchor="middle" x="255.5" y="-85.5" font-family="Helvetica,sans-Serif" font-size="10.00">/HamiltonianOne.cpp</text>
</a>
</g>
</g>
<!-- Node1&#45;&gt;Node3 -->
<g id="edge2" class="edge">
<title>Node1&#45;&gt;Node3</title>
<path fill="none" stroke="midnightblue" d="M348.97,-239.63C302.24,-230.29 252.51,-216.4 238.5,-198 221.24,-175.33 233.29,-141.17 244.04,-119.75"/>
<polygon fill="midnightblue" stroke="midnightblue" points="348.4,-243.09 358.88,-241.56 349.74,-236.21 348.4,-243.09"/>
</g>
<!-- Node4 -->
<g id="node4" class="node">
<title>Node4</title>
<g id="a_node4"><a xlink:href="HamiltonianOne_8hpp.html" target="_top" xlink:title=" ">
<polygon fill="none" stroke="black" points="248,-156.5 248,-197.5 413,-197.5 413,-156.5 248,-156.5"/>
<text text-anchor="start" x="256" y="-185.5" font-family="Helvetica,sans-Serif" font-size="10.00">/__w/pairinteraction</text>
<text text-anchor="start" x="256" y="-174.5" font-family="Helvetica,sans-Serif" font-size="10.00">/pairinteraction/pairinteraction</text>
<text text-anchor="middle" x="330.5" y="-163.5" font-family="Helvetica,sans-Serif" font-size="10.00">/HamiltonianOne.hpp</text>
</a>
</g>
</g>
<!-- Node1&#45;&gt;Node4 -->
<g id="edge3" class="edge">
<title>Node1&#45;&gt;Node4</title>
<path fill="none" stroke="midnightblue" d="M404.45,-228.64C389.63,-218.49 372.83,-206.98 358.99,-197.51"/>
<polygon fill="midnightblue" stroke="midnightblue" points="402.69,-231.67 412.91,-234.43 406.64,-225.89 402.69,-231.67"/>
</g>
<!-- Node5 -->
<g id="node5" class="node">
<title>Node5</title>
<g id="a_node5"><a xlink:href="HamiltonianTwo_8hpp.html" target="_top" xlink:title=" ">
<polygon fill="none" stroke="black" points="470,-78.5 470,-119.5 635,-119.5 635,-78.5 470,-78.5"/>
<text text-anchor="start" x="478" y="-107.5" font-family="Helvetica,sans-Serif" font-size="10.00">/__w/pairinteraction</text>
<text text-anchor="start" x="478" y="-96.5" font-family="Helvetica,sans-Serif" font-size="10.00">/pairinteraction/pairinteraction</text>
<text text-anchor="middle" x="552.5" y="-85.5" font-family="Helvetica,sans-Serif" font-size="10.00">/HamiltonianTwo.hpp</text>
</a>
</g>
</g>
<!-- Node1&#45;&gt;Node5 -->
<g id="edge9" class="edge">
<title>Node1&#45;&gt;Node5</title>
<path fill="none" stroke="midnightblue" d="M456.2,-225.42C467.08,-205.28 482.85,-178.08 499.5,-156 509.25,-143.07 521.63,-129.85 531.96,-119.51"/>
<polygon fill="midnightblue" stroke="midnightblue" points="453.03,-223.94 451.42,-234.41 459.21,-227.23 453.03,-223.94"/>
</g>
<!-- Node7 -->
<g id="node7" class="node">
<title>Node7</title>
<g id="a_node7"><a xlink:href="Interface_8cpp.html" target="_top" xlink:title=" ">
<polygon fill="none" stroke="black" points="323,-0.5 323,-41.5 488,-41.5 488,-0.5 323,-0.5"/>
<text text-anchor="start" x="331" y="-29.5" font-family="Helvetica,sans-Serif" font-size="10.00">/__w/pairinteraction</text>
<text text-anchor="start" x="331" y="-18.5" font-family="Helvetica,sans-Serif" font-size="10.00">/pairinteraction/pairinteraction</text>
<text text-anchor="middle" x="405.5" y="-7.5" font-family="Helvetica,sans-Serif" font-size="10.00">/Interface.cpp</text>
</a>
</g>
</g>
<!-- Node1&#45;&gt;Node7 -->
<g id="edge10" class="edge">
<title>Node1&#45;&gt;Node7</title>
<path fill="none" stroke="midnightblue" d="M436.86,-224.11C429.39,-175.94 414.88,-82.44 408.56,-41.73"/>
<polygon fill="midnightblue" stroke="midnightblue" points="433.44,-224.87 438.43,-234.22 440.36,-223.8 433.44,-224.87"/>
</g>
<!-- Node8 -->
<g id="node8" class="node">
<title>Node8</title>
<g id="a_node8"><a xlink:href="MatrixElementCache_8cpp.html" target="_top" xlink:title=" ">
<polygon fill="none" stroke="black" points="508,-156.5 508,-197.5 673,-197.5 673,-156.5 508,-156.5"/>
<text text-anchor="start" x="516" y="-185.5" font-family="Helvetica,sans-Serif" font-size="10.00">/__w/pairinteraction</text>
<text text-anchor="start" x="516" y="-174.5" font-family="Helvetica,sans-Serif" font-size="10.00">/pairinteraction/pairinteraction</text>
<text text-anchor="middle" x="590.5" y="-163.5" font-family="Helvetica,sans-Serif" font-size="10.00">/MatrixElementCache.cpp</text>
</a>
</g>
</g>
<!-- Node1&#45;&gt;Node8 -->
<g id="edge11" class="edge">
<title>Node1&#45;&gt;Node8</title>
<path fill="none" stroke="midnightblue" d="M489.01,-229.77C509.43,-219.35 532.99,-207.34 552.26,-197.51"/>
<polygon fill="midnightblue" stroke="midnightblue" points="487.19,-226.77 479.87,-234.43 490.37,-233 487.19,-226.77"/>
</g>
<!-- Node9 -->
<g id="node9" class="node">
<title>Node9</title>
<g id="a_node9"><a xlink:href="integration__test_8cpp.html" target="_top" xlink:title=" ">
<polygon fill="none" stroke="black" points="691,-156.5 691,-197.5 856,-197.5 856,-156.5 691,-156.5"/>
<text text-anchor="start" x="699" y="-185.5" font-family="Helvetica,sans-Serif" font-size="10.00">/__w/pairinteraction</text>
<text text-anchor="start" x="699" y="-174.5" font-family="Helvetica,sans-Serif" font-size="10.00">/pairinteraction/pairinteraction</text>
<text text-anchor="middle" x="773.5" y="-163.5" font-family="Helvetica,sans-Serif" font-size="10.00">/unit_test/integration_test.cpp</text>
</a>
</g>
</g>
<!-- Node1&#45;&gt;Node9 -->
<g id="edge12" class="edge">
<title>Node1&#45;&gt;Node9</title>
<path fill="none" stroke="midnightblue" d="M534.41,-232.73C583.51,-221.49 643.28,-207.81 690.77,-196.94"/>
<polygon fill="midnightblue" stroke="midnightblue" points="533.39,-229.37 524.42,-235.02 534.95,-236.2 533.39,-229.37"/>
</g>
<!-- Node4&#45;&gt;Node3 -->
<g id="edge4" class="edge">
<title>Node4&#45;&gt;Node3</title>
<path fill="none" stroke="midnightblue" d="M304.06,-149.2C294.4,-139.42 283.66,-128.54 274.75,-119.51"/>
<polygon fill="midnightblue" stroke="midnightblue" points="301.67,-151.77 311.19,-156.43 306.65,-146.85 301.67,-151.77"/>
</g>
<!-- Node4&#45;&gt;Node5 -->
<g id="edge5" class="edge">
<title>Node4&#45;&gt;Node5</title>
<path fill="none" stroke="midnightblue" d="M397.2,-153.17C428.54,-142.44 465.52,-129.78 495.52,-119.51"/>
<polygon fill="midnightblue" stroke="midnightblue" points="396,-149.88 387.67,-156.43 398.27,-156.5 396,-149.88"/>
</g>
<!-- Node4&#45;&gt;Node7 -->
<g id="edge8" class="edge">
<title>Node4&#45;&gt;Node7</title>
<path fill="none" stroke="midnightblue" d="M344.54,-147.17C359.51,-116.43 382.81,-68.59 395.84,-41.83"/>
<polygon fill="midnightblue" stroke="midnightblue" points="341.23,-145.97 340,-156.5 347.52,-149.04 341.23,-145.97"/>
</g>
<!-- Node6 -->
<g id="node6" class="node">
<title>Node6</title>
<g id="a_node6"><a xlink:href="HamiltonianTwo_8cpp.html" target="_top" xlink:title=" ">
<polygon fill="none" stroke="black" points="506,-0.5 506,-41.5 671,-41.5 671,-0.5 506,-0.5"/>
<text text-anchor="start" x="514" y="-29.5" font-family="Helvetica,sans-Serif" font-size="10.00">/__w/pairinteraction</text>
<text text-anchor="start" x="514" y="-18.5" font-family="Helvetica,sans-Serif" font-size="10.00">/pairinteraction/pairinteraction</text>
<text text-anchor="middle" x="588.5" y="-7.5" font-family="Helvetica,sans-Serif" font-size="10.00">/HamiltonianTwo.cpp</text>
</a>
</g>
</g>
<!-- Node5&#45;&gt;Node6 -->
<g id="edge6" class="edge">
<title>Node5&#45;&gt;Node6</title>
<path fill="none" stroke="midnightblue" d="M566.15,-69.17C570.53,-59.93 575.28,-49.92 579.26,-41.51"/>
<polygon fill="midnightblue" stroke="midnightblue" points="562.89,-67.89 561.77,-78.43 569.21,-70.89 562.89,-67.89"/>
</g>
<!-- Node5&#45;&gt;Node7 -->
<g id="edge7" class="edge">
<title>Node5&#45;&gt;Node7</title>
<path fill="none" stroke="midnightblue" d="M505.63,-73.77C485.48,-63.35 462.24,-51.34 443.23,-41.51"/>
<polygon fill="midnightblue" stroke="midnightblue" points="504.15,-76.94 514.64,-78.43 507.37,-70.73 504.15,-76.94"/>
</g>
</g>
</svg>
