<?xml version="1.0" encoding="UTF-8" standalone="no"?>
<!DOCTYPE svg PUBLIC "-//W3C//DTD SVG 1.1//EN"
 "http://www.w3.org/Graphics/SVG/1.1/DTD/svg11.dtd">
<!-- Generated by graphviz version 2.43.0 (0)
 -->
<!-- Title: /__w/pairinteraction/pairinteraction/pairinteraction/GreenTensor.cpp Pages: 1 -->
<svg width="554pt" height="229pt"
 viewBox="0.00 0.00 553.50 229.00" xmlns="http://www.w3.org/2000/svg" xmlns:xlink="http://www.w3.org/1999/xlink">
<g id="graph0" class="graph" transform="scale(1 1) rotate(0) translate(4 225)">
<title>/__w/pairinteraction/pairinteraction/pairinteraction/GreenTensor.cpp</title>
<!-- Node1 -->
<g id="node1" class="node">
<title>Node1</title>
<g id="a_node1"><a xlink:title=" ">
<polygon fill="#bfbfbf" stroke="black" points="291,-179.5 291,-220.5 456,-220.5 456,-179.5 291,-179.5"/>
<text text-anchor="start" x="299" y="-208.5" font-family="Helvetica,sans-Serif" font-size="10.00">/__w/pairinteraction</text>
<text text-anchor="start" x="299" y="-197.5" font-family="Helvetica,sans-Serif" font-size="10.00">/pairinteraction/pairinteraction</text>
<text text-anchor="middle" x="373.5" y="-186.5" font-family="Helvetica,sans-Serif" font-size="10.00">/GreenTensor.cpp</text>
</a>
</g>
</g>
<!-- Node2 -->
<g id="node2" class="node">
<title>Node2</title>
<g id="a_node2"><a xlink:href="GreenTensor_8hpp.html" target="_top" xlink:title=" ">
<polygon fill="none" stroke="black" points="174.5,-123.5 174.5,-142.5 272.5,-142.5 272.5,-123.5 174.5,-123.5"/>
<text text-anchor="middle" x="223.5" y="-130.5" font-family="Helvetica,sans-Serif" font-size="10.00">GreenTensor.hpp</text>
</a>
</g>
</g>
<!-- Node1&#45;&gt;Node2 -->
<g id="edge1" class="edge">
<title>Node1&#45;&gt;Node2</title>
<path fill="none" stroke="midnightblue" d="M328.5,-179.5C303.95,-168.86 274.27,-156 252.74,-146.67"/>
<polygon fill="midnightblue" stroke="midnightblue" points="254.03,-143.42 243.47,-142.65 251.25,-149.84 254.03,-143.42"/>
</g>
<!-- Node3 -->
<g id="node3" class="node">
<title>Node3</title>
<g id="a_node3"><a xlink:href="EigenCompat_8hpp.html" target="_top" xlink:title=" ">
<polygon fill="none" stroke="black" points="0,-62 0,-81 103,-81 103,-62 0,-62"/>
<text text-anchor="middle" x="51.5" y="-69" font-family="Helvetica,sans-Serif" font-size="10.00">EigenCompat.hpp</text>
</a>
</g>
</g>
<!-- Node1&#45;&gt;Node3 -->
<g id="edge8" class="edge">
<title>Node1&#45;&gt;Node3</title>
<path fill="none" stroke="midnightblue" d="M290.89,-182.59C251.95,-173.4 205.4,-160.27 165.5,-143 130.21,-127.73 92.98,-102.8 71.02,-87.04"/>
<polygon fill="midnightblue" stroke="midnightblue" points="73,-84.16 62.86,-81.1 68.88,-89.82 73,-84.16"/>
</g>
<!-- Node4 -->
<g id="node4" class="node">
<title>Node4</title>
<g id="a_node4"><a xlink:title=" ">
<polygon fill="none" stroke="#bfbfbf" points="97,-0.5 97,-19.5 166,-19.5 166,-0.5 97,-0.5"/>
<text text-anchor="middle" x="131.5" y="-7.5" font-family="Helvetica,sans-Serif" font-size="10.00">Eigen/Core</text>
</a>
</g>
</g>
<!-- Node1&#45;&gt;Node4 -->
<g id="edge9" class="edge">
<title>Node1&#45;&gt;Node4</title>
<path fill="none" stroke="midnightblue" d="M399.01,-179.4C433.87,-150.31 488.4,-94.96 454.5,-56 418.97,-15.18 256.39,-10.23 176.32,-10.34"/>
<polygon fill="midnightblue" stroke="midnightblue" points="176.04,-6.84 166.05,-10.38 176.07,-13.84 176.04,-6.84"/>
</g>
<!-- Node5 -->
<g id="node5" class="node">
<title>Node5</title>
<g id="a_node5"><a xlink:title=" ">
<polygon fill="none" stroke="#bfbfbf" points="302,-56.5 302,-86.5 445,-86.5 445,-56.5 302,-56.5"/>
<text text-anchor="start" x="310" y="-74.5" font-family="Helvetica,sans-Serif" font-size="10.00">unsupported/Eigen/CXX11</text>
<text text-anchor="middle" x="373.5" y="-63.5" font-family="Helvetica,sans-Serif" font-size="10.00">/Tensor</text>
</a>
</g>
</g>
<!-- Node1&#45;&gt;Node5 -->
<g id="edge10" class="edge">
<title>Node1&#45;&gt;Node5</title>
<path fill="none" stroke="midnightblue" d="M373.5,-179.23C373.5,-156.94 373.5,-120.67 373.5,-96.7"/>
<polygon fill="midnightblue" stroke="midnightblue" points="377,-96.64 373.5,-86.64 370,-96.64 377,-96.64"/>
</g>
<!-- Node8 -->
<g id="node8" class="node">
<title>Node8</title>
<g id="a_node8"><a xlink:title=" ">
<polygon fill="none" stroke="#bfbfbf" points="501.5,-123.5 501.5,-142.5 545.5,-142.5 545.5,-123.5 501.5,-123.5"/>
<text text-anchor="middle" x="523.5" y="-130.5" font-family="Helvetica,sans-Serif" font-size="10.00">limits</text>
</a>
</g>
</g>
<!-- Node1&#45;&gt;Node8 -->
<g id="edge11" class="edge">
<title>Node1&#45;&gt;Node8</title>
<path fill="none" stroke="midnightblue" d="M418.5,-179.5C443.05,-168.86 472.73,-156 494.26,-146.67"/>
<polygon fill="midnightblue" stroke="midnightblue" points="495.75,-149.84 503.53,-142.65 492.97,-143.42 495.75,-149.84"/>
</g>
<!-- Node2&#45;&gt;Node3 -->
<g id="edge2" class="edge">
<title>Node2&#45;&gt;Node3</title>
<path fill="none" stroke="midnightblue" d="M198.86,-123.48C169.22,-113.22 119.32,-95.96 85.9,-84.4"/>
<polygon fill="midnightblue" stroke="midnightblue" points="86.69,-80.97 76.1,-81.01 84.4,-87.59 86.69,-80.97"/>
</g>
<!-- Node2&#45;&gt;Node4 -->
<g id="edge4" class="edge">
<title>Node2&#45;&gt;Node4</title>
<path fill="none" stroke="midnightblue" d="M200.74,-123.48C184.38,-116.21 163.07,-104.18 150.5,-87 138.23,-70.23 133.84,-46.42 132.29,-29.93"/>
<polygon fill="midnightblue" stroke="midnightblue" points="135.78,-29.61 131.61,-19.87 128.79,-30.08 135.78,-29.61"/>
</g>
<!-- Node2&#45;&gt;Node5 -->
<g id="edge5" class="edge">
<title>Node2&#45;&gt;Node5</title>
<path fill="none" stroke="midnightblue" d="M244.99,-123.48C266.73,-114.85 300.99,-101.26 328.66,-90.29"/>
<polygon fill="midnightblue" stroke="midnightblue" points="330.14,-93.46 338.15,-86.52 327.56,-86.96 330.14,-93.46"/>
</g>
<!-- Node6 -->
<g id="node6" class="node">
<title>Node6</title>
<g id="a_node6"><a xlink:title=" ">
<polygon fill="none" stroke="#bfbfbf" points="160,-62 160,-81 207,-81 207,-62 160,-62"/>
<text text-anchor="middle" x="183.5" y="-69" font-family="Helvetica,sans-Serif" font-size="10.00">cmath</text>
</a>
</g>
</g>
<!-- Node2&#45;&gt;Node6 -->
<g id="edge6" class="edge">
<title>Node2&#45;&gt;Node6</title>
<path fill="none" stroke="midnightblue" d="M217.77,-123.48C211.83,-114.64 202.38,-100.59 194.91,-89.48"/>
<polygon fill="midnightblue" stroke="midnightblue" points="197.7,-87.36 189.22,-81.01 191.89,-91.26 197.7,-87.36"/>
</g>
<!-- Node7 -->
<g id="node7" class="node">
<title>Node7</title>
<g id="a_node7"><a xlink:title=" ">
<polygon fill="none" stroke="#bfbfbf" points="225,-62 225,-81 284,-81 284,-62 225,-62"/>
<text text-anchor="middle" x="254.5" y="-69" font-family="Helvetica,sans-Serif" font-size="10.00">complex</text>
</a>
</g>
</g>
<!-- Node2&#45;&gt;Node7 -->
<g id="edge7" class="edge">
<title>Node2&#45;&gt;Node7</title>
<path fill="none" stroke="midnightblue" d="M227.94,-123.48C232.45,-114.82 239.57,-101.15 245.31,-90.15"/>
<polygon fill="midnightblue" stroke="midnightblue" points="248.55,-91.49 250.07,-81.01 242.34,-88.26 248.55,-91.49"/>
</g>
<!-- Node3&#45;&gt;Node4 -->
<g id="edge3" class="edge">
<title>Node3&#45;&gt;Node4</title>
<path fill="none" stroke="midnightblue" d="M62.96,-61.98C75.67,-52.52 96.41,-37.1 111.75,-25.69"/>
<polygon fill="midnightblue" stroke="midnightblue" points="114.12,-28.29 120.06,-19.51 109.95,-22.67 114.12,-28.29"/>
</g>
</g>
</svg>
