<?xml version="1.0" encoding="UTF-8" standalone="no"?>
<!DOCTYPE svg PUBLIC "-//W3C//DTD SVG 1.1//EN"
 "http://www.w3.org/Graphics/SVG/1.1/DTD/svg11.dtd">
<!-- Generated by graphviz version 2.43.0 (0)
 -->
<!-- Title: /__w/pairinteraction/pairinteraction/pairinteraction/Hamiltonianmatrix.cpp Pages: 1 -->
<svg width="2289pt" height="330pt"
 viewBox="0.00 0.00 2289.00 330.00" xmlns="http://www.w3.org/2000/svg" xmlns:xlink="http://www.w3.org/1999/xlink">
<g id="graph0" class="graph" transform="scale(1 1) rotate(0) translate(4 326)">
<title>/__w/pairinteraction/pairinteraction/pairinteraction/Hamiltonianmatrix.cpp</title>
<!-- Node1 -->
<g id="node1" class="node">
<title>Node1</title>
<g id="a_node1"><a xlink:title=" ">
<polygon fill="#bfbfbf" stroke="black" points="1947,-280.5 1947,-321.5 2112,-321.5 2112,-280.5 1947,-280.5"/>
<text text-anchor="start" x="1955" y="-309.5" font-family="Helvetica,sans-Serif" font-size="10.00">/__w/pairinteraction</text>
<text text-anchor="start" x="1955" y="-298.5" font-family="Helvetica,sans-Serif" font-size="10.00">/pairinteraction/pairinteraction</text>
<text text-anchor="middle" x="2029.5" y="-287.5" font-family="Helvetica,sans-Serif" font-size="10.00">/Hamiltonianmatrix.cpp</text>
</a>
</g>
</g>
<!-- Node2 -->
<g id="node2" class="node">
<title>Node2</title>
<g id="a_node2"><a xlink:href="Hamiltonianmatrix_8hpp.html" target="_top" xlink:title=" ">
<polygon fill="none" stroke="black" points="1372.5,-224.5 1372.5,-243.5 1502.5,-243.5 1502.5,-224.5 1372.5,-224.5"/>
<text text-anchor="middle" x="1437.5" y="-231.5" font-family="Helvetica,sans-Serif" font-size="10.00">Hamiltonianmatrix.hpp</text>
</a>
</g>
</g>
<!-- Node1&#45;&gt;Node2 -->
<g id="edge1" class="edge">
<title>Node1&#45;&gt;Node2</title>
<path fill="none" stroke="midnightblue" d="M1946.87,-290.93C1831.56,-278.27 1624.02,-255.48 1512.78,-243.27"/>
<polygon fill="midnightblue" stroke="midnightblue" points="1512.97,-239.77 1502.65,-242.15 1512.21,-246.72 1512.97,-239.77"/>
</g>
<!-- Node34 -->
<g id="node34" class="node">
<title>Node34</title>
<g id="a_node34"><a xlink:href="EigenCompat_8hpp.html" target="_top" xlink:title=" ">
<polygon fill="none" stroke="black" points="1918,-168.5 1918,-187.5 2021,-187.5 2021,-168.5 1918,-168.5"/>
<text text-anchor="middle" x="1969.5" y="-175.5" font-family="Helvetica,sans-Serif" font-size="10.00">EigenCompat.hpp</text>
</a>
</g>
</g>
<!-- Node1&#45;&gt;Node34 -->
<g id="edge51" class="edge">
<title>Node1&#45;&gt;Node34</title>
<path fill="none" stroke="midnightblue" d="M2019.73,-280.29C2008.21,-257.06 1989.24,-218.82 1978.21,-196.56"/>
<polygon fill="midnightblue" stroke="midnightblue" points="1981.33,-194.98 1973.75,-187.57 1975.06,-198.09 1981.33,-194.98"/>
</g>
<!-- Node35 -->
<g id="node35" class="node">
<title>Node35</title>
<g id="a_node35"><a xlink:title=" ">
<polygon fill="none" stroke="#bfbfbf" points="1975,-112.5 1975,-131.5 2044,-131.5 2044,-112.5 1975,-112.5"/>
<text text-anchor="middle" x="2009.5" y="-119.5" font-family="Helvetica,sans-Serif" font-size="10.00">Eigen/Core</text>
</a>
</g>
</g>
<!-- Node1&#45;&gt;Node35 -->
<g id="edge52" class="edge">
<title>Node1&#45;&gt;Node35</title>
<path fill="none" stroke="midnightblue" d="M2032.35,-280.48C2035.53,-254.46 2039.19,-207.15 2030.5,-168 2028.38,-158.43 2023.99,-148.48 2019.78,-140.37"/>
<polygon fill="midnightblue" stroke="midnightblue" points="2022.8,-138.6 2014.88,-131.56 2016.68,-142 2022.8,-138.6"/>
</g>
<!-- Node40 -->
<g id="node40" class="node">
<title>Node40</title>
<g id="a_node40"><a xlink:title=" ">
<polygon fill="none" stroke="#bfbfbf" points="1835,-168.5 1835,-187.5 1900,-187.5 1900,-168.5 1835,-168.5"/>
<text text-anchor="middle" x="1867.5" y="-175.5" font-family="Helvetica,sans-Serif" font-size="10.00">stdexcept</text>
</a>
</g>
</g>
<!-- Node1&#45;&gt;Node40 -->
<g id="edge55" class="edge">
<title>Node1&#45;&gt;Node40</title>
<path fill="none" stroke="midnightblue" d="M2003.11,-280.29C1970.61,-256.01 1916.15,-215.34 1887.12,-193.66"/>
<polygon fill="midnightblue" stroke="midnightblue" points="1889.09,-190.75 1878.98,-187.57 1884.9,-196.36 1889.09,-190.75"/>
</g>
<!-- Node41 -->
<g id="node41" class="node">
<title>Node41</title>
<g id="a_node41"><a xlink:title=" ">
<polygon fill="none" stroke="#bfbfbf" points="2077.5,-224.5 2077.5,-243.5 2183.5,-243.5 2183.5,-224.5 2077.5,-224.5"/>
<text text-anchor="middle" x="2130.5" y="-231.5" font-family="Helvetica,sans-Serif" font-size="10.00">Eigen/Eigenvalues</text>
</a>
</g>
</g>
<!-- Node1&#45;&gt;Node41 -->
<g id="edge53" class="edge">
<title>Node1&#45;&gt;Node41</title>
<path fill="none" stroke="midnightblue" d="M2059.8,-280.5C2075.44,-270.44 2094.16,-258.38 2108.41,-249.21"/>
<polygon fill="midnightblue" stroke="midnightblue" points="2110.54,-252.01 2117.06,-243.65 2106.75,-246.12 2110.54,-252.01"/>
</g>
<!-- Node42 -->
<g id="node42" class="node">
<title>Node42</title>
<g id="a_node42"><a xlink:title=" ">
<polygon fill="none" stroke="#bfbfbf" points="2202,-224.5 2202,-243.5 2281,-243.5 2281,-224.5 2202,-224.5"/>
<text text-anchor="middle" x="2241.5" y="-231.5" font-family="Helvetica,sans-Serif" font-size="10.00">fmt/format.h</text>
</a>
</g>
</g>
<!-- Node1&#45;&gt;Node42 -->
<g id="edge54" class="edge">
<title>Node1&#45;&gt;Node42</title>
<path fill="none" stroke="midnightblue" d="M2093.11,-280.5C2129.16,-269.44 2173.04,-255.99 2203.7,-246.59"/>
<polygon fill="midnightblue" stroke="midnightblue" points="2205.02,-249.84 2213.56,-243.57 2202.97,-243.15 2205.02,-249.84"/>
</g>
<!-- Node3 -->
<g id="node3" class="node">
<title>Node3</title>
<g id="a_node3"><a xlink:href="Basisnames_8hpp.html" target="_top" xlink:title=" ">
<polygon fill="none" stroke="black" points="728,-168.5 728,-187.5 825,-187.5 825,-168.5 728,-168.5"/>
<text text-anchor="middle" x="776.5" y="-175.5" font-family="Helvetica,sans-Serif" font-size="10.00">Basisnames.hpp</text>
</a>
</g>
</g>
<!-- Node2&#45;&gt;Node3 -->
<g id="edge2" class="edge">
<title>Node2&#45;&gt;Node3</title>
<path fill="none" stroke="midnightblue" d="M1372.31,-227.67C1243.53,-217.15 958.34,-193.86 835.1,-183.79"/>
<polygon fill="midnightblue" stroke="midnightblue" points="835.35,-180.3 825.1,-182.97 834.78,-187.27 835.35,-180.3"/>
</g>
<!-- Node9 -->
<g id="node9" class="node">
<title>Node9</title>
<g id="a_node9"><a xlink:href="StateOld_8hpp.html" target="_top" xlink:title=" ">
<polygon fill="none" stroke="black" points="423.5,-112.5 423.5,-131.5 503.5,-131.5 503.5,-112.5 423.5,-112.5"/>
<text text-anchor="middle" x="463.5" y="-119.5" font-family="Helvetica,sans-Serif" font-size="10.00">StateOld.hpp</text>
</a>
</g>
</g>
<!-- Node2&#45;&gt;Node9 -->
<g id="edge36" class="edge">
<title>Node2&#45;&gt;Node9</title>
<path fill="none" stroke="midnightblue" d="M1372.12,-232.99C1245.27,-232.06 957.26,-225.56 718.5,-188 639.5,-175.57 549.31,-149.75 500.17,-134.66"/>
<polygon fill="midnightblue" stroke="midnightblue" points="500.91,-131.23 490.33,-131.61 498.84,-137.91 500.91,-131.23"/>
</g>
<!-- Node10 -->
<g id="node10" class="node">
<title>Node10</title>
<g id="a_node10"><a xlink:href="utils_8hpp.html" target="_top" xlink:title=" ">
<polygon fill="none" stroke="black" points="238,-56.5 238,-75.5 297,-75.5 297,-56.5 238,-56.5"/>
<text text-anchor="middle" x="267.5" y="-63.5" font-family="Helvetica,sans-Serif" font-size="10.00">utils.hpp</text>
</a>
</g>
</g>
<!-- Node2&#45;&gt;Node10 -->
<g id="edge40" class="edge">
<title>Node2&#45;&gt;Node10</title>
<path fill="none" stroke="midnightblue" d="M1372.26,-231.15C1205.46,-226.13 766.44,-211.09 622.5,-188 527.97,-172.83 504.77,-163.9 414.5,-132 371.24,-116.71 322.91,-94.25 293.87,-80.14"/>
<polygon fill="midnightblue" stroke="midnightblue" points="295.32,-76.95 284.8,-75.69 292.24,-83.23 295.32,-76.95"/>
</g>
<!-- Node18 -->
<g id="node18" class="node">
<title>Node18</title>
<g id="a_node18"><a xlink:title=" ">
<polygon fill="none" stroke="#bfbfbf" points="799,-56.5 799,-75.5 846,-75.5 846,-56.5 799,-56.5"/>
<text text-anchor="middle" x="822.5" y="-63.5" font-family="Helvetica,sans-Serif" font-size="10.00">cmath</text>
</a>
</g>
</g>
<!-- Node2&#45;&gt;Node18 -->
<g id="edge44" class="edge">
<title>Node2&#45;&gt;Node18</title>
<path fill="none" stroke="midnightblue" d="M1421.27,-224.31C1401.54,-212.53 1372.29,-190.37 1384.5,-168 1398.68,-142.03 1426.32,-157.97 1440.5,-132 1444.76,-124.2 1446.59,-118.48 1440.5,-112 1396.52,-65.19 927.11,-84.91 863.5,-76 861.13,-75.67 858.68,-75.27 856.23,-74.83"/>
<polygon fill="midnightblue" stroke="midnightblue" points="856.73,-71.36 846.24,-72.86 855.37,-78.23 856.73,-71.36"/>
</g>
<!-- Node23 -->
<g id="node23" class="node">
<title>Node23</title>
<g id="a_node23"><a xlink:title=" ">
<polygon fill="none" stroke="#bfbfbf" points="1033.5,-112.5 1033.5,-131.5 1091.5,-131.5 1091.5,-112.5 1033.5,-112.5"/>
<text text-anchor="middle" x="1062.5" y="-119.5" font-family="Helvetica,sans-Serif" font-size="10.00">memory</text>
</a>
</g>
</g>
<!-- Node2&#45;&gt;Node23 -->
<g id="edge48" class="edge">
<title>Node2&#45;&gt;Node23</title>
<path fill="none" stroke="midnightblue" d="M1372.28,-230.73C1313.88,-226.81 1226.88,-216.26 1156.5,-188 1126.91,-176.12 1097.43,-153.54 1079.58,-138.38"/>
<polygon fill="midnightblue" stroke="midnightblue" points="1081.64,-135.53 1071.8,-131.61 1077.05,-140.81 1081.64,-135.53"/>
</g>
<!-- Node26 -->
<g id="node26" class="node">
<title>Node26</title>
<g id="a_node26"><a xlink:title=" ">
<polygon fill="none" stroke="#bfbfbf" points="968,-112.5 968,-131.5 1015,-131.5 1015,-112.5 968,-112.5"/>
<text text-anchor="middle" x="991.5" y="-119.5" font-family="Helvetica,sans-Serif" font-size="10.00">vector</text>
</a>
</g>
</g>
<!-- Node2&#45;&gt;Node26 -->
<g id="edge50" class="edge">
<title>Node2&#45;&gt;Node26</title>
<path fill="none" stroke="midnightblue" d="M1372.34,-230.24C1306.65,-225.99 1203.04,-215.21 1117.5,-188 1078.78,-175.68 1037.6,-152.22 1013.24,-137.11"/>
<polygon fill="midnightblue" stroke="midnightblue" points="1014.79,-133.95 1004.47,-131.58 1011.06,-139.87 1014.79,-133.95"/>
</g>
<!-- Node27 -->
<g id="node27" class="node">
<title>Node27</title>
<g id="a_node27"><a xlink:href="Serializable_8hpp.html" target="_top" xlink:title=" ">
<polygon fill="none" stroke="black" points="1166,-168.5 1166,-187.5 1261,-187.5 1261,-168.5 1166,-168.5"/>
<text text-anchor="middle" x="1213.5" y="-175.5" font-family="Helvetica,sans-Serif" font-size="10.00">Serializable.hpp</text>
</a>
</g>
</g>
<!-- Node2&#45;&gt;Node27 -->
<g id="edge29" class="edge">
<title>Node2&#45;&gt;Node27</title>
<path fill="none" stroke="midnightblue" d="M1402.01,-224.44C1363.18,-215.08 1300.84,-200.06 1258.58,-189.87"/>
<polygon fill="midnightblue" stroke="midnightblue" points="1259.37,-186.46 1248.83,-187.52 1257.73,-193.26 1259.37,-186.46"/>
</g>
<!-- Node32 -->
<g id="node32" class="node">
<title>Node32</title>
<g id="a_node32"><a xlink:href="Symmetry_8hpp.html" target="_top" xlink:title=" ">
<polygon fill="none" stroke="black" points="1394,-168.5 1394,-187.5 1481,-187.5 1481,-168.5 1394,-168.5"/>
<text text-anchor="middle" x="1437.5" y="-175.5" font-family="Helvetica,sans-Serif" font-size="10.00">Symmetry.hpp</text>
</a>
</g>
</g>
<!-- Node2&#45;&gt;Node32 -->
<g id="edge37" class="edge">
<title>Node2&#45;&gt;Node32</title>
<path fill="none" stroke="midnightblue" d="M1437.5,-224.08C1437.5,-217.01 1437.5,-206.86 1437.5,-197.99"/>
<polygon fill="midnightblue" stroke="midnightblue" points="1441,-197.75 1437.5,-187.75 1434,-197.75 1441,-197.75"/>
</g>
<!-- Node2&#45;&gt;Node34 -->
<g id="edge41" class="edge">
<title>Node2&#45;&gt;Node34</title>
<path fill="none" stroke="midnightblue" d="M1502.52,-227.92C1591.6,-220.7 1756.84,-206.44 1907.46,-188.2"/>
<polygon fill="midnightblue" stroke="midnightblue" points="1908.31,-191.62 1917.81,-186.93 1907.46,-184.67 1908.31,-191.62"/>
</g>
<!-- Node36 -->
<g id="node36" class="node">
<title>Node36</title>
<g id="a_node36"><a xlink:title=" ">
<polygon fill="none" stroke="#bfbfbf" points="1499.5,-168.5 1499.5,-187.5 1601.5,-187.5 1601.5,-168.5 1499.5,-168.5"/>
<text text-anchor="middle" x="1550.5" y="-175.5" font-family="Helvetica,sans-Serif" font-size="10.00">Eigen/SparseCore</text>
</a>
</g>
</g>
<!-- Node2&#45;&gt;Node36 -->
<g id="edge43" class="edge">
<title>Node2&#45;&gt;Node36</title>
<path fill="none" stroke="midnightblue" d="M1455.41,-224.44C1473.75,-215.68 1502.51,-201.94 1523.59,-191.86"/>
<polygon fill="midnightblue" stroke="midnightblue" points="1525.17,-194.99 1532.68,-187.52 1522.15,-188.67 1525.17,-194.99"/>
</g>
<!-- Node37 -->
<g id="node37" class="node">
<title>Node37</title>
<g id="a_node37"><a xlink:title=" ">
<polygon fill="none" stroke="#bfbfbf" points="1619.5,-168.5 1619.5,-187.5 1669.5,-187.5 1669.5,-168.5 1619.5,-168.5"/>
<text text-anchor="middle" x="1644.5" y="-175.5" font-family="Helvetica,sans-Serif" font-size="10.00">cstdint</text>
</a>
</g>
</g>
<!-- Node2&#45;&gt;Node37 -->
<g id="edge45" class="edge">
<title>Node2&#45;&gt;Node37</title>
<path fill="none" stroke="midnightblue" d="M1470.35,-224.5C1503.19,-215.99 1555.38,-202.45 1609.49,-188.26"/>
<polygon fill="midnightblue" stroke="midnightblue" points="1610.47,-191.62 1619.25,-185.7 1608.69,-184.85 1610.47,-191.62"/>
</g>
<!-- Node38 -->
<g id="node38" class="node">
<title>Node38</title>
<g id="a_node38"><a xlink:title=" ">
<polygon fill="none" stroke="#bfbfbf" points="1687.5,-168.5 1687.5,-187.5 1733.5,-187.5 1733.5,-168.5 1687.5,-168.5"/>
<text text-anchor="middle" x="1710.5" y="-175.5" font-family="Helvetica,sans-Serif" font-size="10.00">cstdio</text>
</a>
</g>
</g>
<!-- Node2&#45;&gt;Node38 -->
<g id="edge46" class="edge">
<title>Node2&#45;&gt;Node38</title>
<path fill="none" stroke="midnightblue" d="M1490.91,-224.44C1537.74,-216.62 1607.82,-204.14 1677.64,-188.03"/>
<polygon fill="midnightblue" stroke="midnightblue" points="1678.55,-191.42 1687.49,-185.74 1676.96,-184.6 1678.55,-191.42"/>
</g>
<!-- Node39 -->
<g id="node39" class="node">
<title>Node39</title>
<g id="a_node39"><a xlink:title=" ">
<polygon fill="none" stroke="#bfbfbf" points="1752,-168.5 1752,-187.5 1817,-187.5 1817,-168.5 1752,-168.5"/>
<text text-anchor="middle" x="1784.5" y="-175.5" font-family="Helvetica,sans-Serif" font-size="10.00">exception</text>
</a>
</g>
</g>
<!-- Node2&#45;&gt;Node39 -->
<g id="edge47" class="edge">
<title>Node2&#45;&gt;Node39</title>
<path fill="none" stroke="midnightblue" d="M1502.55,-224.64C1562.2,-216.7 1653.2,-203.87 1742.01,-187.98"/>
<polygon fill="midnightblue" stroke="midnightblue" points="1742.76,-191.4 1751.98,-186.19 1741.52,-184.52 1742.76,-191.4"/>
</g>
<!-- Node2&#45;&gt;Node40 -->
<g id="edge49" class="edge">
<title>Node2&#45;&gt;Node40</title>
<path fill="none" stroke="midnightblue" d="M1502.64,-227.36C1577.83,-220.43 1705.38,-207.34 1824.94,-187.94"/>
<polygon fill="midnightblue" stroke="midnightblue" points="1825.7,-191.36 1835,-186.29 1824.56,-184.45 1825.7,-191.36"/>
</g>
<!-- Node4 -->
<g id="node4" class="node">
<title>Node4</title>
<g id="a_node4"><a xlink:href="ConfParser_8hpp.html" target="_top" xlink:title=" ">
<polygon fill="none" stroke="black" points="859,-112.5 859,-131.5 950,-131.5 950,-112.5 859,-112.5"/>
<text text-anchor="middle" x="904.5" y="-119.5" font-family="Helvetica,sans-Serif" font-size="10.00">ConfParser.hpp</text>
</a>
</g>
</g>
<!-- Node3&#45;&gt;Node4 -->
<g id="edge3" class="edge">
<title>Node3&#45;&gt;Node4</title>
<path fill="none" stroke="midnightblue" d="M796.78,-168.44C817.85,-159.56 851.02,-145.56 874.99,-135.45"/>
<polygon fill="midnightblue" stroke="midnightblue" points="876.46,-138.63 884.31,-131.52 873.74,-132.18 876.46,-138.63"/>
</g>
<!-- Node7 -->
<g id="node7" class="node">
<title>Node7</title>
<g id="a_node7"><a xlink:title=" ">
<polygon fill="none" stroke="#bfbfbf" points="720.5,-56.5 720.5,-75.5 764.5,-75.5 764.5,-56.5 720.5,-56.5"/>
<text text-anchor="middle" x="742.5" y="-63.5" font-family="Helvetica,sans-Serif" font-size="10.00">string</text>
</a>
</g>
</g>
<!-- Node3&#45;&gt;Node7 -->
<g id="edge26" class="edge">
<title>Node3&#45;&gt;Node7</title>
<path fill="none" stroke="midnightblue" d="M751,-168.47C734.51,-161.48 714.36,-149.79 704.5,-132 695.02,-114.89 709.6,-95.58 723.36,-82.48"/>
<polygon fill="midnightblue" stroke="midnightblue" points="726.02,-84.8 731.18,-75.55 721.37,-79.56 726.02,-84.8"/>
</g>
<!-- Node8 -->
<g id="node8" class="node">
<title>Node8</title>
<g id="a_node8"><a xlink:href="Iter_8hpp.html" target="_top" xlink:title=" ">
<polygon fill="none" stroke="black" points="713.5,-112.5 713.5,-131.5 767.5,-131.5 767.5,-112.5 713.5,-112.5"/>
<text text-anchor="middle" x="740.5" y="-119.5" font-family="Helvetica,sans-Serif" font-size="10.00">Iter.hpp</text>
</a>
</g>
</g>
<!-- Node3&#45;&gt;Node8 -->
<g id="edge7" class="edge">
<title>Node3&#45;&gt;Node8</title>
<path fill="none" stroke="midnightblue" d="M770.56,-168.08C765.52,-160.53 758.16,-149.49 751.99,-140.23"/>
<polygon fill="midnightblue" stroke="midnightblue" points="754.79,-138.13 746.33,-131.75 748.97,-142.01 754.79,-138.13"/>
</g>
<!-- Node3&#45;&gt;Node9 -->
<g id="edge8" class="edge">
<title>Node3&#45;&gt;Node9</title>
<path fill="none" stroke="midnightblue" d="M727.81,-168.89C676.88,-160.37 594.35,-146.44 513.46,-132.15"/>
<polygon fill="midnightblue" stroke="midnightblue" points="514.06,-128.7 503.6,-130.41 512.84,-135.6 514.06,-128.7"/>
</g>
<!-- Node22 -->
<g id="node22" class="node">
<title>Node22</title>
<g id="a_node22"><a xlink:title=" ">
<polygon fill="none" stroke="#bfbfbf" points="786,-112.5 786,-131.5 841,-131.5 841,-112.5 786,-112.5"/>
<text text-anchor="middle" x="813.5" y="-119.5" font-family="Helvetica,sans-Serif" font-size="10.00">fstream</text>
</a>
</g>
</g>
<!-- Node3&#45;&gt;Node22 -->
<g id="edge23" class="edge">
<title>Node3&#45;&gt;Node22</title>
<path fill="none" stroke="midnightblue" d="M782.61,-168.08C787.78,-160.53 795.35,-149.49 801.69,-140.23"/>
<polygon fill="midnightblue" stroke="midnightblue" points="804.74,-141.98 807.5,-131.75 798.96,-138.02 804.74,-141.98"/>
</g>
<!-- Node3&#45;&gt;Node23 -->
<g id="edge24" class="edge">
<title>Node3&#45;&gt;Node23</title>
<path fill="none" stroke="midnightblue" d="M825.37,-168.79C873.15,-160.6 948.19,-147.34 1023.06,-132.01"/>
<polygon fill="midnightblue" stroke="midnightblue" points="1024.06,-135.38 1033.14,-129.93 1022.64,-128.52 1024.06,-135.38"/>
</g>
<!-- Node24 -->
<g id="node24" class="node">
<title>Node24</title>
<g id="a_node24"><a xlink:title=" ">
<polygon fill="none" stroke="#bfbfbf" points="521.5,-112.5 521.5,-131.5 553.5,-131.5 553.5,-112.5 521.5,-112.5"/>
<text text-anchor="middle" x="537.5" y="-119.5" font-family="Helvetica,sans-Serif" font-size="10.00">set</text>
</a>
</g>
</g>
<!-- Node3&#45;&gt;Node24 -->
<g id="edge25" class="edge">
<title>Node3&#45;&gt;Node24</title>
<path fill="none" stroke="midnightblue" d="M727.59,-168.71C686.13,-161.23 624.98,-149.16 563.41,-131.95"/>
<polygon fill="midnightblue" stroke="midnightblue" points="564.11,-128.51 553.53,-129.14 562.2,-135.24 564.11,-128.51"/>
</g>
<!-- Node25 -->
<g id="node25" class="node">
<title>Node25</title>
<g id="a_node25"><a xlink:title=" ">
<polygon fill="none" stroke="#bfbfbf" points="571.5,-112.5 571.5,-131.5 657.5,-131.5 657.5,-112.5 571.5,-112.5"/>
<text text-anchor="middle" x="614.5" y="-119.5" font-family="Helvetica,sans-Serif" font-size="10.00">unordered_set</text>
</a>
</g>
</g>
<!-- Node3&#45;&gt;Node25 -->
<g id="edge27" class="edge">
<title>Node3&#45;&gt;Node25</title>
<path fill="none" stroke="midnightblue" d="M750.83,-168.44C723.58,-159.36 680.32,-144.94 649.85,-134.78"/>
<polygon fill="midnightblue" stroke="midnightblue" points="650.64,-131.36 640.05,-131.52 648.43,-138 650.64,-131.36"/>
</g>
<!-- Node3&#45;&gt;Node26 -->
<g id="edge28" class="edge">
<title>Node3&#45;&gt;Node26</title>
<path fill="none" stroke="midnightblue" d="M812.14,-168.46C846.86,-160.07 901.41,-146.74 957.9,-132.11"/>
<polygon fill="midnightblue" stroke="midnightblue" points="958.93,-135.46 967.73,-129.56 957.17,-128.68 958.93,-135.46"/>
</g>
<!-- Node5 -->
<g id="node5" class="node">
<title>Node5</title>
<g id="a_node5"><a xlink:title=" ">
<polygon fill="none" stroke="#bfbfbf" points="946.5,-56.5 946.5,-75.5 984.5,-75.5 984.5,-56.5 946.5,-56.5"/>
<text text-anchor="middle" x="965.5" y="-63.5" font-family="Helvetica,sans-Serif" font-size="10.00">map</text>
</a>
</g>
</g>
<!-- Node4&#45;&gt;Node5 -->
<g id="edge4" class="edge">
<title>Node4&#45;&gt;Node5</title>
<path fill="none" stroke="midnightblue" d="M914.3,-112.32C923.32,-104.34 936.91,-92.31 947.82,-82.65"/>
<polygon fill="midnightblue" stroke="midnightblue" points="950.35,-85.08 955.52,-75.83 945.71,-79.84 950.35,-85.08"/>
</g>
<!-- Node6 -->
<g id="node6" class="node">
<title>Node6</title>
<g id="a_node6"><a xlink:title=" ">
<polygon fill="none" stroke="#bfbfbf" points="872.5,-56.5 872.5,-75.5 928.5,-75.5 928.5,-56.5 872.5,-56.5"/>
<text text-anchor="middle" x="900.5" y="-63.5" font-family="Helvetica,sans-Serif" font-size="10.00">sstream</text>
</a>
</g>
</g>
<!-- Node4&#45;&gt;Node6 -->
<g id="edge5" class="edge">
<title>Node4&#45;&gt;Node6</title>
<path fill="none" stroke="midnightblue" d="M903.84,-112.08C903.32,-105.01 902.56,-94.86 901.91,-85.99"/>
<polygon fill="midnightblue" stroke="midnightblue" points="905.38,-85.47 901.15,-75.75 898.4,-85.98 905.38,-85.47"/>
</g>
<!-- Node4&#45;&gt;Node7 -->
<g id="edge6" class="edge">
<title>Node4&#45;&gt;Node7</title>
<path fill="none" stroke="midnightblue" d="M878.83,-112.44C850.54,-103.01 804.98,-87.83 774.41,-77.64"/>
<polygon fill="midnightblue" stroke="midnightblue" points="775.26,-74.23 764.67,-74.39 773.05,-80.87 775.26,-74.23"/>
</g>
<!-- Node9&#45;&gt;Node7 -->
<g id="edge20" class="edge">
<title>Node9&#45;&gt;Node7</title>
<path fill="none" stroke="midnightblue" d="M503.61,-113.62C506.62,-113.07 509.61,-112.53 512.5,-112 597.81,-96.45 622.3,-96.53 710.34,-76.09"/>
<polygon fill="midnightblue" stroke="midnightblue" points="711.29,-79.46 720.22,-73.77 709.69,-72.64 711.29,-79.46"/>
</g>
<!-- Node9&#45;&gt;Node10 -->
<g id="edge9" class="edge">
<title>Node9&#45;&gt;Node10</title>
<path fill="none" stroke="midnightblue" d="M432.44,-112.44C398.5,-103.09 344.04,-88.09 307.06,-77.9"/>
<polygon fill="midnightblue" stroke="midnightblue" points="307.7,-74.44 297.13,-75.16 305.84,-81.19 307.7,-74.44"/>
</g>
<!-- Node12 -->
<g id="node12" class="node">
<title>Node12</title>
<g id="a_node12"><a xlink:title=" ">
<polygon fill="none" stroke="#bfbfbf" points="476.5,-0.5 476.5,-19.5 518.5,-19.5 518.5,-0.5 476.5,-0.5"/>
<text text-anchor="middle" x="497.5" y="-7.5" font-family="Helvetica,sans-Serif" font-size="10.00">array</text>
</a>
</g>
</g>
<!-- Node9&#45;&gt;Node12 -->
<g id="edge17" class="edge">
<title>Node9&#45;&gt;Node12</title>
<path fill="none" stroke="midnightblue" d="M466.17,-112.37C471.68,-94.54 484.43,-53.3 491.85,-29.27"/>
<polygon fill="midnightblue" stroke="midnightblue" points="495.24,-30.18 494.84,-19.59 488.55,-28.11 495.24,-30.18"/>
</g>
<!-- Node9&#45;&gt;Node18 -->
<g id="edge18" class="edge">
<title>Node9&#45;&gt;Node18</title>
<path fill="none" stroke="midnightblue" d="M503.59,-113.49C506.6,-112.97 509.6,-112.47 512.5,-112 628.11,-93.42 657.89,-94.58 773.5,-76 778.37,-75.22 783.5,-74.34 788.53,-73.44"/>
<polygon fill="midnightblue" stroke="midnightblue" points="789.4,-76.84 798.61,-71.61 788.15,-69.95 789.4,-76.84"/>
</g>
<!-- Node19 -->
<g id="node19" class="node">
<title>Node19</title>
<g id="a_node19"><a xlink:title=" ">
<polygon fill="none" stroke="#bfbfbf" points="642.5,-56.5 642.5,-75.5 702.5,-75.5 702.5,-56.5 642.5,-56.5"/>
<text text-anchor="middle" x="672.5" y="-63.5" font-family="Helvetica,sans-Serif" font-size="10.00">iostream</text>
</a>
</g>
</g>
<!-- Node9&#45;&gt;Node19 -->
<g id="edge19" class="edge">
<title>Node9&#45;&gt;Node19</title>
<path fill="none" stroke="midnightblue" d="M496.62,-112.44C533.46,-102.92 593,-87.54 632.44,-77.35"/>
<polygon fill="midnightblue" stroke="midnightblue" points="633.45,-80.71 642.25,-74.82 631.7,-73.93 633.45,-80.71"/>
</g>
<!-- Node20 -->
<g id="node20" class="node">
<title>Node20</title>
<g id="a_node20"><a xlink:title=" ">
<polygon fill="none" stroke="#bfbfbf" points="315,-56.5 315,-75.5 440,-75.5 440,-56.5 315,-56.5"/>
<text text-anchor="middle" x="377.5" y="-63.5" font-family="Helvetica,sans-Serif" font-size="10.00">cereal/types/array.hpp</text>
</a>
</g>
</g>
<!-- Node9&#45;&gt;Node20 -->
<g id="edge21" class="edge">
<title>Node9&#45;&gt;Node20</title>
<path fill="none" stroke="midnightblue" d="M449.68,-112.32C436.27,-103.9 415.68,-90.97 399.91,-81.07"/>
<polygon fill="midnightblue" stroke="midnightblue" points="401.61,-78.01 391.28,-75.65 397.89,-83.94 401.61,-78.01"/>
</g>
<!-- Node21 -->
<g id="node21" class="node">
<title>Node21</title>
<g id="a_node21"><a xlink:title=" ">
<polygon fill="none" stroke="#bfbfbf" points="496.5,-56.5 496.5,-75.5 624.5,-75.5 624.5,-56.5 496.5,-56.5"/>
<text text-anchor="middle" x="560.5" y="-63.5" font-family="Helvetica,sans-Serif" font-size="10.00">cereal/types/string.hpp</text>
</a>
</g>
</g>
<!-- Node9&#45;&gt;Node21 -->
<g id="edge22" class="edge">
<title>Node9&#45;&gt;Node21</title>
<path fill="none" stroke="midnightblue" d="M479.08,-112.32C494.5,-103.74 518.31,-90.49 536.21,-80.52"/>
<polygon fill="midnightblue" stroke="midnightblue" points="537.92,-83.58 544.95,-75.65 534.51,-77.46 537.92,-83.58"/>
</g>
<!-- Node11 -->
<g id="node11" class="node">
<title>Node11</title>
<g id="a_node11"><a xlink:title=" ">
<polygon fill="none" stroke="#bfbfbf" points="394.5,-0.5 394.5,-19.5 458.5,-19.5 458.5,-0.5 394.5,-0.5"/>
<text text-anchor="middle" x="426.5" y="-7.5" font-family="Helvetica,sans-Serif" font-size="10.00">algorithm</text>
</a>
</g>
</g>
<!-- Node10&#45;&gt;Node11 -->
<g id="edge10" class="edge">
<title>Node10&#45;&gt;Node11</title>
<path fill="none" stroke="midnightblue" d="M292.69,-56.44C319.44,-47.36 361.9,-32.94 391.81,-22.78"/>
<polygon fill="midnightblue" stroke="midnightblue" points="393.08,-26.05 401.42,-19.52 390.83,-19.42 393.08,-26.05"/>
</g>
<!-- Node10&#45;&gt;Node12 -->
<g id="edge11" class="edge">
<title>Node10&#45;&gt;Node12</title>
<path fill="none" stroke="midnightblue" d="M297.36,-57.89C300.11,-57.24 302.86,-56.61 305.5,-56 374.3,-40.21 394.42,-38.71 466.25,-20.19"/>
<polygon fill="midnightblue" stroke="midnightblue" points="467.45,-23.49 476.25,-17.58 465.69,-16.72 467.45,-23.49"/>
</g>
<!-- Node13 -->
<g id="node13" class="node">
<title>Node13</title>
<g id="a_node13"><a xlink:title=" ">
<polygon fill="none" stroke="#bfbfbf" points="0,-0.5 0,-19.5 59,-19.5 59,-0.5 0,-0.5"/>
<text text-anchor="middle" x="29.5" y="-7.5" font-family="Helvetica,sans-Serif" font-size="10.00">complex</text>
</a>
</g>
</g>
<!-- Node10&#45;&gt;Node13 -->
<g id="edge12" class="edge">
<title>Node10&#45;&gt;Node13</title>
<path fill="none" stroke="midnightblue" d="M237.99,-58.47C200.86,-50.23 134.86,-35.5 69.43,-20.43"/>
<polygon fill="midnightblue" stroke="midnightblue" points="69.89,-16.94 59.36,-18.11 68.32,-23.77 69.89,-16.94"/>
</g>
<!-- Node14 -->
<g id="node14" class="node">
<title>Node14</title>
<g id="a_node14"><a xlink:title=" ">
<polygon fill="none" stroke="#bfbfbf" points="77,-0.5 77,-19.5 142,-19.5 142,-0.5 77,-0.5"/>
<text text-anchor="middle" x="109.5" y="-7.5" font-family="Helvetica,sans-Serif" font-size="10.00">functional</text>
</a>
</g>
</g>
<!-- Node10&#45;&gt;Node14 -->
<g id="edge13" class="edge">
<title>Node10&#45;&gt;Node14</title>
<path fill="none" stroke="midnightblue" d="M242.46,-56.44C215.88,-47.36 173.69,-32.94 143.98,-22.78"/>
<polygon fill="midnightblue" stroke="midnightblue" points="145.01,-19.44 134.42,-19.52 142.75,-26.06 145.01,-19.44"/>
</g>
<!-- Node15 -->
<g id="node15" class="node">
<title>Node15</title>
<g id="a_node15"><a xlink:title=" ">
<polygon fill="none" stroke="#bfbfbf" points="160.5,-0.5 160.5,-19.5 214.5,-19.5 214.5,-0.5 160.5,-0.5"/>
<text text-anchor="middle" x="187.5" y="-7.5" font-family="Helvetica,sans-Serif" font-size="10.00">random</text>
</a>
</g>
</g>
<!-- Node10&#45;&gt;Node15 -->
<g id="edge14" class="edge">
<title>Node10&#45;&gt;Node15</title>
<path fill="none" stroke="midnightblue" d="M254.65,-56.32C242.28,-47.98 223.37,-35.21 208.76,-25.35"/>
<polygon fill="midnightblue" stroke="midnightblue" points="210.57,-22.35 200.32,-19.65 206.65,-28.15 210.57,-22.35"/>
</g>
<!-- Node16 -->
<g id="node16" class="node">
<title>Node16</title>
<g id="a_node16"><a xlink:title=" ">
<polygon fill="none" stroke="#bfbfbf" points="233,-0.5 233,-19.5 302,-19.5 302,-0.5 233,-0.5"/>
<text text-anchor="middle" x="267.5" y="-7.5" font-family="Helvetica,sans-Serif" font-size="10.00">type_traits</text>
</a>
</g>
</g>
<!-- Node10&#45;&gt;Node16 -->
<g id="edge15" class="edge">
<title>Node10&#45;&gt;Node16</title>
<path fill="none" stroke="midnightblue" d="M267.5,-56.08C267.5,-49.01 267.5,-38.86 267.5,-29.99"/>
<polygon fill="midnightblue" stroke="midnightblue" points="271,-29.75 267.5,-19.75 264,-29.75 271,-29.75"/>
</g>
<!-- Node17 -->
<g id="node17" class="node">
<title>Node17</title>
<g id="a_node17"><a xlink:title=" ">
<polygon fill="none" stroke="#bfbfbf" points="320.5,-0.5 320.5,-19.5 376.5,-19.5 376.5,-0.5 320.5,-0.5"/>
<text text-anchor="middle" x="348.5" y="-7.5" font-family="Helvetica,sans-Serif" font-size="10.00">unistd.h</text>
</a>
</g>
</g>
<!-- Node10&#45;&gt;Node17 -->
<g id="edge16" class="edge">
<title>Node10&#45;&gt;Node17</title>
<path fill="none" stroke="midnightblue" d="M280.51,-56.32C293.03,-47.98 312.18,-35.21 326.97,-25.35"/>
<polygon fill="midnightblue" stroke="midnightblue" points="329.14,-28.11 335.52,-19.65 325.26,-22.29 329.14,-28.11"/>
</g>
<!-- Node27&#45;&gt;Node23 -->
<g id="edge31" class="edge">
<title>Node27&#45;&gt;Node23</title>
<path fill="none" stroke="midnightblue" d="M1189.57,-168.44C1164.28,-159.4 1124.2,-145.06 1095.82,-134.92"/>
<polygon fill="midnightblue" stroke="midnightblue" points="1096.91,-131.59 1086.31,-131.52 1094.55,-138.18 1096.91,-131.59"/>
</g>
<!-- Node27&#45;&gt;Node26 -->
<g id="edge35" class="edge">
<title>Node27&#45;&gt;Node26</title>
<path fill="none" stroke="midnightblue" d="M1176.12,-168.48C1139.94,-160.14 1083.32,-146.89 1025.02,-132.07"/>
<polygon fill="midnightblue" stroke="midnightblue" points="1025.82,-128.66 1015.27,-129.58 1024.09,-135.45 1025.82,-128.66"/>
</g>
<!-- Node28 -->
<g id="node28" class="node">
<title>Node28</title>
<g id="a_node28"><a xlink:title=" ">
<polygon fill="none" stroke="#bfbfbf" points="1110,-112.5 1110,-131.5 1163,-131.5 1163,-112.5 1110,-112.5"/>
<text text-anchor="middle" x="1136.5" y="-119.5" font-family="Helvetica,sans-Serif" font-size="10.00">iterator</text>
</a>
</g>
</g>
<!-- Node27&#45;&gt;Node28 -->
<g id="edge30" class="edge">
<title>Node27&#45;&gt;Node28</title>
<path fill="none" stroke="midnightblue" d="M1201.13,-168.32C1189.34,-160.06 1171.37,-147.45 1157.36,-137.63"/>
<polygon fill="midnightblue" stroke="midnightblue" points="1159.04,-134.53 1148.84,-131.65 1155.02,-140.26 1159.04,-134.53"/>
</g>
<!-- Node29 -->
<g id="node29" class="node">
<title>Node29</title>
<g id="a_node29"><a xlink:title=" ">
<polygon fill="none" stroke="#bfbfbf" points="1181,-112.5 1181,-131.5 1246,-131.5 1246,-112.5 1181,-112.5"/>
<text text-anchor="middle" x="1213.5" y="-119.5" font-family="Helvetica,sans-Serif" font-size="10.00">typeindex</text>
</a>
</g>
</g>
<!-- Node27&#45;&gt;Node29 -->
<g id="edge32" class="edge">
<title>Node27&#45;&gt;Node29</title>
<path fill="none" stroke="midnightblue" d="M1213.5,-168.08C1213.5,-161.01 1213.5,-150.86 1213.5,-141.99"/>
<polygon fill="midnightblue" stroke="midnightblue" points="1217,-141.75 1213.5,-131.75 1210,-141.75 1217,-141.75"/>
</g>
<!-- Node30 -->
<g id="node30" class="node">
<title>Node30</title>
<g id="a_node30"><a xlink:title=" ">
<polygon fill="none" stroke="#bfbfbf" points="1264,-112.5 1264,-131.5 1321,-131.5 1321,-112.5 1264,-112.5"/>
<text text-anchor="middle" x="1292.5" y="-119.5" font-family="Helvetica,sans-Serif" font-size="10.00">typeinfo</text>
</a>
</g>
</g>
<!-- Node27&#45;&gt;Node30 -->
<g id="edge33" class="edge">
<title>Node27&#45;&gt;Node30</title>
<path fill="none" stroke="midnightblue" d="M1226.19,-168.32C1238.4,-159.98 1257.08,-147.21 1271.5,-137.35"/>
<polygon fill="midnightblue" stroke="midnightblue" points="1273.56,-140.19 1279.84,-131.65 1269.61,-134.41 1273.56,-140.19"/>
</g>
<!-- Node31 -->
<g id="node31" class="node">
<title>Node31</title>
<g id="a_node31"><a xlink:title=" ">
<polygon fill="none" stroke="#bfbfbf" points="1339,-112.5 1339,-131.5 1432,-131.5 1432,-112.5 1339,-112.5"/>
<text text-anchor="middle" x="1385.5" y="-119.5" font-family="Helvetica,sans-Serif" font-size="10.00">unordered_map</text>
</a>
</g>
</g>
<!-- Node27&#45;&gt;Node31 -->
<g id="edge34" class="edge">
<title>Node27&#45;&gt;Node31</title>
<path fill="none" stroke="midnightblue" d="M1240.75,-168.44C1269.94,-159.28 1316.42,-144.69 1348.81,-134.52"/>
<polygon fill="midnightblue" stroke="midnightblue" points="1349.88,-137.85 1358.37,-131.52 1347.78,-131.17 1349.88,-137.85"/>
</g>
<!-- Node32&#45;&gt;Node12 -->
<g id="edge38" class="edge">
<title>Node32&#45;&gt;Node12</title>
<path fill="none" stroke="midnightblue" d="M1478.62,-168.49C1519.25,-158.3 1572.04,-139.15 1547.5,-112 1477.35,-34.4 696.01,-14.86 528.85,-11.56"/>
<polygon fill="midnightblue" stroke="midnightblue" points="528.81,-8.06 518.75,-11.37 528.68,-15.06 528.81,-8.06"/>
</g>
<!-- Node33 -->
<g id="node33" class="node">
<title>Node33</title>
<g id="a_node33"><a xlink:title=" ">
<polygon fill="none" stroke="#bfbfbf" points="1488.5,-112.5 1488.5,-131.5 1538.5,-131.5 1538.5,-112.5 1488.5,-112.5"/>
<text text-anchor="middle" x="1513.5" y="-119.5" font-family="Helvetica,sans-Serif" font-size="10.00">climits</text>
</a>
</g>
</g>
<!-- Node32&#45;&gt;Node33 -->
<g id="edge39" class="edge">
<title>Node32&#45;&gt;Node33</title>
<path fill="none" stroke="midnightblue" d="M1449.71,-168.32C1461.28,-160.11 1478.88,-147.6 1492.66,-137.81"/>
<polygon fill="midnightblue" stroke="midnightblue" points="1494.94,-140.48 1501.07,-131.83 1490.89,-134.77 1494.94,-140.48"/>
</g>
<!-- Node34&#45;&gt;Node35 -->
<g id="edge42" class="edge">
<title>Node34&#45;&gt;Node35</title>
<path fill="none" stroke="midnightblue" d="M1976.11,-168.08C1981.76,-160.46 1990.04,-149.26 1996.95,-139.94"/>
<polygon fill="midnightblue" stroke="midnightblue" points="1999.88,-141.87 2003.02,-131.75 1994.25,-137.7 1999.88,-141.87"/>
</g>
</g>
</svg>
