<?xml version="1.0" encoding="UTF-8" standalone="no"?>
<!DOCTYPE svg PUBLIC "-//W3C//DTD SVG 1.1//EN"
 "http://www.w3.org/Graphics/SVG/1.1/DTD/svg11.dtd">
<!-- Generated by graphviz version 2.43.0 (0)
 -->
<!-- Title: /__w/pairinteraction/pairinteraction/pairinteraction/Hamiltonianmatrix.hpp Pages: 1 -->
<!--zoomable 274 -->
<svg id="main" version="1.1" xmlns="http://www.w3.org/2000/svg" xmlns:xlink="http://www.w3.org/1999/xlink" xml:space="preserve" onload="init(evt)">
<style type="text/css"><![CDATA[
.edge:hover path { stroke: red; }
.edge:hover polygon { stroke: red; fill: red; }
]]></style>
<script type="text/javascript"><![CDATA[
var edges = document.getElementsByTagName('g');
if (edges && edges.length) {
  for (var i=0;i<edges.length;i++) {
    if (edges[i].id.substr(0,4)=='edge') {
      edges[i].setAttribute('class','edge');
    }
  }
}
]]></script>
        <defs>
                <circle id="rim" cx="0" cy="0" r="7"/>
                <circle id="rim2" cx="0" cy="0" r="3.5"/>
                <g id="zoomPlus">
                        <use xlink:href="#rim" fill="#404040">
                                <set attributeName="fill" to="#808080" begin="zoomplus.mouseover" end="zoomplus.mouseout"/>
                        </use>
                        <path d="M-4,0h8M0,-4v8" fill="none" stroke="white" stroke-width="1.5" pointer-events="none"/>
                </g>
                <g id="zoomMin">
                        <use xlink:href="#rim" fill="#404040">
                                <set attributeName="fill" to="#808080" begin="zoomminus.mouseover" end="zoomminus.mouseout"/>
                        </use>
                        <path d="M-4,0h8" fill="none" stroke="white" stroke-width="1.5" pointer-events="none"/>
                </g>
                <g id="dirArrow">
                        <path fill="none" stroke="white" stroke-width="1.5" d="M0,-3.0v7 M-2.5,-0.5L0,-3.0L2.5,-0.5"/>
                </g>
               <g id="resetDef">
                       <use xlink:href="#rim2" fill="#404040">
                               <set attributeName="fill" to="#808080" begin="reset.mouseover" end="reset.mouseout"/>
                       </use>
               </g>
        </defs>

<script type="text/javascript">
var viewWidth = 1961;
var viewHeight = 274;
var sectionId = 'dynsection-0';
</script>
<script xlink:href="svgpan.js"/>
<svg id="graph" class="graph">
<g id="viewport">
<title>/__w/pairinteraction/pairinteraction/pairinteraction/Hamiltonianmatrix.hpp</title>
<!-- Node1 -->
<g id="node1" class="node">
<title>Node1</title>
<g id="a_node1"><a xlink:title=" ">
<polygon fill="#bfbfbf" stroke="black" points="1245,-224.5 1245,-265.5 1410,-265.5 1410,-224.5 1245,-224.5"/>
<text text-anchor="start" x="1253" y="-253.5" font-family="Helvetica,sans-Serif" font-size="10.00">/__w/pairinteraction</text>
<text text-anchor="start" x="1253" y="-242.5" font-family="Helvetica,sans-Serif" font-size="10.00">/pairinteraction/pairinteraction</text>
<text text-anchor="middle" x="1327.5" y="-231.5" font-family="Helvetica,sans-Serif" font-size="10.00">/Hamiltonianmatrix.hpp</text>
</a>
</g>
</g>
<!-- Node2 -->
<g id="node2" class="node">
<title>Node2</title>
<g id="a_node2"><a xlink:href="Basisnames_8hpp.html" target="_top" xlink:title=" ">
<polygon fill="none" stroke="black" points="1027,-168.5 1027,-187.5 1124,-187.5 1124,-168.5 1027,-168.5"/>
<text text-anchor="middle" x="1075.5" y="-175.5" font-family="Helvetica,sans-Serif" font-size="10.00">Basisnames.hpp</text>
</a>
</g>
</g>
<!-- Node1&#45;&gt;Node2 -->
<g id="edge1" class="edge">
<title>Node1&#45;&gt;Node2</title>
<path fill="none" stroke="midnightblue" d="M1251.89,-224.5C1208.29,-213.25 1155.06,-199.52 1118.55,-190.1"/>
<polygon fill="midnightblue" stroke="midnightblue" points="1119.27,-186.68 1108.71,-187.57 1117.52,-193.45 1119.27,-186.68"/>
</g>
<!-- Node8 -->
<g id="node8" class="node">
<title>Node8</title>
<g id="a_node8"><a xlink:href="StateOld_8hpp.html" target="_top" xlink:title=" ">
<polygon fill="none" stroke="black" points="660.5,-112.5 660.5,-131.5 740.5,-131.5 740.5,-112.5 660.5,-112.5"/>
<text text-anchor="middle" x="700.5" y="-119.5" font-family="Helvetica,sans-Serif" font-size="10.00">StateOld.hpp</text>
</a>
</g>
</g>
<!-- Node1&#45;&gt;Node8 -->
<g id="edge35" class="edge">
<title>Node1&#45;&gt;Node8</title>
<path fill="none" stroke="midnightblue" d="M1244.99,-243.56C1107.26,-241.57 837.46,-231.98 754.5,-188 734.51,-177.4 719.01,-155.98 709.84,-140.63"/>
<polygon fill="midnightblue" stroke="midnightblue" points="712.71,-138.58 704.75,-131.59 706.61,-142.02 712.71,-138.58"/>
</g>
<!-- Node9 -->
<g id="node9" class="node">
<title>Node9</title>
<g id="a_node9"><a xlink:href="utils_8hpp.html" target="_top" xlink:title=" ">
<polygon fill="none" stroke="black" points="242,-56.5 242,-75.5 301,-75.5 301,-56.5 242,-56.5"/>
<text text-anchor="middle" x="271.5" y="-63.5" font-family="Helvetica,sans-Serif" font-size="10.00">utils.hpp</text>
</a>
</g>
</g>
<!-- Node1&#45;&gt;Node9 -->
<g id="edge39" class="edge">
<title>Node1&#45;&gt;Node9</title>
<path fill="none" stroke="midnightblue" d="M1244.87,-243.88C1015.16,-242.94 380.58,-235.98 300.5,-188 275.52,-173.03 274.35,-160.04 266.5,-132 262.21,-116.67 264.14,-98.57 266.76,-85.37"/>
<polygon fill="midnightblue" stroke="midnightblue" points="270.17,-86.13 268.99,-75.6 263.35,-84.57 270.17,-86.13"/>
</g>
<!-- Node17 -->
<g id="node17" class="node">
<title>Node17</title>
<g id="a_node17"><a xlink:title=" ">
<polygon fill="none" stroke="#bfbfbf" points="787,-56.5 787,-75.5 834,-75.5 834,-56.5 787,-56.5"/>
<text text-anchor="middle" x="810.5" y="-63.5" font-family="Helvetica,sans-Serif" font-size="10.00">cmath</text>
</a>
</g>
</g>
<!-- Node1&#45;&gt;Node17 -->
<g id="edge43" class="edge">
<title>Node1&#45;&gt;Node17</title>
<path fill="none" stroke="midnightblue" d="M1244.87,-237.77C1114.87,-226.11 871.79,-196.13 817.5,-132 806.85,-119.42 806.03,-100.21 807.31,-85.92"/>
<polygon fill="midnightblue" stroke="midnightblue" points="810.82,-86.12 808.65,-75.75 803.88,-85.21 810.82,-86.12"/>
</g>
<!-- Node22 -->
<g id="node22" class="node">
<title>Node22</title>
<g id="a_node22"><a xlink:title=" ">
<polygon fill="none" stroke="#bfbfbf" points="1244.5,-112.5 1244.5,-131.5 1302.5,-131.5 1302.5,-112.5 1244.5,-112.5"/>
<text text-anchor="middle" x="1273.5" y="-119.5" font-family="Helvetica,sans-Serif" font-size="10.00">memory</text>
</a>
</g>
</g>
<!-- Node1&#45;&gt;Node22 -->
<g id="edge47" class="edge">
<title>Node1&#45;&gt;Node22</title>
<path fill="none" stroke="midnightblue" d="M1318.7,-224.29C1308.38,-201.17 1291.42,-163.16 1281.47,-140.86"/>
<polygon fill="midnightblue" stroke="midnightblue" points="1284.6,-139.28 1277.33,-131.57 1278.21,-142.13 1284.6,-139.28"/>
</g>
<!-- Node25 -->
<g id="node25" class="node">
<title>Node25</title>
<g id="a_node25"><a xlink:title=" ">
<polygon fill="none" stroke="#bfbfbf" points="1321,-112.5 1321,-131.5 1368,-131.5 1368,-112.5 1321,-112.5"/>
<text text-anchor="middle" x="1344.5" y="-119.5" font-family="Helvetica,sans-Serif" font-size="10.00">vector</text>
</a>
</g>
</g>
<!-- Node1&#45;&gt;Node25 -->
<g id="edge49" class="edge">
<title>Node1&#45;&gt;Node25</title>
<path fill="none" stroke="midnightblue" d="M1316.83,-224.33C1309.83,-208.81 1303.08,-186.73 1309.5,-168 1313.22,-157.16 1320.73,-146.92 1327.85,-138.96"/>
<polygon fill="midnightblue" stroke="midnightblue" points="1330.55,-141.19 1334.94,-131.55 1325.5,-136.35 1330.55,-141.19"/>
</g>
<!-- Node26 -->
<g id="node26" class="node">
<title>Node26</title>
<g id="a_node26"><a xlink:href="Serializable_8hpp.html" target="_top" xlink:title=" ">
<polygon fill="none" stroke="black" points="1318,-168.5 1318,-187.5 1413,-187.5 1413,-168.5 1318,-168.5"/>
<text text-anchor="middle" x="1365.5" y="-175.5" font-family="Helvetica,sans-Serif" font-size="10.00">Serializable.hpp</text>
</a>
</g>
</g>
<!-- Node1&#45;&gt;Node26 -->
<g id="edge28" class="edge">
<title>Node1&#45;&gt;Node26</title>
<path fill="none" stroke="midnightblue" d="M1338.9,-224.5C1344.11,-215.59 1350.23,-205.11 1355.29,-196.46"/>
<polygon fill="midnightblue" stroke="midnightblue" points="1358.42,-198.05 1360.44,-187.65 1352.37,-194.52 1358.42,-198.05"/>
</g>
<!-- Node31 -->
<g id="node31" class="node">
<title>Node31</title>
<g id="a_node31"><a xlink:href="Symmetry_8hpp.html" target="_top" xlink:title=" ">
<polygon fill="none" stroke="black" points="310,-168.5 310,-187.5 397,-187.5 397,-168.5 310,-168.5"/>
<text text-anchor="middle" x="353.5" y="-175.5" font-family="Helvetica,sans-Serif" font-size="10.00">Symmetry.hpp</text>
</a>
</g>
</g>
<!-- Node1&#45;&gt;Node31 -->
<g id="edge36" class="edge">
<title>Node1&#45;&gt;Node31</title>
<path fill="none" stroke="midnightblue" d="M1244.88,-238.49C1050.6,-225.52 568.99,-193.38 407.37,-182.59"/>
<polygon fill="midnightblue" stroke="midnightblue" points="407.4,-179.09 397.19,-181.92 406.94,-186.07 407.4,-179.09"/>
</g>
<!-- Node33 -->
<g id="node33" class="node">
<title>Node33</title>
<g id="a_node33"><a xlink:href="EigenCompat_8hpp.html" target="_top" xlink:title=" ">
<polygon fill="none" stroke="black" points="1431,-168.5 1431,-187.5 1534,-187.5 1534,-168.5 1431,-168.5"/>
<text text-anchor="middle" x="1482.5" y="-175.5" font-family="Helvetica,sans-Serif" font-size="10.00">EigenCompat.hpp</text>
</a>
</g>
</g>
<!-- Node1&#45;&gt;Node33 -->
<g id="edge40" class="edge">
<title>Node1&#45;&gt;Node33</title>
<path fill="none" stroke="midnightblue" d="M1374.01,-224.5C1399.48,-213.81 1430.31,-200.89 1452.59,-191.54"/>
<polygon fill="midnightblue" stroke="midnightblue" points="1454,-194.75 1461.87,-187.65 1451.29,-188.29 1454,-194.75"/>
</g>
<!-- Node35 -->
<g id="node35" class="node">
<title>Node35</title>
<g id="a_node35"><a xlink:title=" ">
<polygon fill="none" stroke="#bfbfbf" points="1552.5,-168.5 1552.5,-187.5 1654.5,-187.5 1654.5,-168.5 1552.5,-168.5"/>
<text text-anchor="middle" x="1603.5" y="-175.5" font-family="Helvetica,sans-Serif" font-size="10.00">Eigen/SparseCore</text>
</a>
</g>
</g>
<!-- Node1&#45;&gt;Node35 -->
<g id="edge42" class="edge">
<title>Node1&#45;&gt;Node35</title>
<path fill="none" stroke="midnightblue" d="M1410.31,-224.5C1458.47,-213.16 1517.36,-199.29 1557.38,-189.86"/>
<polygon fill="midnightblue" stroke="midnightblue" points="1558.19,-193.27 1567.12,-187.57 1556.59,-186.45 1558.19,-193.27"/>
</g>
<!-- Node36 -->
<g id="node36" class="node">
<title>Node36</title>
<g id="a_node36"><a xlink:title=" ">
<polygon fill="none" stroke="#bfbfbf" points="1672.5,-168.5 1672.5,-187.5 1722.5,-187.5 1722.5,-168.5 1672.5,-168.5"/>
<text text-anchor="middle" x="1697.5" y="-175.5" font-family="Helvetica,sans-Serif" font-size="10.00">cstdint</text>
</a>
</g>
</g>
<!-- Node1&#45;&gt;Node36 -->
<g id="edge44" class="edge">
<title>Node1&#45;&gt;Node36</title>
<path fill="none" stroke="midnightblue" d="M1410.07,-232.44C1475.93,-222.71 1570.7,-207.58 1662.31,-188.1"/>
<polygon fill="midnightblue" stroke="midnightblue" points="1663.27,-191.47 1672.31,-185.95 1661.8,-184.63 1663.27,-191.47"/>
</g>
<!-- Node37 -->
<g id="node37" class="node">
<title>Node37</title>
<g id="a_node37"><a xlink:title=" ">
<polygon fill="none" stroke="#bfbfbf" points="1740.5,-168.5 1740.5,-187.5 1786.5,-187.5 1786.5,-168.5 1740.5,-168.5"/>
<text text-anchor="middle" x="1763.5" y="-175.5" font-family="Helvetica,sans-Serif" font-size="10.00">cstdio</text>
</a>
</g>
</g>
<!-- Node1&#45;&gt;Node37 -->
<g id="edge45" class="edge">
<title>Node1&#45;&gt;Node37</title>
<path fill="none" stroke="midnightblue" d="M1410.08,-235.89C1489.81,-227.3 1614.01,-211.93 1730.05,-188.07"/>
<polygon fill="midnightblue" stroke="midnightblue" points="1731.1,-191.42 1740.17,-185.96 1729.67,-184.57 1731.1,-191.42"/>
</g>
<!-- Node38 -->
<g id="node38" class="node">
<title>Node38</title>
<g id="a_node38"><a xlink:title=" ">
<polygon fill="none" stroke="#bfbfbf" points="1805,-168.5 1805,-187.5 1870,-187.5 1870,-168.5 1805,-168.5"/>
<text text-anchor="middle" x="1837.5" y="-175.5" font-family="Helvetica,sans-Serif" font-size="10.00">exception</text>
</a>
</g>
</g>
<!-- Node1&#45;&gt;Node38 -->
<g id="edge46" class="edge">
<title>Node1&#45;&gt;Node38</title>
<path fill="none" stroke="midnightblue" d="M1410.25,-236.42C1501.84,-227.51 1653.97,-211.15 1794.87,-187.96"/>
<polygon fill="midnightblue" stroke="midnightblue" points="1795.71,-191.36 1805,-186.27 1794.56,-184.46 1795.71,-191.36"/>
</g>
<!-- Node39 -->
<g id="node39" class="node">
<title>Node39</title>
<g id="a_node39"><a xlink:title=" ">
<polygon fill="none" stroke="#bfbfbf" points="1888,-168.5 1888,-187.5 1953,-187.5 1953,-168.5 1888,-168.5"/>
<text text-anchor="middle" x="1920.5" y="-175.5" font-family="Helvetica,sans-Serif" font-size="10.00">stdexcept</text>
</a>
</g>
</g>
<!-- Node1&#45;&gt;Node39 -->
<g id="edge48" class="edge">
<title>Node1&#45;&gt;Node39</title>
<path fill="none" stroke="midnightblue" d="M1410.18,-238.59C1516.4,-230.98 1706.58,-215.09 1877.93,-188.1"/>
<polygon fill="midnightblue" stroke="midnightblue" points="1878.57,-191.54 1887.89,-186.51 1877.46,-184.63 1878.57,-191.54"/>
</g>
<!-- Node3 -->
<g id="node3" class="node">
<title>Node3</title>
<g id="a_node3"><a xlink:href="ConfParser_8hpp.html" target="_top" xlink:title=" ">
<polygon fill="none" stroke="black" points="835,-112.5 835,-131.5 926,-131.5 926,-112.5 835,-112.5"/>
<text text-anchor="middle" x="880.5" y="-119.5" font-family="Helvetica,sans-Serif" font-size="10.00">ConfParser.hpp</text>
</a>
</g>
</g>
<!-- Node2&#45;&gt;Node3 -->
<g id="edge2" class="edge">
<title>Node2&#45;&gt;Node3</title>
<path fill="none" stroke="midnightblue" d="M1044.6,-168.44C1011.23,-159.2 957.91,-144.44 921.15,-134.26"/>
<polygon fill="midnightblue" stroke="midnightblue" points="921.83,-130.81 911.25,-131.52 919.96,-137.56 921.83,-130.81"/>
</g>
<!-- Node6 -->
<g id="node6" class="node">
<title>Node6</title>
<g id="a_node6"><a xlink:title=" ">
<polygon fill="none" stroke="#bfbfbf" points="852.5,-56.5 852.5,-75.5 896.5,-75.5 896.5,-56.5 852.5,-56.5"/>
<text text-anchor="middle" x="874.5" y="-63.5" font-family="Helvetica,sans-Serif" font-size="10.00">string</text>
</a>
</g>
</g>
<!-- Node2&#45;&gt;Node6 -->
<g id="edge25" class="edge">
<title>Node2&#45;&gt;Node6</title>
<path fill="none" stroke="midnightblue" d="M1026.75,-175.39C961.39,-172.08 850.64,-162.07 825.5,-132 811.35,-115.08 832.67,-94.62 851.47,-81.24"/>
<polygon fill="midnightblue" stroke="midnightblue" points="853.46,-84.12 859.79,-75.62 849.55,-78.32 853.46,-84.12"/>
</g>
<!-- Node7 -->
<g id="node7" class="node">
<title>Node7</title>
<g id="a_node7"><a xlink:href="Iter_8hpp.html" target="_top" xlink:title=" ">
<polygon fill="none" stroke="black" points="944.5,-112.5 944.5,-131.5 998.5,-131.5 998.5,-112.5 944.5,-112.5"/>
<text text-anchor="middle" x="971.5" y="-119.5" font-family="Helvetica,sans-Serif" font-size="10.00">Iter.hpp</text>
</a>
</g>
</g>
<!-- Node2&#45;&gt;Node7 -->
<g id="edge6" class="edge">
<title>Node2&#45;&gt;Node7</title>
<path fill="none" stroke="midnightblue" d="M1058.79,-168.32C1042.19,-159.7 1016.5,-146.36 997.28,-136.39"/>
<polygon fill="midnightblue" stroke="midnightblue" points="998.66,-133.16 988.17,-131.65 995.43,-139.37 998.66,-133.16"/>
</g>
<!-- Node2&#45;&gt;Node8 -->
<g id="edge7" class="edge">
<title>Node2&#45;&gt;Node8</title>
<path fill="none" stroke="midnightblue" d="M1026.86,-170C955.56,-159.73 823.3,-140.68 750.97,-130.27"/>
<polygon fill="midnightblue" stroke="midnightblue" points="751.14,-126.76 740.74,-128.8 750.14,-133.68 751.14,-126.76"/>
</g>
<!-- Node21 -->
<g id="node21" class="node">
<title>Node21</title>
<g id="a_node21"><a xlink:title=" ">
<polygon fill="none" stroke="#bfbfbf" points="1017,-112.5 1017,-131.5 1072,-131.5 1072,-112.5 1017,-112.5"/>
<text text-anchor="middle" x="1044.5" y="-119.5" font-family="Helvetica,sans-Serif" font-size="10.00">fstream</text>
</a>
</g>
</g>
<!-- Node2&#45;&gt;Node21 -->
<g id="edge22" class="edge">
<title>Node2&#45;&gt;Node21</title>
<path fill="none" stroke="midnightblue" d="M1070.38,-168.08C1066.09,-160.61 1059.84,-149.72 1054.56,-140.52"/>
<polygon fill="midnightblue" stroke="midnightblue" points="1057.54,-138.68 1049.52,-131.75 1051.47,-142.17 1057.54,-138.68"/>
</g>
<!-- Node2&#45;&gt;Node22 -->
<g id="edge23" class="edge">
<title>Node2&#45;&gt;Node22</title>
<path fill="none" stroke="midnightblue" d="M1106.87,-168.44C1141.36,-159.04 1196.82,-143.91 1234.18,-133.72"/>
<polygon fill="midnightblue" stroke="midnightblue" points="1235.48,-137 1244.21,-130.99 1233.64,-130.24 1235.48,-137"/>
</g>
<!-- Node23 -->
<g id="node23" class="node">
<title>Node23</title>
<g id="a_node23"><a xlink:title=" ">
<polygon fill="none" stroke="#bfbfbf" points="1090.5,-112.5 1090.5,-131.5 1122.5,-131.5 1122.5,-112.5 1090.5,-112.5"/>
<text text-anchor="middle" x="1106.5" y="-119.5" font-family="Helvetica,sans-Serif" font-size="10.00">set</text>
</a>
</g>
</g>
<!-- Node2&#45;&gt;Node23 -->
<g id="edge24" class="edge">
<title>Node2&#45;&gt;Node23</title>
<path fill="none" stroke="midnightblue" d="M1080.62,-168.08C1084.91,-160.61 1091.16,-149.72 1096.44,-140.52"/>
<polygon fill="midnightblue" stroke="midnightblue" points="1099.53,-142.17 1101.48,-131.75 1093.46,-138.68 1099.53,-142.17"/>
</g>
<!-- Node24 -->
<g id="node24" class="node">
<title>Node24</title>
<g id="a_node24"><a xlink:title=" ">
<polygon fill="none" stroke="#bfbfbf" points="1140.5,-112.5 1140.5,-131.5 1226.5,-131.5 1226.5,-112.5 1140.5,-112.5"/>
<text text-anchor="middle" x="1183.5" y="-119.5" font-family="Helvetica,sans-Serif" font-size="10.00">unordered_set</text>
</a>
</g>
</g>
<!-- Node2&#45;&gt;Node24 -->
<g id="edge26" class="edge">
<title>Node2&#45;&gt;Node24</title>
<path fill="none" stroke="midnightblue" d="M1092.85,-168.32C1110.17,-159.66 1137.02,-146.24 1157,-136.25"/>
<polygon fill="midnightblue" stroke="midnightblue" points="1158.81,-139.26 1166.19,-131.65 1155.68,-133 1158.81,-139.26"/>
</g>
<!-- Node2&#45;&gt;Node25 -->
<g id="edge27" class="edge">
<title>Node2&#45;&gt;Node25</title>
<path fill="none" stroke="midnightblue" d="M1124.09,-168.87C1169.82,-160.97 1240.4,-148.12 1310.83,-132.01"/>
<polygon fill="midnightblue" stroke="midnightblue" points="1311.81,-135.37 1320.76,-129.71 1310.23,-128.55 1311.81,-135.37"/>
</g>
<!-- Node4 -->
<g id="node4" class="node">
<title>Node4</title>
<g id="a_node4"><a xlink:title=" ">
<polygon fill="none" stroke="#bfbfbf" points="988.5,-56.5 988.5,-75.5 1026.5,-75.5 1026.5,-56.5 988.5,-56.5"/>
<text text-anchor="middle" x="1007.5" y="-63.5" font-family="Helvetica,sans-Serif" font-size="10.00">map</text>
</a>
</g>
</g>
<!-- Node3&#45;&gt;Node4 -->
<g id="edge3" class="edge">
<title>Node3&#45;&gt;Node4</title>
<path fill="none" stroke="midnightblue" d="M900.62,-112.44C921.77,-103.45 955.21,-89.23 979.05,-79.1"/>
<polygon fill="midnightblue" stroke="midnightblue" points="980.47,-82.3 988.3,-75.16 977.73,-75.86 980.47,-82.3"/>
</g>
<!-- Node5 -->
<g id="node5" class="node">
<title>Node5</title>
<g id="a_node5"><a xlink:title=" ">
<polygon fill="none" stroke="#bfbfbf" points="914.5,-56.5 914.5,-75.5 970.5,-75.5 970.5,-56.5 914.5,-56.5"/>
<text text-anchor="middle" x="942.5" y="-63.5" font-family="Helvetica,sans-Serif" font-size="10.00">sstream</text>
</a>
</g>
</g>
<!-- Node3&#45;&gt;Node5 -->
<g id="edge4" class="edge">
<title>Node3&#45;&gt;Node5</title>
<path fill="none" stroke="midnightblue" d="M890.46,-112.32C899.63,-104.34 913.44,-92.31 924.53,-82.65"/>
<polygon fill="midnightblue" stroke="midnightblue" points="927.12,-85.04 932.36,-75.83 922.52,-79.76 927.12,-85.04"/>
</g>
<!-- Node3&#45;&gt;Node6 -->
<g id="edge5" class="edge">
<title>Node3&#45;&gt;Node6</title>
<path fill="none" stroke="midnightblue" d="M879.51,-112.08C878.71,-104.93 877.57,-94.64 876.58,-85.69"/>
<polygon fill="midnightblue" stroke="midnightblue" points="880.06,-85.3 875.47,-75.75 873.1,-86.08 880.06,-85.3"/>
</g>
<!-- Node8&#45;&gt;Node6 -->
<g id="edge19" class="edge">
<title>Node8&#45;&gt;Node6</title>
<path fill="none" stroke="midnightblue" d="M728.07,-112.44C759.25,-102.77 809.93,-87.04 842.74,-76.86"/>
<polygon fill="midnightblue" stroke="midnightblue" points="843.79,-80.2 852.3,-73.89 841.72,-73.51 843.79,-80.2"/>
</g>
<!-- Node8&#45;&gt;Node9 -->
<g id="edge8" class="edge">
<title>Node8&#45;&gt;Node9</title>
<path fill="none" stroke="midnightblue" d="M660.14,-115.92C578.2,-105.61 393.19,-82.32 311.53,-72.04"/>
<polygon fill="midnightblue" stroke="midnightblue" points="311.53,-68.51 301.17,-70.73 310.65,-75.46 311.53,-68.51"/>
</g>
<!-- Node11 -->
<g id="node11" class="node">
<title>Node11</title>
<g id="a_node11"><a xlink:title=" ">
<polygon fill="none" stroke="#bfbfbf" points="477.5,-0.5 477.5,-19.5 519.5,-19.5 519.5,-0.5 477.5,-0.5"/>
<text text-anchor="middle" x="498.5" y="-7.5" font-family="Helvetica,sans-Serif" font-size="10.00">array</text>
</a>
</g>
</g>
<!-- Node8&#45;&gt;Node11 -->
<g id="edge16" class="edge">
<title>Node8&#45;&gt;Node11</title>
<path fill="none" stroke="midnightblue" d="M660.45,-114.5C630.09,-108.2 588.31,-96.51 556.5,-76 537.1,-63.5 520.23,-42.81 509.75,-28.13"/>
<polygon fill="midnightblue" stroke="midnightblue" points="512.38,-25.77 503.83,-19.5 506.6,-29.73 512.38,-25.77"/>
</g>
<!-- Node8&#45;&gt;Node17 -->
<g id="edge17" class="edge">
<title>Node8&#45;&gt;Node17</title>
<path fill="none" stroke="midnightblue" d="M718.17,-112.32C735.89,-103.62 763.4,-90.12 783.79,-80.11"/>
<polygon fill="midnightblue" stroke="midnightblue" points="785.44,-83.2 792.87,-75.65 782.35,-76.92 785.44,-83.2"/>
</g>
<!-- Node18 -->
<g id="node18" class="node">
<title>Node18</title>
<g id="a_node18"><a xlink:title=" ">
<polygon fill="none" stroke="#bfbfbf" points="565.5,-56.5 565.5,-75.5 625.5,-75.5 625.5,-56.5 565.5,-56.5"/>
<text text-anchor="middle" x="595.5" y="-63.5" font-family="Helvetica,sans-Serif" font-size="10.00">iostream</text>
</a>
</g>
</g>
<!-- Node8&#45;&gt;Node18 -->
<g id="edge18" class="edge">
<title>Node8&#45;&gt;Node18</title>
<path fill="none" stroke="midnightblue" d="M683.63,-112.32C666.79,-103.66 640.69,-90.24 621.26,-80.25"/>
<polygon fill="midnightblue" stroke="midnightblue" points="622.82,-77.12 612.33,-75.65 619.62,-83.34 622.82,-77.12"/>
</g>
<!-- Node19 -->
<g id="node19" class="node">
<title>Node19</title>
<g id="a_node19"><a xlink:title=" ">
<polygon fill="none" stroke="#bfbfbf" points="644,-56.5 644,-75.5 769,-75.5 769,-56.5 644,-56.5"/>
<text text-anchor="middle" x="706.5" y="-63.5" font-family="Helvetica,sans-Serif" font-size="10.00">cereal/types/array.hpp</text>
</a>
</g>
</g>
<!-- Node8&#45;&gt;Node19 -->
<g id="edge20" class="edge">
<title>Node8&#45;&gt;Node19</title>
<path fill="none" stroke="midnightblue" d="M701.49,-112.08C702.29,-104.93 703.43,-94.64 704.42,-85.69"/>
<polygon fill="midnightblue" stroke="midnightblue" points="707.9,-86.08 705.53,-75.75 700.94,-85.3 707.9,-86.08"/>
</g>
<!-- Node20 -->
<g id="node20" class="node">
<title>Node20</title>
<g id="a_node20"><a xlink:title=" ">
<polygon fill="none" stroke="#bfbfbf" points="381.5,-56.5 381.5,-75.5 509.5,-75.5 509.5,-56.5 381.5,-56.5"/>
<text text-anchor="middle" x="445.5" y="-63.5" font-family="Helvetica,sans-Serif" font-size="10.00">cereal/types/string.hpp</text>
</a>
</g>
</g>
<!-- Node8&#45;&gt;Node20 -->
<g id="edge21" class="edge">
<title>Node8&#45;&gt;Node20</title>
<path fill="none" stroke="midnightblue" d="M660.38,-112.5C615.86,-103.08 543.95,-87.85 495.72,-77.64"/>
<polygon fill="midnightblue" stroke="midnightblue" points="496.32,-74.18 485.81,-75.54 494.87,-81.03 496.32,-74.18"/>
</g>
<!-- Node10 -->
<g id="node10" class="node">
<title>Node10</title>
<g id="a_node10"><a xlink:title=" ">
<polygon fill="none" stroke="#bfbfbf" points="317.5,-0.5 317.5,-19.5 381.5,-19.5 381.5,-0.5 317.5,-0.5"/>
<text text-anchor="middle" x="349.5" y="-7.5" font-family="Helvetica,sans-Serif" font-size="10.00">algorithm</text>
</a>
</g>
</g>
<!-- Node9&#45;&gt;Node10 -->
<g id="edge9" class="edge">
<title>Node9&#45;&gt;Node10</title>
<path fill="none" stroke="midnightblue" d="M284.03,-56.32C296.09,-47.98 314.53,-35.21 328.77,-25.35"/>
<polygon fill="midnightblue" stroke="midnightblue" points="330.77,-28.22 337,-19.65 326.78,-22.47 330.77,-28.22"/>
</g>
<!-- Node9&#45;&gt;Node11 -->
<g id="edge10" class="edge">
<title>Node9&#45;&gt;Node11</title>
<path fill="none" stroke="midnightblue" d="M301.18,-58.74C339.68,-50.48 408.87,-35.23 467.5,-20 467.6,-19.97 467.7,-19.95 467.8,-19.92"/>
<polygon fill="midnightblue" stroke="midnightblue" points="468.47,-23.37 477.2,-17.36 466.63,-16.61 468.47,-23.37"/>
</g>
<!-- Node12 -->
<g id="node12" class="node">
<title>Node12</title>
<g id="a_node12"><a xlink:title=" ">
<polygon fill="none" stroke="#bfbfbf" points="400,-0.5 400,-19.5 459,-19.5 459,-0.5 400,-0.5"/>
<text text-anchor="middle" x="429.5" y="-7.5" font-family="Helvetica,sans-Serif" font-size="10.00">complex</text>
</a>
</g>
</g>
<!-- Node9&#45;&gt;Node12 -->
<g id="edge11" class="edge">
<title>Node9&#45;&gt;Node12</title>
<path fill="none" stroke="midnightblue" d="M296.54,-56.44C323.12,-47.36 365.31,-32.94 395.02,-22.78"/>
<polygon fill="midnightblue" stroke="midnightblue" points="396.25,-26.06 404.58,-19.52 393.99,-19.44 396.25,-26.06"/>
</g>
<!-- Node13 -->
<g id="node13" class="node">
<title>Node13</title>
<g id="a_node13"><a xlink:title=" ">
<polygon fill="none" stroke="#bfbfbf" points="0,-0.5 0,-19.5 65,-19.5 65,-0.5 0,-0.5"/>
<text text-anchor="middle" x="32.5" y="-7.5" font-family="Helvetica,sans-Serif" font-size="10.00">functional</text>
</a>
</g>
</g>
<!-- Node9&#45;&gt;Node13 -->
<g id="edge12" class="edge">
<title>Node9&#45;&gt;Node13</title>
<path fill="none" stroke="midnightblue" d="M241.71,-58.27C199.77,-48.79 123.09,-31.47 75.12,-20.63"/>
<polygon fill="midnightblue" stroke="midnightblue" points="75.87,-17.21 65.35,-18.42 74.33,-24.04 75.87,-17.21"/>
</g>
<!-- Node14 -->
<g id="node14" class="node">
<title>Node14</title>
<g id="a_node14"><a xlink:title=" ">
<polygon fill="none" stroke="#bfbfbf" points="83.5,-0.5 83.5,-19.5 137.5,-19.5 137.5,-0.5 83.5,-0.5"/>
<text text-anchor="middle" x="110.5" y="-7.5" font-family="Helvetica,sans-Serif" font-size="10.00">random</text>
</a>
</g>
</g>
<!-- Node9&#45;&gt;Node14 -->
<g id="edge13" class="edge">
<title>Node9&#45;&gt;Node14</title>
<path fill="none" stroke="midnightblue" d="M245.99,-56.44C218.9,-47.36 175.91,-32.94 145.63,-22.78"/>
<polygon fill="midnightblue" stroke="midnightblue" points="146.49,-19.38 135.89,-19.52 144.26,-26.01 146.49,-19.38"/>
</g>
<!-- Node15 -->
<g id="node15" class="node">
<title>Node15</title>
<g id="a_node15"><a xlink:title=" ">
<polygon fill="none" stroke="#bfbfbf" points="156,-0.5 156,-19.5 225,-19.5 225,-0.5 156,-0.5"/>
<text text-anchor="middle" x="190.5" y="-7.5" font-family="Helvetica,sans-Serif" font-size="10.00">type_traits</text>
</a>
</g>
</g>
<!-- Node9&#45;&gt;Node15 -->
<g id="edge14" class="edge">
<title>Node9&#45;&gt;Node15</title>
<path fill="none" stroke="midnightblue" d="M258.49,-56.32C245.97,-47.98 226.82,-35.21 212.03,-25.35"/>
<polygon fill="midnightblue" stroke="midnightblue" points="213.74,-22.29 203.48,-19.65 209.86,-28.11 213.74,-22.29"/>
</g>
<!-- Node16 -->
<g id="node16" class="node">
<title>Node16</title>
<g id="a_node16"><a xlink:title=" ">
<polygon fill="none" stroke="#bfbfbf" points="243.5,-0.5 243.5,-19.5 299.5,-19.5 299.5,-0.5 243.5,-0.5"/>
<text text-anchor="middle" x="271.5" y="-7.5" font-family="Helvetica,sans-Serif" font-size="10.00">unistd.h</text>
</a>
</g>
</g>
<!-- Node9&#45;&gt;Node16 -->
<g id="edge15" class="edge">
<title>Node9&#45;&gt;Node16</title>
<path fill="none" stroke="midnightblue" d="M271.5,-56.08C271.5,-49.01 271.5,-38.86 271.5,-29.99"/>
<polygon fill="midnightblue" stroke="midnightblue" points="275,-29.75 271.5,-19.75 268,-29.75 275,-29.75"/>
</g>
<!-- Node26&#45;&gt;Node22 -->
<g id="edge30" class="edge">
<title>Node26&#45;&gt;Node22</title>
<path fill="none" stroke="midnightblue" d="M1350.72,-168.32C1336.23,-159.82 1313.93,-146.73 1297.01,-136.8"/>
<polygon fill="midnightblue" stroke="midnightblue" points="1298.64,-133.7 1288.24,-131.65 1295.1,-139.74 1298.64,-133.7"/>
</g>
<!-- Node26&#45;&gt;Node25 -->
<g id="edge34" class="edge">
<title>Node26&#45;&gt;Node25</title>
<path fill="none" stroke="midnightblue" d="M1362.03,-168.08C1359.19,-160.77 1355.07,-150.18 1351.54,-141.1"/>
<polygon fill="midnightblue" stroke="midnightblue" points="1354.79,-139.8 1347.9,-131.75 1348.27,-142.34 1354.79,-139.8"/>
</g>
<!-- Node27 -->
<g id="node27" class="node">
<title>Node27</title>
<g id="a_node27"><a xlink:title=" ">
<polygon fill="none" stroke="#bfbfbf" points="1572,-112.5 1572,-131.5 1625,-131.5 1625,-112.5 1572,-112.5"/>
<text text-anchor="middle" x="1598.5" y="-119.5" font-family="Helvetica,sans-Serif" font-size="10.00">iterator</text>
</a>
</g>
</g>
<!-- Node26&#45;&gt;Node27 -->
<g id="edge29" class="edge">
<title>Node26&#45;&gt;Node27</title>
<path fill="none" stroke="midnightblue" d="M1404.65,-168.44C1442.54,-160.09 1501.84,-146.81 1561.76,-132.38"/>
<polygon fill="midnightblue" stroke="midnightblue" points="1562.87,-135.71 1571.77,-129.96 1561.22,-128.91 1562.87,-135.71"/>
</g>
<!-- Node28 -->
<g id="node28" class="node">
<title>Node28</title>
<g id="a_node28"><a xlink:title=" ">
<polygon fill="none" stroke="#bfbfbf" points="1643,-112.5 1643,-131.5 1708,-131.5 1708,-112.5 1643,-112.5"/>
<text text-anchor="middle" x="1675.5" y="-119.5" font-family="Helvetica,sans-Serif" font-size="10.00">typeindex</text>
</a>
</g>
</g>
<!-- Node26&#45;&gt;Node28 -->
<g id="edge31" class="edge">
<title>Node26&#45;&gt;Node28</title>
<path fill="none" stroke="midnightblue" d="M1413.13,-169.33C1474.5,-159.4 1578.9,-142.33 1632.78,-132.24"/>
<polygon fill="midnightblue" stroke="midnightblue" points="1633.69,-135.63 1642.86,-130.32 1632.38,-128.75 1633.69,-135.63"/>
</g>
<!-- Node29 -->
<g id="node29" class="node">
<title>Node29</title>
<g id="a_node29"><a xlink:title=" ">
<polygon fill="none" stroke="#bfbfbf" points="1386,-112.5 1386,-131.5 1443,-131.5 1443,-112.5 1386,-112.5"/>
<text text-anchor="middle" x="1414.5" y="-119.5" font-family="Helvetica,sans-Serif" font-size="10.00">typeinfo</text>
</a>
</g>
</g>
<!-- Node26&#45;&gt;Node29 -->
<g id="edge32" class="edge">
<title>Node26&#45;&gt;Node29</title>
<path fill="none" stroke="midnightblue" d="M1373.59,-168.08C1380.66,-160.3 1391.09,-148.8 1399.65,-139.37"/>
<polygon fill="midnightblue" stroke="midnightblue" points="1402.43,-141.51 1406.56,-131.75 1397.25,-136.8 1402.43,-141.51"/>
</g>
<!-- Node30 -->
<g id="node30" class="node">
<title>Node30</title>
<g id="a_node30"><a xlink:title=" ">
<polygon fill="none" stroke="#bfbfbf" points="1461,-112.5 1461,-131.5 1554,-131.5 1554,-112.5 1461,-112.5"/>
<text text-anchor="middle" x="1507.5" y="-119.5" font-family="Helvetica,sans-Serif" font-size="10.00">unordered_map</text>
</a>
</g>
</g>
<!-- Node26&#45;&gt;Node30 -->
<g id="edge33" class="edge">
<title>Node26&#45;&gt;Node30</title>
<path fill="none" stroke="midnightblue" d="M1388,-168.44C1411.58,-159.48 1448.82,-145.31 1475.46,-135.18"/>
<polygon fill="midnightblue" stroke="midnightblue" points="1477,-138.34 1485.1,-131.52 1474.51,-131.8 1477,-138.34"/>
</g>
<!-- Node31&#45;&gt;Node11 -->
<g id="edge37" class="edge">
<title>Node31&#45;&gt;Node11</title>
<path fill="none" stroke="midnightblue" d="M352.11,-168.19C349.19,-146.41 344.83,-89.41 372.5,-56 378.8,-48.39 432.42,-31.01 467.65,-20.21"/>
<polygon fill="midnightblue" stroke="midnightblue" points="468.93,-23.48 477.48,-17.22 466.9,-16.78 468.93,-23.48"/>
</g>
<!-- Node32 -->
<g id="node32" class="node">
<title>Node32</title>
<g id="a_node32"><a xlink:title=" ">
<polygon fill="none" stroke="#bfbfbf" points="275.5,-112.5 275.5,-131.5 325.5,-131.5 325.5,-112.5 275.5,-112.5"/>
<text text-anchor="middle" x="300.5" y="-119.5" font-family="Helvetica,sans-Serif" font-size="10.00">climits</text>
</a>
</g>
</g>
<!-- Node31&#45;&gt;Node32 -->
<g id="edge38" class="edge">
<title>Node31&#45;&gt;Node32</title>
<path fill="none" stroke="midnightblue" d="M344.75,-168.08C337.03,-160.22 325.6,-148.57 316.28,-139.08"/>
<polygon fill="midnightblue" stroke="midnightblue" points="318.59,-136.44 309.09,-131.75 313.6,-141.34 318.59,-136.44"/>
</g>
<!-- Node34 -->
<g id="node34" class="node">
<title>Node34</title>
<g id="a_node34"><a xlink:title=" ">
<polygon fill="none" stroke="#bfbfbf" points="1726,-112.5 1726,-131.5 1795,-131.5 1795,-112.5 1726,-112.5"/>
<text text-anchor="middle" x="1760.5" y="-119.5" font-family="Helvetica,sans-Serif" font-size="10.00">Eigen/Core</text>
</a>
</g>
</g>
<!-- Node33&#45;&gt;Node34 -->
<g id="edge41" class="edge">
<title>Node33&#45;&gt;Node34</title>
<path fill="none" stroke="midnightblue" d="M1528.48,-168.44C1573.75,-159.95 1645.15,-146.42 1715.81,-132.32"/>
<polygon fill="midnightblue" stroke="midnightblue" points="1716.66,-135.72 1725.78,-130.32 1715.28,-128.85 1716.66,-135.72"/>
</g>
</g>
</svg>
        <g id="navigator" transform="translate(0 0)" fill="#404254">
                <rect fill="#f2f5e9" fill-opacity="0.5" stroke="#606060" stroke-width=".5" x="0" y="0" width="60" height="60"/>
                <use id="zoomplus" xlink:href="#zoomPlus" x="17" y="9" onmousedown="handleZoom(evt,'in')"/>
                <use id="zoomminus" xlink:href="#zoomMin" x="42" y="9" onmousedown="handleZoom(evt,'out')"/>
                <use id="reset" xlink:href="#resetDef" x="30" y="36" onmousedown="handleReset()"/>
                <g id="arrowUp" xlink:href="#dirArrow" transform="translate(30 24)" onmousedown="handlePan(0,-1)">
                  <use xlink:href="#rim" fill="#404040">
                        <set attributeName="fill" to="#808080" begin="arrowUp.mouseover" end="arrowUp.mouseout"/>
                  </use>
                  <path fill="none" stroke="white" stroke-width="1.5" d="M0,-3.0v7 M-2.5,-0.5L0,-3.0L2.5,-0.5"/>
                </g>
                <g id="arrowRight" xlink:href="#dirArrow" transform="rotate(90) translate(36 -43)" onmousedown="handlePan(1,0)">
                  <use xlink:href="#rim" fill="#404040">
                        <set attributeName="fill" to="#808080" begin="arrowRight.mouseover" end="arrowRight.mouseout"/>
                  </use>
                  <path fill="none" stroke="white" stroke-width="1.5" d="M0,-3.0v7 M-2.5,-0.5L0,-3.0L2.5,-0.5"/>
                </g>
                <g id="arrowDown" xlink:href="#dirArrow" transform="rotate(180) translate(-30 -48)" onmousedown="handlePan(0,1)">
                  <use xlink:href="#rim" fill="#404040">
                        <set attributeName="fill" to="#808080" begin="arrowDown.mouseover" end="arrowDown.mouseout"/>
                  </use>
                  <path fill="none" stroke="white" stroke-width="1.5" d="M0,-3.0v7 M-2.5,-0.5L0,-3.0L2.5,-0.5"/>
                </g>
                <g id="arrowLeft" xlink:href="#dirArrow" transform="rotate(270) translate(-36 17)" onmousedown="handlePan(-1,0)">
                  <use xlink:href="#rim" fill="#404040">
                        <set attributeName="fill" to="#808080" begin="arrowLeft.mouseover" end="arrowLeft.mouseout"/>
                  </use>
                  <path fill="none" stroke="white" stroke-width="1.5" d="M0,-3.0v7 M-2.5,-0.5L0,-3.0L2.5,-0.5"/>
                </g>
        </g>
        <svg viewBox="0 0 15 15" width="100%" height="30px" preserveAspectRatio="xMaxYMin meet">
         <g id="arrow_out" transform="scale(0.3 0.3)">
          <a xlink:href="Hamiltonianmatrix_8hpp__incl_org.svg" target="_base">
           <rect id="button" ry="5" rx="5" y="6" x="6" height="38" width="38"
                fill="#f2f5e9" fill-opacity="0.5" stroke="#606060" stroke-width="1.0"/>
           <path id="arrow"
             d="M 11.500037,31.436501 C 11.940474,20.09759 22.043105,11.32322 32.158766,21.979434 L 37.068811,17.246167 C 37.068811,17.246167 37.088388,32 37.088388,32 L 22.160133,31.978069 C 22.160133,31.978069 26.997745,27.140456 26.997745,27.140456 C 18.528582,18.264221 13.291696,25.230495 11.500037,31.436501 z"
             style="fill:#404040;"/>
          </a>
         </g>
        </svg>
</svg>
