<?xml version="1.0" encoding="UTF-8" standalone="no"?>
<!DOCTYPE svg PUBLIC "-//W3C//DTD SVG 1.1//EN"
 "http://www.w3.org/Graphics/SVG/1.1/DTD/svg11.dtd">
<!-- Generated by graphviz version 2.43.0 (0)
 -->
<!-- Title: /__w/pairinteraction/pairinteraction/pairinteraction/Hamiltonian.hpp Pages: 1 -->
<!--zoomable 330 -->
<svg id="main" version="1.1" xmlns="http://www.w3.org/2000/svg" xmlns:xlink="http://www.w3.org/1999/xlink" xml:space="preserve" onload="init(evt)">
<style type="text/css"><![CDATA[
.edge:hover path { stroke: red; }
.edge:hover polygon { stroke: red; fill: red; }
]]></style>
<script type="text/javascript"><![CDATA[
var edges = document.getElementsByTagName('g');
if (edges && edges.length) {
  for (var i=0;i<edges.length;i++) {
    if (edges[i].id.substr(0,4)=='edge') {
      edges[i].setAttribute('class','edge');
    }
  }
}
]]></script>
        <defs>
                <circle id="rim" cx="0" cy="0" r="7"/>
                <circle id="rim2" cx="0" cy="0" r="3.5"/>
                <g id="zoomPlus">
                        <use xlink:href="#rim" fill="#404040">
                                <set attributeName="fill" to="#808080" begin="zoomplus.mouseover" end="zoomplus.mouseout"/>
                        </use>
                        <path d="M-4,0h8M0,-4v8" fill="none" stroke="white" stroke-width="1.5" pointer-events="none"/>
                </g>
                <g id="zoomMin">
                        <use xlink:href="#rim" fill="#404040">
                                <set attributeName="fill" to="#808080" begin="zoomminus.mouseover" end="zoomminus.mouseout"/>
                        </use>
                        <path d="M-4,0h8" fill="none" stroke="white" stroke-width="1.5" pointer-events="none"/>
                </g>
                <g id="dirArrow">
                        <path fill="none" stroke="white" stroke-width="1.5" d="M0,-3.0v7 M-2.5,-0.5L0,-3.0L2.5,-0.5"/>
                </g>
               <g id="resetDef">
                       <use xlink:href="#rim2" fill="#404040">
                               <set attributeName="fill" to="#808080" begin="reset.mouseover" end="reset.mouseout"/>
                       </use>
               </g>
        </defs>

<script type="text/javascript">
var viewWidth = 1670;
var viewHeight = 330;
var sectionId = 'dynsection-0';
</script>
<script xlink:href="svgpan.js"/>
<svg id="graph" class="graph">
<g id="viewport">
<title>/__w/pairinteraction/pairinteraction/pairinteraction/Hamiltonian.hpp</title>
<!-- Node1 -->
<g id="node1" class="node">
<title>Node1</title>
<g id="a_node1"><a xlink:title=" ">
<polygon fill="#bfbfbf" stroke="black" points="885.87,-280.5 885.87,-321.5 1050.87,-321.5 1050.87,-280.5 885.87,-280.5"/>
<text text-anchor="start" x="893.87" y="-309.5" font-family="Helvetica,sans-Serif" font-size="10.00">/__w/pairinteraction</text>
<text text-anchor="start" x="893.87" y="-298.5" font-family="Helvetica,sans-Serif" font-size="10.00">/pairinteraction/pairinteraction</text>
<text text-anchor="middle" x="968.37" y="-287.5" font-family="Helvetica,sans-Serif" font-size="10.00">/Hamiltonian.hpp</text>
</a>
</g>
</g>
<!-- Node2 -->
<g id="node2" class="node">
<title>Node2</title>
<g id="a_node2"><a xlink:href="Hamiltonianmatrix_8hpp.html" target="_top" xlink:title=" ">
<polygon fill="none" stroke="black" points="950.37,-224.5 950.37,-243.5 1080.37,-243.5 1080.37,-224.5 950.37,-224.5"/>
<text text-anchor="middle" x="1015.37" y="-231.5" font-family="Helvetica,sans-Serif" font-size="10.00">Hamiltonianmatrix.hpp</text>
</a>
</g>
</g>
<!-- Node1&#45;&gt;Node2 -->
<g id="edge1" class="edge">
<title>Node1&#45;&gt;Node2</title>
<path fill="none" stroke="midnightblue" d="M982.47,-280.5C989.05,-271.39 996.81,-260.66 1003.14,-251.91"/>
<polygon fill="midnightblue" stroke="midnightblue" points="1006.09,-253.81 1009.11,-243.65 1000.42,-249.71 1006.09,-253.81"/>
</g>
<!-- Node26 -->
<g id="node26" class="node">
<title>Node26</title>
<g id="a_node26"><a xlink:title=" ">
<polygon fill="none" stroke="#bfbfbf" points="958.87,-112.5 958.87,-131.5 1005.87,-131.5 1005.87,-112.5 958.87,-112.5"/>
<text text-anchor="middle" x="982.37" y="-119.5" font-family="Helvetica,sans-Serif" font-size="10.00">vector</text>
</a>
</g>
</g>
<!-- Node1&#45;&gt;Node26 -->
<g id="edge51" class="edge">
<title>Node1&#45;&gt;Node26</title>
<path fill="none" stroke="midnightblue" d="M955.17,-280.45C946.53,-265.36 937.51,-243.79 941.37,-224 947.36,-193.32 962.69,-160.17 972.82,-140.52"/>
<polygon fill="midnightblue" stroke="midnightblue" points="975.98,-142.04 977.56,-131.56 969.79,-138.76 975.98,-142.04"/>
</g>
<!-- Node3 -->
<g id="node3" class="node">
<title>Node3</title>
<g id="a_node3"><a xlink:href="Basisnames_8hpp.html" target="_top" xlink:title=" ">
<polygon fill="none" stroke="black" points="735.87,-168.5 735.87,-187.5 832.87,-187.5 832.87,-168.5 735.87,-168.5"/>
<text text-anchor="middle" x="784.37" y="-175.5" font-family="Helvetica,sans-Serif" font-size="10.00">Basisnames.hpp</text>
</a>
</g>
</g>
<!-- Node2&#45;&gt;Node3 -->
<g id="edge2" class="edge">
<title>Node2&#45;&gt;Node3</title>
<path fill="none" stroke="midnightblue" d="M978.77,-224.44C938.64,-215.06 874.17,-199.99 830.59,-189.8"/>
<polygon fill="midnightblue" stroke="midnightblue" points="831.34,-186.38 820.8,-187.52 829.74,-193.2 831.34,-186.38"/>
</g>
<!-- Node9 -->
<g id="node9" class="node">
<title>Node9</title>
<g id="a_node9"><a xlink:href="StateOld_8hpp.html" target="_top" xlink:title=" ">
<polygon fill="none" stroke="black" points="337.37,-112.5 337.37,-131.5 417.37,-131.5 417.37,-112.5 337.37,-112.5"/>
<text text-anchor="middle" x="377.37" y="-119.5" font-family="Helvetica,sans-Serif" font-size="10.00">StateOld.hpp</text>
</a>
</g>
</g>
<!-- Node2&#45;&gt;Node9 -->
<g id="edge36" class="edge">
<title>Node2&#45;&gt;Node9</title>
<path fill="none" stroke="midnightblue" d="M950.24,-230.83C807.58,-225.68 476.53,-211.35 431.37,-188 411.27,-177.61 395.79,-156.15 386.66,-140.73"/>
<polygon fill="midnightblue" stroke="midnightblue" points="389.52,-138.67 381.59,-131.64 383.41,-142.08 389.52,-138.67"/>
</g>
<!-- Node10 -->
<g id="node10" class="node">
<title>Node10</title>
<g id="a_node10"><a xlink:href="utils_8hpp.html" target="_top" xlink:title=" ">
<polygon fill="none" stroke="black" points="490.87,-56.5 490.87,-75.5 549.87,-75.5 549.87,-56.5 490.87,-56.5"/>
<text text-anchor="middle" x="520.37" y="-63.5" font-family="Helvetica,sans-Serif" font-size="10.00">utils.hpp</text>
</a>
</g>
</g>
<!-- Node2&#45;&gt;Node10 -->
<g id="edge40" class="edge">
<title>Node2&#45;&gt;Node10</title>
<path fill="none" stroke="midnightblue" d="M950.18,-230.36C824.6,-223.73 556.7,-201.58 502.37,-132 491.6,-118.2 499.55,-98.35 508.02,-84.22"/>
<polygon fill="midnightblue" stroke="midnightblue" points="511.19,-85.78 513.75,-75.5 505.34,-81.94 511.19,-85.78"/>
</g>
<!-- Node18 -->
<g id="node18" class="node">
<title>Node18</title>
<g id="a_node18"><a xlink:title=" ">
<polygon fill="none" stroke="#bfbfbf" points="425.87,-56.5 425.87,-75.5 472.87,-75.5 472.87,-56.5 425.87,-56.5"/>
<text text-anchor="middle" x="449.37" y="-63.5" font-family="Helvetica,sans-Serif" font-size="10.00">cmath</text>
</a>
</g>
</g>
<!-- Node2&#45;&gt;Node18 -->
<g id="edge44" class="edge">
<title>Node2&#45;&gt;Node18</title>
<path fill="none" stroke="midnightblue" d="M950.02,-231.54C840.55,-228.29 625.33,-218.15 556.37,-188 508.77,-167.19 474.03,-113.14 458.46,-84.85"/>
<polygon fill="midnightblue" stroke="midnightblue" points="461.39,-82.89 453.61,-75.7 455.21,-86.18 461.39,-82.89"/>
</g>
<!-- Node23 -->
<g id="node23" class="node">
<title>Node23</title>
<g id="a_node23"><a xlink:title=" ">
<polygon fill="none" stroke="#bfbfbf" points="1024.37,-112.5 1024.37,-131.5 1082.37,-131.5 1082.37,-112.5 1024.37,-112.5"/>
<text text-anchor="middle" x="1053.37" y="-119.5" font-family="Helvetica,sans-Serif" font-size="10.00">memory</text>
</a>
</g>
</g>
<!-- Node2&#45;&gt;Node23 -->
<g id="edge48" class="edge">
<title>Node2&#45;&gt;Node23</title>
<path fill="none" stroke="midnightblue" d="M1014.15,-224.26C1012.71,-211.46 1011.33,-187.08 1018.37,-168 1022.34,-157.25 1029.88,-147.02 1036.94,-139.04"/>
<polygon fill="midnightblue" stroke="midnightblue" points="1039.64,-141.28 1043.97,-131.6 1034.56,-136.47 1039.64,-141.28"/>
</g>
<!-- Node2&#45;&gt;Node26 -->
<g id="edge50" class="edge">
<title>Node2&#45;&gt;Node26</title>
<path fill="none" stroke="midnightblue" d="M1006.99,-224.2C999.49,-215.7 988.98,-202.06 984.37,-188 979.47,-173.07 979.31,-155.15 980.18,-141.91"/>
<polygon fill="midnightblue" stroke="midnightblue" points="983.69,-141.96 981.12,-131.68 976.72,-141.32 983.69,-141.96"/>
</g>
<!-- Node27 -->
<g id="node27" class="node">
<title>Node27</title>
<g id="a_node27"><a xlink:href="Serializable_8hpp.html" target="_top" xlink:title=" ">
<polygon fill="none" stroke="black" points="1026.87,-168.5 1026.87,-187.5 1121.87,-187.5 1121.87,-168.5 1026.87,-168.5"/>
<text text-anchor="middle" x="1074.37" y="-175.5" font-family="Helvetica,sans-Serif" font-size="10.00">Serializable.hpp</text>
</a>
</g>
</g>
<!-- Node2&#45;&gt;Node27 -->
<g id="edge29" class="edge">
<title>Node2&#45;&gt;Node27</title>
<path fill="none" stroke="midnightblue" d="M1024.85,-224.32C1033.57,-216.34 1046.71,-204.31 1057.27,-194.65"/>
<polygon fill="midnightblue" stroke="midnightblue" points="1059.71,-197.17 1064.72,-187.83 1054.98,-192 1059.71,-197.17"/>
</g>
<!-- Node32 -->
<g id="node32" class="node">
<title>Node32</title>
<g id="a_node32"><a xlink:href="Symmetry_8hpp.html" target="_top" xlink:title=" ">
<polygon fill="none" stroke="black" points="125.87,-168.5 125.87,-187.5 212.87,-187.5 212.87,-168.5 125.87,-168.5"/>
<text text-anchor="middle" x="169.37" y="-175.5" font-family="Helvetica,sans-Serif" font-size="10.00">Symmetry.hpp</text>
</a>
</g>
</g>
<!-- Node2&#45;&gt;Node32 -->
<g id="edge37" class="edge">
<title>Node2&#45;&gt;Node32</title>
<path fill="none" stroke="midnightblue" d="M950.04,-228.83C788.43,-218.51 372.24,-191.95 223.34,-182.45"/>
<polygon fill="midnightblue" stroke="midnightblue" points="223.29,-178.93 213.09,-181.79 222.85,-185.92 223.29,-178.93"/>
</g>
<!-- Node34 -->
<g id="node34" class="node">
<title>Node34</title>
<g id="a_node34"><a xlink:href="EigenCompat_8hpp.html" target="_top" xlink:title=" ">
<polygon fill="none" stroke="black" points="1558.87,-168.5 1558.87,-187.5 1661.87,-187.5 1661.87,-168.5 1558.87,-168.5"/>
<text text-anchor="middle" x="1610.37" y="-175.5" font-family="Helvetica,sans-Serif" font-size="10.00">EigenCompat.hpp</text>
</a>
</g>
</g>
<!-- Node2&#45;&gt;Node34 -->
<g id="edge41" class="edge">
<title>Node2&#45;&gt;Node34</title>
<path fill="none" stroke="midnightblue" d="M1080.57,-228.89C1179.54,-222.34 1373.83,-208.3 1548.54,-188.15"/>
<polygon fill="midnightblue" stroke="midnightblue" points="1549.16,-191.6 1558.69,-186.97 1548.35,-184.65 1549.16,-191.6"/>
</g>
<!-- Node36 -->
<g id="node36" class="node">
<title>Node36</title>
<g id="a_node36"><a xlink:title=" ">
<polygon fill="none" stroke="#bfbfbf" points="1140.37,-168.5 1140.37,-187.5 1242.37,-187.5 1242.37,-168.5 1140.37,-168.5"/>
<text text-anchor="middle" x="1191.37" y="-175.5" font-family="Helvetica,sans-Serif" font-size="10.00">Eigen/SparseCore</text>
</a>
</g>
</g>
<!-- Node2&#45;&gt;Node36 -->
<g id="edge43" class="edge">
<title>Node2&#45;&gt;Node36</title>
<path fill="none" stroke="midnightblue" d="M1043.26,-224.44C1073.12,-215.28 1120.69,-200.69 1153.83,-190.52"/>
<polygon fill="midnightblue" stroke="midnightblue" points="1155.08,-193.8 1163.61,-187.52 1153.03,-187.1 1155.08,-193.8"/>
</g>
<!-- Node37 -->
<g id="node37" class="node">
<title>Node37</title>
<g id="a_node37"><a xlink:title=" ">
<polygon fill="none" stroke="#bfbfbf" points="1260.37,-168.5 1260.37,-187.5 1310.37,-187.5 1310.37,-168.5 1260.37,-168.5"/>
<text text-anchor="middle" x="1285.37" y="-175.5" font-family="Helvetica,sans-Serif" font-size="10.00">cstdint</text>
</a>
</g>
</g>
<!-- Node2&#45;&gt;Node37 -->
<g id="edge45" class="edge">
<title>Node2&#45;&gt;Node37</title>
<path fill="none" stroke="midnightblue" d="M1065.77,-224.45C1111.54,-216.45 1181.12,-203.69 1250.4,-188.1"/>
<polygon fill="midnightblue" stroke="midnightblue" points="1251.19,-191.51 1260.17,-185.88 1249.64,-184.68 1251.19,-191.51"/>
</g>
<!-- Node38 -->
<g id="node38" class="node">
<title>Node38</title>
<g id="a_node38"><a xlink:title=" ">
<polygon fill="none" stroke="#bfbfbf" points="1328.37,-168.5 1328.37,-187.5 1374.37,-187.5 1374.37,-168.5 1328.37,-168.5"/>
<text text-anchor="middle" x="1351.37" y="-175.5" font-family="Helvetica,sans-Serif" font-size="10.00">cstdio</text>
</a>
</g>
</g>
<!-- Node2&#45;&gt;Node38 -->
<g id="edge46" class="edge">
<title>Node2&#45;&gt;Node38</title>
<path fill="none" stroke="midnightblue" d="M1080.44,-225.8C1140.05,-218.65 1230.87,-206.38 1318.23,-188.02"/>
<polygon fill="midnightblue" stroke="midnightblue" points="1318.99,-191.44 1328.04,-185.93 1317.53,-184.59 1318.99,-191.44"/>
</g>
<!-- Node39 -->
<g id="node39" class="node">
<title>Node39</title>
<g id="a_node39"><a xlink:title=" ">
<polygon fill="none" stroke="#bfbfbf" points="1392.87,-168.5 1392.87,-187.5 1457.87,-187.5 1457.87,-168.5 1392.87,-168.5"/>
<text text-anchor="middle" x="1425.37" y="-175.5" font-family="Helvetica,sans-Serif" font-size="10.00">exception</text>
</a>
</g>
</g>
<!-- Node2&#45;&gt;Node39 -->
<g id="edge47" class="edge">
<title>Node2&#45;&gt;Node39</title>
<path fill="none" stroke="midnightblue" d="M1080.44,-226.82C1152.02,-219.62 1270.64,-206.52 1382.74,-187.96"/>
<polygon fill="midnightblue" stroke="midnightblue" points="1383.58,-191.37 1392.87,-186.27 1382.43,-184.46 1383.58,-191.37"/>
</g>
<!-- Node40 -->
<g id="node40" class="node">
<title>Node40</title>
<g id="a_node40"><a xlink:title=" ">
<polygon fill="none" stroke="#bfbfbf" points="1475.87,-168.5 1475.87,-187.5 1540.87,-187.5 1540.87,-168.5 1475.87,-168.5"/>
<text text-anchor="middle" x="1508.37" y="-175.5" font-family="Helvetica,sans-Serif" font-size="10.00">stdexcept</text>
</a>
</g>
</g>
<!-- Node2&#45;&gt;Node40 -->
<g id="edge49" class="edge">
<title>Node2&#45;&gt;Node40</title>
<path fill="none" stroke="midnightblue" d="M1080.42,-228.92C1166.46,-222.99 1322.94,-210.37 1465.52,-188.14"/>
<polygon fill="midnightblue" stroke="midnightblue" points="1466.43,-191.54 1475.76,-186.52 1465.34,-184.62 1466.43,-191.54"/>
</g>
<!-- Node4 -->
<g id="node4" class="node">
<title>Node4</title>
<g id="a_node4"><a xlink:href="ConfParser_8hpp.html" target="_top" xlink:title=" ">
<polygon fill="none" stroke="black" points="849.87,-112.5 849.87,-131.5 940.87,-131.5 940.87,-112.5 849.87,-112.5"/>
<text text-anchor="middle" x="895.37" y="-119.5" font-family="Helvetica,sans-Serif" font-size="10.00">ConfParser.hpp</text>
</a>
</g>
</g>
<!-- Node3&#45;&gt;Node4 -->
<g id="edge3" class="edge">
<title>Node3&#45;&gt;Node4</title>
<path fill="none" stroke="midnightblue" d="M802.2,-168.32C820.09,-159.62 847.85,-146.12 868.42,-136.11"/>
<polygon fill="midnightblue" stroke="midnightblue" points="870.12,-139.18 877.58,-131.65 867.06,-132.88 870.12,-139.18"/>
</g>
<!-- Node7 -->
<g id="node7" class="node">
<title>Node7</title>
<g id="a_node7"><a xlink:title=" ">
<polygon fill="none" stroke="#bfbfbf" points="603.37,-56.5 603.37,-75.5 647.37,-75.5 647.37,-56.5 603.37,-56.5"/>
<text text-anchor="middle" x="625.37" y="-63.5" font-family="Helvetica,sans-Serif" font-size="10.00">string</text>
</a>
</g>
</g>
<!-- Node3&#45;&gt;Node7 -->
<g id="edge26" class="edge">
<title>Node3&#45;&gt;Node7</title>
<path fill="none" stroke="midnightblue" d="M735.55,-172.78C705.48,-167.69 668.24,-156.51 644.37,-132 632.46,-119.77 627.95,-100.51 626.28,-86.12"/>
<polygon fill="midnightblue" stroke="midnightblue" points="629.74,-85.54 625.45,-75.85 622.76,-86.1 629.74,-85.54"/>
</g>
<!-- Node8 -->
<g id="node8" class="node">
<title>Node8</title>
<g id="a_node8"><a xlink:href="Iter_8hpp.html" target="_top" xlink:title=" ">
<polygon fill="none" stroke="black" points="653.37,-112.5 653.37,-131.5 707.37,-131.5 707.37,-112.5 653.37,-112.5"/>
<text text-anchor="middle" x="680.37" y="-119.5" font-family="Helvetica,sans-Serif" font-size="10.00">Iter.hpp</text>
</a>
</g>
</g>
<!-- Node3&#45;&gt;Node8 -->
<g id="edge7" class="edge">
<title>Node3&#45;&gt;Node8</title>
<path fill="none" stroke="midnightblue" d="M767.66,-168.32C751.06,-159.7 725.37,-146.36 706.15,-136.39"/>
<polygon fill="midnightblue" stroke="midnightblue" points="707.53,-133.16 697.04,-131.65 704.3,-139.37 707.53,-133.16"/>
</g>
<!-- Node3&#45;&gt;Node9 -->
<g id="edge8" class="edge">
<title>Node3&#45;&gt;Node9</title>
<path fill="none" stroke="midnightblue" d="M735.68,-170.54C657.94,-160.23 506.53,-140.14 427.74,-129.68"/>
<polygon fill="midnightblue" stroke="midnightblue" points="427.95,-126.18 417.58,-128.33 427.03,-133.12 427.95,-126.18"/>
</g>
<!-- Node22 -->
<g id="node22" class="node">
<title>Node22</title>
<g id="a_node22"><a xlink:title=" ">
<polygon fill="none" stroke="#bfbfbf" points="725.87,-112.5 725.87,-131.5 780.87,-131.5 780.87,-112.5 725.87,-112.5"/>
<text text-anchor="middle" x="753.37" y="-119.5" font-family="Helvetica,sans-Serif" font-size="10.00">fstream</text>
</a>
</g>
</g>
<!-- Node3&#45;&gt;Node22 -->
<g id="edge23" class="edge">
<title>Node3&#45;&gt;Node22</title>
<path fill="none" stroke="midnightblue" d="M779.25,-168.08C774.96,-160.61 768.71,-149.72 763.43,-140.52"/>
<polygon fill="midnightblue" stroke="midnightblue" points="766.41,-138.68 758.39,-131.75 760.34,-142.17 766.41,-138.68"/>
</g>
<!-- Node3&#45;&gt;Node23 -->
<g id="edge24" class="edge">
<title>Node3&#45;&gt;Node23</title>
<path fill="none" stroke="midnightblue" d="M830.94,-168.5C875.57,-160.22 945.07,-147 1014.55,-132.11"/>
<polygon fill="midnightblue" stroke="midnightblue" points="1015.31,-135.53 1024.35,-130 1013.84,-128.68 1015.31,-135.53"/>
</g>
<!-- Node24 -->
<g id="node24" class="node">
<title>Node24</title>
<g id="a_node24"><a xlink:title=" ">
<polygon fill="none" stroke="#bfbfbf" points="799.37,-112.5 799.37,-131.5 831.37,-131.5 831.37,-112.5 799.37,-112.5"/>
<text text-anchor="middle" x="815.37" y="-119.5" font-family="Helvetica,sans-Serif" font-size="10.00">set</text>
</a>
</g>
</g>
<!-- Node3&#45;&gt;Node24 -->
<g id="edge25" class="edge">
<title>Node3&#45;&gt;Node24</title>
<path fill="none" stroke="midnightblue" d="M789.49,-168.08C793.78,-160.61 800.03,-149.72 805.31,-140.52"/>
<polygon fill="midnightblue" stroke="midnightblue" points="808.4,-142.17 810.35,-131.75 802.33,-138.68 808.4,-142.17"/>
</g>
<!-- Node25 -->
<g id="node25" class="node">
<title>Node25</title>
<g id="a_node25"><a xlink:title=" ">
<polygon fill="none" stroke="#bfbfbf" points="511.37,-112.5 511.37,-131.5 597.37,-131.5 597.37,-112.5 511.37,-112.5"/>
<text text-anchor="middle" x="554.37" y="-119.5" font-family="Helvetica,sans-Serif" font-size="10.00">unordered_set</text>
</a>
</g>
</g>
<!-- Node3&#45;&gt;Node25 -->
<g id="edge27" class="edge">
<title>Node3&#45;&gt;Node25</title>
<path fill="none" stroke="midnightblue" d="M747.93,-168.44C707.97,-159.06 643.78,-143.99 600.39,-133.8"/>
<polygon fill="midnightblue" stroke="midnightblue" points="601.18,-130.39 590.64,-131.52 599.58,-137.21 601.18,-130.39"/>
</g>
<!-- Node3&#45;&gt;Node26 -->
<g id="edge28" class="edge">
<title>Node3&#45;&gt;Node26</title>
<path fill="none" stroke="midnightblue" d="M815.74,-168.44C852.03,-158.55 911.52,-142.32 948.73,-132.17"/>
<polygon fill="midnightblue" stroke="midnightblue" points="949.87,-135.49 958.6,-129.48 948.03,-128.74 949.87,-135.49"/>
</g>
<!-- Node5 -->
<g id="node5" class="node">
<title>Node5</title>
<g id="a_node5"><a xlink:title=" ">
<polygon fill="none" stroke="#bfbfbf" points="844.37,-56.5 844.37,-75.5 882.37,-75.5 882.37,-56.5 844.37,-56.5"/>
<text text-anchor="middle" x="863.37" y="-63.5" font-family="Helvetica,sans-Serif" font-size="10.00">map</text>
</a>
</g>
</g>
<!-- Node4&#45;&gt;Node5 -->
<g id="edge4" class="edge">
<title>Node4&#45;&gt;Node5</title>
<path fill="none" stroke="midnightblue" d="M890.09,-112.08C885.66,-104.61 879.21,-93.72 873.75,-84.52"/>
<polygon fill="midnightblue" stroke="midnightblue" points="876.67,-82.57 868.56,-75.75 870.64,-86.14 876.67,-82.57"/>
</g>
<!-- Node6 -->
<g id="node6" class="node">
<title>Node6</title>
<g id="a_node6"><a xlink:title=" ">
<polygon fill="none" stroke="#bfbfbf" points="900.37,-56.5 900.37,-75.5 956.37,-75.5 956.37,-56.5 900.37,-56.5"/>
<text text-anchor="middle" x="928.37" y="-63.5" font-family="Helvetica,sans-Serif" font-size="10.00">sstream</text>
</a>
</g>
</g>
<!-- Node4&#45;&gt;Node6 -->
<g id="edge5" class="edge">
<title>Node4&#45;&gt;Node6</title>
<path fill="none" stroke="midnightblue" d="M900.82,-112.08C905.39,-104.61 912.04,-93.72 917.66,-84.52"/>
<polygon fill="midnightblue" stroke="midnightblue" points="920.79,-86.11 923.02,-75.75 914.82,-82.46 920.79,-86.11"/>
</g>
<!-- Node4&#45;&gt;Node7 -->
<g id="edge6" class="edge">
<title>Node4&#45;&gt;Node7</title>
<path fill="none" stroke="midnightblue" d="M852.59,-112.44C798.42,-101.61 706.32,-83.19 657.68,-73.46"/>
<polygon fill="midnightblue" stroke="midnightblue" points="658.19,-70 647.7,-71.47 656.82,-76.86 658.19,-70"/>
</g>
<!-- Node9&#45;&gt;Node7 -->
<g id="edge20" class="edge">
<title>Node9&#45;&gt;Node7</title>
<path fill="none" stroke="midnightblue" d="M416.67,-112.44C465.58,-101.79 548.17,-83.81 593.4,-73.96"/>
<polygon fill="midnightblue" stroke="midnightblue" points="594.23,-77.36 603.25,-71.82 592.74,-70.52 594.23,-77.36"/>
</g>
<!-- Node9&#45;&gt;Node10 -->
<g id="edge9" class="edge">
<title>Node9&#45;&gt;Node10</title>
<path fill="none" stroke="midnightblue" d="M400.03,-112.44C423.77,-103.48 461.28,-89.31 488.11,-79.18"/>
<polygon fill="midnightblue" stroke="midnightblue" points="489.7,-82.32 497.82,-75.52 487.23,-75.77 489.7,-82.32"/>
</g>
<!-- Node12 -->
<g id="node12" class="node">
<title>Node12</title>
<g id="a_node12"><a xlink:title=" ">
<polygon fill="none" stroke="#bfbfbf" points="272.37,-0.5 272.37,-19.5 314.37,-19.5 314.37,-0.5 272.37,-0.5"/>
<text text-anchor="middle" x="293.37" y="-7.5" font-family="Helvetica,sans-Serif" font-size="10.00">array</text>
</a>
</g>
</g>
<!-- Node9&#45;&gt;Node12 -->
<g id="edge17" class="edge">
<title>Node9&#45;&gt;Node12</title>
<path fill="none" stroke="midnightblue" d="M369.31,-112.28C361.21,-103.38 348.51,-89.07 338.37,-76 326.18,-60.29 313.38,-41.55 304.56,-28.24"/>
<polygon fill="midnightblue" stroke="midnightblue" points="307.32,-26.06 298.91,-19.62 301.47,-29.9 307.32,-26.06"/>
</g>
<!-- Node9&#45;&gt;Node18 -->
<g id="edge18" class="edge">
<title>Node9&#45;&gt;Node18</title>
<path fill="none" stroke="midnightblue" d="M388.94,-112.32C399.79,-104.18 416.25,-91.84 429.25,-82.09"/>
<polygon fill="midnightblue" stroke="midnightblue" points="431.69,-84.63 437.59,-75.83 427.49,-79.03 431.69,-84.63"/>
</g>
<!-- Node19 -->
<g id="node19" class="node">
<title>Node19</title>
<g id="a_node19"><a xlink:title=" ">
<polygon fill="none" stroke="#bfbfbf" points="347.37,-56.5 347.37,-75.5 407.37,-75.5 407.37,-56.5 347.37,-56.5"/>
<text text-anchor="middle" x="377.37" y="-63.5" font-family="Helvetica,sans-Serif" font-size="10.00">iostream</text>
</a>
</g>
</g>
<!-- Node9&#45;&gt;Node19 -->
<g id="edge19" class="edge">
<title>Node9&#45;&gt;Node19</title>
<path fill="none" stroke="midnightblue" d="M377.37,-112.08C377.37,-105.01 377.37,-94.86 377.37,-85.99"/>
<polygon fill="midnightblue" stroke="midnightblue" points="380.87,-85.75 377.37,-75.75 373.87,-85.75 380.87,-85.75"/>
</g>
<!-- Node20 -->
<g id="node20" class="node">
<title>Node20</title>
<g id="a_node20"><a xlink:title=" ">
<polygon fill="none" stroke="#bfbfbf" points="19.87,-56.5 19.87,-75.5 144.87,-75.5 144.87,-56.5 19.87,-56.5"/>
<text text-anchor="middle" x="82.37" y="-63.5" font-family="Helvetica,sans-Serif" font-size="10.00">cereal/types/array.hpp</text>
</a>
</g>
</g>
<!-- Node9&#45;&gt;Node20 -->
<g id="edge21" class="edge">
<title>Node9&#45;&gt;Node20</title>
<path fill="none" stroke="midnightblue" d="M337.28,-113.66C286.16,-104.3 197.43,-88.06 139.31,-77.42"/>
<polygon fill="midnightblue" stroke="midnightblue" points="139.66,-73.93 129.19,-75.57 138.4,-80.81 139.66,-73.93"/>
</g>
<!-- Node21 -->
<g id="node21" class="node">
<title>Node21</title>
<g id="a_node21"><a xlink:title=" ">
<polygon fill="none" stroke="#bfbfbf" points="163.37,-56.5 163.37,-75.5 291.37,-75.5 291.37,-56.5 163.37,-56.5"/>
<text text-anchor="middle" x="227.37" y="-63.5" font-family="Helvetica,sans-Serif" font-size="10.00">cereal/types/string.hpp</text>
</a>
</g>
</g>
<!-- Node9&#45;&gt;Node21 -->
<g id="edge22" class="edge">
<title>Node9&#45;&gt;Node21</title>
<path fill="none" stroke="midnightblue" d="M353.6,-112.44C328.48,-103.4 288.66,-89.06 260.47,-78.92"/>
<polygon fill="midnightblue" stroke="midnightblue" points="261.62,-75.61 251.03,-75.52 259.25,-82.2 261.62,-75.61"/>
</g>
<!-- Node11 -->
<g id="node11" class="node">
<title>Node11</title>
<g id="a_node11"><a xlink:title=" ">
<polygon fill="none" stroke="#bfbfbf" points="727.37,-0.5 727.37,-19.5 791.37,-19.5 791.37,-0.5 727.37,-0.5"/>
<text text-anchor="middle" x="759.37" y="-7.5" font-family="Helvetica,sans-Serif" font-size="10.00">algorithm</text>
</a>
</g>
</g>
<!-- Node10&#45;&gt;Node11 -->
<g id="edge10" class="edge">
<title>Node10&#45;&gt;Node11</title>
<path fill="none" stroke="midnightblue" d="M550.16,-58.27C592.33,-48.74 669.63,-31.28 717.55,-20.45"/>
<polygon fill="midnightblue" stroke="midnightblue" points="718.32,-23.86 727.3,-18.25 716.77,-17.04 718.32,-23.86"/>
</g>
<!-- Node10&#45;&gt;Node12 -->
<g id="edge11" class="edge">
<title>Node10&#45;&gt;Node12</title>
<path fill="none" stroke="midnightblue" d="M490.56,-58.11C487.46,-57.4 484.35,-56.68 481.37,-56 414.19,-40.59 394.67,-38.52 324.41,-20.15"/>
<polygon fill="midnightblue" stroke="midnightblue" points="325.19,-16.73 314.63,-17.57 323.4,-23.5 325.19,-16.73"/>
</g>
<!-- Node13 -->
<g id="node13" class="node">
<title>Node13</title>
<g id="a_node13"><a xlink:title=" ">
<polygon fill="none" stroke="#bfbfbf" points="332.87,-0.5 332.87,-19.5 391.87,-19.5 391.87,-0.5 332.87,-0.5"/>
<text text-anchor="middle" x="362.37" y="-7.5" font-family="Helvetica,sans-Serif" font-size="10.00">complex</text>
</a>
</g>
</g>
<!-- Node10&#45;&gt;Node13 -->
<g id="edge12" class="edge">
<title>Node10&#45;&gt;Node13</title>
<path fill="none" stroke="midnightblue" d="M495.34,-56.44C468.75,-47.36 426.56,-32.94 396.85,-22.78"/>
<polygon fill="midnightblue" stroke="midnightblue" points="397.88,-19.44 387.29,-19.52 395.62,-26.06 397.88,-19.44"/>
</g>
<!-- Node14 -->
<g id="node14" class="node">
<title>Node14</title>
<g id="a_node14"><a xlink:title=" ">
<polygon fill="none" stroke="#bfbfbf" points="409.87,-0.5 409.87,-19.5 474.87,-19.5 474.87,-0.5 409.87,-0.5"/>
<text text-anchor="middle" x="442.37" y="-7.5" font-family="Helvetica,sans-Serif" font-size="10.00">functional</text>
</a>
</g>
</g>
<!-- Node10&#45;&gt;Node14 -->
<g id="edge13" class="edge">
<title>Node10&#45;&gt;Node14</title>
<path fill="none" stroke="midnightblue" d="M507.84,-56.32C495.78,-47.98 477.34,-35.21 463.1,-25.35"/>
<polygon fill="midnightblue" stroke="midnightblue" points="465.09,-22.47 454.87,-19.65 461.1,-28.22 465.09,-22.47"/>
</g>
<!-- Node15 -->
<g id="node15" class="node">
<title>Node15</title>
<g id="a_node15"><a xlink:title=" ">
<polygon fill="none" stroke="#bfbfbf" points="493.37,-0.5 493.37,-19.5 547.37,-19.5 547.37,-0.5 493.37,-0.5"/>
<text text-anchor="middle" x="520.37" y="-7.5" font-family="Helvetica,sans-Serif" font-size="10.00">random</text>
</a>
</g>
</g>
<!-- Node10&#45;&gt;Node15 -->
<g id="edge14" class="edge">
<title>Node10&#45;&gt;Node15</title>
<path fill="none" stroke="midnightblue" d="M520.37,-56.08C520.37,-49.01 520.37,-38.86 520.37,-29.99"/>
<polygon fill="midnightblue" stroke="midnightblue" points="523.87,-29.75 520.37,-19.75 516.87,-29.75 523.87,-29.75"/>
</g>
<!-- Node16 -->
<g id="node16" class="node">
<title>Node16</title>
<g id="a_node16"><a xlink:title=" ">
<polygon fill="none" stroke="#bfbfbf" points="565.87,-0.5 565.87,-19.5 634.87,-19.5 634.87,-0.5 565.87,-0.5"/>
<text text-anchor="middle" x="600.37" y="-7.5" font-family="Helvetica,sans-Serif" font-size="10.00">type_traits</text>
</a>
</g>
</g>
<!-- Node10&#45;&gt;Node16 -->
<g id="edge15" class="edge">
<title>Node10&#45;&gt;Node16</title>
<path fill="none" stroke="midnightblue" d="M533.22,-56.32C545.59,-47.98 564.5,-35.21 579.11,-25.35"/>
<polygon fill="midnightblue" stroke="midnightblue" points="581.22,-28.15 587.55,-19.65 577.3,-22.35 581.22,-28.15"/>
</g>
<!-- Node17 -->
<g id="node17" class="node">
<title>Node17</title>
<g id="a_node17"><a xlink:title=" ">
<polygon fill="none" stroke="#bfbfbf" points="653.37,-0.5 653.37,-19.5 709.37,-19.5 709.37,-0.5 653.37,-0.5"/>
<text text-anchor="middle" x="681.37" y="-7.5" font-family="Helvetica,sans-Serif" font-size="10.00">unistd.h</text>
</a>
</g>
</g>
<!-- Node10&#45;&gt;Node17 -->
<g id="edge16" class="edge">
<title>Node10&#45;&gt;Node17</title>
<path fill="none" stroke="midnightblue" d="M545.88,-56.44C572.97,-47.36 615.96,-32.94 646.24,-22.78"/>
<polygon fill="midnightblue" stroke="midnightblue" points="647.61,-26.01 655.98,-19.52 645.39,-19.38 647.61,-26.01"/>
</g>
<!-- Node27&#45;&gt;Node23 -->
<g id="edge31" class="edge">
<title>Node27&#45;&gt;Node23</title>
<path fill="none" stroke="midnightblue" d="M1070.9,-168.08C1068.06,-160.77 1063.94,-150.18 1060.41,-141.1"/>
<polygon fill="midnightblue" stroke="midnightblue" points="1063.66,-139.8 1056.77,-131.75 1057.14,-142.34 1063.66,-139.8"/>
</g>
<!-- Node27&#45;&gt;Node26 -->
<g id="edge35" class="edge">
<title>Node27&#45;&gt;Node26</title>
<path fill="none" stroke="midnightblue" d="M1059.59,-168.32C1045.1,-159.82 1022.8,-146.73 1005.88,-136.8"/>
<polygon fill="midnightblue" stroke="midnightblue" points="1007.51,-133.7 997.12,-131.65 1003.97,-139.74 1007.51,-133.7"/>
</g>
<!-- Node28 -->
<g id="node28" class="node">
<title>Node28</title>
<g id="a_node28"><a xlink:title=" ">
<polygon fill="none" stroke="#bfbfbf" points="1369.87,-112.5 1369.87,-131.5 1422.87,-131.5 1422.87,-112.5 1369.87,-112.5"/>
<text text-anchor="middle" x="1396.37" y="-119.5" font-family="Helvetica,sans-Serif" font-size="10.00">iterator</text>
</a>
</g>
</g>
<!-- Node27&#45;&gt;Node28 -->
<g id="edge30" class="edge">
<title>Node27&#45;&gt;Node28</title>
<path fill="none" stroke="midnightblue" d="M1121.96,-169.48C1125.14,-168.98 1128.3,-168.48 1131.37,-168 1230.39,-152.43 1258.31,-152.86 1359.64,-132.21"/>
<polygon fill="midnightblue" stroke="midnightblue" points="1360.59,-135.59 1369.68,-130.15 1359.18,-128.73 1360.59,-135.59"/>
</g>
<!-- Node29 -->
<g id="node29" class="node">
<title>Node29</title>
<g id="a_node29"><a xlink:title=" ">
<polygon fill="none" stroke="#bfbfbf" points="1100.87,-112.5 1100.87,-131.5 1165.87,-131.5 1165.87,-112.5 1100.87,-112.5"/>
<text text-anchor="middle" x="1133.37" y="-119.5" font-family="Helvetica,sans-Serif" font-size="10.00">typeindex</text>
</a>
</g>
</g>
<!-- Node27&#45;&gt;Node29 -->
<g id="edge32" class="edge">
<title>Node27&#45;&gt;Node29</title>
<path fill="none" stroke="midnightblue" d="M1083.85,-168.32C1092.57,-160.34 1105.71,-148.31 1116.27,-138.65"/>
<polygon fill="midnightblue" stroke="midnightblue" points="1118.71,-141.17 1123.72,-131.83 1113.98,-136 1118.71,-141.17"/>
</g>
<!-- Node30 -->
<g id="node30" class="node">
<title>Node30</title>
<g id="a_node30"><a xlink:title=" ">
<polygon fill="none" stroke="#bfbfbf" points="1183.87,-112.5 1183.87,-131.5 1240.87,-131.5 1240.87,-112.5 1183.87,-112.5"/>
<text text-anchor="middle" x="1212.37" y="-119.5" font-family="Helvetica,sans-Serif" font-size="10.00">typeinfo</text>
</a>
</g>
</g>
<!-- Node27&#45;&gt;Node30 -->
<g id="edge33" class="edge">
<title>Node27&#45;&gt;Node30</title>
<path fill="none" stroke="midnightblue" d="M1096.24,-168.44C1119.15,-159.48 1155.35,-145.31 1181.24,-135.18"/>
<polygon fill="midnightblue" stroke="midnightblue" points="1182.57,-138.42 1190.61,-131.52 1180.02,-131.9 1182.57,-138.42"/>
</g>
<!-- Node31 -->
<g id="node31" class="node">
<title>Node31</title>
<g id="a_node31"><a xlink:title=" ">
<polygon fill="none" stroke="#bfbfbf" points="1258.87,-112.5 1258.87,-131.5 1351.87,-131.5 1351.87,-112.5 1258.87,-112.5"/>
<text text-anchor="middle" x="1305.37" y="-119.5" font-family="Helvetica,sans-Serif" font-size="10.00">unordered_map</text>
</a>
</g>
</g>
<!-- Node27&#45;&gt;Node31 -->
<g id="edge34" class="edge">
<title>Node27&#45;&gt;Node31</title>
<path fill="none" stroke="midnightblue" d="M1110.97,-168.44C1151.1,-159.06 1215.57,-143.99 1259.16,-133.8"/>
<polygon fill="midnightblue" stroke="midnightblue" points="1260,-137.2 1268.94,-131.52 1258.41,-130.38 1260,-137.2"/>
</g>
<!-- Node32&#45;&gt;Node12 -->
<g id="edge38" class="edge">
<title>Node32&#45;&gt;Node12</title>
<path fill="none" stroke="midnightblue" d="M139.11,-168.43C81.7,-150.72 -33.54,-107.45 10.37,-56 42.42,-18.45 194.85,-12.08 261.76,-11.11"/>
<polygon fill="midnightblue" stroke="midnightblue" points="262.14,-14.6 272.1,-10.99 262.06,-7.6 262.14,-14.6"/>
</g>
<!-- Node33 -->
<g id="node33" class="node">
<title>Node33</title>
<g id="a_node33"><a xlink:title=" ">
<polygon fill="none" stroke="#bfbfbf" points="144.37,-112.5 144.37,-131.5 194.37,-131.5 194.37,-112.5 144.37,-112.5"/>
<text text-anchor="middle" x="169.37" y="-119.5" font-family="Helvetica,sans-Serif" font-size="10.00">climits</text>
</a>
</g>
</g>
<!-- Node32&#45;&gt;Node33 -->
<g id="edge39" class="edge">
<title>Node32&#45;&gt;Node33</title>
<path fill="none" stroke="midnightblue" d="M169.37,-168.08C169.37,-161.01 169.37,-150.86 169.37,-141.99"/>
<polygon fill="midnightblue" stroke="midnightblue" points="172.87,-141.75 169.37,-131.75 165.87,-141.75 172.87,-141.75"/>
</g>
<!-- Node35 -->
<g id="node35" class="node">
<title>Node35</title>
<g id="a_node35"><a xlink:title=" ">
<polygon fill="none" stroke="#bfbfbf" points="1575.87,-112.5 1575.87,-131.5 1644.87,-131.5 1644.87,-112.5 1575.87,-112.5"/>
<text text-anchor="middle" x="1610.37" y="-119.5" font-family="Helvetica,sans-Serif" font-size="10.00">Eigen/Core</text>
</a>
</g>
</g>
<!-- Node34&#45;&gt;Node35 -->
<g id="edge42" class="edge">
<title>Node34&#45;&gt;Node35</title>
<path fill="none" stroke="midnightblue" d="M1610.37,-168.08C1610.37,-161.01 1610.37,-150.86 1610.37,-141.99"/>
<polygon fill="midnightblue" stroke="midnightblue" points="1613.87,-141.75 1610.37,-131.75 1606.87,-141.75 1613.87,-141.75"/>
</g>
</g>
</svg>
        <g id="navigator" transform="translate(0 0)" fill="#404254">
                <rect fill="#f2f5e9" fill-opacity="0.5" stroke="#606060" stroke-width=".5" x="0" y="0" width="60" height="60"/>
                <use id="zoomplus" xlink:href="#zoomPlus" x="17" y="9" onmousedown="handleZoom(evt,'in')"/>
                <use id="zoomminus" xlink:href="#zoomMin" x="42" y="9" onmousedown="handleZoom(evt,'out')"/>
                <use id="reset" xlink:href="#resetDef" x="30" y="36" onmousedown="handleReset()"/>
                <g id="arrowUp" xlink:href="#dirArrow" transform="translate(30 24)" onmousedown="handlePan(0,-1)">
                  <use xlink:href="#rim" fill="#404040">
                        <set attributeName="fill" to="#808080" begin="arrowUp.mouseover" end="arrowUp.mouseout"/>
                  </use>
                  <path fill="none" stroke="white" stroke-width="1.5" d="M0,-3.0v7 M-2.5,-0.5L0,-3.0L2.5,-0.5"/>
                </g>
                <g id="arrowRight" xlink:href="#dirArrow" transform="rotate(90) translate(36 -43)" onmousedown="handlePan(1,0)">
                  <use xlink:href="#rim" fill="#404040">
                        <set attributeName="fill" to="#808080" begin="arrowRight.mouseover" end="arrowRight.mouseout"/>
                  </use>
                  <path fill="none" stroke="white" stroke-width="1.5" d="M0,-3.0v7 M-2.5,-0.5L0,-3.0L2.5,-0.5"/>
                </g>
                <g id="arrowDown" xlink:href="#dirArrow" transform="rotate(180) translate(-30 -48)" onmousedown="handlePan(0,1)">
                  <use xlink:href="#rim" fill="#404040">
                        <set attributeName="fill" to="#808080" begin="arrowDown.mouseover" end="arrowDown.mouseout"/>
                  </use>
                  <path fill="none" stroke="white" stroke-width="1.5" d="M0,-3.0v7 M-2.5,-0.5L0,-3.0L2.5,-0.5"/>
                </g>
                <g id="arrowLeft" xlink:href="#dirArrow" transform="rotate(270) translate(-36 17)" onmousedown="handlePan(-1,0)">
                  <use xlink:href="#rim" fill="#404040">
                        <set attributeName="fill" to="#808080" begin="arrowLeft.mouseover" end="arrowLeft.mouseout"/>
                  </use>
                  <path fill="none" stroke="white" stroke-width="1.5" d="M0,-3.0v7 M-2.5,-0.5L0,-3.0L2.5,-0.5"/>
                </g>
        </g>
        <svg viewBox="0 0 15 15" width="100%" height="30px" preserveAspectRatio="xMaxYMin meet">
         <g id="arrow_out" transform="scale(0.3 0.3)">
          <a xlink:href="Hamiltonian_8hpp__incl_org.svg" target="_base">
           <rect id="button" ry="5" rx="5" y="6" x="6" height="38" width="38"
                fill="#f2f5e9" fill-opacity="0.5" stroke="#606060" stroke-width="1.0"/>
           <path id="arrow"
             d="M 11.500037,31.436501 C 11.940474,20.09759 22.043105,11.32322 32.158766,21.979434 L 37.068811,17.246167 C 37.068811,17.246167 37.088388,32 37.088388,32 L 22.160133,31.978069 C 22.160133,31.978069 26.997745,27.140456 26.997745,27.140456 C 18.528582,18.264221 13.291696,25.230495 11.500037,31.436501 z"
             style="fill:#404040;"/>
          </a>
         </g>
        </svg>
</svg>
