<?xml version="1.0" encoding="UTF-8" standalone="no"?>
<!DOCTYPE svg PUBLIC "-//W3C//DTD SVG 1.1//EN"
 "http://www.w3.org/Graphics/SVG/1.1/DTD/svg11.dtd">
<!-- Generated by graphviz version 2.43.0 (0)
 -->
<!-- Title: Graphical Class Hierarchy Pages: 1 -->
<svg width="283pt" height="137pt"
 viewBox="0.00 0.00 283.00 137.00" xmlns="http://www.w3.org/2000/svg" xmlns:xlink="http://www.w3.org/1999/xlink">
<g id="graph0" class="graph" transform="scale(1 1) rotate(0) translate(4 133)">
<title>Graphical Class Hierarchy</title>
<!-- Node72 -->
<g id="node1" class="node">
<title>Node72</title>
<g id="a_node1"><a xlink:title=" ">
<polygon fill="none" stroke="#bfbfbf" points="0,-55 0,-74 84,-74 84,-55 0,-55"/>
<text text-anchor="middle" x="42" y="-62" font-family="Helvetica,sans-Serif" font-size="10.00">std::true_type</text>
</a>
</g>
</g>
<!-- Node0 -->
<g id="node2" class="node">
<title>Node0</title>
<g id="a_node2"><a xlink:href="structtraits_1_1is__pointer__to__const_3_01T_01const_01_5_01_4.html" target="_top" xlink:title="Specialization of is_pointer_to_const for T const *.">
<polygon fill="none" stroke="black" points="133,-98.5 133,-128.5 262,-128.5 262,-98.5 133,-98.5"/>
<text text-anchor="start" x="141" y="-116.5" font-family="Helvetica,sans-Serif" font-size="10.00">traits::is_pointer</text>
<text text-anchor="middle" x="197.5" y="-105.5" font-family="Helvetica,sans-Serif" font-size="10.00">_to_const&lt; T const * &gt;</text>
</a>
</g>
</g>
<!-- Node72&#45;&gt;Node0 -->
<g id="edge1" class="edge">
<title>Node72&#45;&gt;Node0</title>
<path fill="none" stroke="midnightblue" d="M82.07,-77.27C94.22,-81.22 107.66,-85.56 120,-89.5 129.15,-92.42 138.92,-95.51 148.32,-98.47"/>
<polygon fill="midnightblue" stroke="midnightblue" points="82.82,-73.83 72.23,-74.07 80.65,-80.49 82.82,-73.83"/>
</g>
<!-- Node74 -->
<g id="node3" class="node">
<title>Node74</title>
<g id="a_node3"><a xlink:href="structtraits_1_1is__pointer__to__const_3_01T_01const_01_5const_01_4.html" target="_top" xlink:title="Specialization of is_pointer_to_const for T const * const.">
<polygon fill="none" stroke="black" points="120,-49.5 120,-79.5 275,-79.5 275,-49.5 120,-49.5"/>
<text text-anchor="start" x="128" y="-67.5" font-family="Helvetica,sans-Serif" font-size="10.00">traits::is_pointer</text>
<text text-anchor="middle" x="197.5" y="-56.5" font-family="Helvetica,sans-Serif" font-size="10.00">_to_const&lt; T const *const &gt;</text>
</a>
</g>
</g>
<!-- Node72&#45;&gt;Node74 -->
<g id="edge2" class="edge">
<title>Node72&#45;&gt;Node74</title>
<path fill="none" stroke="midnightblue" d="M94.33,-64.5C102.58,-64.5 111.29,-64.5 119.98,-64.5"/>
<polygon fill="midnightblue" stroke="midnightblue" points="94.14,-61 84.14,-64.5 94.14,-68 94.14,-61"/>
</g>
<!-- Node75 -->
<g id="node4" class="node">
<title>Node75</title>
<g id="a_node4"><a xlink:href="structutils_1_1is__complex_3_01std_1_1complex_3_01S_01_4_01_4.html" target="_top" xlink:title=" ">
<polygon fill="none" stroke="black" points="136.5,-0.5 136.5,-30.5 258.5,-30.5 258.5,-0.5 136.5,-0.5"/>
<text text-anchor="start" x="144.5" y="-18.5" font-family="Helvetica,sans-Serif" font-size="10.00">utils::is_complex&lt;</text>
<text text-anchor="middle" x="197.5" y="-7.5" font-family="Helvetica,sans-Serif" font-size="10.00"> std::complex&lt; S &gt; &gt;</text>
</a>
</g>
</g>
<!-- Node72&#45;&gt;Node75 -->
<g id="edge3" class="edge">
<title>Node72&#45;&gt;Node75</title>
<path fill="none" stroke="midnightblue" d="M82.57,-51.87C102.97,-45.36 128,-37.37 149.39,-30.54"/>
<polygon fill="midnightblue" stroke="midnightblue" points="81.42,-48.56 72.96,-54.94 83.55,-55.23 81.42,-48.56"/>
</g>
</g>
</svg>
