<?xml version="1.0" encoding="UTF-8" standalone="no"?>
<!DOCTYPE svg PUBLIC "-//W3C//DTD SVG 1.1//EN"
 "http://www.w3.org/Graphics/SVG/1.1/DTD/svg11.dtd">
<!-- Generated by graphviz version 2.43.0 (0)
 -->
<!-- Title: compute Pages: 1 -->
<svg width="607pt" height="192pt"
 viewBox="0.00 0.00 607.00 191.50" xmlns="http://www.w3.org/2000/svg" xmlns:xlink="http://www.w3.org/1999/xlink">
<g id="graph0" class="graph" transform="scale(1 1) rotate(0) translate(4 187.5)">
<title>compute</title>
<!-- Node1 -->
<g id="node1" class="node">
<title>Node1</title>
<g id="a_node1"><a xlink:title=" ">
<polygon fill="#bfbfbf" stroke="black" points="0,-88 0,-107 59,-107 59,-88 0,-88"/>
<text text-anchor="middle" x="29.5" y="-95" font-family="Helvetica,sans-Serif" font-size="10.00">compute</text>
</a>
</g>
</g>
<!-- Node2 -->
<g id="node2" class="node">
<title>Node2</title>
<g id="a_node2"><a xlink:href="classConfiguration.html#abe48f0d77849495ff50e92a51b6da4ed" target="_top" xlink:title="Number of elements matching specific key.">
<polygon fill="none" stroke="black" points="117,-164 117,-183 233,-183 233,-164 117,-164"/>
<text text-anchor="middle" x="175" y="-171" font-family="Helvetica,sans-Serif" font-size="10.00">Configuration::count</text>
</a>
</g>
</g>
<!-- Node1&#45;&gt;Node2 -->
<g id="edge1" class="edge">
<title>Node1&#45;&gt;Node2</title>
<path fill="none" stroke="midnightblue" d="M38.62,-107.16C49.93,-119.97 71.67,-142.36 95,-154.5 99.5,-156.84 104.29,-158.9 109.21,-160.71"/>
<polygon fill="midnightblue" stroke="midnightblue" points="108.18,-164.05 118.77,-163.89 110.39,-157.41 108.18,-164.05"/>
</g>
<!-- Node3 -->
<g id="node3" class="node">
<title>Node3</title>
<g id="a_node3"><a xlink:href="classBasisnamesOne.html#ab3030f74ccafcc178f38e7a8ada13b9b" target="_top" xlink:title=" ">
<polygon fill="none" stroke="black" points="101.5,-50 101.5,-69 248.5,-69 248.5,-50 101.5,-50"/>
<text text-anchor="middle" x="175" y="-57" font-family="Helvetica,sans-Serif" font-size="10.00">BasisnamesOne::fromBoth</text>
</a>
</g>
</g>
<!-- Node1&#45;&gt;Node3 -->
<g id="edge2" class="edge">
<title>Node1&#45;&gt;Node3</title>
<path fill="none" stroke="midnightblue" d="M59.31,-88.68C70.43,-85.36 83.27,-81.64 95,-78.5 103.91,-76.12 113.42,-73.71 122.64,-71.46"/>
<polygon fill="midnightblue" stroke="midnightblue" points="123.6,-74.82 132.49,-69.07 121.95,-68.02 123.6,-74.82"/>
</g>
<!-- Node9 -->
<g id="node9" class="node">
<title>Node9</title>
<g id="a_node9"><a xlink:href="classBasisnamesOne.html#a37fe3571090885a8a594eed4019befa9" target="_top" xlink:title=" ">
<polygon fill="none" stroke="black" points="102.5,-126 102.5,-145 247.5,-145 247.5,-126 102.5,-126"/>
<text text-anchor="middle" x="175" y="-133" font-family="Helvetica,sans-Serif" font-size="10.00">BasisnamesOne::fromFirst</text>
</a>
</g>
</g>
<!-- Node1&#45;&gt;Node9 -->
<g id="edge8" class="edge">
<title>Node1&#45;&gt;Node9</title>
<path fill="none" stroke="midnightblue" d="M59.31,-106.32C70.43,-109.64 83.27,-113.36 95,-116.5 103.91,-118.88 113.42,-121.29 122.64,-123.54"/>
<polygon fill="midnightblue" stroke="midnightblue" points="121.95,-126.98 132.49,-125.93 123.6,-120.18 121.95,-126.98"/>
</g>
<!-- Node10 -->
<g id="node10" class="node">
<title>Node10</title>
<g id="a_node10"><a xlink:href="classBasisnamesOne.html#a683ae34cba3c56f9a0185e932de62078" target="_top" xlink:title=" ">
<polygon fill="none" stroke="black" points="95,-88 95,-107 255,-107 255,-88 95,-88"/>
<text text-anchor="middle" x="175" y="-95" font-family="Helvetica,sans-Serif" font-size="10.00">BasisnamesOne::fromSecond</text>
</a>
</g>
</g>
<!-- Node1&#45;&gt;Node10 -->
<g id="edge10" class="edge">
<title>Node1&#45;&gt;Node10</title>
<path fill="none" stroke="midnightblue" d="M59.19,-97.5C66.88,-97.5 75.62,-97.5 84.76,-97.5"/>
<polygon fill="midnightblue" stroke="midnightblue" points="84.8,-101 94.8,-97.5 84.8,-94 84.8,-101"/>
</g>
<!-- Node11 -->
<g id="node11" class="node">
<title>Node11</title>
<g id="a_node11"><a xlink:href="classConfiguration.html#a545d28b3d64edc05331ee71898acfd1c" target="_top" xlink:title="Load configuration from JSON file.">
<polygon fill="none" stroke="black" points="120,-0.5 120,-30.5 230,-30.5 230,-0.5 120,-0.5"/>
<text text-anchor="start" x="128" y="-18.5" font-family="Helvetica,sans-Serif" font-size="10.00">Configuration::load</text>
<text text-anchor="middle" x="175" y="-7.5" font-family="Helvetica,sans-Serif" font-size="10.00">_from_json</text>
</a>
</g>
</g>
<!-- Node1&#45;&gt;Node11 -->
<g id="edge12" class="edge">
<title>Node1&#45;&gt;Node11</title>
<path fill="none" stroke="midnightblue" d="M39.15,-87.64C50.71,-75.04 72.37,-53.31 95,-40.5 99.77,-37.8 104.88,-35.35 110.11,-33.13"/>
<polygon fill="midnightblue" stroke="midnightblue" points="111.59,-36.31 119.61,-29.39 109.02,-29.8 111.59,-36.31"/>
</g>
<!-- Node4 -->
<g id="node4" class="node">
<title>Node4</title>
<g id="a_node4"><a xlink:href="classBasisnames.html#a534f7e2dcc2987a1f969cb89c070da04" target="_top" xlink:title=" ">
<polygon fill="none" stroke="black" points="291,-88 291,-107 419,-107 419,-88 291,-88"/>
<text text-anchor="middle" x="355" y="-95" font-family="Helvetica,sans-Serif" font-size="10.00">Basisnames::configure</text>
</a>
</g>
</g>
<!-- Node3&#45;&gt;Node4 -->
<g id="edge3" class="edge">
<title>Node3&#45;&gt;Node4</title>
<path fill="none" stroke="midnightblue" d="M220.92,-69.09C244.83,-74.19 274.42,-80.51 299.62,-85.89"/>
<polygon fill="midnightblue" stroke="midnightblue" points="298.9,-89.31 309.41,-87.98 300.36,-82.47 298.9,-89.31"/>
</g>
<!-- Node5 -->
<g id="node5" class="node">
<title>Node5</title>
<g id="a_node5"><a xlink:href="classStateTwoOld.html#a1d7ff079f51711e8a6f40946e5677be8" target="_top" xlink:title=" ">
<polygon fill="none" stroke="black" points="300.5,-50 300.5,-69 409.5,-69 409.5,-50 300.5,-50"/>
<text text-anchor="middle" x="355" y="-57" font-family="Helvetica,sans-Serif" font-size="10.00">StateTwoOld::order</text>
</a>
</g>
</g>
<!-- Node3&#45;&gt;Node5 -->
<g id="edge4" class="edge">
<title>Node3&#45;&gt;Node5</title>
<path fill="none" stroke="midnightblue" d="M248.66,-59.5C262.44,-59.5 276.78,-59.5 290.26,-59.5"/>
<polygon fill="midnightblue" stroke="midnightblue" points="290.39,-63 300.39,-59.5 290.39,-56 290.39,-63"/>
</g>
<!-- Node6 -->
<g id="node6" class="node">
<title>Node6</title>
<g id="a_node6"><a xlink:href="classStateTwoOld.html#aad5fb4307dec316a5b602c2e8bfae0a8" target="_top" xlink:title=" ">
<polygon fill="none" stroke="black" points="475.5,-88 475.5,-107 578.5,-107 578.5,-88 475.5,-88"/>
<text text-anchor="middle" x="527" y="-95" font-family="Helvetica,sans-Serif" font-size="10.00">StateTwoOld::first</text>
</a>
</g>
</g>
<!-- Node5&#45;&gt;Node6 -->
<g id="edge5" class="edge">
<title>Node5&#45;&gt;Node6</title>
<path fill="none" stroke="midnightblue" d="M398.9,-69.09C421.53,-74.15 449.5,-80.4 473.43,-85.75"/>
<polygon fill="midnightblue" stroke="midnightblue" points="472.89,-89.21 483.41,-87.98 474.41,-82.38 472.89,-89.21"/>
</g>
<!-- Node7 -->
<g id="node7" class="node">
<title>Node7</title>
<g id="a_node7"><a xlink:href="classStateTwoOld.html#a6efa9c8f92e433004b778f6f5ce212d9" target="_top" xlink:title=" ">
<polygon fill="none" stroke="black" points="468,-50 468,-69 586,-69 586,-50 468,-50"/>
<text text-anchor="middle" x="527" y="-57" font-family="Helvetica,sans-Serif" font-size="10.00">StateTwoOld::second</text>
</a>
</g>
</g>
<!-- Node5&#45;&gt;Node7 -->
<g id="edge6" class="edge">
<title>Node5&#45;&gt;Node7</title>
<path fill="none" stroke="midnightblue" d="M409.79,-59.5C424.95,-59.5 441.65,-59.5 457.55,-59.5"/>
<polygon fill="midnightblue" stroke="midnightblue" points="457.85,-63 467.85,-59.5 457.85,-56 457.85,-63"/>
</g>
<!-- Node8 -->
<g id="node8" class="node">
<title>Node8</title>
<g id="a_node8"><a xlink:href="classStateTwoOld.html#a33b595b744249754cb86bde5cd125c06" target="_top" xlink:title=" ">
<polygon fill="none" stroke="black" points="455,-12 455,-31 599,-31 599,-12 455,-12"/>
<text text-anchor="middle" x="527" y="-19" font-family="Helvetica,sans-Serif" font-size="10.00">StateTwoOld::StateTwoOld</text>
</a>
</g>
</g>
<!-- Node5&#45;&gt;Node8 -->
<g id="edge7" class="edge">
<title>Node5&#45;&gt;Node8</title>
<path fill="none" stroke="midnightblue" d="M398.9,-49.91C421.53,-44.85 449.5,-38.6 473.43,-33.25"/>
<polygon fill="midnightblue" stroke="midnightblue" points="474.41,-36.62 483.41,-31.02 472.89,-29.79 474.41,-36.62"/>
</g>
<!-- Node9&#45;&gt;Node4 -->
<g id="edge9" class="edge">
<title>Node9&#45;&gt;Node4</title>
<path fill="none" stroke="midnightblue" d="M220.92,-125.91C244.83,-120.81 274.42,-114.49 299.62,-109.11"/>
<polygon fill="midnightblue" stroke="midnightblue" points="300.36,-112.53 309.41,-107.02 298.9,-105.69 300.36,-112.53"/>
</g>
<!-- Node10&#45;&gt;Node4 -->
<g id="edge11" class="edge">
<title>Node10&#45;&gt;Node4</title>
<path fill="none" stroke="midnightblue" d="M255.11,-97.5C263.63,-97.5 272.26,-97.5 280.71,-97.5"/>
<polygon fill="midnightblue" stroke="midnightblue" points="280.89,-101 290.89,-97.5 280.89,-94 280.89,-101"/>
</g>
</g>
</svg>
