<?xml version="1.0" encoding="UTF-8" standalone="no"?>
<!DOCTYPE svg PUBLIC "-//W3C//DTD SVG 1.1//EN"
 "http://www.w3.org/Graphics/SVG/1.1/DTD/svg11.dtd">
<!-- Generated by graphviz version 2.43.0 (0)
 -->
<!-- Title: /__w/pairinteraction/pairinteraction/pairinteraction/Iter.hpp Pages: 1 -->
<svg width="2107pt" height="518pt"
 viewBox="0.00 0.00 2107.00 518.00" xmlns="http://www.w3.org/2000/svg" xmlns:xlink="http://www.w3.org/1999/xlink">
<g id="graph0" class="graph" transform="scale(1 1) rotate(0) translate(4 514)">
<title>/__w/pairinteraction/pairinteraction/pairinteraction/Iter.hpp</title>
<!-- Node1 -->
<g id="node1" class="node">
<title>Node1</title>
<g id="a_node1"><a xlink:title=" ">
<polygon fill="#bfbfbf" stroke="black" points="478,-468.5 478,-509.5 643,-509.5 643,-468.5 478,-468.5"/>
<text text-anchor="start" x="486" y="-497.5" font-family="Helvetica,sans-Serif" font-size="10.00">/__w/pairinteraction</text>
<text text-anchor="start" x="486" y="-486.5" font-family="Helvetica,sans-Serif" font-size="10.00">/pairinteraction/pairinteraction</text>
<text text-anchor="middle" x="560.5" y="-475.5" font-family="Helvetica,sans-Serif" font-size="10.00">/Iter.hpp</text>
</a>
</g>
</g>
<!-- Node2 -->
<g id="node2" class="node">
<title>Node2</title>
<g id="a_node2"><a xlink:href="Basisnames_8hpp.html" target="_top" xlink:title=" ">
<polygon fill="none" stroke="black" points="478,-390.5 478,-431.5 643,-431.5 643,-390.5 478,-390.5"/>
<text text-anchor="start" x="486" y="-419.5" font-family="Helvetica,sans-Serif" font-size="10.00">/__w/pairinteraction</text>
<text text-anchor="start" x="486" y="-408.5" font-family="Helvetica,sans-Serif" font-size="10.00">/pairinteraction/pairinteraction</text>
<text text-anchor="middle" x="560.5" y="-397.5" font-family="Helvetica,sans-Serif" font-size="10.00">/Basisnames.hpp</text>
</a>
</g>
</g>
<!-- Node1&#45;&gt;Node2 -->
<g id="edge1" class="edge">
<title>Node1&#45;&gt;Node2</title>
<path fill="none" stroke="midnightblue" d="M560.5,-458.3C560.5,-449.3 560.5,-439.65 560.5,-431.51"/>
<polygon fill="midnightblue" stroke="midnightblue" points="557,-458.43 560.5,-468.43 564,-458.43 557,-458.43"/>
</g>
<!-- Node3 -->
<g id="node3" class="node">
<title>Node3</title>
<g id="a_node3"><a xlink:href="Basisnames_8cpp.html" target="_top" xlink:title=" ">
<polygon fill="none" stroke="black" points="0,-312.5 0,-353.5 165,-353.5 165,-312.5 0,-312.5"/>
<text text-anchor="start" x="8" y="-341.5" font-family="Helvetica,sans-Serif" font-size="10.00">/__w/pairinteraction</text>
<text text-anchor="start" x="8" y="-330.5" font-family="Helvetica,sans-Serif" font-size="10.00">/pairinteraction/pairinteraction</text>
<text text-anchor="middle" x="82.5" y="-319.5" font-family="Helvetica,sans-Serif" font-size="10.00">/Basisnames.cpp</text>
</a>
</g>
</g>
<!-- Node2&#45;&gt;Node3 -->
<g id="edge2" class="edge">
<title>Node2&#45;&gt;Node3</title>
<path fill="none" stroke="midnightblue" d="M467.59,-397.86C390.3,-387.4 277.48,-371.29 179.5,-354 174.84,-353.18 170.07,-352.3 165.25,-351.39"/>
<polygon fill="midnightblue" stroke="midnightblue" points="467.4,-401.37 477.78,-399.24 468.34,-394.43 467.4,-401.37"/>
</g>
<!-- Node4 -->
<g id="node4" class="node">
<title>Node4</title>
<g id="a_node4"><a xlink:href="Hamiltonianmatrix_8hpp.html" target="_top" xlink:title=" ">
<polygon fill="none" stroke="black" points="405,-312.5 405,-353.5 570,-353.5 570,-312.5 405,-312.5"/>
<text text-anchor="start" x="413" y="-341.5" font-family="Helvetica,sans-Serif" font-size="10.00">/__w/pairinteraction</text>
<text text-anchor="start" x="413" y="-330.5" font-family="Helvetica,sans-Serif" font-size="10.00">/pairinteraction/pairinteraction</text>
<text text-anchor="middle" x="487.5" y="-319.5" font-family="Helvetica,sans-Serif" font-size="10.00">/Hamiltonianmatrix.hpp</text>
</a>
</g>
</g>
<!-- Node2&#45;&gt;Node4 -->
<g id="edge3" class="edge">
<title>Node2&#45;&gt;Node4</title>
<path fill="none" stroke="midnightblue" d="M534.76,-383.2C525.36,-373.42 514.91,-362.54 506.24,-353.51"/>
<polygon fill="midnightblue" stroke="midnightblue" points="532.25,-385.64 541.7,-390.43 537.3,-380.79 532.25,-385.64"/>
</g>
<!-- Node6 -->
<g id="node6" class="node">
<title>Node6</title>
<g id="a_node6"><a xlink:href="HamiltonianOne_8hpp.html" target="_top" xlink:title=" ">
<polygon fill="none" stroke="black" points="258,-156.5 258,-197.5 423,-197.5 423,-156.5 258,-156.5"/>
<text text-anchor="start" x="266" y="-185.5" font-family="Helvetica,sans-Serif" font-size="10.00">/__w/pairinteraction</text>
<text text-anchor="start" x="266" y="-174.5" font-family="Helvetica,sans-Serif" font-size="10.00">/pairinteraction/pairinteraction</text>
<text text-anchor="middle" x="340.5" y="-163.5" font-family="Helvetica,sans-Serif" font-size="10.00">/HamiltonianOne.hpp</text>
</a>
</g>
</g>
<!-- Node2&#45;&gt;Node6 -->
<g id="edge13" class="edge">
<title>Node2&#45;&gt;Node6</title>
<path fill="none" stroke="midnightblue" d="M468.03,-403.19C385.09,-391.55 268.15,-360.21 212.5,-276 202.21,-260.43 202.28,-249.62 212.5,-234 223.32,-217.46 240.22,-205.77 258.24,-197.53"/>
<polygon fill="midnightblue" stroke="midnightblue" points="467.6,-406.66 477.97,-404.51 468.52,-399.72 467.6,-406.66"/>
</g>
<!-- Node8 -->
<g id="node8" class="node">
<title>Node8</title>
<g id="a_node8"><a xlink:href="HamiltonianTwo_8hpp.html" target="_top" xlink:title=" ">
<polygon fill="none" stroke="black" points="451,-78.5 451,-119.5 616,-119.5 616,-78.5 451,-78.5"/>
<text text-anchor="start" x="459" y="-107.5" font-family="Helvetica,sans-Serif" font-size="10.00">/__w/pairinteraction</text>
<text text-anchor="start" x="459" y="-96.5" font-family="Helvetica,sans-Serif" font-size="10.00">/pairinteraction/pairinteraction</text>
<text text-anchor="middle" x="533.5" y="-85.5" font-family="Helvetica,sans-Serif" font-size="10.00">/HamiltonianTwo.hpp</text>
</a>
</g>
</g>
<!-- Node2&#45;&gt;Node8 -->
<g id="edge14" class="edge">
<title>Node2&#45;&gt;Node8</title>
<path fill="none" stroke="midnightblue" d="M625.06,-386.44C672.26,-365.41 732.84,-329.56 761.5,-276 786.67,-228.98 794.41,-197.97 761.5,-156 743.42,-132.95 673.76,-118.13 616.14,-109.56"/>
<polygon fill="midnightblue" stroke="midnightblue" points="623.6,-383.26 615.82,-390.45 626.38,-389.68 623.6,-383.26"/>
</g>
<!-- Node12 -->
<g id="node12" class="node">
<title>Node12</title>
<g id="a_node12"><a xlink:href="MatrixElementCache_8hpp.html" target="_top" xlink:title=" ">
<polygon fill="none" stroke="black" points="1267,-312.5 1267,-353.5 1432,-353.5 1432,-312.5 1267,-312.5"/>
<text text-anchor="start" x="1275" y="-341.5" font-family="Helvetica,sans-Serif" font-size="10.00">/__w/pairinteraction</text>
<text text-anchor="start" x="1275" y="-330.5" font-family="Helvetica,sans-Serif" font-size="10.00">/pairinteraction/pairinteraction</text>
<text text-anchor="middle" x="1349.5" y="-319.5" font-family="Helvetica,sans-Serif" font-size="10.00">/MatrixElementCache.hpp</text>
</a>
</g>
</g>
<!-- Node2&#45;&gt;Node12 -->
<g id="edge15" class="edge">
<title>Node2&#45;&gt;Node12</title>
<path fill="none" stroke="midnightblue" d="M653.07,-401.08C808.33,-386.13 1118.73,-356.23 1266.98,-341.95"/>
<polygon fill="midnightblue" stroke="midnightblue" points="652.69,-397.6 643.07,-402.05 653.36,-404.57 652.69,-397.6"/>
</g>
<!-- Node21 -->
<g id="node21" class="node">
<title>Node21</title>
<g id="a_node21"><a xlink:href="MatrixElements_8hpp.html" target="_top" xlink:title=" ">
<polygon fill="none" stroke="black" points="588,-234.5 588,-275.5 753,-275.5 753,-234.5 588,-234.5"/>
<text text-anchor="start" x="596" y="-263.5" font-family="Helvetica,sans-Serif" font-size="10.00">/__w/pairinteraction</text>
<text text-anchor="start" x="596" y="-252.5" font-family="Helvetica,sans-Serif" font-size="10.00">/pairinteraction/pairinteraction</text>
<text text-anchor="middle" x="670.5" y="-241.5" font-family="Helvetica,sans-Serif" font-size="10.00">/MatrixElements.hpp</text>
</a>
</g>
</g>
<!-- Node2&#45;&gt;Node21 -->
<g id="edge24" class="edge">
<title>Node2&#45;&gt;Node21</title>
<path fill="none" stroke="midnightblue" d="M580.25,-382.36C602.16,-351.68 636.97,-302.94 656.33,-275.83"/>
<polygon fill="midnightblue" stroke="midnightblue" points="577.4,-380.32 574.43,-390.5 583.09,-384.39 577.4,-380.32"/>
</g>
<!-- Node5 -->
<g id="node5" class="node">
<title>Node5</title>
<g id="a_node5"><a xlink:href="Hamiltonian_8hpp.html" target="_top" xlink:title=" ">
<polygon fill="none" stroke="black" points="222,-234.5 222,-275.5 387,-275.5 387,-234.5 222,-234.5"/>
<text text-anchor="start" x="230" y="-263.5" font-family="Helvetica,sans-Serif" font-size="10.00">/__w/pairinteraction</text>
<text text-anchor="start" x="230" y="-252.5" font-family="Helvetica,sans-Serif" font-size="10.00">/pairinteraction/pairinteraction</text>
<text text-anchor="middle" x="304.5" y="-241.5" font-family="Helvetica,sans-Serif" font-size="10.00">/Hamiltonian.hpp</text>
</a>
</g>
</g>
<!-- Node4&#45;&gt;Node5 -->
<g id="edge4" class="edge">
<title>Node4&#45;&gt;Node5</title>
<path fill="none" stroke="midnightblue" d="M430.84,-308.47C405.37,-297.89 375.67,-285.56 351.47,-275.51"/>
<polygon fill="midnightblue" stroke="midnightblue" points="429.8,-311.82 440.37,-312.43 432.48,-305.36 429.8,-311.82"/>
</g>
<!-- Node11 -->
<g id="node11" class="node">
<title>Node11</title>
<g id="a_node11"><a xlink:href="Hamiltonianmatrix_8cpp.html" target="_top" xlink:title=" ">
<polygon fill="none" stroke="black" points="405,-234.5 405,-275.5 570,-275.5 570,-234.5 405,-234.5"/>
<text text-anchor="start" x="413" y="-263.5" font-family="Helvetica,sans-Serif" font-size="10.00">/__w/pairinteraction</text>
<text text-anchor="start" x="413" y="-252.5" font-family="Helvetica,sans-Serif" font-size="10.00">/pairinteraction/pairinteraction</text>
<text text-anchor="middle" x="487.5" y="-241.5" font-family="Helvetica,sans-Serif" font-size="10.00">/Hamiltonianmatrix.cpp</text>
</a>
</g>
</g>
<!-- Node4&#45;&gt;Node11 -->
<g id="edge12" class="edge">
<title>Node4&#45;&gt;Node11</title>
<path fill="none" stroke="midnightblue" d="M487.5,-302.3C487.5,-293.3 487.5,-283.65 487.5,-275.51"/>
<polygon fill="midnightblue" stroke="midnightblue" points="484,-302.43 487.5,-312.43 491,-302.43 484,-302.43"/>
</g>
<!-- Node5&#45;&gt;Node6 -->
<g id="edge5" class="edge">
<title>Node5&#45;&gt;Node6</title>
<path fill="none" stroke="midnightblue" d="M318.15,-225.17C322.53,-215.93 327.28,-205.92 331.26,-197.51"/>
<polygon fill="midnightblue" stroke="midnightblue" points="314.89,-223.89 313.77,-234.43 321.21,-226.89 314.89,-223.89"/>
</g>
<!-- Node5&#45;&gt;Node8 -->
<g id="edge11" class="edge">
<title>Node5&#45;&gt;Node8</title>
<path fill="none" stroke="midnightblue" d="M369.47,-230.52C390.11,-221.73 412.49,-210.74 431.5,-198 465.16,-175.44 497.8,-141.25 516.76,-119.8"/>
<polygon fill="midnightblue" stroke="midnightblue" points="368.03,-227.33 360.13,-234.4 370.71,-233.8 368.03,-227.33"/>
</g>
<!-- Node7 -->
<g id="node7" class="node">
<title>Node7</title>
<g id="a_node7"><a xlink:href="HamiltonianOne_8cpp.html" target="_top" xlink:title=" ">
<polygon fill="none" stroke="black" points="268,-78.5 268,-119.5 433,-119.5 433,-78.5 268,-78.5"/>
<text text-anchor="start" x="276" y="-107.5" font-family="Helvetica,sans-Serif" font-size="10.00">/__w/pairinteraction</text>
<text text-anchor="start" x="276" y="-96.5" font-family="Helvetica,sans-Serif" font-size="10.00">/pairinteraction/pairinteraction</text>
<text text-anchor="middle" x="350.5" y="-85.5" font-family="Helvetica,sans-Serif" font-size="10.00">/HamiltonianOne.cpp</text>
</a>
</g>
</g>
<!-- Node6&#45;&gt;Node7 -->
<g id="edge6" class="edge">
<title>Node6&#45;&gt;Node7</title>
<path fill="none" stroke="midnightblue" d="M344.41,-146.3C345.59,-137.3 346.86,-127.65 347.93,-119.51"/>
<polygon fill="midnightblue" stroke="midnightblue" points="340.91,-146.06 343.08,-156.43 347.85,-146.97 340.91,-146.06"/>
</g>
<!-- Node6&#45;&gt;Node8 -->
<g id="edge7" class="edge">
<title>Node6&#45;&gt;Node8</title>
<path fill="none" stroke="midnightblue" d="M399.55,-152.75C426.56,-142.11 458.22,-129.65 483.97,-119.51"/>
<polygon fill="midnightblue" stroke="midnightblue" points="398.22,-149.51 390.2,-156.43 400.79,-156.02 398.22,-149.51"/>
</g>
<!-- Node10 -->
<g id="node10" class="node">
<title>Node10</title>
<g id="a_node10"><a xlink:href="Interface_8cpp.html" target="_top" xlink:title=" ">
<polygon fill="none" stroke="black" points="213,-0.5 213,-41.5 378,-41.5 378,-0.5 213,-0.5"/>
<text text-anchor="start" x="221" y="-29.5" font-family="Helvetica,sans-Serif" font-size="10.00">/__w/pairinteraction</text>
<text text-anchor="start" x="221" y="-18.5" font-family="Helvetica,sans-Serif" font-size="10.00">/pairinteraction/pairinteraction</text>
<text text-anchor="middle" x="295.5" y="-7.5" font-family="Helvetica,sans-Serif" font-size="10.00">/Interface.cpp</text>
</a>
</g>
</g>
<!-- Node6&#45;&gt;Node10 -->
<g id="edge10" class="edge">
<title>Node6&#45;&gt;Node10</title>
<path fill="none" stroke="midnightblue" d="M287.53,-150.9C275.91,-142.76 265.11,-132.51 258.5,-120 244.83,-94.11 262.99,-62.02 278.35,-41.77"/>
<polygon fill="midnightblue" stroke="midnightblue" points="285.8,-153.95 296.09,-156.47 289.61,-148.08 285.8,-153.95"/>
</g>
<!-- Node9 -->
<g id="node9" class="node">
<title>Node9</title>
<g id="a_node9"><a xlink:href="HamiltonianTwo_8cpp.html" target="_top" xlink:title=" ">
<polygon fill="none" stroke="black" points="451,-0.5 451,-41.5 616,-41.5 616,-0.5 451,-0.5"/>
<text text-anchor="start" x="459" y="-29.5" font-family="Helvetica,sans-Serif" font-size="10.00">/__w/pairinteraction</text>
<text text-anchor="start" x="459" y="-18.5" font-family="Helvetica,sans-Serif" font-size="10.00">/pairinteraction/pairinteraction</text>
<text text-anchor="middle" x="533.5" y="-7.5" font-family="Helvetica,sans-Serif" font-size="10.00">/HamiltonianTwo.cpp</text>
</a>
</g>
</g>
<!-- Node8&#45;&gt;Node9 -->
<g id="edge8" class="edge">
<title>Node8&#45;&gt;Node9</title>
<path fill="none" stroke="midnightblue" d="M533.5,-68.3C533.5,-59.3 533.5,-49.65 533.5,-41.51"/>
<polygon fill="midnightblue" stroke="midnightblue" points="530,-68.43 533.5,-78.43 537,-68.43 530,-68.43"/>
</g>
<!-- Node8&#45;&gt;Node10 -->
<g id="edge9" class="edge">
<title>Node8&#45;&gt;Node10</title>
<path fill="none" stroke="midnightblue" d="M462.43,-75.3C428.74,-64.55 388.89,-51.82 356.58,-41.51"/>
<polygon fill="midnightblue" stroke="midnightblue" points="461.62,-78.72 472.21,-78.43 463.75,-72.05 461.62,-78.72"/>
</g>
<!-- Node13 -->
<g id="node13" class="node">
<title>Node13</title>
<g id="a_node13"><a xlink:href="integration__bench_8cpp.html" target="_top" xlink:title=" ">
<polygon fill="none" stroke="black" points="1908,-234.5 1908,-275.5 2099,-275.5 2099,-234.5 1908,-234.5"/>
<text text-anchor="start" x="1916" y="-263.5" font-family="Helvetica,sans-Serif" font-size="10.00">/__w/pairinteraction</text>
<text text-anchor="start" x="1916" y="-252.5" font-family="Helvetica,sans-Serif" font-size="10.00">/pairinteraction/pairinteraction</text>
<text text-anchor="middle" x="2003.5" y="-241.5" font-family="Helvetica,sans-Serif" font-size="10.00">/benchmarks/integration_bench.cpp</text>
</a>
</g>
</g>
<!-- Node12&#45;&gt;Node13 -->
<g id="edge16" class="edge">
<title>Node12&#45;&gt;Node13</title>
<path fill="none" stroke="midnightblue" d="M1442.28,-325.07C1551.86,-316.31 1739.5,-299.48 1899.5,-276 1902.23,-275.6 1904.99,-275.18 1907.78,-274.74"/>
<polygon fill="midnightblue" stroke="midnightblue" points="1441.94,-321.59 1432.25,-325.87 1442.49,-328.57 1441.94,-321.59"/>
</g>
<!-- Node14 -->
<g id="node14" class="node">
<title>Node14</title>
<g id="a_node14"><a xlink:href="MatrixElementCache_8cpp.html" target="_top" xlink:title=" ">
<polygon fill="none" stroke="black" points="810,-234.5 810,-275.5 975,-275.5 975,-234.5 810,-234.5"/>
<text text-anchor="start" x="818" y="-263.5" font-family="Helvetica,sans-Serif" font-size="10.00">/__w/pairinteraction</text>
<text text-anchor="start" x="818" y="-252.5" font-family="Helvetica,sans-Serif" font-size="10.00">/pairinteraction/pairinteraction</text>
<text text-anchor="middle" x="892.5" y="-241.5" font-family="Helvetica,sans-Serif" font-size="10.00">/MatrixElementCache.cpp</text>
</a>
</g>
</g>
<!-- Node12&#45;&gt;Node14 -->
<g id="edge17" class="edge">
<title>Node12&#45;&gt;Node14</title>
<path fill="none" stroke="midnightblue" d="M1256.77,-319.39C1182.84,-308.94 1076.77,-293.09 984.5,-276 981.45,-275.43 978.34,-274.84 975.2,-274.23"/>
<polygon fill="midnightblue" stroke="midnightblue" points="1256.6,-322.9 1266.99,-320.83 1257.57,-315.97 1256.6,-322.9"/>
</g>
<!-- Node15 -->
<g id="node15" class="node">
<title>Node15</title>
<g id="a_node15"><a xlink:href="PerturbativeInteraction_8hpp.html" target="_top" xlink:title=" ">
<polygon fill="none" stroke="black" points="993,-234.5 993,-275.5 1158,-275.5 1158,-234.5 993,-234.5"/>
<text text-anchor="start" x="1001" y="-263.5" font-family="Helvetica,sans-Serif" font-size="10.00">/__w/pairinteraction</text>
<text text-anchor="start" x="1001" y="-252.5" font-family="Helvetica,sans-Serif" font-size="10.00">/pairinteraction/pairinteraction</text>
<text text-anchor="middle" x="1075.5" y="-241.5" font-family="Helvetica,sans-Serif" font-size="10.00">/PerturbativeInteraction.hpp</text>
</a>
</g>
</g>
<!-- Node12&#45;&gt;Node15 -->
<g id="edge18" class="edge">
<title>Node12&#45;&gt;Node15</title>
<path fill="none" stroke="midnightblue" d="M1269.17,-309.72C1230.07,-298.87 1183.5,-285.96 1145.82,-275.51"/>
<polygon fill="midnightblue" stroke="midnightblue" points="1268.37,-313.13 1278.94,-312.43 1270.24,-306.38 1268.37,-313.13"/>
</g>
<!-- Node17 -->
<g id="node17" class="node">
<title>Node17</title>
<g id="a_node17"><a xlink:href="State_8cpp.html" target="_top" xlink:title=" ">
<polygon fill="none" stroke="black" points="1176,-234.5 1176,-275.5 1341,-275.5 1341,-234.5 1176,-234.5"/>
<text text-anchor="start" x="1184" y="-263.5" font-family="Helvetica,sans-Serif" font-size="10.00">/__w/pairinteraction</text>
<text text-anchor="start" x="1184" y="-252.5" font-family="Helvetica,sans-Serif" font-size="10.00">/pairinteraction/pairinteraction</text>
<text text-anchor="middle" x="1258.5" y="-241.5" font-family="Helvetica,sans-Serif" font-size="10.00">/State.cpp</text>
</a>
</g>
</g>
<!-- Node12&#45;&gt;Node17 -->
<g id="edge20" class="edge">
<title>Node12&#45;&gt;Node17</title>
<path fill="none" stroke="midnightblue" d="M1318.1,-305.78C1306.21,-295.84 1292.88,-284.72 1281.86,-275.51"/>
<polygon fill="midnightblue" stroke="midnightblue" points="1316.15,-308.7 1326.07,-312.43 1320.63,-303.33 1316.15,-308.7"/>
</g>
<!-- Node18 -->
<g id="node18" class="node">
<title>Node18</title>
<g id="a_node18"><a xlink:href="SystemOne_8cpp.html" target="_top" xlink:title=" ">
<polygon fill="none" stroke="black" points="1359,-234.5 1359,-275.5 1524,-275.5 1524,-234.5 1359,-234.5"/>
<text text-anchor="start" x="1367" y="-263.5" font-family="Helvetica,sans-Serif" font-size="10.00">/__w/pairinteraction</text>
<text text-anchor="start" x="1367" y="-252.5" font-family="Helvetica,sans-Serif" font-size="10.00">/pairinteraction/pairinteraction</text>
<text text-anchor="middle" x="1441.5" y="-241.5" font-family="Helvetica,sans-Serif" font-size="10.00">/SystemOne.cpp</text>
</a>
</g>
</g>
<!-- Node12&#45;&gt;Node18 -->
<g id="edge21" class="edge">
<title>Node12&#45;&gt;Node18</title>
<path fill="none" stroke="midnightblue" d="M1381.24,-305.78C1393.27,-295.84 1406.74,-284.72 1417.89,-275.51"/>
<polygon fill="midnightblue" stroke="midnightblue" points="1378.67,-303.36 1373.19,-312.43 1383.13,-308.76 1378.67,-303.36"/>
</g>
<!-- Node19 -->
<g id="node19" class="node">
<title>Node19</title>
<g id="a_node19"><a xlink:href="SystemTwo_8cpp.html" target="_top" xlink:title=" ">
<polygon fill="none" stroke="black" points="1542,-234.5 1542,-275.5 1707,-275.5 1707,-234.5 1542,-234.5"/>
<text text-anchor="start" x="1550" y="-263.5" font-family="Helvetica,sans-Serif" font-size="10.00">/__w/pairinteraction</text>
<text text-anchor="start" x="1550" y="-252.5" font-family="Helvetica,sans-Serif" font-size="10.00">/pairinteraction/pairinteraction</text>
<text text-anchor="middle" x="1624.5" y="-241.5" font-family="Helvetica,sans-Serif" font-size="10.00">/SystemTwo.cpp</text>
</a>
</g>
</g>
<!-- Node12&#45;&gt;Node19 -->
<g id="edge22" class="edge">
<title>Node12&#45;&gt;Node19</title>
<path fill="none" stroke="midnightblue" d="M1430.12,-309.72C1469.36,-298.87 1516.11,-285.96 1553.92,-275.51"/>
<polygon fill="midnightblue" stroke="midnightblue" points="1429.03,-306.39 1420.32,-312.43 1430.89,-313.14 1429.03,-306.39"/>
</g>
<!-- Node20 -->
<g id="node20" class="node">
<title>Node20</title>
<g id="a_node20"><a xlink:href="integration__test_8cpp.html" target="_top" xlink:title=" ">
<polygon fill="none" stroke="black" points="1725,-234.5 1725,-275.5 1890,-275.5 1890,-234.5 1725,-234.5"/>
<text text-anchor="start" x="1733" y="-263.5" font-family="Helvetica,sans-Serif" font-size="10.00">/__w/pairinteraction</text>
<text text-anchor="start" x="1733" y="-252.5" font-family="Helvetica,sans-Serif" font-size="10.00">/pairinteraction/pairinteraction</text>
<text text-anchor="middle" x="1807.5" y="-241.5" font-family="Helvetica,sans-Serif" font-size="10.00">/unit_test/integration_test.cpp</text>
</a>
</g>
</g>
<!-- Node12&#45;&gt;Node20 -->
<g id="edge23" class="edge">
<title>Node12&#45;&gt;Node20</title>
<path fill="none" stroke="midnightblue" d="M1442.38,-319.53C1516.75,-309.13 1623.6,-293.28 1716.5,-276 1719.2,-275.5 1721.95,-274.97 1724.72,-274.43"/>
<polygon fill="midnightblue" stroke="midnightblue" points="1441.53,-316.11 1432.11,-320.96 1442.5,-323.04 1441.53,-316.11"/>
</g>
<!-- Node16 -->
<g id="node16" class="node">
<title>Node16</title>
<g id="a_node16"><a xlink:href="PerturbativeInteraction_8cpp.html" target="_top" xlink:title=" ">
<polygon fill="none" stroke="black" points="993,-156.5 993,-197.5 1158,-197.5 1158,-156.5 993,-156.5"/>
<text text-anchor="start" x="1001" y="-185.5" font-family="Helvetica,sans-Serif" font-size="10.00">/__w/pairinteraction</text>
<text text-anchor="start" x="1001" y="-174.5" font-family="Helvetica,sans-Serif" font-size="10.00">/pairinteraction/pairinteraction</text>
<text text-anchor="middle" x="1075.5" y="-163.5" font-family="Helvetica,sans-Serif" font-size="10.00">/PerturbativeInteraction.cpp</text>
</a>
</g>
</g>
<!-- Node15&#45;&gt;Node16 -->
<g id="edge19" class="edge">
<title>Node15&#45;&gt;Node16</title>
<path fill="none" stroke="midnightblue" d="M1075.5,-224.3C1075.5,-215.3 1075.5,-205.65 1075.5,-197.51"/>
<polygon fill="midnightblue" stroke="midnightblue" points="1072,-224.43 1075.5,-234.43 1079,-224.43 1072,-224.43"/>
</g>
<!-- Node21&#45;&gt;Node6 -->
<g id="edge25" class="edge">
<title>Node21&#45;&gt;Node6</title>
<path fill="none" stroke="midnightblue" d="M577.76,-232.64C529.15,-221.45 470.12,-207.85 423.09,-197.02"/>
<polygon fill="midnightblue" stroke="midnightblue" points="577.12,-236.09 587.65,-234.92 578.69,-229.27 577.12,-236.09"/>
</g>
<!-- Node21&#45;&gt;Node8 -->
<g id="edge26" class="edge">
<title>Node21&#45;&gt;Node8</title>
<path fill="none" stroke="midnightblue" d="M618.06,-229.36C603.93,-220.9 589.51,-210.38 578.5,-198 557.96,-174.92 545.21,-140.88 538.73,-119.6"/>
<polygon fill="midnightblue" stroke="midnightblue" points="616.38,-232.43 626.8,-234.36 619.86,-226.35 616.38,-232.43"/>
</g>
<!-- Node22 -->
<g id="node22" class="node">
<title>Node22</title>
<g id="a_node22"><a xlink:href="MatrixElements_8cpp.html" target="_top" xlink:title=" ">
<polygon fill="none" stroke="black" points="588,-156.5 588,-197.5 753,-197.5 753,-156.5 588,-156.5"/>
<text text-anchor="start" x="596" y="-185.5" font-family="Helvetica,sans-Serif" font-size="10.00">/__w/pairinteraction</text>
<text text-anchor="start" x="596" y="-174.5" font-family="Helvetica,sans-Serif" font-size="10.00">/pairinteraction/pairinteraction</text>
<text text-anchor="middle" x="670.5" y="-163.5" font-family="Helvetica,sans-Serif" font-size="10.00">/MatrixElements.cpp</text>
</a>
</g>
</g>
<!-- Node21&#45;&gt;Node22 -->
<g id="edge27" class="edge">
<title>Node21&#45;&gt;Node22</title>
<path fill="none" stroke="midnightblue" d="M670.5,-224.3C670.5,-215.3 670.5,-205.65 670.5,-197.51"/>
<polygon fill="midnightblue" stroke="midnightblue" points="667,-224.43 670.5,-234.43 674,-224.43 667,-224.43"/>
</g>
</g>
</svg>
