<?xml version="1.0" encoding="UTF-8" standalone="no"?>
<!DOCTYPE svg PUBLIC "-//W3C//DTD SVG 1.1//EN"
 "http://www.w3.org/Graphics/SVG/1.1/DTD/svg11.dtd">
<!-- Generated by graphviz version 2.43.0 (0)
 -->
<!-- Title: selectionRulesMultipoleNew Pages: 1 -->
<svg width="372pt" height="66pt"
 viewBox="0.00 0.00 372.00 66.00" xmlns="http://www.w3.org/2000/svg" xmlns:xlink="http://www.w3.org/1999/xlink">
<g id="graph0" class="graph" transform="scale(1 1) rotate(0) translate(4 62)">
<title>selectionRulesMultipoleNew</title>
<!-- Node1 -->
<g id="node1" class="node">
<title>Node1</title>
<g id="a_node1"><a xlink:title=" ">
<polygon fill="#bfbfbf" stroke="black" points="209,-19.5 209,-38.5 364,-38.5 364,-19.5 209,-19.5"/>
<text text-anchor="middle" x="286.5" y="-26.5" font-family="Helvetica,sans-Serif" font-size="10.00">selectionRulesMultipoleNew</text>
</a>
</g>
</g>
<!-- Node2 -->
<g id="node2" class="node">
<title>Node2</title>
<g id="a_node2"><a xlink:href="classSystemOne.html#acdf73d42ef28f1ed704be057ffb7949c" target="_top" xlink:title="Method that allows base class to calculate the interaction /////.">
<polygon fill="none" stroke="black" points="0,-38.5 0,-57.5 173,-57.5 173,-38.5 0,-38.5"/>
<text text-anchor="middle" x="86.5" y="-45.5" font-family="Helvetica,sans-Serif" font-size="10.00">SystemOne::initializeInteraction</text>
</a>
</g>
</g>
<!-- Node1&#45;&gt;Node2 -->
<g id="edge1" class="edge">
<title>Node1&#45;&gt;Node2</title>
<path fill="none" stroke="midnightblue" d="M198.94,-37.31C190.35,-38.13 181.64,-38.97 173.06,-39.79"/>
<polygon fill="midnightblue" stroke="midnightblue" points="199.33,-40.79 208.95,-36.35 198.66,-33.82 199.33,-40.79"/>
</g>
<!-- Node3 -->
<g id="node3" class="node">
<title>Node3</title>
<g id="a_node3"><a xlink:href="classSystemTwo.html#acc1ccd92ae4e7d8e6c7d176a1aa1fe45" target="_top" xlink:title="Method that allows base class to calculate the interaction /////.">
<polygon fill="none" stroke="black" points="0,-0.5 0,-19.5 173,-19.5 173,-0.5 0,-0.5"/>
<text text-anchor="middle" x="86.5" y="-7.5" font-family="Helvetica,sans-Serif" font-size="10.00">SystemTwo::initializeInteraction</text>
</a>
</g>
</g>
<!-- Node1&#45;&gt;Node3 -->
<g id="edge2" class="edge">
<title>Node1&#45;&gt;Node3</title>
<path fill="none" stroke="midnightblue" d="M198.94,-20.69C190.35,-19.87 181.64,-19.03 173.06,-18.21"/>
<polygon fill="midnightblue" stroke="midnightblue" points="198.66,-24.18 208.95,-21.65 199.33,-17.21 198.66,-24.18"/>
</g>
</g>
</svg>
