<?xml version="1.0" encoding="UTF-8" standalone="no"?>
<!DOCTYPE svg PUBLIC "-//W3C//DTD SVG 1.1//EN"
 "http://www.w3.org/Graphics/SVG/1.1/DTD/svg11.dtd">
<!-- Generated by graphviz version 2.43.0 (0)
 -->
<!-- Title: /__w/pairinteraction/pairinteraction/pairinteraction/MatrixElements.cpp Pages: 1 -->
<!--zoomable 397 -->
<svg id="main" version="1.1" xmlns="http://www.w3.org/2000/svg" xmlns:xlink="http://www.w3.org/1999/xlink" xml:space="preserve" onload="init(evt)">
<style type="text/css"><![CDATA[
.edge:hover path { stroke: red; }
.edge:hover polygon { stroke: red; fill: red; }
]]></style>
<script type="text/javascript"><![CDATA[
var edges = document.getElementsByTagName('g');
if (edges && edges.length) {
  for (var i=0;i<edges.length;i++) {
    if (edges[i].id.substr(0,4)=='edge') {
      edges[i].setAttribute('class','edge');
    }
  }
}
]]></script>
        <defs>
                <circle id="rim" cx="0" cy="0" r="7"/>
                <circle id="rim2" cx="0" cy="0" r="3.5"/>
                <g id="zoomPlus">
                        <use xlink:href="#rim" fill="#404040">
                                <set attributeName="fill" to="#808080" begin="zoomplus.mouseover" end="zoomplus.mouseout"/>
                        </use>
                        <path d="M-4,0h8M0,-4v8" fill="none" stroke="white" stroke-width="1.5" pointer-events="none"/>
                </g>
                <g id="zoomMin">
                        <use xlink:href="#rim" fill="#404040">
                                <set attributeName="fill" to="#808080" begin="zoomminus.mouseover" end="zoomminus.mouseout"/>
                        </use>
                        <path d="M-4,0h8" fill="none" stroke="white" stroke-width="1.5" pointer-events="none"/>
                </g>
                <g id="dirArrow">
                        <path fill="none" stroke="white" stroke-width="1.5" d="M0,-3.0v7 M-2.5,-0.5L0,-3.0L2.5,-0.5"/>
                </g>
               <g id="resetDef">
                       <use xlink:href="#rim2" fill="#404040">
                               <set attributeName="fill" to="#808080" begin="reset.mouseover" end="reset.mouseout"/>
                       </use>
               </g>
        </defs>

<script type="text/javascript">
var viewWidth = 1735;
var viewHeight = 397;
var sectionId = 'dynsection-0';
</script>
<script xlink:href="svgpan.js"/>
<svg id="graph" class="graph">
<g id="viewport">
<title>/__w/pairinteraction/pairinteraction/pairinteraction/MatrixElements.cpp</title>
<!-- Node1 -->
<g id="node1" class="node">
<title>Node1</title>
<g id="a_node1"><a xlink:title=" ">
<polygon fill="#bfbfbf" stroke="black" points="1225.5,-347.5 1225.5,-388.5 1390.5,-388.5 1390.5,-347.5 1225.5,-347.5"/>
<text text-anchor="start" x="1233.5" y="-376.5" font-family="Helvetica,sans-Serif" font-size="10.00">/__w/pairinteraction</text>
<text text-anchor="start" x="1233.5" y="-365.5" font-family="Helvetica,sans-Serif" font-size="10.00">/pairinteraction/pairinteraction</text>
<text text-anchor="middle" x="1308" y="-354.5" font-family="Helvetica,sans-Serif" font-size="10.00">/MatrixElements.cpp</text>
</a>
</g>
</g>
<!-- Node2 -->
<g id="node2" class="node">
<title>Node2</title>
<g id="a_node2"><a xlink:href="MatrixElements_8hpp.html" target="_top" xlink:title=" ">
<polygon fill="none" stroke="black" points="687.5,-291.5 687.5,-310.5 802.5,-310.5 802.5,-291.5 687.5,-291.5"/>
<text text-anchor="middle" x="745" y="-298.5" font-family="Helvetica,sans-Serif" font-size="10.00">MatrixElements.hpp</text>
</a>
</g>
</g>
<!-- Node1&#45;&gt;Node2 -->
<g id="edge1" class="edge">
<title>Node1&#45;&gt;Node2</title>
<path fill="none" stroke="midnightblue" d="M1225.23,-357.44C1113.42,-344.53 916.23,-321.77 812.74,-309.82"/>
<polygon fill="midnightblue" stroke="midnightblue" points="813.06,-306.33 802.72,-308.66 812.26,-313.29 813.06,-306.33"/>
</g>
<!-- Node6 -->
<g id="node6" class="node">
<title>Node6</title>
<g id="a_node6"><a xlink:title=" ">
<polygon fill="none" stroke="#bfbfbf" points="1053,-56.5 1053,-75.5 1109,-75.5 1109,-56.5 1053,-56.5"/>
<text text-anchor="middle" x="1081" y="-63.5" font-family="Helvetica,sans-Serif" font-size="10.00">sstream</text>
</a>
</g>
</g>
<!-- Node1&#45;&gt;Node6 -->
<g id="edge64" class="edge">
<title>Node1&#45;&gt;Node6</title>
<path fill="none" stroke="midnightblue" d="M1296.67,-347.28C1270.67,-302.84 1203.42,-192.46 1132,-112 1122.32,-101.1 1110.12,-90.25 1100.08,-81.93"/>
<polygon fill="midnightblue" stroke="midnightblue" points="1102.23,-79.17 1092.25,-75.6 1097.83,-84.61 1102.23,-79.17"/>
</g>
<!-- Node7 -->
<g id="node7" class="node">
<title>Node7</title>
<g id="a_node7"><a xlink:title=" ">
<polygon fill="none" stroke="#bfbfbf" points="597,-56.5 597,-75.5 641,-75.5 641,-56.5 597,-56.5"/>
<text text-anchor="middle" x="619" y="-63.5" font-family="Helvetica,sans-Serif" font-size="10.00">string</text>
</a>
</g>
</g>
<!-- Node1&#45;&gt;Node7 -->
<g id="edge66" class="edge">
<title>Node1&#45;&gt;Node7</title>
<path fill="none" stroke="midnightblue" d="M1225.19,-366.01C971.79,-361.89 224,-341.22 224,-240.5 224,-240.5 224,-240.5 224,-177 224,-140.82 241.73,-130.2 273,-112 325.89,-81.22 510.85,-70.99 586.44,-68.05"/>
<polygon fill="midnightblue" stroke="midnightblue" points="586.9,-71.54 596.77,-67.67 586.65,-64.54 586.9,-71.54"/>
</g>
<!-- Node19 -->
<g id="node19" class="node">
<title>Node19</title>
<g id="a_node19"><a xlink:title=" ">
<polygon fill="none" stroke="#bfbfbf" points="1205,-56.5 1205,-75.5 1265,-75.5 1265,-56.5 1205,-56.5"/>
<text text-anchor="middle" x="1235" y="-63.5" font-family="Helvetica,sans-Serif" font-size="10.00">iostream</text>
</a>
</g>
</g>
<!-- Node1&#45;&gt;Node19 -->
<g id="edge62" class="edge">
<title>Node1&#45;&gt;Node19</title>
<path fill="none" stroke="midnightblue" d="M1312.79,-347.42C1318.42,-322.67 1327,-278.7 1327,-240.5 1327,-240.5 1327,-240.5 1327,-177 1327,-146.77 1325.42,-135.96 1307,-112 1296.39,-98.19 1280.24,-87.55 1265.92,-80.09"/>
<polygon fill="midnightblue" stroke="midnightblue" points="1267.38,-76.9 1256.86,-75.64 1264.29,-83.18 1267.38,-76.9"/>
</g>
<!-- Node28 -->
<g id="node28" class="node">
<title>Node28</title>
<g id="a_node28"><a xlink:href="QuantumDefect_8hpp.html" target="_top" xlink:title=" ">
<polygon fill="none" stroke="black" points="919.5,-168.5 919.5,-187.5 1034.5,-187.5 1034.5,-168.5 919.5,-168.5"/>
<text text-anchor="middle" x="977" y="-175.5" font-family="Helvetica,sans-Serif" font-size="10.00">QuantumDefect.hpp</text>
</a>
</g>
</g>
<!-- Node1&#45;&gt;Node28 -->
<g id="edge58" class="edge">
<title>Node1&#45;&gt;Node28</title>
<path fill="none" stroke="midnightblue" d="M1268.98,-347.43C1248.33,-336.91 1222.63,-323.55 1200,-311 1125.7,-269.79 1039.66,-217.54 999.64,-192.97"/>
<polygon fill="midnightblue" stroke="midnightblue" points="1001.28,-189.87 990.93,-187.62 997.61,-195.84 1001.28,-189.87"/>
</g>
<!-- Node29 -->
<g id="node29" class="node">
<title>Node29</title>
<g id="a_node29"><a xlink:href="SQLite_8hpp.html" target="_top" xlink:title=" ">
<polygon fill="none" stroke="black" points="1229.5,-112.5 1229.5,-131.5 1298.5,-131.5 1298.5,-112.5 1229.5,-112.5"/>
<text text-anchor="middle" x="1264" y="-119.5" font-family="Helvetica,sans-Serif" font-size="10.00">SQLite.hpp</text>
</a>
</g>
</g>
<!-- Node1&#45;&gt;Node29 -->
<g id="edge59" class="edge">
<title>Node1&#45;&gt;Node29</title>
<path fill="none" stroke="midnightblue" d="M1304.47,-347.44C1296.16,-301.37 1275.45,-186.48 1267.33,-141.48"/>
<polygon fill="midnightblue" stroke="midnightblue" points="1270.78,-140.86 1265.56,-131.64 1263.89,-142.1 1270.78,-140.86"/>
</g>
<!-- Node32 -->
<g id="node32" class="node">
<title>Node32</title>
<g id="a_node32"><a xlink:title=" ">
<polygon fill="none" stroke="#bfbfbf" points="1425.5,-56.5 1425.5,-75.5 1470.5,-75.5 1470.5,-56.5 1425.5,-56.5"/>
<text text-anchor="middle" x="1448" y="-63.5" font-family="Helvetica,sans-Serif" font-size="10.00">utility</text>
</a>
</g>
</g>
<!-- Node1&#45;&gt;Node32 -->
<g id="edge67" class="edge">
<title>Node1&#45;&gt;Node32</title>
<path fill="none" stroke="midnightblue" d="M1323.27,-347.21C1340.16,-323.3 1365,-281.21 1365,-240.5 1365,-240.5 1365,-240.5 1365,-177 1365,-135.91 1402.36,-100.44 1426.95,-81.55"/>
<polygon fill="midnightblue" stroke="midnightblue" points="1429.07,-84.33 1435.03,-75.57 1424.91,-78.7 1429.07,-84.33"/>
</g>
<!-- Node36 -->
<g id="node36" class="node">
<title>Node36</title>
<g id="a_node36"><a xlink:title=" ">
<polygon fill="none" stroke="#bfbfbf" points="1053,-168.5 1053,-187.5 1097,-187.5 1097,-168.5 1053,-168.5"/>
<text text-anchor="middle" x="1075" y="-175.5" font-family="Helvetica,sans-Serif" font-size="10.00">limits</text>
</a>
</g>
</g>
<!-- Node1&#45;&gt;Node36 -->
<g id="edge63" class="edge">
<title>Node1&#45;&gt;Node36</title>
<path fill="none" stroke="midnightblue" d="M1275.81,-347.4C1259.98,-337.23 1240.92,-324.2 1225,-311 1183.15,-276.29 1180.51,-259.11 1139,-224 1125.81,-212.85 1109.94,-201.67 1097.3,-193.25"/>
<polygon fill="midnightblue" stroke="midnightblue" points="1099.03,-190.2 1088.75,-187.64 1095.19,-196.05 1099.03,-190.2"/>
</g>
<!-- Node39 -->
<g id="node39" class="node">
<title>Node39</title>
<g id="a_node39"><a xlink:href="Constants_8hpp.html" target="_top" xlink:title=" ">
<polygon fill="none" stroke="black" points="1393,-291.5 1393,-310.5 1479,-310.5 1479,-291.5 1393,-291.5"/>
<text text-anchor="middle" x="1436" y="-298.5" font-family="Helvetica,sans-Serif" font-size="10.00">Constants.hpp</text>
</a>
</g>
</g>
<!-- Node1&#45;&gt;Node39 -->
<g id="edge57" class="edge">
<title>Node1&#45;&gt;Node39</title>
<path fill="none" stroke="midnightblue" d="M1346.4,-347.5C1366.88,-337.1 1391.54,-324.58 1409.8,-315.31"/>
<polygon fill="midnightblue" stroke="midnightblue" points="1411.63,-318.3 1418.96,-310.65 1408.46,-312.06 1411.63,-318.3"/>
</g>
<!-- Node40 -->
<g id="node40" class="node">
<title>Node40</title>
<g id="a_node40"><a xlink:title=" ">
<polygon fill="none" stroke="#bfbfbf" points="1497.5,-291.5 1497.5,-310.5 1576.5,-310.5 1576.5,-291.5 1497.5,-291.5"/>
<text text-anchor="middle" x="1537" y="-298.5" font-family="Helvetica,sans-Serif" font-size="10.00">fmt/format.h</text>
</a>
</g>
</g>
<!-- Node1&#45;&gt;Node40 -->
<g id="edge60" class="edge">
<title>Node1&#45;&gt;Node40</title>
<path fill="none" stroke="midnightblue" d="M1376.71,-347.5C1415.99,-336.35 1463.88,-322.76 1497.03,-313.35"/>
<polygon fill="midnightblue" stroke="midnightblue" points="1498.15,-316.66 1506.82,-310.57 1496.24,-309.93 1498.15,-316.66"/>
</g>
<!-- Node41 -->
<g id="node41" class="node">
<title>Node41</title>
<g id="a_node41"><a xlink:title=" ">
<polygon fill="none" stroke="#bfbfbf" points="1594.5,-291.5 1594.5,-310.5 1643.5,-310.5 1643.5,-291.5 1594.5,-291.5"/>
<text text-anchor="middle" x="1619" y="-298.5" font-family="Helvetica,sans-Serif" font-size="10.00">cctype</text>
</a>
</g>
</g>
<!-- Node1&#45;&gt;Node41 -->
<g id="edge61" class="edge">
<title>Node1&#45;&gt;Node41</title>
<path fill="none" stroke="midnightblue" d="M1390.7,-351.61C1443.42,-341.49 1513.4,-327.48 1584.17,-311.09"/>
<polygon fill="midnightblue" stroke="midnightblue" points="1585.22,-314.44 1594.16,-308.76 1583.63,-307.62 1585.22,-314.44"/>
</g>
<!-- Node42 -->
<g id="node42" class="node">
<title>Node42</title>
<g id="a_node42"><a xlink:title=" ">
<polygon fill="none" stroke="#bfbfbf" points="1661.5,-291.5 1661.5,-310.5 1726.5,-310.5 1726.5,-291.5 1661.5,-291.5"/>
<text text-anchor="middle" x="1694" y="-298.5" font-family="Helvetica,sans-Serif" font-size="10.00">stdexcept</text>
</a>
</g>
</g>
<!-- Node1&#45;&gt;Node42 -->
<g id="edge65" class="edge">
<title>Node1&#45;&gt;Node42</title>
<path fill="none" stroke="midnightblue" d="M1390.57,-354.74C1457.99,-344.45 1555.98,-328.89 1651.36,-311.04"/>
<polygon fill="midnightblue" stroke="midnightblue" points="1652.29,-314.43 1661.47,-309.14 1651,-307.55 1652.29,-314.43"/>
</g>
<!-- Node3 -->
<g id="node3" class="node">
<title>Node3</title>
<g id="a_node3"><a xlink:href="Basisnames_8hpp.html" target="_top" xlink:title=" ">
<polygon fill="none" stroke="black" points="503.5,-168.5 503.5,-187.5 600.5,-187.5 600.5,-168.5 503.5,-168.5"/>
<text text-anchor="middle" x="552" y="-175.5" font-family="Helvetica,sans-Serif" font-size="10.00">Basisnames.hpp</text>
</a>
</g>
</g>
<!-- Node2&#45;&gt;Node3 -->
<g id="edge2" class="edge">
<title>Node2&#45;&gt;Node3</title>
<path fill="none" stroke="midnightblue" d="M731.43,-291.49C698.63,-270.93 614.8,-218.38 574.42,-193.05"/>
<polygon fill="midnightblue" stroke="midnightblue" points="576.15,-190.01 565.81,-187.66 572.43,-195.94 576.15,-190.01"/>
</g>
<!-- Node2&#45;&gt;Node6 -->
<g id="edge54" class="edge">
<title>Node2&#45;&gt;Node6</title>
<path fill="none" stroke="midnightblue" d="M802.75,-295.47C878.42,-288.84 1006.49,-275.09 1049,-255 1089.11,-236.05 1105.01,-228.56 1123,-188 1139.07,-151.77 1112.41,-107.34 1094.72,-83.69"/>
<polygon fill="midnightblue" stroke="midnightblue" points="1097.4,-81.43 1088.49,-75.7 1091.88,-85.74 1097.4,-81.43"/>
</g>
<!-- Node2&#45;&gt;Node7 -->
<g id="edge55" class="edge">
<title>Node2&#45;&gt;Node7</title>
<path fill="none" stroke="midnightblue" d="M704.24,-291.46C600.59,-268.85 331.61,-204.15 281,-132 275.9,-124.72 275.14,-118.69 281,-112 301.01,-89.14 506.27,-74.01 586.81,-68.91"/>
<polygon fill="midnightblue" stroke="midnightblue" points="587.12,-72.4 596.88,-68.28 586.68,-65.41 587.12,-72.4"/>
</g>
<!-- Node9 -->
<g id="node9" class="node">
<title>Node9</title>
<g id="a_node9"><a xlink:href="StateOld_8hpp.html" target="_top" xlink:title=" ">
<polygon fill="none" stroke="black" points="116,-112.5 116,-131.5 196,-131.5 196,-112.5 116,-112.5"/>
<text text-anchor="middle" x="156" y="-119.5" font-family="Helvetica,sans-Serif" font-size="10.00">StateOld.hpp</text>
</a>
</g>
</g>
<!-- Node2&#45;&gt;Node9 -->
<g id="edge29" class="edge">
<title>Node2&#45;&gt;Node9</title>
<path fill="none" stroke="midnightblue" d="M687.34,-300.88C616.75,-300.09 494.66,-292.64 398,-255 375.71,-246.32 374.48,-236.36 354,-224 295.51,-188.72 223.25,-153.95 184.22,-135.84"/>
<polygon fill="midnightblue" stroke="midnightblue" points="185.59,-132.62 175.04,-131.61 182.66,-138.97 185.59,-132.62"/>
</g>
<!-- Node23 -->
<g id="node23" class="node">
<title>Node23</title>
<g id="a_node23"><a xlink:title=" ">
<polygon fill="none" stroke="#bfbfbf" points="977,-56.5 977,-75.5 1035,-75.5 1035,-56.5 977,-56.5"/>
<text text-anchor="middle" x="1006" y="-63.5" font-family="Helvetica,sans-Serif" font-size="10.00">memory</text>
</a>
</g>
</g>
<!-- Node2&#45;&gt;Node23 -->
<g id="edge53" class="edge">
<title>Node2&#45;&gt;Node23</title>
<path fill="none" stroke="midnightblue" d="M802.68,-295.62C854.4,-290.3 931.66,-278.88 995,-255 1048.92,-234.67 1077.68,-238.18 1106,-188 1130.45,-144.68 1069.2,-101.62 1032.02,-80.47"/>
<polygon fill="midnightblue" stroke="midnightblue" points="1033.6,-77.35 1023.16,-75.58 1030.22,-83.48 1033.6,-77.35"/>
</g>
<!-- Node27 -->
<g id="node27" class="node">
<title>Node27</title>
<g id="a_node27"><a xlink:href="Wavefunction_8hpp.html" target="_top" xlink:title=" ">
<polygon fill="none" stroke="black" points="692.5,-230 692.5,-249 797.5,-249 797.5,-230 692.5,-230"/>
<text text-anchor="middle" x="745" y="-237" font-family="Helvetica,sans-Serif" font-size="10.00">Wavefunction.hpp</text>
</a>
</g>
</g>
<!-- Node2&#45;&gt;Node27 -->
<g id="edge30" class="edge">
<title>Node2&#45;&gt;Node27</title>
<path fill="none" stroke="midnightblue" d="M745,-291.48C745,-283.08 745,-269.98 745,-259.16"/>
<polygon fill="midnightblue" stroke="midnightblue" points="748.5,-259.01 745,-249.01 741.5,-259.01 748.5,-259.01"/>
</g>
<!-- Node37 -->
<g id="node37" class="node">
<title>Node37</title>
<g id="a_node37"><a xlink:title=" ">
<polygon fill="none" stroke="#bfbfbf" points="816,-224.5 816,-254.5 986,-254.5 986,-224.5 816,-224.5"/>
<text text-anchor="start" x="824" y="-242.5" font-family="Helvetica,sans-Serif" font-size="10.00">wignerSymbols/wignerSymbols</text>
<text text-anchor="middle" x="901" y="-231.5" font-family="Helvetica,sans-Serif" font-size="10.00">&#45;cpp.h</text>
</a>
</g>
</g>
<!-- Node2&#45;&gt;Node37 -->
<g id="edge52" class="edge">
<title>Node2&#45;&gt;Node37</title>
<path fill="none" stroke="midnightblue" d="M767.35,-291.48C790.06,-282.81 825.9,-269.15 854.75,-258.14"/>
<polygon fill="midnightblue" stroke="midnightblue" points="856.14,-261.36 864.23,-254.52 853.64,-254.82 856.14,-261.36"/>
</g>
<!-- Node38 -->
<g id="node38" class="node">
<title>Node38</title>
<g id="a_node38"><a xlink:title=" ">
<polygon fill="none" stroke="#bfbfbf" points="252.5,-230 252.5,-249 345.5,-249 345.5,-230 252.5,-230"/>
<text text-anchor="middle" x="299" y="-237" font-family="Helvetica,sans-Serif" font-size="10.00">unordered_map</text>
</a>
</g>
</g>
<!-- Node2&#45;&gt;Node38 -->
<g id="edge56" class="edge">
<title>Node2&#45;&gt;Node38</title>
<path fill="none" stroke="midnightblue" d="M687.29,-295.38C611.73,-288.84 475.31,-275.37 360,-255 354.09,-253.96 347.91,-252.69 341.83,-251.35"/>
<polygon fill="midnightblue" stroke="midnightblue" points="342.31,-247.87 331.78,-249.04 340.74,-254.69 342.31,-247.87"/>
</g>
<!-- Node4 -->
<g id="node4" class="node">
<title>Node4</title>
<g id="a_node4"><a xlink:href="ConfParser_8hpp.html" target="_top" xlink:title=" ">
<polygon fill="none" stroke="black" points="666.5,-112.5 666.5,-131.5 757.5,-131.5 757.5,-112.5 666.5,-112.5"/>
<text text-anchor="middle" x="712" y="-119.5" font-family="Helvetica,sans-Serif" font-size="10.00">ConfParser.hpp</text>
</a>
</g>
</g>
<!-- Node3&#45;&gt;Node4 -->
<g id="edge3" class="edge">
<title>Node3&#45;&gt;Node4</title>
<path fill="none" stroke="midnightblue" d="M577.35,-168.44C604.27,-159.36 647,-144.94 677.09,-134.78"/>
<polygon fill="midnightblue" stroke="midnightblue" points="678.41,-138.03 686.77,-131.52 676.17,-131.4 678.41,-138.03"/>
</g>
<!-- Node3&#45;&gt;Node7 -->
<g id="edge26" class="edge">
<title>Node3&#45;&gt;Node7</title>
<path fill="none" stroke="midnightblue" d="M557.67,-168.44C563.6,-159.44 573.12,-144.83 581,-132 590.7,-116.2 601.32,-97.95 608.86,-84.82"/>
<polygon fill="midnightblue" stroke="midnightblue" points="612.03,-86.32 613.96,-75.9 605.96,-82.85 612.03,-86.32"/>
</g>
<!-- Node8 -->
<g id="node8" class="node">
<title>Node8</title>
<g id="a_node8"><a xlink:href="Iter_8hpp.html" target="_top" xlink:title=" ">
<polygon fill="none" stroke="black" points="394,-112.5 394,-131.5 448,-131.5 448,-112.5 394,-112.5"/>
<text text-anchor="middle" x="421" y="-119.5" font-family="Helvetica,sans-Serif" font-size="10.00">Iter.hpp</text>
</a>
</g>
</g>
<!-- Node3&#45;&gt;Node8 -->
<g id="edge7" class="edge">
<title>Node3&#45;&gt;Node8</title>
<path fill="none" stroke="midnightblue" d="M531.24,-168.44C509.68,-159.56 475.74,-145.56 451.21,-135.45"/>
<polygon fill="midnightblue" stroke="midnightblue" points="452.24,-132.09 441.66,-131.52 449.57,-138.56 452.24,-132.09"/>
</g>
<!-- Node3&#45;&gt;Node9 -->
<g id="edge8" class="edge">
<title>Node3&#45;&gt;Node9</title>
<path fill="none" stroke="midnightblue" d="M503.44,-170.38C427.99,-160.09 283.33,-140.36 206.63,-129.9"/>
<polygon fill="midnightblue" stroke="midnightblue" points="206.66,-126.38 196.28,-128.49 205.71,-133.31 206.66,-126.38"/>
</g>
<!-- Node22 -->
<g id="node22" class="node">
<title>Node22</title>
<g id="a_node22"><a xlink:title=" ">
<polygon fill="none" stroke="#bfbfbf" points="466.5,-112.5 466.5,-131.5 521.5,-131.5 521.5,-112.5 466.5,-112.5"/>
<text text-anchor="middle" x="494" y="-119.5" font-family="Helvetica,sans-Serif" font-size="10.00">fstream</text>
</a>
</g>
</g>
<!-- Node3&#45;&gt;Node22 -->
<g id="edge23" class="edge">
<title>Node3&#45;&gt;Node22</title>
<path fill="none" stroke="midnightblue" d="M542.68,-168.32C534.11,-160.34 521.19,-148.31 510.81,-138.65"/>
<polygon fill="midnightblue" stroke="midnightblue" points="513.19,-136.09 503.49,-131.83 508.42,-141.21 513.19,-136.09"/>
</g>
<!-- Node3&#45;&gt;Node23 -->
<g id="edge24" class="edge">
<title>Node3&#45;&gt;Node23</title>
<path fill="none" stroke="midnightblue" d="M600.6,-170.56C644.64,-163.85 710.89,-151.53 766,-132 784.36,-125.49 786.68,-118.61 805,-112 871.4,-88.04 893.2,-91.89 966.43,-76.06"/>
<polygon fill="midnightblue" stroke="midnightblue" points="967.61,-79.39 976.62,-73.81 966.1,-72.55 967.61,-79.39"/>
</g>
<!-- Node24 -->
<g id="node24" class="node">
<title>Node24</title>
<g id="a_node24"><a xlink:title=" ">
<polygon fill="none" stroke="#bfbfbf" points="540,-112.5 540,-131.5 572,-131.5 572,-112.5 540,-112.5"/>
<text text-anchor="middle" x="556" y="-119.5" font-family="Helvetica,sans-Serif" font-size="10.00">set</text>
</a>
</g>
</g>
<!-- Node3&#45;&gt;Node24 -->
<g id="edge25" class="edge">
<title>Node3&#45;&gt;Node24</title>
<path fill="none" stroke="midnightblue" d="M552.66,-168.08C553.18,-161.01 553.94,-150.86 554.59,-141.99"/>
<polygon fill="midnightblue" stroke="midnightblue" points="558.1,-141.98 555.35,-131.75 551.12,-141.47 558.1,-141.98"/>
</g>
<!-- Node25 -->
<g id="node25" class="node">
<title>Node25</title>
<g id="a_node25"><a xlink:title=" ">
<polygon fill="none" stroke="#bfbfbf" points="290,-112.5 290,-131.5 376,-131.5 376,-112.5 290,-112.5"/>
<text text-anchor="middle" x="333" y="-119.5" font-family="Helvetica,sans-Serif" font-size="10.00">unordered_set</text>
</a>
</g>
</g>
<!-- Node3&#45;&gt;Node25 -->
<g id="edge27" class="edge">
<title>Node3&#45;&gt;Node25</title>
<path fill="none" stroke="midnightblue" d="M517.3,-168.44C479.42,-159.1 418.65,-144.12 377.34,-133.93"/>
<polygon fill="midnightblue" stroke="midnightblue" points="378.09,-130.51 367.54,-131.52 376.41,-137.31 378.09,-130.51"/>
</g>
<!-- Node26 -->
<g id="node26" class="node">
<title>Node26</title>
<g id="a_node26"><a xlink:title=" ">
<polygon fill="none" stroke="#bfbfbf" points="814.5,-112.5 814.5,-131.5 861.5,-131.5 861.5,-112.5 814.5,-112.5"/>
<text text-anchor="middle" x="838" y="-119.5" font-family="Helvetica,sans-Serif" font-size="10.00">vector</text>
</a>
</g>
</g>
<!-- Node3&#45;&gt;Node26 -->
<g id="edge28" class="edge">
<title>Node3&#45;&gt;Node26</title>
<path fill="none" stroke="midnightblue" d="M600.62,-168.96C650.73,-160.5 731.04,-146.41 800,-132 801.45,-131.7 802.93,-131.38 804.43,-131.05"/>
<polygon fill="midnightblue" stroke="midnightblue" points="805.35,-134.43 814.33,-128.81 803.8,-127.61 805.35,-134.43"/>
</g>
<!-- Node5 -->
<g id="node5" class="node">
<title>Node5</title>
<g id="a_node5"><a xlink:title=" ">
<polygon fill="none" stroke="#bfbfbf" points="693,-56.5 693,-75.5 731,-75.5 731,-56.5 693,-56.5"/>
<text text-anchor="middle" x="712" y="-63.5" font-family="Helvetica,sans-Serif" font-size="10.00">map</text>
</a>
</g>
</g>
<!-- Node4&#45;&gt;Node5 -->
<g id="edge4" class="edge">
<title>Node4&#45;&gt;Node5</title>
<path fill="none" stroke="midnightblue" d="M712,-112.08C712,-105.01 712,-94.86 712,-85.99"/>
<polygon fill="midnightblue" stroke="midnightblue" points="715.5,-85.75 712,-75.75 708.5,-85.75 715.5,-85.75"/>
</g>
<!-- Node4&#45;&gt;Node6 -->
<g id="edge5" class="edge">
<title>Node4&#45;&gt;Node6</title>
<path fill="none" stroke="midnightblue" d="M757.62,-116.34C819.89,-109.63 935.16,-96.04 1042.73,-76.07"/>
<polygon fill="midnightblue" stroke="midnightblue" points="1043.6,-79.47 1052.78,-74.18 1042.31,-72.59 1043.6,-79.47"/>
</g>
<!-- Node4&#45;&gt;Node7 -->
<g id="edge6" class="edge">
<title>Node4&#45;&gt;Node7</title>
<path fill="none" stroke="midnightblue" d="M697.06,-112.32C682.41,-103.82 659.87,-90.73 642.76,-80.8"/>
<polygon fill="midnightblue" stroke="midnightblue" points="644.31,-77.65 633.9,-75.65 640.8,-83.7 644.31,-77.65"/>
</g>
<!-- Node9&#45;&gt;Node7 -->
<g id="edge20" class="edge">
<title>Node9&#45;&gt;Node7</title>
<path fill="none" stroke="midnightblue" d="M196.07,-114.07C200.76,-113.33 205.48,-112.62 210,-112 349.71,-92.69 517.2,-76.4 586.52,-69.96"/>
<polygon fill="midnightblue" stroke="midnightblue" points="587.14,-73.41 596.78,-69.01 586.5,-66.44 587.14,-73.41"/>
</g>
<!-- Node10 -->
<g id="node10" class="node">
<title>Node10</title>
<g id="a_node10"><a xlink:href="utils_8hpp.html" target="_top" xlink:title=" ">
<polygon fill="none" stroke="black" points="899.5,-56.5 899.5,-75.5 958.5,-75.5 958.5,-56.5 899.5,-56.5"/>
<text text-anchor="middle" x="929" y="-63.5" font-family="Helvetica,sans-Serif" font-size="10.00">utils.hpp</text>
</a>
</g>
</g>
<!-- Node9&#45;&gt;Node10 -->
<g id="edge9" class="edge">
<title>Node9&#45;&gt;Node10</title>
<path fill="none" stroke="midnightblue" d="M196.25,-118.08C220.75,-116.3 252.68,-114 281,-112 511.33,-95.71 787.75,-76.69 889.19,-69.73"/>
<polygon fill="midnightblue" stroke="midnightblue" points="889.55,-73.21 899.29,-69.04 889.07,-66.23 889.55,-73.21"/>
</g>
<!-- Node12 -->
<g id="node12" class="node">
<title>Node12</title>
<g id="a_node12"><a xlink:title=" ">
<polygon fill="none" stroke="#bfbfbf" points="444,-0.5 444,-19.5 486,-19.5 486,-0.5 444,-0.5"/>
<text text-anchor="middle" x="465" y="-7.5" font-family="Helvetica,sans-Serif" font-size="10.00">array</text>
</a>
</g>
</g>
<!-- Node9&#45;&gt;Node12 -->
<g id="edge17" class="edge">
<title>Node9&#45;&gt;Node12</title>
<path fill="none" stroke="midnightblue" d="M155.8,-112.31C155.98,-98.2 158.56,-70.42 175,-56 213,-22.66 366.36,-13.97 433.39,-11.74"/>
<polygon fill="midnightblue" stroke="midnightblue" points="433.85,-15.23 443.74,-11.43 433.64,-8.24 433.85,-15.23"/>
</g>
<!-- Node18 -->
<g id="node18" class="node">
<title>Node18</title>
<g id="a_node18"><a xlink:title=" ">
<polygon fill="none" stroke="#bfbfbf" points="184.5,-56.5 184.5,-75.5 231.5,-75.5 231.5,-56.5 184.5,-56.5"/>
<text text-anchor="middle" x="208" y="-63.5" font-family="Helvetica,sans-Serif" font-size="10.00">cmath</text>
</a>
</g>
</g>
<!-- Node9&#45;&gt;Node18 -->
<g id="edge18" class="edge">
<title>Node9&#45;&gt;Node18</title>
<path fill="none" stroke="midnightblue" d="M164.59,-112.08C172.16,-104.22 183.38,-92.57 192.51,-83.08"/>
<polygon fill="midnightblue" stroke="midnightblue" points="195.16,-85.38 199.57,-75.75 190.12,-80.53 195.16,-85.38"/>
</g>
<!-- Node9&#45;&gt;Node19 -->
<g id="edge19" class="edge">
<title>Node9&#45;&gt;Node19</title>
<path fill="none" stroke="midnightblue" d="M196.23,-117.77C220.72,-115.89 252.65,-113.58 281,-112 686.91,-89.4 791.91,-128.84 1195,-76 1195.1,-75.99 1195.2,-75.97 1195.3,-75.96"/>
<polygon fill="midnightblue" stroke="midnightblue" points="1195.66,-79.45 1204.96,-74.37 1194.53,-72.54 1195.66,-79.45"/>
</g>
<!-- Node20 -->
<g id="node20" class="node">
<title>Node20</title>
<g id="a_node20"><a xlink:title=" ">
<polygon fill="none" stroke="#bfbfbf" points="249.5,-56.5 249.5,-75.5 374.5,-75.5 374.5,-56.5 249.5,-56.5"/>
<text text-anchor="middle" x="312" y="-63.5" font-family="Helvetica,sans-Serif" font-size="10.00">cereal/types/array.hpp</text>
</a>
</g>
</g>
<!-- Node9&#45;&gt;Node20 -->
<g id="edge21" class="edge">
<title>Node9&#45;&gt;Node20</title>
<path fill="none" stroke="midnightblue" d="M180.72,-112.44C206.85,-103.4 248.26,-89.06 277.58,-78.92"/>
<polygon fill="midnightblue" stroke="midnightblue" points="279.09,-82.1 287.4,-75.52 276.8,-75.48 279.09,-82.1"/>
</g>
<!-- Node21 -->
<g id="node21" class="node">
<title>Node21</title>
<g id="a_node21"><a xlink:title=" ">
<polygon fill="none" stroke="#bfbfbf" points="0,-56.5 0,-75.5 128,-75.5 128,-56.5 0,-56.5"/>
<text text-anchor="middle" x="64" y="-63.5" font-family="Helvetica,sans-Serif" font-size="10.00">cereal/types/string.hpp</text>
</a>
</g>
</g>
<!-- Node9&#45;&gt;Node21 -->
<g id="edge22" class="edge">
<title>Node9&#45;&gt;Node21</title>
<path fill="none" stroke="midnightblue" d="M141.22,-112.32C126.73,-103.82 104.43,-90.73 87.51,-80.8"/>
<polygon fill="midnightblue" stroke="midnightblue" points="89.14,-77.7 78.74,-75.65 85.6,-83.74 89.14,-77.7"/>
</g>
<!-- Node11 -->
<g id="node11" class="node">
<title>Node11</title>
<g id="a_node11"><a xlink:title=" ">
<polygon fill="none" stroke="#bfbfbf" points="837,-0.5 837,-19.5 901,-19.5 901,-0.5 837,-0.5"/>
<text text-anchor="middle" x="869" y="-7.5" font-family="Helvetica,sans-Serif" font-size="10.00">algorithm</text>
</a>
</g>
</g>
<!-- Node10&#45;&gt;Node11 -->
<g id="edge10" class="edge">
<title>Node10&#45;&gt;Node11</title>
<path fill="none" stroke="midnightblue" d="M919.36,-56.32C910.49,-48.34 897.13,-36.31 886.39,-26.65"/>
<polygon fill="midnightblue" stroke="midnightblue" points="888.59,-23.92 878.82,-19.83 883.91,-29.13 888.59,-23.92"/>
</g>
<!-- Node10&#45;&gt;Node12 -->
<g id="edge11" class="edge">
<title>Node10&#45;&gt;Node12</title>
<path fill="none" stroke="midnightblue" d="M899.27,-61.54C816.02,-51.85 581.16,-24.52 496.18,-14.63"/>
<polygon fill="midnightblue" stroke="midnightblue" points="496.46,-11.14 486.12,-13.46 495.65,-18.09 496.46,-11.14"/>
</g>
<!-- Node13 -->
<g id="node13" class="node">
<title>Node13</title>
<g id="a_node13"><a xlink:title=" ">
<polygon fill="none" stroke="#bfbfbf" points="919.5,-0.5 919.5,-19.5 978.5,-19.5 978.5,-0.5 919.5,-0.5"/>
<text text-anchor="middle" x="949" y="-7.5" font-family="Helvetica,sans-Serif" font-size="10.00">complex</text>
</a>
</g>
</g>
<!-- Node10&#45;&gt;Node13 -->
<g id="edge12" class="edge">
<title>Node10&#45;&gt;Node13</title>
<path fill="none" stroke="midnightblue" d="M932.3,-56.08C934.98,-48.85 938.85,-38.41 942.19,-29.4"/>
<polygon fill="midnightblue" stroke="midnightblue" points="945.57,-30.34 945.76,-19.75 939,-27.91 945.57,-30.34"/>
</g>
<!-- Node14 -->
<g id="node14" class="node">
<title>Node14</title>
<g id="a_node14"><a xlink:title=" ">
<polygon fill="none" stroke="#bfbfbf" points="996.5,-0.5 996.5,-19.5 1061.5,-19.5 1061.5,-0.5 996.5,-0.5"/>
<text text-anchor="middle" x="1029" y="-7.5" font-family="Helvetica,sans-Serif" font-size="10.00">functional</text>
</a>
</g>
</g>
<!-- Node10&#45;&gt;Node14 -->
<g id="edge13" class="edge">
<title>Node10&#45;&gt;Node14</title>
<path fill="none" stroke="midnightblue" d="M945.07,-56.32C960.96,-47.74 985.51,-34.49 1003.96,-24.52"/>
<polygon fill="midnightblue" stroke="midnightblue" points="1005.84,-27.49 1012.97,-19.65 1002.51,-21.33 1005.84,-27.49"/>
</g>
<!-- Node15 -->
<g id="node15" class="node">
<title>Node15</title>
<g id="a_node15"><a xlink:title=" ">
<polygon fill="none" stroke="#bfbfbf" points="1162,-0.5 1162,-19.5 1216,-19.5 1216,-0.5 1162,-0.5"/>
<text text-anchor="middle" x="1189" y="-7.5" font-family="Helvetica,sans-Serif" font-size="10.00">random</text>
</a>
</g>
</g>
<!-- Node10&#45;&gt;Node15 -->
<g id="edge14" class="edge">
<title>Node10&#45;&gt;Node15</title>
<path fill="none" stroke="midnightblue" d="M958.79,-58.04C961.9,-57.34 965.01,-56.65 968,-56 1032.47,-42 1107.81,-26.94 1151.78,-18.27"/>
<polygon fill="midnightblue" stroke="midnightblue" points="1152.6,-21.68 1161.73,-16.32 1151.25,-14.81 1152.6,-21.68"/>
</g>
<!-- Node16 -->
<g id="node16" class="node">
<title>Node16</title>
<g id="a_node16"><a xlink:title=" ">
<polygon fill="none" stroke="#bfbfbf" points="1275.5,-0.5 1275.5,-19.5 1344.5,-19.5 1344.5,-0.5 1275.5,-0.5"/>
<text text-anchor="middle" x="1310" y="-7.5" font-family="Helvetica,sans-Serif" font-size="10.00">type_traits</text>
</a>
</g>
</g>
<!-- Node10&#45;&gt;Node16 -->
<g id="edge15" class="edge">
<title>Node10&#45;&gt;Node16</title>
<path fill="none" stroke="midnightblue" d="M958.75,-57.83C961.86,-57.17 964.99,-56.54 968,-56 1024.12,-45.86 1186.02,-25.9 1265.25,-16.35"/>
<polygon fill="midnightblue" stroke="midnightblue" points="1265.9,-19.79 1275.41,-15.12 1265.06,-12.84 1265.9,-19.79"/>
</g>
<!-- Node17 -->
<g id="node17" class="node">
<title>Node17</title>
<g id="a_node17"><a xlink:title=" ">
<polygon fill="none" stroke="#bfbfbf" points="763,-0.5 763,-19.5 819,-19.5 819,-0.5 763,-0.5"/>
<text text-anchor="middle" x="791" y="-7.5" font-family="Helvetica,sans-Serif" font-size="10.00">unistd.h</text>
</a>
</g>
</g>
<!-- Node10&#45;&gt;Node17 -->
<g id="edge16" class="edge">
<title>Node10&#45;&gt;Node17</title>
<path fill="none" stroke="midnightblue" d="M907.13,-56.44C884.22,-47.48 848.02,-33.31 822.13,-23.18"/>
<polygon fill="midnightblue" stroke="midnightblue" points="823.35,-19.9 812.76,-19.52 820.8,-26.42 823.35,-19.9"/>
</g>
<!-- Node27&#45;&gt;Node7 -->
<g id="edge50" class="edge">
<title>Node27&#45;&gt;Node7</title>
<path fill="none" stroke="midnightblue" d="M731.33,-229.77C717.78,-220.61 697.09,-205.17 683,-188 656.35,-155.51 635.98,-110.17 625.93,-85.24"/>
<polygon fill="midnightblue" stroke="midnightblue" points="629.07,-83.65 622.16,-75.61 622.55,-86.2 629.07,-83.65"/>
</g>
<!-- Node27&#45;&gt;Node26 -->
<g id="edge51" class="edge">
<title>Node27&#45;&gt;Node26</title>
<path fill="none" stroke="midnightblue" d="M729.89,-229.89C708.65,-216.67 674.31,-190.56 691,-168 697.9,-158.68 763.16,-141.28 804.38,-131.06"/>
<polygon fill="midnightblue" stroke="midnightblue" points="805.41,-134.41 814.29,-128.63 803.74,-127.61 805.41,-134.41"/>
</g>
<!-- Node27&#45;&gt;Node28 -->
<g id="edge31" class="edge">
<title>Node27&#45;&gt;Node28</title>
<path fill="none" stroke="midnightblue" d="M778.24,-229.98C819.24,-219.46 889.03,-201.56 934.05,-190.01"/>
<polygon fill="midnightblue" stroke="midnightblue" points="935,-193.38 943.82,-187.51 933.27,-186.6 935,-193.38"/>
</g>
<!-- Node33 -->
<g id="node33" class="node">
<title>Node33</title>
<g id="a_node33"><a xlink:href="EigenCompat_8hpp.html" target="_top" xlink:title=" ">
<polygon fill="none" stroke="black" points="733.5,-168.5 733.5,-187.5 836.5,-187.5 836.5,-168.5 733.5,-168.5"/>
<text text-anchor="middle" x="785" y="-175.5" font-family="Helvetica,sans-Serif" font-size="10.00">EigenCompat.hpp</text>
</a>
</g>
</g>
<!-- Node27&#45;&gt;Node33 -->
<g id="edge45" class="edge">
<title>Node27&#45;&gt;Node33</title>
<path fill="none" stroke="midnightblue" d="M750.73,-229.98C756.67,-221.14 766.12,-207.09 773.59,-195.98"/>
<polygon fill="midnightblue" stroke="midnightblue" points="776.61,-197.76 779.28,-187.51 770.8,-193.86 776.61,-197.76"/>
</g>
<!-- Node34 -->
<g id="node34" class="node">
<title>Node34</title>
<g id="a_node34"><a xlink:title=" ">
<polygon fill="none" stroke="#bfbfbf" points="879.5,-112.5 879.5,-131.5 948.5,-131.5 948.5,-112.5 879.5,-112.5"/>
<text text-anchor="middle" x="914" y="-119.5" font-family="Helvetica,sans-Serif" font-size="10.00">Eigen/Core</text>
</a>
</g>
</g>
<!-- Node27&#45;&gt;Node34 -->
<g id="edge47" class="edge">
<title>Node27&#45;&gt;Node34</title>
<path fill="none" stroke="midnightblue" d="M737.84,-229.75C727.03,-215.41 709.27,-186.63 724,-168 726.29,-165.1 813.87,-145.22 869.31,-132.87"/>
<polygon fill="midnightblue" stroke="midnightblue" points="870.26,-136.24 879.26,-130.66 868.74,-129.41 870.26,-136.24"/>
</g>
<!-- Node35 -->
<g id="node35" class="node">
<title>Node35</title>
<g id="a_node35"><a xlink:title=" ">
<polygon fill="none" stroke="#bfbfbf" points="855,-168.5 855,-187.5 901,-187.5 901,-168.5 855,-168.5"/>
<text text-anchor="middle" x="878" y="-175.5" font-family="Helvetica,sans-Serif" font-size="10.00">cstdio</text>
</a>
</g>
</g>
<!-- Node27&#45;&gt;Node35 -->
<g id="edge48" class="edge">
<title>Node27&#45;&gt;Node35</title>
<path fill="none" stroke="midnightblue" d="M764.06,-229.98C786.47,-219.95 823.91,-203.2 849.71,-191.65"/>
<polygon fill="midnightblue" stroke="midnightblue" points="851.28,-194.79 858.98,-187.51 848.42,-188.4 851.28,-194.79"/>
</g>
<!-- Node27&#45;&gt;Node36 -->
<g id="edge49" class="edge">
<title>Node27&#45;&gt;Node36</title>
<path fill="none" stroke="midnightblue" d="M779.33,-229.97C788.31,-227.87 797.99,-225.74 807,-224 908.03,-204.51 937.52,-210.04 1042.64,-187.81"/>
<polygon fill="midnightblue" stroke="midnightblue" points="1043.67,-191.17 1052.71,-185.65 1042.2,-184.33 1043.67,-191.17"/>
</g>
<!-- Node28&#45;&gt;Node7 -->
<g id="edge44" class="edge">
<title>Node28&#45;&gt;Node7</title>
<path fill="none" stroke="midnightblue" d="M977.09,-168.26C976.73,-154.07 973.77,-126.18 957,-112 910.27,-72.5 744.64,-84.2 684,-76 673.33,-74.56 661.68,-72.95 651.23,-71.5"/>
<polygon fill="midnightblue" stroke="midnightblue" points="651.64,-68.03 641.26,-70.12 650.68,-74.96 651.64,-68.03"/>
</g>
<!-- Node28&#45;&gt;Node10 -->
<g id="edge43" class="edge">
<title>Node28&#45;&gt;Node10</title>
<path fill="none" stroke="midnightblue" d="M982.46,-168.11C989.68,-155.13 1000.44,-130.51 991,-112 984,-98.27 970.63,-87.75 958.1,-80.35"/>
<polygon fill="midnightblue" stroke="midnightblue" points="959.68,-77.22 949.22,-75.51 956.33,-83.37 959.68,-77.22"/>
</g>
<!-- Node28&#45;&gt;Node29 -->
<g id="edge32" class="edge">
<title>Node28&#45;&gt;Node29</title>
<path fill="none" stroke="midnightblue" d="M1022.48,-168.44C1076.38,-158.3 1165.62,-141.51 1219.22,-131.43"/>
<polygon fill="midnightblue" stroke="midnightblue" points="1219.94,-134.85 1229.12,-129.56 1218.64,-127.97 1219.94,-134.85"/>
</g>
<!-- Node29&#45;&gt;Node6 -->
<g id="edge36" class="edge">
<title>Node29&#45;&gt;Node6</title>
<path fill="none" stroke="midnightblue" d="M1235,-112.44C1203.63,-103.19 1153.48,-88.39 1118.99,-78.21"/>
<polygon fill="midnightblue" stroke="midnightblue" points="1119.84,-74.81 1109.26,-75.34 1117.86,-81.53 1119.84,-74.81"/>
</g>
<!-- Node29&#45;&gt;Node7 -->
<g id="edge37" class="edge">
<title>Node29&#45;&gt;Node7</title>
<path fill="none" stroke="midnightblue" d="M1229.28,-119.04C1139.15,-113.78 890.35,-98.27 684,-76 673.3,-74.84 661.64,-73.32 651.19,-71.85"/>
<polygon fill="midnightblue" stroke="midnightblue" points="651.62,-68.37 641.22,-70.41 650.62,-75.3 651.62,-68.37"/>
</g>
<!-- Node29&#45;&gt;Node10 -->
<g id="edge42" class="edge">
<title>Node29&#45;&gt;Node10</title>
<path fill="none" stroke="midnightblue" d="M1229.22,-116.58C1175.54,-109.58 1069.09,-94.94 968.76,-76.02"/>
<polygon fill="midnightblue" stroke="midnightblue" points="969.24,-72.55 958.76,-74.11 967.93,-79.42 969.24,-72.55"/>
</g>
<!-- Node29&#45;&gt;Node15 -->
<g id="edge35" class="edge">
<title>Node29&#45;&gt;Node15</title>
<path fill="none" stroke="midnightblue" d="M1268.71,-112.31C1275.14,-99.14 1284.72,-73.8 1274,-56 1263.46,-38.5 1243.58,-27.45 1225.7,-20.68"/>
<polygon fill="midnightblue" stroke="midnightblue" points="1226.63,-17.3 1216.04,-17.35 1224.35,-23.92 1226.63,-17.3"/>
</g>
<!-- Node29&#45;&gt;Node16 -->
<g id="edge39" class="edge">
<title>Node29&#45;&gt;Node16</title>
<path fill="none" stroke="midnightblue" d="M1276.32,-112.23C1286.59,-104.13 1300.54,-91.1 1307,-76 1313.25,-61.4 1313.54,-43.22 1312.53,-29.81"/>
<polygon fill="midnightblue" stroke="midnightblue" points="1316.01,-29.42 1311.48,-19.84 1309.05,-30.15 1316.01,-29.42"/>
</g>
<!-- Node29&#45;&gt;Node19 -->
<g id="edge33" class="edge">
<title>Node29&#45;&gt;Node19</title>
<path fill="none" stroke="midnightblue" d="M1259.21,-112.08C1255.24,-104.69 1249.47,-93.95 1244.57,-84.81"/>
<polygon fill="midnightblue" stroke="midnightblue" points="1247.51,-82.91 1239.7,-75.75 1241.35,-86.22 1247.51,-82.91"/>
</g>
<!-- Node29&#45;&gt;Node23 -->
<g id="edge34" class="edge">
<title>Node29&#45;&gt;Node23</title>
<path fill="none" stroke="midnightblue" d="M1229.26,-114.24C1187.79,-106.09 1116.1,-91.77 1045.04,-76.18"/>
<polygon fill="midnightblue" stroke="midnightblue" points="1045.54,-72.71 1035.03,-73.97 1044.04,-79.54 1045.54,-72.71"/>
</g>
<!-- Node30 -->
<g id="node30" class="node">
<title>Node30</title>
<g id="a_node30"><a xlink:title=" ">
<polygon fill="none" stroke="#bfbfbf" points="1359,-56.5 1359,-75.5 1407,-75.5 1407,-56.5 1359,-56.5"/>
<text text-anchor="middle" x="1383" y="-63.5" font-family="Helvetica,sans-Serif" font-size="10.00">thread</text>
</a>
</g>
</g>
<!-- Node29&#45;&gt;Node30 -->
<g id="edge38" class="edge">
<title>Node29&#45;&gt;Node30</title>
<path fill="none" stroke="midnightblue" d="M1282.86,-112.44C1302.27,-103.64 1332.73,-89.81 1354.96,-79.72"/>
<polygon fill="midnightblue" stroke="midnightblue" points="1356.57,-82.84 1364.23,-75.52 1353.68,-76.46 1356.57,-82.84"/>
</g>
<!-- Node31 -->
<g id="node31" class="node">
<title>Node31</title>
<g id="a_node31"><a xlink:title=" ">
<polygon fill="none" stroke="#bfbfbf" points="1127.5,-56.5 1127.5,-75.5 1186.5,-75.5 1186.5,-56.5 1127.5,-56.5"/>
<text text-anchor="middle" x="1157" y="-63.5" font-family="Helvetica,sans-Serif" font-size="10.00">sqlite3.h</text>
</a>
</g>
</g>
<!-- Node29&#45;&gt;Node31 -->
<g id="edge40" class="edge">
<title>Node29&#45;&gt;Node31</title>
<path fill="none" stroke="midnightblue" d="M1246.81,-112.32C1229.65,-103.66 1203.05,-90.24 1183.25,-80.25"/>
<polygon fill="midnightblue" stroke="midnightblue" points="1184.65,-77.04 1174.15,-75.65 1181.5,-83.28 1184.65,-77.04"/>
</g>
<!-- Node29&#45;&gt;Node32 -->
<g id="edge41" class="edge">
<title>Node29&#45;&gt;Node32</title>
<path fill="none" stroke="midnightblue" d="M1293.16,-112.44C1326.54,-102.65 1381.08,-86.64 1415.72,-76.47"/>
<polygon fill="midnightblue" stroke="midnightblue" points="1416.75,-79.82 1425.36,-73.64 1414.78,-73.1 1416.75,-79.82"/>
</g>
<!-- Node33&#45;&gt;Node34 -->
<g id="edge46" class="edge">
<title>Node33&#45;&gt;Node34</title>
<path fill="none" stroke="midnightblue" d="M805.44,-168.44C826.67,-159.56 860.1,-145.56 884.25,-135.45"/>
<polygon fill="midnightblue" stroke="midnightblue" points="885.78,-138.61 893.66,-131.52 883.08,-132.15 885.78,-138.61"/>
</g>
</g>
</svg>
        <g id="navigator" transform="translate(0 0)" fill="#404254">
                <rect fill="#f2f5e9" fill-opacity="0.5" stroke="#606060" stroke-width=".5" x="0" y="0" width="60" height="60"/>
                <use id="zoomplus" xlink:href="#zoomPlus" x="17" y="9" onmousedown="handleZoom(evt,'in')"/>
                <use id="zoomminus" xlink:href="#zoomMin" x="42" y="9" onmousedown="handleZoom(evt,'out')"/>
                <use id="reset" xlink:href="#resetDef" x="30" y="36" onmousedown="handleReset()"/>
                <g id="arrowUp" xlink:href="#dirArrow" transform="translate(30 24)" onmousedown="handlePan(0,-1)">
                  <use xlink:href="#rim" fill="#404040">
                        <set attributeName="fill" to="#808080" begin="arrowUp.mouseover" end="arrowUp.mouseout"/>
                  </use>
                  <path fill="none" stroke="white" stroke-width="1.5" d="M0,-3.0v7 M-2.5,-0.5L0,-3.0L2.5,-0.5"/>
                </g>
                <g id="arrowRight" xlink:href="#dirArrow" transform="rotate(90) translate(36 -43)" onmousedown="handlePan(1,0)">
                  <use xlink:href="#rim" fill="#404040">
                        <set attributeName="fill" to="#808080" begin="arrowRight.mouseover" end="arrowRight.mouseout"/>
                  </use>
                  <path fill="none" stroke="white" stroke-width="1.5" d="M0,-3.0v7 M-2.5,-0.5L0,-3.0L2.5,-0.5"/>
                </g>
                <g id="arrowDown" xlink:href="#dirArrow" transform="rotate(180) translate(-30 -48)" onmousedown="handlePan(0,1)">
                  <use xlink:href="#rim" fill="#404040">
                        <set attributeName="fill" to="#808080" begin="arrowDown.mouseover" end="arrowDown.mouseout"/>
                  </use>
                  <path fill="none" stroke="white" stroke-width="1.5" d="M0,-3.0v7 M-2.5,-0.5L0,-3.0L2.5,-0.5"/>
                </g>
                <g id="arrowLeft" xlink:href="#dirArrow" transform="rotate(270) translate(-36 17)" onmousedown="handlePan(-1,0)">
                  <use xlink:href="#rim" fill="#404040">
                        <set attributeName="fill" to="#808080" begin="arrowLeft.mouseover" end="arrowLeft.mouseout"/>
                  </use>
                  <path fill="none" stroke="white" stroke-width="1.5" d="M0,-3.0v7 M-2.5,-0.5L0,-3.0L2.5,-0.5"/>
                </g>
        </g>
        <svg viewBox="0 0 15 15" width="100%" height="30px" preserveAspectRatio="xMaxYMin meet">
         <g id="arrow_out" transform="scale(0.3 0.3)">
          <a xlink:href="MatrixElements_8cpp__incl_org.svg" target="_base">
           <rect id="button" ry="5" rx="5" y="6" x="6" height="38" width="38"
                fill="#f2f5e9" fill-opacity="0.5" stroke="#606060" stroke-width="1.0"/>
           <path id="arrow"
             d="M 11.500037,31.436501 C 11.940474,20.09759 22.043105,11.32322 32.158766,21.979434 L 37.068811,17.246167 C 37.068811,17.246167 37.088388,32 37.088388,32 L 22.160133,31.978069 C 22.160133,31.978069 26.997745,27.140456 26.997745,27.140456 C 18.528582,18.264221 13.291696,25.230495 11.500037,31.436501 z"
             style="fill:#404040;"/>
          </a>
         </g>
        </svg>
</svg>
