<?xml version="1.0" encoding="UTF-8" standalone="no"?>
<!DOCTYPE svg PUBLIC "-//W3C//DTD SVG 1.1//EN"
 "http://www.w3.org/Graphics/SVG/1.1/DTD/svg11.dtd">
<!-- Generated by graphviz version 2.43.0 (0)
 -->
<!-- Title: /__w/pairinteraction/pairinteraction/pairinteraction/MatrixElementCache.hpp Pages: 1 -->
<svg width="1874pt" height="341pt"
 viewBox="0.00 0.00 1874.35 341.00" xmlns="http://www.w3.org/2000/svg" xmlns:xlink="http://www.w3.org/1999/xlink">
<g id="graph0" class="graph" transform="scale(1 1) rotate(0) translate(4 337)">
<title>/__w/pairinteraction/pairinteraction/pairinteraction/MatrixElementCache.hpp</title>
<!-- Node1 -->
<g id="node1" class="node">
<title>Node1</title>
<g id="a_node1"><a xlink:title=" ">
<polygon fill="#bfbfbf" stroke="black" points="1079.35,-291.5 1079.35,-332.5 1244.35,-332.5 1244.35,-291.5 1079.35,-291.5"/>
<text text-anchor="start" x="1087.35" y="-320.5" font-family="Helvetica,sans-Serif" font-size="10.00">/__w/pairinteraction</text>
<text text-anchor="start" x="1087.35" y="-309.5" font-family="Helvetica,sans-Serif" font-size="10.00">/pairinteraction/pairinteraction</text>
<text text-anchor="middle" x="1161.85" y="-298.5" font-family="Helvetica,sans-Serif" font-size="10.00">/MatrixElementCache.hpp</text>
</a>
</g>
</g>
<!-- Node2 -->
<g id="node2" class="node">
<title>Node2</title>
<g id="a_node2"><a xlink:href="Basisnames_8hpp.html" target="_top" xlink:title=" ">
<polygon fill="none" stroke="black" points="634.35,-168.5 634.35,-187.5 731.35,-187.5 731.35,-168.5 634.35,-168.5"/>
<text text-anchor="middle" x="682.85" y="-175.5" font-family="Helvetica,sans-Serif" font-size="10.00">Basisnames.hpp</text>
</a>
</g>
</g>
<!-- Node1&#45;&gt;Node2 -->
<g id="edge1" class="edge">
<title>Node1&#45;&gt;Node2</title>
<path fill="none" stroke="midnightblue" d="M1079.19,-298.1C1023.21,-288.46 947.88,-273.74 882.85,-255 820.43,-237.01 749.96,-208.13 711.57,-191.64"/>
<polygon fill="midnightblue" stroke="midnightblue" points="712.64,-188.29 702.07,-187.53 709.86,-194.71 712.64,-188.29"/>
</g>
<!-- Node5 -->
<g id="node5" class="node">
<title>Node5</title>
<g id="a_node5"><a xlink:title=" ">
<polygon fill="none" stroke="#bfbfbf" points="860.85,-56.5 860.85,-75.5 916.85,-75.5 916.85,-56.5 860.85,-56.5"/>
<text text-anchor="middle" x="888.85" y="-63.5" font-family="Helvetica,sans-Serif" font-size="10.00">sstream</text>
</a>
</g>
</g>
<!-- Node1&#45;&gt;Node5 -->
<g id="edge63" class="edge">
<title>Node1&#45;&gt;Node5</title>
<path fill="none" stroke="midnightblue" d="M1079.12,-304.91C897.46,-289.57 473.32,-242.45 391.85,-132 332.45,-51.48 726.79,-89.9 850.55,-75.73"/>
<polygon fill="midnightblue" stroke="midnightblue" points="851.22,-79.17 860.66,-74.35 850.28,-72.23 851.22,-79.17"/>
</g>
<!-- Node6 -->
<g id="node6" class="node">
<title>Node6</title>
<g id="a_node6"><a xlink:title=" ">
<polygon fill="none" stroke="#bfbfbf" points="798.85,-56.5 798.85,-75.5 842.85,-75.5 842.85,-56.5 798.85,-56.5"/>
<text text-anchor="middle" x="820.85" y="-63.5" font-family="Helvetica,sans-Serif" font-size="10.00">string</text>
</a>
</g>
</g>
<!-- Node1&#45;&gt;Node6 -->
<g id="edge64" class="edge">
<title>Node1&#45;&gt;Node6</title>
<path fill="none" stroke="midnightblue" d="M1126.24,-291.46C1106.86,-280.77 1082.48,-267.25 1060.85,-255 1009.03,-225.67 990.91,-225.71 944.85,-188 910,-159.48 910.54,-142.97 877.85,-112 866.43,-101.19 852.62,-90.24 841.45,-81.84"/>
<polygon fill="midnightblue" stroke="midnightblue" points="843.27,-78.84 833.15,-75.71 839.11,-84.47 843.27,-78.84"/>
</g>
<!-- Node9 -->
<g id="node9" class="node">
<title>Node9</title>
<g id="a_node9"><a xlink:href="utils_8hpp.html" target="_top" xlink:title=" ">
<polygon fill="none" stroke="black" points="661.35,-56.5 661.35,-75.5 720.35,-75.5 720.35,-56.5 661.35,-56.5"/>
<text text-anchor="middle" x="690.85" y="-63.5" font-family="Helvetica,sans-Serif" font-size="10.00">utils.hpp</text>
</a>
</g>
</g>
<!-- Node1&#45;&gt;Node9 -->
<g id="edge58" class="edge">
<title>Node1&#45;&gt;Node9</title>
<path fill="none" stroke="midnightblue" d="M1079.15,-307.04C938.98,-299.7 660.78,-282.19 566.85,-255 472,-227.55 418.37,-223.73 381.85,-132 378.56,-123.74 376.03,-118.72 381.85,-112 416.23,-72.25 575.77,-66.9 651.17,-66.64"/>
<polygon fill="midnightblue" stroke="midnightblue" points="651.23,-70.14 661.23,-66.64 651.22,-63.14 651.23,-70.14"/>
</g>
<!-- Node22 -->
<g id="node22" class="node">
<title>Node22</title>
<g id="a_node22"><a xlink:title=" ">
<polygon fill="none" stroke="#bfbfbf" points="1217.85,-56.5 1217.85,-75.5 1275.85,-75.5 1275.85,-56.5 1217.85,-56.5"/>
<text text-anchor="middle" x="1246.85" y="-63.5" font-family="Helvetica,sans-Serif" font-size="10.00">memory</text>
</a>
</g>
</g>
<!-- Node1&#45;&gt;Node22 -->
<g id="edge62" class="edge">
<title>Node1&#45;&gt;Node22</title>
<path fill="none" stroke="midnightblue" d="M1170.23,-291.49C1179.92,-271.36 1197.8,-240.64 1222.85,-224 1285.73,-182.22 1341.46,-246.77 1388.85,-188 1406.74,-165.81 1379.69,-127.79 1362.85,-112 1341.52,-92 1310.31,-80.57 1285.64,-74.24"/>
<polygon fill="midnightblue" stroke="midnightblue" points="1286.4,-70.82 1275.86,-71.9 1284.77,-77.63 1286.4,-70.82"/>
</g>
<!-- Node26 -->
<g id="node26" class="node">
<title>Node26</title>
<g id="a_node26"><a xlink:href="State_8hpp.html" target="_top" xlink:title=" ">
<polygon fill="none" stroke="black" points="145.35,-112.5 145.35,-131.5 208.35,-131.5 208.35,-112.5 145.35,-112.5"/>
<text text-anchor="middle" x="176.85" y="-119.5" font-family="Helvetica,sans-Serif" font-size="10.00">State.hpp</text>
</a>
</g>
</g>
<!-- Node1&#45;&gt;Node26 -->
<g id="edge28" class="edge">
<title>Node1&#45;&gt;Node26</title>
<path fill="none" stroke="midnightblue" d="M1079.25,-308.61C880.95,-302.42 389.33,-284.3 320.85,-255 261.76,-229.72 211.25,-169.54 188.99,-139.98"/>
<polygon fill="midnightblue" stroke="midnightblue" points="191.53,-137.52 182.78,-131.54 185.89,-141.67 191.53,-137.52"/>
</g>
<!-- Node27 -->
<g id="node27" class="node">
<title>Node27</title>
<g id="a_node27"><a xlink:href="Wavefunction_8hpp.html" target="_top" xlink:title=" ">
<polygon fill="none" stroke="black" points="1069.35,-230 1069.35,-249 1174.35,-249 1174.35,-230 1069.35,-230"/>
<text text-anchor="middle" x="1121.85" y="-237" font-family="Helvetica,sans-Serif" font-size="10.00">Wavefunction.hpp</text>
</a>
</g>
</g>
<!-- Node1&#45;&gt;Node27 -->
<g id="edge36" class="edge">
<title>Node1&#45;&gt;Node27</title>
<path fill="none" stroke="midnightblue" d="M1150.7,-291.36C1144.75,-280.86 1137.48,-268.05 1131.73,-257.91"/>
<polygon fill="midnightblue" stroke="midnightblue" points="1134.75,-256.14 1126.77,-249.17 1128.66,-259.6 1134.75,-256.14"/>
</g>
<!-- Node37 -->
<g id="node37" class="node">
<title>Node37</title>
<g id="a_node37"><a xlink:title=" ">
<polygon fill="none" stroke="#bfbfbf" points="1231.35,-224.5 1231.35,-254.5 1360.35,-254.5 1360.35,-224.5 1231.35,-224.5"/>
<text text-anchor="start" x="1239.35" y="-242.5" font-family="Helvetica,sans-Serif" font-size="10.00">cereal/types/unordered</text>
<text text-anchor="middle" x="1295.85" y="-231.5" font-family="Helvetica,sans-Serif" font-size="10.00">_map.hpp</text>
</a>
</g>
</g>
<!-- Node1&#45;&gt;Node37 -->
<g id="edge59" class="edge">
<title>Node1&#45;&gt;Node37</title>
<path fill="none" stroke="midnightblue" d="M1199.17,-291.36C1218.21,-281.35 1241.24,-269.23 1260.05,-259.33"/>
<polygon fill="midnightblue" stroke="midnightblue" points="1261.69,-262.42 1268.91,-254.67 1258.43,-256.23 1261.69,-262.42"/>
</g>
<!-- Node38 -->
<g id="node38" class="node">
<title>Node38</title>
<g id="a_node38"><a xlink:title=" ">
<polygon fill="none" stroke="#bfbfbf" points="1378.35,-224.5 1378.35,-254.5 1507.35,-254.5 1507.35,-224.5 1378.35,-224.5"/>
<text text-anchor="start" x="1386.35" y="-242.5" font-family="Helvetica,sans-Serif" font-size="10.00">cereal/types/unordered</text>
<text text-anchor="middle" x="1442.85" y="-231.5" font-family="Helvetica,sans-Serif" font-size="10.00">_set.hpp</text>
</a>
</g>
</g>
<!-- Node1&#45;&gt;Node38 -->
<g id="edge60" class="edge">
<title>Node1&#45;&gt;Node38</title>
<path fill="none" stroke="midnightblue" d="M1239.75,-291.46C1282.81,-280.65 1335.74,-267.37 1376.77,-257.08"/>
<polygon fill="midnightblue" stroke="midnightblue" points="1377.81,-260.43 1386.66,-254.6 1376.11,-253.64 1377.81,-260.43"/>
</g>
<!-- Node39 -->
<g id="node39" class="node">
<title>Node39</title>
<g id="a_node39"><a xlink:title=" ">
<polygon fill="none" stroke="#bfbfbf" points="1525.85,-224.5 1525.85,-254.5 1695.85,-254.5 1695.85,-224.5 1525.85,-224.5"/>
<text text-anchor="start" x="1533.85" y="-242.5" font-family="Helvetica,sans-Serif" font-size="10.00">wignerSymbols/wignerSymbols</text>
<text text-anchor="middle" x="1610.85" y="-231.5" font-family="Helvetica,sans-Serif" font-size="10.00">&#45;cpp.h</text>
</a>
</g>
</g>
<!-- Node1&#45;&gt;Node39 -->
<g id="edge61" class="edge">
<title>Node1&#45;&gt;Node39</title>
<path fill="none" stroke="midnightblue" d="M1244.46,-298.03C1321.09,-286 1435.1,-268.09 1515.55,-255.46"/>
<polygon fill="midnightblue" stroke="midnightblue" points="1516.35,-258.88 1525.68,-253.87 1515.26,-251.97 1516.35,-258.88"/>
</g>
<!-- Node40 -->
<g id="node40" class="node">
<title>Node40</title>
<g id="a_node40"><a xlink:title=" ">
<polygon fill="none" stroke="#bfbfbf" points="1714.35,-230 1714.35,-249 1755.35,-249 1755.35,-230 1714.35,-230"/>
<text text-anchor="middle" x="1734.85" y="-237" font-family="Helvetica,sans-Serif" font-size="10.00">tuple</text>
</a>
</g>
</g>
<!-- Node1&#45;&gt;Node40 -->
<g id="edge65" class="edge">
<title>Node1&#45;&gt;Node40</title>
<path fill="none" stroke="midnightblue" d="M1244.46,-311.3C1352.37,-309.71 1546.21,-300.02 1704.85,-255 1706.72,-254.47 1708.63,-253.82 1710.52,-253.11"/>
<polygon fill="midnightblue" stroke="midnightblue" points="1711.93,-256.31 1719.68,-249.09 1709.12,-249.9 1711.93,-256.31"/>
</g>
<!-- Node41 -->
<g id="node41" class="node">
<title>Node41</title>
<g id="a_node41"><a xlink:title=" ">
<polygon fill="none" stroke="#bfbfbf" points="1773.35,-230 1773.35,-249 1866.35,-249 1866.35,-230 1773.35,-230"/>
<text text-anchor="middle" x="1819.85" y="-237" font-family="Helvetica,sans-Serif" font-size="10.00">unordered_map</text>
</a>
</g>
</g>
<!-- Node1&#45;&gt;Node41 -->
<g id="edge66" class="edge">
<title>Node1&#45;&gt;Node41</title>
<path fill="none" stroke="midnightblue" d="M1244.35,-307.66C1361.02,-301.95 1580.57,-287.62 1764.85,-255 1770.26,-254.04 1775.91,-252.82 1781.45,-251.48"/>
<polygon fill="midnightblue" stroke="midnightblue" points="1782.38,-254.86 1791.22,-249.01 1780.66,-248.07 1782.38,-254.86"/>
</g>
<!-- Node3 -->
<g id="node3" class="node">
<title>Node3</title>
<g id="a_node3"><a xlink:href="ConfParser_8hpp.html" target="_top" xlink:title=" ">
<polygon fill="none" stroke="black" points="777.35,-112.5 777.35,-131.5 868.35,-131.5 868.35,-112.5 777.35,-112.5"/>
<text text-anchor="middle" x="822.85" y="-119.5" font-family="Helvetica,sans-Serif" font-size="10.00">ConfParser.hpp</text>
</a>
</g>
</g>
<!-- Node2&#45;&gt;Node3 -->
<g id="edge2" class="edge">
<title>Node2&#45;&gt;Node3</title>
<path fill="none" stroke="midnightblue" d="M705.03,-168.44C728.27,-159.48 765,-145.31 791.26,-135.18"/>
<polygon fill="midnightblue" stroke="midnightblue" points="792.7,-138.38 800.77,-131.52 790.18,-131.85 792.7,-138.38"/>
</g>
<!-- Node2&#45;&gt;Node6 -->
<g id="edge25" class="edge">
<title>Node2&#45;&gt;Node6</title>
<path fill="none" stroke="midnightblue" d="M693.67,-168.37C717.15,-149.65 772.98,-105.15 802.24,-81.83"/>
<polygon fill="midnightblue" stroke="midnightblue" points="804.43,-84.56 810.07,-75.59 800.07,-79.09 804.43,-84.56"/>
</g>
<!-- Node7 -->
<g id="node7" class="node">
<title>Node7</title>
<g id="a_node7"><a xlink:href="Iter_8hpp.html" target="_top" xlink:title=" ">
<polygon fill="none" stroke="black" points="554.85,-112.5 554.85,-131.5 608.85,-131.5 608.85,-112.5 554.85,-112.5"/>
<text text-anchor="middle" x="581.85" y="-119.5" font-family="Helvetica,sans-Serif" font-size="10.00">Iter.hpp</text>
</a>
</g>
</g>
<!-- Node2&#45;&gt;Node7 -->
<g id="edge6" class="edge">
<title>Node2&#45;&gt;Node7</title>
<path fill="none" stroke="midnightblue" d="M666.62,-168.32C650.5,-159.7 625.55,-146.36 606.88,-136.39"/>
<polygon fill="midnightblue" stroke="midnightblue" points="608.5,-133.28 598.03,-131.65 605.2,-139.46 608.5,-133.28"/>
</g>
<!-- Node8 -->
<g id="node8" class="node">
<title>Node8</title>
<g id="a_node8"><a xlink:href="StateOld_8hpp.html" target="_top" xlink:title=" ">
<polygon fill="none" stroke="black" points="226.85,-112.5 226.85,-131.5 306.85,-131.5 306.85,-112.5 226.85,-112.5"/>
<text text-anchor="middle" x="266.85" y="-119.5" font-family="Helvetica,sans-Serif" font-size="10.00">StateOld.hpp</text>
</a>
</g>
</g>
<!-- Node2&#45;&gt;Node8 -->
<g id="edge7" class="edge">
<title>Node2&#45;&gt;Node8</title>
<path fill="none" stroke="midnightblue" d="M634.31,-170.7C554.93,-160.4 398.11,-140.04 317.42,-129.57"/>
<polygon fill="midnightblue" stroke="midnightblue" points="317.4,-126.03 307.03,-128.22 316.49,-132.97 317.4,-126.03"/>
</g>
<!-- Node21 -->
<g id="node21" class="node">
<title>Node21</title>
<g id="a_node21"><a xlink:title=" ">
<polygon fill="none" stroke="#bfbfbf" points="627.35,-112.5 627.35,-131.5 682.35,-131.5 682.35,-112.5 627.35,-112.5"/>
<text text-anchor="middle" x="654.85" y="-119.5" font-family="Helvetica,sans-Serif" font-size="10.00">fstream</text>
</a>
</g>
</g>
<!-- Node2&#45;&gt;Node21 -->
<g id="edge22" class="edge">
<title>Node2&#45;&gt;Node21</title>
<path fill="none" stroke="midnightblue" d="M678.22,-168.08C674.39,-160.69 668.82,-149.95 664.08,-140.81"/>
<polygon fill="midnightblue" stroke="midnightblue" points="667.09,-139.02 659.38,-131.75 660.88,-142.24 667.09,-139.02"/>
</g>
<!-- Node2&#45;&gt;Node22 -->
<g id="edge23" class="edge">
<title>Node2&#45;&gt;Node22</title>
<path fill="none" stroke="midnightblue" d="M731.36,-175.17C834.06,-170.84 1070.23,-158.27 1145.85,-132 1177.96,-120.84 1210.13,-97.54 1229.27,-82.08"/>
<polygon fill="midnightblue" stroke="midnightblue" points="1231.62,-84.67 1237.09,-75.6 1227.16,-79.28 1231.62,-84.67"/>
</g>
<!-- Node23 -->
<g id="node23" class="node">
<title>Node23</title>
<g id="a_node23"><a xlink:title=" ">
<polygon fill="none" stroke="#bfbfbf" points="400.85,-112.5 400.85,-131.5 432.85,-131.5 432.85,-112.5 400.85,-112.5"/>
<text text-anchor="middle" x="416.85" y="-119.5" font-family="Helvetica,sans-Serif" font-size="10.00">set</text>
</a>
</g>
</g>
<!-- Node2&#45;&gt;Node23 -->
<g id="edge24" class="edge">
<title>Node2&#45;&gt;Node23</title>
<path fill="none" stroke="midnightblue" d="M634.32,-170.29C587.48,-163.29 514.49,-151.01 442.95,-131.93"/>
<polygon fill="midnightblue" stroke="midnightblue" points="443.43,-128.44 432.86,-129.2 441.6,-135.19 443.43,-128.44"/>
</g>
<!-- Node24 -->
<g id="node24" class="node">
<title>Node24</title>
<g id="a_node24"><a xlink:title=" ">
<polygon fill="none" stroke="#bfbfbf" points="450.85,-112.5 450.85,-131.5 536.85,-131.5 536.85,-112.5 450.85,-112.5"/>
<text text-anchor="middle" x="493.85" y="-119.5" font-family="Helvetica,sans-Serif" font-size="10.00">unordered_set</text>
</a>
</g>
</g>
<!-- Node2&#45;&gt;Node24 -->
<g id="edge26" class="edge">
<title>Node2&#45;&gt;Node24</title>
<path fill="none" stroke="midnightblue" d="M652.9,-168.44C620.69,-159.24 569.31,-144.56 533.7,-134.39"/>
<polygon fill="midnightblue" stroke="midnightblue" points="534.23,-130.9 523.65,-131.52 532.31,-137.63 534.23,-130.9"/>
</g>
<!-- Node25 -->
<g id="node25" class="node">
<title>Node25</title>
<g id="a_node25"><a xlink:title=" ">
<polygon fill="none" stroke="#bfbfbf" points="925.35,-112.5 925.35,-131.5 972.35,-131.5 972.35,-112.5 925.35,-112.5"/>
<text text-anchor="middle" x="948.85" y="-119.5" font-family="Helvetica,sans-Serif" font-size="10.00">vector</text>
</a>
</g>
</g>
<!-- Node2&#45;&gt;Node25 -->
<g id="edge27" class="edge">
<title>Node2&#45;&gt;Node25</title>
<path fill="none" stroke="midnightblue" d="M724.99,-168.44C777.68,-157.75 866.78,-139.66 915.16,-129.84"/>
<polygon fill="midnightblue" stroke="midnightblue" points="916.02,-133.24 925.12,-127.82 914.63,-126.38 916.02,-133.24"/>
</g>
<!-- Node4 -->
<g id="node4" class="node">
<title>Node4</title>
<g id="a_node4"><a xlink:title=" ">
<polygon fill="none" stroke="#bfbfbf" points="742.85,-56.5 742.85,-75.5 780.85,-75.5 780.85,-56.5 742.85,-56.5"/>
<text text-anchor="middle" x="761.85" y="-63.5" font-family="Helvetica,sans-Serif" font-size="10.00">map</text>
</a>
</g>
</g>
<!-- Node3&#45;&gt;Node4 -->
<g id="edge3" class="edge">
<title>Node3&#45;&gt;Node4</title>
<path fill="none" stroke="midnightblue" d="M813.05,-112.32C804.03,-104.34 790.44,-92.31 779.53,-82.65"/>
<polygon fill="midnightblue" stroke="midnightblue" points="781.63,-79.84 771.83,-75.83 776.99,-85.08 781.63,-79.84"/>
</g>
<!-- Node3&#45;&gt;Node5 -->
<g id="edge4" class="edge">
<title>Node3&#45;&gt;Node5</title>
<path fill="none" stroke="midnightblue" d="M833.45,-112.32C843.3,-104.26 858.2,-92.08 870.06,-82.37"/>
<polygon fill="midnightblue" stroke="midnightblue" points="872.53,-84.88 878.05,-75.83 868.09,-79.46 872.53,-84.88"/>
</g>
<!-- Node3&#45;&gt;Node6 -->
<g id="edge5" class="edge">
<title>Node3&#45;&gt;Node6</title>
<path fill="none" stroke="midnightblue" d="M822.52,-112.08C822.25,-105.01 821.88,-94.86 821.55,-85.99"/>
<polygon fill="midnightblue" stroke="midnightblue" points="825.04,-85.61 821.17,-75.75 818.04,-85.87 825.04,-85.61"/>
</g>
<!-- Node8&#45;&gt;Node6 -->
<g id="edge19" class="edge">
<title>Node8&#45;&gt;Node6</title>
<path fill="none" stroke="midnightblue" d="M307.14,-116.93C323.22,-115.34 341.9,-113.54 358.85,-112 547.01,-94.94 599.06,-110.42 788.61,-75.87"/>
<polygon fill="midnightblue" stroke="midnightblue" points="789.42,-79.28 798.62,-74.03 788.15,-72.4 789.42,-79.28"/>
</g>
<!-- Node8&#45;&gt;Node9 -->
<g id="edge8" class="edge">
<title>Node8&#45;&gt;Node9</title>
<path fill="none" stroke="midnightblue" d="M306.92,-114.12C311.61,-113.37 316.33,-112.65 320.85,-112 440.61,-94.74 582.83,-78.69 650.8,-71.28"/>
<polygon fill="midnightblue" stroke="midnightblue" points="651.49,-74.73 661.05,-70.17 650.73,-67.77 651.49,-74.73"/>
</g>
<!-- Node11 -->
<g id="node11" class="node">
<title>Node11</title>
<g id="a_node11"><a xlink:title=" ">
<polygon fill="none" stroke="#bfbfbf" points="439.85,-0.5 439.85,-19.5 481.85,-19.5 481.85,-0.5 439.85,-0.5"/>
<text text-anchor="middle" x="460.85" y="-7.5" font-family="Helvetica,sans-Serif" font-size="10.00">array</text>
</a>
</g>
</g>
<!-- Node8&#45;&gt;Node11 -->
<g id="edge16" class="edge">
<title>Node8&#45;&gt;Node11</title>
<path fill="none" stroke="midnightblue" d="M307.03,-112.85C355.61,-102.67 432.1,-85.44 441.85,-76 454.25,-64 458.67,-44.4 460.19,-29.85"/>
<polygon fill="midnightblue" stroke="midnightblue" points="463.71,-29.72 460.89,-19.51 456.72,-29.25 463.71,-29.72"/>
</g>
<!-- Node17 -->
<g id="node17" class="node">
<title>Node17</title>
<g id="a_node17"><a xlink:title=" ">
<polygon fill="none" stroke="#bfbfbf" points="164.35,-56.5 164.35,-75.5 211.35,-75.5 211.35,-56.5 164.35,-56.5"/>
<text text-anchor="middle" x="187.85" y="-63.5" font-family="Helvetica,sans-Serif" font-size="10.00">cmath</text>
</a>
</g>
</g>
<!-- Node8&#45;&gt;Node17 -->
<g id="edge17" class="edge">
<title>Node8&#45;&gt;Node17</title>
<path fill="none" stroke="midnightblue" d="M254.15,-112.32C241.95,-103.98 223.27,-91.21 208.84,-81.35"/>
<polygon fill="midnightblue" stroke="midnightblue" points="210.74,-78.41 200.51,-75.65 206.79,-84.19 210.74,-78.41"/>
</g>
<!-- Node18 -->
<g id="node18" class="node">
<title>Node18</title>
<g id="a_node18"><a xlink:title=" ">
<polygon fill="none" stroke="#bfbfbf" points="372.85,-56.5 372.85,-75.5 432.85,-75.5 432.85,-56.5 372.85,-56.5"/>
<text text-anchor="middle" x="402.85" y="-63.5" font-family="Helvetica,sans-Serif" font-size="10.00">iostream</text>
</a>
</g>
</g>
<!-- Node8&#45;&gt;Node18 -->
<g id="edge18" class="edge">
<title>Node8&#45;&gt;Node18</title>
<path fill="none" stroke="midnightblue" d="M288.4,-112.44C310.88,-103.52 346.33,-89.44 371.83,-79.32"/>
<polygon fill="midnightblue" stroke="midnightblue" points="373.4,-82.46 381.4,-75.52 370.81,-75.95 373.4,-82.46"/>
</g>
<!-- Node19 -->
<g id="node19" class="node">
<title>Node19</title>
<g id="a_node19"><a xlink:title=" ">
<polygon fill="none" stroke="#bfbfbf" points="229.35,-56.5 229.35,-75.5 354.35,-75.5 354.35,-56.5 229.35,-56.5"/>
<text text-anchor="middle" x="291.85" y="-63.5" font-family="Helvetica,sans-Serif" font-size="10.00">cereal/types/array.hpp</text>
</a>
</g>
</g>
<!-- Node8&#45;&gt;Node19 -->
<g id="edge20" class="edge">
<title>Node8&#45;&gt;Node19</title>
<path fill="none" stroke="midnightblue" d="M270.97,-112.08C274.36,-104.77 279.26,-94.18 283.47,-85.1"/>
<polygon fill="midnightblue" stroke="midnightblue" points="286.77,-86.3 287.79,-75.75 280.42,-83.36 286.77,-86.3"/>
</g>
<!-- Node20 -->
<g id="node20" class="node">
<title>Node20</title>
<g id="a_node20"><a xlink:title=" ">
<polygon fill="none" stroke="#bfbfbf" points="17.85,-56.5 17.85,-75.5 145.85,-75.5 145.85,-56.5 17.85,-56.5"/>
<text text-anchor="middle" x="81.85" y="-63.5" font-family="Helvetica,sans-Serif" font-size="10.00">cereal/types/string.hpp</text>
</a>
</g>
</g>
<!-- Node8&#45;&gt;Node20 -->
<g id="edge21" class="edge">
<title>Node8&#45;&gt;Node20</title>
<path fill="none" stroke="midnightblue" d="M237.53,-112.44C206,-103.24 155.72,-88.56 120.86,-78.39"/>
<polygon fill="midnightblue" stroke="midnightblue" points="121.6,-74.96 111.02,-75.52 119.64,-81.68 121.6,-74.96"/>
</g>
<!-- Node10 -->
<g id="node10" class="node">
<title>Node10</title>
<g id="a_node10"><a xlink:title=" ">
<polygon fill="none" stroke="#bfbfbf" points="507.85,-0.5 507.85,-19.5 571.85,-19.5 571.85,-0.5 507.85,-0.5"/>
<text text-anchor="middle" x="539.85" y="-7.5" font-family="Helvetica,sans-Serif" font-size="10.00">algorithm</text>
</a>
</g>
</g>
<!-- Node9&#45;&gt;Node10 -->
<g id="edge9" class="edge">
<title>Node9&#45;&gt;Node10</title>
<path fill="none" stroke="midnightblue" d="M666.92,-56.44C641.63,-47.4 601.54,-33.06 573.17,-22.92"/>
<polygon fill="midnightblue" stroke="midnightblue" points="574.26,-19.59 563.66,-19.52 571.9,-26.18 574.26,-19.59"/>
</g>
<!-- Node9&#45;&gt;Node11 -->
<g id="edge10" class="edge">
<title>Node9&#45;&gt;Node11</title>
<path fill="none" stroke="midnightblue" d="M661.24,-58.08C623.52,-49.27 556.33,-33.54 498.85,-20 496.65,-19.48 494.38,-18.95 492.09,-18.41"/>
<polygon fill="midnightblue" stroke="midnightblue" points="492.69,-14.95 482.15,-16.05 491.07,-21.76 492.69,-14.95"/>
</g>
<!-- Node12 -->
<g id="node12" class="node">
<title>Node12</title>
<g id="a_node12"><a xlink:title=" ">
<polygon fill="none" stroke="#bfbfbf" points="590.35,-0.5 590.35,-19.5 649.35,-19.5 649.35,-0.5 590.35,-0.5"/>
<text text-anchor="middle" x="619.85" y="-7.5" font-family="Helvetica,sans-Serif" font-size="10.00">complex</text>
</a>
</g>
</g>
<!-- Node9&#45;&gt;Node12 -->
<g id="edge11" class="edge">
<title>Node9&#45;&gt;Node12</title>
<path fill="none" stroke="midnightblue" d="M679.44,-56.32C668.74,-48.18 652.51,-35.84 639.68,-26.09"/>
<polygon fill="midnightblue" stroke="midnightblue" points="641.54,-23.1 631.46,-19.83 637.3,-28.67 641.54,-23.1"/>
</g>
<!-- Node13 -->
<g id="node13" class="node">
<title>Node13</title>
<g id="a_node13"><a xlink:title=" ">
<polygon fill="none" stroke="#bfbfbf" points="667.35,-0.5 667.35,-19.5 732.35,-19.5 732.35,-0.5 667.35,-0.5"/>
<text text-anchor="middle" x="699.85" y="-7.5" font-family="Helvetica,sans-Serif" font-size="10.00">functional</text>
</a>
</g>
</g>
<!-- Node9&#45;&gt;Node13 -->
<g id="edge12" class="edge">
<title>Node9&#45;&gt;Node13</title>
<path fill="none" stroke="midnightblue" d="M692.33,-56.08C693.53,-48.93 695.24,-38.64 696.73,-29.69"/>
<polygon fill="midnightblue" stroke="midnightblue" points="700.2,-30.19 698.39,-19.75 693.29,-29.04 700.2,-30.19"/>
</g>
<!-- Node14 -->
<g id="node14" class="node">
<title>Node14</title>
<g id="a_node14"><a xlink:title=" ">
<polygon fill="none" stroke="#bfbfbf" points="852.85,-0.5 852.85,-19.5 906.85,-19.5 906.85,-0.5 852.85,-0.5"/>
<text text-anchor="middle" x="879.85" y="-7.5" font-family="Helvetica,sans-Serif" font-size="10.00">random</text>
</a>
</g>
</g>
<!-- Node9&#45;&gt;Node14 -->
<g id="edge13" class="edge">
<title>Node9&#45;&gt;Node14</title>
<path fill="none" stroke="midnightblue" d="M720.38,-56.56C753.36,-47.14 806.79,-31.87 842.61,-21.64"/>
<polygon fill="midnightblue" stroke="midnightblue" points="844.01,-24.88 852.67,-18.77 842.09,-18.15 844.01,-24.88"/>
</g>
<!-- Node15 -->
<g id="node15" class="node">
<title>Node15</title>
<g id="a_node15"><a xlink:title=" ">
<polygon fill="none" stroke="#bfbfbf" points="939.35,-0.5 939.35,-19.5 1008.35,-19.5 1008.35,-0.5 939.35,-0.5"/>
<text text-anchor="middle" x="973.85" y="-7.5" font-family="Helvetica,sans-Serif" font-size="10.00">type_traits</text>
</a>
</g>
</g>
<!-- Node9&#45;&gt;Node15 -->
<g id="edge14" class="edge">
<title>Node9&#45;&gt;Node15</title>
<path fill="none" stroke="midnightblue" d="M720.44,-58.72C724.93,-57.79 729.51,-56.86 733.85,-56 801.83,-42.51 880.88,-27.9 929.12,-19.1"/>
<polygon fill="midnightblue" stroke="midnightblue" points="930.01,-22.49 939.23,-17.26 928.76,-15.6 930.01,-22.49"/>
</g>
<!-- Node16 -->
<g id="node16" class="node">
<title>Node16</title>
<g id="a_node16"><a xlink:title=" ">
<polygon fill="none" stroke="#bfbfbf" points="750.85,-0.5 750.85,-19.5 806.85,-19.5 806.85,-0.5 750.85,-0.5"/>
<text text-anchor="middle" x="778.85" y="-7.5" font-family="Helvetica,sans-Serif" font-size="10.00">unistd.h</text>
</a>
</g>
</g>
<!-- Node9&#45;&gt;Node16 -->
<g id="edge15" class="edge">
<title>Node9&#45;&gt;Node16</title>
<path fill="none" stroke="midnightblue" d="M704.99,-56.32C718.71,-47.9 739.78,-34.97 755.91,-25.07"/>
<polygon fill="midnightblue" stroke="midnightblue" points="758.05,-27.87 764.74,-19.65 754.39,-21.9 758.05,-27.87"/>
</g>
<!-- Node26&#45;&gt;Node6 -->
<g id="edge33" class="edge">
<title>Node26&#45;&gt;Node6</title>
<path fill="none" stroke="midnightblue" d="M208.54,-113.54C211.68,-112.95 214.82,-112.43 217.85,-112 466.77,-77.06 537.06,-118.65 788.46,-75.84"/>
<polygon fill="midnightblue" stroke="midnightblue" points="789.38,-79.24 798.63,-74.08 788.18,-72.34 789.38,-79.24"/>
</g>
<!-- Node26&#45;&gt;Node9 -->
<g id="edge29" class="edge">
<title>Node26&#45;&gt;Node9</title>
<path fill="none" stroke="midnightblue" d="M208.56,-113.64C211.69,-113.03 214.82,-112.47 217.85,-112 377.15,-87.03 568.95,-73.96 650.74,-69.17"/>
<polygon fill="midnightblue" stroke="midnightblue" points="651.3,-72.64 661.08,-68.57 650.9,-65.66 651.3,-72.64"/>
</g>
<!-- Node26&#45;&gt;Node11 -->
<g id="edge30" class="edge">
<title>Node26&#45;&gt;Node11</title>
<path fill="none" stroke="midnightblue" d="M144.89,-119.32C85.6,-115.11 -31.87,-100.98 8.85,-56 37.06,-24.83 331.93,-14.36 429.61,-11.74"/>
<polygon fill="midnightblue" stroke="midnightblue" points="429.83,-15.23 439.74,-11.47 429.65,-8.24 429.83,-15.23"/>
</g>
<!-- Node26&#45;&gt;Node17 -->
<g id="edge31" class="edge">
<title>Node26&#45;&gt;Node17</title>
<path fill="none" stroke="midnightblue" d="M178.66,-112.08C180.12,-104.93 182.22,-94.64 184.04,-85.69"/>
<polygon fill="midnightblue" stroke="midnightblue" points="187.5,-86.25 186.06,-75.75 180.64,-84.85 187.5,-86.25"/>
</g>
<!-- Node26&#45;&gt;Node18 -->
<g id="edge32" class="edge">
<title>Node26&#45;&gt;Node18</title>
<path fill="none" stroke="midnightblue" d="M208.75,-113.38C249.16,-103.72 318.82,-87.08 362.77,-76.57"/>
<polygon fill="midnightblue" stroke="midnightblue" points="363.64,-79.97 372.55,-74.24 362.01,-73.16 363.64,-79.97"/>
</g>
<!-- Node26&#45;&gt;Node19 -->
<g id="edge34" class="edge">
<title>Node26&#45;&gt;Node19</title>
<path fill="none" stroke="midnightblue" d="M195.07,-112.44C213.74,-103.68 243,-89.94 264.46,-79.86"/>
<polygon fill="midnightblue" stroke="midnightblue" points="266.15,-82.93 273.71,-75.52 263.17,-76.6 266.15,-82.93"/>
</g>
<!-- Node26&#45;&gt;Node20 -->
<g id="edge35" class="edge">
<title>Node26&#45;&gt;Node20</title>
<path fill="none" stroke="midnightblue" d="M161.58,-112.32C146.62,-103.82 123.59,-90.73 106.12,-80.8"/>
<polygon fill="midnightblue" stroke="midnightblue" points="107.5,-77.55 97.07,-75.65 104.04,-83.64 107.5,-77.55"/>
</g>
<!-- Node27&#45;&gt;Node6 -->
<g id="edge56" class="edge">
<title>Node27&#45;&gt;Node6</title>
<path fill="none" stroke="midnightblue" d="M1069.11,-230.7C1042.23,-223.94 1011.38,-211.36 992.85,-188 971.63,-161.26 1004.41,-137.61 981.85,-112 944.23,-69.3 912.86,-89.97 852.75,-75.98"/>
<polygon fill="midnightblue" stroke="midnightblue" points="853.41,-72.54 842.85,-73.43 851.66,-79.31 853.41,-72.54"/>
</g>
<!-- Node27&#45;&gt;Node25 -->
<g id="edge57" class="edge">
<title>Node27&#45;&gt;Node25</title>
<path fill="none" stroke="midnightblue" d="M1069.23,-236.24C1032.8,-231.74 986.12,-219.64 958.85,-188 948.02,-175.45 946.26,-156.22 946.76,-141.94"/>
<polygon fill="midnightblue" stroke="midnightblue" points="950.27,-141.99 947.52,-131.76 943.29,-141.47 950.27,-141.99"/>
</g>
<!-- Node28 -->
<g id="node28" class="node">
<title>Node28</title>
<g id="a_node28"><a xlink:href="QuantumDefect_8hpp.html" target="_top" xlink:title=" ">
<polygon fill="none" stroke="black" points="1001.35,-168.5 1001.35,-187.5 1116.35,-187.5 1116.35,-168.5 1001.35,-168.5"/>
<text text-anchor="middle" x="1058.85" y="-175.5" font-family="Helvetica,sans-Serif" font-size="10.00">QuantumDefect.hpp</text>
</a>
</g>
</g>
<!-- Node27&#45;&gt;Node28 -->
<g id="edge37" class="edge">
<title>Node27&#45;&gt;Node28</title>
<path fill="none" stroke="midnightblue" d="M1112.82,-229.98C1103.09,-220.78 1087.39,-205.96 1075.42,-194.66"/>
<polygon fill="midnightblue" stroke="midnightblue" points="1077.53,-191.83 1067.86,-187.51 1072.72,-196.92 1077.53,-191.83"/>
</g>
<!-- Node33 -->
<g id="node33" class="node">
<title>Node33</title>
<g id="a_node33"><a xlink:href="EigenCompat_8hpp.html" target="_top" xlink:title=" ">
<polygon fill="none" stroke="black" points="1134.35,-168.5 1134.35,-187.5 1237.35,-187.5 1237.35,-168.5 1134.35,-168.5"/>
<text text-anchor="middle" x="1185.85" y="-175.5" font-family="Helvetica,sans-Serif" font-size="10.00">EigenCompat.hpp</text>
</a>
</g>
</g>
<!-- Node27&#45;&gt;Node33 -->
<g id="edge51" class="edge">
<title>Node27&#45;&gt;Node33</title>
<path fill="none" stroke="midnightblue" d="M1131.02,-229.98C1141,-220.7 1157.16,-205.67 1169.36,-194.33"/>
<polygon fill="midnightblue" stroke="midnightblue" points="1171.75,-196.88 1176.69,-187.51 1166.99,-191.75 1171.75,-196.88"/>
</g>
<!-- Node34 -->
<g id="node34" class="node">
<title>Node34</title>
<g id="a_node34"><a xlink:title=" ">
<polygon fill="none" stroke="#bfbfbf" points="1284.35,-112.5 1284.35,-131.5 1353.35,-131.5 1353.35,-112.5 1284.35,-112.5"/>
<text text-anchor="middle" x="1318.85" y="-119.5" font-family="Helvetica,sans-Serif" font-size="10.00">Eigen/Core</text>
</a>
</g>
</g>
<!-- Node27&#45;&gt;Node34 -->
<g id="edge53" class="edge">
<title>Node27&#45;&gt;Node34</title>
<path fill="none" stroke="midnightblue" d="M1160.79,-229.93C1169.98,-227.95 1179.75,-225.87 1188.85,-224 1270.46,-207.19 1319.88,-252.33 1372.85,-188 1387.39,-170.34 1364.18,-150.08 1343.82,-136.94"/>
<polygon fill="midnightblue" stroke="midnightblue" points="1345.45,-133.83 1335.09,-131.6 1341.8,-139.81 1345.45,-133.83"/>
</g>
<!-- Node35 -->
<g id="node35" class="node">
<title>Node35</title>
<g id="a_node35"><a xlink:title=" ">
<polygon fill="none" stroke="#bfbfbf" points="1317.85,-168.5 1317.85,-187.5 1363.85,-187.5 1363.85,-168.5 1317.85,-168.5"/>
<text text-anchor="middle" x="1340.85" y="-175.5" font-family="Helvetica,sans-Serif" font-size="10.00">cstdio</text>
</a>
</g>
</g>
<!-- Node27&#45;&gt;Node35 -->
<g id="edge54" class="edge">
<title>Node27&#45;&gt;Node35</title>
<path fill="none" stroke="midnightblue" d="M1153.97,-229.93C1189.28,-220.49 1247.94,-204.74 1307.78,-188.27"/>
<polygon fill="midnightblue" stroke="midnightblue" points="1309.07,-191.55 1317.78,-185.52 1307.21,-184.8 1309.07,-191.55"/>
</g>
<!-- Node36 -->
<g id="node36" class="node">
<title>Node36</title>
<g id="a_node36"><a xlink:title=" ">
<polygon fill="none" stroke="#bfbfbf" points="1255.85,-168.5 1255.85,-187.5 1299.85,-187.5 1299.85,-168.5 1255.85,-168.5"/>
<text text-anchor="middle" x="1277.85" y="-175.5" font-family="Helvetica,sans-Serif" font-size="10.00">limits</text>
</a>
</g>
</g>
<!-- Node27&#45;&gt;Node36 -->
<g id="edge55" class="edge">
<title>Node27&#45;&gt;Node36</title>
<path fill="none" stroke="midnightblue" d="M1144.2,-229.98C1170.84,-219.81 1215.56,-202.76 1245.86,-191.2"/>
<polygon fill="midnightblue" stroke="midnightblue" points="1247.44,-194.34 1255.54,-187.51 1244.95,-187.8 1247.44,-194.34"/>
</g>
<!-- Node28&#45;&gt;Node6 -->
<g id="edge50" class="edge">
<title>Node28&#45;&gt;Node6</title>
<path fill="none" stroke="midnightblue" d="M1055.48,-168.27C1049.54,-154.1 1035.81,-126.24 1014.85,-112 956.11,-72.11 926.35,-92.41 853.26,-76.09"/>
<polygon fill="midnightblue" stroke="midnightblue" points="853.69,-72.59 843.15,-73.66 852.06,-79.4 853.69,-72.59"/>
</g>
<!-- Node28&#45;&gt;Node9 -->
<g id="edge49" class="edge">
<title>Node28&#45;&gt;Node9</title>
<path fill="none" stroke="midnightblue" d="M1001.24,-177.02C940.81,-175.03 844.3,-166.09 768.85,-132 743.64,-120.61 720.02,-98.76 705.52,-83.55"/>
<polygon fill="midnightblue" stroke="midnightblue" points="707.81,-80.87 698.45,-75.89 702.66,-85.62 707.81,-80.87"/>
</g>
<!-- Node29 -->
<g id="node29" class="node">
<title>Node29</title>
<g id="a_node29"><a xlink:href="SQLite_8hpp.html" target="_top" xlink:title=" ">
<polygon fill="none" stroke="black" points="1067.35,-112.5 1067.35,-131.5 1136.35,-131.5 1136.35,-112.5 1067.35,-112.5"/>
<text text-anchor="middle" x="1101.85" y="-119.5" font-family="Helvetica,sans-Serif" font-size="10.00">SQLite.hpp</text>
</a>
</g>
</g>
<!-- Node28&#45;&gt;Node29 -->
<g id="edge38" class="edge">
<title>Node28&#45;&gt;Node29</title>
<path fill="none" stroke="midnightblue" d="M1065.95,-168.08C1072.08,-160.38 1081.12,-149.03 1088.59,-139.65"/>
<polygon fill="midnightblue" stroke="midnightblue" points="1091.39,-141.75 1094.88,-131.75 1085.91,-137.39 1091.39,-141.75"/>
</g>
<!-- Node29&#45;&gt;Node5 -->
<g id="edge42" class="edge">
<title>Node29&#45;&gt;Node5</title>
<path fill="none" stroke="midnightblue" d="M1068.1,-112.44C1029.68,-102.7 967.07,-86.83 926.94,-76.66"/>
<polygon fill="midnightblue" stroke="midnightblue" points="927.55,-73.2 917,-74.14 925.83,-79.99 927.55,-73.2"/>
</g>
<!-- Node29&#45;&gt;Node6 -->
<g id="edge43" class="edge">
<title>Node29&#45;&gt;Node6</title>
<path fill="none" stroke="midnightblue" d="M1067.32,-114.64C1062.46,-113.75 1057.53,-112.85 1052.85,-112 966.69,-96.37 941.94,-96.64 853.1,-76.1"/>
<polygon fill="midnightblue" stroke="midnightblue" points="853.66,-72.64 843.12,-73.77 852.06,-79.45 853.66,-72.64"/>
</g>
<!-- Node29&#45;&gt;Node9 -->
<g id="edge48" class="edge">
<title>Node29&#45;&gt;Node9</title>
<path fill="none" stroke="midnightblue" d="M1067.21,-117.75C1001.81,-111.4 855.77,-96.18 733.85,-76 732.76,-75.82 731.65,-75.63 730.54,-75.43"/>
<polygon fill="midnightblue" stroke="midnightblue" points="730.87,-71.94 720.39,-73.53 729.57,-78.82 730.87,-71.94"/>
</g>
<!-- Node29&#45;&gt;Node14 -->
<g id="edge41" class="edge">
<title>Node29&#45;&gt;Node14</title>
<path fill="none" stroke="midnightblue" d="M1074.97,-112.42C1050.64,-104.26 1014.08,-91.03 983.85,-76 953.46,-60.89 920.59,-39.39 900.11,-25.32"/>
<polygon fill="midnightblue" stroke="midnightblue" points="902.09,-22.44 891.88,-19.61 898.1,-28.19 902.09,-22.44"/>
</g>
<!-- Node29&#45;&gt;Node15 -->
<g id="edge45" class="edge">
<title>Node29&#45;&gt;Node15</title>
<path fill="none" stroke="midnightblue" d="M1067.55,-112.47C1046.3,-105.66 1019.74,-94.18 1001.85,-76 989.21,-63.16 981.86,-43.7 977.89,-29.42"/>
<polygon fill="midnightblue" stroke="midnightblue" points="981.29,-28.57 975.48,-19.71 974.49,-30.26 981.29,-28.57"/>
</g>
<!-- Node29&#45;&gt;Node18 -->
<g id="edge39" class="edge">
<title>Node29&#45;&gt;Node18</title>
<path fill="none" stroke="midnightblue" d="M1067.18,-118.32C949.94,-109.26 568.58,-79.8 443.2,-70.12"/>
<polygon fill="midnightblue" stroke="midnightblue" points="443.15,-66.6 432.91,-69.32 442.61,-73.58 443.15,-66.6"/>
</g>
<!-- Node29&#45;&gt;Node22 -->
<g id="edge40" class="edge">
<title>Node29&#45;&gt;Node22</title>
<path fill="none" stroke="midnightblue" d="M1124.82,-112.44C1149,-103.44 1187.26,-89.19 1214.49,-79.05"/>
<polygon fill="midnightblue" stroke="midnightblue" points="1215.83,-82.29 1223.98,-75.52 1213.39,-75.73 1215.83,-82.29"/>
</g>
<!-- Node30 -->
<g id="node30" class="node">
<title>Node30</title>
<g id="a_node30"><a xlink:title=" ">
<polygon fill="none" stroke="#bfbfbf" points="1010.85,-56.5 1010.85,-75.5 1058.85,-75.5 1058.85,-56.5 1010.85,-56.5"/>
<text text-anchor="middle" x="1034.85" y="-63.5" font-family="Helvetica,sans-Serif" font-size="10.00">thread</text>
</a>
</g>
</g>
<!-- Node29&#45;&gt;Node30 -->
<g id="edge44" class="edge">
<title>Node29&#45;&gt;Node30</title>
<path fill="none" stroke="midnightblue" d="M1091.08,-112.32C1081.08,-104.26 1065.96,-92.08 1053.92,-82.37"/>
<polygon fill="midnightblue" stroke="midnightblue" points="1055.79,-79.38 1045.81,-75.83 1051.4,-84.83 1055.79,-79.38"/>
</g>
<!-- Node31 -->
<g id="node31" class="node">
<title>Node31</title>
<g id="a_node31"><a xlink:title=" ">
<polygon fill="none" stroke="#bfbfbf" points="1077.35,-56.5 1077.35,-75.5 1136.35,-75.5 1136.35,-56.5 1077.35,-56.5"/>
<text text-anchor="middle" x="1106.85" y="-63.5" font-family="Helvetica,sans-Serif" font-size="10.00">sqlite3.h</text>
</a>
</g>
</g>
<!-- Node29&#45;&gt;Node31 -->
<g id="edge46" class="edge">
<title>Node29&#45;&gt;Node31</title>
<path fill="none" stroke="midnightblue" d="M1102.67,-112.08C1103.33,-105.01 1104.27,-94.86 1105.09,-85.99"/>
<polygon fill="midnightblue" stroke="midnightblue" points="1108.6,-86.03 1106.04,-75.75 1101.63,-85.39 1108.6,-86.03"/>
</g>
<!-- Node32 -->
<g id="node32" class="node">
<title>Node32</title>
<g id="a_node32"><a xlink:title=" ">
<polygon fill="none" stroke="#bfbfbf" points="1154.35,-56.5 1154.35,-75.5 1199.35,-75.5 1199.35,-56.5 1154.35,-56.5"/>
<text text-anchor="middle" x="1176.85" y="-63.5" font-family="Helvetica,sans-Serif" font-size="10.00">utility</text>
</a>
</g>
</g>
<!-- Node29&#45;&gt;Node32 -->
<g id="edge47" class="edge">
<title>Node29&#45;&gt;Node32</title>
<path fill="none" stroke="midnightblue" d="M1113.9,-112.32C1125.31,-104.11 1142.68,-91.6 1156.28,-81.81"/>
<polygon fill="midnightblue" stroke="midnightblue" points="1158.51,-84.52 1164.58,-75.83 1154.42,-78.84 1158.51,-84.52"/>
</g>
<!-- Node33&#45;&gt;Node34 -->
<g id="edge52" class="edge">
<title>Node33&#45;&gt;Node34</title>
<path fill="none" stroke="midnightblue" d="M1206.92,-168.44C1228.91,-159.52 1263.58,-145.44 1288.51,-135.32"/>
<polygon fill="midnightblue" stroke="midnightblue" points="1289.92,-138.52 1297.87,-131.52 1287.29,-132.04 1289.92,-138.52"/>
</g>
</g>
</svg>
