<?xml version="1.0" encoding="UTF-8" standalone="no"?>
<!DOCTYPE svg PUBLIC "-//W3C//DTD SVG 1.1//EN"
 "http://www.w3.org/Graphics/SVG/1.1/DTD/svg11.dtd">
<!-- Generated by graphviz version 2.43.0 (0)
 -->
<!-- Title: /__w/pairinteraction/pairinteraction/pairinteraction/MatrixElements.hpp Pages: 1 -->
<!--zoomable 341 -->
<svg id="main" version="1.1" xmlns="http://www.w3.org/2000/svg" xmlns:xlink="http://www.w3.org/1999/xlink" xml:space="preserve" onload="init(evt)">
<style type="text/css"><![CDATA[
.edge:hover path { stroke: red; }
.edge:hover polygon { stroke: red; fill: red; }
]]></style>
<script type="text/javascript"><![CDATA[
var edges = document.getElementsByTagName('g');
if (edges && edges.length) {
  for (var i=0;i<edges.length;i++) {
    if (edges[i].id.substr(0,4)=='edge') {
      edges[i].setAttribute('class','edge');
    }
  }
}
]]></script>
        <defs>
                <circle id="rim" cx="0" cy="0" r="7"/>
                <circle id="rim2" cx="0" cy="0" r="3.5"/>
                <g id="zoomPlus">
                        <use xlink:href="#rim" fill="#404040">
                                <set attributeName="fill" to="#808080" begin="zoomplus.mouseover" end="zoomplus.mouseout"/>
                        </use>
                        <path d="M-4,0h8M0,-4v8" fill="none" stroke="white" stroke-width="1.5" pointer-events="none"/>
                </g>
                <g id="zoomMin">
                        <use xlink:href="#rim" fill="#404040">
                                <set attributeName="fill" to="#808080" begin="zoomminus.mouseover" end="zoomminus.mouseout"/>
                        </use>
                        <path d="M-4,0h8" fill="none" stroke="white" stroke-width="1.5" pointer-events="none"/>
                </g>
                <g id="dirArrow">
                        <path fill="none" stroke="white" stroke-width="1.5" d="M0,-3.0v7 M-2.5,-0.5L0,-3.0L2.5,-0.5"/>
                </g>
               <g id="resetDef">
                       <use xlink:href="#rim2" fill="#404040">
                               <set attributeName="fill" to="#808080" begin="reset.mouseover" end="reset.mouseout"/>
                       </use>
               </g>
        </defs>

<script type="text/javascript">
var viewWidth = 1633;
var viewHeight = 341;
var sectionId = 'dynsection-0';
</script>
<script xlink:href="svgpan.js"/>
<svg id="graph" class="graph">
<g id="viewport">
<title>/__w/pairinteraction/pairinteraction/pairinteraction/MatrixElements.hpp</title>
<!-- Node1 -->
<g id="node1" class="node">
<title>Node1</title>
<g id="a_node1"><a xlink:title=" ">
<polygon fill="#bfbfbf" stroke="black" points="818,-291.5 818,-332.5 983,-332.5 983,-291.5 818,-291.5"/>
<text text-anchor="start" x="826" y="-320.5" font-family="Helvetica,sans-Serif" font-size="10.00">/__w/pairinteraction</text>
<text text-anchor="start" x="826" y="-309.5" font-family="Helvetica,sans-Serif" font-size="10.00">/pairinteraction/pairinteraction</text>
<text text-anchor="middle" x="900.5" y="-298.5" font-family="Helvetica,sans-Serif" font-size="10.00">/MatrixElements.hpp</text>
</a>
</g>
</g>
<!-- Node2 -->
<g id="node2" class="node">
<title>Node2</title>
<g id="a_node2"><a xlink:href="Basisnames_8hpp.html" target="_top" xlink:title=" ">
<polygon fill="none" stroke="black" points="537,-168.5 537,-187.5 634,-187.5 634,-168.5 537,-168.5"/>
<text text-anchor="middle" x="585.5" y="-175.5" font-family="Helvetica,sans-Serif" font-size="10.00">Basisnames.hpp</text>
</a>
</g>
</g>
<!-- Node1&#45;&gt;Node2 -->
<g id="edge1" class="edge">
<title>Node1&#45;&gt;Node2</title>
<path fill="none" stroke="midnightblue" d="M853.68,-291.38C788.01,-263.86 670.44,-214.6 615.43,-191.54"/>
<polygon fill="midnightblue" stroke="midnightblue" points="616.49,-188.19 605.91,-187.55 613.78,-194.65 616.49,-188.19"/>
</g>
<!-- Node5 -->
<g id="node5" class="node">
<title>Node5</title>
<g id="a_node5"><a xlink:title=" ">
<polygon fill="none" stroke="#bfbfbf" points="809.5,-56.5 809.5,-75.5 865.5,-75.5 865.5,-56.5 809.5,-56.5"/>
<text text-anchor="middle" x="837.5" y="-63.5" font-family="Helvetica,sans-Serif" font-size="10.00">sstream</text>
</a>
</g>
</g>
<!-- Node1&#45;&gt;Node5 -->
<g id="edge53" class="edge">
<title>Node1&#45;&gt;Node5</title>
<path fill="none" stroke="midnightblue" d="M895.45,-291.44C883.55,-245.37 853.89,-130.48 842.27,-85.48"/>
<polygon fill="midnightblue" stroke="midnightblue" points="845.62,-84.44 839.73,-75.64 838.84,-86.19 845.62,-84.44"/>
</g>
<!-- Node6 -->
<g id="node6" class="node">
<title>Node6</title>
<g id="a_node6"><a xlink:title=" ">
<polygon fill="none" stroke="#bfbfbf" points="669.5,-56.5 669.5,-75.5 713.5,-75.5 713.5,-56.5 669.5,-56.5"/>
<text text-anchor="middle" x="691.5" y="-63.5" font-family="Helvetica,sans-Serif" font-size="10.00">string</text>
</a>
</g>
</g>
<!-- Node1&#45;&gt;Node6 -->
<g id="edge54" class="edge">
<title>Node1&#45;&gt;Node6</title>
<path fill="none" stroke="midnightblue" d="M890.34,-291.28C870.01,-253.19 821.2,-168.32 762.5,-112 749.37,-99.4 732.19,-88.4 718.01,-80.43"/>
<polygon fill="midnightblue" stroke="midnightblue" points="719.66,-77.34 709.21,-75.64 716.32,-83.49 719.66,-77.34"/>
</g>
<!-- Node8 -->
<g id="node8" class="node">
<title>Node8</title>
<g id="a_node8"><a xlink:href="StateOld_8hpp.html" target="_top" xlink:title=" ">
<polygon fill="none" stroke="black" points="159.5,-112.5 159.5,-131.5 239.5,-131.5 239.5,-112.5 159.5,-112.5"/>
<text text-anchor="middle" x="199.5" y="-119.5" font-family="Helvetica,sans-Serif" font-size="10.00">StateOld.hpp</text>
</a>
</g>
</g>
<!-- Node1&#45;&gt;Node8 -->
<g id="edge28" class="edge">
<title>Node1&#45;&gt;Node8</title>
<path fill="none" stroke="midnightblue" d="M827.47,-291.44C787.34,-280.69 736.67,-267.11 691.5,-255 524.66,-210.27 326.02,-156.96 241.21,-134.2"/>
<polygon fill="midnightblue" stroke="midnightblue" points="242.01,-130.79 231.45,-131.57 240.2,-137.55 242.01,-130.79"/>
</g>
<!-- Node22 -->
<g id="node22" class="node">
<title>Node22</title>
<g id="a_node22"><a xlink:title=" ">
<polygon fill="none" stroke="#bfbfbf" points="1166.5,-56.5 1166.5,-75.5 1224.5,-75.5 1224.5,-56.5 1166.5,-56.5"/>
<text text-anchor="middle" x="1195.5" y="-63.5" font-family="Helvetica,sans-Serif" font-size="10.00">memory</text>
</a>
</g>
</g>
<!-- Node1&#45;&gt;Node22 -->
<g id="edge52" class="edge">
<title>Node1&#45;&gt;Node22</title>
<path fill="none" stroke="midnightblue" d="M983.13,-297.08C1087.81,-277.57 1259.14,-238.72 1296.5,-188 1326.55,-147.21 1260.29,-102.12 1221.33,-80.3"/>
<polygon fill="midnightblue" stroke="midnightblue" points="1223,-77.22 1212.54,-75.51 1219.65,-83.37 1223,-77.22"/>
</g>
<!-- Node26 -->
<g id="node26" class="node">
<title>Node26</title>
<g id="a_node26"><a xlink:href="Wavefunction_8hpp.html" target="_top" xlink:title=" ">
<polygon fill="none" stroke="black" points="934,-230 934,-249 1039,-249 1039,-230 934,-230"/>
<text text-anchor="middle" x="986.5" y="-237" font-family="Helvetica,sans-Serif" font-size="10.00">Wavefunction.hpp</text>
</a>
</g>
</g>
<!-- Node1&#45;&gt;Node26 -->
<g id="edge29" class="edge">
<title>Node1&#45;&gt;Node26</title>
<path fill="none" stroke="midnightblue" d="M924.46,-291.36C938.19,-280.11 955.16,-266.19 967.88,-255.76"/>
<polygon fill="midnightblue" stroke="midnightblue" points="970.41,-258.22 975.92,-249.17 965.97,-252.81 970.41,-258.22"/>
</g>
<!-- Node36 -->
<g id="node36" class="node">
<title>Node36</title>
<g id="a_node36"><a xlink:title=" ">
<polygon fill="none" stroke="#bfbfbf" points="1343.5,-224.5 1343.5,-254.5 1513.5,-254.5 1513.5,-224.5 1343.5,-224.5"/>
<text text-anchor="start" x="1351.5" y="-242.5" font-family="Helvetica,sans-Serif" font-size="10.00">wignerSymbols/wignerSymbols</text>
<text text-anchor="middle" x="1428.5" y="-231.5" font-family="Helvetica,sans-Serif" font-size="10.00">&#45;cpp.h</text>
</a>
</g>
</g>
<!-- Node1&#45;&gt;Node36 -->
<g id="edge51" class="edge">
<title>Node1&#45;&gt;Node36</title>
<path fill="none" stroke="midnightblue" d="M983.19,-300.59C1069.62,-289.63 1209.16,-271.67 1329.5,-255 1330.78,-254.82 1332.07,-254.64 1333.37,-254.46"/>
<polygon fill="midnightblue" stroke="midnightblue" points="1334.04,-257.9 1343.46,-253.04 1333.07,-250.97 1334.04,-257.9"/>
</g>
<!-- Node37 -->
<g id="node37" class="node">
<title>Node37</title>
<g id="a_node37"><a xlink:title=" ">
<polygon fill="none" stroke="#bfbfbf" points="1532,-230 1532,-249 1625,-249 1625,-230 1532,-230"/>
<text text-anchor="middle" x="1578.5" y="-237" font-family="Helvetica,sans-Serif" font-size="10.00">unordered_map</text>
</a>
</g>
</g>
<!-- Node1&#45;&gt;Node37 -->
<g id="edge55" class="edge">
<title>Node1&#45;&gt;Node37</title>
<path fill="none" stroke="midnightblue" d="M983.06,-307.87C1102.73,-302.35 1331.01,-288.18 1522.5,-255 1528,-254.05 1533.76,-252.82 1539.4,-251.49"/>
<polygon fill="midnightblue" stroke="midnightblue" points="1540.49,-254.83 1549.34,-249.01 1538.79,-248.03 1540.49,-254.83"/>
</g>
<!-- Node3 -->
<g id="node3" class="node">
<title>Node3</title>
<g id="a_node3"><a xlink:href="ConfParser_8hpp.html" target="_top" xlink:title=" ">
<polygon fill="none" stroke="black" points="258,-112.5 258,-131.5 349,-131.5 349,-112.5 258,-112.5"/>
<text text-anchor="middle" x="303.5" y="-119.5" font-family="Helvetica,sans-Serif" font-size="10.00">ConfParser.hpp</text>
</a>
</g>
</g>
<!-- Node2&#45;&gt;Node3 -->
<g id="edge2" class="edge">
<title>Node2&#45;&gt;Node3</title>
<path fill="none" stroke="midnightblue" d="M540.82,-168.44C491.21,-158.94 411.14,-143.61 357.91,-133.42"/>
<polygon fill="midnightblue" stroke="midnightblue" points="358.45,-129.96 347.97,-131.52 357.14,-136.83 358.45,-129.96"/>
</g>
<!-- Node2&#45;&gt;Node6 -->
<g id="edge25" class="edge">
<title>Node2&#45;&gt;Node6</title>
<path fill="none" stroke="midnightblue" d="M605.55,-168.39C621.51,-160.72 643.58,-148.21 658.5,-132 670.93,-118.5 679.87,-99.43 685.28,-85.44"/>
<polygon fill="midnightblue" stroke="midnightblue" points="688.62,-86.5 688.73,-75.91 682.04,-84.12 688.62,-86.5"/>
</g>
<!-- Node7 -->
<g id="node7" class="node">
<title>Node7</title>
<g id="a_node7"><a xlink:href="Iter_8hpp.html" target="_top" xlink:title=" ">
<polygon fill="none" stroke="black" points="521.5,-112.5 521.5,-131.5 575.5,-131.5 575.5,-112.5 521.5,-112.5"/>
<text text-anchor="middle" x="548.5" y="-119.5" font-family="Helvetica,sans-Serif" font-size="10.00">Iter.hpp</text>
</a>
</g>
</g>
<!-- Node2&#45;&gt;Node7 -->
<g id="edge6" class="edge">
<title>Node2&#45;&gt;Node7</title>
<path fill="none" stroke="midnightblue" d="M579.39,-168.08C574.22,-160.53 566.65,-149.49 560.31,-140.23"/>
<polygon fill="midnightblue" stroke="midnightblue" points="563.04,-138.02 554.5,-131.75 557.26,-141.98 563.04,-138.02"/>
</g>
<!-- Node2&#45;&gt;Node8 -->
<g id="edge7" class="edge">
<title>Node2&#45;&gt;Node8</title>
<path fill="none" stroke="midnightblue" d="M536.84,-171.26C473.21,-163.59 358.05,-149.13 249.71,-132.13"/>
<polygon fill="midnightblue" stroke="midnightblue" points="250.01,-128.63 239.58,-130.53 248.92,-135.54 250.01,-128.63"/>
</g>
<!-- Node21 -->
<g id="node21" class="node">
<title>Node21</title>
<g id="a_node21"><a xlink:title=" ">
<polygon fill="none" stroke="#bfbfbf" points="594,-112.5 594,-131.5 649,-131.5 649,-112.5 594,-112.5"/>
<text text-anchor="middle" x="621.5" y="-119.5" font-family="Helvetica,sans-Serif" font-size="10.00">fstream</text>
</a>
</g>
</g>
<!-- Node2&#45;&gt;Node21 -->
<g id="edge22" class="edge">
<title>Node2&#45;&gt;Node21</title>
<path fill="none" stroke="midnightblue" d="M591.44,-168.08C596.48,-160.53 603.84,-149.49 610.01,-140.23"/>
<polygon fill="midnightblue" stroke="midnightblue" points="613.03,-142.01 615.67,-131.75 607.21,-138.13 613.03,-142.01"/>
</g>
<!-- Node2&#45;&gt;Node22 -->
<g id="edge23" class="edge">
<title>Node2&#45;&gt;Node22</title>
<path fill="none" stroke="midnightblue" d="M634.14,-174.49C735.32,-168.9 965.3,-154.13 1040.5,-132 1059.19,-126.5 1061.73,-119.98 1079.5,-112 1106.74,-99.77 1138.39,-87.63 1161.74,-79.04"/>
<polygon fill="midnightblue" stroke="midnightblue" points="1163.01,-82.3 1171.21,-75.59 1160.61,-75.73 1163.01,-82.3"/>
</g>
<!-- Node23 -->
<g id="node23" class="node">
<title>Node23</title>
<g id="a_node23"><a xlink:title=" ">
<polygon fill="none" stroke="#bfbfbf" points="367.5,-112.5 367.5,-131.5 399.5,-131.5 399.5,-112.5 367.5,-112.5"/>
<text text-anchor="middle" x="383.5" y="-119.5" font-family="Helvetica,sans-Serif" font-size="10.00">set</text>
</a>
</g>
</g>
<!-- Node2&#45;&gt;Node23 -->
<g id="edge24" class="edge">
<title>Node2&#45;&gt;Node23</title>
<path fill="none" stroke="midnightblue" d="M547.57,-168.48C513.57,-160.59 462.18,-148.06 409.13,-131.97"/>
<polygon fill="midnightblue" stroke="midnightblue" points="410.15,-128.63 399.56,-129.04 408.1,-135.32 410.15,-128.63"/>
</g>
<!-- Node24 -->
<g id="node24" class="node">
<title>Node24</title>
<g id="a_node24"><a xlink:title=" ">
<polygon fill="none" stroke="#bfbfbf" points="417.5,-112.5 417.5,-131.5 503.5,-131.5 503.5,-112.5 417.5,-112.5"/>
<text text-anchor="middle" x="460.5" y="-119.5" font-family="Helvetica,sans-Serif" font-size="10.00">unordered_set</text>
</a>
</g>
</g>
<!-- Node2&#45;&gt;Node24 -->
<g id="edge26" class="edge">
<title>Node2&#45;&gt;Node24</title>
<path fill="none" stroke="midnightblue" d="M565.69,-168.44C545.21,-159.6 513.02,-145.69 489.64,-135.59"/>
<polygon fill="midnightblue" stroke="midnightblue" points="490.78,-132.27 480.21,-131.52 488.01,-138.7 490.78,-132.27"/>
</g>
<!-- Node25 -->
<g id="node25" class="node">
<title>Node25</title>
<g id="a_node25"><a xlink:title=" ">
<polygon fill="none" stroke="#bfbfbf" points="706,-112.5 706,-131.5 753,-131.5 753,-112.5 706,-112.5"/>
<text text-anchor="middle" x="729.5" y="-119.5" font-family="Helvetica,sans-Serif" font-size="10.00">vector</text>
</a>
</g>
</g>
<!-- Node2&#45;&gt;Node25 -->
<g id="edge27" class="edge">
<title>Node2&#45;&gt;Node25</title>
<path fill="none" stroke="midnightblue" d="M608.32,-168.44C632.33,-159.44 670.33,-145.19 697.37,-135.05"/>
<polygon fill="midnightblue" stroke="midnightblue" points="698.66,-138.3 706.79,-131.52 696.2,-131.75 698.66,-138.3"/>
</g>
<!-- Node4 -->
<g id="node4" class="node">
<title>Node4</title>
<g id="a_node4"><a xlink:title=" ">
<polygon fill="none" stroke="#bfbfbf" points="470.5,-56.5 470.5,-75.5 508.5,-75.5 508.5,-56.5 470.5,-56.5"/>
<text text-anchor="middle" x="489.5" y="-63.5" font-family="Helvetica,sans-Serif" font-size="10.00">map</text>
</a>
</g>
</g>
<!-- Node3&#45;&gt;Node4 -->
<g id="edge3" class="edge">
<title>Node3&#45;&gt;Node4</title>
<path fill="none" stroke="midnightblue" d="M334.77,-112.43C364.71,-104.15 411.39,-91.04 460.42,-76.26"/>
<polygon fill="midnightblue" stroke="midnightblue" points="461.69,-79.53 470.25,-73.28 459.66,-72.83 461.69,-79.53"/>
</g>
<!-- Node3&#45;&gt;Node5 -->
<g id="edge4" class="edge">
<title>Node3&#45;&gt;Node5</title>
<path fill="none" stroke="midnightblue" d="M349.08,-113.25C352.26,-112.8 355.43,-112.38 358.5,-112 550.89,-88.46 604.16,-106.76 799.31,-75.94"/>
<polygon fill="midnightblue" stroke="midnightblue" points="799.99,-79.38 809.31,-74.34 798.88,-72.47 799.99,-79.38"/>
</g>
<!-- Node3&#45;&gt;Node6 -->
<g id="edge5" class="edge">
<title>Node3&#45;&gt;Node6</title>
<path fill="none" stroke="midnightblue" d="M349.1,-113.44C352.28,-112.94 355.44,-112.46 358.5,-112 468.49,-95.57 599.33,-78.66 658.97,-71.09"/>
<polygon fill="midnightblue" stroke="midnightblue" points="659.78,-74.52 669.26,-69.79 658.9,-67.57 659.78,-74.52"/>
</g>
<!-- Node8&#45;&gt;Node6 -->
<g id="edge19" class="edge">
<title>Node8&#45;&gt;Node6</title>
<path fill="none" stroke="midnightblue" d="M239.57,-113.37C242.59,-112.88 245.59,-112.41 248.5,-112 401.69,-90.19 586.14,-74.97 659.32,-69.38"/>
<polygon fill="midnightblue" stroke="midnightblue" points="659.59,-72.87 669.3,-68.62 659.06,-65.89 659.59,-72.87"/>
</g>
<!-- Node9 -->
<g id="node9" class="node">
<title>Node9</title>
<g id="a_node9"><a xlink:href="utils_8hpp.html" target="_top" xlink:title=" ">
<polygon fill="none" stroke="black" points="732,-56.5 732,-75.5 791,-75.5 791,-56.5 732,-56.5"/>
<text text-anchor="middle" x="761.5" y="-63.5" font-family="Helvetica,sans-Serif" font-size="10.00">utils.hpp</text>
</a>
</g>
</g>
<!-- Node8&#45;&gt;Node9 -->
<g id="edge8" class="edge">
<title>Node8&#45;&gt;Node9</title>
<path fill="none" stroke="midnightblue" d="M239.56,-113.29C242.58,-112.81 245.58,-112.38 248.5,-112 454.75,-85.3 511.86,-107.14 721.67,-75.87"/>
<polygon fill="midnightblue" stroke="midnightblue" points="722.41,-79.3 731.78,-74.35 721.37,-72.38 722.41,-79.3"/>
</g>
<!-- Node11 -->
<g id="node11" class="node">
<title>Node11</title>
<g id="a_node11"><a xlink:title=" ">
<polygon fill="none" stroke="#bfbfbf" points="430.5,-0.5 430.5,-19.5 472.5,-19.5 472.5,-0.5 430.5,-0.5"/>
<text text-anchor="middle" x="451.5" y="-7.5" font-family="Helvetica,sans-Serif" font-size="10.00">array</text>
</a>
</g>
</g>
<!-- Node8&#45;&gt;Node11 -->
<g id="edge16" class="edge">
<title>Node8&#45;&gt;Node11</title>
<path fill="none" stroke="midnightblue" d="M236.13,-112.44C266.23,-104.77 309.61,-92.22 345.5,-76 362.32,-68.4 403.96,-41.95 429.76,-25.22"/>
<polygon fill="midnightblue" stroke="midnightblue" points="432,-27.94 438.48,-19.56 428.19,-22.08 432,-27.94"/>
</g>
<!-- Node17 -->
<g id="node17" class="node">
<title>Node17</title>
<g id="a_node17"><a xlink:title=" ">
<polygon fill="none" stroke="#bfbfbf" points="0,-56.5 0,-75.5 47,-75.5 47,-56.5 0,-56.5"/>
<text text-anchor="middle" x="23.5" y="-63.5" font-family="Helvetica,sans-Serif" font-size="10.00">cmath</text>
</a>
</g>
</g>
<!-- Node8&#45;&gt;Node17 -->
<g id="edge17" class="edge">
<title>Node8&#45;&gt;Node17</title>
<path fill="none" stroke="midnightblue" d="M171.61,-112.44C140.43,-102.88 89.95,-87.39 56.74,-77.2"/>
<polygon fill="midnightblue" stroke="midnightblue" points="57.62,-73.81 47.03,-74.22 55.57,-80.5 57.62,-73.81"/>
</g>
<!-- Node18 -->
<g id="node18" class="node">
<title>Node18</title>
<g id="a_node18"><a xlink:title=" ">
<polygon fill="none" stroke="#bfbfbf" points="392.5,-56.5 392.5,-75.5 452.5,-75.5 452.5,-56.5 392.5,-56.5"/>
<text text-anchor="middle" x="422.5" y="-63.5" font-family="Helvetica,sans-Serif" font-size="10.00">iostream</text>
</a>
</g>
</g>
<!-- Node8&#45;&gt;Node18 -->
<g id="edge18" class="edge">
<title>Node8&#45;&gt;Node18</title>
<path fill="none" stroke="midnightblue" d="M234.84,-112.44C275,-102.72 340.42,-86.88 382.45,-76.7"/>
<polygon fill="midnightblue" stroke="midnightblue" points="383.44,-80.06 392.34,-74.3 381.79,-73.26 383.44,-80.06"/>
</g>
<!-- Node19 -->
<g id="node19" class="node">
<title>Node19</title>
<g id="a_node19"><a xlink:title=" ">
<polygon fill="none" stroke="#bfbfbf" points="65,-56.5 65,-75.5 190,-75.5 190,-56.5 65,-56.5"/>
<text text-anchor="middle" x="127.5" y="-63.5" font-family="Helvetica,sans-Serif" font-size="10.00">cereal/types/array.hpp</text>
</a>
</g>
</g>
<!-- Node8&#45;&gt;Node19 -->
<g id="edge20" class="edge">
<title>Node8&#45;&gt;Node19</title>
<path fill="none" stroke="midnightblue" d="M187.93,-112.32C177.08,-104.18 160.62,-91.84 147.62,-82.09"/>
<polygon fill="midnightblue" stroke="midnightblue" points="149.38,-79.03 139.28,-75.83 145.18,-84.63 149.38,-79.03"/>
</g>
<!-- Node20 -->
<g id="node20" class="node">
<title>Node20</title>
<g id="a_node20"><a xlink:title=" ">
<polygon fill="none" stroke="#bfbfbf" points="208.5,-56.5 208.5,-75.5 336.5,-75.5 336.5,-56.5 208.5,-56.5"/>
<text text-anchor="middle" x="272.5" y="-63.5" font-family="Helvetica,sans-Serif" font-size="10.00">cereal/types/string.hpp</text>
</a>
</g>
</g>
<!-- Node8&#45;&gt;Node20 -->
<g id="edge21" class="edge">
<title>Node8&#45;&gt;Node20</title>
<path fill="none" stroke="midnightblue" d="M211.23,-112.32C222.34,-104.11 239.24,-91.6 252.48,-81.81"/>
<polygon fill="midnightblue" stroke="midnightblue" points="254.6,-84.59 260.56,-75.83 250.44,-78.97 254.6,-84.59"/>
</g>
<!-- Node10 -->
<g id="node10" class="node">
<title>Node10</title>
<g id="a_node10"><a xlink:title=" ">
<polygon fill="none" stroke="#bfbfbf" points="816.5,-0.5 816.5,-19.5 880.5,-19.5 880.5,-0.5 816.5,-0.5"/>
<text text-anchor="middle" x="848.5" y="-7.5" font-family="Helvetica,sans-Serif" font-size="10.00">algorithm</text>
</a>
</g>
</g>
<!-- Node9&#45;&gt;Node10 -->
<g id="edge9" class="edge">
<title>Node9&#45;&gt;Node10</title>
<path fill="none" stroke="midnightblue" d="M775.48,-56.32C789.05,-47.9 809.88,-34.97 825.82,-25.07"/>
<polygon fill="midnightblue" stroke="midnightblue" points="827.91,-27.9 834.56,-19.65 824.21,-21.95 827.91,-27.9"/>
</g>
<!-- Node9&#45;&gt;Node11 -->
<g id="edge10" class="edge">
<title>Node9&#45;&gt;Node11</title>
<path fill="none" stroke="midnightblue" d="M731.73,-57.93C728.62,-57.25 725.5,-56.59 722.5,-56 636.02,-38.86 533.13,-23.01 482.62,-15.52"/>
<polygon fill="midnightblue" stroke="midnightblue" points="483.07,-12.05 472.66,-14.06 482.05,-18.98 483.07,-12.05"/>
</g>
<!-- Node12 -->
<g id="node12" class="node">
<title>Node12</title>
<g id="a_node12"><a xlink:title=" ">
<polygon fill="none" stroke="#bfbfbf" points="582,-0.5 582,-19.5 641,-19.5 641,-0.5 582,-0.5"/>
<text text-anchor="middle" x="611.5" y="-7.5" font-family="Helvetica,sans-Serif" font-size="10.00">complex</text>
</a>
</g>
</g>
<!-- Node9&#45;&gt;Node12 -->
<g id="edge11" class="edge">
<title>Node9&#45;&gt;Node12</title>
<path fill="none" stroke="midnightblue" d="M737.73,-56.44C712.61,-47.4 672.79,-33.06 644.6,-22.92"/>
<polygon fill="midnightblue" stroke="midnightblue" points="645.75,-19.61 635.16,-19.52 643.38,-26.2 645.75,-19.61"/>
</g>
<!-- Node13 -->
<g id="node13" class="node">
<title>Node13</title>
<g id="a_node13"><a xlink:title=" ">
<polygon fill="none" stroke="#bfbfbf" points="659,-0.5 659,-19.5 724,-19.5 724,-0.5 659,-0.5"/>
<text text-anchor="middle" x="691.5" y="-7.5" font-family="Helvetica,sans-Serif" font-size="10.00">functional</text>
</a>
</g>
</g>
<!-- Node9&#45;&gt;Node13 -->
<g id="edge12" class="edge">
<title>Node9&#45;&gt;Node13</title>
<path fill="none" stroke="midnightblue" d="M750.25,-56.32C739.7,-48.18 723.7,-35.84 711.06,-26.09"/>
<polygon fill="midnightblue" stroke="midnightblue" points="713.01,-23.17 702.95,-19.83 708.73,-28.71 713.01,-23.17"/>
</g>
<!-- Node14 -->
<g id="node14" class="node">
<title>Node14</title>
<g id="a_node14"><a xlink:title=" ">
<polygon fill="none" stroke="#bfbfbf" points="936.5,-0.5 936.5,-19.5 990.5,-19.5 990.5,-0.5 936.5,-0.5"/>
<text text-anchor="middle" x="963.5" y="-7.5" font-family="Helvetica,sans-Serif" font-size="10.00">random</text>
</a>
</g>
</g>
<!-- Node9&#45;&gt;Node14 -->
<g id="edge13" class="edge">
<title>Node9&#45;&gt;Node14</title>
<path fill="none" stroke="midnightblue" d="M791.31,-57.03C827.27,-47.42 887.74,-31.25 926.61,-20.86"/>
<polygon fill="midnightblue" stroke="midnightblue" points="927.73,-24.19 936.48,-18.22 925.92,-17.42 927.73,-24.19"/>
</g>
<!-- Node15 -->
<g id="node15" class="node">
<title>Node15</title>
<g id="a_node15"><a xlink:title=" ">
<polygon fill="none" stroke="#bfbfbf" points="1028,-0.5 1028,-19.5 1097,-19.5 1097,-0.5 1028,-0.5"/>
<text text-anchor="middle" x="1062.5" y="-7.5" font-family="Helvetica,sans-Serif" font-size="10.00">type_traits</text>
</a>
</g>
</g>
<!-- Node9&#45;&gt;Node15 -->
<g id="edge14" class="edge">
<title>Node9&#45;&gt;Node15</title>
<path fill="none" stroke="midnightblue" d="M791.27,-57.95C794.38,-57.26 797.5,-56.6 800.5,-56 876.43,-40.73 965.39,-26.14 1017.68,-17.91"/>
<polygon fill="midnightblue" stroke="midnightblue" points="1018.29,-21.35 1027.63,-16.34 1017.21,-14.44 1018.29,-21.35"/>
</g>
<!-- Node16 -->
<g id="node16" class="node">
<title>Node16</title>
<g id="a_node16"><a xlink:title=" ">
<polygon fill="none" stroke="#bfbfbf" points="742.5,-0.5 742.5,-19.5 798.5,-19.5 798.5,-0.5 742.5,-0.5"/>
<text text-anchor="middle" x="770.5" y="-7.5" font-family="Helvetica,sans-Serif" font-size="10.00">unistd.h</text>
</a>
</g>
</g>
<!-- Node9&#45;&gt;Node16 -->
<g id="edge15" class="edge">
<title>Node9&#45;&gt;Node16</title>
<path fill="none" stroke="midnightblue" d="M762.99,-56.08C764.18,-48.93 765.89,-38.64 767.38,-29.69"/>
<polygon fill="midnightblue" stroke="midnightblue" points="770.85,-30.19 769.04,-19.75 763.95,-29.04 770.85,-30.19"/>
</g>
<!-- Node26&#45;&gt;Node6 -->
<g id="edge49" class="edge">
<title>Node26&#45;&gt;Node6</title>
<path fill="none" stroke="midnightblue" d="M962.41,-229.87C939.53,-221.1 904.7,-206.24 877.5,-188 836.23,-160.33 837.12,-139.14 795.5,-112 772.88,-97.25 744.62,-85.38 723.27,-77.54"/>
<polygon fill="midnightblue" stroke="midnightblue" points="724.29,-74.19 713.69,-74.13 721.94,-80.78 724.29,-74.19"/>
</g>
<!-- Node26&#45;&gt;Node25 -->
<g id="edge50" class="edge">
<title>Node26&#45;&gt;Node25</title>
<path fill="none" stroke="midnightblue" d="M933.91,-230.11C896.52,-222.67 845.95,-209.56 805.5,-188 781.46,-175.18 758.33,-153.65 744.03,-138.91"/>
<polygon fill="midnightblue" stroke="midnightblue" points="746.46,-136.38 737.05,-131.51 741.37,-141.19 746.46,-136.38"/>
</g>
<!-- Node27 -->
<g id="node27" class="node">
<title>Node27</title>
<g id="a_node27"><a xlink:href="QuantumDefect_8hpp.html" target="_top" xlink:title=" ">
<polygon fill="none" stroke="black" points="886,-168.5 886,-187.5 1001,-187.5 1001,-168.5 886,-168.5"/>
<text text-anchor="middle" x="943.5" y="-175.5" font-family="Helvetica,sans-Serif" font-size="10.00">QuantumDefect.hpp</text>
</a>
</g>
</g>
<!-- Node26&#45;&gt;Node27 -->
<g id="edge30" class="edge">
<title>Node26&#45;&gt;Node27</title>
<path fill="none" stroke="midnightblue" d="M980.34,-229.98C973.89,-221.05 963.6,-206.81 955.53,-195.64"/>
<polygon fill="midnightblue" stroke="midnightblue" points="958.34,-193.56 949.65,-187.51 952.67,-197.66 958.34,-193.56"/>
</g>
<!-- Node32 -->
<g id="node32" class="node">
<title>Node32</title>
<g id="a_node32"><a xlink:href="EigenCompat_8hpp.html" target="_top" xlink:title=" ">
<polygon fill="none" stroke="black" points="1058,-168.5 1058,-187.5 1161,-187.5 1161,-168.5 1058,-168.5"/>
<text text-anchor="middle" x="1109.5" y="-175.5" font-family="Helvetica,sans-Serif" font-size="10.00">EigenCompat.hpp</text>
</a>
</g>
</g>
<!-- Node26&#45;&gt;Node32 -->
<g id="edge44" class="edge">
<title>Node26&#45;&gt;Node32</title>
<path fill="none" stroke="midnightblue" d="M1004.12,-229.98C1024.67,-220.03 1058.86,-203.49 1082.71,-191.96"/>
<polygon fill="midnightblue" stroke="midnightblue" points="1084.43,-195.01 1091.91,-187.51 1081.38,-188.71 1084.43,-195.01"/>
</g>
<!-- Node33 -->
<g id="node33" class="node">
<title>Node33</title>
<g id="a_node33"><a xlink:title=" ">
<polygon fill="none" stroke="#bfbfbf" points="1088,-112.5 1088,-131.5 1157,-131.5 1157,-112.5 1088,-112.5"/>
<text text-anchor="middle" x="1122.5" y="-119.5" font-family="Helvetica,sans-Serif" font-size="10.00">Eigen/Core</text>
</a>
</g>
</g>
<!-- Node26&#45;&gt;Node33 -->
<g id="edge46" class="edge">
<title>Node26&#45;&gt;Node33</title>
<path fill="none" stroke="midnightblue" d="M992.8,-229.97C1003.44,-215.93 1026.09,-187.6 1049.5,-168 1064.02,-155.85 1082.12,-144.67 1096.67,-136.49"/>
<polygon fill="midnightblue" stroke="midnightblue" points="1098.55,-139.45 1105.64,-131.57 1095.19,-133.31 1098.55,-139.45"/>
</g>
<!-- Node34 -->
<g id="node34" class="node">
<title>Node34</title>
<g id="a_node34"><a xlink:title=" ">
<polygon fill="none" stroke="#bfbfbf" points="1179.5,-168.5 1179.5,-187.5 1225.5,-187.5 1225.5,-168.5 1179.5,-168.5"/>
<text text-anchor="middle" x="1202.5" y="-175.5" font-family="Helvetica,sans-Serif" font-size="10.00">cstdio</text>
</a>
</g>
</g>
<!-- Node26&#45;&gt;Node34 -->
<g id="edge47" class="edge">
<title>Node26&#45;&gt;Node34</title>
<path fill="none" stroke="midnightblue" d="M1017.77,-229.98C1052.46,-220.52 1110.36,-204.68 1169.54,-188.25"/>
<polygon fill="midnightblue" stroke="midnightblue" points="1170.73,-191.56 1179.43,-185.51 1168.86,-184.81 1170.73,-191.56"/>
</g>
<!-- Node35 -->
<g id="node35" class="node">
<title>Node35</title>
<g id="a_node35"><a xlink:title=" ">
<polygon fill="none" stroke="#bfbfbf" points="1243.5,-168.5 1243.5,-187.5 1287.5,-187.5 1287.5,-168.5 1243.5,-168.5"/>
<text text-anchor="middle" x="1265.5" y="-175.5" font-family="Helvetica,sans-Serif" font-size="10.00">limits</text>
</a>
</g>
</g>
<!-- Node26&#45;&gt;Node35 -->
<g id="edge48" class="edge">
<title>Node26&#45;&gt;Node35</title>
<path fill="none" stroke="midnightblue" d="M1034.3,-229.97C1082.28,-221.13 1158.49,-206.38 1233.16,-188.18"/>
<polygon fill="midnightblue" stroke="midnightblue" points="1234.33,-191.5 1243.21,-185.71 1232.66,-184.7 1234.33,-191.5"/>
</g>
<!-- Node27&#45;&gt;Node6 -->
<g id="edge43" class="edge">
<title>Node27&#45;&gt;Node6</title>
<path fill="none" stroke="midnightblue" d="M929.96,-168.47C905.1,-152.91 852.94,-120.69 833.5,-112 813.73,-103.16 759.06,-86.63 723.61,-76.25"/>
<polygon fill="midnightblue" stroke="midnightblue" points="724.3,-72.81 713.72,-73.37 722.35,-79.53 724.3,-72.81"/>
</g>
<!-- Node27&#45;&gt;Node9 -->
<g id="edge42" class="edge">
<title>Node27&#45;&gt;Node9</title>
<path fill="none" stroke="midnightblue" d="M935.84,-168.38C923.45,-154.86 897.73,-128.49 871.5,-112 849.08,-97.9 821.49,-86.63 799.56,-78.89"/>
<polygon fill="midnightblue" stroke="midnightblue" points="800.51,-75.52 789.91,-75.59 798.24,-82.14 800.51,-75.52"/>
</g>
<!-- Node28 -->
<g id="node28" class="node">
<title>Node28</title>
<g id="a_node28"><a xlink:href="SQLite_8hpp.html" target="_top" xlink:title=" ">
<polygon fill="none" stroke="black" points="962,-112.5 962,-131.5 1031,-131.5 1031,-112.5 962,-112.5"/>
<text text-anchor="middle" x="996.5" y="-119.5" font-family="Helvetica,sans-Serif" font-size="10.00">SQLite.hpp</text>
</a>
</g>
</g>
<!-- Node27&#45;&gt;Node28 -->
<g id="edge31" class="edge">
<title>Node27&#45;&gt;Node28</title>
<path fill="none" stroke="midnightblue" d="M952.25,-168.08C959.97,-160.22 971.4,-148.57 980.72,-139.08"/>
<polygon fill="midnightblue" stroke="midnightblue" points="983.4,-141.34 987.91,-131.75 978.41,-136.44 983.4,-141.34"/>
</g>
<!-- Node28&#45;&gt;Node5 -->
<g id="edge35" class="edge">
<title>Node28&#45;&gt;Node5</title>
<path fill="none" stroke="midnightblue" d="M971.31,-112.44C944.56,-103.36 902.1,-88.94 872.19,-78.78"/>
<polygon fill="midnightblue" stroke="midnightblue" points="873.17,-75.42 862.58,-75.52 870.92,-82.05 873.17,-75.42"/>
</g>
<!-- Node28&#45;&gt;Node6 -->
<g id="edge36" class="edge">
<title>Node28&#45;&gt;Node6</title>
<path fill="none" stroke="midnightblue" d="M961.79,-116.53C911.53,-109.8 815.44,-95.89 723.8,-75.83"/>
<polygon fill="midnightblue" stroke="midnightblue" points="724.32,-72.36 713.8,-73.61 722.8,-79.19 724.32,-72.36"/>
</g>
<!-- Node28&#45;&gt;Node9 -->
<g id="edge41" class="edge">
<title>Node28&#45;&gt;Node9</title>
<path fill="none" stroke="midnightblue" d="M961.8,-113.05C924.61,-104.52 863.58,-90.51 801.31,-76.18"/>
<polygon fill="midnightblue" stroke="midnightblue" points="801.84,-72.72 791.31,-73.88 800.27,-79.54 801.84,-72.72"/>
</g>
<!-- Node28&#45;&gt;Node14 -->
<g id="edge34" class="edge">
<title>Node28&#45;&gt;Node14</title>
<path fill="none" stroke="midnightblue" d="M1002.86,-112.3C1011.33,-99.56 1024.3,-75.25 1015.5,-56 1009.72,-43.36 998.45,-32.91 987.87,-25.27"/>
<polygon fill="midnightblue" stroke="midnightblue" points="989.54,-22.18 979.28,-19.53 985.65,-28 989.54,-22.18"/>
</g>
<!-- Node28&#45;&gt;Node15 -->
<g id="edge38" class="edge">
<title>Node28&#45;&gt;Node15</title>
<path fill="none" stroke="midnightblue" d="M1003.79,-112.39C1011.05,-103.58 1022.28,-89.34 1030.5,-76 1039.87,-60.79 1048.69,-42.45 1054.69,-29.13"/>
<polygon fill="midnightblue" stroke="midnightblue" points="1058.03,-30.25 1058.85,-19.69 1051.62,-27.43 1058.03,-30.25"/>
</g>
<!-- Node28&#45;&gt;Node18 -->
<g id="edge32" class="edge">
<title>Node28&#45;&gt;Node18</title>
<path fill="none" stroke="midnightblue" d="M961.87,-119.8C877.89,-116.53 656.63,-105.73 462.74,-75.98"/>
<polygon fill="midnightblue" stroke="midnightblue" points="463.07,-72.48 452.65,-74.41 461.99,-79.4 463.07,-72.48"/>
</g>
<!-- Node28&#45;&gt;Node22 -->
<g id="edge33" class="edge">
<title>Node28&#45;&gt;Node22</title>
<path fill="none" stroke="midnightblue" d="M1028.03,-112.44C1062.79,-103.01 1118.76,-87.83 1156.31,-77.63"/>
<polygon fill="midnightblue" stroke="midnightblue" points="1157.65,-80.9 1166.38,-74.9 1155.81,-74.14 1157.65,-80.9"/>
</g>
<!-- Node29 -->
<g id="node29" class="node">
<title>Node29</title>
<g id="a_node29"><a xlink:title=" ">
<polygon fill="none" stroke="#bfbfbf" points="1100.5,-56.5 1100.5,-75.5 1148.5,-75.5 1148.5,-56.5 1100.5,-56.5"/>
<text text-anchor="middle" x="1124.5" y="-63.5" font-family="Helvetica,sans-Serif" font-size="10.00">thread</text>
</a>
</g>
</g>
<!-- Node28&#45;&gt;Node29 -->
<g id="edge37" class="edge">
<title>Node28&#45;&gt;Node29</title>
<path fill="none" stroke="midnightblue" d="M1016.78,-112.44C1037.85,-103.56 1071.02,-89.56 1094.99,-79.45"/>
<polygon fill="midnightblue" stroke="midnightblue" points="1096.46,-82.63 1104.31,-75.52 1093.74,-76.18 1096.46,-82.63"/>
</g>
<!-- Node30 -->
<g id="node30" class="node">
<title>Node30</title>
<g id="a_node30"><a xlink:title=" ">
<polygon fill="none" stroke="#bfbfbf" points="884,-56.5 884,-75.5 943,-75.5 943,-56.5 884,-56.5"/>
<text text-anchor="middle" x="913.5" y="-63.5" font-family="Helvetica,sans-Serif" font-size="10.00">sqlite3.h</text>
</a>
</g>
</g>
<!-- Node28&#45;&gt;Node30 -->
<g id="edge39" class="edge">
<title>Node28&#45;&gt;Node30</title>
<path fill="none" stroke="midnightblue" d="M983.16,-112.32C970.34,-103.98 950.72,-91.21 935.56,-81.35"/>
<polygon fill="midnightblue" stroke="midnightblue" points="937.09,-78.17 926.8,-75.65 933.28,-84.04 937.09,-78.17"/>
</g>
<!-- Node31 -->
<g id="node31" class="node">
<title>Node31</title>
<g id="a_node31"><a xlink:title=" ">
<polygon fill="none" stroke="#bfbfbf" points="961,-56.5 961,-75.5 1006,-75.5 1006,-56.5 961,-56.5"/>
<text text-anchor="middle" x="983.5" y="-63.5" font-family="Helvetica,sans-Serif" font-size="10.00">utility</text>
</a>
</g>
</g>
<!-- Node28&#45;&gt;Node31 -->
<g id="edge40" class="edge">
<title>Node28&#45;&gt;Node31</title>
<path fill="none" stroke="midnightblue" d="M994.35,-112.08C992.63,-104.93 990.15,-94.64 988,-85.69"/>
<polygon fill="midnightblue" stroke="midnightblue" points="991.35,-84.65 985.61,-75.75 984.54,-86.29 991.35,-84.65"/>
</g>
<!-- Node32&#45;&gt;Node33 -->
<g id="edge45" class="edge">
<title>Node32&#45;&gt;Node33</title>
<path fill="none" stroke="midnightblue" d="M1111.65,-168.08C1113.37,-160.93 1115.85,-150.64 1118,-141.69"/>
<polygon fill="midnightblue" stroke="midnightblue" points="1121.46,-142.29 1120.39,-131.75 1114.65,-140.65 1121.46,-142.29"/>
</g>
</g>
</svg>
        <g id="navigator" transform="translate(0 0)" fill="#404254">
                <rect fill="#f2f5e9" fill-opacity="0.5" stroke="#606060" stroke-width=".5" x="0" y="0" width="60" height="60"/>
                <use id="zoomplus" xlink:href="#zoomPlus" x="17" y="9" onmousedown="handleZoom(evt,'in')"/>
                <use id="zoomminus" xlink:href="#zoomMin" x="42" y="9" onmousedown="handleZoom(evt,'out')"/>
                <use id="reset" xlink:href="#resetDef" x="30" y="36" onmousedown="handleReset()"/>
                <g id="arrowUp" xlink:href="#dirArrow" transform="translate(30 24)" onmousedown="handlePan(0,-1)">
                  <use xlink:href="#rim" fill="#404040">
                        <set attributeName="fill" to="#808080" begin="arrowUp.mouseover" end="arrowUp.mouseout"/>
                  </use>
                  <path fill="none" stroke="white" stroke-width="1.5" d="M0,-3.0v7 M-2.5,-0.5L0,-3.0L2.5,-0.5"/>
                </g>
                <g id="arrowRight" xlink:href="#dirArrow" transform="rotate(90) translate(36 -43)" onmousedown="handlePan(1,0)">
                  <use xlink:href="#rim" fill="#404040">
                        <set attributeName="fill" to="#808080" begin="arrowRight.mouseover" end="arrowRight.mouseout"/>
                  </use>
                  <path fill="none" stroke="white" stroke-width="1.5" d="M0,-3.0v7 M-2.5,-0.5L0,-3.0L2.5,-0.5"/>
                </g>
                <g id="arrowDown" xlink:href="#dirArrow" transform="rotate(180) translate(-30 -48)" onmousedown="handlePan(0,1)">
                  <use xlink:href="#rim" fill="#404040">
                        <set attributeName="fill" to="#808080" begin="arrowDown.mouseover" end="arrowDown.mouseout"/>
                  </use>
                  <path fill="none" stroke="white" stroke-width="1.5" d="M0,-3.0v7 M-2.5,-0.5L0,-3.0L2.5,-0.5"/>
                </g>
                <g id="arrowLeft" xlink:href="#dirArrow" transform="rotate(270) translate(-36 17)" onmousedown="handlePan(-1,0)">
                  <use xlink:href="#rim" fill="#404040">
                        <set attributeName="fill" to="#808080" begin="arrowLeft.mouseover" end="arrowLeft.mouseout"/>
                  </use>
                  <path fill="none" stroke="white" stroke-width="1.5" d="M0,-3.0v7 M-2.5,-0.5L0,-3.0L2.5,-0.5"/>
                </g>
        </g>
        <svg viewBox="0 0 15 15" width="100%" height="30px" preserveAspectRatio="xMaxYMin meet">
         <g id="arrow_out" transform="scale(0.3 0.3)">
          <a xlink:href="MatrixElements_8hpp__incl_org.svg" target="_base">
           <rect id="button" ry="5" rx="5" y="6" x="6" height="38" width="38"
                fill="#f2f5e9" fill-opacity="0.5" stroke="#606060" stroke-width="1.0"/>
           <path id="arrow"
             d="M 11.500037,31.436501 C 11.940474,20.09759 22.043105,11.32322 32.158766,21.979434 L 37.068811,17.246167 C 37.068811,17.246167 37.088388,32 37.088388,32 L 22.160133,31.978069 C 22.160133,31.978069 26.997745,27.140456 26.997745,27.140456 C 18.528582,18.264221 13.291696,25.230495 11.500037,31.436501 z"
             style="fill:#404040;"/>
          </a>
         </g>
        </svg>
</svg>
