<?xml version="1.0" encoding="UTF-8" standalone="no"?>
<!DOCTYPE svg PUBLIC "-//W3C//DTD SVG 1.1//EN"
 "http://www.w3.org/Graphics/SVG/1.1/DTD/svg11.dtd">
<!-- Generated by graphviz version 2.43.0 (0)
 -->
<!-- Title: /__w/pairinteraction/pairinteraction/pairinteraction/MatrixElementCache.cpp Pages: 1 -->
<svg width="2062pt" height="397pt"
 viewBox="0.00 0.00 2061.50 397.00" xmlns="http://www.w3.org/2000/svg" xmlns:xlink="http://www.w3.org/1999/xlink">
<g id="graph0" class="graph" transform="scale(1 1) rotate(0) translate(4 393)">
<title>/__w/pairinteraction/pairinteraction/pairinteraction/MatrixElementCache.cpp</title>
<!-- Node1 -->
<g id="node1" class="node">
<title>Node1</title>
<g id="a_node1"><a xlink:title=" ">
<polygon fill="#bfbfbf" stroke="black" points="1407.5,-347.5 1407.5,-388.5 1572.5,-388.5 1572.5,-347.5 1407.5,-347.5"/>
<text text-anchor="start" x="1415.5" y="-376.5" font-family="Helvetica,sans-Serif" font-size="10.00">/__w/pairinteraction</text>
<text text-anchor="start" x="1415.5" y="-365.5" font-family="Helvetica,sans-Serif" font-size="10.00">/pairinteraction/pairinteraction</text>
<text text-anchor="middle" x="1490" y="-354.5" font-family="Helvetica,sans-Serif" font-size="10.00">/MatrixElementCache.cpp</text>
</a>
</g>
</g>
<!-- Node2 -->
<g id="node2" class="node">
<title>Node2</title>
<g id="a_node2"><a xlink:href="MatrixElementCache_8hpp.html" target="_top" xlink:title=" ">
<polygon fill="none" stroke="black" points="1002,-291.5 1002,-310.5 1142,-310.5 1142,-291.5 1002,-291.5"/>
<text text-anchor="middle" x="1072" y="-298.5" font-family="Helvetica,sans-Serif" font-size="10.00">MatrixElementCache.hpp</text>
</a>
</g>
</g>
<!-- Node1&#45;&gt;Node2 -->
<g id="edge1" class="edge">
<title>Node1&#45;&gt;Node2</title>
<path fill="none" stroke="midnightblue" d="M1407.42,-354.16C1328,-341.81 1209.57,-323.39 1136.75,-312.07"/>
<polygon fill="midnightblue" stroke="midnightblue" points="1137.2,-308.6 1126.79,-310.52 1136.13,-315.51 1137.2,-308.6"/>
</g>
<!-- Node6 -->
<g id="node6" class="node">
<title>Node6</title>
<g id="a_node6"><a xlink:title=" ">
<polygon fill="none" stroke="#bfbfbf" points="283,-56.5 283,-75.5 339,-75.5 339,-56.5 283,-56.5"/>
<text text-anchor="middle" x="311" y="-63.5" font-family="Helvetica,sans-Serif" font-size="10.00">sstream</text>
</a>
</g>
</g>
<!-- Node1&#45;&gt;Node6 -->
<g id="edge84" class="edge">
<title>Node1&#45;&gt;Node6</title>
<path fill="none" stroke="midnightblue" d="M1407.11,-366.88C1189.57,-365.91 606.27,-358.77 420,-311 350.2,-293.1 274,-312.56 274,-240.5 274,-240.5 274,-240.5 274,-177 274,-142.89 290.18,-105.79 301.14,-84.57"/>
<polygon fill="midnightblue" stroke="midnightblue" points="304.36,-85.98 306.01,-75.51 298.19,-82.66 304.36,-85.98"/>
</g>
<!-- Node7 -->
<g id="node7" class="node">
<title>Node7</title>
<g id="a_node7"><a xlink:title=" ">
<polygon fill="none" stroke="#bfbfbf" points="666,-56.5 666,-75.5 710,-75.5 710,-56.5 666,-56.5"/>
<text text-anchor="middle" x="688" y="-63.5" font-family="Helvetica,sans-Serif" font-size="10.00">string</text>
</a>
</g>
</g>
<!-- Node1&#45;&gt;Node7 -->
<g id="edge86" class="edge">
<title>Node1&#45;&gt;Node7</title>
<path fill="none" stroke="midnightblue" d="M1407.23,-363.62C1183.66,-353.64 580.45,-320.81 522,-255 512.85,-244.7 515.35,-236.07 522,-224 536.46,-197.76 556.09,-207.31 579,-188 618.08,-155.05 656.33,-108.29 675.43,-83.66"/>
<polygon fill="midnightblue" stroke="midnightblue" points="678.26,-85.72 681.56,-75.65 672.7,-81.46 678.26,-85.72"/>
</g>
<!-- Node10 -->
<g id="node10" class="node">
<title>Node10</title>
<g id="a_node10"><a xlink:href="utils_8hpp.html" target="_top" xlink:title=" ">
<polygon fill="none" stroke="black" points="435.5,-56.5 435.5,-75.5 494.5,-75.5 494.5,-56.5 435.5,-56.5"/>
<text text-anchor="middle" x="465" y="-63.5" font-family="Helvetica,sans-Serif" font-size="10.00">utils.hpp</text>
</a>
</g>
</g>
<!-- Node1&#45;&gt;Node10 -->
<g id="edge77" class="edge">
<title>Node1&#45;&gt;Node10</title>
<path fill="none" stroke="midnightblue" d="M1407.25,-365.02C1171.25,-359.02 509.5,-339.73 473,-311 402.37,-255.41 411.54,-198.2 437,-112 439.99,-101.87 445.93,-91.78 451.57,-83.72"/>
<polygon fill="midnightblue" stroke="midnightblue" points="454.46,-85.71 457.64,-75.61 448.85,-81.52 454.46,-85.71"/>
</g>
<!-- Node19 -->
<g id="node19" class="node">
<title>Node19</title>
<g id="a_node19"><a xlink:title=" ">
<polygon fill="none" stroke="#bfbfbf" points="357,-56.5 357,-75.5 417,-75.5 417,-56.5 357,-56.5"/>
<text text-anchor="middle" x="387" y="-63.5" font-family="Helvetica,sans-Serif" font-size="10.00">iostream</text>
</a>
</g>
</g>
<!-- Node1&#45;&gt;Node19 -->
<g id="edge81" class="edge">
<title>Node1&#45;&gt;Node19</title>
<path fill="none" stroke="midnightblue" d="M1407.27,-367.06C1174.88,-366.62 527.84,-360.86 447,-311 370.35,-263.72 378.31,-134.01 384.26,-85.57"/>
<polygon fill="midnightblue" stroke="midnightblue" points="387.74,-85.95 385.61,-75.57 380.8,-85.02 387.74,-85.95"/>
</g>
<!-- Node23 -->
<g id="node23" class="node">
<title>Node23</title>
<g id="a_node23"><a xlink:title=" ">
<polygon fill="none" stroke="#bfbfbf" points="1444,-56.5 1444,-75.5 1502,-75.5 1502,-56.5 1444,-56.5"/>
<text text-anchor="middle" x="1473" y="-63.5" font-family="Helvetica,sans-Serif" font-size="10.00">memory</text>
</a>
</g>
</g>
<!-- Node1&#45;&gt;Node23 -->
<g id="edge83" class="edge">
<title>Node1&#45;&gt;Node23</title>
<path fill="none" stroke="midnightblue" d="M1512.24,-347.49C1531.01,-331.46 1558.91,-308.6 1585,-291 1656.47,-242.78 1766.51,-248.25 1735,-168 1701.66,-83.11 1577.13,-68.35 1512.49,-66.56"/>
<polygon fill="midnightblue" stroke="midnightblue" points="1512.34,-63.06 1502.28,-66.37 1512.21,-70.06 1512.34,-63.06"/>
</g>
<!-- Node29 -->
<g id="node29" class="node">
<title>Node29</title>
<g id="a_node29"><a xlink:href="QuantumDefect_8hpp.html" target="_top" xlink:title=" ">
<polygon fill="none" stroke="black" points="454.5,-168.5 454.5,-187.5 569.5,-187.5 569.5,-168.5 454.5,-168.5"/>
<text text-anchor="middle" x="512" y="-175.5" font-family="Helvetica,sans-Serif" font-size="10.00">QuantumDefect.hpp</text>
</a>
</g>
</g>
<!-- Node1&#45;&gt;Node29 -->
<g id="edge69" class="edge">
<title>Node1&#45;&gt;Node29</title>
<path fill="none" stroke="midnightblue" d="M1407.2,-365.44C1172.77,-360.61 519.41,-344.21 488,-311 458.37,-279.66 484.16,-224.6 500.7,-196.53"/>
<polygon fill="midnightblue" stroke="midnightblue" points="503.8,-198.16 506.06,-187.81 497.84,-194.49 503.8,-198.16"/>
</g>
<!-- Node30 -->
<g id="node30" class="node">
<title>Node30</title>
<g id="a_node30"><a xlink:href="SQLite_8hpp.html" target="_top" xlink:title=" ">
<polygon fill="none" stroke="black" points="176.5,-112.5 176.5,-131.5 245.5,-131.5 245.5,-112.5 176.5,-112.5"/>
<text text-anchor="middle" x="211" y="-119.5" font-family="Helvetica,sans-Serif" font-size="10.00">SQLite.hpp</text>
</a>
</g>
</g>
<!-- Node1&#45;&gt;Node30 -->
<g id="edge70" class="edge">
<title>Node1&#45;&gt;Node30</title>
<path fill="none" stroke="midnightblue" d="M1407.49,-365.91C1138.95,-362.03 304.57,-347.09 260,-311 208.45,-269.26 207.18,-180.71 209.37,-141.89"/>
<polygon fill="midnightblue" stroke="midnightblue" points="212.89,-141.78 210.1,-131.55 205.9,-141.28 212.89,-141.78"/>
</g>
<!-- Node37 -->
<g id="node37" class="node">
<title>Node37</title>
<g id="a_node37"><a xlink:title=" ">
<polygon fill="none" stroke="#bfbfbf" points="1390,-168.5 1390,-187.5 1434,-187.5 1434,-168.5 1390,-168.5"/>
<text text-anchor="middle" x="1412" y="-175.5" font-family="Helvetica,sans-Serif" font-size="10.00">limits</text>
</a>
</g>
</g>
<!-- Node1&#45;&gt;Node37 -->
<g id="edge82" class="edge">
<title>Node1&#45;&gt;Node37</title>
<path fill="none" stroke="midnightblue" d="M1481.8,-347.24C1466.63,-310.67 1434.39,-232.95 1419.64,-197.42"/>
<polygon fill="midnightblue" stroke="midnightblue" points="1422.73,-195.74 1415.67,-187.84 1416.27,-198.42 1422.73,-195.74"/>
</g>
<!-- Node43 -->
<g id="node43" class="node">
<title>Node43</title>
<g id="a_node43"><a xlink:href="Constants_8hpp.html" target="_top" xlink:title=" ">
<polygon fill="none" stroke="black" points="1594,-291.5 1594,-310.5 1680,-310.5 1680,-291.5 1594,-291.5"/>
<text text-anchor="middle" x="1637" y="-298.5" font-family="Helvetica,sans-Serif" font-size="10.00">Constants.hpp</text>
</a>
</g>
</g>
<!-- Node1&#45;&gt;Node43 -->
<g id="edge68" class="edge">
<title>Node1&#45;&gt;Node43</title>
<path fill="none" stroke="midnightblue" d="M1534.1,-347.5C1558.05,-336.91 1586.98,-324.12 1608.06,-314.8"/>
<polygon fill="midnightblue" stroke="midnightblue" points="1609.7,-317.9 1617.43,-310.65 1606.87,-311.5 1609.7,-317.9"/>
</g>
<!-- Node44 -->
<g id="node44" class="node">
<title>Node44</title>
<g id="a_node44"><a xlink:href="filesystem_8hpp.html" target="_top" xlink:title=" ">
<polygon fill="none" stroke="black" points="1550.5,-230 1550.5,-249 1639.5,-249 1639.5,-230 1550.5,-230"/>
<text text-anchor="middle" x="1595" y="-237" font-family="Helvetica,sans-Serif" font-size="10.00">filesystem.hpp</text>
</a>
</g>
</g>
<!-- Node1&#45;&gt;Node44 -->
<g id="edge71" class="edge">
<title>Node1&#45;&gt;Node44</title>
<path fill="none" stroke="midnightblue" d="M1505.94,-347.22C1518.4,-331.83 1536.19,-309.97 1552,-291 1561.58,-279.51 1572.51,-266.67 1580.96,-256.82"/>
<polygon fill="midnightblue" stroke="midnightblue" points="1583.78,-258.9 1587.64,-249.03 1578.47,-254.34 1583.78,-258.9"/>
</g>
<!-- Node47 -->
<g id="node47" class="node">
<title>Node47</title>
<g id="a_node47"><a xlink:title=" ">
<polygon fill="none" stroke="#bfbfbf" points="1698,-291.5 1698,-310.5 1772,-310.5 1772,-291.5 1698,-291.5"/>
<text text-anchor="middle" x="1735" y="-298.5" font-family="Helvetica,sans-Serif" font-size="10.00">version.hpp</text>
</a>
</g>
</g>
<!-- Node1&#45;&gt;Node47 -->
<g id="edge78" class="edge">
<title>Node1&#45;&gt;Node47</title>
<path fill="none" stroke="midnightblue" d="M1563.51,-347.5C1605.71,-336.3 1657.21,-322.64 1692.69,-313.22"/>
<polygon fill="midnightblue" stroke="midnightblue" points="1693.94,-316.51 1702.71,-310.57 1692.15,-309.75 1693.94,-316.51"/>
</g>
<!-- Node48 -->
<g id="node48" class="node">
<title>Node48</title>
<g id="a_node48"><a xlink:title=" ">
<polygon fill="none" stroke="#bfbfbf" points="1790.5,-291.5 1790.5,-310.5 1903.5,-310.5 1903.5,-291.5 1790.5,-291.5"/>
<text text-anchor="middle" x="1847" y="-298.5" font-family="Helvetica,sans-Serif" font-size="10.00">boost/tokenizer.hpp</text>
</a>
</g>
</g>
<!-- Node1&#45;&gt;Node48 -->
<g id="edge79" class="edge">
<title>Node1&#45;&gt;Node48</title>
<path fill="none" stroke="midnightblue" d="M1572.8,-351.92C1639.45,-339.79 1731.37,-323.05 1790,-312.38"/>
<polygon fill="midnightblue" stroke="midnightblue" points="1790.98,-315.76 1800.19,-310.52 1789.73,-308.87 1790.98,-315.76"/>
</g>
<!-- Node49 -->
<g id="node49" class="node">
<title>Node49</title>
<g id="a_node49"><a xlink:title=" ">
<polygon fill="none" stroke="#bfbfbf" points="1921.5,-291.5 1921.5,-310.5 1970.5,-310.5 1970.5,-291.5 1921.5,-291.5"/>
<text text-anchor="middle" x="1946" y="-298.5" font-family="Helvetica,sans-Serif" font-size="10.00">cctype</text>
</a>
</g>
</g>
<!-- Node1&#45;&gt;Node49 -->
<g id="edge80" class="edge">
<title>Node1&#45;&gt;Node49</title>
<path fill="none" stroke="midnightblue" d="M1572.82,-359.37C1656.24,-350.92 1788.69,-335.45 1911.28,-311.14"/>
<polygon fill="midnightblue" stroke="midnightblue" points="1912.1,-314.54 1921.22,-309.14 1910.73,-307.68 1912.1,-314.54"/>
</g>
<!-- Node50 -->
<g id="node50" class="node">
<title>Node50</title>
<g id="a_node50"><a xlink:title=" ">
<polygon fill="none" stroke="#bfbfbf" points="1988.5,-291.5 1988.5,-310.5 2053.5,-310.5 2053.5,-291.5 1988.5,-291.5"/>
<text text-anchor="middle" x="2021" y="-298.5" font-family="Helvetica,sans-Serif" font-size="10.00">stdexcept</text>
</a>
</g>
</g>
<!-- Node1&#45;&gt;Node50 -->
<g id="edge85" class="edge">
<title>Node1&#45;&gt;Node50</title>
<path fill="none" stroke="midnightblue" d="M1572.72,-360.15C1668.23,-351.65 1830.2,-335.44 1978.21,-311.16"/>
<polygon fill="midnightblue" stroke="midnightblue" points="1979.09,-314.56 1988.38,-309.47 1977.95,-307.66 1979.09,-314.56"/>
</g>
<!-- Node3 -->
<g id="node3" class="node">
<title>Node3</title>
<g id="a_node3"><a xlink:href="Basisnames_8hpp.html" target="_top" xlink:title=" ">
<polygon fill="none" stroke="black" points="944.5,-168.5 944.5,-187.5 1041.5,-187.5 1041.5,-168.5 944.5,-168.5"/>
<text text-anchor="middle" x="993" y="-175.5" font-family="Helvetica,sans-Serif" font-size="10.00">Basisnames.hpp</text>
</a>
</g>
</g>
<!-- Node2&#45;&gt;Node3 -->
<g id="edge2" class="edge">
<title>Node2&#45;&gt;Node3</title>
<path fill="none" stroke="midnightblue" d="M1123.78,-291.49C1175.05,-280.84 1242.01,-259.55 1213,-224 1193,-199.5 1109.97,-187.98 1051.85,-182.83"/>
<polygon fill="midnightblue" stroke="midnightblue" points="1051.93,-179.32 1041.67,-181.97 1051.34,-186.3 1051.93,-179.32"/>
</g>
<!-- Node2&#45;&gt;Node6 -->
<g id="edge64" class="edge">
<title>Node2&#45;&gt;Node6</title>
<path fill="none" stroke="midnightblue" d="M1001.94,-297.92C852.18,-293.04 510.69,-279.35 464,-255 389.68,-216.23 338.38,-123.97 319.28,-84.93"/>
<polygon fill="midnightblue" stroke="midnightblue" points="322.4,-83.34 314.93,-75.82 316.08,-86.35 322.4,-83.34"/>
</g>
<!-- Node2&#45;&gt;Node7 -->
<g id="edge65" class="edge">
<title>Node2&#45;&gt;Node7</title>
<path fill="none" stroke="midnightblue" d="M1001.71,-294.81C957.44,-289.33 900.14,-278.09 854,-255 844.78,-250.39 720.99,-140.39 715,-132 704.8,-117.72 697.55,-99 693.15,-85.33"/>
<polygon fill="midnightblue" stroke="midnightblue" points="696.46,-84.18 690.22,-75.62 689.75,-86.2 696.46,-84.18"/>
</g>
<!-- Node2&#45;&gt;Node10 -->
<g id="edge59" class="edge">
<title>Node2&#45;&gt;Node10</title>
<path fill="none" stroke="midnightblue" d="M1001.93,-299.72C873.69,-298.31 606.64,-290.99 522,-255 480.56,-237.38 464.53,-229.04 446,-188 430.53,-153.75 445.48,-109.11 456.22,-84.76"/>
<polygon fill="midnightblue" stroke="midnightblue" points="459.41,-86.2 460.46,-75.65 453.06,-83.24 459.41,-86.2"/>
</g>
<!-- Node2&#45;&gt;Node23 -->
<g id="edge63" class="edge">
<title>Node2&#45;&gt;Node23</title>
<path fill="none" stroke="midnightblue" d="M1142.1,-298.65C1229.19,-295.65 1371.41,-286 1413,-255 1467.02,-214.74 1473.45,-125.39 1473.53,-86.13"/>
<polygon fill="midnightblue" stroke="midnightblue" points="1477.02,-85.62 1473.4,-75.67 1470.03,-85.71 1477.02,-85.62"/>
</g>
<!-- Node27 -->
<g id="node27" class="node">
<title>Node27</title>
<g id="a_node27"><a xlink:href="State_8hpp.html" target="_top" xlink:title=" ">
<polygon fill="none" stroke="black" points="1092.5,-112.5 1092.5,-131.5 1155.5,-131.5 1155.5,-112.5 1092.5,-112.5"/>
<text text-anchor="middle" x="1124" y="-119.5" font-family="Helvetica,sans-Serif" font-size="10.00">State.hpp</text>
</a>
</g>
</g>
<!-- Node2&#45;&gt;Node27 -->
<g id="edge29" class="edge">
<title>Node2&#45;&gt;Node27</title>
<path fill="none" stroke="midnightblue" d="M1127.08,-291.5C1167.49,-284 1217.41,-271.67 1230,-255 1263.35,-210.82 1190.26,-160.21 1149.3,-136.53"/>
<polygon fill="midnightblue" stroke="midnightblue" points="1150.8,-133.37 1140.37,-131.51 1147.37,-139.46 1150.8,-133.37"/>
</g>
<!-- Node28 -->
<g id="node28" class="node">
<title>Node28</title>
<g id="a_node28"><a xlink:href="Wavefunction_8hpp.html" target="_top" xlink:title=" ">
<polygon fill="none" stroke="black" points="1298.5,-230 1298.5,-249 1403.5,-249 1403.5,-230 1298.5,-230"/>
<text text-anchor="middle" x="1351" y="-237" font-family="Helvetica,sans-Serif" font-size="10.00">Wavefunction.hpp</text>
</a>
</g>
</g>
<!-- Node2&#45;&gt;Node28 -->
<g id="edge37" class="edge">
<title>Node2&#45;&gt;Node28</title>
<path fill="none" stroke="midnightblue" d="M1112.65,-291.42C1155.34,-282.4 1224.4,-267.77 1284,-255 1289.74,-253.77 1295.76,-252.48 1301.73,-251.19"/>
<polygon fill="midnightblue" stroke="midnightblue" points="1302.64,-254.57 1311.68,-249.04 1301.17,-247.73 1302.64,-254.57"/>
</g>
<!-- Node38 -->
<g id="node38" class="node">
<title>Node38</title>
<g id="a_node38"><a xlink:title=" ">
<polygon fill="none" stroke="#bfbfbf" points="530.5,-224.5 530.5,-254.5 659.5,-254.5 659.5,-224.5 530.5,-224.5"/>
<text text-anchor="start" x="538.5" y="-242.5" font-family="Helvetica,sans-Serif" font-size="10.00">cereal/types/unordered</text>
<text text-anchor="middle" x="595" y="-231.5" font-family="Helvetica,sans-Serif" font-size="10.00">_map.hpp</text>
</a>
</g>
</g>
<!-- Node2&#45;&gt;Node38 -->
<g id="edge60" class="edge">
<title>Node2&#45;&gt;Node38</title>
<path fill="none" stroke="midnightblue" d="M1001.88,-293.93C923.42,-286.75 792.34,-273.56 669.48,-254.99"/>
<polygon fill="midnightblue" stroke="midnightblue" points="669.93,-251.52 659.52,-253.47 668.88,-258.44 669.93,-251.52"/>
</g>
<!-- Node39 -->
<g id="node39" class="node">
<title>Node39</title>
<g id="a_node39"><a xlink:title=" ">
<polygon fill="none" stroke="#bfbfbf" points="677.5,-224.5 677.5,-254.5 806.5,-254.5 806.5,-224.5 677.5,-224.5"/>
<text text-anchor="start" x="685.5" y="-242.5" font-family="Helvetica,sans-Serif" font-size="10.00">cereal/types/unordered</text>
<text text-anchor="middle" x="742" y="-231.5" font-family="Helvetica,sans-Serif" font-size="10.00">_set.hpp</text>
</a>
</g>
</g>
<!-- Node2&#45;&gt;Node39 -->
<g id="edge61" class="edge">
<title>Node2&#45;&gt;Node39</title>
<path fill="none" stroke="midnightblue" d="M1023.87,-291.43C973.34,-282.42 891.57,-267.8 821,-255 819.54,-254.74 818.07,-254.47 816.59,-254.2"/>
<polygon fill="midnightblue" stroke="midnightblue" points="817.13,-250.74 806.67,-252.39 815.88,-257.63 817.13,-250.74"/>
</g>
<!-- Node40 -->
<g id="node40" class="node">
<title>Node40</title>
<g id="a_node40"><a xlink:title=" ">
<polygon fill="none" stroke="#bfbfbf" points="863,-224.5 863,-254.5 1033,-254.5 1033,-224.5 863,-224.5"/>
<text text-anchor="start" x="871" y="-242.5" font-family="Helvetica,sans-Serif" font-size="10.00">wignerSymbols/wignerSymbols</text>
<text text-anchor="middle" x="948" y="-231.5" font-family="Helvetica,sans-Serif" font-size="10.00">&#45;cpp.h</text>
</a>
</g>
</g>
<!-- Node2&#45;&gt;Node40 -->
<g id="edge62" class="edge">
<title>Node2&#45;&gt;Node40</title>
<path fill="none" stroke="midnightblue" d="M1054.23,-291.48C1036.58,-283 1008.93,-269.74 986.27,-258.86"/>
<polygon fill="midnightblue" stroke="midnightblue" points="987.75,-255.69 977.22,-254.52 984.73,-262 987.75,-255.69"/>
</g>
<!-- Node41 -->
<g id="node41" class="node">
<title>Node41</title>
<g id="a_node41"><a xlink:title=" ">
<polygon fill="none" stroke="#bfbfbf" points="1051.5,-230 1051.5,-249 1092.5,-249 1092.5,-230 1051.5,-230"/>
<text text-anchor="middle" x="1072" y="-237" font-family="Helvetica,sans-Serif" font-size="10.00">tuple</text>
</a>
</g>
</g>
<!-- Node2&#45;&gt;Node41 -->
<g id="edge66" class="edge">
<title>Node2&#45;&gt;Node41</title>
<path fill="none" stroke="midnightblue" d="M1072,-291.48C1072,-283.08 1072,-269.98 1072,-259.16"/>
<polygon fill="midnightblue" stroke="midnightblue" points="1075.5,-259.01 1072,-249.01 1068.5,-259.01 1075.5,-259.01"/>
</g>
<!-- Node42 -->
<g id="node42" class="node">
<title>Node42</title>
<g id="a_node42"><a xlink:title=" ">
<polygon fill="none" stroke="#bfbfbf" points="1110.5,-230 1110.5,-249 1203.5,-249 1203.5,-230 1110.5,-230"/>
<text text-anchor="middle" x="1157" y="-237" font-family="Helvetica,sans-Serif" font-size="10.00">unordered_map</text>
</a>
</g>
</g>
<!-- Node2&#45;&gt;Node42 -->
<g id="edge67" class="edge">
<title>Node2&#45;&gt;Node42</title>
<path fill="none" stroke="midnightblue" d="M1084.18,-291.48C1097.81,-281.93 1120.13,-266.31 1136.47,-254.87"/>
<polygon fill="midnightblue" stroke="midnightblue" points="1138.66,-257.61 1144.84,-249.01 1134.64,-251.88 1138.66,-257.61"/>
</g>
<!-- Node4 -->
<g id="node4" class="node">
<title>Node4</title>
<g id="a_node4"><a xlink:href="ConfParser_8hpp.html" target="_top" xlink:title=" ">
<polygon fill="none" stroke="black" points="492.5,-112.5 492.5,-131.5 583.5,-131.5 583.5,-112.5 492.5,-112.5"/>
<text text-anchor="middle" x="538" y="-119.5" font-family="Helvetica,sans-Serif" font-size="10.00">ConfParser.hpp</text>
</a>
</g>
</g>
<!-- Node3&#45;&gt;Node4 -->
<g id="edge3" class="edge">
<title>Node3&#45;&gt;Node4</title>
<path fill="none" stroke="midnightblue" d="M944.31,-171.22C859.1,-161.11 683.49,-140.27 593.63,-129.6"/>
<polygon fill="midnightblue" stroke="midnightblue" points="593.97,-126.12 583.63,-128.42 593.15,-133.07 593.97,-126.12"/>
</g>
<!-- Node3&#45;&gt;Node7 -->
<g id="edge26" class="edge">
<title>Node3&#45;&gt;Node7</title>
<path fill="none" stroke="midnightblue" d="M944.25,-171.99C900.62,-166.26 835.59,-154.58 783,-132 753.65,-119.4 723.91,-97.19 705.72,-82.29"/>
<polygon fill="midnightblue" stroke="midnightblue" points="707.68,-79.37 697.76,-75.63 703.19,-84.73 707.68,-79.37"/>
</g>
<!-- Node8 -->
<g id="node8" class="node">
<title>Node8</title>
<g id="a_node8"><a xlink:href="Iter_8hpp.html" target="_top" xlink:title=" ">
<polygon fill="none" stroke="black" points="792,-112.5 792,-131.5 846,-131.5 846,-112.5 792,-112.5"/>
<text text-anchor="middle" x="819" y="-119.5" font-family="Helvetica,sans-Serif" font-size="10.00">Iter.hpp</text>
</a>
</g>
</g>
<!-- Node3&#45;&gt;Node8 -->
<g id="edge7" class="edge">
<title>Node3&#45;&gt;Node8</title>
<path fill="none" stroke="midnightblue" d="M965.43,-168.44C935.82,-159.25 888.61,-144.6 855.83,-134.43"/>
<polygon fill="midnightblue" stroke="midnightblue" points="856.74,-131.05 846.16,-131.43 854.67,-137.73 856.74,-131.05"/>
</g>
<!-- Node9 -->
<g id="node9" class="node">
<title>Node9</title>
<g id="a_node9"><a xlink:href="StateOld_8hpp.html" target="_top" xlink:title=" ">
<polygon fill="none" stroke="black" points="1174,-112.5 1174,-131.5 1254,-131.5 1254,-112.5 1174,-112.5"/>
<text text-anchor="middle" x="1214" y="-119.5" font-family="Helvetica,sans-Serif" font-size="10.00">StateOld.hpp</text>
</a>
</g>
</g>
<!-- Node3&#45;&gt;Node9 -->
<g id="edge8" class="edge">
<title>Node3&#45;&gt;Node9</title>
<path fill="none" stroke="midnightblue" d="M1028.02,-168.44C1066.25,-159.1 1127.57,-144.12 1169.26,-133.93"/>
<polygon fill="midnightblue" stroke="midnightblue" points="1170.26,-137.29 1179.15,-131.52 1168.6,-130.49 1170.26,-137.29"/>
</g>
<!-- Node22 -->
<g id="node22" class="node">
<title>Node22</title>
<g id="a_node22"><a xlink:title=" ">
<polygon fill="none" stroke="#bfbfbf" points="864.5,-112.5 864.5,-131.5 919.5,-131.5 919.5,-112.5 864.5,-112.5"/>
<text text-anchor="middle" x="892" y="-119.5" font-family="Helvetica,sans-Serif" font-size="10.00">fstream</text>
</a>
</g>
</g>
<!-- Node3&#45;&gt;Node22 -->
<g id="edge23" class="edge">
<title>Node3&#45;&gt;Node22</title>
<path fill="none" stroke="midnightblue" d="M976.77,-168.32C960.65,-159.7 935.7,-146.36 917.04,-136.39"/>
<polygon fill="midnightblue" stroke="midnightblue" points="918.66,-133.28 908.19,-131.65 915.36,-139.46 918.66,-133.28"/>
</g>
<!-- Node3&#45;&gt;Node23 -->
<g id="edge24" class="edge">
<title>Node3&#45;&gt;Node23</title>
<path fill="none" stroke="midnightblue" d="M1041.88,-173.41C1096.81,-168.34 1188.11,-156.78 1263,-132 1281.49,-125.88 1283.81,-118.96 1302,-112 1346.1,-95.12 1398.94,-82.28 1434.09,-74.72"/>
<polygon fill="midnightblue" stroke="midnightblue" points="1434.9,-78.12 1443.96,-72.63 1433.46,-71.27 1434.9,-78.12"/>
</g>
<!-- Node24 -->
<g id="node24" class="node">
<title>Node24</title>
<g id="a_node24"><a xlink:title=" ">
<polygon fill="none" stroke="#bfbfbf" points="938,-112.5 938,-131.5 970,-131.5 970,-112.5 938,-112.5"/>
<text text-anchor="middle" x="954" y="-119.5" font-family="Helvetica,sans-Serif" font-size="10.00">set</text>
</a>
</g>
</g>
<!-- Node3&#45;&gt;Node24 -->
<g id="edge25" class="edge">
<title>Node3&#45;&gt;Node24</title>
<path fill="none" stroke="midnightblue" d="M986.56,-168.08C981.05,-160.46 972.97,-149.26 966.24,-139.94"/>
<polygon fill="midnightblue" stroke="midnightblue" points="969.01,-137.81 960.32,-131.75 963.34,-141.91 969.01,-137.81"/>
</g>
<!-- Node25 -->
<g id="node25" class="node">
<title>Node25</title>
<g id="a_node25"><a xlink:title=" ">
<polygon fill="none" stroke="#bfbfbf" points="988,-112.5 988,-131.5 1074,-131.5 1074,-112.5 988,-112.5"/>
<text text-anchor="middle" x="1031" y="-119.5" font-family="Helvetica,sans-Serif" font-size="10.00">unordered_set</text>
</a>
</g>
</g>
<!-- Node3&#45;&gt;Node25 -->
<g id="edge27" class="edge">
<title>Node3&#45;&gt;Node25</title>
<path fill="none" stroke="midnightblue" d="M999.27,-168.08C1004.64,-160.46 1012.52,-149.26 1019.08,-139.94"/>
<polygon fill="midnightblue" stroke="midnightblue" points="1021.95,-141.94 1024.84,-131.75 1016.22,-137.91 1021.95,-141.94"/>
</g>
<!-- Node26 -->
<g id="node26" class="node">
<title>Node26</title>
<g id="a_node26"><a xlink:title=" ">
<polygon fill="none" stroke="#bfbfbf" points="1310.5,-112.5 1310.5,-131.5 1357.5,-131.5 1357.5,-112.5 1310.5,-112.5"/>
<text text-anchor="middle" x="1334" y="-119.5" font-family="Helvetica,sans-Serif" font-size="10.00">vector</text>
</a>
</g>
</g>
<!-- Node3&#45;&gt;Node26 -->
<g id="edge28" class="edge">
<title>Node3&#45;&gt;Node26</title>
<path fill="none" stroke="midnightblue" d="M1041.76,-171.06C1101.81,-163.44 1206.83,-149.15 1296,-132 1297.46,-131.72 1298.94,-131.42 1300.44,-131.11"/>
<polygon fill="midnightblue" stroke="midnightblue" points="1301.34,-134.5 1310.35,-128.93 1299.83,-127.66 1301.34,-134.5"/>
</g>
<!-- Node5 -->
<g id="node5" class="node">
<title>Node5</title>
<g id="a_node5"><a xlink:title=" ">
<polygon fill="none" stroke="#bfbfbf" points="519,-56.5 519,-75.5 557,-75.5 557,-56.5 519,-56.5"/>
<text text-anchor="middle" x="538" y="-63.5" font-family="Helvetica,sans-Serif" font-size="10.00">map</text>
</a>
</g>
</g>
<!-- Node4&#45;&gt;Node5 -->
<g id="edge4" class="edge">
<title>Node4&#45;&gt;Node5</title>
<path fill="none" stroke="midnightblue" d="M538,-112.08C538,-105.01 538,-94.86 538,-85.99"/>
<polygon fill="midnightblue" stroke="midnightblue" points="541.5,-85.75 538,-75.75 534.5,-85.75 541.5,-85.75"/>
</g>
<!-- Node4&#45;&gt;Node6 -->
<g id="edge5" class="edge">
<title>Node4&#45;&gt;Node6</title>
<path fill="none" stroke="midnightblue" d="M501.56,-112.44C465.32,-103.91 407.86,-90.34 349.1,-76.25"/>
<polygon fill="midnightblue" stroke="midnightblue" points="349.82,-72.83 339.28,-73.9 348.18,-79.63 349.82,-72.83"/>
</g>
<!-- Node4&#45;&gt;Node7 -->
<g id="edge6" class="edge">
<title>Node4&#45;&gt;Node7</title>
<path fill="none" stroke="midnightblue" d="M561.77,-112.44C587.34,-103.24 628.12,-88.56 656.38,-78.38"/>
<polygon fill="midnightblue" stroke="midnightblue" points="657.59,-81.67 665.81,-74.99 655.22,-75.08 657.59,-81.67"/>
</g>
<!-- Node9&#45;&gt;Node7 -->
<g id="edge20" class="edge">
<title>Node9&#45;&gt;Node7</title>
<path fill="none" stroke="midnightblue" d="M1173.93,-113.35C1170.92,-112.86 1167.91,-112.4 1165,-112 998.57,-88.91 797.8,-74.24 720.5,-69.08"/>
<polygon fill="midnightblue" stroke="midnightblue" points="720.64,-65.58 710.43,-68.41 720.18,-72.57 720.64,-65.58"/>
</g>
<!-- Node9&#45;&gt;Node10 -->
<g id="edge9" class="edge">
<title>Node9&#45;&gt;Node10</title>
<path fill="none" stroke="midnightblue" d="M1173.95,-113.22C1170.93,-112.76 1167.92,-112.35 1165,-112 875.49,-77.6 799.23,-112.68 510,-76 508.32,-75.79 506.6,-75.55 504.87,-75.28"/>
<polygon fill="midnightblue" stroke="midnightblue" points="505.36,-71.82 494.92,-73.6 504.19,-78.72 505.36,-71.82"/>
</g>
<!-- Node12 -->
<g id="node12" class="node">
<title>Node12</title>
<g id="a_node12"><a xlink:title=" ">
<polygon fill="none" stroke="#bfbfbf" points="975,-0.5 975,-19.5 1017,-19.5 1017,-0.5 975,-0.5"/>
<text text-anchor="middle" x="996" y="-7.5" font-family="Helvetica,sans-Serif" font-size="10.00">array</text>
</a>
</g>
</g>
<!-- Node9&#45;&gt;Node12 -->
<g id="edge17" class="edge">
<title>Node9&#45;&gt;Node12</title>
<path fill="none" stroke="midnightblue" d="M1252.55,-112.42C1296.37,-102.28 1362.8,-85.57 1370,-76 1375.34,-68.9 1375.9,-62.65 1370,-56 1347.37,-30.49 1113.34,-16.68 1027.42,-12.43"/>
<polygon fill="midnightblue" stroke="midnightblue" points="1027.39,-8.93 1017.23,-11.94 1027.05,-15.92 1027.39,-8.93"/>
</g>
<!-- Node18 -->
<g id="node18" class="node">
<title>Node18</title>
<g id="a_node18"><a xlink:title=" ">
<polygon fill="none" stroke="#bfbfbf" points="1024.5,-56.5 1024.5,-75.5 1071.5,-75.5 1071.5,-56.5 1024.5,-56.5"/>
<text text-anchor="middle" x="1048" y="-63.5" font-family="Helvetica,sans-Serif" font-size="10.00">cmath</text>
</a>
</g>
</g>
<!-- Node9&#45;&gt;Node18 -->
<g id="edge18" class="edge">
<title>Node9&#45;&gt;Node18</title>
<path fill="none" stroke="midnightblue" d="M1187.7,-112.44C1158.91,-103.08 1112.68,-88.04 1081.36,-77.85"/>
<polygon fill="midnightblue" stroke="midnightblue" points="1082.35,-74.49 1071.76,-74.73 1080.19,-81.15 1082.35,-74.49"/>
</g>
<!-- Node9&#45;&gt;Node19 -->
<g id="edge19" class="edge">
<title>Node9&#45;&gt;Node19</title>
<path fill="none" stroke="midnightblue" d="M1173.95,-113.2C1170.93,-112.74 1167.92,-112.34 1165,-112 838.79,-74.25 752.4,-120.21 427,-76 426.9,-75.99 426.8,-75.97 426.7,-75.96"/>
<polygon fill="midnightblue" stroke="midnightblue" points="427.48,-72.54 417.04,-74.34 426.33,-79.45 427.48,-72.54"/>
</g>
<!-- Node20 -->
<g id="node20" class="node">
<title>Node20</title>
<g id="a_node20"><a xlink:title=" ">
<polygon fill="none" stroke="#bfbfbf" points="1089.5,-56.5 1089.5,-75.5 1214.5,-75.5 1214.5,-56.5 1089.5,-56.5"/>
<text text-anchor="middle" x="1152" y="-63.5" font-family="Helvetica,sans-Serif" font-size="10.00">cereal/types/array.hpp</text>
</a>
</g>
</g>
<!-- Node9&#45;&gt;Node20 -->
<g id="edge21" class="edge">
<title>Node9&#45;&gt;Node20</title>
<path fill="none" stroke="midnightblue" d="M1204.04,-112.32C1194.87,-104.34 1181.06,-92.31 1169.97,-82.65"/>
<polygon fill="midnightblue" stroke="midnightblue" points="1171.98,-79.76 1162.14,-75.83 1167.38,-85.04 1171.98,-79.76"/>
</g>
<!-- Node21 -->
<g id="node21" class="node">
<title>Node21</title>
<g id="a_node21"><a xlink:title=" ">
<polygon fill="none" stroke="#bfbfbf" points="1233,-56.5 1233,-75.5 1361,-75.5 1361,-56.5 1233,-56.5"/>
<text text-anchor="middle" x="1297" y="-63.5" font-family="Helvetica,sans-Serif" font-size="10.00">cereal/types/string.hpp</text>
</a>
</g>
</g>
<!-- Node9&#45;&gt;Node21 -->
<g id="edge22" class="edge">
<title>Node9&#45;&gt;Node21</title>
<path fill="none" stroke="midnightblue" d="M1227.34,-112.32C1240.16,-103.98 1259.78,-91.21 1274.94,-81.35"/>
<polygon fill="midnightblue" stroke="midnightblue" points="1277.22,-84.04 1283.7,-75.65 1273.41,-78.17 1277.22,-84.04"/>
</g>
<!-- Node11 -->
<g id="node11" class="node">
<title>Node11</title>
<g id="a_node11"><a xlink:title=" ">
<polygon fill="none" stroke="#bfbfbf" points="587,-0.5 587,-19.5 651,-19.5 651,-0.5 587,-0.5"/>
<text text-anchor="middle" x="619" y="-7.5" font-family="Helvetica,sans-Serif" font-size="10.00">algorithm</text>
</a>
</g>
</g>
<!-- Node10&#45;&gt;Node11 -->
<g id="edge10" class="edge">
<title>Node10&#45;&gt;Node11</title>
<path fill="none" stroke="midnightblue" d="M489.4,-56.44C515.2,-47.4 556.08,-33.06 585.02,-22.92"/>
<polygon fill="midnightblue" stroke="midnightblue" points="586.43,-26.13 594.71,-19.52 584.12,-19.52 586.43,-26.13"/>
</g>
<!-- Node10&#45;&gt;Node12 -->
<g id="edge11" class="edge">
<title>Node10&#45;&gt;Node12</title>
<path fill="none" stroke="midnightblue" d="M494.94,-58.56C499.95,-57.61 505.11,-56.71 510,-56 680.57,-31.12 886.95,-17.36 964.51,-12.77"/>
<polygon fill="midnightblue" stroke="midnightblue" points="964.81,-16.25 974.59,-12.18 964.4,-9.27 964.81,-16.25"/>
</g>
<!-- Node13 -->
<g id="node13" class="node">
<title>Node13</title>
<g id="a_node13"><a xlink:title=" ">
<polygon fill="none" stroke="#bfbfbf" points="352.5,-0.5 352.5,-19.5 411.5,-19.5 411.5,-0.5 352.5,-0.5"/>
<text text-anchor="middle" x="382" y="-7.5" font-family="Helvetica,sans-Serif" font-size="10.00">complex</text>
</a>
</g>
</g>
<!-- Node10&#45;&gt;Node13 -->
<g id="edge12" class="edge">
<title>Node10&#45;&gt;Node13</title>
<path fill="none" stroke="midnightblue" d="M451.66,-56.32C438.84,-47.98 419.22,-35.21 404.06,-25.35"/>
<polygon fill="midnightblue" stroke="midnightblue" points="405.59,-22.17 395.3,-19.65 401.78,-28.04 405.59,-22.17"/>
</g>
<!-- Node14 -->
<g id="node14" class="node">
<title>Node14</title>
<g id="a_node14"><a xlink:title=" ">
<polygon fill="none" stroke="#bfbfbf" points="429.5,-0.5 429.5,-19.5 494.5,-19.5 494.5,-0.5 429.5,-0.5"/>
<text text-anchor="middle" x="462" y="-7.5" font-family="Helvetica,sans-Serif" font-size="10.00">functional</text>
</a>
</g>
</g>
<!-- Node10&#45;&gt;Node14 -->
<g id="edge13" class="edge">
<title>Node10&#45;&gt;Node14</title>
<path fill="none" stroke="midnightblue" d="M464.5,-56.08C464.11,-49.01 463.55,-38.86 463.05,-29.99"/>
<polygon fill="midnightblue" stroke="midnightblue" points="466.54,-29.54 462.49,-19.75 459.55,-29.93 466.54,-29.54"/>
</g>
<!-- Node15 -->
<g id="node15" class="node">
<title>Node15</title>
<g id="a_node15"><a xlink:title=" ">
<polygon fill="none" stroke="#bfbfbf" points="191,-0.5 191,-19.5 245,-19.5 245,-0.5 191,-0.5"/>
<text text-anchor="middle" x="218" y="-7.5" font-family="Helvetica,sans-Serif" font-size="10.00">random</text>
</a>
</g>
</g>
<!-- Node10&#45;&gt;Node15 -->
<g id="edge14" class="edge">
<title>Node10&#45;&gt;Node15</title>
<path fill="none" stroke="midnightblue" d="M435.2,-58.06C432.1,-57.36 428.99,-56.66 426,-56 350.16,-39.27 330.74,-37.18 255,-20 254.9,-19.98 254.8,-19.95 254.7,-19.93"/>
<polygon fill="midnightblue" stroke="midnightblue" points="255.59,-16.55 245.06,-17.68 254,-23.36 255.59,-16.55"/>
</g>
<!-- Node16 -->
<g id="node16" class="node">
<title>Node16</title>
<g id="a_node16"><a xlink:title=" ">
<polygon fill="none" stroke="#bfbfbf" points="264.5,-0.5 264.5,-19.5 333.5,-19.5 333.5,-0.5 264.5,-0.5"/>
<text text-anchor="middle" x="299" y="-7.5" font-family="Helvetica,sans-Serif" font-size="10.00">type_traits</text>
</a>
</g>
</g>
<!-- Node10&#45;&gt;Node16 -->
<g id="edge15" class="edge">
<title>Node10&#45;&gt;Node16</title>
<path fill="none" stroke="midnightblue" d="M438.7,-56.44C410.65,-47.32 366.06,-32.81 334.82,-22.65"/>
<polygon fill="midnightblue" stroke="midnightblue" points="335.77,-19.28 325.18,-19.52 333.61,-25.94 335.77,-19.28"/>
</g>
<!-- Node17 -->
<g id="node17" class="node">
<title>Node17</title>
<g id="a_node17"><a xlink:title=" ">
<polygon fill="none" stroke="#bfbfbf" points="513,-0.5 513,-19.5 569,-19.5 569,-0.5 513,-0.5"/>
<text text-anchor="middle" x="541" y="-7.5" font-family="Helvetica,sans-Serif" font-size="10.00">unistd.h</text>
</a>
</g>
</g>
<!-- Node10&#45;&gt;Node17 -->
<g id="edge16" class="edge">
<title>Node10&#45;&gt;Node17</title>
<path fill="none" stroke="midnightblue" d="M477.21,-56.32C488.78,-48.11 506.38,-35.6 520.16,-25.81"/>
<polygon fill="midnightblue" stroke="midnightblue" points="522.44,-28.48 528.57,-19.83 518.39,-22.77 522.44,-28.48"/>
</g>
<!-- Node27&#45;&gt;Node7 -->
<g id="edge34" class="edge">
<title>Node27&#45;&gt;Node7</title>
<path fill="none" stroke="midnightblue" d="M1092.28,-113.7C1089.15,-113.08 1086.02,-112.5 1083,-112 949.22,-89.76 788.1,-75.15 720.43,-69.56"/>
<polygon fill="midnightblue" stroke="midnightblue" points="720.64,-66.06 710.38,-68.74 720.07,-73.04 720.64,-66.06"/>
</g>
<!-- Node27&#45;&gt;Node10 -->
<g id="edge30" class="edge">
<title>Node27&#45;&gt;Node10</title>
<path fill="none" stroke="midnightblue" d="M1092.3,-113.54C1089.17,-112.95 1086.03,-112.43 1083,-112 830.31,-76.54 763.01,-109.1 510,-76 508.32,-75.78 506.6,-75.53 504.87,-75.27"/>
<polygon fill="midnightblue" stroke="midnightblue" points="505.37,-71.8 494.92,-73.57 504.19,-78.7 505.37,-71.8"/>
</g>
<!-- Node27&#45;&gt;Node12 -->
<g id="edge31" class="edge">
<title>Node27&#45;&gt;Node12</title>
<path fill="none" stroke="midnightblue" d="M1096.26,-112.44C1068.12,-103.24 1027.16,-88.29 1016,-76 1004.48,-63.31 999.59,-44.11 997.52,-29.86"/>
<polygon fill="midnightblue" stroke="midnightblue" points="1000.98,-29.27 996.39,-19.72 994.02,-30.04 1000.98,-29.27"/>
</g>
<!-- Node27&#45;&gt;Node18 -->
<g id="edge32" class="edge">
<title>Node27&#45;&gt;Node18</title>
<path fill="none" stroke="midnightblue" d="M1111.79,-112.32C1100.22,-104.11 1082.62,-91.6 1068.84,-81.81"/>
<polygon fill="midnightblue" stroke="midnightblue" points="1070.61,-78.77 1060.43,-75.83 1066.56,-84.48 1070.61,-78.77"/>
</g>
<!-- Node27&#45;&gt;Node19 -->
<g id="edge33" class="edge">
<title>Node27&#45;&gt;Node19</title>
<path fill="none" stroke="midnightblue" d="M1092.31,-113.51C1089.17,-112.93 1086.03,-112.41 1083,-112 793.68,-72.57 716.22,-116.19 427,-76 426.9,-75.99 426.8,-75.97 426.7,-75.96"/>
<polygon fill="midnightblue" stroke="midnightblue" points="427.49,-72.54 417.04,-74.32 426.32,-79.44 427.49,-72.54"/>
</g>
<!-- Node27&#45;&gt;Node20 -->
<g id="edge35" class="edge">
<title>Node27&#45;&gt;Node20</title>
<path fill="none" stroke="midnightblue" d="M1128.62,-112.08C1132.46,-104.69 1138.02,-93.95 1142.76,-84.81"/>
<polygon fill="midnightblue" stroke="midnightblue" points="1145.97,-86.24 1147.46,-75.75 1139.75,-83.02 1145.97,-86.24"/>
</g>
<!-- Node27&#45;&gt;Node21 -->
<g id="edge36" class="edge">
<title>Node27&#45;&gt;Node21</title>
<path fill="none" stroke="midnightblue" d="M1151.41,-112.44C1180.77,-103.28 1227.52,-88.69 1260.1,-78.52"/>
<polygon fill="midnightblue" stroke="midnightblue" points="1261.21,-81.84 1269.72,-75.52 1259.13,-75.16 1261.21,-81.84"/>
</g>
<!-- Node28&#45;&gt;Node7 -->
<g id="edge57" class="edge">
<title>Node28&#45;&gt;Node7</title>
<path fill="none" stroke="midnightblue" d="M1298.24,-232.56C1194.45,-220.8 970.76,-195.08 936,-188 848.07,-170.08 817.1,-181.13 742,-132 723.27,-119.75 707.68,-99.01 698.15,-84.25"/>
<polygon fill="midnightblue" stroke="midnightblue" points="701.02,-82.24 692.78,-75.57 695.06,-85.92 701.02,-82.24"/>
</g>
<!-- Node28&#45;&gt;Node26 -->
<g id="edge58" class="edge">
<title>Node28&#45;&gt;Node26</title>
<path fill="none" stroke="midnightblue" d="M1318.94,-229.96C1285.6,-220.36 1236.8,-204.01 1226,-188 1221.03,-180.63 1221.07,-175.4 1226,-168 1234.72,-154.92 1272.36,-141.21 1300.77,-132.41"/>
<polygon fill="midnightblue" stroke="midnightblue" points="1301.82,-135.75 1310.38,-129.51 1299.79,-129.05 1301.82,-135.75"/>
</g>
<!-- Node28&#45;&gt;Node29 -->
<g id="edge38" class="edge">
<title>Node28&#45;&gt;Node29</title>
<path fill="none" stroke="midnightblue" d="M1298.3,-232.46C1272.59,-229.64 1241.21,-226.39 1213,-224 981.04,-204.38 705.26,-189 579.97,-182.44"/>
<polygon fill="midnightblue" stroke="midnightblue" points="579.93,-178.94 569.76,-181.91 579.57,-185.93 579.93,-178.94"/>
</g>
<!-- Node34 -->
<g id="node34" class="node">
<title>Node34</title>
<g id="a_node34"><a xlink:href="EigenCompat_8hpp.html" target="_top" xlink:title=" ">
<polygon fill="none" stroke="black" points="1268.5,-168.5 1268.5,-187.5 1371.5,-187.5 1371.5,-168.5 1268.5,-168.5"/>
<text text-anchor="middle" x="1320" y="-175.5" font-family="Helvetica,sans-Serif" font-size="10.00">EigenCompat.hpp</text>
</a>
</g>
</g>
<!-- Node28&#45;&gt;Node34 -->
<g id="edge52" class="edge">
<title>Node28&#45;&gt;Node34</title>
<path fill="none" stroke="midnightblue" d="M1346.56,-229.98C1342.05,-221.32 1334.93,-207.65 1329.19,-196.65"/>
<polygon fill="midnightblue" stroke="midnightblue" points="1332.16,-194.76 1324.43,-187.51 1325.95,-197.99 1332.16,-194.76"/>
</g>
<!-- Node35 -->
<g id="node35" class="node">
<title>Node35</title>
<g id="a_node35"><a xlink:title=" ">
<polygon fill="none" stroke="#bfbfbf" points="1375.5,-112.5 1375.5,-131.5 1444.5,-131.5 1444.5,-112.5 1375.5,-112.5"/>
<text text-anchor="middle" x="1410" y="-119.5" font-family="Helvetica,sans-Serif" font-size="10.00">Eigen/Core</text>
</a>
</g>
</g>
<!-- Node28&#45;&gt;Node35 -->
<g id="edge54" class="edge">
<title>Node28&#45;&gt;Node35</title>
<path fill="none" stroke="midnightblue" d="M1322.29,-229.92C1288.46,-218.31 1239.3,-195.82 1260,-168 1266.52,-159.24 1323.91,-143.76 1365.77,-133.44"/>
<polygon fill="midnightblue" stroke="midnightblue" points="1366.61,-136.83 1375.5,-131.06 1364.95,-130.03 1366.61,-136.83"/>
</g>
<!-- Node36 -->
<g id="node36" class="node">
<title>Node36</title>
<g id="a_node36"><a xlink:title=" ">
<polygon fill="none" stroke="#bfbfbf" points="1490,-168.5 1490,-187.5 1536,-187.5 1536,-168.5 1490,-168.5"/>
<text text-anchor="middle" x="1513" y="-175.5" font-family="Helvetica,sans-Serif" font-size="10.00">cstdio</text>
</a>
</g>
</g>
<!-- Node28&#45;&gt;Node36 -->
<g id="edge55" class="edge">
<title>Node28&#45;&gt;Node36</title>
<path fill="none" stroke="midnightblue" d="M1374.21,-229.98C1402,-219.77 1448.72,-202.61 1480.19,-191.05"/>
<polygon fill="midnightblue" stroke="midnightblue" points="1481.65,-194.24 1489.83,-187.51 1479.24,-187.67 1481.65,-194.24"/>
</g>
<!-- Node28&#45;&gt;Node37 -->
<g id="edge56" class="edge">
<title>Node28&#45;&gt;Node37</title>
<path fill="none" stroke="midnightblue" d="M1359.74,-229.98C1369.16,-220.78 1384.36,-205.96 1395.95,-194.66"/>
<polygon fill="midnightblue" stroke="midnightblue" points="1398.56,-197 1403.28,-187.51 1393.67,-191.99 1398.56,-197"/>
</g>
<!-- Node29&#45;&gt;Node7 -->
<g id="edge51" class="edge">
<title>Node29&#45;&gt;Node7</title>
<path fill="none" stroke="midnightblue" d="M528.39,-168.47C544.94,-159.73 571.11,-145.53 593,-132 619.56,-115.58 649.09,-94.99 668.07,-81.44"/>
<polygon fill="midnightblue" stroke="midnightblue" points="670.16,-84.25 676.24,-75.57 666.07,-78.56 670.16,-84.25"/>
</g>
<!-- Node29&#45;&gt;Node10 -->
<g id="edge50" class="edge">
<title>Node29&#45;&gt;Node10</title>
<path fill="none" stroke="midnightblue" d="M505.68,-168.43C499.44,-159.66 490.01,-145.44 484,-132 477.25,-116.91 472.18,-98.78 468.99,-85.51"/>
<polygon fill="midnightblue" stroke="midnightblue" points="472.38,-84.65 466.75,-75.68 465.56,-86.2 472.38,-84.65"/>
</g>
<!-- Node29&#45;&gt;Node30 -->
<g id="edge39" class="edge">
<title>Node29&#45;&gt;Node30</title>
<path fill="none" stroke="midnightblue" d="M464.31,-168.44C407.03,-158.17 311.71,-141.07 255.77,-131.03"/>
<polygon fill="midnightblue" stroke="midnightblue" points="256.26,-127.56 245.8,-129.24 255.03,-134.45 256.26,-127.56"/>
</g>
<!-- Node30&#45;&gt;Node6 -->
<g id="edge43" class="edge">
<title>Node30&#45;&gt;Node6</title>
<path fill="none" stroke="midnightblue" d="M227.07,-112.32C242.96,-103.74 267.51,-90.49 285.96,-80.52"/>
<polygon fill="midnightblue" stroke="midnightblue" points="287.84,-83.49 294.97,-75.65 284.51,-77.33 287.84,-83.49"/>
</g>
<!-- Node30&#45;&gt;Node7 -->
<g id="edge44" class="edge">
<title>Node30&#45;&gt;Node7</title>
<path fill="none" stroke="midnightblue" d="M245.69,-117.07C334.6,-107.01 569.66,-80.4 655.78,-70.65"/>
<polygon fill="midnightblue" stroke="midnightblue" points="656.22,-74.12 665.76,-69.52 655.43,-67.16 656.22,-74.12"/>
</g>
<!-- Node30&#45;&gt;Node10 -->
<g id="edge49" class="edge">
<title>Node30&#45;&gt;Node10</title>
<path fill="none" stroke="midnightblue" d="M245.68,-113.97C286.3,-105.68 355.89,-91.33 425.4,-76.1"/>
<polygon fill="midnightblue" stroke="midnightblue" points="426.19,-79.51 435.2,-73.94 424.69,-72.67 426.19,-79.51"/>
</g>
<!-- Node30&#45;&gt;Node15 -->
<g id="edge42" class="edge">
<title>Node30&#45;&gt;Node15</title>
<path fill="none" stroke="midnightblue" d="M211.55,-112.37C212.68,-94.62 215.28,-53.67 216.82,-29.6"/>
<polygon fill="midnightblue" stroke="midnightblue" points="220.31,-29.79 217.45,-19.59 213.33,-29.35 220.31,-29.79"/>
</g>
<!-- Node30&#45;&gt;Node16 -->
<g id="edge46" class="edge">
<title>Node30&#45;&gt;Node16</title>
<path fill="none" stroke="midnightblue" d="M217.91,-112.37C232.49,-94.14 266.66,-51.43 285.66,-27.68"/>
<polygon fill="midnightblue" stroke="midnightblue" points="288.61,-29.59 292.13,-19.59 283.15,-25.21 288.61,-29.59"/>
</g>
<!-- Node30&#45;&gt;Node19 -->
<g id="edge40" class="edge">
<title>Node30&#45;&gt;Node19</title>
<path fill="none" stroke="midnightblue" d="M238.89,-112.44C268.75,-103.28 316.31,-88.69 349.46,-78.52"/>
<polygon fill="midnightblue" stroke="midnightblue" points="350.71,-81.8 359.24,-75.52 348.66,-75.1 350.71,-81.8"/>
</g>
<!-- Node30&#45;&gt;Node23 -->
<g id="edge41" class="edge">
<title>Node30&#45;&gt;Node23</title>
<path fill="none" stroke="midnightblue" d="M245.66,-119.88C413.5,-114.43 1142.91,-90.32 1370,-76 1391.01,-74.67 1414.39,-72.68 1433.55,-70.9"/>
<polygon fill="midnightblue" stroke="midnightblue" points="1434.1,-74.36 1443.73,-69.94 1433.44,-67.39 1434.1,-74.36"/>
</g>
<!-- Node31 -->
<g id="node31" class="node">
<title>Node31</title>
<g id="a_node31"><a xlink:title=" ">
<polygon fill="none" stroke="#bfbfbf" points="0,-56.5 0,-75.5 48,-75.5 48,-56.5 0,-56.5"/>
<text text-anchor="middle" x="24" y="-63.5" font-family="Helvetica,sans-Serif" font-size="10.00">thread</text>
</a>
</g>
</g>
<!-- Node30&#45;&gt;Node31 -->
<g id="edge45" class="edge">
<title>Node30&#45;&gt;Node31</title>
<path fill="none" stroke="midnightblue" d="M181.37,-112.44C147.81,-102.75 93.23,-86.99 57.98,-76.81"/>
<polygon fill="midnightblue" stroke="midnightblue" points="58.72,-73.38 48.14,-73.97 56.78,-80.11 58.72,-73.38"/>
</g>
<!-- Node32 -->
<g id="node32" class="node">
<title>Node32</title>
<g id="a_node32"><a xlink:title=" ">
<polygon fill="none" stroke="#bfbfbf" points="66.5,-56.5 66.5,-75.5 125.5,-75.5 125.5,-56.5 66.5,-56.5"/>
<text text-anchor="middle" x="96" y="-63.5" font-family="Helvetica,sans-Serif" font-size="10.00">sqlite3.h</text>
</a>
</g>
</g>
<!-- Node30&#45;&gt;Node32 -->
<g id="edge47" class="edge">
<title>Node30&#45;&gt;Node32</title>
<path fill="none" stroke="midnightblue" d="M192.78,-112.44C174.1,-103.68 144.84,-89.94 123.38,-79.86"/>
<polygon fill="midnightblue" stroke="midnightblue" points="124.68,-76.6 114.14,-75.52 121.7,-82.93 124.68,-76.6"/>
</g>
<!-- Node33 -->
<g id="node33" class="node">
<title>Node33</title>
<g id="a_node33"><a xlink:title=" ">
<polygon fill="none" stroke="#bfbfbf" points="143.5,-56.5 143.5,-75.5 188.5,-75.5 188.5,-56.5 143.5,-56.5"/>
<text text-anchor="middle" x="166" y="-63.5" font-family="Helvetica,sans-Serif" font-size="10.00">utility</text>
</a>
</g>
</g>
<!-- Node30&#45;&gt;Node33 -->
<g id="edge48" class="edge">
<title>Node30&#45;&gt;Node33</title>
<path fill="none" stroke="midnightblue" d="M203.57,-112.08C197.15,-104.38 187.69,-93.03 179.88,-83.65"/>
<polygon fill="midnightblue" stroke="midnightblue" points="182.38,-81.19 173.29,-75.75 177.01,-85.67 182.38,-81.19"/>
</g>
<!-- Node34&#45;&gt;Node35 -->
<g id="edge53" class="edge">
<title>Node34&#45;&gt;Node35</title>
<path fill="none" stroke="midnightblue" d="M1334.46,-168.32C1348.5,-159.9 1370.05,-146.97 1386.54,-137.07"/>
<polygon fill="midnightblue" stroke="midnightblue" points="1388.8,-139.8 1395.58,-131.65 1385.2,-133.8 1388.8,-139.8"/>
</g>
<!-- Node44&#45;&gt;Node21 -->
<g id="edge72" class="edge">
<title>Node44&#45;&gt;Node21</title>
<path fill="none" stroke="midnightblue" d="M1590.4,-229.85C1582.53,-215.65 1565.37,-187.08 1545,-168 1491.18,-117.58 1408.84,-90.87 1353.99,-77.84"/>
<polygon fill="midnightblue" stroke="midnightblue" points="1354.61,-74.39 1344.08,-75.56 1353.04,-81.21 1354.61,-74.39"/>
</g>
<!-- Node44&#45;&gt;Node23 -->
<g id="edge73" class="edge">
<title>Node44&#45;&gt;Node23</title>
<path fill="none" stroke="midnightblue" d="M1639.89,-230.89C1684.02,-221.3 1741.68,-201.84 1719,-168 1672.53,-98.69 1569.05,-76.9 1512.22,-70.08"/>
<polygon fill="midnightblue" stroke="midnightblue" points="1512.51,-66.59 1502.18,-68.98 1511.74,-73.55 1512.51,-66.59"/>
</g>
<!-- Node44&#45;&gt;Node36 -->
<g id="edge74" class="edge">
<title>Node44&#45;&gt;Node36</title>
<path fill="none" stroke="midnightblue" d="M1583.25,-229.98C1570.22,-220.52 1548.96,-205.1 1533.24,-193.69"/>
<polygon fill="midnightblue" stroke="midnightblue" points="1534.88,-190.55 1524.73,-187.51 1530.77,-196.21 1534.88,-190.55"/>
</g>
<!-- Node45 -->
<g id="node45" class="node">
<title>Node45</title>
<g id="a_node45"><a xlink:title=" ">
<polygon fill="none" stroke="#bfbfbf" points="1592.5,-168.5 1592.5,-187.5 1641.5,-187.5 1641.5,-168.5 1592.5,-168.5"/>
<text text-anchor="middle" x="1617" y="-175.5" font-family="Helvetica,sans-Serif" font-size="10.00">cstdlib</text>
</a>
</g>
</g>
<!-- Node44&#45;&gt;Node45 -->
<g id="edge75" class="edge">
<title>Node44&#45;&gt;Node45</title>
<path fill="none" stroke="midnightblue" d="M1598.15,-229.98C1601.32,-221.4 1606.3,-207.93 1610.35,-196.98"/>
<polygon fill="midnightblue" stroke="midnightblue" points="1613.67,-198.1 1613.85,-187.51 1607.1,-195.67 1613.67,-198.1"/>
</g>
<!-- Node46 -->
<g id="node46" class="node">
<title>Node46</title>
<g id="a_node46"><a xlink:title=" ">
<polygon fill="none" stroke="#bfbfbf" points="1660,-168.5 1660,-187.5 1710,-187.5 1710,-168.5 1660,-168.5"/>
<text text-anchor="middle" x="1685" y="-175.5" font-family="Helvetica,sans-Serif" font-size="10.00">cstring</text>
</a>
</g>
</g>
<!-- Node44&#45;&gt;Node46 -->
<g id="edge76" class="edge">
<title>Node44&#45;&gt;Node46</title>
<path fill="none" stroke="midnightblue" d="M1607.89,-229.98C1622.46,-220.34 1646.4,-204.52 1663.75,-193.05"/>
<polygon fill="midnightblue" stroke="midnightblue" points="1665.72,-195.94 1672.13,-187.51 1661.86,-190.1 1665.72,-195.94"/>
</g>
</g>
</svg>
