<?xml version="1.0" encoding="UTF-8" standalone="no"?>
<!DOCTYPE svg PUBLIC "-//W3C//DTD SVG 1.1//EN"
 "http://www.w3.org/Graphics/SVG/1.1/DTD/svg11.dtd">
<!-- Generated by graphviz version 2.43.0 (0)
 -->
<!-- Title: whittaker_functions::WhittakerW Pages: 1 -->
<svg width="423pt" height="39pt"
 viewBox="0.00 0.00 423.00 39.00" xmlns="http://www.w3.org/2000/svg" xmlns:xlink="http://www.w3.org/1999/xlink">
<g id="graph0" class="graph" transform="scale(1 1) rotate(0) translate(4 35)">
<title>whittaker_functions::WhittakerW</title>
<!-- Node1 -->
<g id="node1" class="node">
<title>Node1</title>
<g id="a_node1"><a xlink:title="Compute the Whittaker function.">
<polygon fill="#bfbfbf" stroke="black" points="302,-0.5 302,-30.5 415,-30.5 415,-0.5 302,-0.5"/>
<text text-anchor="start" x="310" y="-18.5" font-family="Helvetica,sans-Serif" font-size="10.00">whittaker_functions</text>
<text text-anchor="middle" x="358.5" y="-7.5" font-family="Helvetica,sans-Serif" font-size="10.00">::WhittakerW</text>
</a>
</g>
</g>
<!-- Node2 -->
<g id="node2" class="node">
<title>Node2</title>
<g id="a_node2"><a xlink:href="namespacewhittaker__functions.html#ab69b6f45a0c575b401bdaf26a250f084" target="_top" xlink:title="Radial wavefunctions from Whittaker&#39;s function.">
<polygon fill="none" stroke="black" points="150,-0.5 150,-30.5 266,-30.5 266,-0.5 150,-0.5"/>
<text text-anchor="start" x="158" y="-18.5" font-family="Helvetica,sans-Serif" font-size="10.00">whittaker_functions</text>
<text text-anchor="middle" x="208" y="-7.5" font-family="Helvetica,sans-Serif" font-size="10.00">::RadialWFWhittaker</text>
</a>
</g>
</g>
<!-- Node1&#45;&gt;Node2 -->
<g id="edge1" class="edge">
<title>Node1&#45;&gt;Node2</title>
<path fill="none" stroke="midnightblue" d="M291.51,-15.5C283.01,-15.5 274.36,-15.5 266.02,-15.5"/>
<polygon fill="midnightblue" stroke="midnightblue" points="291.78,-19 301.78,-15.5 291.78,-12 291.78,-19"/>
</g>
<!-- Node3 -->
<g id="node3" class="node">
<title>Node3</title>
<g id="a_node3"><a xlink:href="classWhittaker.html#a36e70c22e89ce0a64ee48ed84d376328" target="_top" xlink:title="Evaluate the radial wavefunction.">
<polygon fill="none" stroke="black" points="0,-6 0,-25 114,-25 114,-6 0,-6"/>
<text text-anchor="middle" x="57" y="-13" font-family="Helvetica,sans-Serif" font-size="10.00">Whittaker::integrate</text>
</a>
</g>
</g>
<!-- Node2&#45;&gt;Node3 -->
<g id="edge2" class="edge">
<title>Node2&#45;&gt;Node3</title>
<path fill="none" stroke="midnightblue" d="M139.59,-15.5C131.13,-15.5 122.55,-15.5 114.29,-15.5"/>
<polygon fill="midnightblue" stroke="midnightblue" points="139.82,-19 149.82,-15.5 139.82,-12 139.82,-19"/>
</g>
</g>
</svg>
