<?xml version="1.0" encoding="UTF-8" standalone="no"?>
<!DOCTYPE svg PUBLIC "-//W3C//DTD SVG 1.1//EN"
 "http://www.w3.org/Graphics/SVG/1.1/DTD/svg11.dtd">
<!-- Generated by graphviz version 2.43.0 (0)
 -->
<!-- Title: utils::is_true Pages: 1 -->
<svg width="273pt" height="78pt"
 viewBox="0.00 0.00 273.00 77.50" xmlns="http://www.w3.org/2000/svg" xmlns:xlink="http://www.w3.org/1999/xlink">
<g id="graph0" class="graph" transform="scale(1 1) rotate(0) translate(4 73.5)">
<title>utils::is_true</title>
<!-- Node1 -->
<g id="node1" class="node">
<title>Node1</title>
<g id="a_node1"><a xlink:title=" ">
<polygon fill="#bfbfbf" stroke="black" points="188,-28 188,-47 265,-47 265,-28 188,-28"/>
<text text-anchor="middle" x="226.5" y="-35" font-family="Helvetica,sans-Serif" font-size="10.00">utils::is_true</text>
</a>
</g>
</g>
<!-- Node2 -->
<g id="node2" class="node">
<title>Node2</title>
<g id="a_node2"><a xlink:href="classSystemBase.html#a60bcece7fd704d159793cd14825afb72" target="_top" xlink:title="Methods to manipulate entries of the Hamiltonian ///////////////.">
<polygon fill="none" stroke="black" points="0,-50 0,-69 152,-69 152,-50 0,-50"/>
<text text-anchor="middle" x="76" y="-57" font-family="Helvetica,sans-Serif" font-size="10.00">SystemBase::getStateIndex</text>
</a>
</g>
</g>
<!-- Node1&#45;&gt;Node2 -->
<g id="edge1" class="edge">
<title>Node1&#45;&gt;Node2</title>
<path fill="none" stroke="midnightblue" d="M177.74,-44.58C166.14,-46.29 153.55,-48.16 141.33,-49.97"/>
<polygon fill="midnightblue" stroke="midnightblue" points="178.26,-48.04 187.64,-43.11 177.24,-41.11 178.26,-48.04"/>
</g>
<!-- Node3 -->
<g id="node3" class="node">
<title>Node3</title>
<g id="a_node3"><a xlink:href="classSystemBase.html#a0069159b6bb093ce26df7cb84f3478a5" target="_top" xlink:title=" ">
<polygon fill="none" stroke="black" points="16.5,-0.5 16.5,-30.5 135.5,-30.5 135.5,-0.5 16.5,-0.5"/>
<text text-anchor="start" x="24.5" y="-18.5" font-family="Helvetica,sans-Serif" font-size="10.00">SystemBase&lt; Scalar</text>
<text text-anchor="middle" x="76" y="-7.5" font-family="Helvetica,sans-Serif" font-size="10.00">_, StateTwo &gt;::rotate</text>
</a>
</g>
</g>
<!-- Node1&#45;&gt;Node3 -->
<g id="edge2" class="edge">
<title>Node1&#45;&gt;Node3</title>
<path fill="none" stroke="midnightblue" d="M177.68,-30.42C164.27,-28.43 149.54,-26.25 135.58,-24.18"/>
<polygon fill="midnightblue" stroke="midnightblue" points="177.24,-33.89 187.64,-31.89 178.26,-26.96 177.24,-33.89"/>
</g>
</g>
</svg>
