<?xml version="1.0" encoding="UTF-8" standalone="no"?>
<!DOCTYPE svg PUBLIC "-//W3C//DTD SVG 1.1//EN"
 "http://www.w3.org/Graphics/SVG/1.1/DTD/svg11.dtd">
<!-- Generated by graphviz version 2.43.0 (0)
 -->
<!-- Title: numpy::internal::check_order_and_alignment Pages: 1 -->
<svg width="282pt" height="78pt"
 viewBox="0.00 0.00 282.00 77.50" xmlns="http://www.w3.org/2000/svg" xmlns:xlink="http://www.w3.org/1999/xlink">
<g id="graph0" class="graph" transform="scale(1 1) rotate(0) translate(4 73.5)">
<title>numpy::internal::check_order_and_alignment</title>
<!-- Node1 -->
<g id="node1" class="node">
<title>Node1</title>
<g id="a_node1"><a xlink:title="Check if a Numpy has given storage order and alignment.">
<polygon fill="#bfbfbf" stroke="black" points="146,-22.5 146,-52.5 274,-52.5 274,-22.5 146,-22.5"/>
<text text-anchor="start" x="154" y="-40.5" font-family="Helvetica,sans-Serif" font-size="10.00">numpy::internal::check</text>
<text text-anchor="middle" x="210" y="-29.5" font-family="Helvetica,sans-Serif" font-size="10.00">_order_and_alignment</text>
</a>
</g>
</g>
<!-- Node2 -->
<g id="node2" class="node">
<title>Node2</title>
<g id="a_node2"><a xlink:href="namespacenumpy.html#a96b898cb85c300d8283beadd6a087ecd" target="_top" xlink:title="Convert a Numpy array to an Eigen::SparseMatrix.">
<polygon fill="none" stroke="black" points="21.5,-50 21.5,-69 88.5,-69 88.5,-50 21.5,-50"/>
<text text-anchor="middle" x="55" y="-57" font-family="Helvetica,sans-Serif" font-size="10.00">numpy::as</text>
</a>
</g>
</g>
<!-- Node1&#45;&gt;Node2 -->
<g id="edge1" class="edge">
<title>Node1&#45;&gt;Node2</title>
<path fill="none" stroke="midnightblue" d="M135.7,-48.04C119.27,-50.4 102.63,-52.79 88.84,-54.78"/>
<polygon fill="midnightblue" stroke="midnightblue" points="136.49,-51.46 145.89,-46.58 135.49,-44.53 136.49,-51.46"/>
</g>
<!-- Node3 -->
<g id="node3" class="node">
<title>Node3</title>
<g id="a_node3"><a xlink:href="namespacenumpy_1_1internal.html#a9d12943d90137c9c91dceeb4775f1b14" target="_top" xlink:title="Deconstruct a numpy array for conversion to dense Eigen type.">
<polygon fill="none" stroke="black" points="0,-0.5 0,-30.5 110,-30.5 110,-0.5 0,-0.5"/>
<text text-anchor="start" x="8" y="-18.5" font-family="Helvetica,sans-Serif" font-size="10.00">numpy::internal::as</text>
<text text-anchor="middle" x="55" y="-7.5" font-family="Helvetica,sans-Serif" font-size="10.00">_dense_impl</text>
</a>
</g>
</g>
<!-- Node1&#45;&gt;Node3 -->
<g id="edge2" class="edge">
<title>Node1&#45;&gt;Node3</title>
<path fill="none" stroke="midnightblue" d="M135.81,-26.98C127.17,-25.73 118.49,-24.49 110.18,-23.29"/>
<polygon fill="midnightblue" stroke="midnightblue" points="135.49,-30.47 145.89,-28.42 136.49,-23.54 135.49,-30.47"/>
</g>
</g>
</svg>
