<?xml version="1.0" encoding="UTF-8" standalone="no"?>
<!DOCTYPE svg PUBLIC "-//W3C//DTD SVG 1.1//EN"
 "http://www.w3.org/Graphics/SVG/1.1/DTD/svg11.dtd">
<!-- Generated by graphviz version 2.43.0 (0)
 -->
<!-- Title: utils::randint_engine Pages: 1 -->
<svg width="345pt" height="28pt"
 viewBox="0.00 0.00 345.00 28.00" xmlns="http://www.w3.org/2000/svg" xmlns:xlink="http://www.w3.org/1999/xlink">
<g id="graph0" class="graph" transform="scale(1 1) rotate(0) translate(4 24)">
<title>utils::randint_engine</title>
<!-- Node1 -->
<g id="node1" class="node">
<title>Node1</title>
<g id="a_node1"><a xlink:title="Thread&#45;local static random engine.">
<polygon fill="#bfbfbf" stroke="black" points="221,-0.5 221,-19.5 337,-19.5 337,-0.5 221,-0.5"/>
<text text-anchor="middle" x="279" y="-7.5" font-family="Helvetica,sans-Serif" font-size="10.00">utils::randint_engine</text>
</a>
</g>
</g>
<!-- Node2 -->
<g id="node2" class="node">
<title>Node2</title>
<g id="a_node2"><a xlink:href="namespaceutils.html#ace8f48fccbe0565c3be15777badb4f4a" target="_top" xlink:title="Generate a random integer.">
<polygon fill="none" stroke="black" points="107,-0.5 107,-19.5 185,-19.5 185,-0.5 107,-0.5"/>
<text text-anchor="middle" x="146" y="-7.5" font-family="Helvetica,sans-Serif" font-size="10.00">utils::randint</text>
</a>
</g>
</g>
<!-- Node1&#45;&gt;Node2 -->
<g id="edge1" class="edge">
<title>Node1&#45;&gt;Node2</title>
<path fill="none" stroke="midnightblue" d="M210.91,-10C202.03,-10 193.19,-10 185.04,-10"/>
<polygon fill="midnightblue" stroke="midnightblue" points="210.92,-13.5 220.92,-10 210.92,-6.5 210.92,-13.5"/>
</g>
<!-- Node3 -->
<g id="node3" class="node">
<title>Node3</title>
<g id="a_node3"><a xlink:href="utils__test_8cpp.html#ad885178e8fcfdbca89ed9e1b5cfa5715" target="_top" xlink:title=" ">
<polygon fill="none" stroke="black" points="0,-0.5 0,-19.5 71,-19.5 71,-0.5 0,-0.5"/>
<text text-anchor="middle" x="35.5" y="-7.5" font-family="Helvetica,sans-Serif" font-size="10.00">TEST_CASE</text>
</a>
</g>
</g>
<!-- Node2&#45;&gt;Node3 -->
<g id="edge2" class="edge">
<title>Node2&#45;&gt;Node3</title>
<path fill="none" stroke="midnightblue" d="M96.48,-10C87.94,-10 79.21,-10 71.15,-10"/>
<polygon fill="midnightblue" stroke="midnightblue" points="96.75,-13.5 106.75,-10 96.75,-6.5 96.75,-13.5"/>
</g>
</g>
</svg>
