<?xml version="1.0" encoding="UTF-8" standalone="no"?>
<!DOCTYPE svg PUBLIC "-//W3C//DTD SVG 1.1//EN"
 "http://www.w3.org/Graphics/SVG/1.1/DTD/svg11.dtd">
<!-- Generated by graphviz version 2.43.0 (0)
 -->
<!-- Title: utils::hash_range Pages: 1 -->
<svg width="270pt" height="78pt"
 viewBox="0.00 0.00 270.00 77.50" xmlns="http://www.w3.org/2000/svg" xmlns:xlink="http://www.w3.org/1999/xlink">
<g id="graph0" class="graph" transform="scale(1 1) rotate(0) translate(4 73.5)">
<title>utils::hash_range</title>
<!-- Node1 -->
<g id="node1" class="node">
<title>Node1</title>
<g id="a_node1"><a xlink:title="Combine hashes of values in a range.">
<polygon fill="#bfbfbf" stroke="black" points="162,-22.5 162,-41.5 262,-41.5 262,-22.5 162,-22.5"/>
<text text-anchor="middle" x="212" y="-29.5" font-family="Helvetica,sans-Serif" font-size="10.00">utils::hash_range</text>
</a>
</g>
</g>
<!-- Node2 -->
<g id="node2" class="node">
<title>Node2</title>
<g id="a_node2"><a xlink:href="structutils_1_1hash_3_01std_1_1array_3_01T_00_01N_01_4_01_4.html#ae48dd14c2ab1151d262b10861e765c47" target="_top" xlink:title=" ">
<polygon fill="none" stroke="black" points="0.5,-39 0.5,-69 125.5,-69 125.5,-39 0.5,-39"/>
<text text-anchor="start" x="8.5" y="-57" font-family="Helvetica,sans-Serif" font-size="10.00">utils::hash&lt; std::array</text>
<text text-anchor="middle" x="63" y="-46" font-family="Helvetica,sans-Serif" font-size="10.00">&lt; T, N &gt; &gt;::operator()</text>
</a>
</g>
</g>
<!-- Node1&#45;&gt;Node2 -->
<g id="edge1" class="edge">
<title>Node1&#45;&gt;Node2</title>
<path fill="none" stroke="midnightblue" d="M151.68,-40.88C143.05,-42.17 134.16,-43.5 125.5,-44.8"/>
<polygon fill="midnightblue" stroke="midnightblue" points="152.27,-44.33 161.64,-39.39 151.23,-37.41 152.27,-44.33"/>
</g>
<!-- Node3 -->
<g id="node3" class="node">
<title>Node3</title>
<g id="a_node3"><a xlink:href="classSystemBase.html#a0ce49b8c9a7751ca2d7c5707e0371d85" target="_top" xlink:title=" ">
<polygon fill="none" stroke="black" points="0,-0.5 0,-19.5 126,-19.5 126,-0.5 0,-0.5"/>
<text text-anchor="middle" x="63" y="-7.5" font-family="Helvetica,sans-Serif" font-size="10.00">SystemBase::unitarize</text>
</a>
</g>
</g>
<!-- Node1&#45;&gt;Node3 -->
<g id="edge2" class="edge">
<title>Node1&#45;&gt;Node3</title>
<path fill="none" stroke="midnightblue" d="M151.54,-23.1C143.14,-21.84 134.48,-20.55 126.02,-19.28"/>
<polygon fill="midnightblue" stroke="midnightblue" points="151.23,-26.59 161.64,-24.61 152.27,-19.67 151.23,-26.59"/>
</g>
</g>
</svg>
