<?xml version="1.0" encoding="UTF-8" standalone="no"?>
<!DOCTYPE svg PUBLIC "-//W3C//DTD SVG 1.1//EN"
 "http://www.w3.org/Graphics/SVG/1.1/DTD/svg11.dtd">
<!-- Generated by graphviz version 2.43.0 (0)
 -->
<!-- Title: model_potential::g Pages: 1 -->
<svg width="301pt" height="104pt"
 viewBox="0.00 0.00 301.00 104.00" xmlns="http://www.w3.org/2000/svg" xmlns:xlink="http://www.w3.org/1999/xlink">
<g id="graph0" class="graph" transform="scale(1 1) rotate(0) translate(4 100)">
<title>model_potential::g</title>
<!-- Node1 -->
<g id="node1" class="node">
<title>Node1</title>
<g id="a_node1"><a xlink:title="Helper function for Numerov&#39;s method.s.">
<polygon fill="#bfbfbf" stroke="black" points="185,-38.5 185,-57.5 293,-57.5 293,-38.5 185,-38.5"/>
<text text-anchor="middle" x="239" y="-45.5" font-family="Helvetica,sans-Serif" font-size="10.00">model_potential::g</text>
</a>
</g>
</g>
<!-- Node2 -->
<g id="node2" class="node">
<title>Node2</title>
<g id="a_node2"><a xlink:href="classSystemTwo.html#aa5adef2b4ad7cf4376f49dd527583275" target="_top" xlink:title="Method that allows base class to construct Hamiltonian /////////.">
<polygon fill="none" stroke="black" points="0,-76.5 0,-95.5 149,-95.5 149,-76.5 0,-76.5"/>
<text text-anchor="middle" x="74.5" y="-83.5" font-family="Helvetica,sans-Serif" font-size="10.00">SystemTwo::addInteraction</text>
</a>
</g>
</g>
<!-- Node1&#45;&gt;Node2 -->
<g id="edge1" class="edge">
<title>Node1&#45;&gt;Node2</title>
<path fill="none" stroke="midnightblue" d="M187.13,-59.9C164.29,-65.24 137.7,-71.45 116.21,-76.48"/>
<polygon fill="midnightblue" stroke="midnightblue" points="188.05,-63.27 196.99,-57.59 186.46,-56.46 188.05,-63.27"/>
</g>
<!-- Node3 -->
<g id="node3" class="node">
<title>Node3</title>
<g id="a_node3"><a xlink:href="classNumerov.html#a89dacd4efc7ce15b24083e783d87db32" target="_top" xlink:title="Perform the integration.">
<polygon fill="none" stroke="black" points="18.5,-38.5 18.5,-57.5 130.5,-57.5 130.5,-38.5 18.5,-38.5"/>
<text text-anchor="middle" x="74.5" y="-45.5" font-family="Helvetica,sans-Serif" font-size="10.00">Numerov::integrate</text>
</a>
</g>
</g>
<!-- Node1&#45;&gt;Node3 -->
<g id="edge2" class="edge">
<title>Node1&#45;&gt;Node3</title>
<path fill="none" stroke="midnightblue" d="M174.4,-48C159.9,-48 144.61,-48 130.5,-48"/>
<polygon fill="midnightblue" stroke="midnightblue" points="174.79,-51.5 184.79,-48 174.79,-44.5 174.79,-51.5"/>
</g>
<!-- Node4 -->
<g id="node4" class="node">
<title>Node4</title>
<g id="a_node4"><a xlink:href="wavefunction__test_8cpp.html#aec3db20915a08cbe4f72b02e7b5485df" target="_top" xlink:title=" ">
<polygon fill="none" stroke="black" points="10.5,-0.5 10.5,-19.5 138.5,-19.5 138.5,-0.5 10.5,-0.5"/>
<text text-anchor="middle" x="74.5" y="-7.5" font-family="Helvetica,sans-Serif" font-size="10.00">TEST_CASE_TEMPLATE</text>
</a>
</g>
</g>
<!-- Node1&#45;&gt;Node4 -->
<g id="edge3" class="edge">
<title>Node1&#45;&gt;Node4</title>
<path fill="none" stroke="midnightblue" d="M187.13,-36.1C164.29,-30.76 137.7,-24.55 116.21,-19.52"/>
<polygon fill="midnightblue" stroke="midnightblue" points="186.46,-39.54 196.99,-38.41 188.05,-32.73 186.46,-39.54"/>
</g>
</g>
</svg>
