<?xml version="1.0" encoding="UTF-8" standalone="no"?>
<!DOCTYPE svg PUBLIC "-//W3C//DTD SVG 1.1//EN"
 "http://www.w3.org/Graphics/SVG/1.1/DTD/svg11.dtd">
<!-- Generated by graphviz version 2.43.0 (0)
 -->
<!-- Title: model_potential::V Pages: 1 -->
<svg width="449pt" height="142pt"
 viewBox="0.00 0.00 449.00 142.00" xmlns="http://www.w3.org/2000/svg" xmlns:xlink="http://www.w3.org/1999/xlink">
<g id="graph0" class="graph" transform="scale(1 1) rotate(0) translate(4 138)">
<title>model_potential::V</title>
<!-- Node1 -->
<g id="node1" class="node">
<title>Node1</title>
<g id="a_node1"><a xlink:title="Calculate the model potentials.">
<polygon fill="#bfbfbf" stroke="black" points="332,-38.5 332,-57.5 441,-57.5 441,-38.5 332,-38.5"/>
<text text-anchor="middle" x="386.5" y="-45.5" font-family="Helvetica,sans-Serif" font-size="10.00">model_potential::V</text>
</a>
</g>
</g>
<!-- Node2 -->
<g id="node2" class="node">
<title>Node2</title>
<g id="a_node2"><a xlink:href="namespacemodel__potential.html#a8239dc44dc82bb860c84927579ddda34" target="_top" xlink:title="Helper function for Numerov&#39;s method.s.">
<polygon fill="none" stroke="black" points="186.5,-76.5 186.5,-95.5 294.5,-95.5 294.5,-76.5 186.5,-76.5"/>
<text text-anchor="middle" x="240.5" y="-83.5" font-family="Helvetica,sans-Serif" font-size="10.00">model_potential::g</text>
</a>
</g>
</g>
<!-- Node1&#45;&gt;Node2 -->
<g id="edge1" class="edge">
<title>Node1&#45;&gt;Node2</title>
<path fill="none" stroke="midnightblue" d="M339.33,-60.18C319.34,-65.46 296.28,-71.54 277.58,-76.48"/>
<polygon fill="midnightblue" stroke="midnightblue" points="340.39,-63.52 349.16,-57.59 338.6,-56.76 340.39,-63.52"/>
</g>
<!-- Node5 -->
<g id="node5" class="node">
<title>Node5</title>
<g id="a_node5"><a xlink:href="wavefunction__test_8cpp.html#aec3db20915a08cbe4f72b02e7b5485df" target="_top" xlink:title=" ">
<polygon fill="none" stroke="black" points="10.5,-38.5 10.5,-57.5 138.5,-57.5 138.5,-38.5 10.5,-38.5"/>
<text text-anchor="middle" x="74.5" y="-45.5" font-family="Helvetica,sans-Serif" font-size="10.00">TEST_CASE_TEMPLATE</text>
</a>
</g>
</g>
<!-- Node1&#45;&gt;Node5 -->
<g id="edge6" class="edge">
<title>Node1&#45;&gt;Node5</title>
<path fill="none" stroke="midnightblue" d="M321.79,-48C268.22,-48 192.05,-48 138.64,-48"/>
<polygon fill="midnightblue" stroke="midnightblue" points="321.86,-51.5 331.86,-48 321.86,-44.5 321.86,-51.5"/>
</g>
<!-- Node6 -->
<g id="node6" class="node">
<title>Node6</title>
<g id="a_node6"><a xlink:href="classSystemBase.html#a68a25a82579d7db6de4d9ff2affdf434" target="_top" xlink:title="Utility methods ////////////////////////////////////////////////.">
<polygon fill="none" stroke="black" points="185,-0.5 185,-19.5 296,-19.5 296,-0.5 185,-0.5"/>
<text text-anchor="middle" x="240.5" y="-7.5" font-family="Helvetica,sans-Serif" font-size="10.00">SystemBase::range</text>
</a>
</g>
</g>
<!-- Node1&#45;&gt;Node6 -->
<g id="edge5" class="edge">
<title>Node1&#45;&gt;Node6</title>
<path fill="none" stroke="midnightblue" d="M339.33,-35.82C319.34,-30.54 296.28,-24.46 277.58,-19.52"/>
<polygon fill="midnightblue" stroke="midnightblue" points="338.6,-39.24 349.16,-38.41 340.39,-32.48 338.6,-39.24"/>
</g>
<!-- Node3 -->
<g id="node3" class="node">
<title>Node3</title>
<g id="a_node3"><a xlink:href="classSystemTwo.html#aa5adef2b4ad7cf4376f49dd527583275" target="_top" xlink:title="Method that allows base class to construct Hamiltonian /////////.">
<polygon fill="none" stroke="black" points="0,-114.5 0,-133.5 149,-133.5 149,-114.5 0,-114.5"/>
<text text-anchor="middle" x="74.5" y="-121.5" font-family="Helvetica,sans-Serif" font-size="10.00">SystemTwo::addInteraction</text>
</a>
</g>
</g>
<!-- Node2&#45;&gt;Node3 -->
<g id="edge2" class="edge">
<title>Node2&#45;&gt;Node3</title>
<path fill="none" stroke="midnightblue" d="M188.16,-97.9C165.11,-103.24 138.28,-109.45 116.59,-114.48"/>
<polygon fill="midnightblue" stroke="midnightblue" points="189.16,-101.26 198.12,-95.59 187.58,-94.44 189.16,-101.26"/>
</g>
<!-- Node4 -->
<g id="node4" class="node">
<title>Node4</title>
<g id="a_node4"><a xlink:href="classNumerov.html#a89dacd4efc7ce15b24083e783d87db32" target="_top" xlink:title="Perform the integration.">
<polygon fill="none" stroke="black" points="18.5,-76.5 18.5,-95.5 130.5,-95.5 130.5,-76.5 18.5,-76.5"/>
<text text-anchor="middle" x="74.5" y="-83.5" font-family="Helvetica,sans-Serif" font-size="10.00">Numerov::integrate</text>
</a>
</g>
</g>
<!-- Node2&#45;&gt;Node4 -->
<g id="edge3" class="edge">
<title>Node2&#45;&gt;Node4</title>
<path fill="none" stroke="midnightblue" d="M176.07,-86C161.11,-86 145.29,-86 130.73,-86"/>
<polygon fill="midnightblue" stroke="midnightblue" points="176.25,-89.5 186.25,-86 176.25,-82.5 176.25,-89.5"/>
</g>
<!-- Node2&#45;&gt;Node5 -->
<g id="edge4" class="edge">
<title>Node2&#45;&gt;Node5</title>
<path fill="none" stroke="midnightblue" d="M188.16,-74.1C165.11,-68.76 138.28,-62.55 116.59,-57.52"/>
<polygon fill="midnightblue" stroke="midnightblue" points="187.58,-77.56 198.12,-76.41 189.16,-70.74 187.58,-77.56"/>
</g>
</g>
</svg>
