<?xml version="1.0" encoding="UTF-8" standalone="no"?>
<!DOCTYPE svg PUBLIC "-//W3C//DTD SVG 1.1//EN"
 "http://www.w3.org/Graphics/SVG/1.1/DTD/svg11.dtd">
<!-- Generated by graphviz version 2.43.0 (0)
 -->
<!-- Title: utils::hash_combine Pages: 1 -->
<svg width="461pt" height="264pt"
 viewBox="0.00 0.00 461.00 263.50" xmlns="http://www.w3.org/2000/svg" xmlns:xlink="http://www.w3.org/1999/xlink">
<g id="graph0" class="graph" transform="scale(1 1) rotate(0) translate(4 259.5)">
<title>utils::hash_combine</title>
<!-- Node1 -->
<g id="node1" class="node">
<title>Node1</title>
<g id="a_node1"><a xlink:title="Combine hashes.">
<polygon fill="#bfbfbf" stroke="black" points="339,-117.5 339,-136.5 453,-136.5 453,-117.5 339,-117.5"/>
<text text-anchor="middle" x="396" y="-124.5" font-family="Helvetica,sans-Serif" font-size="10.00">utils::hash_combine</text>
</a>
</g>
</g>
<!-- Node2 -->
<g id="node2" class="node">
<title>Node2</title>
<g id="a_node2"><a xlink:href="namespaceutils.html#abf58922e3b42ea50854095f06fb12d50" target="_top" xlink:title="Combine hashes of values in a range.">
<polygon fill="none" stroke="black" points="182.5,-224.5 182.5,-243.5 282.5,-243.5 282.5,-224.5 182.5,-224.5"/>
<text text-anchor="middle" x="232.5" y="-231.5" font-family="Helvetica,sans-Serif" font-size="10.00">utils::hash_range</text>
</a>
</g>
</g>
<!-- Node1&#45;&gt;Node2 -->
<g id="edge1" class="edge">
<title>Node1&#45;&gt;Node2</title>
<path fill="none" stroke="midnightblue" d="M380.13,-144C363.13,-162.51 333.66,-191.9 303,-210 292.89,-215.97 281.07,-220.75 270.07,-224.42"/>
<polygon fill="midnightblue" stroke="midnightblue" points="382.74,-146.34 386.83,-136.56 377.53,-141.65 382.74,-146.34"/>
</g>
<!-- Node4 -->
<g id="node4" class="node">
<title>Node4</title>
<g id="a_node4"><a xlink:href="classSystemBase.html#a0ce49b8c9a7751ca2d7c5707e0371d85" target="_top" xlink:title=" ">
<polygon fill="none" stroke="black" points="0,-186.5 0,-205.5 126,-205.5 126,-186.5 0,-186.5"/>
<text text-anchor="middle" x="63" y="-193.5" font-family="Helvetica,sans-Serif" font-size="10.00">SystemBase::unitarize</text>
</a>
</g>
</g>
<!-- Node1&#45;&gt;Node4 -->
<g id="edge8" class="edge">
<title>Node1&#45;&gt;Node4</title>
<path fill="none" stroke="midnightblue" d="M372.85,-142.12C354.87,-153.55 328.43,-168.51 303,-176 244.69,-193.18 175.15,-197.27 126.16,-197.61"/>
<polygon fill="midnightblue" stroke="midnightblue" points="374.97,-144.92 381.43,-136.52 371.14,-139.06 374.97,-144.92"/>
</g>
<!-- Node5 -->
<g id="node5" class="node">
<title>Node5</title>
<g id="a_node5"><a xlink:href="structstd_1_1hash_3_01StateOneOld_01_4.html#a49cde37800729e44b8b7c5e5c8e4f2be" target="_top" xlink:title=" ">
<polygon fill="none" stroke="black" points="165.5,-137 165.5,-167 299.5,-167 299.5,-137 165.5,-137"/>
<text text-anchor="start" x="173.5" y="-155" font-family="Helvetica,sans-Serif" font-size="10.00">std::hash&lt; StateOneOld</text>
<text text-anchor="middle" x="232.5" y="-144" font-family="Helvetica,sans-Serif" font-size="10.00"> &gt;::operator()</text>
</a>
</g>
</g>
<!-- Node1&#45;&gt;Node5 -->
<g id="edge4" class="edge">
<title>Node1&#45;&gt;Node5</title>
<path fill="none" stroke="midnightblue" d="M329.02,-137.21C319.35,-138.71 309.38,-140.25 299.71,-141.75"/>
<polygon fill="midnightblue" stroke="midnightblue" points="329.62,-140.66 338.97,-135.67 328.55,-133.74 329.62,-140.66"/>
</g>
<!-- Node6 -->
<g id="node6" class="node">
<title>Node6</title>
<g id="a_node6"><a xlink:href="structstd_1_1hash_3_01StateTwoOld_01_4.html#a4402d8a37da8a628762c592615b58649" target="_top" xlink:title=" ">
<polygon fill="none" stroke="black" points="166,-88 166,-118 299,-118 299,-88 166,-88"/>
<text text-anchor="start" x="174" y="-106" font-family="Helvetica,sans-Serif" font-size="10.00">std::hash&lt; StateTwoOld</text>
<text text-anchor="middle" x="232.5" y="-95" font-family="Helvetica,sans-Serif" font-size="10.00"> &gt;::operator()</text>
</a>
</g>
</g>
<!-- Node1&#45;&gt;Node6 -->
<g id="edge5" class="edge">
<title>Node1&#45;&gt;Node6</title>
<path fill="none" stroke="midnightblue" d="M328.87,-117.17C319.06,-115.71 308.95,-114.21 299.14,-112.76"/>
<polygon fill="midnightblue" stroke="midnightblue" points="328.56,-120.67 338.97,-118.67 329.59,-113.74 328.56,-120.67"/>
</g>
<!-- Node7 -->
<g id="node7" class="node">
<title>Node7</title>
<g id="a_node7"><a xlink:href="structutils_1_1hash_3_01std_1_1complex_3_01T_01_4_01_4.html#a2a9a9afb57f2787ddc4156fdfbe2f1b9" target="_top" xlink:title=" ">
<polygon fill="none" stroke="black" points="162,-39 162,-69 303,-69 303,-39 162,-39"/>
<text text-anchor="start" x="170" y="-57" font-family="Helvetica,sans-Serif" font-size="10.00">utils::hash&lt; std::complex</text>
<text text-anchor="middle" x="232.5" y="-46" font-family="Helvetica,sans-Serif" font-size="10.00">&lt; T &gt; &gt;::operator()</text>
</a>
</g>
</g>
<!-- Node1&#45;&gt;Node7 -->
<g id="edge6" class="edge">
<title>Node1&#45;&gt;Node7</title>
<path fill="none" stroke="midnightblue" d="M369.95,-112.28C351.75,-101.93 326.31,-88.16 303,-78 295.74,-74.84 287.93,-71.8 280.25,-69.01"/>
<polygon fill="midnightblue" stroke="midnightblue" points="368.35,-115.4 378.77,-117.35 371.84,-109.33 368.35,-115.4"/>
</g>
<!-- Node8 -->
<g id="node8" class="node">
<title>Node8</title>
<g id="a_node8"><a xlink:href="classStateOne.html#a5b05a258a43a682cfe7af5eb57d0221c" target="_top" xlink:title="Implementation of one&#45;atom state ///////////////////////////////.">
<polygon fill="none" stroke="black" points="176,-0.5 176,-19.5 289,-19.5 289,-0.5 176,-0.5"/>
<text text-anchor="middle" x="232.5" y="-7.5" font-family="Helvetica,sans-Serif" font-size="10.00">StateOne::StateOne</text>
</a>
</g>
</g>
<!-- Node1&#45;&gt;Node8 -->
<g id="edge7" class="edge">
<title>Node1&#45;&gt;Node8</title>
<path fill="none" stroke="midnightblue" d="M382.75,-108.76C366.92,-86.61 337.29,-49.64 303,-29 296.57,-25.13 289.34,-22.03 282.03,-19.55"/>
<polygon fill="midnightblue" stroke="midnightblue" points="380.08,-111.05 388.67,-117.26 385.83,-107.05 380.08,-111.05"/>
</g>
<!-- Node3 -->
<g id="node3" class="node">
<title>Node3</title>
<g id="a_node3"><a xlink:href="structutils_1_1hash_3_01std_1_1array_3_01T_00_01N_01_4_01_4.html#ae48dd14c2ab1151d262b10861e765c47" target="_top" xlink:title=" ">
<polygon fill="none" stroke="black" points="0.5,-225 0.5,-255 125.5,-255 125.5,-225 0.5,-225"/>
<text text-anchor="start" x="8.5" y="-243" font-family="Helvetica,sans-Serif" font-size="10.00">utils::hash&lt; std::array</text>
<text text-anchor="middle" x="63" y="-232" font-family="Helvetica,sans-Serif" font-size="10.00">&lt; T, N &gt; &gt;::operator()</text>
</a>
</g>
</g>
<!-- Node2&#45;&gt;Node3 -->
<g id="edge2" class="edge">
<title>Node2&#45;&gt;Node3</title>
<path fill="none" stroke="midnightblue" d="M171.98,-236.13C157,-236.67 140.88,-237.25 125.78,-237.79"/>
<polygon fill="midnightblue" stroke="midnightblue" points="172.28,-239.62 182.15,-235.77 172.03,-232.63 172.28,-239.62"/>
</g>
<!-- Node2&#45;&gt;Node4 -->
<g id="edge3" class="edge">
<title>Node2&#45;&gt;Node4</title>
<path fill="none" stroke="midnightblue" d="M179.38,-222.18C155.77,-216.82 128.22,-210.57 105.96,-205.52"/>
<polygon fill="midnightblue" stroke="midnightblue" points="178.71,-225.61 189.23,-224.41 180.25,-218.79 178.71,-225.61"/>
</g>
</g>
</svg>
