<?xml version="1.0" encoding="UTF-8" standalone="no"?>
<!DOCTYPE svg PUBLIC "-//W3C//DTD SVG 1.1//EN"
 "http://www.w3.org/Graphics/SVG/1.1/DTD/svg11.dtd">
<!-- Generated by graphviz version 2.43.0 (0)
 -->
<!-- Title: /__w/pairinteraction/pairinteraction/pairinteraction/NumpyUtils.hpp Pages: 1 -->
<svg width="1011pt" height="162pt"
 viewBox="0.00 0.00 1011.00 162.00" xmlns="http://www.w3.org/2000/svg" xmlns:xlink="http://www.w3.org/1999/xlink">
<g id="graph0" class="graph" transform="scale(1 1) rotate(0) translate(4 158)">
<title>/__w/pairinteraction/pairinteraction/pairinteraction/NumpyUtils.hpp</title>
<!-- Node1 -->
<g id="node1" class="node">
<title>Node1</title>
<g id="a_node1"><a xlink:title=" ">
<polygon fill="#bfbfbf" stroke="black" points="426,-112.5 426,-153.5 591,-153.5 591,-112.5 426,-112.5"/>
<text text-anchor="start" x="434" y="-141.5" font-family="Helvetica,sans-Serif" font-size="10.00">/__w/pairinteraction</text>
<text text-anchor="start" x="434" y="-130.5" font-family="Helvetica,sans-Serif" font-size="10.00">/pairinteraction/pairinteraction</text>
<text text-anchor="middle" x="508.5" y="-119.5" font-family="Helvetica,sans-Serif" font-size="10.00">/NumpyUtils.hpp</text>
</a>
</g>
</g>
<!-- Node2 -->
<g id="node2" class="node">
<title>Node2</title>
<g id="a_node2"><a xlink:title=" ">
<polygon fill="none" stroke="#bfbfbf" points="0,-56.5 0,-75.5 59,-75.5 59,-56.5 0,-56.5"/>
<text text-anchor="middle" x="29.5" y="-63.5" font-family="Helvetica,sans-Serif" font-size="10.00">Python.h</text>
</a>
</g>
</g>
<!-- Node1&#45;&gt;Node2 -->
<g id="edge1" class="edge">
<title>Node1&#45;&gt;Node2</title>
<path fill="none" stroke="midnightblue" d="M425.81,-123.98C339.35,-115.02 199.57,-98.94 69.4,-76"/>
<polygon fill="midnightblue" stroke="midnightblue" points="69.71,-72.49 59.25,-74.19 68.48,-79.39 69.71,-72.49"/>
</g>
<!-- Node3 -->
<g id="node3" class="node">
<title>Node3</title>
<g id="a_node3"><a xlink:title=" ">
<polygon fill="none" stroke="#bfbfbf" points="77.5,-56.5 77.5,-75.5 207.5,-75.5 207.5,-56.5 77.5,-56.5"/>
<text text-anchor="middle" x="142.5" y="-63.5" font-family="Helvetica,sans-Serif" font-size="10.00">numpy/ndarrayobject.h</text>
</a>
</g>
</g>
<!-- Node1&#45;&gt;Node3 -->
<g id="edge2" class="edge">
<title>Node1&#45;&gt;Node3</title>
<path fill="none" stroke="midnightblue" d="M425.91,-117.33C357.34,-105.16 261.55,-88.14 200.77,-77.35"/>
<polygon fill="midnightblue" stroke="midnightblue" points="201.05,-73.84 190.59,-75.54 199.82,-80.74 201.05,-73.84"/>
</g>
<!-- Node4 -->
<g id="node4" class="node">
<title>Node4</title>
<g id="a_node4"><a xlink:title=" ">
<polygon fill="none" stroke="#bfbfbf" points="225.5,-56.5 225.5,-75.5 275.5,-75.5 275.5,-56.5 225.5,-56.5"/>
<text text-anchor="middle" x="250.5" y="-63.5" font-family="Helvetica,sans-Serif" font-size="10.00">cstring</text>
</a>
</g>
</g>
<!-- Node1&#45;&gt;Node4 -->
<g id="edge3" class="edge">
<title>Node1&#45;&gt;Node4</title>
<path fill="none" stroke="midnightblue" d="M430.3,-112.48C387.51,-101.77 333.57,-88.22 285.5,-76 285.4,-75.97 285.3,-75.95 285.2,-75.92"/>
<polygon fill="midnightblue" stroke="midnightblue" points="286.29,-72.59 275.73,-73.51 284.55,-79.37 286.29,-72.59"/>
</g>
<!-- Node5 -->
<g id="node5" class="node">
<title>Node5</title>
<g id="a_node5"><a xlink:title=" ">
<polygon fill="none" stroke="#bfbfbf" points="294,-56.5 294,-75.5 347,-75.5 347,-56.5 294,-56.5"/>
<text text-anchor="middle" x="320.5" y="-63.5" font-family="Helvetica,sans-Serif" font-size="10.00">iterator</text>
</a>
</g>
</g>
<!-- Node1&#45;&gt;Node5 -->
<g id="edge4" class="edge">
<title>Node1&#45;&gt;Node5</title>
<path fill="none" stroke="midnightblue" d="M452.09,-112.5C420.5,-101.57 382.12,-88.3 354.98,-78.92"/>
<polygon fill="midnightblue" stroke="midnightblue" points="356.12,-75.61 345.53,-75.65 353.83,-82.23 356.12,-75.61"/>
</g>
<!-- Node6 -->
<g id="node6" class="node">
<title>Node6</title>
<g id="a_node6"><a xlink:title=" ">
<polygon fill="none" stroke="#bfbfbf" points="365.5,-56.5 365.5,-75.5 423.5,-75.5 423.5,-56.5 365.5,-56.5"/>
<text text-anchor="middle" x="394.5" y="-63.5" font-family="Helvetica,sans-Serif" font-size="10.00">memory</text>
</a>
</g>
</g>
<!-- Node1&#45;&gt;Node6 -->
<g id="edge5" class="edge">
<title>Node1&#45;&gt;Node6</title>
<path fill="none" stroke="midnightblue" d="M474.3,-112.5C456.31,-102.24 434.71,-89.93 418.51,-80.69"/>
<polygon fill="midnightblue" stroke="midnightblue" points="420.1,-77.57 409.68,-75.65 416.63,-83.65 420.1,-77.57"/>
</g>
<!-- Node7 -->
<g id="node7" class="node">
<title>Node7</title>
<g id="a_node7"><a xlink:title=" ">
<polygon fill="none" stroke="#bfbfbf" points="441.5,-56.5 441.5,-75.5 497.5,-75.5 497.5,-56.5 441.5,-56.5"/>
<text text-anchor="middle" x="469.5" y="-63.5" font-family="Helvetica,sans-Serif" font-size="10.00">numeric</text>
</a>
</g>
</g>
<!-- Node1&#45;&gt;Node7 -->
<g id="edge6" class="edge">
<title>Node1&#45;&gt;Node7</title>
<path fill="none" stroke="midnightblue" d="M496.8,-112.5C491.45,-103.59 485.17,-93.11 479.98,-84.46"/>
<polygon fill="midnightblue" stroke="midnightblue" points="482.84,-82.43 474.69,-75.65 476.84,-86.03 482.84,-82.43"/>
</g>
<!-- Node8 -->
<g id="node8" class="node">
<title>Node8</title>
<g id="a_node8"><a xlink:title=" ">
<polygon fill="none" stroke="#bfbfbf" points="516,-56.5 516,-75.5 581,-75.5 581,-56.5 516,-56.5"/>
<text text-anchor="middle" x="548.5" y="-63.5" font-family="Helvetica,sans-Serif" font-size="10.00">stdexcept</text>
</a>
</g>
</g>
<!-- Node1&#45;&gt;Node8 -->
<g id="edge7" class="edge">
<title>Node1&#45;&gt;Node8</title>
<path fill="none" stroke="midnightblue" d="M520.5,-112.5C526.04,-103.49 532.57,-92.89 537.92,-84.19"/>
<polygon fill="midnightblue" stroke="midnightblue" points="540.92,-86 543.18,-75.65 534.95,-82.33 540.92,-86"/>
</g>
<!-- Node9 -->
<g id="node9" class="node">
<title>Node9</title>
<g id="a_node9"><a xlink:title=" ">
<polygon fill="none" stroke="#bfbfbf" points="599,-56.5 599,-75.5 640,-75.5 640,-56.5 599,-56.5"/>
<text text-anchor="middle" x="619.5" y="-63.5" font-family="Helvetica,sans-Serif" font-size="10.00">tuple</text>
</a>
</g>
</g>
<!-- Node1&#45;&gt;Node9 -->
<g id="edge8" class="edge">
<title>Node1&#45;&gt;Node9</title>
<path fill="none" stroke="midnightblue" d="M541.8,-112.5C559.15,-102.34 579.96,-90.16 595.67,-80.95"/>
<polygon fill="midnightblue" stroke="midnightblue" points="597.86,-83.73 604.72,-75.65 594.33,-77.69 597.86,-83.73"/>
</g>
<!-- Node10 -->
<g id="node10" class="node">
<title>Node10</title>
<g id="a_node10"><a xlink:href="EigenCompat_8hpp.html" target="_top" xlink:title=" ">
<polygon fill="none" stroke="black" points="658,-56.5 658,-75.5 761,-75.5 761,-56.5 658,-56.5"/>
<text text-anchor="middle" x="709.5" y="-63.5" font-family="Helvetica,sans-Serif" font-size="10.00">EigenCompat.hpp</text>
</a>
</g>
</g>
<!-- Node1&#45;&gt;Node10 -->
<g id="edge9" class="edge">
<title>Node1&#45;&gt;Node10</title>
<path fill="none" stroke="midnightblue" d="M568.81,-112.5C602.84,-101.49 644.23,-88.11 673.28,-78.71"/>
<polygon fill="midnightblue" stroke="midnightblue" points="674.57,-81.97 683.01,-75.57 672.42,-75.31 674.57,-81.97"/>
</g>
<!-- Node11 -->
<g id="node11" class="node">
<title>Node11</title>
<g id="a_node11"><a xlink:title=" ">
<polygon fill="none" stroke="#bfbfbf" points="715,-0.5 715,-19.5 784,-19.5 784,-0.5 715,-0.5"/>
<text text-anchor="middle" x="749.5" y="-7.5" font-family="Helvetica,sans-Serif" font-size="10.00">Eigen/Core</text>
</a>
</g>
</g>
<!-- Node1&#45;&gt;Node11 -->
<g id="edge11" class="edge">
<title>Node1&#45;&gt;Node11</title>
<path fill="none" stroke="midnightblue" d="M591.08,-125.5C659.2,-118.22 748.16,-103.62 770.5,-76 781.76,-62.08 772.44,-41.98 762.9,-27.83"/>
<polygon fill="midnightblue" stroke="midnightblue" points="765.54,-25.51 756.81,-19.51 759.89,-29.64 765.54,-25.51"/>
</g>
<!-- Node12 -->
<g id="node12" class="node">
<title>Node12</title>
<g id="a_node12"><a xlink:title=" ">
<polygon fill="none" stroke="#bfbfbf" points="817.5,-56.5 817.5,-75.5 919.5,-75.5 919.5,-56.5 817.5,-56.5"/>
<text text-anchor="middle" x="868.5" y="-63.5" font-family="Helvetica,sans-Serif" font-size="10.00">Eigen/SparseCore</text>
</a>
</g>
</g>
<!-- Node1&#45;&gt;Node12 -->
<g id="edge12" class="edge">
<title>Node1&#45;&gt;Node12</title>
<path fill="none" stroke="midnightblue" d="M591.09,-117.09C658.5,-104.92 751.98,-88.04 811.36,-77.32"/>
<polygon fill="midnightblue" stroke="midnightblue" points="812.09,-80.74 821.31,-75.52 810.85,-73.85 812.09,-80.74"/>
</g>
<!-- Node13 -->
<g id="node13" class="node">
<title>Node13</title>
<g id="a_node13"><a xlink:href="Traits_8hpp.html" target="_top" xlink:title=" ">
<polygon fill="none" stroke="black" points="938,-56.5 938,-75.5 1003,-75.5 1003,-56.5 938,-56.5"/>
<text text-anchor="middle" x="970.5" y="-63.5" font-family="Helvetica,sans-Serif" font-size="10.00">Traits.hpp</text>
</a>
</g>
</g>
<!-- Node1&#45;&gt;Node13 -->
<g id="edge13" class="edge">
<title>Node1&#45;&gt;Node13</title>
<path fill="none" stroke="midnightblue" d="M591.28,-122.91C673.96,-113.38 804.86,-97.1 928,-75.96"/>
<polygon fill="midnightblue" stroke="midnightblue" points="928.73,-79.38 937.99,-74.23 927.54,-72.49 928.73,-79.38"/>
</g>
<!-- Node10&#45;&gt;Node11 -->
<g id="edge10" class="edge">
<title>Node10&#45;&gt;Node11</title>
<path fill="none" stroke="midnightblue" d="M716.11,-56.08C721.76,-48.46 730.04,-37.26 736.95,-27.94"/>
<polygon fill="midnightblue" stroke="midnightblue" points="739.88,-29.87 743.02,-19.75 734.25,-25.7 739.88,-29.87"/>
</g>
</g>
</svg>
