<?xml version="1.0" encoding="UTF-8" standalone="no"?>
<!DOCTYPE svg PUBLIC "-//W3C//DTD SVG 1.1//EN"
 "http://www.w3.org/Graphics/SVG/1.1/DTD/svg11.dtd">
<!-- Generated by graphviz version 2.43.0 (0)
 -->
<!-- Title: /__w/pairinteraction/pairinteraction/pairinteraction/PerturbativeInteraction.hpp Pages: 1 -->
<!--zoomable 397 -->
<svg id="main" version="1.1" xmlns="http://www.w3.org/2000/svg" xmlns:xlink="http://www.w3.org/1999/xlink" xml:space="preserve" onload="init(evt)">
<style type="text/css"><![CDATA[
.edge:hover path { stroke: red; }
.edge:hover polygon { stroke: red; fill: red; }
]]></style>
<script type="text/javascript"><![CDATA[
var edges = document.getElementsByTagName('g');
if (edges && edges.length) {
  for (var i=0;i<edges.length;i++) {
    if (edges[i].id.substr(0,4)=='edge') {
      edges[i].setAttribute('class','edge');
    }
  }
}
]]></script>
        <defs>
                <circle id="rim" cx="0" cy="0" r="7"/>
                <circle id="rim2" cx="0" cy="0" r="3.5"/>
                <g id="zoomPlus">
                        <use xlink:href="#rim" fill="#404040">
                                <set attributeName="fill" to="#808080" begin="zoomplus.mouseover" end="zoomplus.mouseout"/>
                        </use>
                        <path d="M-4,0h8M0,-4v8" fill="none" stroke="white" stroke-width="1.5" pointer-events="none"/>
                </g>
                <g id="zoomMin">
                        <use xlink:href="#rim" fill="#404040">
                                <set attributeName="fill" to="#808080" begin="zoomminus.mouseover" end="zoomminus.mouseout"/>
                        </use>
                        <path d="M-4,0h8" fill="none" stroke="white" stroke-width="1.5" pointer-events="none"/>
                </g>
                <g id="dirArrow">
                        <path fill="none" stroke="white" stroke-width="1.5" d="M0,-3.0v7 M-2.5,-0.5L0,-3.0L2.5,-0.5"/>
                </g>
               <g id="resetDef">
                       <use xlink:href="#rim2" fill="#404040">
                               <set attributeName="fill" to="#808080" begin="reset.mouseover" end="reset.mouseout"/>
                       </use>
               </g>
        </defs>

<script type="text/javascript">
var viewWidth = 1372;
var viewHeight = 397;
var sectionId = 'dynsection-0';
</script>
<script xlink:href="svgpan.js"/>
<svg id="graph" class="graph">
<g id="viewport">
<title>/__w/pairinteraction/pairinteraction/pairinteraction/PerturbativeInteraction.hpp</title>
<!-- Node1 -->
<g id="node1" class="node">
<title>Node1</title>
<g id="a_node1"><a xlink:title=" ">
<polygon fill="#bfbfbf" stroke="black" points="226.5,-347.5 226.5,-388.5 391.5,-388.5 391.5,-347.5 226.5,-347.5"/>
<text text-anchor="start" x="234.5" y="-376.5" font-family="Helvetica,sans-Serif" font-size="10.00">/__w/pairinteraction</text>
<text text-anchor="start" x="234.5" y="-365.5" font-family="Helvetica,sans-Serif" font-size="10.00">/pairinteraction/pairinteraction</text>
<text text-anchor="middle" x="309" y="-354.5" font-family="Helvetica,sans-Serif" font-size="10.00">/PerturbativeInteraction.hpp</text>
</a>
</g>
</g>
<!-- Node2 -->
<g id="node2" class="node">
<title>Node2</title>
<g id="a_node2"><a xlink:href="MatrixElementCache_8hpp.html" target="_top" xlink:title=" ">
<polygon fill="none" stroke="black" points="694,-291.5 694,-310.5 834,-310.5 834,-291.5 694,-291.5"/>
<text text-anchor="middle" x="764" y="-298.5" font-family="Helvetica,sans-Serif" font-size="10.00">MatrixElementCache.hpp</text>
</a>
</g>
</g>
<!-- Node1&#45;&gt;Node2 -->
<g id="edge1" class="edge">
<title>Node1&#45;&gt;Node2</title>
<path fill="none" stroke="midnightblue" d="M391.66,-355.19C478.27,-342.82 612.82,-323.6 694.25,-311.96"/>
<polygon fill="midnightblue" stroke="midnightblue" points="695,-315.39 704.4,-310.51 694.01,-308.46 695,-315.39"/>
</g>
<!-- Node12 -->
<g id="node12" class="node">
<title>Node12</title>
<g id="a_node12"><a xlink:title=" ">
<polygon fill="none" stroke="#bfbfbf" points="253,-0.5 253,-19.5 295,-19.5 295,-0.5 253,-0.5"/>
<text text-anchor="middle" x="274" y="-7.5" font-family="Helvetica,sans-Serif" font-size="10.00">array</text>
</a>
</g>
</g>
<!-- Node1&#45;&gt;Node12 -->
<g id="edge69" class="edge">
<title>Node1&#45;&gt;Node12</title>
<path fill="none" stroke="midnightblue" d="M226.19,-350.07C134.66,-328.92 0,-289.48 0,-240.5 0,-240.5 0,-240.5 0,-121 0,-85.35 16.99,-75.24 47,-56 108.18,-16.76 196.25,-10.51 242.66,-10.22"/>
<polygon fill="midnightblue" stroke="midnightblue" points="242.7,-13.72 252.71,-10.24 242.72,-6.72 242.7,-13.72"/>
</g>
<!-- Node26 -->
<g id="node26" class="node">
<title>Node26</title>
<g id="a_node26"><a xlink:title=" ">
<polygon fill="none" stroke="#bfbfbf" points="780.5,-112.5 780.5,-131.5 827.5,-131.5 827.5,-112.5 780.5,-112.5"/>
<text text-anchor="middle" x="804" y="-119.5" font-family="Helvetica,sans-Serif" font-size="10.00">vector</text>
</a>
</g>
</g>
<!-- Node1&#45;&gt;Node26 -->
<g id="edge70" class="edge">
<title>Node1&#45;&gt;Node26</title>
<path fill="none" stroke="midnightblue" d="M331.21,-347.38C365.54,-317.76 434.4,-261.16 500,-224 557.24,-191.58 574.68,-189.04 637,-168 682.63,-152.59 736.65,-138.83 770.62,-130.69"/>
<polygon fill="midnightblue" stroke="midnightblue" points="771.57,-134.07 780.49,-128.35 769.95,-127.25 771.57,-134.07"/>
</g>
<!-- Node27 -->
<g id="node27" class="node">
<title>Node27</title>
<g id="a_node27"><a xlink:href="State_8hpp.html" target="_top" xlink:title=" ">
<polygon fill="none" stroke="black" points="152.5,-112.5 152.5,-131.5 215.5,-131.5 215.5,-112.5 152.5,-112.5"/>
<text text-anchor="middle" x="184" y="-119.5" font-family="Helvetica,sans-Serif" font-size="10.00">State.hpp</text>
</a>
</g>
</g>
<!-- Node1&#45;&gt;Node27 -->
<g id="edge68" class="edge">
<title>Node1&#45;&gt;Node27</title>
<path fill="none" stroke="midnightblue" d="M298.98,-347.44C275.23,-301.07 215.77,-185.01 193.03,-140.63"/>
<polygon fill="midnightblue" stroke="midnightblue" points="196.1,-138.94 188.42,-131.64 189.87,-142.13 196.1,-138.94"/>
</g>
<!-- Node3 -->
<g id="node3" class="node">
<title>Node3</title>
<g id="a_node3"><a xlink:href="Basisnames_8hpp.html" target="_top" xlink:title=" ">
<polygon fill="none" stroke="black" points="438.5,-168.5 438.5,-187.5 535.5,-187.5 535.5,-168.5 438.5,-168.5"/>
<text text-anchor="middle" x="487" y="-175.5" font-family="Helvetica,sans-Serif" font-size="10.00">Basisnames.hpp</text>
</a>
</g>
</g>
<!-- Node2&#45;&gt;Node3 -->
<g id="edge2" class="edge">
<title>Node2&#45;&gt;Node3</title>
<path fill="none" stroke="midnightblue" d="M693.81,-299.29C616.69,-296.84 500.01,-287.66 472,-255 458.09,-238.79 467.22,-213.44 476.15,-196.53"/>
<polygon fill="midnightblue" stroke="midnightblue" points="479.28,-198.1 481.21,-187.68 473.2,-194.63 479.28,-198.1"/>
</g>
<!-- Node6 -->
<g id="node6" class="node">
<title>Node6</title>
<g id="a_node6"><a xlink:title=" ">
<polygon fill="none" stroke="#bfbfbf" points="923,-56.5 923,-75.5 979,-75.5 979,-56.5 923,-56.5"/>
<text text-anchor="middle" x="951" y="-63.5" font-family="Helvetica,sans-Serif" font-size="10.00">sstream</text>
</a>
</g>
</g>
<!-- Node2&#45;&gt;Node6 -->
<g id="edge64" class="edge">
<title>Node2&#45;&gt;Node6</title>
<path fill="none" stroke="midnightblue" d="M834.1,-299.51C976.24,-297.8 1287.68,-290.04 1320,-255 1329.34,-244.87 1327.91,-235.28 1320,-224 1311.38,-211.71 1079.64,-138.27 1066,-132 1032.49,-116.59 995.69,-94.89 972.96,-80.88"/>
<polygon fill="midnightblue" stroke="midnightblue" points="974.76,-77.87 964.42,-75.56 971.06,-83.82 974.76,-77.87"/>
</g>
<!-- Node7 -->
<g id="node7" class="node">
<title>Node7</title>
<g id="a_node7"><a xlink:title=" ">
<polygon fill="none" stroke="#bfbfbf" points="755,-56.5 755,-75.5 799,-75.5 799,-56.5 755,-56.5"/>
<text text-anchor="middle" x="777" y="-63.5" font-family="Helvetica,sans-Serif" font-size="10.00">string</text>
</a>
</g>
</g>
<!-- Node2&#45;&gt;Node7 -->
<g id="edge65" class="edge">
<title>Node2&#45;&gt;Node7</title>
<path fill="none" stroke="midnightblue" d="M693.97,-297.38C627.07,-293.24 533.09,-282.54 510,-255 501.15,-244.44 501.69,-234.99 510,-224 512.84,-220.25 833.16,-135.75 836,-132 850.24,-113.18 825.66,-93.34 804.01,-80.6"/>
<polygon fill="midnightblue" stroke="midnightblue" points="805.48,-77.41 795.04,-75.6 802.07,-83.53 805.48,-77.41"/>
</g>
<!-- Node10 -->
<g id="node10" class="node">
<title>Node10</title>
<g id="a_node10"><a xlink:href="utils_8hpp.html" target="_top" xlink:title=" ">
<polygon fill="none" stroke="black" points="843.5,-56.5 843.5,-75.5 902.5,-75.5 902.5,-56.5 843.5,-56.5"/>
<text text-anchor="middle" x="873" y="-63.5" font-family="Helvetica,sans-Serif" font-size="10.00">utils.hpp</text>
</a>
</g>
</g>
<!-- Node2&#45;&gt;Node10 -->
<g id="edge59" class="edge">
<title>Node2&#45;&gt;Node10</title>
<path fill="none" stroke="midnightblue" d="M693.66,-298.55C613.91,-294.32 500.18,-278.85 543,-224 583.6,-172 623.69,-206.56 687,-188 761.72,-166.1 798.69,-187.79 853,-132 864.96,-119.72 869.78,-100.46 871.72,-86.09"/>
<polygon fill="midnightblue" stroke="midnightblue" points="875.24,-86.14 872.74,-75.84 868.27,-85.44 875.24,-86.14"/>
</g>
<!-- Node23 -->
<g id="node23" class="node">
<title>Node23</title>
<g id="a_node23"><a xlink:title=" ">
<polygon fill="none" stroke="#bfbfbf" points="1281,-56.5 1281,-75.5 1339,-75.5 1339,-56.5 1281,-56.5"/>
<text text-anchor="middle" x="1310" y="-63.5" font-family="Helvetica,sans-Serif" font-size="10.00">memory</text>
</a>
</g>
</g>
<!-- Node2&#45;&gt;Node23 -->
<g id="edge63" class="edge">
<title>Node2&#45;&gt;Node23</title>
<path fill="none" stroke="midnightblue" d="M834.05,-298.83C978.35,-295.81 1298.47,-285.7 1337,-255 1368.11,-230.21 1366.75,-206.8 1358,-168 1350.95,-136.73 1333.03,-103.78 1321.19,-84.33"/>
<polygon fill="midnightblue" stroke="midnightblue" points="1324.06,-82.32 1315.79,-75.7 1318.13,-86.03 1324.06,-82.32"/>
</g>
<!-- Node2&#45;&gt;Node27 -->
<g id="edge29" class="edge">
<title>Node2&#45;&gt;Node27</title>
<path fill="none" stroke="midnightblue" d="M693.81,-295.51C631.55,-290.14 538.7,-278.7 461,-255 361.61,-224.68 252.86,-163.93 206.72,-136.72"/>
<polygon fill="midnightblue" stroke="midnightblue" points="208.48,-133.7 198.1,-131.6 204.91,-139.72 208.48,-133.7"/>
</g>
<!-- Node28 -->
<g id="node28" class="node">
<title>Node28</title>
<g id="a_node28"><a xlink:href="Wavefunction_8hpp.html" target="_top" xlink:title=" ">
<polygon fill="none" stroke="black" points="1205.5,-230 1205.5,-249 1310.5,-249 1310.5,-230 1205.5,-230"/>
<text text-anchor="middle" x="1258" y="-237" font-family="Helvetica,sans-Serif" font-size="10.00">Wavefunction.hpp</text>
</a>
</g>
</g>
<!-- Node2&#45;&gt;Node28 -->
<g id="edge37" class="edge">
<title>Node2&#45;&gt;Node28</title>
<path fill="none" stroke="midnightblue" d="M834.12,-295.52C920.07,-289.39 1069.96,-276.61 1197,-255 1202.98,-253.98 1209.25,-252.72 1215.4,-251.37"/>
<polygon fill="midnightblue" stroke="midnightblue" points="1216.59,-254.69 1225.55,-249.04 1215.02,-247.86 1216.59,-254.69"/>
</g>
<!-- Node38 -->
<g id="node38" class="node">
<title>Node38</title>
<g id="a_node38"><a xlink:title=" ">
<polygon fill="none" stroke="#bfbfbf" points="552.5,-224.5 552.5,-254.5 681.5,-254.5 681.5,-224.5 552.5,-224.5"/>
<text text-anchor="start" x="560.5" y="-242.5" font-family="Helvetica,sans-Serif" font-size="10.00">cereal/types/unordered</text>
<text text-anchor="middle" x="617" y="-231.5" font-family="Helvetica,sans-Serif" font-size="10.00">_map.hpp</text>
</a>
</g>
</g>
<!-- Node2&#45;&gt;Node38 -->
<g id="edge60" class="edge">
<title>Node2&#45;&gt;Node38</title>
<path fill="none" stroke="midnightblue" d="M742.94,-291.48C721.63,-282.85 688.06,-269.26 660.94,-258.29"/>
<polygon fill="midnightblue" stroke="midnightblue" points="662.23,-255.03 651.64,-254.52 659.6,-261.52 662.23,-255.03"/>
</g>
<!-- Node39 -->
<g id="node39" class="node">
<title>Node39</title>
<g id="a_node39"><a xlink:title=" ">
<polygon fill="none" stroke="#bfbfbf" points="699.5,-224.5 699.5,-254.5 828.5,-254.5 828.5,-224.5 699.5,-224.5"/>
<text text-anchor="start" x="707.5" y="-242.5" font-family="Helvetica,sans-Serif" font-size="10.00">cereal/types/unordered</text>
<text text-anchor="middle" x="764" y="-231.5" font-family="Helvetica,sans-Serif" font-size="10.00">_set.hpp</text>
</a>
</g>
</g>
<!-- Node2&#45;&gt;Node39 -->
<g id="edge61" class="edge">
<title>Node2&#45;&gt;Node39</title>
<path fill="none" stroke="midnightblue" d="M764,-291.48C764,-284.47 764,-274.19 764,-264.7"/>
<polygon fill="midnightblue" stroke="midnightblue" points="767.5,-264.52 764,-254.52 760.5,-264.52 767.5,-264.52"/>
</g>
<!-- Node40 -->
<g id="node40" class="node">
<title>Node40</title>
<g id="a_node40"><a xlink:title=" ">
<polygon fill="none" stroke="#bfbfbf" points="847,-224.5 847,-254.5 1017,-254.5 1017,-224.5 847,-224.5"/>
<text text-anchor="start" x="855" y="-242.5" font-family="Helvetica,sans-Serif" font-size="10.00">wignerSymbols/wignerSymbols</text>
<text text-anchor="middle" x="932" y="-231.5" font-family="Helvetica,sans-Serif" font-size="10.00">&#45;cpp.h</text>
</a>
</g>
</g>
<!-- Node2&#45;&gt;Node40 -->
<g id="edge62" class="edge">
<title>Node2&#45;&gt;Node40</title>
<path fill="none" stroke="midnightblue" d="M788.07,-291.48C812.63,-282.78 851.45,-269.03 882.59,-258"/>
<polygon fill="midnightblue" stroke="midnightblue" points="884.15,-261.16 892.41,-254.52 881.81,-254.56 884.15,-261.16"/>
</g>
<!-- Node41 -->
<g id="node41" class="node">
<title>Node41</title>
<g id="a_node41"><a xlink:title=" ">
<polygon fill="none" stroke="#bfbfbf" points="1035.5,-230 1035.5,-249 1076.5,-249 1076.5,-230 1035.5,-230"/>
<text text-anchor="middle" x="1056" y="-237" font-family="Helvetica,sans-Serif" font-size="10.00">tuple</text>
</a>
</g>
</g>
<!-- Node2&#45;&gt;Node41 -->
<g id="edge66" class="edge">
<title>Node2&#45;&gt;Node41</title>
<path fill="none" stroke="midnightblue" d="M834.22,-293.34C887.72,-286.99 962.71,-275.28 1026,-255 1027.67,-254.47 1029.36,-253.86 1031.05,-253.19"/>
<polygon fill="midnightblue" stroke="midnightblue" points="1032.73,-256.28 1040.46,-249.03 1029.9,-249.87 1032.73,-256.28"/>
</g>
<!-- Node42 -->
<g id="node42" class="node">
<title>Node42</title>
<g id="a_node42"><a xlink:title=" ">
<polygon fill="none" stroke="#bfbfbf" points="1094.5,-230 1094.5,-249 1187.5,-249 1187.5,-230 1094.5,-230"/>
<text text-anchor="middle" x="1141" y="-237" font-family="Helvetica,sans-Serif" font-size="10.00">unordered_map</text>
</a>
</g>
</g>
<!-- Node2&#45;&gt;Node42 -->
<g id="edge67" class="edge">
<title>Node2&#45;&gt;Node42</title>
<path fill="none" stroke="midnightblue" d="M834.13,-292.63C899.63,-285.18 999.95,-272.29 1086,-255 1091.01,-253.99 1096.25,-252.8 1101.42,-251.54"/>
<polygon fill="midnightblue" stroke="midnightblue" points="1102.35,-254.91 1111.18,-249.05 1100.62,-248.13 1102.35,-254.91"/>
</g>
<!-- Node4 -->
<g id="node4" class="node">
<title>Node4</title>
<g id="a_node4"><a xlink:href="ConfParser_8hpp.html" target="_top" xlink:title=" ">
<polygon fill="none" stroke="black" points="632.5,-112.5 632.5,-131.5 723.5,-131.5 723.5,-112.5 632.5,-112.5"/>
<text text-anchor="middle" x="678" y="-119.5" font-family="Helvetica,sans-Serif" font-size="10.00">ConfParser.hpp</text>
</a>
</g>
</g>
<!-- Node3&#45;&gt;Node4 -->
<g id="edge3" class="edge">
<title>Node3&#45;&gt;Node4</title>
<path fill="none" stroke="midnightblue" d="M517.26,-168.44C549.96,-159.2 602.18,-144.44 638.18,-134.26"/>
<polygon fill="midnightblue" stroke="midnightblue" points="639.21,-137.61 647.88,-131.52 637.3,-130.87 639.21,-137.61"/>
</g>
<!-- Node3&#45;&gt;Node7 -->
<g id="edge26" class="edge">
<title>Node3&#45;&gt;Node7</title>
<path fill="none" stroke="midnightblue" d="M535.75,-170.09C602.44,-160.32 715.74,-142.5 732,-132 749.42,-120.75 761.96,-100.13 769.3,-85.12"/>
<polygon fill="midnightblue" stroke="midnightblue" points="772.58,-86.37 773.56,-75.82 766.22,-83.46 772.58,-86.37"/>
</g>
<!-- Node8 -->
<g id="node8" class="node">
<title>Node8</title>
<g id="a_node8"><a xlink:href="Iter_8hpp.html" target="_top" xlink:title=" ">
<polygon fill="none" stroke="black" points="332,-112.5 332,-131.5 386,-131.5 386,-112.5 332,-112.5"/>
<text text-anchor="middle" x="359" y="-119.5" font-family="Helvetica,sans-Serif" font-size="10.00">Iter.hpp</text>
</a>
</g>
</g>
<!-- Node3&#45;&gt;Node8 -->
<g id="edge7" class="edge">
<title>Node3&#45;&gt;Node8</title>
<path fill="none" stroke="midnightblue" d="M466.72,-168.44C445.65,-159.56 412.48,-145.56 388.51,-135.45"/>
<polygon fill="midnightblue" stroke="midnightblue" points="389.76,-132.18 379.19,-131.52 387.04,-138.63 389.76,-132.18"/>
</g>
<!-- Node9 -->
<g id="node9" class="node">
<title>Node9</title>
<g id="a_node9"><a xlink:href="StateOld_8hpp.html" target="_top" xlink:title=" ">
<polygon fill="none" stroke="black" points="234,-112.5 234,-131.5 314,-131.5 314,-112.5 234,-112.5"/>
<text text-anchor="middle" x="274" y="-119.5" font-family="Helvetica,sans-Serif" font-size="10.00">StateOld.hpp</text>
</a>
</g>
</g>
<!-- Node3&#45;&gt;Node9 -->
<g id="edge8" class="edge">
<title>Node3&#45;&gt;Node9</title>
<path fill="none" stroke="midnightblue" d="M453.25,-168.44C416.48,-159.12 357.55,-144.18 317.38,-134"/>
<polygon fill="midnightblue" stroke="midnightblue" points="318.15,-130.58 307.59,-131.52 316.43,-137.37 318.15,-130.58"/>
</g>
<!-- Node22 -->
<g id="node22" class="node">
<title>Node22</title>
<g id="a_node22"><a xlink:title=" ">
<polygon fill="none" stroke="#bfbfbf" points="404.5,-112.5 404.5,-131.5 459.5,-131.5 459.5,-112.5 404.5,-112.5"/>
<text text-anchor="middle" x="432" y="-119.5" font-family="Helvetica,sans-Serif" font-size="10.00">fstream</text>
</a>
</g>
</g>
<!-- Node3&#45;&gt;Node22 -->
<g id="edge23" class="edge">
<title>Node3&#45;&gt;Node22</title>
<path fill="none" stroke="midnightblue" d="M477.92,-168.08C469.83,-160.14 457.8,-148.34 448.09,-138.8"/>
<polygon fill="midnightblue" stroke="midnightblue" points="450.5,-136.26 440.91,-131.75 445.6,-141.25 450.5,-136.26"/>
</g>
<!-- Node3&#45;&gt;Node23 -->
<g id="edge24" class="edge">
<title>Node3&#45;&gt;Node23</title>
<path fill="none" stroke="midnightblue" d="M535.61,-175.76C668.45,-172.04 1035.51,-159.51 1153,-132 1201.73,-120.59 1254.82,-95.76 1285.09,-80.31"/>
<polygon fill="midnightblue" stroke="midnightblue" points="1286.81,-83.35 1294.08,-75.65 1283.59,-77.14 1286.81,-83.35"/>
</g>
<!-- Node24 -->
<g id="node24" class="node">
<title>Node24</title>
<g id="a_node24"><a xlink:title=" ">
<polygon fill="none" stroke="#bfbfbf" points="478,-112.5 478,-131.5 510,-131.5 510,-112.5 478,-112.5"/>
<text text-anchor="middle" x="494" y="-119.5" font-family="Helvetica,sans-Serif" font-size="10.00">set</text>
</a>
</g>
</g>
<!-- Node3&#45;&gt;Node24 -->
<g id="edge25" class="edge">
<title>Node3&#45;&gt;Node24</title>
<path fill="none" stroke="midnightblue" d="M488.16,-168.08C489.08,-160.93 490.42,-150.64 491.58,-141.69"/>
<polygon fill="midnightblue" stroke="midnightblue" points="495.05,-142.12 492.87,-131.75 488.11,-141.22 495.05,-142.12"/>
</g>
<!-- Node25 -->
<g id="node25" class="node">
<title>Node25</title>
<g id="a_node25"><a xlink:title=" ">
<polygon fill="none" stroke="#bfbfbf" points="528,-112.5 528,-131.5 614,-131.5 614,-112.5 528,-112.5"/>
<text text-anchor="middle" x="571" y="-119.5" font-family="Helvetica,sans-Serif" font-size="10.00">unordered_set</text>
</a>
</g>
</g>
<!-- Node3&#45;&gt;Node25 -->
<g id="edge27" class="edge">
<title>Node3&#45;&gt;Node25</title>
<path fill="none" stroke="midnightblue" d="M500.5,-168.32C513.6,-159.9 533.71,-146.97 549.11,-137.07"/>
<polygon fill="midnightblue" stroke="midnightblue" points="551.02,-140.01 557.54,-131.65 547.23,-134.12 551.02,-140.01"/>
</g>
<!-- Node3&#45;&gt;Node26 -->
<g id="edge28" class="edge">
<title>Node3&#45;&gt;Node26</title>
<path fill="none" stroke="midnightblue" d="M535.57,-169.6C603.35,-159.2 722.87,-140.57 766,-132 767.45,-131.71 768.94,-131.41 770.43,-131.09"/>
<polygon fill="midnightblue" stroke="midnightblue" points="771.34,-134.47 780.34,-128.88 769.82,-127.64 771.34,-134.47"/>
</g>
<!-- Node5 -->
<g id="node5" class="node">
<title>Node5</title>
<g id="a_node5"><a xlink:title=" ">
<polygon fill="none" stroke="#bfbfbf" points="659,-56.5 659,-75.5 697,-75.5 697,-56.5 659,-56.5"/>
<text text-anchor="middle" x="678" y="-63.5" font-family="Helvetica,sans-Serif" font-size="10.00">map</text>
</a>
</g>
</g>
<!-- Node4&#45;&gt;Node5 -->
<g id="edge4" class="edge">
<title>Node4&#45;&gt;Node5</title>
<path fill="none" stroke="midnightblue" d="M678,-112.08C678,-105.01 678,-94.86 678,-85.99"/>
<polygon fill="midnightblue" stroke="midnightblue" points="681.5,-85.75 678,-75.75 674.5,-85.75 681.5,-85.75"/>
</g>
<!-- Node4&#45;&gt;Node6 -->
<g id="edge5" class="edge">
<title>Node4&#45;&gt;Node6</title>
<path fill="none" stroke="midnightblue" d="M723.62,-112.61C770.66,-103.87 846.07,-89.57 911,-76 911.59,-75.88 912.18,-75.75 912.78,-75.63"/>
<polygon fill="midnightblue" stroke="midnightblue" points="913.58,-79.03 922.62,-73.5 912.1,-72.19 913.58,-79.03"/>
</g>
<!-- Node4&#45;&gt;Node7 -->
<g id="edge6" class="edge">
<title>Node4&#45;&gt;Node7</title>
<path fill="none" stroke="midnightblue" d="M693.91,-112.32C709.64,-103.74 733.94,-90.49 752.21,-80.52"/>
<polygon fill="midnightblue" stroke="midnightblue" points="754.03,-83.52 761.13,-75.65 750.68,-77.37 754.03,-83.52"/>
</g>
<!-- Node9&#45;&gt;Node7 -->
<g id="edge20" class="edge">
<title>Node9&#45;&gt;Node7</title>
<path fill="none" stroke="midnightblue" d="M314.06,-113.34C317.08,-112.86 320.09,-112.4 323,-112 492.35,-88.53 536.06,-94.75 706,-76 718.7,-74.6 732.66,-72.87 744.82,-71.3"/>
<polygon fill="midnightblue" stroke="midnightblue" points="745.49,-74.75 754.95,-69.98 744.59,-67.8 745.49,-74.75"/>
</g>
<!-- Node9&#45;&gt;Node10 -->
<g id="edge9" class="edge">
<title>Node9&#45;&gt;Node10</title>
<path fill="none" stroke="midnightblue" d="M314.06,-113.28C317.08,-112.81 320.08,-112.38 323,-112 537.38,-84.44 593.06,-98.83 808,-76 816.22,-75.13 824.99,-74.03 833.35,-72.9"/>
<polygon fill="midnightblue" stroke="midnightblue" points="833.85,-76.36 843.28,-71.52 832.89,-69.43 833.85,-76.36"/>
</g>
<!-- Node9&#45;&gt;Node12 -->
<g id="edge17" class="edge">
<title>Node9&#45;&gt;Node12</title>
<path fill="none" stroke="midnightblue" d="M314.17,-113.33C376.12,-101.41 488.19,-79.45 491,-76 496.61,-69.11 496.61,-62.89 491,-56 467.95,-27.67 359.75,-16.61 305.37,-12.79"/>
<polygon fill="midnightblue" stroke="midnightblue" points="305.46,-9.29 295.25,-12.12 305,-16.27 305.46,-9.29"/>
</g>
<!-- Node18 -->
<g id="node18" class="node">
<title>Node18</title>
<g id="a_node18"><a xlink:title=" ">
<polygon fill="none" stroke="#bfbfbf" points="356.5,-56.5 356.5,-75.5 403.5,-75.5 403.5,-56.5 356.5,-56.5"/>
<text text-anchor="middle" x="380" y="-63.5" font-family="Helvetica,sans-Serif" font-size="10.00">cmath</text>
</a>
</g>
</g>
<!-- Node9&#45;&gt;Node18 -->
<g id="edge18" class="edge">
<title>Node9&#45;&gt;Node18</title>
<path fill="none" stroke="midnightblue" d="M291.03,-112.32C308.03,-103.66 334.38,-90.24 353.99,-80.25"/>
<polygon fill="midnightblue" stroke="midnightblue" points="355.69,-83.31 363.01,-75.65 352.51,-77.08 355.69,-83.31"/>
</g>
<!-- Node19 -->
<g id="node19" class="node">
<title>Node19</title>
<g id="a_node19"><a xlink:title=" ">
<polygon fill="none" stroke="#bfbfbf" points="422,-56.5 422,-75.5 482,-75.5 482,-56.5 422,-56.5"/>
<text text-anchor="middle" x="452" y="-63.5" font-family="Helvetica,sans-Serif" font-size="10.00">iostream</text>
</a>
</g>
</g>
<!-- Node9&#45;&gt;Node19 -->
<g id="edge19" class="edge">
<title>Node9&#45;&gt;Node19</title>
<path fill="none" stroke="midnightblue" d="M302.2,-112.44C332.41,-103.28 380.51,-88.69 414.03,-78.52"/>
<polygon fill="midnightblue" stroke="midnightblue" points="415.37,-81.77 423.93,-75.52 413.34,-75.07 415.37,-81.77"/>
</g>
<!-- Node20 -->
<g id="node20" class="node">
<title>Node20</title>
<g id="a_node20"><a xlink:title=" ">
<polygon fill="none" stroke="#bfbfbf" points="66.5,-56.5 66.5,-75.5 191.5,-75.5 191.5,-56.5 66.5,-56.5"/>
<text text-anchor="middle" x="129" y="-63.5" font-family="Helvetica,sans-Serif" font-size="10.00">cereal/types/array.hpp</text>
</a>
</g>
</g>
<!-- Node9&#45;&gt;Node20 -->
<g id="edge21" class="edge">
<title>Node9&#45;&gt;Node20</title>
<path fill="none" stroke="midnightblue" d="M251.02,-112.44C226.84,-103.44 188.58,-89.19 161.35,-79.05"/>
<polygon fill="midnightblue" stroke="midnightblue" points="162.46,-75.73 151.87,-75.52 160.02,-82.29 162.46,-75.73"/>
</g>
<!-- Node21 -->
<g id="node21" class="node">
<title>Node21</title>
<g id="a_node21"><a xlink:title=" ">
<polygon fill="none" stroke="#bfbfbf" points="210,-56.5 210,-75.5 338,-75.5 338,-56.5 210,-56.5"/>
<text text-anchor="middle" x="274" y="-63.5" font-family="Helvetica,sans-Serif" font-size="10.00">cereal/types/string.hpp</text>
</a>
</g>
</g>
<!-- Node9&#45;&gt;Node21 -->
<g id="edge22" class="edge">
<title>Node9&#45;&gt;Node21</title>
<path fill="none" stroke="midnightblue" d="M274,-112.08C274,-105.01 274,-94.86 274,-85.99"/>
<polygon fill="midnightblue" stroke="midnightblue" points="277.5,-85.75 274,-75.75 270.5,-85.75 277.5,-85.75"/>
</g>
<!-- Node11 -->
<g id="node11" class="node">
<title>Node11</title>
<g id="a_node11"><a xlink:title=" ">
<polygon fill="none" stroke="#bfbfbf" points="760,-0.5 760,-19.5 824,-19.5 824,-0.5 760,-0.5"/>
<text text-anchor="middle" x="792" y="-7.5" font-family="Helvetica,sans-Serif" font-size="10.00">algorithm</text>
</a>
</g>
</g>
<!-- Node10&#45;&gt;Node11 -->
<g id="edge10" class="edge">
<title>Node10&#45;&gt;Node11</title>
<path fill="none" stroke="midnightblue" d="M859.99,-56.32C847.47,-47.98 828.32,-35.21 813.53,-25.35"/>
<polygon fill="midnightblue" stroke="midnightblue" points="815.24,-22.29 804.98,-19.65 811.36,-28.11 815.24,-22.29"/>
</g>
<!-- Node10&#45;&gt;Node12 -->
<g id="edge11" class="edge">
<title>Node10&#45;&gt;Node12</title>
<path fill="none" stroke="midnightblue" d="M843.27,-60.54C832.21,-58.98 819.55,-57.29 808,-56 617.52,-34.8 387.81,-18.58 305.35,-13.05"/>
<polygon fill="midnightblue" stroke="midnightblue" points="305.37,-9.55 295.15,-12.37 304.9,-16.53 305.37,-9.55"/>
</g>
<!-- Node13 -->
<g id="node13" class="node">
<title>Node13</title>
<g id="a_node13"><a xlink:title=" ">
<polygon fill="none" stroke="#bfbfbf" points="842.5,-0.5 842.5,-19.5 901.5,-19.5 901.5,-0.5 842.5,-0.5"/>
<text text-anchor="middle" x="872" y="-7.5" font-family="Helvetica,sans-Serif" font-size="10.00">complex</text>
</a>
</g>
</g>
<!-- Node10&#45;&gt;Node13 -->
<g id="edge12" class="edge">
<title>Node10&#45;&gt;Node13</title>
<path fill="none" stroke="midnightblue" d="M872.83,-56.08C872.7,-49.01 872.52,-38.86 872.35,-29.99"/>
<polygon fill="midnightblue" stroke="midnightblue" points="875.85,-29.68 872.16,-19.75 868.85,-29.81 875.85,-29.68"/>
</g>
<!-- Node14 -->
<g id="node14" class="node">
<title>Node14</title>
<g id="a_node14"><a xlink:title=" ">
<polygon fill="none" stroke="#bfbfbf" points="919.5,-0.5 919.5,-19.5 984.5,-19.5 984.5,-0.5 919.5,-0.5"/>
<text text-anchor="middle" x="952" y="-7.5" font-family="Helvetica,sans-Serif" font-size="10.00">functional</text>
</a>
</g>
</g>
<!-- Node10&#45;&gt;Node14 -->
<g id="edge13" class="edge">
<title>Node10&#45;&gt;Node14</title>
<path fill="none" stroke="midnightblue" d="M885.69,-56.32C897.9,-47.98 916.58,-35.21 931,-25.35"/>
<polygon fill="midnightblue" stroke="midnightblue" points="933.06,-28.19 939.34,-19.65 929.11,-22.41 933.06,-28.19"/>
</g>
<!-- Node15 -->
<g id="node15" class="node">
<title>Node15</title>
<g id="a_node15"><a xlink:title=" ">
<polygon fill="none" stroke="#bfbfbf" points="1003,-0.5 1003,-19.5 1057,-19.5 1057,-0.5 1003,-0.5"/>
<text text-anchor="middle" x="1030" y="-7.5" font-family="Helvetica,sans-Serif" font-size="10.00">random</text>
</a>
</g>
</g>
<!-- Node10&#45;&gt;Node15 -->
<g id="edge14" class="edge">
<title>Node10&#45;&gt;Node15</title>
<path fill="none" stroke="midnightblue" d="M897.88,-56.44C924.29,-47.36 966.22,-32.94 995.74,-22.78"/>
<polygon fill="midnightblue" stroke="midnightblue" points="996.92,-26.08 1005.24,-19.52 994.64,-19.46 996.92,-26.08"/>
</g>
<!-- Node16 -->
<g id="node16" class="node">
<title>Node16</title>
<g id="a_node16"><a xlink:title=" ">
<polygon fill="none" stroke="#bfbfbf" points="1075.5,-0.5 1075.5,-19.5 1144.5,-19.5 1144.5,-0.5 1075.5,-0.5"/>
<text text-anchor="middle" x="1110" y="-7.5" font-family="Helvetica,sans-Serif" font-size="10.00">type_traits</text>
</a>
</g>
</g>
<!-- Node10&#45;&gt;Node16 -->
<g id="edge15" class="edge">
<title>Node10&#45;&gt;Node16</title>
<path fill="none" stroke="midnightblue" d="M902.54,-58.27C943.46,-48.95 1017.74,-32.02 1065.43,-21.16"/>
<polygon fill="midnightblue" stroke="midnightblue" points="1066.5,-24.5 1075.47,-18.87 1064.95,-17.68 1066.5,-24.5"/>
</g>
<!-- Node17 -->
<g id="node17" class="node">
<title>Node17</title>
<g id="a_node17"><a xlink:title=" ">
<polygon fill="none" stroke="#bfbfbf" points="686,-0.5 686,-19.5 742,-19.5 742,-0.5 686,-0.5"/>
<text text-anchor="middle" x="714" y="-7.5" font-family="Helvetica,sans-Serif" font-size="10.00">unistd.h</text>
</a>
</g>
</g>
<!-- Node10&#45;&gt;Node17 -->
<g id="edge16" class="edge">
<title>Node10&#45;&gt;Node17</title>
<path fill="none" stroke="midnightblue" d="M847.81,-56.44C821.06,-47.36 778.6,-32.94 748.69,-22.78"/>
<polygon fill="midnightblue" stroke="midnightblue" points="749.67,-19.42 739.08,-19.52 747.42,-26.05 749.67,-19.42"/>
</g>
<!-- Node27&#45;&gt;Node7 -->
<g id="edge34" class="edge">
<title>Node27&#45;&gt;Node7</title>
<path fill="none" stroke="midnightblue" d="M215.7,-113.58C218.83,-112.98 221.97,-112.44 225,-112 437.11,-80.94 492.7,-97.49 706,-76 718.72,-74.72 732.68,-73.01 744.83,-71.43"/>
<polygon fill="midnightblue" stroke="midnightblue" points="745.51,-74.87 754.97,-70.09 744.59,-67.93 745.51,-74.87"/>
</g>
<!-- Node27&#45;&gt;Node10 -->
<g id="edge30" class="edge">
<title>Node27&#45;&gt;Node10</title>
<path fill="none" stroke="midnightblue" d="M215.7,-113.54C218.83,-112.95 221.97,-112.42 225,-112 482.11,-76.06 549.68,-101.82 808,-76 816.22,-75.18 825,-74.1 833.36,-72.98"/>
<polygon fill="midnightblue" stroke="midnightblue" points="833.86,-76.44 843.29,-71.6 832.9,-69.51 833.86,-76.44"/>
</g>
<!-- Node27&#45;&gt;Node12 -->
<g id="edge31" class="edge">
<title>Node27&#45;&gt;Node12</title>
<path fill="none" stroke="midnightblue" d="M152.31,-116.79C106,-109.36 28.31,-91.25 57,-56 80.05,-27.67 188.25,-16.61 242.63,-12.79"/>
<polygon fill="midnightblue" stroke="midnightblue" points="243,-16.27 252.75,-12.12 242.54,-9.29 243,-16.27"/>
</g>
<!-- Node27&#45;&gt;Node18 -->
<g id="edge32" class="edge">
<title>Node27&#45;&gt;Node18</title>
<path fill="none" stroke="midnightblue" d="M215.06,-112.44C250.97,-102.55 309.86,-86.32 346.7,-76.17"/>
<polygon fill="midnightblue" stroke="midnightblue" points="347.76,-79.51 356.47,-73.48 345.9,-72.76 347.76,-79.51"/>
</g>
<!-- Node27&#45;&gt;Node19 -->
<g id="edge33" class="edge">
<title>Node27&#45;&gt;Node19</title>
<path fill="none" stroke="midnightblue" d="M215.77,-113.94C218.88,-113.27 222,-112.62 225,-112 307.9,-94.93 329.15,-93.29 412,-76 412.1,-75.98 412.2,-75.96 412.3,-75.94"/>
<polygon fill="midnightblue" stroke="midnightblue" points="412.84,-79.4 421.88,-73.88 411.37,-72.56 412.84,-79.4"/>
</g>
<!-- Node27&#45;&gt;Node20 -->
<g id="edge35" class="edge">
<title>Node27&#45;&gt;Node20</title>
<path fill="none" stroke="midnightblue" d="M174.92,-112.08C166.83,-104.14 154.8,-92.34 145.09,-82.8"/>
<polygon fill="midnightblue" stroke="midnightblue" points="147.5,-80.26 137.91,-75.75 142.6,-85.25 147.5,-80.26"/>
</g>
<!-- Node27&#45;&gt;Node21 -->
<g id="edge36" class="edge">
<title>Node27&#45;&gt;Node21</title>
<path fill="none" stroke="midnightblue" d="M198.46,-112.32C212.5,-103.9 234.05,-90.97 250.54,-81.07"/>
<polygon fill="midnightblue" stroke="midnightblue" points="252.8,-83.8 259.58,-75.65 249.2,-77.8 252.8,-83.8"/>
</g>
<!-- Node28&#45;&gt;Node7 -->
<g id="edge57" class="edge">
<title>Node28&#45;&gt;Node7</title>
<path fill="none" stroke="midnightblue" d="M1224.56,-229.98C1215.64,-227.86 1205.98,-225.71 1197,-224 1087.16,-203.05 1048.29,-237.44 948,-188 904.59,-166.6 909.63,-139.79 870,-112 850.87,-98.58 827.12,-87.17 808.41,-79.19"/>
<polygon fill="midnightblue" stroke="midnightblue" points="809.72,-75.94 799.14,-75.34 807.03,-82.41 809.72,-75.94"/>
</g>
<!-- Node28&#45;&gt;Node26 -->
<g id="edge58" class="edge">
<title>Node28&#45;&gt;Node26</title>
<path fill="none" stroke="midnightblue" d="M1225.88,-229.98C1216.61,-227.77 1206.45,-225.56 1197,-224 1113.53,-210.18 881.23,-244.21 818,-188 805.21,-176.63 802.54,-156.64 802.56,-141.82"/>
<polygon fill="midnightblue" stroke="midnightblue" points="806.06,-141.86 802.97,-131.72 799.06,-141.57 806.06,-141.86"/>
</g>
<!-- Node29 -->
<g id="node29" class="node">
<title>Node29</title>
<g id="a_node29"><a xlink:href="QuantumDefect_8hpp.html" target="_top" xlink:title=" ">
<polygon fill="none" stroke="black" points="957.5,-168.5 957.5,-187.5 1072.5,-187.5 1072.5,-168.5 957.5,-168.5"/>
<text text-anchor="middle" x="1015" y="-175.5" font-family="Helvetica,sans-Serif" font-size="10.00">QuantumDefect.hpp</text>
</a>
</g>
</g>
<!-- Node28&#45;&gt;Node29 -->
<g id="edge38" class="edge">
<title>Node28&#45;&gt;Node29</title>
<path fill="none" stroke="midnightblue" d="M1223.18,-229.98C1180.15,-219.44 1106.83,-201.49 1059.69,-189.94"/>
<polygon fill="midnightblue" stroke="midnightblue" points="1060.3,-186.49 1049.75,-187.51 1058.63,-193.29 1060.3,-186.49"/>
</g>
<!-- Node34 -->
<g id="node34" class="node">
<title>Node34</title>
<g id="a_node34"><a xlink:href="EigenCompat_8hpp.html" target="_top" xlink:title=" ">
<polygon fill="none" stroke="black" points="1245.5,-168.5 1245.5,-187.5 1348.5,-187.5 1348.5,-168.5 1245.5,-168.5"/>
<text text-anchor="middle" x="1297" y="-175.5" font-family="Helvetica,sans-Serif" font-size="10.00">EigenCompat.hpp</text>
</a>
</g>
</g>
<!-- Node28&#45;&gt;Node34 -->
<g id="edge52" class="edge">
<title>Node28&#45;&gt;Node34</title>
<path fill="none" stroke="midnightblue" d="M1263.59,-229.98C1269.38,-221.14 1278.59,-207.09 1285.87,-195.98"/>
<polygon fill="midnightblue" stroke="midnightblue" points="1288.87,-197.79 1291.42,-187.51 1283.01,-193.95 1288.87,-197.79"/>
</g>
<!-- Node35 -->
<g id="node35" class="node">
<title>Node35</title>
<g id="a_node35"><a xlink:title=" ">
<polygon fill="none" stroke="#bfbfbf" points="1241.5,-112.5 1241.5,-131.5 1310.5,-131.5 1310.5,-112.5 1241.5,-112.5"/>
<text text-anchor="middle" x="1276" y="-119.5" font-family="Helvetica,sans-Serif" font-size="10.00">Eigen/Core</text>
</a>
</g>
</g>
<!-- Node28&#45;&gt;Node35 -->
<g id="edge54" class="edge">
<title>Node28&#45;&gt;Node35</title>
<path fill="none" stroke="midnightblue" d="M1251.71,-229.69C1242.92,-216.22 1228.88,-189.78 1237,-168 1241.17,-156.81 1249.52,-146.56 1257.42,-138.68"/>
<polygon fill="midnightblue" stroke="midnightblue" points="1260.06,-141 1265.01,-131.63 1255.3,-135.87 1260.06,-141"/>
</g>
<!-- Node36 -->
<g id="node36" class="node">
<title>Node36</title>
<g id="a_node36"><a xlink:title=" ">
<polygon fill="none" stroke="#bfbfbf" points="1105,-168.5 1105,-187.5 1151,-187.5 1151,-168.5 1105,-168.5"/>
<text text-anchor="middle" x="1128" y="-175.5" font-family="Helvetica,sans-Serif" font-size="10.00">cstdio</text>
</a>
</g>
</g>
<!-- Node28&#45;&gt;Node36 -->
<g id="edge55" class="edge">
<title>Node28&#45;&gt;Node36</title>
<path fill="none" stroke="midnightblue" d="M1239.37,-229.98C1217.56,-219.99 1181.2,-203.35 1155.98,-191.81"/>
<polygon fill="midnightblue" stroke="midnightblue" points="1157.14,-188.49 1146.59,-187.51 1154.23,-194.85 1157.14,-188.49"/>
</g>
<!-- Node37 -->
<g id="node37" class="node">
<title>Node37</title>
<g id="a_node37"><a xlink:title=" ">
<polygon fill="none" stroke="#bfbfbf" points="827,-168.5 827,-187.5 871,-187.5 871,-168.5 827,-168.5"/>
<text text-anchor="middle" x="849" y="-175.5" font-family="Helvetica,sans-Serif" font-size="10.00">limits</text>
</a>
</g>
</g>
<!-- Node28&#45;&gt;Node37 -->
<g id="edge56" class="edge">
<title>Node28&#45;&gt;Node37</title>
<path fill="none" stroke="midnightblue" d="M1225.22,-229.96C1216.13,-227.79 1206.22,-225.62 1197,-224 1059.52,-199.82 1022.33,-212.98 885,-188 883.75,-187.77 882.48,-187.53 881.2,-187.27"/>
<polygon fill="midnightblue" stroke="midnightblue" points="881.89,-183.84 871.37,-185.07 880.37,-190.67 881.89,-183.84"/>
</g>
<!-- Node29&#45;&gt;Node7 -->
<g id="edge51" class="edge">
<title>Node29&#45;&gt;Node7</title>
<path fill="none" stroke="midnightblue" d="M1002.96,-168.5C983.65,-155.13 944.21,-128.98 908,-112 875.37,-96.7 836.05,-83.9 809.06,-75.9"/>
<polygon fill="midnightblue" stroke="midnightblue" points="809.94,-72.51 799.36,-73.08 807.98,-79.24 809.94,-72.51"/>
</g>
<!-- Node29&#45;&gt;Node10 -->
<g id="edge50" class="edge">
<title>Node29&#45;&gt;Node10</title>
<path fill="none" stroke="midnightblue" d="M1013,-168.21C1009.43,-154.45 1000.75,-127.77 984,-112 972.88,-101.52 937.95,-88.25 910.21,-78.84"/>
<polygon fill="midnightblue" stroke="midnightblue" points="910.97,-75.4 900.37,-75.56 908.75,-82.04 910.97,-75.4"/>
</g>
<!-- Node30 -->
<g id="node30" class="node">
<title>Node30</title>
<g id="a_node30"><a xlink:href="SQLite_8hpp.html" target="_top" xlink:title=" ">
<polygon fill="none" stroke="black" points="1074.5,-112.5 1074.5,-131.5 1143.5,-131.5 1143.5,-112.5 1074.5,-112.5"/>
<text text-anchor="middle" x="1109" y="-119.5" font-family="Helvetica,sans-Serif" font-size="10.00">SQLite.hpp</text>
</a>
</g>
</g>
<!-- Node29&#45;&gt;Node30 -->
<g id="edge39" class="edge">
<title>Node29&#45;&gt;Node30</title>
<path fill="none" stroke="midnightblue" d="M1030.1,-168.32C1044.9,-159.82 1067.69,-146.73 1084.98,-136.8"/>
<polygon fill="midnightblue" stroke="midnightblue" points="1087.01,-139.67 1093.93,-131.65 1083.52,-133.6 1087.01,-139.67"/>
</g>
<!-- Node30&#45;&gt;Node6 -->
<g id="edge43" class="edge">
<title>Node30&#45;&gt;Node6</title>
<path fill="none" stroke="midnightblue" d="M1083.96,-112.44C1057.38,-103.36 1015.19,-88.94 985.48,-78.78"/>
<polygon fill="midnightblue" stroke="midnightblue" points="986.51,-75.44 975.92,-75.52 984.25,-82.06 986.51,-75.44"/>
</g>
<!-- Node30&#45;&gt;Node7 -->
<g id="edge44" class="edge">
<title>Node30&#45;&gt;Node7</title>
<path fill="none" stroke="midnightblue" d="M1074.41,-115.37C1009.88,-104.88 872.03,-82.46 809.29,-72.25"/>
<polygon fill="midnightblue" stroke="midnightblue" points="809.62,-68.76 799.19,-70.61 808.49,-75.67 809.62,-68.76"/>
</g>
<!-- Node30&#45;&gt;Node10 -->
<g id="edge49" class="edge">
<title>Node30&#45;&gt;Node10</title>
<path fill="none" stroke="midnightblue" d="M1074.43,-113.09C1031.34,-103.23 957.87,-86.42 912.57,-76.05"/>
<polygon fill="midnightblue" stroke="midnightblue" points="913.33,-72.64 902.8,-73.82 911.77,-79.46 913.33,-72.64"/>
</g>
<!-- Node30&#45;&gt;Node15 -->
<g id="edge42" class="edge">
<title>Node30&#45;&gt;Node15</title>
<path fill="none" stroke="midnightblue" d="M1102.8,-112.37C1089.76,-94.22 1059.3,-51.8 1042.2,-27.99"/>
<polygon fill="midnightblue" stroke="midnightblue" points="1044.85,-25.67 1036.17,-19.59 1039.16,-29.76 1044.85,-25.67"/>
</g>
<!-- Node30&#45;&gt;Node16 -->
<g id="edge46" class="edge">
<title>Node30&#45;&gt;Node16</title>
<path fill="none" stroke="midnightblue" d="M1109.08,-112.37C1109.24,-94.62 1109.61,-53.67 1109.83,-29.6"/>
<polygon fill="midnightblue" stroke="midnightblue" points="1113.33,-29.62 1109.92,-19.59 1106.33,-29.56 1113.33,-29.62"/>
</g>
<!-- Node30&#45;&gt;Node19 -->
<g id="edge40" class="edge">
<title>Node30&#45;&gt;Node19</title>
<path fill="none" stroke="midnightblue" d="M1074.14,-118.13C962.12,-108.93 611.72,-80.13 492.32,-70.31"/>
<polygon fill="midnightblue" stroke="midnightblue" points="492.4,-66.81 482.15,-69.48 491.83,-73.79 492.4,-66.81"/>
</g>
<!-- Node30&#45;&gt;Node23 -->
<g id="edge41" class="edge">
<title>Node30&#45;&gt;Node23</title>
<path fill="none" stroke="midnightblue" d="M1140.85,-112.44C1176.21,-102.94 1233.3,-87.61 1271.23,-77.42"/>
<polygon fill="midnightblue" stroke="midnightblue" points="1272.16,-80.79 1280.91,-74.82 1270.34,-74.03 1272.16,-80.79"/>
</g>
<!-- Node31 -->
<g id="node31" class="node">
<title>Node31</title>
<g id="a_node31"><a xlink:title=" ">
<polygon fill="none" stroke="#bfbfbf" points="1137,-56.5 1137,-75.5 1185,-75.5 1185,-56.5 1137,-56.5"/>
<text text-anchor="middle" x="1161" y="-63.5" font-family="Helvetica,sans-Serif" font-size="10.00">thread</text>
</a>
</g>
</g>
<!-- Node30&#45;&gt;Node31 -->
<g id="edge45" class="edge">
<title>Node30&#45;&gt;Node31</title>
<path fill="none" stroke="midnightblue" d="M1117.59,-112.08C1125.16,-104.22 1136.38,-92.57 1145.51,-83.08"/>
<polygon fill="midnightblue" stroke="midnightblue" points="1148.16,-85.38 1152.57,-75.75 1143.12,-80.53 1148.16,-85.38"/>
</g>
<!-- Node32 -->
<g id="node32" class="node">
<title>Node32</title>
<g id="a_node32"><a xlink:title=" ">
<polygon fill="none" stroke="#bfbfbf" points="1203.5,-56.5 1203.5,-75.5 1262.5,-75.5 1262.5,-56.5 1203.5,-56.5"/>
<text text-anchor="middle" x="1233" y="-63.5" font-family="Helvetica,sans-Serif" font-size="10.00">sqlite3.h</text>
</a>
</g>
</g>
<!-- Node30&#45;&gt;Node32 -->
<g id="edge47" class="edge">
<title>Node30&#45;&gt;Node32</title>
<path fill="none" stroke="midnightblue" d="M1128.65,-112.44C1148.96,-103.6 1180.9,-89.69 1204.1,-79.59"/>
<polygon fill="midnightblue" stroke="midnightblue" points="1205.67,-82.72 1213.44,-75.52 1202.88,-76.3 1205.67,-82.72"/>
</g>
<!-- Node33 -->
<g id="node33" class="node">
<title>Node33</title>
<g id="a_node33"><a xlink:title=" ">
<polygon fill="none" stroke="#bfbfbf" points="997.5,-56.5 997.5,-75.5 1042.5,-75.5 1042.5,-56.5 997.5,-56.5"/>
<text text-anchor="middle" x="1020" y="-63.5" font-family="Helvetica,sans-Serif" font-size="10.00">utility</text>
</a>
</g>
</g>
<!-- Node30&#45;&gt;Node33 -->
<g id="edge48" class="edge">
<title>Node30&#45;&gt;Node33</title>
<path fill="none" stroke="midnightblue" d="M1094.7,-112.32C1080.82,-103.9 1059.51,-90.97 1043.2,-81.07"/>
<polygon fill="midnightblue" stroke="midnightblue" points="1044.63,-77.85 1034.26,-75.65 1041,-83.83 1044.63,-77.85"/>
</g>
<!-- Node34&#45;&gt;Node35 -->
<g id="edge53" class="edge">
<title>Node34&#45;&gt;Node35</title>
<path fill="none" stroke="midnightblue" d="M1293.53,-168.08C1290.69,-160.77 1286.57,-150.18 1283.04,-141.1"/>
<polygon fill="midnightblue" stroke="midnightblue" points="1286.29,-139.8 1279.4,-131.75 1279.77,-142.34 1286.29,-139.8"/>
</g>
</g>
</svg>
        <g id="navigator" transform="translate(0 0)" fill="#404254">
                <rect fill="#f2f5e9" fill-opacity="0.5" stroke="#606060" stroke-width=".5" x="0" y="0" width="60" height="60"/>
                <use id="zoomplus" xlink:href="#zoomPlus" x="17" y="9" onmousedown="handleZoom(evt,'in')"/>
                <use id="zoomminus" xlink:href="#zoomMin" x="42" y="9" onmousedown="handleZoom(evt,'out')"/>
                <use id="reset" xlink:href="#resetDef" x="30" y="36" onmousedown="handleReset()"/>
                <g id="arrowUp" xlink:href="#dirArrow" transform="translate(30 24)" onmousedown="handlePan(0,-1)">
                  <use xlink:href="#rim" fill="#404040">
                        <set attributeName="fill" to="#808080" begin="arrowUp.mouseover" end="arrowUp.mouseout"/>
                  </use>
                  <path fill="none" stroke="white" stroke-width="1.5" d="M0,-3.0v7 M-2.5,-0.5L0,-3.0L2.5,-0.5"/>
                </g>
                <g id="arrowRight" xlink:href="#dirArrow" transform="rotate(90) translate(36 -43)" onmousedown="handlePan(1,0)">
                  <use xlink:href="#rim" fill="#404040">
                        <set attributeName="fill" to="#808080" begin="arrowRight.mouseover" end="arrowRight.mouseout"/>
                  </use>
                  <path fill="none" stroke="white" stroke-width="1.5" d="M0,-3.0v7 M-2.5,-0.5L0,-3.0L2.5,-0.5"/>
                </g>
                <g id="arrowDown" xlink:href="#dirArrow" transform="rotate(180) translate(-30 -48)" onmousedown="handlePan(0,1)">
                  <use xlink:href="#rim" fill="#404040">
                        <set attributeName="fill" to="#808080" begin="arrowDown.mouseover" end="arrowDown.mouseout"/>
                  </use>
                  <path fill="none" stroke="white" stroke-width="1.5" d="M0,-3.0v7 M-2.5,-0.5L0,-3.0L2.5,-0.5"/>
                </g>
                <g id="arrowLeft" xlink:href="#dirArrow" transform="rotate(270) translate(-36 17)" onmousedown="handlePan(-1,0)">
                  <use xlink:href="#rim" fill="#404040">
                        <set attributeName="fill" to="#808080" begin="arrowLeft.mouseover" end="arrowLeft.mouseout"/>
                  </use>
                  <path fill="none" stroke="white" stroke-width="1.5" d="M0,-3.0v7 M-2.5,-0.5L0,-3.0L2.5,-0.5"/>
                </g>
        </g>
        <svg viewBox="0 0 15 15" width="100%" height="30px" preserveAspectRatio="xMaxYMin meet">
         <g id="arrow_out" transform="scale(0.3 0.3)">
          <a xlink:href="PerturbativeInteraction_8hpp__incl_org.svg" target="_base">
           <rect id="button" ry="5" rx="5" y="6" x="6" height="38" width="38"
                fill="#f2f5e9" fill-opacity="0.5" stroke="#606060" stroke-width="1.0"/>
           <path id="arrow"
             d="M 11.500037,31.436501 C 11.940474,20.09759 22.043105,11.32322 32.158766,21.979434 L 37.068811,17.246167 C 37.068811,17.246167 37.088388,32 37.088388,32 L 22.160133,31.978069 C 22.160133,31.978069 26.997745,27.140456 26.997745,27.140456 C 18.528582,18.264221 13.291696,25.230495 11.500037,31.436501 z"
             style="fill:#404040;"/>
          </a>
         </g>
        </svg>
</svg>
