<?xml version="1.0" encoding="UTF-8" standalone="no"?>
<!DOCTYPE svg PUBLIC "-//W3C//DTD SVG 1.1//EN"
 "http://www.w3.org/Graphics/SVG/1.1/DTD/svg11.dtd">
<!-- Generated by graphviz version 2.43.0 (0)
 -->
<!-- Title: /__w/pairinteraction/pairinteraction/pairinteraction/PerturbativeInteraction.cpp Pages: 1 -->
<svg width="1527pt" height="453pt"
 viewBox="0.00 0.00 1527.00 453.00" xmlns="http://www.w3.org/2000/svg" xmlns:xlink="http://www.w3.org/1999/xlink">
<g id="graph0" class="graph" transform="scale(1 1) rotate(0) translate(4 449)">
<title>/__w/pairinteraction/pairinteraction/pairinteraction/PerturbativeInteraction.cpp</title>
<!-- Node1 -->
<g id="node1" class="node">
<title>Node1</title>
<g id="a_node1"><a xlink:title=" ">
<polygon fill="#bfbfbf" stroke="black" points="1233.5,-403.5 1233.5,-444.5 1398.5,-444.5 1398.5,-403.5 1233.5,-403.5"/>
<text text-anchor="start" x="1241.5" y="-432.5" font-family="Helvetica,sans-Serif" font-size="10.00">/__w/pairinteraction</text>
<text text-anchor="start" x="1241.5" y="-421.5" font-family="Helvetica,sans-Serif" font-size="10.00">/pairinteraction/pairinteraction</text>
<text text-anchor="middle" x="1316" y="-410.5" font-family="Helvetica,sans-Serif" font-size="10.00">/PerturbativeInteraction.cpp</text>
</a>
</g>
</g>
<!-- Node2 -->
<g id="node2" class="node">
<title>Node2</title>
<g id="a_node2"><a xlink:href="PerturbativeInteraction_8hpp.html" target="_top" xlink:title=" ">
<polygon fill="none" stroke="black" points="1100,-347.5 1100,-366.5 1250,-366.5 1250,-347.5 1100,-347.5"/>
<text text-anchor="middle" x="1175" y="-354.5" font-family="Helvetica,sans-Serif" font-size="10.00">PerturbativeInteraction.hpp</text>
</a>
</g>
</g>
<!-- Node1&#45;&gt;Node2 -->
<g id="edge1" class="edge">
<title>Node1&#45;&gt;Node2</title>
<path fill="none" stroke="midnightblue" d="M1273.7,-403.5C1250.83,-392.96 1223.23,-380.23 1203.03,-370.92"/>
<polygon fill="midnightblue" stroke="midnightblue" points="1204.32,-367.66 1193.77,-366.65 1201.39,-374.02 1204.32,-367.66"/>
</g>
<!-- Node26 -->
<g id="node26" class="node">
<title>Node26</title>
<g id="a_node26"><a xlink:title=" ">
<polygon fill="none" stroke="#bfbfbf" points="539,-112.5 539,-131.5 625,-131.5 625,-112.5 539,-112.5"/>
<text text-anchor="middle" x="582" y="-119.5" font-family="Helvetica,sans-Serif" font-size="10.00">unordered_set</text>
</a>
</g>
</g>
<!-- Node1&#45;&gt;Node26 -->
<g id="edge75" class="edge">
<title>Node1&#45;&gt;Node26</title>
<path fill="none" stroke="midnightblue" d="M1309.2,-403.3C1293.82,-362.07 1252.16,-266.95 1182,-224 1125.3,-189.28 950.49,-199.46 885,-188 845.92,-181.16 836.76,-176.49 798,-168 742.11,-155.76 677.91,-142.48 634.12,-133.55"/>
<polygon fill="midnightblue" stroke="midnightblue" points="634.77,-130.11 624.27,-131.54 633.37,-136.97 634.77,-130.11"/>
</g>
<!-- Node35 -->
<g id="node35" class="node">
<title>Node35</title>
<g id="a_node35"><a xlink:href="EigenCompat_8hpp.html" target="_top" xlink:title=" ">
<polygon fill="none" stroke="black" points="1108.5,-168.5 1108.5,-187.5 1211.5,-187.5 1211.5,-168.5 1108.5,-168.5"/>
<text text-anchor="middle" x="1160" y="-175.5" font-family="Helvetica,sans-Serif" font-size="10.00">EigenCompat.hpp</text>
</a>
</g>
</g>
<!-- Node1&#45;&gt;Node35 -->
<g id="edge73" class="edge">
<title>Node1&#45;&gt;Node35</title>
<path fill="none" stroke="midnightblue" d="M1319.84,-403.47C1326.29,-364.59 1334.73,-276.72 1292,-224 1274.84,-202.83 1247.25,-191.58 1221.72,-185.61"/>
<polygon fill="midnightblue" stroke="midnightblue" points="1222.2,-182.14 1211.69,-183.5 1220.76,-188.99 1222.2,-182.14"/>
</g>
<!-- Node36 -->
<g id="node36" class="node">
<title>Node36</title>
<g id="a_node36"><a xlink:title=" ">
<polygon fill="none" stroke="#bfbfbf" points="1126.5,-112.5 1126.5,-131.5 1195.5,-131.5 1195.5,-112.5 1126.5,-112.5"/>
<text text-anchor="middle" x="1161" y="-119.5" font-family="Helvetica,sans-Serif" font-size="10.00">Eigen/Core</text>
</a>
</g>
</g>
<!-- Node1&#45;&gt;Node36 -->
<g id="edge74" class="edge">
<title>Node1&#45;&gt;Node36</title>
<path fill="none" stroke="midnightblue" d="M1326.27,-403.37C1331.18,-392.89 1336.52,-379.58 1339,-367 1351.46,-303.85 1354.88,-275.3 1316,-224 1283.55,-181.18 1227.33,-151.2 1192.26,-135.56"/>
<polygon fill="midnightblue" stroke="midnightblue" points="1193.53,-132.29 1182.96,-131.53 1190.75,-138.72 1193.53,-132.29"/>
</g>
<!-- Node44 -->
<g id="node44" class="node">
<title>Node44</title>
<g id="a_node44"><a xlink:href="Constants_8hpp.html" target="_top" xlink:title=" ">
<polygon fill="none" stroke="black" points="1420,-347.5 1420,-366.5 1506,-366.5 1506,-347.5 1420,-347.5"/>
<text text-anchor="middle" x="1463" y="-354.5" font-family="Helvetica,sans-Serif" font-size="10.00">Constants.hpp</text>
</a>
</g>
</g>
<!-- Node1&#45;&gt;Node44 -->
<g id="edge72" class="edge">
<title>Node1&#45;&gt;Node44</title>
<path fill="none" stroke="midnightblue" d="M1360.1,-403.5C1384.05,-392.91 1412.98,-380.12 1434.06,-370.8"/>
<polygon fill="midnightblue" stroke="midnightblue" points="1435.7,-373.9 1443.43,-366.65 1432.87,-367.5 1435.7,-373.9"/>
</g>
<!-- Node3 -->
<g id="node3" class="node">
<title>Node3</title>
<g id="a_node3"><a xlink:href="MatrixElementCache_8hpp.html" target="_top" xlink:title=" ">
<polygon fill="none" stroke="black" points="680,-291.5 680,-310.5 820,-310.5 820,-291.5 680,-291.5"/>
<text text-anchor="middle" x="750" y="-298.5" font-family="Helvetica,sans-Serif" font-size="10.00">MatrixElementCache.hpp</text>
</a>
</g>
</g>
<!-- Node2&#45;&gt;Node3 -->
<g id="edge2" class="edge">
<title>Node2&#45;&gt;Node3</title>
<path fill="none" stroke="midnightblue" d="M1107.66,-347.44C1031.34,-337.75 907.18,-321.97 827.06,-311.79"/>
<polygon fill="midnightblue" stroke="midnightblue" points="827.39,-308.3 817.03,-310.52 826.51,-315.25 827.39,-308.3"/>
</g>
<!-- Node13 -->
<g id="node13" class="node">
<title>Node13</title>
<g id="a_node13"><a xlink:title=" ">
<polygon fill="none" stroke="#bfbfbf" points="1305,-0.5 1305,-19.5 1347,-19.5 1347,-0.5 1305,-0.5"/>
<text text-anchor="middle" x="1326" y="-7.5" font-family="Helvetica,sans-Serif" font-size="10.00">array</text>
</a>
</g>
</g>
<!-- Node2&#45;&gt;Node13 -->
<g id="edge70" class="edge">
<title>Node2&#45;&gt;Node13</title>
<path fill="none" stroke="midnightblue" d="M1241.33,-347.48C1341.29,-332.77 1519,-298.46 1519,-240.5 1519,-240.5 1519,-240.5 1519,-121 1519,-47.42 1411.81,-22.42 1357.2,-14.45"/>
<polygon fill="midnightblue" stroke="midnightblue" points="1357.4,-10.95 1347.02,-13.08 1356.46,-17.89 1357.4,-10.95"/>
</g>
<!-- Node27 -->
<g id="node27" class="node">
<title>Node27</title>
<g id="a_node27"><a xlink:title=" ">
<polygon fill="none" stroke="#bfbfbf" points="435.5,-112.5 435.5,-131.5 482.5,-131.5 482.5,-112.5 435.5,-112.5"/>
<text text-anchor="middle" x="459" y="-119.5" font-family="Helvetica,sans-Serif" font-size="10.00">vector</text>
</a>
</g>
</g>
<!-- Node2&#45;&gt;Node27 -->
<g id="edge71" class="edge">
<title>Node2&#45;&gt;Node27</title>
<path fill="none" stroke="midnightblue" d="M1099.8,-352.06C912.42,-341.46 436.54,-309.37 392,-255 361.61,-217.91 411.11,-164.76 440.19,-138.67"/>
<polygon fill="midnightblue" stroke="midnightblue" points="442.86,-140.98 448.11,-131.78 438.27,-135.7 442.86,-140.98"/>
</g>
<!-- Node28 -->
<g id="node28" class="node">
<title>Node28</title>
<g id="a_node28"><a xlink:href="State_8hpp.html" target="_top" xlink:title=" ">
<polygon fill="none" stroke="black" points="1213.5,-112.5 1213.5,-131.5 1276.5,-131.5 1276.5,-112.5 1213.5,-112.5"/>
<text text-anchor="middle" x="1245" y="-119.5" font-family="Helvetica,sans-Serif" font-size="10.00">State.hpp</text>
</a>
</g>
</g>
<!-- Node2&#45;&gt;Node28 -->
<g id="edge69" class="edge">
<title>Node2&#45;&gt;Node28</title>
<path fill="none" stroke="midnightblue" d="M1181.93,-347.32C1195.11,-330.46 1223.98,-291.67 1241,-255 1254.08,-226.81 1256.51,-218.75 1261,-188 1262.28,-179.2 1262.51,-176.76 1261,-168 1259.43,-158.91 1256.21,-149.22 1253.06,-141.17"/>
<polygon fill="midnightblue" stroke="midnightblue" points="1256.19,-139.6 1249.11,-131.72 1249.74,-142.3 1256.19,-139.6"/>
</g>
<!-- Node4 -->
<g id="node4" class="node">
<title>Node4</title>
<g id="a_node4"><a xlink:href="Basisnames_8hpp.html" target="_top" xlink:title=" ">
<polygon fill="none" stroke="black" points="266.5,-168.5 266.5,-187.5 363.5,-187.5 363.5,-168.5 266.5,-168.5"/>
<text text-anchor="middle" x="315" y="-175.5" font-family="Helvetica,sans-Serif" font-size="10.00">Basisnames.hpp</text>
</a>
</g>
</g>
<!-- Node3&#45;&gt;Node4 -->
<g id="edge3" class="edge">
<title>Node3&#45;&gt;Node4</title>
<path fill="none" stroke="midnightblue" d="M679.72,-298.08C585.4,-294.42 423.8,-284.01 373,-255 349.76,-241.73 332.78,-215.02 323.4,-197.07"/>
<polygon fill="midnightblue" stroke="midnightblue" points="326.44,-195.32 318.87,-187.91 320.17,-198.43 326.44,-195.32"/>
</g>
<!-- Node7 -->
<g id="node7" class="node">
<title>Node7</title>
<g id="a_node7"><a xlink:title=" ">
<polygon fill="none" stroke="#bfbfbf" points="0,-56.5 0,-75.5 56,-75.5 56,-56.5 0,-56.5"/>
<text text-anchor="middle" x="28" y="-63.5" font-family="Helvetica,sans-Serif" font-size="10.00">sstream</text>
</a>
</g>
</g>
<!-- Node3&#45;&gt;Node7 -->
<g id="edge65" class="edge">
<title>Node3&#45;&gt;Node7</title>
<path fill="none" stroke="midnightblue" d="M679.91,-296.97C561.74,-291.32 328.02,-277.64 249,-255 132.64,-221.66 69.38,-235.13 6,-132 -3.22,-116.99 5.55,-97.63 14.6,-83.96"/>
<polygon fill="midnightblue" stroke="midnightblue" points="17.68,-85.68 20.7,-75.52 12.01,-81.58 17.68,-85.68"/>
</g>
<!-- Node8 -->
<g id="node8" class="node">
<title>Node8</title>
<g id="a_node8"><a xlink:title=" ">
<polygon fill="none" stroke="#bfbfbf" points="578,-56.5 578,-75.5 622,-75.5 622,-56.5 578,-56.5"/>
<text text-anchor="middle" x="600" y="-63.5" font-family="Helvetica,sans-Serif" font-size="10.00">string</text>
</a>
</g>
</g>
<!-- Node3&#45;&gt;Node8 -->
<g id="edge66" class="edge">
<title>Node3&#45;&gt;Node8</title>
<path fill="none" stroke="midnightblue" d="M679.97,-296.39C579.31,-290.51 399.11,-277.24 338,-255 245.56,-221.36 200.36,-218.76 154,-132 112.22,-53.81 461.12,-87.74 549,-76 555.11,-75.18 561.6,-74.16 567.84,-73.1"/>
<polygon fill="midnightblue" stroke="midnightblue" points="568.74,-76.49 577.97,-71.3 567.51,-69.6 568.74,-76.49"/>
</g>
<!-- Node11 -->
<g id="node11" class="node">
<title>Node11</title>
<g id="a_node11"><a xlink:href="utils_8hpp.html" target="_top" xlink:title=" ">
<polygon fill="none" stroke="black" points="922.5,-56.5 922.5,-75.5 981.5,-75.5 981.5,-56.5 922.5,-56.5"/>
<text text-anchor="middle" x="952" y="-63.5" font-family="Helvetica,sans-Serif" font-size="10.00">utils.hpp</text>
</a>
</g>
</g>
<!-- Node3&#45;&gt;Node11 -->
<g id="edge60" class="edge">
<title>Node3&#45;&gt;Node11</title>
<path fill="none" stroke="midnightblue" d="M820.23,-297.73C936.41,-293.25 1158.27,-281.33 1182,-255 1191.22,-244.77 1189.56,-235.52 1182,-224 1159.94,-190.38 1134.09,-207.63 1099,-188 1061.12,-166.81 1052.46,-159.64 1019,-132 1000.2,-116.47 980.35,-96.74 967.19,-83.11"/>
<polygon fill="midnightblue" stroke="midnightblue" points="969.7,-80.68 960.26,-75.87 964.64,-85.52 969.7,-80.68"/>
</g>
<!-- Node24 -->
<g id="node24" class="node">
<title>Node24</title>
<g id="a_node24"><a xlink:title=" ">
<polygon fill="none" stroke="#bfbfbf" points="482,-56.5 482,-75.5 540,-75.5 540,-56.5 482,-56.5"/>
<text text-anchor="middle" x="511" y="-63.5" font-family="Helvetica,sans-Serif" font-size="10.00">memory</text>
</a>
</g>
</g>
<!-- Node3&#45;&gt;Node24 -->
<g id="edge64" class="edge">
<title>Node3&#45;&gt;Node24</title>
<path fill="none" stroke="midnightblue" d="M679.78,-295.71C584.43,-289.15 423.76,-275.23 406,-255 365.37,-208.71 449.51,-204.1 491,-132 499.28,-117.61 504.5,-99.42 507.52,-85.94"/>
<polygon fill="midnightblue" stroke="midnightblue" points="511,-86.41 509.56,-75.91 504.14,-85.02 511,-86.41"/>
</g>
<!-- Node3&#45;&gt;Node28 -->
<g id="edge30" class="edge">
<title>Node3&#45;&gt;Node28</title>
<path fill="none" stroke="midnightblue" d="M820.22,-297.71C943.13,-293.06 1187.04,-280.68 1216,-255 1248.24,-226.42 1249.15,-170.92 1247.09,-141.83"/>
<polygon fill="midnightblue" stroke="midnightblue" points="1250.56,-141.41 1246.18,-131.77 1243.59,-142.04 1250.56,-141.41"/>
</g>
<!-- Node29 -->
<g id="node29" class="node">
<title>Node29</title>
<g id="a_node29"><a xlink:href="Wavefunction_8hpp.html" target="_top" xlink:title=" ">
<polygon fill="none" stroke="black" points="415.5,-230 415.5,-249 520.5,-249 520.5,-230 415.5,-230"/>
<text text-anchor="middle" x="468" y="-237" font-family="Helvetica,sans-Serif" font-size="10.00">Wavefunction.hpp</text>
</a>
</g>
</g>
<!-- Node3&#45;&gt;Node29 -->
<g id="edge38" class="edge">
<title>Node3&#45;&gt;Node29</title>
<path fill="none" stroke="midnightblue" d="M705.88,-291.46C661.21,-282.7 590.18,-268.5 529,-255 523.88,-253.87 518.53,-252.65 513.22,-251.42"/>
<polygon fill="midnightblue" stroke="midnightblue" points="513.65,-247.93 503.12,-249.05 512.05,-254.74 513.65,-247.93"/>
</g>
<!-- Node39 -->
<g id="node39" class="node">
<title>Node39</title>
<g id="a_node39"><a xlink:title=" ">
<polygon fill="none" stroke="#bfbfbf" points="538.5,-224.5 538.5,-254.5 667.5,-254.5 667.5,-224.5 538.5,-224.5"/>
<text text-anchor="start" x="546.5" y="-242.5" font-family="Helvetica,sans-Serif" font-size="10.00">cereal/types/unordered</text>
<text text-anchor="middle" x="603" y="-231.5" font-family="Helvetica,sans-Serif" font-size="10.00">_map.hpp</text>
</a>
</g>
</g>
<!-- Node3&#45;&gt;Node39 -->
<g id="edge61" class="edge">
<title>Node3&#45;&gt;Node39</title>
<path fill="none" stroke="midnightblue" d="M728.94,-291.48C707.63,-282.85 674.06,-269.26 646.94,-258.29"/>
<polygon fill="midnightblue" stroke="midnightblue" points="648.23,-255.03 637.64,-254.52 645.6,-261.52 648.23,-255.03"/>
</g>
<!-- Node40 -->
<g id="node40" class="node">
<title>Node40</title>
<g id="a_node40"><a xlink:title=" ">
<polygon fill="none" stroke="#bfbfbf" points="685.5,-224.5 685.5,-254.5 814.5,-254.5 814.5,-224.5 685.5,-224.5"/>
<text text-anchor="start" x="693.5" y="-242.5" font-family="Helvetica,sans-Serif" font-size="10.00">cereal/types/unordered</text>
<text text-anchor="middle" x="750" y="-231.5" font-family="Helvetica,sans-Serif" font-size="10.00">_set.hpp</text>
</a>
</g>
</g>
<!-- Node3&#45;&gt;Node40 -->
<g id="edge62" class="edge">
<title>Node3&#45;&gt;Node40</title>
<path fill="none" stroke="midnightblue" d="M750,-291.48C750,-284.47 750,-274.19 750,-264.7"/>
<polygon fill="midnightblue" stroke="midnightblue" points="753.5,-264.52 750,-254.52 746.5,-264.52 753.5,-264.52"/>
</g>
<!-- Node41 -->
<g id="node41" class="node">
<title>Node41</title>
<g id="a_node41"><a xlink:title=" ">
<polygon fill="none" stroke="#bfbfbf" points="833,-224.5 833,-254.5 1003,-254.5 1003,-224.5 833,-224.5"/>
<text text-anchor="start" x="841" y="-242.5" font-family="Helvetica,sans-Serif" font-size="10.00">wignerSymbols/wignerSymbols</text>
<text text-anchor="middle" x="918" y="-231.5" font-family="Helvetica,sans-Serif" font-size="10.00">&#45;cpp.h</text>
</a>
</g>
</g>
<!-- Node3&#45;&gt;Node41 -->
<g id="edge63" class="edge">
<title>Node3&#45;&gt;Node41</title>
<path fill="none" stroke="midnightblue" d="M774.07,-291.48C798.63,-282.78 837.45,-269.03 868.59,-258"/>
<polygon fill="midnightblue" stroke="midnightblue" points="870.15,-261.16 878.41,-254.52 867.81,-254.56 870.15,-261.16"/>
</g>
<!-- Node42 -->
<g id="node42" class="node">
<title>Node42</title>
<g id="a_node42"><a xlink:title=" ">
<polygon fill="none" stroke="#bfbfbf" points="1021.5,-230 1021.5,-249 1062.5,-249 1062.5,-230 1021.5,-230"/>
<text text-anchor="middle" x="1042" y="-237" font-family="Helvetica,sans-Serif" font-size="10.00">tuple</text>
</a>
</g>
</g>
<!-- Node3&#45;&gt;Node42 -->
<g id="edge67" class="edge">
<title>Node3&#45;&gt;Node42</title>
<path fill="none" stroke="midnightblue" d="M820.22,-293.34C873.72,-286.99 948.71,-275.28 1012,-255 1013.67,-254.47 1015.36,-253.86 1017.05,-253.19"/>
<polygon fill="midnightblue" stroke="midnightblue" points="1018.73,-256.28 1026.46,-249.03 1015.9,-249.87 1018.73,-256.28"/>
</g>
<!-- Node43 -->
<g id="node43" class="node">
<title>Node43</title>
<g id="a_node43"><a xlink:title=" ">
<polygon fill="none" stroke="#bfbfbf" points="1080.5,-230 1080.5,-249 1173.5,-249 1173.5,-230 1080.5,-230"/>
<text text-anchor="middle" x="1127" y="-237" font-family="Helvetica,sans-Serif" font-size="10.00">unordered_map</text>
</a>
</g>
</g>
<!-- Node3&#45;&gt;Node43 -->
<g id="edge68" class="edge">
<title>Node3&#45;&gt;Node43</title>
<path fill="none" stroke="midnightblue" d="M820.21,-292.5C885.5,-284.96 985.31,-272.04 1071,-255 1076.1,-253.99 1081.43,-252.79 1086.69,-251.52"/>
<polygon fill="midnightblue" stroke="midnightblue" points="1087.78,-254.86 1096.63,-249.04 1086.08,-248.07 1087.78,-254.86"/>
</g>
<!-- Node5 -->
<g id="node5" class="node">
<title>Node5</title>
<g id="a_node5"><a xlink:href="ConfParser_8hpp.html" target="_top" xlink:title=" ">
<polygon fill="none" stroke="black" points="15.5,-112.5 15.5,-131.5 106.5,-131.5 106.5,-112.5 15.5,-112.5"/>
<text text-anchor="middle" x="61" y="-119.5" font-family="Helvetica,sans-Serif" font-size="10.00">ConfParser.hpp</text>
</a>
</g>
</g>
<!-- Node4&#45;&gt;Node5 -->
<g id="edge4" class="edge">
<title>Node4&#45;&gt;Node5</title>
<path fill="none" stroke="midnightblue" d="M274.75,-168.44C230.35,-159 158.85,-143.8 110.91,-133.61"/>
<polygon fill="midnightblue" stroke="midnightblue" points="111.57,-130.17 101.06,-131.52 110.11,-137.02 111.57,-130.17"/>
</g>
<!-- Node4&#45;&gt;Node8 -->
<g id="edge27" class="edge">
<title>Node4&#45;&gt;Node8</title>
<path fill="none" stroke="midnightblue" d="M330.01,-168.47C345.76,-159.49 371.2,-144.89 393,-132 407.76,-123.27 410.2,-118.66 426,-112 473.42,-92.01 531.97,-79.1 567.61,-72.44"/>
<polygon fill="midnightblue" stroke="midnightblue" points="568.69,-75.8 577.91,-70.58 567.44,-68.92 568.69,-75.8"/>
</g>
<!-- Node9 -->
<g id="node9" class="node">
<title>Node9</title>
<g id="a_node9"><a xlink:href="Iter_8hpp.html" target="_top" xlink:title=" ">
<polygon fill="none" stroke="black" points="163,-112.5 163,-131.5 217,-131.5 217,-112.5 163,-112.5"/>
<text text-anchor="middle" x="190" y="-119.5" font-family="Helvetica,sans-Serif" font-size="10.00">Iter.hpp</text>
</a>
</g>
</g>
<!-- Node4&#45;&gt;Node9 -->
<g id="edge8" class="edge">
<title>Node4&#45;&gt;Node9</title>
<path fill="none" stroke="midnightblue" d="M295.19,-168.44C274.71,-159.6 242.52,-145.69 219.14,-135.59"/>
<polygon fill="midnightblue" stroke="midnightblue" points="220.28,-132.27 209.71,-131.52 217.51,-138.7 220.28,-132.27"/>
</g>
<!-- Node10 -->
<g id="node10" class="node">
<title>Node10</title>
<g id="a_node10"><a xlink:href="StateOld_8hpp.html" target="_top" xlink:title=" ">
<polygon fill="none" stroke="black" points="1028,-112.5 1028,-131.5 1108,-131.5 1108,-112.5 1028,-112.5"/>
<text text-anchor="middle" x="1068" y="-119.5" font-family="Helvetica,sans-Serif" font-size="10.00">StateOld.hpp</text>
</a>
</g>
</g>
<!-- Node4&#45;&gt;Node10 -->
<g id="edge9" class="edge">
<title>Node4&#45;&gt;Node10</title>
<path fill="none" stroke="midnightblue" d="M363.54,-173.52C498.89,-163.81 879.62,-136.51 1017.42,-126.63"/>
<polygon fill="midnightblue" stroke="midnightblue" points="1017.96,-130.1 1027.68,-125.89 1017.46,-123.12 1017.96,-130.1"/>
</g>
<!-- Node23 -->
<g id="node23" class="node">
<title>Node23</title>
<g id="a_node23"><a xlink:title=" ">
<polygon fill="none" stroke="#bfbfbf" points="235.5,-112.5 235.5,-131.5 290.5,-131.5 290.5,-112.5 235.5,-112.5"/>
<text text-anchor="middle" x="263" y="-119.5" font-family="Helvetica,sans-Serif" font-size="10.00">fstream</text>
</a>
</g>
</g>
<!-- Node4&#45;&gt;Node23 -->
<g id="edge24" class="edge">
<title>Node4&#45;&gt;Node23</title>
<path fill="none" stroke="midnightblue" d="M306.41,-168.08C298.84,-160.22 287.62,-148.57 278.49,-139.08"/>
<polygon fill="midnightblue" stroke="midnightblue" points="280.88,-136.53 271.43,-131.75 275.84,-141.38 280.88,-136.53"/>
</g>
<!-- Node4&#45;&gt;Node24 -->
<g id="edge25" class="edge">
<title>Node4&#45;&gt;Node24</title>
<path fill="none" stroke="midnightblue" d="M323.4,-168.36C336.96,-154.79 365.01,-128.38 393,-112 417.84,-97.46 448.22,-86 471.94,-78.29"/>
<polygon fill="midnightblue" stroke="midnightblue" points="473.18,-81.57 481.66,-75.21 471.07,-74.89 473.18,-81.57"/>
</g>
<!-- Node25 -->
<g id="node25" class="node">
<title>Node25</title>
<g id="a_node25"><a xlink:title=" ">
<polygon fill="none" stroke="#bfbfbf" points="309,-112.5 309,-131.5 341,-131.5 341,-112.5 309,-112.5"/>
<text text-anchor="middle" x="325" y="-119.5" font-family="Helvetica,sans-Serif" font-size="10.00">set</text>
</a>
</g>
</g>
<!-- Node4&#45;&gt;Node25 -->
<g id="edge26" class="edge">
<title>Node4&#45;&gt;Node25</title>
<path fill="none" stroke="midnightblue" d="M316.65,-168.08C317.98,-160.93 319.88,-150.64 321.54,-141.69"/>
<polygon fill="midnightblue" stroke="midnightblue" points="325,-142.22 323.38,-131.75 318.12,-140.95 325,-142.22"/>
</g>
<!-- Node4&#45;&gt;Node26 -->
<g id="edge28" class="edge">
<title>Node4&#45;&gt;Node26</title>
<path fill="none" stroke="midnightblue" d="M357.31,-168.44C404.08,-158.98 479.46,-143.74 529.85,-133.55"/>
<polygon fill="midnightblue" stroke="midnightblue" points="530.78,-136.93 539.89,-131.52 529.4,-130.07 530.78,-136.93"/>
</g>
<!-- Node4&#45;&gt;Node27 -->
<g id="edge29" class="edge">
<title>Node4&#45;&gt;Node27</title>
<path fill="none" stroke="midnightblue" d="M337.82,-168.44C361.83,-159.44 399.83,-145.19 426.87,-135.05"/>
<polygon fill="midnightblue" stroke="midnightblue" points="428.16,-138.3 436.29,-131.52 425.7,-131.75 428.16,-138.3"/>
</g>
<!-- Node6 -->
<g id="node6" class="node">
<title>Node6</title>
<g id="a_node6"><a xlink:title=" ">
<polygon fill="none" stroke="#bfbfbf" points="74,-56.5 74,-75.5 112,-75.5 112,-56.5 74,-56.5"/>
<text text-anchor="middle" x="93" y="-63.5" font-family="Helvetica,sans-Serif" font-size="10.00">map</text>
</a>
</g>
</g>
<!-- Node5&#45;&gt;Node6 -->
<g id="edge5" class="edge">
<title>Node5&#45;&gt;Node6</title>
<path fill="none" stroke="midnightblue" d="M66.28,-112.08C70.71,-104.61 77.16,-93.72 82.62,-84.52"/>
<polygon fill="midnightblue" stroke="midnightblue" points="85.73,-86.14 87.81,-75.75 79.71,-82.57 85.73,-86.14"/>
</g>
<!-- Node5&#45;&gt;Node7 -->
<g id="edge6" class="edge">
<title>Node5&#45;&gt;Node7</title>
<path fill="none" stroke="midnightblue" d="M55.55,-112.08C50.99,-104.61 44.33,-93.72 38.71,-84.52"/>
<polygon fill="midnightblue" stroke="midnightblue" points="41.55,-82.46 33.35,-75.75 35.58,-86.11 41.55,-82.46"/>
</g>
<!-- Node5&#45;&gt;Node8 -->
<g id="edge7" class="edge">
<title>Node5&#45;&gt;Node8</title>
<path fill="none" stroke="midnightblue" d="M106.82,-113.81C111.6,-113.16 116.4,-112.54 121,-112 310.6,-89.83 359.7,-100.61 549,-76 555.11,-75.21 561.61,-74.19 567.84,-73.13"/>
<polygon fill="midnightblue" stroke="midnightblue" points="568.74,-76.53 577.98,-71.34 567.52,-69.63 568.74,-76.53"/>
</g>
<!-- Node10&#45;&gt;Node8 -->
<g id="edge21" class="edge">
<title>Node10&#45;&gt;Node8</title>
<path fill="none" stroke="midnightblue" d="M1027.69,-116.35C936.36,-105.81 715.13,-80.28 632.15,-70.71"/>
<polygon fill="midnightblue" stroke="midnightblue" points="632.4,-67.21 622.06,-69.55 631.59,-74.17 632.4,-67.21"/>
</g>
<!-- Node10&#45;&gt;Node11 -->
<g id="edge10" class="edge">
<title>Node10&#45;&gt;Node11</title>
<path fill="none" stroke="midnightblue" d="M1049.62,-112.44C1030.78,-103.68 1001.27,-89.94 979.62,-79.86"/>
<polygon fill="midnightblue" stroke="midnightblue" points="980.84,-76.56 970.29,-75.52 977.88,-82.91 980.84,-76.56"/>
</g>
<!-- Node10&#45;&gt;Node13 -->
<g id="edge18" class="edge">
<title>Node10&#45;&gt;Node13</title>
<path fill="none" stroke="midnightblue" d="M1056.19,-112.4C1039.68,-99.35 1013.38,-74.16 1029,-56 1046.18,-36.02 1221.38,-19.54 1294.36,-13.49"/>
<polygon fill="midnightblue" stroke="midnightblue" points="1295.07,-16.94 1304.75,-12.64 1294.5,-9.96 1295.07,-16.94"/>
</g>
<!-- Node19 -->
<g id="node19" class="node">
<title>Node19</title>
<g id="a_node19"><a xlink:title=" ">
<polygon fill="none" stroke="#bfbfbf" points="1262.5,-56.5 1262.5,-75.5 1309.5,-75.5 1309.5,-56.5 1262.5,-56.5"/>
<text text-anchor="middle" x="1286" y="-63.5" font-family="Helvetica,sans-Serif" font-size="10.00">cmath</text>
</a>
</g>
</g>
<!-- Node10&#45;&gt;Node19 -->
<g id="edge19" class="edge">
<title>Node10&#45;&gt;Node19</title>
<path fill="none" stroke="midnightblue" d="M1104.23,-112.5C1139.54,-104.15 1194.99,-90.85 1252.27,-76.13"/>
<polygon fill="midnightblue" stroke="midnightblue" points="1253.42,-79.45 1262.23,-73.57 1251.67,-72.67 1253.42,-79.45"/>
</g>
<!-- Node20 -->
<g id="node20" class="node">
<title>Node20</title>
<g id="a_node20"><a xlink:title=" ">
<polygon fill="none" stroke="#bfbfbf" points="1038,-56.5 1038,-75.5 1098,-75.5 1098,-56.5 1038,-56.5"/>
<text text-anchor="middle" x="1068" y="-63.5" font-family="Helvetica,sans-Serif" font-size="10.00">iostream</text>
</a>
</g>
</g>
<!-- Node10&#45;&gt;Node20 -->
<g id="edge20" class="edge">
<title>Node10&#45;&gt;Node20</title>
<path fill="none" stroke="midnightblue" d="M1068,-112.08C1068,-105.01 1068,-94.86 1068,-85.99"/>
<polygon fill="midnightblue" stroke="midnightblue" points="1071.5,-85.75 1068,-75.75 1064.5,-85.75 1071.5,-85.75"/>
</g>
<!-- Node21 -->
<g id="node21" class="node">
<title>Node21</title>
<g id="a_node21"><a xlink:title=" ">
<polygon fill="none" stroke="#bfbfbf" points="1327.5,-56.5 1327.5,-75.5 1452.5,-75.5 1452.5,-56.5 1327.5,-56.5"/>
<text text-anchor="middle" x="1390" y="-63.5" font-family="Helvetica,sans-Serif" font-size="10.00">cereal/types/array.hpp</text>
</a>
</g>
</g>
<!-- Node10&#45;&gt;Node21 -->
<g id="edge22" class="edge">
<title>Node10&#45;&gt;Node21</title>
<path fill="none" stroke="midnightblue" d="M1108.1,-113.57C1111.11,-113.03 1114.1,-112.5 1117,-112 1188.72,-99.5 1271.21,-86.03 1326.58,-77.12"/>
<polygon fill="midnightblue" stroke="midnightblue" points="1327.28,-80.55 1336.59,-75.51 1326.16,-73.64 1327.28,-80.55"/>
</g>
<!-- Node22 -->
<g id="node22" class="node">
<title>Node22</title>
<g id="a_node22"><a xlink:title=" ">
<polygon fill="none" stroke="#bfbfbf" points="1116,-56.5 1116,-75.5 1244,-75.5 1244,-56.5 1116,-56.5"/>
<text text-anchor="middle" x="1180" y="-63.5" font-family="Helvetica,sans-Serif" font-size="10.00">cereal/types/string.hpp</text>
</a>
</g>
</g>
<!-- Node10&#45;&gt;Node22 -->
<g id="edge23" class="edge">
<title>Node10&#45;&gt;Node22</title>
<path fill="none" stroke="midnightblue" d="M1085.99,-112.32C1104.04,-103.62 1132.05,-90.12 1152.8,-80.11"/>
<polygon fill="midnightblue" stroke="midnightblue" points="1154.56,-83.15 1162.05,-75.65 1151.52,-76.84 1154.56,-83.15"/>
</g>
<!-- Node12 -->
<g id="node12" class="node">
<title>Node12</title>
<g id="a_node12"><a xlink:title=" ">
<polygon fill="none" stroke="#bfbfbf" points="990,-0.5 990,-19.5 1054,-19.5 1054,-0.5 990,-0.5"/>
<text text-anchor="middle" x="1022" y="-7.5" font-family="Helvetica,sans-Serif" font-size="10.00">algorithm</text>
</a>
</g>
</g>
<!-- Node11&#45;&gt;Node12 -->
<g id="edge11" class="edge">
<title>Node11&#45;&gt;Node12</title>
<path fill="none" stroke="midnightblue" d="M963.25,-56.32C973.8,-48.18 989.8,-35.84 1002.44,-26.09"/>
<polygon fill="midnightblue" stroke="midnightblue" points="1004.77,-28.71 1010.55,-19.83 1000.49,-23.17 1004.77,-28.71"/>
</g>
<!-- Node11&#45;&gt;Node13 -->
<g id="edge12" class="edge">
<title>Node11&#45;&gt;Node13</title>
<path fill="none" stroke="midnightblue" d="M981.77,-58.63C986.52,-57.7 991.39,-56.79 996,-56 1105.2,-37.41 1235.77,-21.44 1294.57,-14.58"/>
<polygon fill="midnightblue" stroke="midnightblue" points="1295.16,-18.04 1304.69,-13.41 1294.36,-11.08 1295.16,-18.04"/>
</g>
<!-- Node14 -->
<g id="node14" class="node">
<title>Node14</title>
<g id="a_node14"><a xlink:title=" ">
<polygon fill="none" stroke="#bfbfbf" points="1072.5,-0.5 1072.5,-19.5 1131.5,-19.5 1131.5,-0.5 1072.5,-0.5"/>
<text text-anchor="middle" x="1102" y="-7.5" font-family="Helvetica,sans-Serif" font-size="10.00">complex</text>
</a>
</g>
</g>
<!-- Node11&#45;&gt;Node14 -->
<g id="edge13" class="edge">
<title>Node11&#45;&gt;Node14</title>
<path fill="none" stroke="midnightblue" d="M975.77,-56.44C1000.89,-47.4 1040.71,-33.06 1068.9,-22.92"/>
<polygon fill="midnightblue" stroke="midnightblue" points="1070.12,-26.2 1078.34,-19.52 1067.75,-19.61 1070.12,-26.2"/>
</g>
<!-- Node15 -->
<g id="node15" class="node">
<title>Node15</title>
<g id="a_node15"><a xlink:title=" ">
<polygon fill="none" stroke="#bfbfbf" points="832.5,-0.5 832.5,-19.5 897.5,-19.5 897.5,-0.5 832.5,-0.5"/>
<text text-anchor="middle" x="865" y="-7.5" font-family="Helvetica,sans-Serif" font-size="10.00">functional</text>
</a>
</g>
</g>
<!-- Node11&#45;&gt;Node15 -->
<g id="edge14" class="edge">
<title>Node11&#45;&gt;Node15</title>
<path fill="none" stroke="midnightblue" d="M938.02,-56.32C924.45,-47.9 903.62,-34.97 887.68,-25.07"/>
<polygon fill="midnightblue" stroke="midnightblue" points="889.29,-21.95 878.94,-19.65 885.59,-27.9 889.29,-21.95"/>
</g>
<!-- Node16 -->
<g id="node16" class="node">
<title>Node16</title>
<g id="a_node16"><a xlink:title=" ">
<polygon fill="none" stroke="#bfbfbf" points="652,-0.5 652,-19.5 706,-19.5 706,-0.5 652,-0.5"/>
<text text-anchor="middle" x="679" y="-7.5" font-family="Helvetica,sans-Serif" font-size="10.00">random</text>
</a>
</g>
</g>
<!-- Node11&#45;&gt;Node16 -->
<g id="edge15" class="edge">
<title>Node11&#45;&gt;Node16</title>
<path fill="none" stroke="midnightblue" d="M922.21,-58.01C919.11,-57.31 915.99,-56.63 913,-56 843.58,-41.32 762.13,-26.11 715.94,-17.67"/>
<polygon fill="midnightblue" stroke="midnightblue" points="716.55,-14.22 706.09,-15.87 715.3,-21.11 716.55,-14.22"/>
</g>
<!-- Node17 -->
<g id="node17" class="node">
<title>Node17</title>
<g id="a_node17"><a xlink:title=" ">
<polygon fill="none" stroke="#bfbfbf" points="738.5,-0.5 738.5,-19.5 807.5,-19.5 807.5,-0.5 738.5,-0.5"/>
<text text-anchor="middle" x="773" y="-7.5" font-family="Helvetica,sans-Serif" font-size="10.00">type_traits</text>
</a>
</g>
</g>
<!-- Node11&#45;&gt;Node17 -->
<g id="edge16" class="edge">
<title>Node11&#45;&gt;Node17</title>
<path fill="none" stroke="midnightblue" d="M923.64,-56.44C893.26,-47.28 844.89,-32.69 811.18,-22.52"/>
<polygon fill="midnightblue" stroke="midnightblue" points="811.82,-19.05 801.23,-19.52 809.79,-25.76 811.82,-19.05"/>
</g>
<!-- Node18 -->
<g id="node18" class="node">
<title>Node18</title>
<g id="a_node18"><a xlink:title=" ">
<polygon fill="none" stroke="#bfbfbf" points="916,-0.5 916,-19.5 972,-19.5 972,-0.5 916,-0.5"/>
<text text-anchor="middle" x="944" y="-7.5" font-family="Helvetica,sans-Serif" font-size="10.00">unistd.h</text>
</a>
</g>
</g>
<!-- Node11&#45;&gt;Node18 -->
<g id="edge17" class="edge">
<title>Node11&#45;&gt;Node18</title>
<path fill="none" stroke="midnightblue" d="M950.68,-56.08C949.62,-48.93 948.09,-38.64 946.77,-29.69"/>
<polygon fill="midnightblue" stroke="midnightblue" points="950.22,-29.13 945.3,-19.75 943.3,-30.16 950.22,-29.13"/>
</g>
<!-- Node28&#45;&gt;Node8 -->
<g id="edge35" class="edge">
<title>Node28&#45;&gt;Node8</title>
<path fill="none" stroke="midnightblue" d="M1213.3,-113.57C1210.17,-112.98 1207.03,-112.44 1204,-112 984.83,-80.18 927.79,-93.28 707,-76 681.88,-74.03 653.46,-71.63 632.22,-69.81"/>
<polygon fill="midnightblue" stroke="midnightblue" points="632.39,-66.31 622.13,-68.94 631.79,-73.28 632.39,-66.31"/>
</g>
<!-- Node28&#45;&gt;Node11 -->
<g id="edge31" class="edge">
<title>Node28&#45;&gt;Node11</title>
<path fill="none" stroke="midnightblue" d="M1213.24,-113.9C1210.12,-113.24 1207,-112.6 1204,-112 1129.12,-97.1 1041.27,-81.94 991.56,-73.57"/>
<polygon fill="midnightblue" stroke="midnightblue" points="992,-70.09 981.56,-71.89 990.84,-77 992,-70.09"/>
</g>
<!-- Node28&#45;&gt;Node13 -->
<g id="edge32" class="edge">
<title>Node28&#45;&gt;Node13</title>
<path fill="none" stroke="midnightblue" d="M1276.66,-119.19C1331.14,-115.35 1438.99,-104.27 1462,-76 1492.86,-38.09 1406.28,-20.9 1357.21,-14.37"/>
<polygon fill="midnightblue" stroke="midnightblue" points="1357.43,-10.87 1347.07,-13.1 1356.56,-17.82 1357.43,-10.87"/>
</g>
<!-- Node28&#45;&gt;Node19 -->
<g id="edge33" class="edge">
<title>Node28&#45;&gt;Node19</title>
<path fill="none" stroke="midnightblue" d="M1251.77,-112.08C1257.56,-104.46 1266.06,-93.26 1273.14,-83.94"/>
<polygon fill="midnightblue" stroke="midnightblue" points="1276.1,-85.83 1279.36,-75.75 1270.52,-81.6 1276.1,-85.83"/>
</g>
<!-- Node28&#45;&gt;Node20 -->
<g id="edge34" class="edge">
<title>Node28&#45;&gt;Node20</title>
<path fill="none" stroke="midnightblue" d="M1216.95,-112.44C1186.92,-103.28 1139.09,-88.69 1105.76,-78.52"/>
<polygon fill="midnightblue" stroke="midnightblue" points="1106.5,-75.09 1095.91,-75.52 1104.46,-81.78 1106.5,-75.09"/>
</g>
<!-- Node28&#45;&gt;Node21 -->
<g id="edge36" class="edge">
<title>Node28&#45;&gt;Node21</title>
<path fill="none" stroke="midnightblue" d="M1267.98,-112.44C1292.16,-103.44 1330.42,-89.19 1357.65,-79.05"/>
<polygon fill="midnightblue" stroke="midnightblue" points="1358.98,-82.29 1367.13,-75.52 1356.54,-75.73 1358.98,-82.29"/>
</g>
<!-- Node28&#45;&gt;Node22 -->
<g id="edge37" class="edge">
<title>Node28&#45;&gt;Node22</title>
<path fill="none" stroke="midnightblue" d="M1234.56,-112.32C1224.85,-104.26 1210.18,-92.08 1198.5,-82.37"/>
<polygon fill="midnightblue" stroke="midnightblue" points="1200.56,-79.53 1190.63,-75.83 1196.09,-84.92 1200.56,-79.53"/>
</g>
<!-- Node29&#45;&gt;Node8 -->
<g id="edge58" class="edge">
<title>Node29&#45;&gt;Node8</title>
<path fill="none" stroke="midnightblue" d="M496.04,-229.99C535.16,-216.42 604.61,-185.78 634,-132 643,-115.53 630.37,-96.47 618.02,-83.27"/>
<polygon fill="midnightblue" stroke="midnightblue" points="620.14,-80.44 610.57,-75.89 615.21,-85.41 620.14,-80.44"/>
</g>
<!-- Node29&#45;&gt;Node27 -->
<g id="edge59" class="edge">
<title>Node29&#45;&gt;Node27</title>
<path fill="none" stroke="midnightblue" d="M467.32,-229.82C465.88,-211.26 462.45,-167.34 460.48,-141.97"/>
<polygon fill="midnightblue" stroke="midnightblue" points="463.95,-141.48 459.68,-131.78 456.97,-142.02 463.95,-141.48"/>
</g>
<!-- Node30 -->
<g id="node30" class="node">
<title>Node30</title>
<g id="a_node30"><a xlink:href="QuantumDefect_8hpp.html" target="_top" xlink:title=" ">
<polygon fill="none" stroke="black" points="894.5,-168.5 894.5,-187.5 1009.5,-187.5 1009.5,-168.5 894.5,-168.5"/>
<text text-anchor="middle" x="952" y="-175.5" font-family="Helvetica,sans-Serif" font-size="10.00">QuantumDefect.hpp</text>
</a>
</g>
</g>
<!-- Node29&#45;&gt;Node30 -->
<g id="edge39" class="edge">
<title>Node29&#45;&gt;Node30</title>
<path fill="none" stroke="midnightblue" d="M500.45,-229.98C509.63,-227.79 519.67,-225.6 529,-224 653.38,-202.69 800.17,-189.78 884.05,-183.55"/>
<polygon fill="midnightblue" stroke="midnightblue" points="884.49,-187.03 894.21,-182.8 883.98,-180.05 884.49,-187.03"/>
</g>
<!-- Node29&#45;&gt;Node35 -->
<g id="edge53" class="edge">
<title>Node29&#45;&gt;Node35</title>
<path fill="none" stroke="midnightblue" d="M499.47,-229.98C508.9,-227.7 519.31,-225.47 529,-224 759.78,-188.89 820.24,-205.78 1053,-188 1067.65,-186.88 1083.42,-185.6 1098.23,-184.36"/>
<polygon fill="midnightblue" stroke="midnightblue" points="1098.64,-187.84 1108.31,-183.51 1098.05,-180.86 1098.64,-187.84"/>
</g>
<!-- Node29&#45;&gt;Node36 -->
<g id="edge55" class="edge">
<title>Node29&#45;&gt;Node36</title>
<path fill="none" stroke="midnightblue" d="M499.79,-229.93C509.14,-227.68 519.43,-225.48 529,-224 744.36,-190.7 806.86,-241.93 1018,-188 1062.44,-176.65 1110.2,-152.16 1137.75,-136.7"/>
<polygon fill="midnightblue" stroke="midnightblue" points="1139.66,-139.63 1146.61,-131.64 1136.19,-133.55 1139.66,-139.63"/>
</g>
<!-- Node37 -->
<g id="node37" class="node">
<title>Node37</title>
<g id="a_node37"><a xlink:title=" ">
<polygon fill="none" stroke="#bfbfbf" points="681,-168.5 681,-187.5 727,-187.5 727,-168.5 681,-168.5"/>
<text text-anchor="middle" x="704" y="-175.5" font-family="Helvetica,sans-Serif" font-size="10.00">cstdio</text>
</a>
</g>
</g>
<!-- Node29&#45;&gt;Node37 -->
<g id="edge56" class="edge">
<title>Node29&#45;&gt;Node37</title>
<path fill="none" stroke="midnightblue" d="M501.81,-229.98C546.98,-218.59 626.49,-198.54 671.16,-187.28"/>
<polygon fill="midnightblue" stroke="midnightblue" points="672.09,-190.65 680.93,-184.82 670.38,-183.87 672.09,-190.65"/>
</g>
<!-- Node38 -->
<g id="node38" class="node">
<title>Node38</title>
<g id="a_node38"><a xlink:title=" ">
<polygon fill="none" stroke="#bfbfbf" points="745,-168.5 745,-187.5 789,-187.5 789,-168.5 745,-168.5"/>
<text text-anchor="middle" x="767" y="-175.5" font-family="Helvetica,sans-Serif" font-size="10.00">limits</text>
</a>
</g>
</g>
<!-- Node29&#45;&gt;Node38 -->
<g id="edge57" class="edge">
<title>Node29&#45;&gt;Node38</title>
<path fill="none" stroke="midnightblue" d="M502.44,-229.93C511.09,-227.88 520.36,-225.78 529,-224 617.34,-205.84 643.27,-208.81 734.76,-188.08"/>
<polygon fill="midnightblue" stroke="midnightblue" points="735.77,-191.44 744.73,-185.79 734.2,-184.62 735.77,-191.44"/>
</g>
<!-- Node30&#45;&gt;Node8 -->
<g id="edge52" class="edge">
<title>Node30&#45;&gt;Node8</title>
<path fill="none" stroke="midnightblue" d="M894.24,-168.64C833.72,-159.45 742.96,-144.36 710,-132 676.2,-119.32 640.92,-96.49 619.7,-81.54"/>
<polygon fill="midnightblue" stroke="midnightblue" points="621.68,-78.66 611.51,-75.67 617.6,-84.34 621.68,-78.66"/>
</g>
<!-- Node30&#45;&gt;Node11 -->
<g id="edge51" class="edge">
<title>Node30&#45;&gt;Node11</title>
<path fill="none" stroke="midnightblue" d="M952,-168.37C952,-150.62 952,-109.67 952,-85.6"/>
<polygon fill="midnightblue" stroke="midnightblue" points="955.5,-85.59 952,-75.59 948.5,-85.59 955.5,-85.59"/>
</g>
<!-- Node31 -->
<g id="node31" class="node">
<title>Node31</title>
<g id="a_node31"><a xlink:href="SQLite_8hpp.html" target="_top" xlink:title=" ">
<polygon fill="none" stroke="black" points="719.5,-112.5 719.5,-131.5 788.5,-131.5 788.5,-112.5 719.5,-112.5"/>
<text text-anchor="middle" x="754" y="-119.5" font-family="Helvetica,sans-Serif" font-size="10.00">SQLite.hpp</text>
</a>
</g>
</g>
<!-- Node30&#45;&gt;Node31 -->
<g id="edge40" class="edge">
<title>Node30&#45;&gt;Node31</title>
<path fill="none" stroke="midnightblue" d="M920.63,-168.44C886.74,-159.2 832.6,-144.44 795.28,-134.26"/>
<polygon fill="midnightblue" stroke="midnightblue" points="795.8,-130.77 785.23,-131.52 793.95,-137.52 795.8,-130.77"/>
</g>
<!-- Node31&#45;&gt;Node7 -->
<g id="edge44" class="edge">
<title>Node31&#45;&gt;Node7</title>
<path fill="none" stroke="midnightblue" d="M719.35,-118.29C695.39,-116.45 662.76,-113.99 634,-112 384.54,-94.75 317.28,-113.58 66.34,-75.93"/>
<polygon fill="midnightblue" stroke="midnightblue" points="66.59,-72.43 56.18,-74.39 65.54,-79.35 66.59,-72.43"/>
</g>
<!-- Node31&#45;&gt;Node8 -->
<g id="edge45" class="edge">
<title>Node31&#45;&gt;Node8</title>
<path fill="none" stroke="midnightblue" d="M729.6,-112.44C703.2,-103.19 660.99,-88.39 631.96,-78.21"/>
<polygon fill="midnightblue" stroke="midnightblue" points="632.88,-74.82 622.29,-74.82 630.57,-81.43 632.88,-74.82"/>
</g>
<!-- Node31&#45;&gt;Node11 -->
<g id="edge50" class="edge">
<title>Node31&#45;&gt;Node11</title>
<path fill="none" stroke="midnightblue" d="M785.37,-112.44C819.76,-103.07 875,-88 912.36,-77.81"/>
<polygon fill="midnightblue" stroke="midnightblue" points="913.66,-81.08 922.39,-75.08 911.82,-74.33 913.66,-81.08"/>
</g>
<!-- Node31&#45;&gt;Node16 -->
<g id="edge43" class="edge">
<title>Node31&#45;&gt;Node16</title>
<path fill="none" stroke="midnightblue" d="M739.97,-112.27C728.06,-104.2 711.31,-91.18 701,-76 691.48,-61.99 685.75,-43.49 682.54,-29.81"/>
<polygon fill="midnightblue" stroke="midnightblue" points="685.88,-28.72 680.4,-19.66 679.03,-30.16 685.88,-28.72"/>
</g>
<!-- Node31&#45;&gt;Node17 -->
<g id="edge47" class="edge">
<title>Node31&#45;&gt;Node17</title>
<path fill="none" stroke="midnightblue" d="M740.04,-112.48C722.36,-100.52 695.48,-77.79 707,-56 714.42,-41.95 728.42,-31.47 741.62,-24.17"/>
<polygon fill="midnightblue" stroke="midnightblue" points="743.22,-27.28 750.54,-19.62 740.04,-21.04 743.22,-27.28"/>
</g>
<!-- Node31&#45;&gt;Node20 -->
<g id="edge41" class="edge">
<title>Node31&#45;&gt;Node20</title>
<path fill="none" stroke="midnightblue" d="M788.5,-115.07C846.94,-105.02 965.08,-84.7 1027.4,-73.98"/>
<polygon fill="midnightblue" stroke="midnightblue" points="1028.37,-77.37 1037.64,-72.22 1027.19,-70.47 1028.37,-77.37"/>
</g>
<!-- Node31&#45;&gt;Node24 -->
<g id="edge42" class="edge">
<title>Node31&#45;&gt;Node24</title>
<path fill="none" stroke="midnightblue" d="M719.44,-113.32C674.64,-103.36 596.72,-86.05 549.89,-75.64"/>
<polygon fill="midnightblue" stroke="midnightblue" points="550.64,-72.22 540.11,-73.47 549.12,-79.06 550.64,-72.22"/>
</g>
<!-- Node32 -->
<g id="node32" class="node">
<title>Node32</title>
<g id="a_node32"><a xlink:title=" ">
<polygon fill="none" stroke="#bfbfbf" points="716,-56.5 716,-75.5 764,-75.5 764,-56.5 716,-56.5"/>
<text text-anchor="middle" x="740" y="-63.5" font-family="Helvetica,sans-Serif" font-size="10.00">thread</text>
</a>
</g>
</g>
<!-- Node31&#45;&gt;Node32 -->
<g id="edge46" class="edge">
<title>Node31&#45;&gt;Node32</title>
<path fill="none" stroke="midnightblue" d="M751.69,-112.08C749.83,-104.93 747.16,-94.64 744.85,-85.69"/>
<polygon fill="midnightblue" stroke="midnightblue" points="748.17,-84.55 742.27,-75.75 741.39,-86.31 748.17,-84.55"/>
</g>
<!-- Node33 -->
<g id="node33" class="node">
<title>Node33</title>
<g id="a_node33"><a xlink:title=" ">
<polygon fill="none" stroke="#bfbfbf" points="782.5,-56.5 782.5,-75.5 841.5,-75.5 841.5,-56.5 782.5,-56.5"/>
<text text-anchor="middle" x="812" y="-63.5" font-family="Helvetica,sans-Serif" font-size="10.00">sqlite3.h</text>
</a>
</g>
</g>
<!-- Node31&#45;&gt;Node33 -->
<g id="edge48" class="edge">
<title>Node31&#45;&gt;Node33</title>
<path fill="none" stroke="midnightblue" d="M763.32,-112.32C771.89,-104.34 784.81,-92.31 795.19,-82.65"/>
<polygon fill="midnightblue" stroke="midnightblue" points="797.58,-85.21 802.51,-75.83 792.81,-80.09 797.58,-85.21"/>
</g>
<!-- Node34 -->
<g id="node34" class="node">
<title>Node34</title>
<g id="a_node34"><a xlink:title=" ">
<polygon fill="none" stroke="#bfbfbf" points="859.5,-56.5 859.5,-75.5 904.5,-75.5 904.5,-56.5 859.5,-56.5"/>
<text text-anchor="middle" x="882" y="-63.5" font-family="Helvetica,sans-Serif" font-size="10.00">utility</text>
</a>
</g>
</g>
<!-- Node31&#45;&gt;Node34 -->
<g id="edge49" class="edge">
<title>Node31&#45;&gt;Node34</title>
<path fill="none" stroke="midnightblue" d="M774.28,-112.44C795.35,-103.56 828.52,-89.56 852.49,-79.45"/>
<polygon fill="midnightblue" stroke="midnightblue" points="853.96,-82.63 861.81,-75.52 851.24,-76.18 853.96,-82.63"/>
</g>
<!-- Node35&#45;&gt;Node36 -->
<g id="edge54" class="edge">
<title>Node35&#45;&gt;Node36</title>
<path fill="none" stroke="midnightblue" d="M1160.17,-168.08C1160.3,-161.01 1160.48,-150.86 1160.65,-141.99"/>
<polygon fill="midnightblue" stroke="midnightblue" points="1164.15,-141.81 1160.84,-131.75 1157.15,-141.68 1164.15,-141.81"/>
</g>
</g>
</svg>
