<?xml version="1.0" encoding="UTF-8" standalone="no"?>
<!DOCTYPE svg PUBLIC "-//W3C//DTD SVG 1.1//EN"
 "http://www.w3.org/Graphics/SVG/1.1/DTD/svg11.dtd">
<!-- Generated by graphviz version 2.43.0 (0)
 -->
<!-- Title: energy_level Pages: 1 -->
<svg width="476pt" height="142pt"
 viewBox="0.00 0.00 476.00 142.00" xmlns="http://www.w3.org/2000/svg" xmlns:xlink="http://www.w3.org/1999/xlink">
<g id="graph0" class="graph" transform="scale(1 1) rotate(0) translate(4 138)">
<title>energy_level</title>
<!-- Node1 -->
<g id="node1" class="node">
<title>Node1</title>
<g id="a_node1"><a xlink:title="Returns only the energy of a state.">
<polygon fill="#bfbfbf" stroke="black" points="388,-66.5 388,-85.5 468,-85.5 468,-66.5 388,-66.5"/>
<text text-anchor="middle" x="428" y="-73.5" font-family="Helvetica,sans-Serif" font-size="10.00">energy_level</text>
</a>
</g>
</g>
<!-- Node2 -->
<g id="node2" class="node">
<title>Node2</title>
<g id="a_node2"><a xlink:href="classHamiltonianOne.html#a6a60cf7ca4f0af0566ce523e2d0915e0" target="_top" xlink:title=" ">
<polygon fill="none" stroke="black" points="222,-109.5 222,-128.5 348,-128.5 348,-109.5 222,-109.5"/>
<text text-anchor="middle" x="285" y="-116.5" font-family="Helvetica,sans-Serif" font-size="10.00">HamiltonianOne::build</text>
</a>
</g>
</g>
<!-- Node1&#45;&gt;Node2 -->
<g id="edge1" class="edge">
<title>Node1&#45;&gt;Node2</title>
<path fill="none" stroke="midnightblue" d="M385.99,-88.51C364.05,-95.2 337.45,-103.31 317.2,-109.48"/>
<polygon fill="midnightblue" stroke="midnightblue" points="387.16,-91.81 395.71,-85.54 385.12,-85.11 387.16,-91.81"/>
</g>
<!-- Node4 -->
<g id="node4" class="node">
<title>Node4</title>
<g id="a_node4"><a xlink:href="classStateOne.html#a6262da11406dbaa811f361cab2cf71b6" target="_top" xlink:title=" ">
<polygon fill="none" stroke="black" points="226.5,-66.5 226.5,-85.5 343.5,-85.5 343.5,-66.5 226.5,-66.5"/>
<text text-anchor="middle" x="285" y="-73.5" font-family="Helvetica,sans-Serif" font-size="10.00">StateOne::getEnergy</text>
</a>
</g>
</g>
<!-- Node1&#45;&gt;Node4 -->
<g id="edge3" class="edge">
<title>Node1&#45;&gt;Node4</title>
<path fill="none" stroke="midnightblue" d="M377.47,-76C366.5,-76 354.78,-76 343.52,-76"/>
<polygon fill="midnightblue" stroke="midnightblue" points="377.72,-79.5 387.72,-76 377.72,-72.5 377.72,-79.5"/>
</g>
<!-- Node7 -->
<g id="node7" class="node">
<title>Node7</title>
<g id="a_node7"><a xlink:href="classStateOneOld.html#a87391af707be61e934c06b4561ba5059" target="_top" xlink:title=" ">
<polygon fill="none" stroke="black" points="218,-19.5 218,-38.5 352,-38.5 352,-19.5 218,-19.5"/>
<text text-anchor="middle" x="285" y="-26.5" font-family="Helvetica,sans-Serif" font-size="10.00">StateOneOld::getEnergy</text>
</a>
</g>
</g>
<!-- Node1&#45;&gt;Node7 -->
<g id="edge6" class="edge">
<title>Node1&#45;&gt;Node7</title>
<path fill="none" stroke="midnightblue" d="M388.9,-63.3C365.64,-55.55 336.35,-45.78 314.97,-38.66"/>
<polygon fill="midnightblue" stroke="midnightblue" points="387.87,-66.65 398.47,-66.49 390.09,-60.01 387.87,-66.65"/>
</g>
<!-- Node3 -->
<g id="node3" class="node">
<title>Node3</title>
<g id="a_node3"><a xlink:href="classHamiltonianOne.html#a8f603206e4305d3340a1be6e7c2e51d6" target="_top" xlink:title=" ">
<polygon fill="none" stroke="black" points="0,-114.5 0,-133.5 182,-133.5 182,-114.5 0,-114.5"/>
<text text-anchor="middle" x="91" y="-121.5" font-family="Helvetica,sans-Serif" font-size="10.00">HamiltonianOne::HamiltonianOne</text>
</a>
</g>
</g>
<!-- Node2&#45;&gt;Node3 -->
<g id="edge2" class="edge">
<title>Node2&#45;&gt;Node3</title>
<path fill="none" stroke="midnightblue" d="M211.63,-120.88C201.99,-121.14 192.02,-121.4 182.13,-121.65"/>
<polygon fill="midnightblue" stroke="midnightblue" points="212.02,-124.38 221.93,-120.62 211.84,-117.38 212.02,-124.38"/>
</g>
<!-- Node5 -->
<g id="node5" class="node">
<title>Node5</title>
<g id="a_node5"><a xlink:href="classSystemOne.html#aaf50fe3da310c08d60248b5e931d15e8" target="_top" xlink:title="Method that allows base class to initialize Basis //////////////.">
<polygon fill="none" stroke="black" points="17.5,-76.5 17.5,-95.5 164.5,-95.5 164.5,-76.5 17.5,-76.5"/>
<text text-anchor="middle" x="91" y="-83.5" font-family="Helvetica,sans-Serif" font-size="10.00">SystemOne::initializeBasis</text>
</a>
</g>
</g>
<!-- Node4&#45;&gt;Node5 -->
<g id="edge4" class="edge">
<title>Node4&#45;&gt;Node5</title>
<path fill="none" stroke="midnightblue" d="M216.17,-79.53C199.45,-80.4 181.48,-81.34 164.55,-82.22"/>
<polygon fill="midnightblue" stroke="midnightblue" points="216.59,-83.02 226.39,-79 216.23,-76.03 216.59,-83.02"/>
</g>
<!-- Node6 -->
<g id="node6" class="node">
<title>Node6</title>
<g id="a_node6"><a xlink:href="integration__test_8cpp.html#a0af1002bd92a4dd0a9d058217f63447e" target="_top" xlink:title=" ">
<polygon fill="none" stroke="black" points="31.5,-38.5 31.5,-57.5 150.5,-57.5 150.5,-38.5 31.5,-38.5"/>
<text text-anchor="middle" x="91" y="-45.5" font-family="Helvetica,sans-Serif" font-size="10.00">TEST_CASE_FIXTURE</text>
</a>
</g>
</g>
<!-- Node4&#45;&gt;Node6 -->
<g id="edge5" class="edge">
<title>Node4&#45;&gt;Node6</title>
<path fill="none" stroke="midnightblue" d="M216.37,-66.14C194.89,-63.01 171.34,-59.57 150.56,-56.54"/>
<polygon fill="midnightblue" stroke="midnightblue" points="215.99,-69.62 226.39,-67.6 217,-62.69 215.99,-69.62"/>
</g>
<!-- Node8 -->
<g id="node8" class="node">
<title>Node8</title>
<g id="a_node8"><a xlink:href="classStateTwoOld.html#a3ecab4e3ec45aa3cc8cfe60b2b46d5f6" target="_top" xlink:title=" ">
<polygon fill="none" stroke="black" points="24.5,-0.5 24.5,-19.5 157.5,-19.5 157.5,-0.5 24.5,-0.5"/>
<text text-anchor="middle" x="91" y="-7.5" font-family="Helvetica,sans-Serif" font-size="10.00">StateTwoOld::getEnergy</text>
</a>
</g>
</g>
<!-- Node7&#45;&gt;Node8 -->
<g id="edge7" class="edge">
<title>Node7&#45;&gt;Node8</title>
<path fill="none" stroke="midnightblue" d="M207.71,-21.45C191.11,-19.81 173.69,-18.08 157.55,-16.49"/>
<polygon fill="midnightblue" stroke="midnightblue" points="207.63,-24.96 217.92,-22.46 208.32,-17.99 207.63,-24.96"/>
</g>
</g>
</svg>
