<?xml version="1.0" encoding="UTF-8" standalone="no"?>
<!DOCTYPE svg PUBLIC "-//W3C//DTD SVG 1.1//EN"
 "http://www.w3.org/Graphics/SVG/1.1/DTD/svg11.dtd">
<!-- Generated by graphviz version 2.43.0 (0)
 -->
<!-- Title: /__w/pairinteraction/pairinteraction/pairinteraction/QuantumDefect.hpp Pages: 1 -->
<svg width="1872pt" height="440pt"
 viewBox="0.00 0.00 1872.00 440.00" xmlns="http://www.w3.org/2000/svg" xmlns:xlink="http://www.w3.org/1999/xlink">
<g id="graph0" class="graph" transform="scale(1 1) rotate(0) translate(4 436)">
<title>/__w/pairinteraction/pairinteraction/pairinteraction/QuantumDefect.hpp</title>
<!-- Node1 -->
<g id="node1" class="node">
<title>Node1</title>
<g id="a_node1"><a xlink:title=" ">
<polygon fill="#bfbfbf" stroke="black" points="1124,-390.5 1124,-431.5 1289,-431.5 1289,-390.5 1124,-390.5"/>
<text text-anchor="start" x="1132" y="-419.5" font-family="Helvetica,sans-Serif" font-size="10.00">/__w/pairinteraction</text>
<text text-anchor="start" x="1132" y="-408.5" font-family="Helvetica,sans-Serif" font-size="10.00">/pairinteraction/pairinteraction</text>
<text text-anchor="middle" x="1206.5" y="-397.5" font-family="Helvetica,sans-Serif" font-size="10.00">/QuantumDefect.hpp</text>
</a>
</g>
</g>
<!-- Node2 -->
<g id="node2" class="node">
<title>Node2</title>
<g id="a_node2"><a xlink:href="MatrixElementCache_8cpp.html" target="_top" xlink:title=" ">
<polygon fill="none" stroke="black" points="0,-156.5 0,-197.5 165,-197.5 165,-156.5 0,-156.5"/>
<text text-anchor="start" x="8" y="-185.5" font-family="Helvetica,sans-Serif" font-size="10.00">/__w/pairinteraction</text>
<text text-anchor="start" x="8" y="-174.5" font-family="Helvetica,sans-Serif" font-size="10.00">/pairinteraction/pairinteraction</text>
<text text-anchor="middle" x="82.5" y="-163.5" font-family="Helvetica,sans-Serif" font-size="10.00">/MatrixElementCache.cpp</text>
</a>
</g>
</g>
<!-- Node1&#45;&gt;Node2 -->
<g id="edge1" class="edge">
<title>Node1&#45;&gt;Node2</title>
<path fill="none" stroke="midnightblue" d="M1113.64,-406.21C1003.08,-400.42 813.31,-386.39 653.5,-354 457.28,-314.23 232.38,-234.39 133.57,-197.51"/>
<polygon fill="midnightblue" stroke="midnightblue" points="1113.59,-409.72 1123.75,-406.73 1113.95,-402.73 1113.59,-409.72"/>
</g>
<!-- Node3 -->
<g id="node3" class="node">
<title>Node3</title>
<g id="a_node3"><a xlink:href="MatrixElements_8cpp.html" target="_top" xlink:title=" ">
<polygon fill="none" stroke="black" points="1529,-156.5 1529,-197.5 1694,-197.5 1694,-156.5 1529,-156.5"/>
<text text-anchor="start" x="1537" y="-185.5" font-family="Helvetica,sans-Serif" font-size="10.00">/__w/pairinteraction</text>
<text text-anchor="start" x="1537" y="-174.5" font-family="Helvetica,sans-Serif" font-size="10.00">/pairinteraction/pairinteraction</text>
<text text-anchor="middle" x="1611.5" y="-163.5" font-family="Helvetica,sans-Serif" font-size="10.00">/MatrixElements.cpp</text>
</a>
</g>
</g>
<!-- Node1&#45;&gt;Node3 -->
<g id="edge2" class="edge">
<title>Node1&#45;&gt;Node3</title>
<path fill="none" stroke="midnightblue" d="M1227.56,-382.66C1245.19,-361.21 1271.99,-331.78 1300.5,-312 1378.03,-258.21 1480.59,-219.2 1546.32,-197.57"/>
<polygon fill="midnightblue" stroke="midnightblue" points="1224.82,-380.47 1221.26,-390.45 1230.27,-384.87 1224.82,-380.47"/>
</g>
<!-- Node4 -->
<g id="node4" class="node">
<title>Node4</title>
<g id="a_node4"><a xlink:href="QuantumDefect_8cpp.html" target="_top" xlink:title=" ">
<polygon fill="none" stroke="black" points="1309,-312.5 1309,-353.5 1474,-353.5 1474,-312.5 1309,-312.5"/>
<text text-anchor="start" x="1317" y="-341.5" font-family="Helvetica,sans-Serif" font-size="10.00">/__w/pairinteraction</text>
<text text-anchor="start" x="1317" y="-330.5" font-family="Helvetica,sans-Serif" font-size="10.00">/pairinteraction/pairinteraction</text>
<text text-anchor="middle" x="1391.5" y="-319.5" font-family="Helvetica,sans-Serif" font-size="10.00">/QuantumDefect.cpp</text>
</a>
</g>
</g>
<!-- Node1&#45;&gt;Node4 -->
<g id="edge3" class="edge">
<title>Node1&#45;&gt;Node4</title>
<path fill="none" stroke="midnightblue" d="M1263.44,-386.61C1289.26,-376 1319.44,-363.6 1344.02,-353.51"/>
<polygon fill="midnightblue" stroke="midnightblue" points="1262.06,-383.39 1254.14,-390.43 1264.72,-389.87 1262.06,-383.39"/>
</g>
<!-- Node5 -->
<g id="node5" class="node">
<title>Node5</title>
<g id="a_node5"><a xlink:href="State_8cpp.html" target="_top" xlink:title=" ">
<polygon fill="none" stroke="black" points="183,-156.5 183,-197.5 348,-197.5 348,-156.5 183,-156.5"/>
<text text-anchor="start" x="191" y="-185.5" font-family="Helvetica,sans-Serif" font-size="10.00">/__w/pairinteraction</text>
<text text-anchor="start" x="191" y="-174.5" font-family="Helvetica,sans-Serif" font-size="10.00">/pairinteraction/pairinteraction</text>
<text text-anchor="middle" x="265.5" y="-163.5" font-family="Helvetica,sans-Serif" font-size="10.00">/State.cpp</text>
</a>
</g>
</g>
<!-- Node1&#45;&gt;Node5 -->
<g id="edge4" class="edge">
<title>Node1&#45;&gt;Node5</title>
<path fill="none" stroke="midnightblue" d="M1113.68,-402.03C1030.03,-393.73 904.03,-378.47 796.5,-354 686.31,-328.92 661.79,-311.48 554.5,-276 473.77,-249.3 380.67,-217.56 322.44,-197.59"/>
<polygon fill="midnightblue" stroke="midnightblue" points="1113.37,-405.51 1123.67,-403 1114.05,-398.55 1113.37,-405.51"/>
</g>
<!-- Node6 -->
<g id="node6" class="node">
<title>Node6</title>
<g id="a_node6"><a xlink:href="StateOld_8cpp.html" target="_top" xlink:title=" ">
<polygon fill="none" stroke="black" points="1492,-312.5 1492,-353.5 1657,-353.5 1657,-312.5 1492,-312.5"/>
<text text-anchor="start" x="1500" y="-341.5" font-family="Helvetica,sans-Serif" font-size="10.00">/__w/pairinteraction</text>
<text text-anchor="start" x="1500" y="-330.5" font-family="Helvetica,sans-Serif" font-size="10.00">/pairinteraction/pairinteraction</text>
<text text-anchor="middle" x="1574.5" y="-319.5" font-family="Helvetica,sans-Serif" font-size="10.00">/StateOld.cpp</text>
</a>
</g>
</g>
<!-- Node1&#45;&gt;Node6 -->
<g id="edge5" class="edge">
<title>Node1&#45;&gt;Node6</title>
<path fill="none" stroke="midnightblue" d="M1299.17,-391.67C1353.02,-380.92 1422.15,-366.94 1483.5,-354 1486.19,-353.43 1488.93,-352.85 1491.69,-352.26"/>
<polygon fill="midnightblue" stroke="midnightblue" points="1298.42,-388.25 1289.3,-393.64 1299.79,-395.12 1298.42,-388.25"/>
</g>
<!-- Node7 -->
<g id="node7" class="node">
<title>Node7</title>
<g id="a_node7"><a xlink:href="quantum__defect__test_8cpp.html" target="_top" xlink:title=" ">
<polygon fill="none" stroke="black" points="1675,-312.5 1675,-353.5 1864,-353.5 1864,-312.5 1675,-312.5"/>
<text text-anchor="start" x="1683" y="-341.5" font-family="Helvetica,sans-Serif" font-size="10.00">/__w/pairinteraction</text>
<text text-anchor="start" x="1683" y="-330.5" font-family="Helvetica,sans-Serif" font-size="10.00">/pairinteraction/pairinteraction</text>
<text text-anchor="middle" x="1769.5" y="-319.5" font-family="Helvetica,sans-Serif" font-size="10.00">/unit_test/quantum_defect_test.cpp</text>
</a>
</g>
</g>
<!-- Node1&#45;&gt;Node7 -->
<g id="edge6" class="edge">
<title>Node1&#45;&gt;Node7</title>
<path fill="none" stroke="midnightblue" d="M1298.96,-400.68C1392.04,-390.85 1539.6,-374.02 1666.5,-354 1669.29,-353.56 1672.12,-353.1 1674.97,-352.62"/>
<polygon fill="midnightblue" stroke="midnightblue" points="1298.59,-397.2 1289.01,-401.73 1299.32,-404.17 1298.59,-397.2"/>
</g>
<!-- Node8 -->
<g id="node8" class="node">
<title>Node8</title>
<g id="a_node8"><a xlink:href="wavefunction__test_8cpp.html" target="_top" xlink:title=" ">
<polygon fill="none" stroke="black" points="563.5,-234.5 563.5,-275.5 739.5,-275.5 739.5,-234.5 563.5,-234.5"/>
<text text-anchor="start" x="571.5" y="-263.5" font-family="Helvetica,sans-Serif" font-size="10.00">/__w/pairinteraction</text>
<text text-anchor="start" x="571.5" y="-252.5" font-family="Helvetica,sans-Serif" font-size="10.00">/pairinteraction/pairinteraction</text>
<text text-anchor="middle" x="651.5" y="-241.5" font-family="Helvetica,sans-Serif" font-size="10.00">/unit_test/wavefunction_test.cpp</text>
</a>
</g>
</g>
<!-- Node1&#45;&gt;Node8 -->
<g id="edge7" class="edge">
<title>Node1&#45;&gt;Node8</title>
<path fill="none" stroke="midnightblue" d="M1114.13,-394.43C1060.41,-384.57 991.64,-370.57 931.5,-354 849.32,-331.36 756.38,-297.04 700.93,-275.6"/>
<polygon fill="midnightblue" stroke="midnightblue" points="1113.52,-397.87 1123.98,-396.22 1114.77,-390.99 1113.52,-397.87"/>
</g>
<!-- Node9 -->
<g id="node9" class="node">
<title>Node9</title>
<g id="a_node9"><a xlink:href="Wavefunction_8cpp.html" target="_top" xlink:title=" ">
<polygon fill="none" stroke="black" points="1124,-234.5 1124,-275.5 1289,-275.5 1289,-234.5 1124,-234.5"/>
<text text-anchor="start" x="1132" y="-263.5" font-family="Helvetica,sans-Serif" font-size="10.00">/__w/pairinteraction</text>
<text text-anchor="start" x="1132" y="-252.5" font-family="Helvetica,sans-Serif" font-size="10.00">/pairinteraction/pairinteraction</text>
<text text-anchor="middle" x="1206.5" y="-241.5" font-family="Helvetica,sans-Serif" font-size="10.00">/Wavefunction.cpp</text>
</a>
</g>
</g>
<!-- Node1&#45;&gt;Node9 -->
<g id="edge8" class="edge">
<title>Node1&#45;&gt;Node9</title>
<path fill="none" stroke="midnightblue" d="M1206.5,-380.36C1206.5,-349.61 1206.5,-302.36 1206.5,-275.83"/>
<polygon fill="midnightblue" stroke="midnightblue" points="1203,-380.5 1206.5,-390.5 1210,-380.5 1203,-380.5"/>
</g>
<!-- Node10 -->
<g id="node10" class="node">
<title>Node10</title>
<g id="a_node10"><a xlink:href="Wavefunction_8hpp.html" target="_top" xlink:title=" ">
<polygon fill="none" stroke="black" points="941,-312.5 941,-353.5 1106,-353.5 1106,-312.5 941,-312.5"/>
<text text-anchor="start" x="949" y="-341.5" font-family="Helvetica,sans-Serif" font-size="10.00">/__w/pairinteraction</text>
<text text-anchor="start" x="949" y="-330.5" font-family="Helvetica,sans-Serif" font-size="10.00">/pairinteraction/pairinteraction</text>
<text text-anchor="middle" x="1023.5" y="-319.5" font-family="Helvetica,sans-Serif" font-size="10.00">/Wavefunction.hpp</text>
</a>
</g>
</g>
<!-- Node1&#45;&gt;Node10 -->
<g id="edge9" class="edge">
<title>Node1&#45;&gt;Node10</title>
<path fill="none" stroke="midnightblue" d="M1149.84,-386.47C1124.37,-375.89 1094.67,-363.56 1070.47,-353.51"/>
<polygon fill="midnightblue" stroke="midnightblue" points="1148.8,-389.82 1159.37,-390.43 1151.48,-383.36 1148.8,-389.82"/>
</g>
<!-- Node10&#45;&gt;Node8 -->
<g id="edge28" class="edge">
<title>Node10&#45;&gt;Node8</title>
<path fill="none" stroke="midnightblue" d="M930.64,-313.15C877.34,-302.31 809.15,-288.43 748.5,-276 745.55,-275.4 742.55,-274.78 739.53,-274.16"/>
<polygon fill="midnightblue" stroke="midnightblue" points="930.26,-316.64 940.76,-315.21 931.65,-309.78 930.26,-316.64"/>
</g>
<!-- Node10&#45;&gt;Node9 -->
<g id="edge29" class="edge">
<title>Node10&#45;&gt;Node9</title>
<path fill="none" stroke="midnightblue" d="M1080.16,-308.47C1105.63,-297.89 1135.33,-285.56 1159.53,-275.51"/>
<polygon fill="midnightblue" stroke="midnightblue" points="1078.52,-305.36 1070.63,-312.43 1081.2,-311.82 1078.52,-305.36"/>
</g>
<!-- Node11 -->
<g id="node11" class="node">
<title>Node11</title>
<g id="a_node11"><a xlink:href="MatrixElementCache_8hpp.html" target="_top" xlink:title=" ">
<polygon fill="none" stroke="black" points="758,-234.5 758,-275.5 923,-275.5 923,-234.5 758,-234.5"/>
<text text-anchor="start" x="766" y="-263.5" font-family="Helvetica,sans-Serif" font-size="10.00">/__w/pairinteraction</text>
<text text-anchor="start" x="766" y="-252.5" font-family="Helvetica,sans-Serif" font-size="10.00">/pairinteraction/pairinteraction</text>
<text text-anchor="middle" x="840.5" y="-241.5" font-family="Helvetica,sans-Serif" font-size="10.00">/MatrixElementCache.hpp</text>
</a>
</g>
</g>
<!-- Node10&#45;&gt;Node11 -->
<g id="edge10" class="edge">
<title>Node10&#45;&gt;Node11</title>
<path fill="none" stroke="midnightblue" d="M966.84,-308.47C941.37,-297.89 911.67,-285.56 887.47,-275.51"/>
<polygon fill="midnightblue" stroke="midnightblue" points="965.8,-311.82 976.37,-312.43 968.48,-305.36 965.8,-311.82"/>
</g>
<!-- Node18 -->
<g id="node18" class="node">
<title>Node18</title>
<g id="a_node18"><a xlink:href="MatrixElements_8hpp.html" target="_top" xlink:title=" ">
<polygon fill="none" stroke="black" points="941,-234.5 941,-275.5 1106,-275.5 1106,-234.5 941,-234.5"/>
<text text-anchor="start" x="949" y="-263.5" font-family="Helvetica,sans-Serif" font-size="10.00">/__w/pairinteraction</text>
<text text-anchor="start" x="949" y="-252.5" font-family="Helvetica,sans-Serif" font-size="10.00">/pairinteraction/pairinteraction</text>
<text text-anchor="middle" x="1023.5" y="-241.5" font-family="Helvetica,sans-Serif" font-size="10.00">/MatrixElements.hpp</text>
</a>
</g>
</g>
<!-- Node10&#45;&gt;Node18 -->
<g id="edge19" class="edge">
<title>Node10&#45;&gt;Node18</title>
<path fill="none" stroke="midnightblue" d="M1023.5,-302.3C1023.5,-293.3 1023.5,-283.65 1023.5,-275.51"/>
<polygon fill="midnightblue" stroke="midnightblue" points="1020,-302.43 1023.5,-312.43 1027,-302.43 1020,-302.43"/>
</g>
<!-- Node11&#45;&gt;Node2 -->
<g id="edge12" class="edge">
<title>Node11&#45;&gt;Node2</title>
<path fill="none" stroke="midnightblue" d="M747.93,-234.05C493.14,-199.58 423.85,-233.14 173.5,-198 170.78,-197.62 168.01,-197.2 165.23,-196.75"/>
<polygon fill="midnightblue" stroke="midnightblue" points="747.47,-237.52 757.85,-235.41 748.42,-230.59 747.47,-237.52"/>
</g>
<!-- Node11&#45;&gt;Node5 -->
<g id="edge15" class="edge">
<title>Node11&#45;&gt;Node5</title>
<path fill="none" stroke="midnightblue" d="M747.83,-234.01C573.83,-208 526.18,-224.33 356.5,-198 353.78,-197.58 351.02,-197.12 348.24,-196.64"/>
<polygon fill="midnightblue" stroke="midnightblue" points="747.42,-237.49 757.84,-235.53 748.48,-230.57 747.42,-237.49"/>
</g>
<!-- Node12 -->
<g id="node12" class="node">
<title>Node12</title>
<g id="a_node12"><a xlink:href="integration__bench_8cpp.html" target="_top" xlink:title=" ">
<polygon fill="none" stroke="black" points="366,-156.5 366,-197.5 557,-197.5 557,-156.5 366,-156.5"/>
<text text-anchor="start" x="374" y="-185.5" font-family="Helvetica,sans-Serif" font-size="10.00">/__w/pairinteraction</text>
<text text-anchor="start" x="374" y="-174.5" font-family="Helvetica,sans-Serif" font-size="10.00">/pairinteraction/pairinteraction</text>
<text text-anchor="middle" x="461.5" y="-163.5" font-family="Helvetica,sans-Serif" font-size="10.00">/benchmarks/integration_bench.cpp</text>
</a>
</g>
</g>
<!-- Node11&#45;&gt;Node12 -->
<g id="edge11" class="edge">
<title>Node11&#45;&gt;Node12</title>
<path fill="none" stroke="midnightblue" d="M747.95,-233.91C700.89,-224.32 621.37,-208.85 557.32,-196.47"/>
<polygon fill="midnightblue" stroke="midnightblue" points="747.27,-237.35 757.77,-235.93 748.67,-230.49 747.27,-237.35"/>
</g>
<!-- Node13 -->
<g id="node13" class="node">
<title>Node13</title>
<g id="a_node13"><a xlink:href="PerturbativeInteraction_8hpp.html" target="_top" xlink:title=" ">
<polygon fill="none" stroke="black" points="575,-156.5 575,-197.5 740,-197.5 740,-156.5 575,-156.5"/>
<text text-anchor="start" x="583" y="-185.5" font-family="Helvetica,sans-Serif" font-size="10.00">/__w/pairinteraction</text>
<text text-anchor="start" x="583" y="-174.5" font-family="Helvetica,sans-Serif" font-size="10.00">/pairinteraction/pairinteraction</text>
<text text-anchor="middle" x="657.5" y="-163.5" font-family="Helvetica,sans-Serif" font-size="10.00">/PerturbativeInteraction.hpp</text>
</a>
</g>
</g>
<!-- Node11&#45;&gt;Node13 -->
<g id="edge13" class="edge">
<title>Node11&#45;&gt;Node13</title>
<path fill="none" stroke="midnightblue" d="M783.84,-230.47C758.37,-219.89 728.67,-207.56 704.47,-197.51"/>
<polygon fill="midnightblue" stroke="midnightblue" points="782.8,-233.82 793.37,-234.43 785.48,-227.36 782.8,-233.82"/>
</g>
<!-- Node15 -->
<g id="node15" class="node">
<title>Node15</title>
<g id="a_node15"><a xlink:href="SystemOne_8cpp.html" target="_top" xlink:title=" ">
<polygon fill="none" stroke="black" points="758,-156.5 758,-197.5 923,-197.5 923,-156.5 758,-156.5"/>
<text text-anchor="start" x="766" y="-185.5" font-family="Helvetica,sans-Serif" font-size="10.00">/__w/pairinteraction</text>
<text text-anchor="start" x="766" y="-174.5" font-family="Helvetica,sans-Serif" font-size="10.00">/pairinteraction/pairinteraction</text>
<text text-anchor="middle" x="840.5" y="-163.5" font-family="Helvetica,sans-Serif" font-size="10.00">/SystemOne.cpp</text>
</a>
</g>
</g>
<!-- Node11&#45;&gt;Node15 -->
<g id="edge16" class="edge">
<title>Node11&#45;&gt;Node15</title>
<path fill="none" stroke="midnightblue" d="M840.5,-224.3C840.5,-215.3 840.5,-205.65 840.5,-197.51"/>
<polygon fill="midnightblue" stroke="midnightblue" points="837,-224.43 840.5,-234.43 844,-224.43 837,-224.43"/>
</g>
<!-- Node16 -->
<g id="node16" class="node">
<title>Node16</title>
<g id="a_node16"><a xlink:href="SystemTwo_8cpp.html" target="_top" xlink:title=" ">
<polygon fill="none" stroke="black" points="941,-156.5 941,-197.5 1106,-197.5 1106,-156.5 941,-156.5"/>
<text text-anchor="start" x="949" y="-185.5" font-family="Helvetica,sans-Serif" font-size="10.00">/__w/pairinteraction</text>
<text text-anchor="start" x="949" y="-174.5" font-family="Helvetica,sans-Serif" font-size="10.00">/pairinteraction/pairinteraction</text>
<text text-anchor="middle" x="1023.5" y="-163.5" font-family="Helvetica,sans-Serif" font-size="10.00">/SystemTwo.cpp</text>
</a>
</g>
</g>
<!-- Node11&#45;&gt;Node16 -->
<g id="edge17" class="edge">
<title>Node11&#45;&gt;Node16</title>
<path fill="none" stroke="midnightblue" d="M897.16,-230.47C922.63,-219.89 952.33,-207.56 976.53,-197.51"/>
<polygon fill="midnightblue" stroke="midnightblue" points="895.52,-227.36 887.63,-234.43 898.2,-233.82 895.52,-227.36"/>
</g>
<!-- Node17 -->
<g id="node17" class="node">
<title>Node17</title>
<g id="a_node17"><a xlink:href="integration__test_8cpp.html" target="_top" xlink:title=" ">
<polygon fill="none" stroke="black" points="1124,-156.5 1124,-197.5 1289,-197.5 1289,-156.5 1124,-156.5"/>
<text text-anchor="start" x="1132" y="-185.5" font-family="Helvetica,sans-Serif" font-size="10.00">/__w/pairinteraction</text>
<text text-anchor="start" x="1132" y="-174.5" font-family="Helvetica,sans-Serif" font-size="10.00">/pairinteraction/pairinteraction</text>
<text text-anchor="middle" x="1206.5" y="-163.5" font-family="Helvetica,sans-Serif" font-size="10.00">/unit_test/integration_test.cpp</text>
</a>
</g>
</g>
<!-- Node11&#45;&gt;Node17 -->
<g id="edge18" class="edge">
<title>Node11&#45;&gt;Node17</title>
<path fill="none" stroke="midnightblue" d="M933.47,-233.61C1014.36,-216.9 1036.5,-214.15 1114.5,-198 1117.54,-197.37 1120.64,-196.72 1123.76,-196.07"/>
<polygon fill="midnightblue" stroke="midnightblue" points="932.39,-230.26 923.31,-235.72 933.81,-237.11 932.39,-230.26"/>
</g>
<!-- Node14 -->
<g id="node14" class="node">
<title>Node14</title>
<g id="a_node14"><a xlink:href="PerturbativeInteraction_8cpp.html" target="_top" xlink:title=" ">
<polygon fill="none" stroke="black" points="575,-78.5 575,-119.5 740,-119.5 740,-78.5 575,-78.5"/>
<text text-anchor="start" x="583" y="-107.5" font-family="Helvetica,sans-Serif" font-size="10.00">/__w/pairinteraction</text>
<text text-anchor="start" x="583" y="-96.5" font-family="Helvetica,sans-Serif" font-size="10.00">/pairinteraction/pairinteraction</text>
<text text-anchor="middle" x="657.5" y="-85.5" font-family="Helvetica,sans-Serif" font-size="10.00">/PerturbativeInteraction.cpp</text>
</a>
</g>
</g>
<!-- Node13&#45;&gt;Node14 -->
<g id="edge14" class="edge">
<title>Node13&#45;&gt;Node14</title>
<path fill="none" stroke="midnightblue" d="M657.5,-146.3C657.5,-137.3 657.5,-127.65 657.5,-119.51"/>
<polygon fill="midnightblue" stroke="midnightblue" points="654,-146.43 657.5,-156.43 661,-146.43 654,-146.43"/>
</g>
<!-- Node18&#45;&gt;Node3 -->
<g id="edge27" class="edge">
<title>Node18&#45;&gt;Node3</title>
<path fill="none" stroke="midnightblue" d="M1116.38,-233.81C1292.7,-207.41 1341.19,-223.58 1514.5,-198 1519.18,-197.31 1523.97,-196.54 1528.8,-195.71"/>
<polygon fill="midnightblue" stroke="midnightblue" points="1115.6,-230.38 1106.24,-235.35 1116.66,-237.3 1115.6,-230.38"/>
</g>
<!-- Node19 -->
<g id="node19" class="node">
<title>Node19</title>
<g id="a_node19"><a xlink:href="HamiltonianOne_8hpp.html" target="_top" xlink:title=" ">
<polygon fill="none" stroke="black" points="1307,-156.5 1307,-197.5 1472,-197.5 1472,-156.5 1307,-156.5"/>
<text text-anchor="start" x="1315" y="-185.5" font-family="Helvetica,sans-Serif" font-size="10.00">/__w/pairinteraction</text>
<text text-anchor="start" x="1315" y="-174.5" font-family="Helvetica,sans-Serif" font-size="10.00">/pairinteraction/pairinteraction</text>
<text text-anchor="middle" x="1389.5" y="-163.5" font-family="Helvetica,sans-Serif" font-size="10.00">/HamiltonianOne.hpp</text>
</a>
</g>
</g>
<!-- Node18&#45;&gt;Node19 -->
<g id="edge20" class="edge">
<title>Node18&#45;&gt;Node19</title>
<path fill="none" stroke="midnightblue" d="M1116.52,-233.6C1197.81,-216.87 1220.1,-214.28 1298.5,-198 1301.19,-197.44 1303.93,-196.87 1306.69,-196.28"/>
<polygon fill="midnightblue" stroke="midnightblue" points="1115.39,-230.26 1106.31,-235.72 1116.81,-237.12 1115.39,-230.26"/>
</g>
<!-- Node21 -->
<g id="node21" class="node">
<title>Node21</title>
<g id="a_node21"><a xlink:href="HamiltonianTwo_8hpp.html" target="_top" xlink:title=" ">
<polygon fill="none" stroke="black" points="1454,-78.5 1454,-119.5 1619,-119.5 1619,-78.5 1454,-78.5"/>
<text text-anchor="start" x="1462" y="-107.5" font-family="Helvetica,sans-Serif" font-size="10.00">/__w/pairinteraction</text>
<text text-anchor="start" x="1462" y="-96.5" font-family="Helvetica,sans-Serif" font-size="10.00">/pairinteraction/pairinteraction</text>
<text text-anchor="middle" x="1536.5" y="-85.5" font-family="Helvetica,sans-Serif" font-size="10.00">/HamiltonianTwo.hpp</text>
</a>
</g>
</g>
<!-- Node18&#45;&gt;Node21 -->
<g id="edge26" class="edge">
<title>Node18&#45;&gt;Node21</title>
<path fill="none" stroke="midnightblue" d="M1116.41,-233.97C1210.96,-222.66 1415.37,-241.19 1481.5,-198 1509.27,-179.86 1524.41,-142.6 1531.45,-119.61"/>
<polygon fill="midnightblue" stroke="midnightblue" points="1115.67,-230.54 1106.25,-235.38 1116.63,-237.48 1115.67,-230.54"/>
</g>
<!-- Node20 -->
<g id="node20" class="node">
<title>Node20</title>
<g id="a_node20"><a xlink:href="HamiltonianOne_8cpp.html" target="_top" xlink:title=" ">
<polygon fill="none" stroke="black" points="1271,-78.5 1271,-119.5 1436,-119.5 1436,-78.5 1271,-78.5"/>
<text text-anchor="start" x="1279" y="-107.5" font-family="Helvetica,sans-Serif" font-size="10.00">/__w/pairinteraction</text>
<text text-anchor="start" x="1279" y="-96.5" font-family="Helvetica,sans-Serif" font-size="10.00">/pairinteraction/pairinteraction</text>
<text text-anchor="middle" x="1353.5" y="-85.5" font-family="Helvetica,sans-Serif" font-size="10.00">/HamiltonianOne.cpp</text>
</a>
</g>
</g>
<!-- Node19&#45;&gt;Node20 -->
<g id="edge21" class="edge">
<title>Node19&#45;&gt;Node20</title>
<path fill="none" stroke="midnightblue" d="M1375.85,-147.17C1371.47,-137.93 1366.72,-127.92 1362.74,-119.51"/>
<polygon fill="midnightblue" stroke="midnightblue" points="1372.79,-148.89 1380.23,-156.43 1379.11,-145.89 1372.79,-148.89"/>
</g>
<!-- Node19&#45;&gt;Node21 -->
<g id="edge22" class="edge">
<title>Node19&#45;&gt;Node21</title>
<path fill="none" stroke="midnightblue" d="M1436.37,-151.77C1456.52,-141.35 1479.76,-129.34 1498.77,-119.51"/>
<polygon fill="midnightblue" stroke="midnightblue" points="1434.63,-148.73 1427.36,-156.43 1437.85,-154.94 1434.63,-148.73"/>
</g>
<!-- Node23 -->
<g id="node23" class="node">
<title>Node23</title>
<g id="a_node23"><a xlink:href="Interface_8cpp.html" target="_top" xlink:title=" ">
<polygon fill="none" stroke="black" points="1216,-0.5 1216,-41.5 1381,-41.5 1381,-0.5 1216,-0.5"/>
<text text-anchor="start" x="1224" y="-29.5" font-family="Helvetica,sans-Serif" font-size="10.00">/__w/pairinteraction</text>
<text text-anchor="start" x="1224" y="-18.5" font-family="Helvetica,sans-Serif" font-size="10.00">/pairinteraction/pairinteraction</text>
<text text-anchor="middle" x="1298.5" y="-7.5" font-family="Helvetica,sans-Serif" font-size="10.00">/Interface.cpp</text>
</a>
</g>
</g>
<!-- Node19&#45;&gt;Node23 -->
<g id="edge25" class="edge">
<title>Node19&#45;&gt;Node23</title>
<path fill="none" stroke="midnightblue" d="M1299.04,-151.93C1284.57,-144.08 1271.44,-133.71 1262.5,-120 1246.36,-95.25 1265.37,-62.29 1281.31,-41.6"/>
<polygon fill="midnightblue" stroke="midnightblue" points="1297.69,-155.17 1308.2,-156.5 1300.81,-148.9 1297.69,-155.17"/>
</g>
<!-- Node22 -->
<g id="node22" class="node">
<title>Node22</title>
<g id="a_node22"><a xlink:href="HamiltonianTwo_8cpp.html" target="_top" xlink:title=" ">
<polygon fill="none" stroke="black" points="1454,-0.5 1454,-41.5 1619,-41.5 1619,-0.5 1454,-0.5"/>
<text text-anchor="start" x="1462" y="-29.5" font-family="Helvetica,sans-Serif" font-size="10.00">/__w/pairinteraction</text>
<text text-anchor="start" x="1462" y="-18.5" font-family="Helvetica,sans-Serif" font-size="10.00">/pairinteraction/pairinteraction</text>
<text text-anchor="middle" x="1536.5" y="-7.5" font-family="Helvetica,sans-Serif" font-size="10.00">/HamiltonianTwo.cpp</text>
</a>
</g>
</g>
<!-- Node21&#45;&gt;Node22 -->
<g id="edge23" class="edge">
<title>Node21&#45;&gt;Node22</title>
<path fill="none" stroke="midnightblue" d="M1536.5,-68.3C1536.5,-59.3 1536.5,-49.65 1536.5,-41.51"/>
<polygon fill="midnightblue" stroke="midnightblue" points="1533,-68.43 1536.5,-78.43 1540,-68.43 1533,-68.43"/>
</g>
<!-- Node21&#45;&gt;Node23 -->
<g id="edge24" class="edge">
<title>Node21&#45;&gt;Node23</title>
<path fill="none" stroke="midnightblue" d="M1465.43,-75.3C1431.74,-64.55 1391.89,-51.82 1359.58,-41.51"/>
<polygon fill="midnightblue" stroke="midnightblue" points="1464.62,-78.72 1475.21,-78.43 1466.75,-72.05 1464.62,-78.72"/>
</g>
</g>
</svg>
