<?xml version="1.0" encoding="UTF-8" standalone="no"?>
<!DOCTYPE svg PUBLIC "-//W3C//DTD SVG 1.1//EN"
 "http://www.w3.org/Graphics/SVG/1.1/DTD/svg11.dtd">
<!-- Generated by graphviz version 2.43.0 (0)
 -->
<!-- Title: /__w/pairinteraction/pairinteraction/pairinteraction/QuantumDefect.cpp Pages: 1 -->
<svg width="1232pt" height="274pt"
 viewBox="0.00 0.00 1231.50 274.00" xmlns="http://www.w3.org/2000/svg" xmlns:xlink="http://www.w3.org/1999/xlink">
<g id="graph0" class="graph" transform="scale(1 1) rotate(0) translate(4 270)">
<title>/__w/pairinteraction/pairinteraction/pairinteraction/QuantumDefect.cpp</title>
<!-- Node1 -->
<g id="node1" class="node">
<title>Node1</title>
<g id="a_node1"><a xlink:title=" ">
<polygon fill="#bfbfbf" stroke="black" points="565.5,-224.5 565.5,-265.5 730.5,-265.5 730.5,-224.5 565.5,-224.5"/>
<text text-anchor="start" x="573.5" y="-253.5" font-family="Helvetica,sans-Serif" font-size="10.00">/__w/pairinteraction</text>
<text text-anchor="start" x="573.5" y="-242.5" font-family="Helvetica,sans-Serif" font-size="10.00">/pairinteraction/pairinteraction</text>
<text text-anchor="middle" x="648" y="-231.5" font-family="Helvetica,sans-Serif" font-size="10.00">/QuantumDefect.cpp</text>
</a>
</g>
</g>
<!-- Node2 -->
<g id="node2" class="node">
<title>Node2</title>
<g id="a_node2"><a xlink:href="QuantumDefect_8hpp.html" target="_top" xlink:title=" ">
<polygon fill="none" stroke="black" points="383.5,-168.5 383.5,-187.5 498.5,-187.5 498.5,-168.5 383.5,-168.5"/>
<text text-anchor="middle" x="441" y="-175.5" font-family="Helvetica,sans-Serif" font-size="10.00">QuantumDefect.hpp</text>
</a>
</g>
</g>
<!-- Node1&#45;&gt;Node2 -->
<g id="edge1" class="edge">
<title>Node1&#45;&gt;Node2</title>
<path fill="none" stroke="midnightblue" d="M585.89,-224.5C550.69,-213.44 507.84,-199.99 477.91,-190.59"/>
<polygon fill="midnightblue" stroke="midnightblue" points="478.87,-187.22 468.28,-187.57 476.77,-193.9 478.87,-187.22"/>
</g>
<!-- Node3 -->
<g id="node3" class="node">
<title>Node3</title>
<g id="a_node3"><a xlink:href="SQLite_8hpp.html" target="_top" xlink:title=" ">
<polygon fill="none" stroke="black" points="312.5,-112.5 312.5,-131.5 381.5,-131.5 381.5,-112.5 312.5,-112.5"/>
<text text-anchor="middle" x="347" y="-119.5" font-family="Helvetica,sans-Serif" font-size="10.00">SQLite.hpp</text>
</a>
</g>
</g>
<!-- Node1&#45;&gt;Node3 -->
<g id="edge29" class="edge">
<title>Node1&#45;&gt;Node3</title>
<path fill="none" stroke="midnightblue" d="M565.23,-235.66C495.54,-227.11 402.76,-211.7 374,-188 360.02,-176.48 353.18,-156.51 349.9,-141.74"/>
<polygon fill="midnightblue" stroke="midnightblue" points="353.29,-140.87 348.02,-131.68 346.41,-142.15 353.29,-140.87"/>
</g>
<!-- Node4 -->
<g id="node4" class="node">
<title>Node4</title>
<g id="a_node4"><a xlink:title=" ">
<polygon fill="none" stroke="#bfbfbf" points="0,-56.5 0,-75.5 60,-75.5 60,-56.5 0,-56.5"/>
<text text-anchor="middle" x="30" y="-63.5" font-family="Helvetica,sans-Serif" font-size="10.00">iostream</text>
</a>
</g>
</g>
<!-- Node1&#45;&gt;Node4 -->
<g id="edge34" class="edge">
<title>Node1&#45;&gt;Node4</title>
<path fill="none" stroke="midnightblue" d="M565.34,-231.9C506.4,-222.37 425.6,-207.45 356,-188 243.56,-156.58 114.96,-103.58 58.78,-79.54"/>
<polygon fill="midnightblue" stroke="midnightblue" points="60.04,-76.26 49.47,-75.53 57.27,-82.69 60.04,-76.26"/>
</g>
<!-- Node7 -->
<g id="node7" class="node">
<title>Node7</title>
<g id="a_node7"><a xlink:title=" ">
<polygon fill="none" stroke="#bfbfbf" points="452,-56.5 452,-75.5 508,-75.5 508,-56.5 452,-56.5"/>
<text text-anchor="middle" x="480" y="-63.5" font-family="Helvetica,sans-Serif" font-size="10.00">sstream</text>
</a>
</g>
</g>
<!-- Node1&#45;&gt;Node7 -->
<g id="edge35" class="edge">
<title>Node1&#45;&gt;Node7</title>
<path fill="none" stroke="midnightblue" d="M629.38,-224.38C595.83,-189.03 525.86,-115.32 495.08,-82.89"/>
<polygon fill="midnightblue" stroke="midnightblue" points="497.57,-80.43 488.15,-75.58 492.49,-85.25 497.57,-80.43"/>
</g>
<!-- Node8 -->
<g id="node8" class="node">
<title>Node8</title>
<g id="a_node8"><a xlink:title=" ">
<polygon fill="none" stroke="#bfbfbf" points="526,-56.5 526,-75.5 570,-75.5 570,-56.5 526,-56.5"/>
<text text-anchor="middle" x="548" y="-63.5" font-family="Helvetica,sans-Serif" font-size="10.00">string</text>
</a>
</g>
</g>
<!-- Node1&#45;&gt;Node8 -->
<g id="edge36" class="edge">
<title>Node1&#45;&gt;Node8</title>
<path fill="none" stroke="midnightblue" d="M636.92,-224.38C617.28,-189.63 576.7,-117.81 557.93,-84.57"/>
<polygon fill="midnightblue" stroke="midnightblue" points="560.82,-82.57 552.85,-75.58 554.72,-86.01 560.82,-82.57"/>
</g>
<!-- Node12 -->
<g id="node12" class="node">
<title>Node12</title>
<g id="a_node12"><a xlink:title=" ">
<polygon fill="none" stroke="#bfbfbf" points="588.5,-56.5 588.5,-75.5 633.5,-75.5 633.5,-56.5 588.5,-56.5"/>
<text text-anchor="middle" x="611" y="-63.5" font-family="Helvetica,sans-Serif" font-size="10.00">utility</text>
</a>
</g>
</g>
<!-- Node1&#45;&gt;Node12 -->
<g id="edge37" class="edge">
<title>Node1&#45;&gt;Node12</title>
<path fill="none" stroke="midnightblue" d="M642.8,-224.37C640.04,-213.65 636.67,-200.14 634,-188 626.07,-151.93 618.37,-109.44 614.2,-85.63"/>
<polygon fill="midnightblue" stroke="midnightblue" points="617.61,-84.8 612.45,-75.54 610.71,-85.99 617.61,-84.8"/>
</g>
<!-- Node14 -->
<g id="node14" class="node">
<title>Node14</title>
<g id="a_node14"><a xlink:title=" ">
<polygon fill="none" stroke="#bfbfbf" points="649,-0.5 649,-19.5 713,-19.5 713,-0.5 649,-0.5"/>
<text text-anchor="middle" x="681" y="-7.5" font-family="Helvetica,sans-Serif" font-size="10.00">algorithm</text>
</a>
</g>
</g>
<!-- Node1&#45;&gt;Node14 -->
<g id="edge30" class="edge">
<title>Node1&#45;&gt;Node14</title>
<path fill="none" stroke="midnightblue" d="M650.81,-224.13C657.11,-179.68 672.26,-72.73 678.37,-29.54"/>
<polygon fill="midnightblue" stroke="midnightblue" points="681.85,-29.98 679.78,-19.59 674.92,-29 681.85,-29.98"/>
</g>
<!-- Node19 -->
<g id="node19" class="node">
<title>Node19</title>
<g id="a_node19"><a xlink:href="Cache_8hpp.html" target="_top" xlink:title=" ">
<polygon fill="none" stroke="black" points="676,-168.5 676,-187.5 744,-187.5 744,-168.5 676,-168.5"/>
<text text-anchor="middle" x="710" y="-175.5" font-family="Helvetica,sans-Serif" font-size="10.00">Cache.hpp</text>
</a>
</g>
</g>
<!-- Node1&#45;&gt;Node19 -->
<g id="edge22" class="edge">
<title>Node1&#45;&gt;Node19</title>
<path fill="none" stroke="midnightblue" d="M666.6,-224.5C675.56,-215.11 686.17,-203.98 694.66,-195.08"/>
<polygon fill="midnightblue" stroke="midnightblue" points="697.38,-197.3 701.75,-187.65 692.31,-192.47 697.38,-197.3"/>
</g>
<!-- Node24 -->
<g id="node24" class="node">
<title>Node24</title>
<g id="a_node24"><a xlink:href="Constants_8hpp.html" target="_top" xlink:title=" ">
<polygon fill="none" stroke="black" points="762,-168.5 762,-187.5 848,-187.5 848,-168.5 762,-168.5"/>
<text text-anchor="middle" x="805" y="-175.5" font-family="Helvetica,sans-Serif" font-size="10.00">Constants.hpp</text>
</a>
</g>
</g>
<!-- Node1&#45;&gt;Node24 -->
<g id="edge27" class="edge">
<title>Node1&#45;&gt;Node24</title>
<path fill="none" stroke="midnightblue" d="M695.11,-224.5C720.91,-213.81 752.14,-200.89 774.7,-191.54"/>
<polygon fill="midnightblue" stroke="midnightblue" points="776.2,-194.71 784.1,-187.65 773.52,-188.24 776.2,-194.71"/>
</g>
<!-- Node25 -->
<g id="node25" class="node">
<title>Node25</title>
<g id="a_node25"><a xlink:title=" ">
<polygon fill="none" stroke="#bfbfbf" points="866,-168.5 866,-187.5 1002,-187.5 1002,-168.5 866,-168.5"/>
<text text-anchor="middle" x="934" y="-175.5" font-family="Helvetica,sans-Serif" font-size="10.00">EmbeddedDatabase.hpp</text>
</a>
</g>
</g>
<!-- Node1&#45;&gt;Node25 -->
<g id="edge28" class="edge">
<title>Node1&#45;&gt;Node25</title>
<path fill="none" stroke="midnightblue" d="M730.72,-225.2C781.28,-213.71 844.13,-199.42 886.46,-189.81"/>
<polygon fill="midnightblue" stroke="midnightblue" points="887.25,-193.22 896.22,-187.59 885.69,-186.39 887.25,-193.22"/>
</g>
<!-- Node26 -->
<g id="node26" class="node">
<title>Node26</title>
<g id="a_node26"><a xlink:title=" ">
<polygon fill="none" stroke="#bfbfbf" points="1020.5,-168.5 1020.5,-187.5 1067.5,-187.5 1067.5,-168.5 1020.5,-168.5"/>
<text text-anchor="middle" x="1044" y="-175.5" font-family="Helvetica,sans-Serif" font-size="10.00">cmath</text>
</a>
</g>
</g>
<!-- Node1&#45;&gt;Node26 -->
<g id="edge31" class="edge">
<title>Node1&#45;&gt;Node26</title>
<path fill="none" stroke="midnightblue" d="M730.66,-233.96C802.24,-224.64 908.67,-209.3 1010.45,-187.9"/>
<polygon fill="midnightblue" stroke="midnightblue" points="1011.23,-191.31 1020.29,-185.81 1009.78,-184.47 1011.23,-191.31"/>
</g>
<!-- Node27 -->
<g id="node27" class="node">
<title>Node27</title>
<g id="a_node27"><a xlink:title=" ">
<polygon fill="none" stroke="#bfbfbf" points="1085.5,-168.5 1085.5,-187.5 1150.5,-187.5 1150.5,-168.5 1085.5,-168.5"/>
<text text-anchor="middle" x="1118" y="-175.5" font-family="Helvetica,sans-Serif" font-size="10.00">exception</text>
</a>
</g>
</g>
<!-- Node1&#45;&gt;Node27 -->
<g id="edge32" class="edge">
<title>Node1&#45;&gt;Node27</title>
<path fill="none" stroke="midnightblue" d="M730.56,-235.36C814.9,-226.05 949.79,-209.82 1075.21,-188.2"/>
<polygon fill="midnightblue" stroke="midnightblue" points="1076.12,-191.59 1085.38,-186.43 1074.92,-184.69 1076.12,-191.59"/>
</g>
<!-- Node28 -->
<g id="node28" class="node">
<title>Node28</title>
<g id="a_node28"><a xlink:title=" ">
<polygon fill="none" stroke="#bfbfbf" points="1168.5,-168.5 1168.5,-187.5 1223.5,-187.5 1223.5,-168.5 1168.5,-168.5"/>
<text text-anchor="middle" x="1196" y="-175.5" font-family="Helvetica,sans-Serif" font-size="10.00">fstream</text>
</a>
</g>
</g>
<!-- Node1&#45;&gt;Node28 -->
<g id="edge33" class="edge">
<title>Node1&#45;&gt;Node28</title>
<path fill="none" stroke="midnightblue" d="M730.52,-238.45C829.94,-230.98 1002.11,-215.56 1157.93,-188.18"/>
<polygon fill="midnightblue" stroke="midnightblue" points="1158.94,-191.55 1168.17,-186.35 1157.71,-184.66 1158.94,-191.55"/>
</g>
<!-- Node2&#45;&gt;Node3 -->
<g id="edge2" class="edge">
<title>Node2&#45;&gt;Node3</title>
<path fill="none" stroke="midnightblue" d="M425.9,-168.32C411.1,-159.82 388.31,-146.73 371.02,-136.8"/>
<polygon fill="midnightblue" stroke="midnightblue" points="372.48,-133.6 362.07,-131.65 368.99,-139.67 372.48,-133.6"/>
</g>
<!-- Node2&#45;&gt;Node8 -->
<g id="edge21" class="edge">
<title>Node2&#45;&gt;Node8</title>
<path fill="none" stroke="midnightblue" d="M449.4,-168.37C467.29,-149.97 509.41,-106.67 532.39,-83.05"/>
<polygon fill="midnightblue" stroke="midnightblue" points="535.18,-85.2 539.64,-75.59 530.16,-80.32 535.18,-85.2"/>
</g>
<!-- Node13 -->
<g id="node13" class="node">
<title>Node13</title>
<g id="a_node13"><a xlink:href="utils_8hpp.html" target="_top" xlink:title=" ">
<polygon fill="none" stroke="black" points="374.5,-56.5 374.5,-75.5 433.5,-75.5 433.5,-56.5 374.5,-56.5"/>
<text text-anchor="middle" x="404" y="-63.5" font-family="Helvetica,sans-Serif" font-size="10.00">utils.hpp</text>
</a>
</g>
</g>
<!-- Node2&#45;&gt;Node13 -->
<g id="edge20" class="edge">
<title>Node2&#45;&gt;Node13</title>
<path fill="none" stroke="midnightblue" d="M438.1,-168.37C432.1,-150.54 418.23,-109.3 410.15,-85.27"/>
<polygon fill="midnightblue" stroke="midnightblue" points="413.4,-83.95 406.89,-75.59 406.76,-86.19 413.4,-83.95"/>
</g>
<!-- Node3&#45;&gt;Node4 -->
<g id="edge3" class="edge">
<title>Node3&#45;&gt;Node4</title>
<path fill="none" stroke="midnightblue" d="M312.2,-116.12C261.23,-108.82 163.09,-94.13 70.05,-76.1"/>
<polygon fill="midnightblue" stroke="midnightblue" points="70.68,-72.66 60.19,-74.18 69.33,-79.53 70.68,-72.66"/>
</g>
<!-- Node5 -->
<g id="node5" class="node">
<title>Node5</title>
<g id="a_node5"><a xlink:title=" ">
<polygon fill="none" stroke="#bfbfbf" points="78,-56.5 78,-75.5 136,-75.5 136,-56.5 78,-56.5"/>
<text text-anchor="middle" x="107" y="-63.5" font-family="Helvetica,sans-Serif" font-size="10.00">memory</text>
</a>
</g>
</g>
<!-- Node3&#45;&gt;Node5 -->
<g id="edge4" class="edge">
<title>Node3&#45;&gt;Node5</title>
<path fill="none" stroke="midnightblue" d="M312.3,-113.42C274,-105.01 210.26,-90.94 145.94,-76.19"/>
<polygon fill="midnightblue" stroke="midnightblue" points="146.57,-72.75 136.04,-73.92 145,-79.57 146.57,-72.75"/>
</g>
<!-- Node6 -->
<g id="node6" class="node">
<title>Node6</title>
<g id="a_node6"><a xlink:title=" ">
<polygon fill="none" stroke="#bfbfbf" points="195,-0.5 195,-19.5 249,-19.5 249,-0.5 195,-0.5"/>
<text text-anchor="middle" x="222" y="-7.5" font-family="Helvetica,sans-Serif" font-size="10.00">random</text>
</a>
</g>
</g>
<!-- Node3&#45;&gt;Node6 -->
<g id="edge5" class="edge">
<title>Node3&#45;&gt;Node6</title>
<path fill="none" stroke="midnightblue" d="M340.31,-112.41C329.92,-99.38 308.92,-74.21 288,-56 274.78,-44.5 258.54,-33.39 245.47,-25.09"/>
<polygon fill="midnightblue" stroke="midnightblue" points="246.95,-21.88 236.61,-19.57 243.25,-27.83 246.95,-21.88"/>
</g>
<!-- Node3&#45;&gt;Node7 -->
<g id="edge6" class="edge">
<title>Node3&#45;&gt;Node7</title>
<path fill="none" stroke="midnightblue" d="M368.07,-112.44C390.06,-103.52 424.73,-89.44 449.66,-79.32"/>
<polygon fill="midnightblue" stroke="midnightblue" points="451.08,-82.52 459.02,-75.52 448.44,-76.04 451.08,-82.52"/>
</g>
<!-- Node3&#45;&gt;Node8 -->
<g id="edge7" class="edge">
<title>Node3&#45;&gt;Node8</title>
<path fill="none" stroke="midnightblue" d="M380.29,-112.44C412.6,-104.07 463.26,-90.81 515.83,-76.28"/>
<polygon fill="midnightblue" stroke="midnightblue" points="516.97,-79.6 525.67,-73.55 515.1,-72.85 516.97,-79.6"/>
</g>
<!-- Node9 -->
<g id="node9" class="node">
<title>Node9</title>
<g id="a_node9"><a xlink:title=" ">
<polygon fill="none" stroke="#bfbfbf" points="154,-56.5 154,-75.5 202,-75.5 202,-56.5 154,-56.5"/>
<text text-anchor="middle" x="178" y="-63.5" font-family="Helvetica,sans-Serif" font-size="10.00">thread</text>
</a>
</g>
</g>
<!-- Node3&#45;&gt;Node9 -->
<g id="edge8" class="edge">
<title>Node3&#45;&gt;Node9</title>
<path fill="none" stroke="midnightblue" d="M320.22,-112.44C290.91,-103.08 243.85,-88.04 211.97,-77.85"/>
<polygon fill="midnightblue" stroke="midnightblue" points="212.78,-74.44 202.19,-74.73 210.65,-81.11 212.78,-74.44"/>
</g>
<!-- Node10 -->
<g id="node10" class="node">
<title>Node10</title>
<g id="a_node10"><a xlink:title=" ">
<polygon fill="none" stroke="#bfbfbf" points="267.5,-0.5 267.5,-19.5 336.5,-19.5 336.5,-0.5 267.5,-0.5"/>
<text text-anchor="middle" x="302" y="-7.5" font-family="Helvetica,sans-Serif" font-size="10.00">type_traits</text>
</a>
</g>
</g>
<!-- Node3&#45;&gt;Node10 -->
<g id="edge9" class="edge">
<title>Node3&#45;&gt;Node10</title>
<path fill="none" stroke="midnightblue" d="M343.75,-112.11C339.11,-99.54 330.24,-75.88 322,-56 318.27,-47 313.9,-37.1 310.2,-28.89"/>
<polygon fill="midnightblue" stroke="midnightblue" points="313.29,-27.23 305.97,-19.57 306.92,-30.12 313.29,-27.23"/>
</g>
<!-- Node11 -->
<g id="node11" class="node">
<title>Node11</title>
<g id="a_node11"><a xlink:title=" ">
<polygon fill="none" stroke="#bfbfbf" points="220.5,-56.5 220.5,-75.5 279.5,-75.5 279.5,-56.5 220.5,-56.5"/>
<text text-anchor="middle" x="250" y="-63.5" font-family="Helvetica,sans-Serif" font-size="10.00">sqlite3.h</text>
</a>
</g>
</g>
<!-- Node3&#45;&gt;Node11 -->
<g id="edge10" class="edge">
<title>Node3&#45;&gt;Node11</title>
<path fill="none" stroke="midnightblue" d="M331.42,-112.32C316,-103.74 292.19,-90.49 274.29,-80.52"/>
<polygon fill="midnightblue" stroke="midnightblue" points="275.99,-77.46 265.55,-75.65 272.58,-83.58 275.99,-77.46"/>
</g>
<!-- Node3&#45;&gt;Node12 -->
<g id="edge11" class="edge">
<title>Node3&#45;&gt;Node12</title>
<path fill="none" stroke="midnightblue" d="M381.78,-115.18C425.37,-107.68 502.54,-93.74 578.16,-76.03"/>
<polygon fill="midnightblue" stroke="midnightblue" points="579.41,-79.33 588.33,-73.62 577.8,-72.52 579.41,-79.33"/>
</g>
<!-- Node3&#45;&gt;Node13 -->
<g id="edge12" class="edge">
<title>Node3&#45;&gt;Node13</title>
<path fill="none" stroke="midnightblue" d="M356.16,-112.32C364.5,-104.42 377.03,-92.55 387.18,-82.94"/>
<polygon fill="midnightblue" stroke="midnightblue" points="389.82,-85.25 394.68,-75.83 385.01,-80.17 389.82,-85.25"/>
</g>
<!-- Node13&#45;&gt;Node6 -->
<g id="edge17" class="edge">
<title>Node13&#45;&gt;Node6</title>
<path fill="none" stroke="midnightblue" d="M375.16,-56.44C343.69,-47.11 293.21,-32.13 258.88,-21.94"/>
<polygon fill="midnightblue" stroke="midnightblue" points="259.8,-18.56 249.22,-19.08 257.81,-25.28 259.8,-18.56"/>
</g>
<!-- Node13&#45;&gt;Node10 -->
<g id="edge18" class="edge">
<title>Node13&#45;&gt;Node10</title>
<path fill="none" stroke="midnightblue" d="M387.61,-56.32C371.33,-47.7 346.13,-34.36 327.28,-24.39"/>
<polygon fill="midnightblue" stroke="midnightblue" points="328.82,-21.24 318.35,-19.65 325.55,-27.43 328.82,-21.24"/>
</g>
<!-- Node13&#45;&gt;Node14 -->
<g id="edge13" class="edge">
<title>Node13&#45;&gt;Node14</title>
<path fill="none" stroke="midnightblue" d="M433.78,-57.98C436.89,-57.29 440.01,-56.62 443,-56 527.1,-38.62 551.07,-37.6 638.93,-20.16"/>
<polygon fill="midnightblue" stroke="midnightblue" points="639.67,-23.58 648.79,-18.18 638.3,-16.71 639.67,-23.58"/>
</g>
<!-- Node15 -->
<g id="node15" class="node">
<title>Node15</title>
<g id="a_node15"><a xlink:title=" ">
<polygon fill="none" stroke="#bfbfbf" points="589,-0.5 589,-19.5 631,-19.5 631,-0.5 589,-0.5"/>
<text text-anchor="middle" x="610" y="-7.5" font-family="Helvetica,sans-Serif" font-size="10.00">array</text>
</a>
</g>
</g>
<!-- Node13&#45;&gt;Node15 -->
<g id="edge14" class="edge">
<title>Node13&#45;&gt;Node15</title>
<path fill="none" stroke="midnightblue" d="M433.68,-57.81C466.83,-49.69 522.3,-35.84 578.9,-20.23"/>
<polygon fill="midnightblue" stroke="midnightblue" points="580.03,-23.55 588.73,-17.5 578.15,-16.8 580.03,-23.55"/>
</g>
<!-- Node16 -->
<g id="node16" class="node">
<title>Node16</title>
<g id="a_node16"><a xlink:title=" ">
<polygon fill="none" stroke="#bfbfbf" points="354.5,-0.5 354.5,-19.5 413.5,-19.5 413.5,-0.5 354.5,-0.5"/>
<text text-anchor="middle" x="384" y="-7.5" font-family="Helvetica,sans-Serif" font-size="10.00">complex</text>
</a>
</g>
</g>
<!-- Node13&#45;&gt;Node16 -->
<g id="edge15" class="edge">
<title>Node13&#45;&gt;Node16</title>
<path fill="none" stroke="midnightblue" d="M400.7,-56.08C398.02,-48.85 394.15,-38.41 390.81,-29.4"/>
<polygon fill="midnightblue" stroke="midnightblue" points="394,-27.91 387.24,-19.75 387.43,-30.34 394,-27.91"/>
</g>
<!-- Node17 -->
<g id="node17" class="node">
<title>Node17</title>
<g id="a_node17"><a xlink:title=" ">
<polygon fill="none" stroke="#bfbfbf" points="431.5,-0.5 431.5,-19.5 496.5,-19.5 496.5,-0.5 431.5,-0.5"/>
<text text-anchor="middle" x="464" y="-7.5" font-family="Helvetica,sans-Serif" font-size="10.00">functional</text>
</a>
</g>
</g>
<!-- Node13&#45;&gt;Node17 -->
<g id="edge16" class="edge">
<title>Node13&#45;&gt;Node17</title>
<path fill="none" stroke="midnightblue" d="M413.64,-56.32C422.51,-48.34 435.87,-36.31 446.61,-26.65"/>
<polygon fill="midnightblue" stroke="midnightblue" points="449.09,-29.13 454.18,-19.83 444.41,-23.92 449.09,-29.13"/>
</g>
<!-- Node18 -->
<g id="node18" class="node">
<title>Node18</title>
<g id="a_node18"><a xlink:title=" ">
<polygon fill="none" stroke="#bfbfbf" points="515,-0.5 515,-19.5 571,-19.5 571,-0.5 515,-0.5"/>
<text text-anchor="middle" x="543" y="-7.5" font-family="Helvetica,sans-Serif" font-size="10.00">unistd.h</text>
</a>
</g>
</g>
<!-- Node13&#45;&gt;Node18 -->
<g id="edge19" class="edge">
<title>Node13&#45;&gt;Node18</title>
<path fill="none" stroke="midnightblue" d="M426.02,-56.44C449.1,-47.48 485.56,-33.31 511.64,-23.18"/>
<polygon fill="midnightblue" stroke="midnightblue" points="513.02,-26.4 521.08,-19.52 510.49,-19.88 513.02,-26.4"/>
</g>
<!-- Node20 -->
<g id="node20" class="node">
<title>Node20</title>
<g id="a_node20"><a xlink:title=" ">
<polygon fill="none" stroke="#bfbfbf" points="676,-112.5 676,-131.5 724,-131.5 724,-112.5 676,-112.5"/>
<text text-anchor="middle" x="700" y="-119.5" font-family="Helvetica,sans-Serif" font-size="10.00">mutex</text>
</a>
</g>
</g>
<!-- Node19&#45;&gt;Node20 -->
<g id="edge23" class="edge">
<title>Node19&#45;&gt;Node20</title>
<path fill="none" stroke="midnightblue" d="M708.35,-168.08C707.02,-160.93 705.12,-150.64 703.46,-141.69"/>
<polygon fill="midnightblue" stroke="midnightblue" points="706.88,-140.95 701.62,-131.75 700,-142.22 706.88,-140.95"/>
</g>
<!-- Node21 -->
<g id="node21" class="node">
<title>Node21</title>
<g id="a_node21"><a xlink:title=" ">
<polygon fill="none" stroke="#bfbfbf" points="742,-112.5 742,-131.5 798,-131.5 798,-112.5 742,-112.5"/>
<text text-anchor="middle" x="770" y="-119.5" font-family="Helvetica,sans-Serif" font-size="10.00">optional</text>
</a>
</g>
</g>
<!-- Node19&#45;&gt;Node21 -->
<g id="edge24" class="edge">
<title>Node19&#45;&gt;Node21</title>
<path fill="none" stroke="midnightblue" d="M719.64,-168.32C728.51,-160.34 741.87,-148.31 752.61,-138.65"/>
<polygon fill="midnightblue" stroke="midnightblue" points="755.09,-141.13 760.18,-131.83 750.41,-135.92 755.09,-141.13"/>
</g>
<!-- Node22 -->
<g id="node22" class="node">
<title>Node22</title>
<g id="a_node22"><a xlink:title=" ">
<polygon fill="none" stroke="#bfbfbf" points="816.5,-112.5 816.5,-131.5 881.5,-131.5 881.5,-112.5 816.5,-112.5"/>
<text text-anchor="middle" x="849" y="-119.5" font-family="Helvetica,sans-Serif" font-size="10.00">stdexcept</text>
</a>
</g>
</g>
<!-- Node19&#45;&gt;Node22 -->
<g id="edge25" class="edge">
<title>Node19&#45;&gt;Node22</title>
<path fill="none" stroke="midnightblue" d="M732.02,-168.44C755.1,-159.48 791.56,-145.31 817.64,-135.18"/>
<polygon fill="midnightblue" stroke="midnightblue" points="819.02,-138.4 827.08,-131.52 816.49,-131.88 819.02,-138.4"/>
</g>
<!-- Node23 -->
<g id="node23" class="node">
<title>Node23</title>
<g id="a_node23"><a xlink:title=" ">
<polygon fill="none" stroke="#bfbfbf" points="899.5,-112.5 899.5,-131.5 992.5,-131.5 992.5,-112.5 899.5,-112.5"/>
<text text-anchor="middle" x="946" y="-119.5" font-family="Helvetica,sans-Serif" font-size="10.00">unordered_map</text>
</a>
</g>
</g>
<!-- Node19&#45;&gt;Node23 -->
<g id="edge26" class="edge">
<title>Node19&#45;&gt;Node23</title>
<path fill="none" stroke="midnightblue" d="M744.06,-169.21C784.77,-159.89 853.1,-144.26 898.86,-133.79"/>
<polygon fill="midnightblue" stroke="midnightblue" points="899.86,-137.15 908.83,-131.5 898.3,-130.32 899.86,-137.15"/>
</g>
</g>
</svg>
