<?xml version="1.0" encoding="UTF-8" standalone="no"?>
<!DOCTYPE svg PUBLIC "-//W3C//DTD SVG 1.1//EN"
 "http://www.w3.org/Graphics/SVG/1.1/DTD/svg11.dtd">
<!-- Generated by graphviz version 2.43.0 (0)
 -->
<!-- Title: /__w/pairinteraction/pairinteraction/pairinteraction/serialization_eigen.hpp Pages: 1 -->
<svg width="704pt" height="162pt"
 viewBox="0.00 0.00 704.00 162.00" xmlns="http://www.w3.org/2000/svg" xmlns:xlink="http://www.w3.org/1999/xlink">
<g id="graph0" class="graph" transform="scale(1 1) rotate(0) translate(4 158)">
<title>/__w/pairinteraction/pairinteraction/pairinteraction/serialization_eigen.hpp</title>
<!-- Node1 -->
<g id="node1" class="node">
<title>Node1</title>
<g id="a_node1"><a xlink:title=" ">
<polygon fill="#bfbfbf" stroke="black" points="343.5,-112.5 343.5,-153.5 508.5,-153.5 508.5,-112.5 343.5,-112.5"/>
<text text-anchor="start" x="351.5" y="-141.5" font-family="Helvetica,sans-Serif" font-size="10.00">/__w/pairinteraction</text>
<text text-anchor="start" x="351.5" y="-130.5" font-family="Helvetica,sans-Serif" font-size="10.00">/pairinteraction/pairinteraction</text>
<text text-anchor="middle" x="426" y="-119.5" font-family="Helvetica,sans-Serif" font-size="10.00">/serialization_eigen.hpp</text>
</a>
</g>
</g>
<!-- Node2 -->
<g id="node2" class="node">
<title>Node2</title>
<g id="a_node2"><a xlink:title=" ">
<polygon fill="none" stroke="#bfbfbf" points="0,-56.5 0,-75.5 144,-75.5 144,-56.5 0,-56.5"/>
<text text-anchor="middle" x="72" y="-63.5" font-family="Helvetica,sans-Serif" font-size="10.00">cereal/archives/binary.hpp</text>
</a>
</g>
</g>
<!-- Node1&#45;&gt;Node2 -->
<g id="edge1" class="edge">
<title>Node1&#45;&gt;Node2</title>
<path fill="none" stroke="midnightblue" d="M343.45,-116.84C277.34,-104.7 186.38,-88 128.37,-77.35"/>
<polygon fill="midnightblue" stroke="midnightblue" points="128.76,-73.86 118.3,-75.5 127.5,-80.75 128.76,-73.86"/>
</g>
<!-- Node3 -->
<g id="node3" class="node">
<title>Node3</title>
<g id="a_node3"><a xlink:title=" ">
<polygon fill="none" stroke="#bfbfbf" points="162.5,-56.5 162.5,-75.5 297.5,-75.5 297.5,-56.5 162.5,-56.5"/>
<text text-anchor="middle" x="230" y="-63.5" font-family="Helvetica,sans-Serif" font-size="10.00">cereal/archives/json.hpp</text>
</a>
</g>
</g>
<!-- Node1&#45;&gt;Node3 -->
<g id="edge2" class="edge">
<title>Node1&#45;&gt;Node3</title>
<path fill="none" stroke="midnightblue" d="M367.19,-112.5C334.15,-101.54 294,-88.22 265.69,-78.84"/>
<polygon fill="midnightblue" stroke="midnightblue" points="266.43,-75.39 255.83,-75.57 264.22,-82.04 266.43,-75.39"/>
</g>
<!-- Node4 -->
<g id="node4" class="node">
<title>Node4</title>
<g id="a_node4"><a xlink:title=" ">
<polygon fill="none" stroke="#bfbfbf" points="315.5,-56.5 315.5,-75.5 416.5,-75.5 416.5,-56.5 315.5,-56.5"/>
<text text-anchor="middle" x="366" y="-63.5" font-family="Helvetica,sans-Serif" font-size="10.00">cereal/cereal.hpp</text>
</a>
</g>
</g>
<!-- Node1&#45;&gt;Node4 -->
<g id="edge3" class="edge">
<title>Node1&#45;&gt;Node4</title>
<path fill="none" stroke="midnightblue" d="M408,-112.5C399.33,-103.11 389.06,-91.98 380.85,-83.08"/>
<polygon fill="midnightblue" stroke="midnightblue" points="383.34,-80.63 373.99,-75.65 378.2,-85.37 383.34,-80.63"/>
</g>
<!-- Node5 -->
<g id="node5" class="node">
<title>Node5</title>
<g id="a_node5"><a xlink:href="EigenCompat_8hpp.html" target="_top" xlink:title=" ">
<polygon fill="none" stroke="black" points="434.5,-56.5 434.5,-75.5 537.5,-75.5 537.5,-56.5 434.5,-56.5"/>
<text text-anchor="middle" x="486" y="-63.5" font-family="Helvetica,sans-Serif" font-size="10.00">EigenCompat.hpp</text>
</a>
</g>
</g>
<!-- Node1&#45;&gt;Node5 -->
<g id="edge4" class="edge">
<title>Node1&#45;&gt;Node5</title>
<path fill="none" stroke="midnightblue" d="M444,-112.5C452.67,-103.11 462.94,-91.98 471.15,-83.08"/>
<polygon fill="midnightblue" stroke="midnightblue" points="473.8,-85.37 478.01,-75.65 468.66,-80.63 473.8,-85.37"/>
</g>
<!-- Node6 -->
<g id="node6" class="node">
<title>Node6</title>
<g id="a_node6"><a xlink:title=" ">
<polygon fill="none" stroke="#bfbfbf" points="491.5,-0.5 491.5,-19.5 560.5,-19.5 560.5,-0.5 491.5,-0.5"/>
<text text-anchor="middle" x="526" y="-7.5" font-family="Helvetica,sans-Serif" font-size="10.00">Eigen/Core</text>
</a>
</g>
</g>
<!-- Node1&#45;&gt;Node6 -->
<g id="edge6" class="edge">
<title>Node1&#45;&gt;Node6</title>
<path fill="none" stroke="midnightblue" d="M501.97,-112.47C519.7,-104.18 536.47,-92.48 547,-76 556.44,-61.22 547.97,-41.83 539.13,-28.08"/>
<polygon fill="midnightblue" stroke="midnightblue" points="541.78,-25.76 533.16,-19.59 536.05,-29.79 541.78,-25.76"/>
</g>
<!-- Node7 -->
<g id="node7" class="node">
<title>Node7</title>
<g id="a_node7"><a xlink:title=" ">
<polygon fill="none" stroke="#bfbfbf" points="594,-56.5 594,-75.5 696,-75.5 696,-56.5 594,-56.5"/>
<text text-anchor="middle" x="645" y="-63.5" font-family="Helvetica,sans-Serif" font-size="10.00">Eigen/SparseCore</text>
</a>
</g>
</g>
<!-- Node1&#45;&gt;Node7 -->
<g id="edge7" class="edge">
<title>Node1&#45;&gt;Node7</title>
<path fill="none" stroke="midnightblue" d="M491.71,-112.5C529.11,-101.4 574.68,-87.87 606.36,-78.47"/>
<polygon fill="midnightblue" stroke="midnightblue" points="607.54,-81.77 616.14,-75.57 605.55,-75.06 607.54,-81.77"/>
</g>
<!-- Node5&#45;&gt;Node6 -->
<g id="edge5" class="edge">
<title>Node5&#45;&gt;Node6</title>
<path fill="none" stroke="midnightblue" d="M492.61,-56.08C498.26,-48.46 506.54,-37.26 513.45,-27.94"/>
<polygon fill="midnightblue" stroke="midnightblue" points="516.38,-29.87 519.52,-19.75 510.75,-25.7 516.38,-29.87"/>
</g>
</g>
</svg>
