<?xml version="1.0" encoding="UTF-8" standalone="no"?>
<!DOCTYPE svg PUBLIC "-//W3C//DTD SVG 1.1//EN"
 "http://www.w3.org/Graphics/SVG/1.1/DTD/svg11.dtd">
<!-- Generated by graphviz version 2.43.0 (0)
 -->
<!-- Title: /__w/pairinteraction/pairinteraction/pairinteraction/Serializable.hpp Pages: 1 -->
<svg width="472pt" height="106pt"
 viewBox="0.00 0.00 472.00 106.00" xmlns="http://www.w3.org/2000/svg" xmlns:xlink="http://www.w3.org/1999/xlink">
<g id="graph0" class="graph" transform="scale(1 1) rotate(0) translate(4 102)">
<title>/__w/pairinteraction/pairinteraction/pairinteraction/Serializable.hpp</title>
<!-- Node1 -->
<g id="node1" class="node">
<title>Node1</title>
<g id="a_node1"><a xlink:title=" ">
<polygon fill="#bfbfbf" stroke="black" points="137,-56.5 137,-97.5 302,-97.5 302,-56.5 137,-56.5"/>
<text text-anchor="start" x="145" y="-85.5" font-family="Helvetica,sans-Serif" font-size="10.00">/__w/pairinteraction</text>
<text text-anchor="start" x="145" y="-74.5" font-family="Helvetica,sans-Serif" font-size="10.00">/pairinteraction/pairinteraction</text>
<text text-anchor="middle" x="219.5" y="-63.5" font-family="Helvetica,sans-Serif" font-size="10.00">/Serializable.hpp</text>
</a>
</g>
</g>
<!-- Node2 -->
<g id="node2" class="node">
<title>Node2</title>
<g id="a_node2"><a xlink:title=" ">
<polygon fill="none" stroke="#bfbfbf" points="0,-0.5 0,-19.5 53,-19.5 53,-0.5 0,-0.5"/>
<text text-anchor="middle" x="26.5" y="-7.5" font-family="Helvetica,sans-Serif" font-size="10.00">iterator</text>
</a>
</g>
</g>
<!-- Node1&#45;&gt;Node2 -->
<g id="edge1" class="edge">
<title>Node1&#45;&gt;Node2</title>
<path fill="none" stroke="midnightblue" d="M161.59,-56.5C129.06,-45.54 89.52,-32.22 61.64,-22.84"/>
<polygon fill="midnightblue" stroke="midnightblue" points="62.53,-19.44 51.94,-19.57 60.3,-26.08 62.53,-19.44"/>
</g>
<!-- Node3 -->
<g id="node3" class="node">
<title>Node3</title>
<g id="a_node3"><a xlink:title=" ">
<polygon fill="none" stroke="#bfbfbf" points="71.5,-0.5 71.5,-19.5 129.5,-19.5 129.5,-0.5 71.5,-0.5"/>
<text text-anchor="middle" x="100.5" y="-7.5" font-family="Helvetica,sans-Serif" font-size="10.00">memory</text>
</a>
</g>
</g>
<!-- Node1&#45;&gt;Node3 -->
<g id="edge2" class="edge">
<title>Node1&#45;&gt;Node3</title>
<path fill="none" stroke="midnightblue" d="M183.8,-56.5C165.02,-46.24 142.47,-33.93 125.57,-24.69"/>
<polygon fill="midnightblue" stroke="midnightblue" points="126.79,-21.37 116.34,-19.65 123.44,-27.52 126.79,-21.37"/>
</g>
<!-- Node4 -->
<g id="node4" class="node">
<title>Node4</title>
<g id="a_node4"><a xlink:title=" ">
<polygon fill="none" stroke="#bfbfbf" points="148,-0.5 148,-19.5 213,-19.5 213,-0.5 148,-0.5"/>
<text text-anchor="middle" x="180.5" y="-7.5" font-family="Helvetica,sans-Serif" font-size="10.00">typeindex</text>
</a>
</g>
</g>
<!-- Node1&#45;&gt;Node4 -->
<g id="edge3" class="edge">
<title>Node1&#45;&gt;Node4</title>
<path fill="none" stroke="midnightblue" d="M207.8,-56.5C202.45,-47.59 196.17,-37.11 190.98,-28.46"/>
<polygon fill="midnightblue" stroke="midnightblue" points="193.84,-26.43 185.69,-19.65 187.84,-30.03 193.84,-26.43"/>
</g>
<!-- Node5 -->
<g id="node5" class="node">
<title>Node5</title>
<g id="a_node5"><a xlink:title=" ">
<polygon fill="none" stroke="#bfbfbf" points="231,-0.5 231,-19.5 288,-19.5 288,-0.5 231,-0.5"/>
<text text-anchor="middle" x="259.5" y="-7.5" font-family="Helvetica,sans-Serif" font-size="10.00">typeinfo</text>
</a>
</g>
</g>
<!-- Node1&#45;&gt;Node5 -->
<g id="edge4" class="edge">
<title>Node1&#45;&gt;Node5</title>
<path fill="none" stroke="midnightblue" d="M231.5,-56.5C237.04,-47.49 243.57,-36.89 248.92,-28.19"/>
<polygon fill="midnightblue" stroke="midnightblue" points="251.92,-30 254.18,-19.65 245.95,-26.33 251.92,-30"/>
</g>
<!-- Node6 -->
<g id="node6" class="node">
<title>Node6</title>
<g id="a_node6"><a xlink:title=" ">
<polygon fill="none" stroke="#bfbfbf" points="306,-0.5 306,-19.5 399,-19.5 399,-0.5 306,-0.5"/>
<text text-anchor="middle" x="352.5" y="-7.5" font-family="Helvetica,sans-Serif" font-size="10.00">unordered_map</text>
</a>
</g>
</g>
<!-- Node1&#45;&gt;Node6 -->
<g id="edge5" class="edge">
<title>Node1&#45;&gt;Node6</title>
<path fill="none" stroke="midnightblue" d="M259.4,-56.5C280.87,-46.01 306.77,-33.35 325.8,-24.05"/>
<polygon fill="midnightblue" stroke="midnightblue" points="327.35,-27.19 334.8,-19.65 324.27,-20.9 327.35,-27.19"/>
</g>
<!-- Node7 -->
<g id="node7" class="node">
<title>Node7</title>
<g id="a_node7"><a xlink:title=" ">
<polygon fill="none" stroke="#bfbfbf" points="417,-0.5 417,-19.5 464,-19.5 464,-0.5 417,-0.5"/>
<text text-anchor="middle" x="440.5" y="-7.5" font-family="Helvetica,sans-Serif" font-size="10.00">vector</text>
</a>
</g>
</g>
<!-- Node1&#45;&gt;Node7 -->
<g id="edge6" class="edge">
<title>Node1&#45;&gt;Node7</title>
<path fill="none" stroke="midnightblue" d="M285.81,-56.5C325.85,-44.72 375.15,-30.22 407.18,-20.8"/>
<polygon fill="midnightblue" stroke="midnightblue" points="408.33,-24.11 416.94,-17.93 406.36,-17.39 408.33,-24.11"/>
</g>
</g>
</svg>
