<?xml version="1.0" encoding="UTF-8" standalone="no"?>
<!DOCTYPE svg PUBLIC "-//W3C//DTD SVG 1.1//EN"
 "http://www.w3.org/Graphics/SVG/1.1/DTD/svg11.dtd">
<!-- Generated by graphviz version 2.43.0 (0)
 -->
<!-- Title: /__w/pairinteraction/pairinteraction/pairinteraction/SQLite.hpp Pages: 1 -->
<svg width="1852pt" height="518pt"
 viewBox="0.00 0.00 1852.00 518.00" xmlns="http://www.w3.org/2000/svg" xmlns:xlink="http://www.w3.org/1999/xlink">
<g id="graph0" class="graph" transform="scale(1 1) rotate(0) translate(4 514)">
<title>/__w/pairinteraction/pairinteraction/pairinteraction/SQLite.hpp</title>
<!-- Node1 -->
<g id="node1" class="node">
<title>Node1</title>
<g id="a_node1"><a xlink:title=" ">
<polygon fill="#bfbfbf" stroke="black" points="530,-468.5 530,-509.5 695,-509.5 695,-468.5 530,-468.5"/>
<text text-anchor="start" x="538" y="-497.5" font-family="Helvetica,sans-Serif" font-size="10.00">/__w/pairinteraction</text>
<text text-anchor="start" x="538" y="-486.5" font-family="Helvetica,sans-Serif" font-size="10.00">/pairinteraction/pairinteraction</text>
<text text-anchor="middle" x="612.5" y="-475.5" font-family="Helvetica,sans-Serif" font-size="10.00">/SQLite.hpp</text>
</a>
</g>
</g>
<!-- Node2 -->
<g id="node2" class="node">
<title>Node2</title>
<g id="a_node2"><a xlink:href="HamiltonianOne_8hpp.html" target="_top" xlink:title=" ">
<polygon fill="none" stroke="black" points="111,-156.5 111,-197.5 276,-197.5 276,-156.5 111,-156.5"/>
<text text-anchor="start" x="119" y="-185.5" font-family="Helvetica,sans-Serif" font-size="10.00">/__w/pairinteraction</text>
<text text-anchor="start" x="119" y="-174.5" font-family="Helvetica,sans-Serif" font-size="10.00">/pairinteraction/pairinteraction</text>
<text text-anchor="middle" x="193.5" y="-163.5" font-family="Helvetica,sans-Serif" font-size="10.00">/HamiltonianOne.hpp</text>
</a>
</g>
</g>
<!-- Node1&#45;&gt;Node2 -->
<g id="edge1" class="edge">
<title>Node1&#45;&gt;Node2</title>
<path fill="none" stroke="midnightblue" d="M519.49,-481.96C437.09,-474.82 324.71,-460.18 290.5,-432 216.18,-370.77 198.71,-245.83 194.68,-197.6"/>
<polygon fill="midnightblue" stroke="midnightblue" points="519.38,-485.46 529.64,-482.81 519.97,-478.48 519.38,-485.46"/>
</g>
<!-- Node4 -->
<g id="node4" class="node">
<title>Node4</title>
<g id="a_node4"><a xlink:href="HamiltonianTwo_8hpp.html" target="_top" xlink:title=" ">
<polygon fill="none" stroke="black" points="222,-78.5 222,-119.5 387,-119.5 387,-78.5 222,-78.5"/>
<text text-anchor="start" x="230" y="-107.5" font-family="Helvetica,sans-Serif" font-size="10.00">/__w/pairinteraction</text>
<text text-anchor="start" x="230" y="-96.5" font-family="Helvetica,sans-Serif" font-size="10.00">/pairinteraction/pairinteraction</text>
<text text-anchor="middle" x="304.5" y="-85.5" font-family="Helvetica,sans-Serif" font-size="10.00">/HamiltonianTwo.hpp</text>
</a>
</g>
</g>
<!-- Node1&#45;&gt;Node4 -->
<g id="edge7" class="edge">
<title>Node1&#45;&gt;Node4</title>
<path fill="none" stroke="midnightblue" d="M519.91,-480.35C429.2,-467.19 304.5,-431.38 304.5,-334 304.5,-334 304.5,-334 304.5,-254 304.5,-205.88 304.5,-149.29 304.5,-119.93"/>
<polygon fill="midnightblue" stroke="midnightblue" points="519.58,-483.84 529.96,-481.74 520.53,-476.9 519.58,-483.84"/>
</g>
<!-- Node7 -->
<g id="node7" class="node">
<title>Node7</title>
<g id="a_node7"><a xlink:href="MatrixElementCache_8cpp.html" target="_top" xlink:title=" ">
<polygon fill="none" stroke="black" points="555,-156.5 555,-197.5 720,-197.5 720,-156.5 555,-156.5"/>
<text text-anchor="start" x="563" y="-185.5" font-family="Helvetica,sans-Serif" font-size="10.00">/__w/pairinteraction</text>
<text text-anchor="start" x="563" y="-174.5" font-family="Helvetica,sans-Serif" font-size="10.00">/pairinteraction/pairinteraction</text>
<text text-anchor="middle" x="637.5" y="-163.5" font-family="Helvetica,sans-Serif" font-size="10.00">/MatrixElementCache.cpp</text>
</a>
</g>
</g>
<!-- Node1&#45;&gt;Node7 -->
<g id="edge8" class="edge">
<title>Node1&#45;&gt;Node7</title>
<path fill="none" stroke="midnightblue" d="M606.34,-458.19C600.22,-419.57 596.22,-352.43 631.5,-312 675.16,-261.97 735.59,-328.3 776.5,-276 788,-261.3 786.95,-249.47 776.5,-234 767.73,-221.01 736.42,-207.84 705.73,-197.54"/>
<polygon fill="midnightblue" stroke="midnightblue" points="602.93,-459.02 608.09,-468.28 609.83,-457.83 602.93,-459.02"/>
</g>
<!-- Node8 -->
<g id="node8" class="node">
<title>Node8</title>
<g id="a_node8"><a xlink:href="MatrixElements_8cpp.html" target="_top" xlink:title=" ">
<polygon fill="none" stroke="black" points="333,-156.5 333,-197.5 498,-197.5 498,-156.5 333,-156.5"/>
<text text-anchor="start" x="341" y="-185.5" font-family="Helvetica,sans-Serif" font-size="10.00">/__w/pairinteraction</text>
<text text-anchor="start" x="341" y="-174.5" font-family="Helvetica,sans-Serif" font-size="10.00">/pairinteraction/pairinteraction</text>
<text text-anchor="middle" x="415.5" y="-163.5" font-family="Helvetica,sans-Serif" font-size="10.00">/MatrixElements.cpp</text>
</a>
</g>
</g>
<!-- Node1&#45;&gt;Node8 -->
<g id="edge9" class="edge">
<title>Node1&#45;&gt;Node8</title>
<path fill="none" stroke="midnightblue" d="M565.6,-463.34C508.45,-429.97 416.08,-364.29 388.5,-276 382.93,-258.18 384.34,-252.2 388.5,-234 391.41,-221.27 397.6,-208.06 403.32,-197.67"/>
<polygon fill="midnightblue" stroke="midnightblue" points="564.04,-466.48 574.45,-468.42 567.52,-460.41 564.04,-466.48"/>
</g>
<!-- Node9 -->
<g id="node9" class="node">
<title>Node9</title>
<g id="a_node9"><a xlink:href="QuantumDefect_8cpp.html" target="_top" xlink:title=" ">
<polygon fill="none" stroke="black" points="1122,-312.5 1122,-353.5 1287,-353.5 1287,-312.5 1122,-312.5"/>
<text text-anchor="start" x="1130" y="-341.5" font-family="Helvetica,sans-Serif" font-size="10.00">/__w/pairinteraction</text>
<text text-anchor="start" x="1130" y="-330.5" font-family="Helvetica,sans-Serif" font-size="10.00">/pairinteraction/pairinteraction</text>
<text text-anchor="middle" x="1204.5" y="-319.5" font-family="Helvetica,sans-Serif" font-size="10.00">/QuantumDefect.cpp</text>
</a>
</g>
</g>
<!-- Node1&#45;&gt;Node9 -->
<g id="edge10" class="edge">
<title>Node1&#45;&gt;Node9</title>
<path fill="none" stroke="midnightblue" d="M705.25,-485.42C770.01,-480.35 856.81,-466.86 925.5,-432 949.61,-419.77 945.75,-402.91 969.5,-390 976.45,-386.22 1056.97,-367.41 1121.84,-352.63"/>
<polygon fill="midnightblue" stroke="midnightblue" points="704.77,-481.94 695.05,-486.16 705.28,-488.92 704.77,-481.94"/>
</g>
<!-- Node10 -->
<g id="node10" class="node">
<title>Node10</title>
<g id="a_node10"><a xlink:href="QuantumDefect_8hpp.html" target="_top" xlink:title=" ">
<polygon fill="none" stroke="black" points="752,-390.5 752,-431.5 917,-431.5 917,-390.5 752,-390.5"/>
<text text-anchor="start" x="760" y="-419.5" font-family="Helvetica,sans-Serif" font-size="10.00">/__w/pairinteraction</text>
<text text-anchor="start" x="760" y="-408.5" font-family="Helvetica,sans-Serif" font-size="10.00">/pairinteraction/pairinteraction</text>
<text text-anchor="middle" x="834.5" y="-397.5" font-family="Helvetica,sans-Serif" font-size="10.00">/QuantumDefect.hpp</text>
</a>
</g>
</g>
<!-- Node1&#45;&gt;Node10 -->
<g id="edge11" class="edge">
<title>Node1&#45;&gt;Node10</title>
<path fill="none" stroke="midnightblue" d="M679.2,-465.17C710.54,-454.44 747.52,-441.78 777.52,-431.51"/>
<polygon fill="midnightblue" stroke="midnightblue" points="678,-461.88 669.67,-468.43 680.27,-468.5 678,-461.88"/>
</g>
<!-- Node13 -->
<g id="node13" class="node">
<title>Node13</title>
<g id="a_node13"><a xlink:href="quantum__defect__test_8cpp.html" target="_top" xlink:title=" ">
<polygon fill="none" stroke="black" points="1305,-312.5 1305,-353.5 1494,-353.5 1494,-312.5 1305,-312.5"/>
<text text-anchor="start" x="1313" y="-341.5" font-family="Helvetica,sans-Serif" font-size="10.00">/__w/pairinteraction</text>
<text text-anchor="start" x="1313" y="-330.5" font-family="Helvetica,sans-Serif" font-size="10.00">/pairinteraction/pairinteraction</text>
<text text-anchor="middle" x="1399.5" y="-319.5" font-family="Helvetica,sans-Serif" font-size="10.00">/unit_test/quantum_defect_test.cpp</text>
</a>
</g>
</g>
<!-- Node1&#45;&gt;Node13 -->
<g id="edge36" class="edge">
<title>Node1&#45;&gt;Node13</title>
<path fill="none" stroke="midnightblue" d="M705.14,-479.63C793.01,-470.54 917.89,-454.28 961.5,-432 985.01,-419.99 979.77,-401.57 1003.5,-390 1121.42,-332.48 1166.91,-374.52 1296.5,-354 1299.29,-353.56 1302.12,-353.1 1304.97,-352.62"/>
<polygon fill="midnightblue" stroke="midnightblue" points="704.75,-476.16 695.16,-480.65 705.46,-483.12 704.75,-476.16"/>
</g>
<!-- Node14 -->
<g id="node14" class="node">
<title>Node14</title>
<g id="a_node14"><a xlink:href="wavefunction__test_8cpp.html" target="_top" xlink:title=" ">
<polygon fill="none" stroke="black" points="408.5,-234.5 408.5,-275.5 584.5,-275.5 584.5,-234.5 408.5,-234.5"/>
<text text-anchor="start" x="416.5" y="-263.5" font-family="Helvetica,sans-Serif" font-size="10.00">/__w/pairinteraction</text>
<text text-anchor="start" x="416.5" y="-252.5" font-family="Helvetica,sans-Serif" font-size="10.00">/pairinteraction/pairinteraction</text>
<text text-anchor="middle" x="496.5" y="-241.5" font-family="Helvetica,sans-Serif" font-size="10.00">/unit_test/wavefunction_test.cpp</text>
</a>
</g>
</g>
<!-- Node1&#45;&gt;Node14 -->
<g id="edge38" class="edge">
<title>Node1&#45;&gt;Node14</title>
<path fill="none" stroke="midnightblue" d="M598.01,-459.02C574.06,-411.12 526.85,-316.69 506.37,-275.73"/>
<polygon fill="midnightblue" stroke="midnightblue" points="595.01,-460.84 602.61,-468.22 601.27,-457.71 595.01,-460.84"/>
</g>
<!-- Node25 -->
<g id="node25" class="node">
<title>Node25</title>
<g id="a_node25"><a xlink:href="sqlite__test_8cpp.html" target="_top" xlink:title=" ">
<polygon fill="none" stroke="black" points="1012,-390.5 1012,-431.5 1177,-431.5 1177,-390.5 1012,-390.5"/>
<text text-anchor="start" x="1020" y="-419.5" font-family="Helvetica,sans-Serif" font-size="10.00">/__w/pairinteraction</text>
<text text-anchor="start" x="1020" y="-408.5" font-family="Helvetica,sans-Serif" font-size="10.00">/pairinteraction/pairinteraction</text>
<text text-anchor="middle" x="1094.5" y="-397.5" font-family="Helvetica,sans-Serif" font-size="10.00">/unit_test/sqlite_test.cpp</text>
</a>
</g>
</g>
<!-- Node1&#45;&gt;Node25 -->
<g id="edge37" class="edge">
<title>Node1&#45;&gt;Node25</title>
<path fill="none" stroke="midnightblue" d="M705.64,-476.02C783.76,-465.59 898.18,-449.45 997.5,-432 1002.16,-431.18 1006.93,-430.31 1011.75,-429.4"/>
<polygon fill="midnightblue" stroke="midnightblue" points="704.79,-472.6 695.34,-477.39 705.71,-479.54 704.79,-472.6"/>
</g>
<!-- Node3 -->
<g id="node3" class="node">
<title>Node3</title>
<g id="a_node3"><a xlink:href="HamiltonianOne_8cpp.html" target="_top" xlink:title=" ">
<polygon fill="none" stroke="black" points="0,-78.5 0,-119.5 165,-119.5 165,-78.5 0,-78.5"/>
<text text-anchor="start" x="8" y="-107.5" font-family="Helvetica,sans-Serif" font-size="10.00">/__w/pairinteraction</text>
<text text-anchor="start" x="8" y="-96.5" font-family="Helvetica,sans-Serif" font-size="10.00">/pairinteraction/pairinteraction</text>
<text text-anchor="middle" x="82.5" y="-85.5" font-family="Helvetica,sans-Serif" font-size="10.00">/HamiltonianOne.cpp</text>
</a>
</g>
</g>
<!-- Node2&#45;&gt;Node3 -->
<g id="edge2" class="edge">
<title>Node2&#45;&gt;Node3</title>
<path fill="none" stroke="midnightblue" d="M156.45,-150.64C141.63,-140.49 124.83,-128.98 110.99,-119.51"/>
<polygon fill="midnightblue" stroke="midnightblue" points="154.69,-153.67 164.91,-156.43 158.64,-147.89 154.69,-153.67"/>
</g>
<!-- Node2&#45;&gt;Node4 -->
<g id="edge3" class="edge">
<title>Node2&#45;&gt;Node4</title>
<path fill="none" stroke="midnightblue" d="M230.55,-150.64C245.37,-140.49 262.17,-128.98 276.01,-119.51"/>
<polygon fill="midnightblue" stroke="midnightblue" points="228.36,-147.89 222.09,-156.43 232.31,-153.67 228.36,-147.89"/>
</g>
<!-- Node6 -->
<g id="node6" class="node">
<title>Node6</title>
<g id="a_node6"><a xlink:href="Interface_8cpp.html" target="_top" xlink:title=" ">
<polygon fill="none" stroke="black" points="111,-0.5 111,-41.5 276,-41.5 276,-0.5 111,-0.5"/>
<text text-anchor="start" x="119" y="-29.5" font-family="Helvetica,sans-Serif" font-size="10.00">/__w/pairinteraction</text>
<text text-anchor="start" x="119" y="-18.5" font-family="Helvetica,sans-Serif" font-size="10.00">/pairinteraction/pairinteraction</text>
<text text-anchor="middle" x="193.5" y="-7.5" font-family="Helvetica,sans-Serif" font-size="10.00">/Interface.cpp</text>
</a>
</g>
</g>
<!-- Node2&#45;&gt;Node6 -->
<g id="edge6" class="edge">
<title>Node2&#45;&gt;Node6</title>
<path fill="none" stroke="midnightblue" d="M193.5,-146.36C193.5,-115.61 193.5,-68.36 193.5,-41.83"/>
<polygon fill="midnightblue" stroke="midnightblue" points="190,-146.5 193.5,-156.5 197,-146.5 190,-146.5"/>
</g>
<!-- Node5 -->
<g id="node5" class="node">
<title>Node5</title>
<g id="a_node5"><a xlink:href="HamiltonianTwo_8cpp.html" target="_top" xlink:title=" ">
<polygon fill="none" stroke="black" points="294,-0.5 294,-41.5 459,-41.5 459,-0.5 294,-0.5"/>
<text text-anchor="start" x="302" y="-29.5" font-family="Helvetica,sans-Serif" font-size="10.00">/__w/pairinteraction</text>
<text text-anchor="start" x="302" y="-18.5" font-family="Helvetica,sans-Serif" font-size="10.00">/pairinteraction/pairinteraction</text>
<text text-anchor="middle" x="376.5" y="-7.5" font-family="Helvetica,sans-Serif" font-size="10.00">/HamiltonianTwo.cpp</text>
</a>
</g>
</g>
<!-- Node4&#45;&gt;Node5 -->
<g id="edge4" class="edge">
<title>Node4&#45;&gt;Node5</title>
<path fill="none" stroke="midnightblue" d="M330.16,-70.92C339.36,-61.2 349.55,-50.45 358.02,-41.51"/>
<polygon fill="midnightblue" stroke="midnightblue" points="327.38,-68.76 323.04,-78.43 332.46,-73.58 327.38,-68.76"/>
</g>
<!-- Node4&#45;&gt;Node6 -->
<g id="edge5" class="edge">
<title>Node4&#45;&gt;Node6</title>
<path fill="none" stroke="midnightblue" d="M267.45,-72.64C252.63,-62.49 235.83,-50.98 221.99,-41.51"/>
<polygon fill="midnightblue" stroke="midnightblue" points="265.69,-75.67 275.91,-78.43 269.64,-69.89 265.69,-75.67"/>
</g>
<!-- Node10&#45;&gt;Node7 -->
<g id="edge12" class="edge">
<title>Node10&#45;&gt;Node7</title>
<path fill="none" stroke="midnightblue" d="M839.24,-380.45C843.63,-342.12 845.05,-275.3 810.5,-234 798.19,-219.29 758.6,-205.93 720.39,-195.95"/>
<polygon fill="midnightblue" stroke="midnightblue" points="835.76,-380.09 837.95,-390.46 842.7,-380.99 835.76,-380.09"/>
</g>
<!-- Node10&#45;&gt;Node8 -->
<g id="edge13" class="edge">
<title>Node10&#45;&gt;Node8</title>
<path fill="none" stroke="midnightblue" d="M741.8,-395.7C625.36,-375.48 436.29,-334.39 399.5,-276 384.43,-252.08 395.23,-218.59 404.95,-197.61"/>
<polygon fill="midnightblue" stroke="midnightblue" points="741.34,-399.17 751.79,-397.41 742.53,-392.27 741.34,-399.17"/>
</g>
<!-- Node10&#45;&gt;Node9 -->
<g id="edge14" class="edge">
<title>Node10&#45;&gt;Node9</title>
<path fill="none" stroke="midnightblue" d="M927.04,-390.9C928.54,-390.6 930.03,-390.3 931.5,-390 1012.32,-373.67 1032.78,-370.85 1113.5,-354 1116.19,-353.44 1118.93,-352.86 1121.69,-352.28"/>
<polygon fill="midnightblue" stroke="midnightblue" points="926.15,-387.51 917.04,-392.93 927.54,-394.37 926.15,-387.51"/>
</g>
<!-- Node11 -->
<g id="node11" class="node">
<title>Node11</title>
<g id="a_node11"><a xlink:href="State_8cpp.html" target="_top" xlink:title=" ">
<polygon fill="none" stroke="black" points="1679,-156.5 1679,-197.5 1844,-197.5 1844,-156.5 1679,-156.5"/>
<text text-anchor="start" x="1687" y="-185.5" font-family="Helvetica,sans-Serif" font-size="10.00">/__w/pairinteraction</text>
<text text-anchor="start" x="1687" y="-174.5" font-family="Helvetica,sans-Serif" font-size="10.00">/pairinteraction/pairinteraction</text>
<text text-anchor="middle" x="1761.5" y="-163.5" font-family="Helvetica,sans-Serif" font-size="10.00">/State.cpp</text>
</a>
</g>
</g>
<!-- Node10&#45;&gt;Node11 -->
<g id="edge15" class="edge">
<title>Node10&#45;&gt;Node11</title>
<path fill="none" stroke="midnightblue" d="M863.81,-383.31C873.47,-374.22 884.13,-363.85 893.5,-354 910.44,-336.18 907.84,-323.63 929.5,-312 1044.32,-250.37 1091.59,-295.13 1220.5,-276 1421.28,-246.2 1471.32,-237.13 1670.5,-198 1673.2,-197.47 1675.94,-196.92 1678.71,-196.36"/>
<polygon fill="midnightblue" stroke="midnightblue" points="861.24,-380.92 856.32,-390.3 866.02,-386.03 861.24,-380.92"/>
</g>
<!-- Node12 -->
<g id="node12" class="node">
<title>Node12</title>
<g id="a_node12"><a xlink:href="StateOld_8cpp.html" target="_top" xlink:title=" ">
<polygon fill="none" stroke="black" points="939,-312.5 939,-353.5 1104,-353.5 1104,-312.5 939,-312.5"/>
<text text-anchor="start" x="947" y="-341.5" font-family="Helvetica,sans-Serif" font-size="10.00">/__w/pairinteraction</text>
<text text-anchor="start" x="947" y="-330.5" font-family="Helvetica,sans-Serif" font-size="10.00">/pairinteraction/pairinteraction</text>
<text text-anchor="middle" x="1021.5" y="-319.5" font-family="Helvetica,sans-Serif" font-size="10.00">/StateOld.cpp</text>
</a>
</g>
</g>
<!-- Node10&#45;&gt;Node12 -->
<g id="edge16" class="edge">
<title>Node10&#45;&gt;Node12</title>
<path fill="none" stroke="midnightblue" d="M892.06,-386.61C918.16,-376 948.66,-363.6 973.51,-353.51"/>
<polygon fill="midnightblue" stroke="midnightblue" points="890.6,-383.42 882.66,-390.43 893.24,-389.91 890.6,-383.42"/>
</g>
<!-- Node10&#45;&gt;Node13 -->
<g id="edge17" class="edge">
<title>Node10&#45;&gt;Node13</title>
<path fill="none" stroke="midnightblue" d="M927.44,-395.77C941.52,-393.74 955.89,-391.76 969.5,-390 1114.51,-371.28 1151.95,-375.95 1296.5,-354 1299.29,-353.58 1302.12,-353.13 1304.98,-352.67"/>
<polygon fill="midnightblue" stroke="midnightblue" points="926.64,-392.34 917.25,-397.24 927.65,-399.27 926.64,-392.34"/>
</g>
<!-- Node10&#45;&gt;Node14 -->
<g id="edge18" class="edge">
<title>Node10&#45;&gt;Node14</title>
<path fill="none" stroke="midnightblue" d="M741.69,-391.82C706.19,-382.98 665.98,-370.59 631.5,-354 587.92,-333.03 543.75,-297.71 518.3,-275.69"/>
<polygon fill="midnightblue" stroke="midnightblue" points="741.03,-395.26 751.57,-394.22 742.68,-388.46 741.03,-395.26"/>
</g>
<!-- Node15 -->
<g id="node15" class="node">
<title>Node15</title>
<g id="a_node15"><a xlink:href="Wavefunction_8cpp.html" target="_top" xlink:title=" ">
<polygon fill="none" stroke="black" points="1046,-234.5 1046,-275.5 1211,-275.5 1211,-234.5 1046,-234.5"/>
<text text-anchor="start" x="1054" y="-263.5" font-family="Helvetica,sans-Serif" font-size="10.00">/__w/pairinteraction</text>
<text text-anchor="start" x="1054" y="-252.5" font-family="Helvetica,sans-Serif" font-size="10.00">/pairinteraction/pairinteraction</text>
<text text-anchor="middle" x="1128.5" y="-241.5" font-family="Helvetica,sans-Serif" font-size="10.00">/Wavefunction.cpp</text>
</a>
</g>
</g>
<!-- Node10&#45;&gt;Node15 -->
<g id="edge19" class="edge">
<title>Node10&#45;&gt;Node15</title>
<path fill="none" stroke="midnightblue" d="M845.7,-380.91C855.72,-358.73 872.55,-329.16 896.5,-312 902.84,-307.46 981.91,-288.9 1046,-274.38"/>
<polygon fill="midnightblue" stroke="midnightblue" points="842.44,-379.64 841.7,-390.21 848.87,-382.4 842.44,-379.64"/>
</g>
<!-- Node16 -->
<g id="node16" class="node">
<title>Node16</title>
<g id="a_node16"><a xlink:href="Wavefunction_8hpp.html" target="_top" xlink:title=" ">
<polygon fill="none" stroke="black" points="641,-312.5 641,-353.5 806,-353.5 806,-312.5 641,-312.5"/>
<text text-anchor="start" x="649" y="-341.5" font-family="Helvetica,sans-Serif" font-size="10.00">/__w/pairinteraction</text>
<text text-anchor="start" x="649" y="-330.5" font-family="Helvetica,sans-Serif" font-size="10.00">/pairinteraction/pairinteraction</text>
<text text-anchor="middle" x="723.5" y="-319.5" font-family="Helvetica,sans-Serif" font-size="10.00">/Wavefunction.hpp</text>
</a>
</g>
</g>
<!-- Node10&#45;&gt;Node16 -->
<g id="edge20" class="edge">
<title>Node10&#45;&gt;Node16</title>
<path fill="none" stroke="midnightblue" d="M797.45,-384.64C782.63,-374.49 765.83,-362.98 751.99,-353.51"/>
<polygon fill="midnightblue" stroke="midnightblue" points="795.69,-387.67 805.91,-390.43 799.64,-381.89 795.69,-387.67"/>
</g>
<!-- Node16&#45;&gt;Node14 -->
<g id="edge34" class="edge">
<title>Node16&#45;&gt;Node14</title>
<path fill="none" stroke="midnightblue" d="M655.3,-309.17C623.25,-298.44 585.44,-285.78 554.76,-275.51"/>
<polygon fill="midnightblue" stroke="midnightblue" points="654.45,-312.57 665.04,-312.43 656.67,-305.93 654.45,-312.57"/>
</g>
<!-- Node16&#45;&gt;Node15 -->
<g id="edge35" class="edge">
<title>Node16&#45;&gt;Node15</title>
<path fill="none" stroke="midnightblue" d="M816.17,-316.47C878.79,-305.73 963.27,-290.77 1037.5,-276 1040.2,-275.46 1042.94,-274.91 1045.7,-274.34"/>
<polygon fill="midnightblue" stroke="midnightblue" points="815.58,-313.02 806.31,-318.16 816.76,-319.92 815.58,-313.02"/>
</g>
<!-- Node17 -->
<g id="node17" class="node">
<title>Node17</title>
<g id="a_node17"><a xlink:href="MatrixElementCache_8hpp.html" target="_top" xlink:title=" ">
<polygon fill="none" stroke="black" points="863,-234.5 863,-275.5 1028,-275.5 1028,-234.5 863,-234.5"/>
<text text-anchor="start" x="871" y="-263.5" font-family="Helvetica,sans-Serif" font-size="10.00">/__w/pairinteraction</text>
<text text-anchor="start" x="871" y="-252.5" font-family="Helvetica,sans-Serif" font-size="10.00">/pairinteraction/pairinteraction</text>
<text text-anchor="middle" x="945.5" y="-241.5" font-family="Helvetica,sans-Serif" font-size="10.00">/MatrixElementCache.hpp</text>
</a>
</g>
</g>
<!-- Node16&#45;&gt;Node17 -->
<g id="edge21" class="edge">
<title>Node16&#45;&gt;Node17</title>
<path fill="none" stroke="midnightblue" d="M790.2,-309.17C821.54,-298.44 858.52,-285.78 888.52,-275.51"/>
<polygon fill="midnightblue" stroke="midnightblue" points="789,-305.88 780.67,-312.43 791.27,-312.5 789,-305.88"/>
</g>
<!-- Node24 -->
<g id="node24" class="node">
<title>Node24</title>
<g id="a_node24"><a xlink:href="MatrixElements_8hpp.html" target="_top" xlink:title=" ">
<polygon fill="none" stroke="black" points="603,-234.5 603,-275.5 768,-275.5 768,-234.5 603,-234.5"/>
<text text-anchor="start" x="611" y="-263.5" font-family="Helvetica,sans-Serif" font-size="10.00">/__w/pairinteraction</text>
<text text-anchor="start" x="611" y="-252.5" font-family="Helvetica,sans-Serif" font-size="10.00">/pairinteraction/pairinteraction</text>
<text text-anchor="middle" x="685.5" y="-241.5" font-family="Helvetica,sans-Serif" font-size="10.00">/MatrixElements.hpp</text>
</a>
</g>
</g>
<!-- Node16&#45;&gt;Node24 -->
<g id="edge30" class="edge">
<title>Node16&#45;&gt;Node24</title>
<path fill="none" stroke="midnightblue" d="M709.23,-303.47C704.57,-294.14 699.5,-284.01 695.25,-275.51"/>
<polygon fill="midnightblue" stroke="midnightblue" points="706.11,-305.05 713.71,-312.43 712.37,-301.92 706.11,-305.05"/>
</g>
<!-- Node17&#45;&gt;Node7 -->
<g id="edge23" class="edge">
<title>Node17&#45;&gt;Node7</title>
<path fill="none" stroke="midnightblue" d="M856.32,-231.99C812.14,-221.09 759.26,-208.04 716.55,-197.51"/>
<polygon fill="midnightblue" stroke="midnightblue" points="855.64,-235.43 866.18,-234.43 857.31,-228.63 855.64,-235.43"/>
</g>
<!-- Node17&#45;&gt;Node11 -->
<g id="edge26" class="edge">
<title>Node17&#45;&gt;Node11</title>
<path fill="none" stroke="midnightblue" d="M1038.2,-234.04C1318.48,-196.89 1394.61,-235.92 1670.5,-198 1673.22,-197.63 1675.99,-197.21 1678.77,-196.77"/>
<polygon fill="midnightblue" stroke="midnightblue" points="1037.59,-230.59 1028.14,-235.39 1038.52,-237.53 1037.59,-230.59"/>
</g>
<!-- Node18 -->
<g id="node18" class="node">
<title>Node18</title>
<g id="a_node18"><a xlink:href="integration__bench_8cpp.html" target="_top" xlink:title=" ">
<polygon fill="none" stroke="black" points="738,-156.5 738,-197.5 929,-197.5 929,-156.5 738,-156.5"/>
<text text-anchor="start" x="746" y="-185.5" font-family="Helvetica,sans-Serif" font-size="10.00">/__w/pairinteraction</text>
<text text-anchor="start" x="746" y="-174.5" font-family="Helvetica,sans-Serif" font-size="10.00">/pairinteraction/pairinteraction</text>
<text text-anchor="middle" x="833.5" y="-163.5" font-family="Helvetica,sans-Serif" font-size="10.00">/benchmarks/integration_bench.cpp</text>
</a>
</g>
</g>
<!-- Node17&#45;&gt;Node18 -->
<g id="edge22" class="edge">
<title>Node17&#45;&gt;Node18</title>
<path fill="none" stroke="midnightblue" d="M908.12,-228.64C893.16,-218.49 876.21,-206.98 862.25,-197.51"/>
<polygon fill="midnightblue" stroke="midnightblue" points="906.42,-231.71 916.66,-234.43 910.35,-225.92 906.42,-231.71"/>
</g>
<!-- Node19 -->
<g id="node19" class="node">
<title>Node19</title>
<g id="a_node19"><a xlink:href="PerturbativeInteraction_8hpp.html" target="_top" xlink:title=" ">
<polygon fill="none" stroke="black" points="947,-156.5 947,-197.5 1112,-197.5 1112,-156.5 947,-156.5"/>
<text text-anchor="start" x="955" y="-185.5" font-family="Helvetica,sans-Serif" font-size="10.00">/__w/pairinteraction</text>
<text text-anchor="start" x="955" y="-174.5" font-family="Helvetica,sans-Serif" font-size="10.00">/pairinteraction/pairinteraction</text>
<text text-anchor="middle" x="1029.5" y="-163.5" font-family="Helvetica,sans-Serif" font-size="10.00">/PerturbativeInteraction.hpp</text>
</a>
</g>
</g>
<!-- Node17&#45;&gt;Node19 -->
<g id="edge24" class="edge">
<title>Node17&#45;&gt;Node19</title>
<path fill="none" stroke="midnightblue" d="M974.8,-227.49C985.7,-217.63 997.86,-206.63 1007.94,-197.51"/>
<polygon fill="midnightblue" stroke="midnightblue" points="972.2,-225.12 967.13,-234.43 976.9,-230.31 972.2,-225.12"/>
</g>
<!-- Node21 -->
<g id="node21" class="node">
<title>Node21</title>
<g id="a_node21"><a xlink:href="SystemOne_8cpp.html" target="_top" xlink:title=" ">
<polygon fill="none" stroke="black" points="1130,-156.5 1130,-197.5 1295,-197.5 1295,-156.5 1130,-156.5"/>
<text text-anchor="start" x="1138" y="-185.5" font-family="Helvetica,sans-Serif" font-size="10.00">/__w/pairinteraction</text>
<text text-anchor="start" x="1138" y="-174.5" font-family="Helvetica,sans-Serif" font-size="10.00">/pairinteraction/pairinteraction</text>
<text text-anchor="middle" x="1212.5" y="-163.5" font-family="Helvetica,sans-Serif" font-size="10.00">/SystemOne.cpp</text>
</a>
</g>
</g>
<!-- Node17&#45;&gt;Node21 -->
<g id="edge27" class="edge">
<title>Node17&#45;&gt;Node21</title>
<path fill="none" stroke="midnightblue" d="M1024.26,-231.58C1062.26,-220.76 1107.42,-207.91 1143.97,-197.51"/>
<polygon fill="midnightblue" stroke="midnightblue" points="1022.92,-228.32 1014.26,-234.43 1024.84,-235.06 1022.92,-228.32"/>
</g>
<!-- Node22 -->
<g id="node22" class="node">
<title>Node22</title>
<g id="a_node22"><a xlink:href="SystemTwo_8cpp.html" target="_top" xlink:title=" ">
<polygon fill="none" stroke="black" points="1313,-156.5 1313,-197.5 1478,-197.5 1478,-156.5 1313,-156.5"/>
<text text-anchor="start" x="1321" y="-185.5" font-family="Helvetica,sans-Serif" font-size="10.00">/__w/pairinteraction</text>
<text text-anchor="start" x="1321" y="-174.5" font-family="Helvetica,sans-Serif" font-size="10.00">/pairinteraction/pairinteraction</text>
<text text-anchor="middle" x="1395.5" y="-163.5" font-family="Helvetica,sans-Serif" font-size="10.00">/SystemTwo.cpp</text>
</a>
</g>
</g>
<!-- Node17&#45;&gt;Node22 -->
<g id="edge28" class="edge">
<title>Node17&#45;&gt;Node22</title>
<path fill="none" stroke="midnightblue" d="M1038.06,-233.98C1157.14,-213.54 1189.7,-218.32 1304.5,-198 1307.21,-197.52 1309.96,-197.02 1312.73,-196.49"/>
<polygon fill="midnightblue" stroke="midnightblue" points="1037.44,-230.53 1028.19,-235.7 1038.64,-237.43 1037.44,-230.53"/>
</g>
<!-- Node23 -->
<g id="node23" class="node">
<title>Node23</title>
<g id="a_node23"><a xlink:href="integration__test_8cpp.html" target="_top" xlink:title=" ">
<polygon fill="none" stroke="black" points="1496,-156.5 1496,-197.5 1661,-197.5 1661,-156.5 1496,-156.5"/>
<text text-anchor="start" x="1504" y="-185.5" font-family="Helvetica,sans-Serif" font-size="10.00">/__w/pairinteraction</text>
<text text-anchor="start" x="1504" y="-174.5" font-family="Helvetica,sans-Serif" font-size="10.00">/pairinteraction/pairinteraction</text>
<text text-anchor="middle" x="1578.5" y="-163.5" font-family="Helvetica,sans-Serif" font-size="10.00">/unit_test/integration_test.cpp</text>
</a>
</g>
</g>
<!-- Node17&#45;&gt;Node23 -->
<g id="edge29" class="edge">
<title>Node17&#45;&gt;Node23</title>
<path fill="none" stroke="midnightblue" d="M1038.08,-234.03C1237.73,-205.35 1292.25,-227.13 1487.5,-198 1490.22,-197.59 1492.98,-197.15 1495.76,-196.69"/>
<polygon fill="midnightblue" stroke="midnightblue" points="1037.54,-230.57 1028.16,-235.48 1038.56,-237.5 1037.54,-230.57"/>
</g>
<!-- Node20 -->
<g id="node20" class="node">
<title>Node20</title>
<g id="a_node20"><a xlink:href="PerturbativeInteraction_8cpp.html" target="_top" xlink:title=" ">
<polygon fill="none" stroke="black" points="947,-78.5 947,-119.5 1112,-119.5 1112,-78.5 947,-78.5"/>
<text text-anchor="start" x="955" y="-107.5" font-family="Helvetica,sans-Serif" font-size="10.00">/__w/pairinteraction</text>
<text text-anchor="start" x="955" y="-96.5" font-family="Helvetica,sans-Serif" font-size="10.00">/pairinteraction/pairinteraction</text>
<text text-anchor="middle" x="1029.5" y="-85.5" font-family="Helvetica,sans-Serif" font-size="10.00">/PerturbativeInteraction.cpp</text>
</a>
</g>
</g>
<!-- Node19&#45;&gt;Node20 -->
<g id="edge25" class="edge">
<title>Node19&#45;&gt;Node20</title>
<path fill="none" stroke="midnightblue" d="M1029.5,-146.3C1029.5,-137.3 1029.5,-127.65 1029.5,-119.51"/>
<polygon fill="midnightblue" stroke="midnightblue" points="1026,-146.43 1029.5,-156.43 1033,-146.43 1026,-146.43"/>
</g>
<!-- Node24&#45;&gt;Node2 -->
<g id="edge31" class="edge">
<title>Node24&#45;&gt;Node2</title>
<path fill="none" stroke="midnightblue" d="M592.84,-233.96C472.56,-213.22 440.17,-214.75 323.5,-198 308.24,-195.81 291.99,-193.38 276.34,-191"/>
<polygon fill="midnightblue" stroke="midnightblue" points="592.36,-237.43 602.81,-235.69 593.56,-230.53 592.36,-237.43"/>
</g>
<!-- Node24&#45;&gt;Node4 -->
<g id="edge32" class="edge">
<title>Node24&#45;&gt;Node4</title>
<path fill="none" stroke="midnightblue" d="M609.86,-230.76C588.08,-222.25 564.96,-211.35 545.5,-198 524.5,-183.59 528.26,-169.24 506.5,-156 470.43,-134.06 425.58,-120.51 387.3,-112.24"/>
<polygon fill="midnightblue" stroke="midnightblue" points="608.84,-234.11 619.43,-234.38 611.32,-227.57 608.84,-234.11"/>
</g>
<!-- Node24&#45;&gt;Node8 -->
<g id="edge33" class="edge">
<title>Node24&#45;&gt;Node8</title>
<path fill="none" stroke="midnightblue" d="M606.34,-231.72C567.81,-220.87 521.92,-207.96 484.8,-197.51"/>
<polygon fill="midnightblue" stroke="midnightblue" points="605.39,-235.09 615.97,-234.43 607.29,-228.35 605.39,-235.09"/>
</g>
</g>
</svg>
