<?xml version="1.0" encoding="UTF-8" standalone="no"?>
<!DOCTYPE svg PUBLIC "-//W3C//DTD SVG 1.1//EN"
 "http://www.w3.org/Graphics/SVG/1.1/DTD/svg11.dtd">
<!-- Generated by graphviz version 2.43.0 (0)
 -->
<!-- Title: /__w/pairinteraction/pairinteraction/pairinteraction/State.cpp Pages: 1 -->
<svg width="1780pt" height="397pt"
 viewBox="0.00 0.00 1780.00 397.00" xmlns="http://www.w3.org/2000/svg" xmlns:xlink="http://www.w3.org/1999/xlink">
<g id="graph0" class="graph" transform="scale(1 1) rotate(0) translate(4 393)">
<title>/__w/pairinteraction/pairinteraction/pairinteraction/State.cpp</title>
<!-- Node1 -->
<g id="node1" class="node">
<title>Node1</title>
<g id="a_node1"><a xlink:title=" ">
<polygon fill="#bfbfbf" stroke="black" points="1169.5,-347.5 1169.5,-388.5 1334.5,-388.5 1334.5,-347.5 1169.5,-347.5"/>
<text text-anchor="start" x="1177.5" y="-376.5" font-family="Helvetica,sans-Serif" font-size="10.00">/__w/pairinteraction</text>
<text text-anchor="start" x="1177.5" y="-365.5" font-family="Helvetica,sans-Serif" font-size="10.00">/pairinteraction/pairinteraction</text>
<text text-anchor="middle" x="1252" y="-354.5" font-family="Helvetica,sans-Serif" font-size="10.00">/State.cpp</text>
</a>
</g>
</g>
<!-- Node2 -->
<g id="node2" class="node">
<title>Node2</title>
<g id="a_node2"><a xlink:href="State_8hpp.html" target="_top" xlink:title=" ">
<polygon fill="none" stroke="black" points="192.5,-112.5 192.5,-131.5 255.5,-131.5 255.5,-112.5 192.5,-112.5"/>
<text text-anchor="middle" x="224" y="-119.5" font-family="Helvetica,sans-Serif" font-size="10.00">State.hpp</text>
</a>
</g>
</g>
<!-- Node1&#45;&gt;Node2 -->
<g id="edge1" class="edge">
<title>Node1&#45;&gt;Node2</title>
<path fill="none" stroke="midnightblue" d="M1169.08,-365.85C919.58,-361.99 190.78,-347.6 156,-311 108.41,-260.92 175.93,-175.06 208.33,-139.34"/>
<polygon fill="midnightblue" stroke="midnightblue" points="211.13,-141.47 215.37,-131.76 206,-136.71 211.13,-141.47"/>
</g>
<!-- Node3 -->
<g id="node3" class="node">
<title>Node3</title>
<g id="a_node3"><a xlink:href="utils_8hpp.html" target="_top" xlink:title=" ">
<polygon fill="none" stroke="black" points="1018.5,-56.5 1018.5,-75.5 1077.5,-75.5 1077.5,-56.5 1018.5,-56.5"/>
<text text-anchor="middle" x="1048" y="-63.5" font-family="Helvetica,sans-Serif" font-size="10.00">utils.hpp</text>
</a>
</g>
</g>
<!-- Node1&#45;&gt;Node3 -->
<g id="edge71" class="edge">
<title>Node1&#45;&gt;Node3</title>
<path fill="none" stroke="midnightblue" d="M1324.08,-347.49C1425.3,-316.58 1590.2,-251.22 1524,-168 1479.7,-112.32 1435.83,-153.51 1368,-132 1345.58,-124.89 1341.67,-118.29 1319,-112 1221.5,-84.94 1191.28,-95.08 1087.68,-75.98"/>
<polygon fill="midnightblue" stroke="midnightblue" points="1088.24,-72.52 1077.76,-74.1 1086.94,-79.4 1088.24,-72.52"/>
</g>
<!-- Node5 -->
<g id="node5" class="node">
<title>Node5</title>
<g id="a_node5"><a xlink:title=" ">
<polygon fill="none" stroke="#bfbfbf" points="253,-0.5 253,-19.5 295,-19.5 295,-0.5 253,-0.5"/>
<text text-anchor="middle" x="274" y="-7.5" font-family="Helvetica,sans-Serif" font-size="10.00">array</text>
</a>
</g>
</g>
<!-- Node1&#45;&gt;Node5 -->
<g id="edge72" class="edge">
<title>Node1&#45;&gt;Node5</title>
<path fill="none" stroke="midnightblue" d="M1169.48,-367.25C946.24,-367.23 334.24,-362.34 140,-311 72.65,-293.2 0,-310.17 0,-240.5 0,-240.5 0,-240.5 0,-121 0,-85.61 16.3,-75.24 46,-56 107.41,-16.21 196.25,-10.21 242.83,-10.1"/>
<polygon fill="midnightblue" stroke="midnightblue" points="242.89,-13.6 252.91,-10.17 242.93,-6.6 242.89,-13.6"/>
</g>
<!-- Node12 -->
<g id="node12" class="node">
<title>Node12</title>
<g id="a_node12"><a xlink:title=" ">
<polygon fill="none" stroke="#bfbfbf" points="421,-56.5 421,-75.5 481,-75.5 481,-56.5 421,-56.5"/>
<text text-anchor="middle" x="451" y="-63.5" font-family="Helvetica,sans-Serif" font-size="10.00">iostream</text>
</a>
</g>
</g>
<!-- Node1&#45;&gt;Node12 -->
<g id="edge75" class="edge">
<title>Node1&#45;&gt;Node12</title>
<path fill="none" stroke="midnightblue" d="M1169.49,-366.42C977.96,-364.35 508.02,-354.8 357,-311 307.33,-296.59 281.34,-299.51 255,-255 227.89,-209.19 265.86,-145.27 303,-112 311.25,-104.61 370.28,-88.07 411.25,-77.23"/>
<polygon fill="midnightblue" stroke="midnightblue" points="412.19,-80.6 420.97,-74.68 410.41,-73.83 412.19,-80.6"/>
</g>
<!-- Node13 -->
<g id="node13" class="node">
<title>Node13</title>
<g id="a_node13"><a xlink:title=" ">
<polygon fill="none" stroke="#bfbfbf" points="537,-56.5 537,-75.5 581,-75.5 581,-56.5 537,-56.5"/>
<text text-anchor="middle" x="559" y="-63.5" font-family="Helvetica,sans-Serif" font-size="10.00">string</text>
</a>
</g>
</g>
<!-- Node1&#45;&gt;Node13 -->
<g id="edge76" class="edge">
<title>Node1&#45;&gt;Node13</title>
<path fill="none" stroke="midnightblue" d="M1169.26,-363.81C942.67,-354.21 324.91,-322.09 265,-255 255.82,-244.72 257.91,-235.82 265,-224 294.78,-174.34 457.72,-106.36 527.38,-79.06"/>
<polygon fill="midnightblue" stroke="midnightblue" points="528.91,-82.23 536.96,-75.34 526.37,-75.7 528.91,-82.23"/>
</g>
<!-- Node16 -->
<g id="node16" class="node">
<title>Node16</title>
<g id="a_node16"><a xlink:href="Constants_8hpp.html" target="_top" xlink:title=" ">
<polygon fill="none" stroke="black" points="1209,-291.5 1209,-310.5 1295,-310.5 1295,-291.5 1209,-291.5"/>
<text text-anchor="middle" x="1252" y="-298.5" font-family="Helvetica,sans-Serif" font-size="10.00">Constants.hpp</text>
</a>
</g>
</g>
<!-- Node1&#45;&gt;Node16 -->
<g id="edge16" class="edge">
<title>Node1&#45;&gt;Node16</title>
<path fill="none" stroke="midnightblue" d="M1252,-347.5C1252,-339.07 1252,-329.24 1252,-320.87"/>
<polygon fill="midnightblue" stroke="midnightblue" points="1255.5,-320.65 1252,-310.65 1248.5,-320.65 1255.5,-320.65"/>
</g>
<!-- Node17 -->
<g id="node17" class="node">
<title>Node17</title>
<g id="a_node17"><a xlink:href="MatrixElementCache_8hpp.html" target="_top" xlink:title=" ">
<polygon fill="none" stroke="black" points="868,-291.5 868,-310.5 1008,-310.5 1008,-291.5 868,-291.5"/>
<text text-anchor="middle" x="938" y="-298.5" font-family="Helvetica,sans-Serif" font-size="10.00">MatrixElementCache.hpp</text>
</a>
</g>
</g>
<!-- Node1&#45;&gt;Node17 -->
<g id="edge17" class="edge">
<title>Node1&#45;&gt;Node17</title>
<path fill="none" stroke="midnightblue" d="M1169.09,-349.84C1111.92,-338 1037.75,-322.65 989.06,-312.57"/>
<polygon fill="midnightblue" stroke="midnightblue" points="989.58,-309.1 979.08,-310.5 988.16,-315.96 989.58,-309.1"/>
</g>
<!-- Node30 -->
<g id="node30" class="node">
<title>Node30</title>
<g id="a_node30"><a xlink:href="QuantumDefect_8hpp.html" target="_top" xlink:title=" ">
<polygon fill="none" stroke="black" points="1400.5,-168.5 1400.5,-187.5 1515.5,-187.5 1515.5,-168.5 1400.5,-168.5"/>
<text text-anchor="middle" x="1458" y="-175.5" font-family="Helvetica,sans-Serif" font-size="10.00">QuantumDefect.hpp</text>
</a>
</g>
</g>
<!-- Node1&#45;&gt;Node30 -->
<g id="edge70" class="edge">
<title>Node1&#45;&gt;Node30</title>
<path fill="none" stroke="midnightblue" d="M1273.66,-347.24C1314.76,-309.72 1403.32,-228.91 1440.74,-194.75"/>
<polygon fill="midnightblue" stroke="midnightblue" points="1443.29,-197.17 1448.31,-187.84 1438.57,-192 1443.29,-197.17"/>
</g>
<!-- Node34 -->
<g id="node34" class="node">
<title>Node34</title>
<g id="a_node34"><a xlink:title=" ">
<polygon fill="none" stroke="#bfbfbf" points="1548.5,-56.5 1548.5,-75.5 1593.5,-75.5 1593.5,-56.5 1548.5,-56.5"/>
<text text-anchor="middle" x="1571" y="-63.5" font-family="Helvetica,sans-Serif" font-size="10.00">utility</text>
</a>
</g>
</g>
<!-- Node1&#45;&gt;Node34 -->
<g id="edge77" class="edge">
<title>Node1&#45;&gt;Node34</title>
<path fill="none" stroke="midnightblue" d="M1334.59,-355.52C1443.09,-338.09 1620,-300.46 1620,-240.5 1620,-240.5 1620,-240.5 1620,-177 1620,-141.47 1598.4,-104.63 1583.88,-83.88"/>
<polygon fill="midnightblue" stroke="midnightblue" points="1586.53,-81.57 1577.81,-75.54 1580.87,-85.69 1586.53,-81.57"/>
</g>
<!-- Node44 -->
<g id="node44" class="node">
<title>Node44</title>
<g id="a_node44"><a xlink:title=" ">
<polygon fill="none" stroke="#bfbfbf" points="1648.5,-291.5 1648.5,-310.5 1697.5,-310.5 1697.5,-291.5 1648.5,-291.5"/>
<text text-anchor="middle" x="1673" y="-298.5" font-family="Helvetica,sans-Serif" font-size="10.00">cctype</text>
</a>
</g>
</g>
<!-- Node1&#45;&gt;Node44 -->
<g id="edge73" class="edge">
<title>Node1&#45;&gt;Node44</title>
<path fill="none" stroke="midnightblue" d="M1334.66,-356.85C1412.25,-346.86 1531.41,-330.32 1634,-311 1635.45,-310.73 1636.93,-310.44 1638.42,-310.13"/>
<polygon fill="midnightblue" stroke="midnightblue" points="1639.26,-313.53 1648.31,-308.02 1637.79,-306.69 1639.26,-313.53"/>
</g>
<!-- Node45 -->
<g id="node45" class="node">
<title>Node45</title>
<g id="a_node45"><a xlink:title=" ">
<polygon fill="none" stroke="#bfbfbf" points="1716,-291.5 1716,-310.5 1772,-310.5 1772,-291.5 1716,-291.5"/>
<text text-anchor="middle" x="1744" y="-298.5" font-family="Helvetica,sans-Serif" font-size="10.00">iomanip</text>
</a>
</g>
</g>
<!-- Node1&#45;&gt;Node45 -->
<g id="edge74" class="edge">
<title>Node1&#45;&gt;Node45</title>
<path fill="none" stroke="midnightblue" d="M1334.84,-359.54C1426.16,-350.68 1577.22,-334.12 1706,-311 1706.1,-310.98 1706.2,-310.96 1706.3,-310.95"/>
<polygon fill="midnightblue" stroke="midnightblue" points="1706.73,-314.43 1715.85,-309.03 1705.36,-307.57 1706.73,-314.43"/>
</g>
<!-- Node2&#45;&gt;Node3 -->
<g id="edge2" class="edge">
<title>Node2&#45;&gt;Node3</title>
<path fill="none" stroke="midnightblue" d="M255.87,-116.98C270.25,-115.27 287.46,-113.35 303,-112 571.86,-88.58 896.38,-73.48 1008.02,-68.67"/>
<polygon fill="midnightblue" stroke="midnightblue" points="1008.31,-72.16 1018.15,-68.23 1008.01,-65.16 1008.31,-72.16"/>
</g>
<!-- Node2&#45;&gt;Node5 -->
<g id="edge10" class="edge">
<title>Node2&#45;&gt;Node5</title>
<path fill="none" stroke="midnightblue" d="M192.2,-119.62C133.86,-115.93 19,-102.69 57,-56 80.05,-27.67 188.25,-16.61 242.63,-12.79"/>
<polygon fill="midnightblue" stroke="midnightblue" points="243,-16.27 252.75,-12.12 242.54,-9.29 243,-16.27"/>
</g>
<!-- Node11 -->
<g id="node11" class="node">
<title>Node11</title>
<g id="a_node11"><a xlink:title=" ">
<polygon fill="none" stroke="#bfbfbf" points="212.5,-56.5 212.5,-75.5 259.5,-75.5 259.5,-56.5 212.5,-56.5"/>
<text text-anchor="middle" x="236" y="-63.5" font-family="Helvetica,sans-Serif" font-size="10.00">cmath</text>
</a>
</g>
</g>
<!-- Node2&#45;&gt;Node11 -->
<g id="edge11" class="edge">
<title>Node2&#45;&gt;Node11</title>
<path fill="none" stroke="midnightblue" d="M225.98,-112.08C227.57,-104.93 229.86,-94.64 231.85,-85.69"/>
<polygon fill="midnightblue" stroke="midnightblue" points="235.3,-86.27 234.06,-75.75 228.47,-84.75 235.3,-86.27"/>
</g>
<!-- Node2&#45;&gt;Node12 -->
<g id="edge12" class="edge">
<title>Node2&#45;&gt;Node12</title>
<path fill="none" stroke="midnightblue" d="M255.56,-113.49C296.14,-103.84 366.62,-87.07 410.94,-76.53"/>
<polygon fill="midnightblue" stroke="midnightblue" points="411.87,-79.91 420.79,-74.19 410.25,-73.1 411.87,-79.91"/>
</g>
<!-- Node2&#45;&gt;Node13 -->
<g id="edge13" class="edge">
<title>Node2&#45;&gt;Node13</title>
<path fill="none" stroke="midnightblue" d="M255.52,-115.92C319.24,-105.65 462.77,-82.51 526.94,-72.17"/>
<polygon fill="midnightblue" stroke="midnightblue" points="527.58,-75.61 536.89,-70.56 526.46,-68.7 527.58,-75.61"/>
</g>
<!-- Node14 -->
<g id="node14" class="node">
<title>Node14</title>
<g id="a_node14"><a xlink:title=" ">
<polygon fill="none" stroke="#bfbfbf" points="277.5,-56.5 277.5,-75.5 402.5,-75.5 402.5,-56.5 277.5,-56.5"/>
<text text-anchor="middle" x="340" y="-63.5" font-family="Helvetica,sans-Serif" font-size="10.00">cereal/types/array.hpp</text>
</a>
</g>
</g>
<!-- Node2&#45;&gt;Node14 -->
<g id="edge14" class="edge">
<title>Node2&#45;&gt;Node14</title>
<path fill="none" stroke="midnightblue" d="M242.38,-112.44C261.22,-103.68 290.73,-89.94 312.38,-79.86"/>
<polygon fill="midnightblue" stroke="midnightblue" points="314.12,-82.91 321.71,-75.52 311.16,-76.56 314.12,-82.91"/>
</g>
<!-- Node15 -->
<g id="node15" class="node">
<title>Node15</title>
<g id="a_node15"><a xlink:title=" ">
<polygon fill="none" stroke="#bfbfbf" points="66,-56.5 66,-75.5 194,-75.5 194,-56.5 66,-56.5"/>
<text text-anchor="middle" x="130" y="-63.5" font-family="Helvetica,sans-Serif" font-size="10.00">cereal/types/string.hpp</text>
</a>
</g>
</g>
<!-- Node2&#45;&gt;Node15 -->
<g id="edge15" class="edge">
<title>Node2&#45;&gt;Node15</title>
<path fill="none" stroke="midnightblue" d="M208.9,-112.32C194.1,-103.82 171.31,-90.73 154.02,-80.8"/>
<polygon fill="midnightblue" stroke="midnightblue" points="155.48,-77.6 145.07,-75.65 151.99,-83.67 155.48,-77.6"/>
</g>
<!-- Node4 -->
<g id="node4" class="node">
<title>Node4</title>
<g id="a_node4"><a xlink:title=" ">
<polygon fill="none" stroke="#bfbfbf" points="936,-0.5 936,-19.5 1000,-19.5 1000,-0.5 936,-0.5"/>
<text text-anchor="middle" x="968" y="-7.5" font-family="Helvetica,sans-Serif" font-size="10.00">algorithm</text>
</a>
</g>
</g>
<!-- Node3&#45;&gt;Node4 -->
<g id="edge3" class="edge">
<title>Node3&#45;&gt;Node4</title>
<path fill="none" stroke="midnightblue" d="M1035.15,-56.32C1022.78,-47.98 1003.87,-35.21 989.26,-25.35"/>
<polygon fill="midnightblue" stroke="midnightblue" points="991.07,-22.35 980.82,-19.65 987.15,-28.15 991.07,-22.35"/>
</g>
<!-- Node3&#45;&gt;Node5 -->
<g id="edge4" class="edge">
<title>Node3&#45;&gt;Node5</title>
<path fill="none" stroke="midnightblue" d="M1018.13,-62.92C895.44,-54.36 430.77,-21.94 305.35,-13.19"/>
<polygon fill="midnightblue" stroke="midnightblue" points="305.49,-9.69 295.27,-12.48 305,-16.67 305.49,-9.69"/>
</g>
<!-- Node6 -->
<g id="node6" class="node">
<title>Node6</title>
<g id="a_node6"><a xlink:title=" ">
<polygon fill="none" stroke="#bfbfbf" points="1018.5,-0.5 1018.5,-19.5 1077.5,-19.5 1077.5,-0.5 1018.5,-0.5"/>
<text text-anchor="middle" x="1048" y="-7.5" font-family="Helvetica,sans-Serif" font-size="10.00">complex</text>
</a>
</g>
</g>
<!-- Node3&#45;&gt;Node6 -->
<g id="edge5" class="edge">
<title>Node3&#45;&gt;Node6</title>
<path fill="none" stroke="midnightblue" d="M1048,-56.08C1048,-49.01 1048,-38.86 1048,-29.99"/>
<polygon fill="midnightblue" stroke="midnightblue" points="1051.5,-29.75 1048,-19.75 1044.5,-29.75 1051.5,-29.75"/>
</g>
<!-- Node7 -->
<g id="node7" class="node">
<title>Node7</title>
<g id="a_node7"><a xlink:title=" ">
<polygon fill="none" stroke="#bfbfbf" points="1095.5,-0.5 1095.5,-19.5 1160.5,-19.5 1160.5,-0.5 1095.5,-0.5"/>
<text text-anchor="middle" x="1128" y="-7.5" font-family="Helvetica,sans-Serif" font-size="10.00">functional</text>
</a>
</g>
</g>
<!-- Node3&#45;&gt;Node7 -->
<g id="edge6" class="edge">
<title>Node3&#45;&gt;Node7</title>
<path fill="none" stroke="midnightblue" d="M1060.85,-56.32C1073.22,-47.98 1092.13,-35.21 1106.74,-25.35"/>
<polygon fill="midnightblue" stroke="midnightblue" points="1108.85,-28.15 1115.18,-19.65 1104.93,-22.35 1108.85,-28.15"/>
</g>
<!-- Node8 -->
<g id="node8" class="node">
<title>Node8</title>
<g id="a_node8"><a xlink:title=" ">
<polygon fill="none" stroke="#bfbfbf" points="1355,-0.5 1355,-19.5 1409,-19.5 1409,-0.5 1355,-0.5"/>
<text text-anchor="middle" x="1382" y="-7.5" font-family="Helvetica,sans-Serif" font-size="10.00">random</text>
</a>
</g>
</g>
<!-- Node3&#45;&gt;Node8 -->
<g id="edge7" class="edge">
<title>Node3&#45;&gt;Node8</title>
<path fill="none" stroke="midnightblue" d="M1077.76,-57.89C1080.87,-57.22 1084,-56.57 1087,-56 1179.02,-38.39 1288.25,-23.2 1344.45,-15.8"/>
<polygon fill="midnightblue" stroke="midnightblue" points="1345.17,-19.24 1354.63,-14.47 1344.26,-12.3 1345.17,-19.24"/>
</g>
<!-- Node9 -->
<g id="node9" class="node">
<title>Node9</title>
<g id="a_node9"><a xlink:title=" ">
<polygon fill="none" stroke="#bfbfbf" points="1178.5,-0.5 1178.5,-19.5 1247.5,-19.5 1247.5,-0.5 1178.5,-0.5"/>
<text text-anchor="middle" x="1213" y="-7.5" font-family="Helvetica,sans-Serif" font-size="10.00">type_traits</text>
</a>
</g>
</g>
<!-- Node3&#45;&gt;Node9 -->
<g id="edge8" class="edge">
<title>Node3&#45;&gt;Node9</title>
<path fill="none" stroke="midnightblue" d="M1074.14,-56.44C1102.02,-47.32 1146.35,-32.81 1177.4,-22.65"/>
<polygon fill="midnightblue" stroke="midnightblue" points="1178.56,-25.95 1186.98,-19.52 1176.38,-19.3 1178.56,-25.95"/>
</g>
<!-- Node10 -->
<g id="node10" class="node">
<title>Node10</title>
<g id="a_node10"><a xlink:title=" ">
<polygon fill="none" stroke="#bfbfbf" points="862,-0.5 862,-19.5 918,-19.5 918,-0.5 862,-0.5"/>
<text text-anchor="middle" x="890" y="-7.5" font-family="Helvetica,sans-Serif" font-size="10.00">unistd.h</text>
</a>
</g>
</g>
<!-- Node3&#45;&gt;Node10 -->
<g id="edge9" class="edge">
<title>Node3&#45;&gt;Node10</title>
<path fill="none" stroke="midnightblue" d="M1022.96,-56.44C996.38,-47.36 954.19,-32.94 924.48,-22.78"/>
<polygon fill="midnightblue" stroke="midnightblue" points="925.51,-19.44 914.92,-19.52 923.25,-26.06 925.51,-19.44"/>
</g>
<!-- Node17&#45;&gt;Node2 -->
<g id="edge38" class="edge">
<title>Node17&#45;&gt;Node2</title>
<path fill="none" stroke="midnightblue" d="M867.9,-299.74C705.06,-298.5 311.5,-291.71 265,-255 230.25,-227.57 224.29,-171.11 223.68,-141.72"/>
<polygon fill="midnightblue" stroke="midnightblue" points="227.18,-141.57 223.66,-131.57 220.18,-141.58 227.18,-141.57"/>
</g>
<!-- Node17&#45;&gt;Node3 -->
<g id="edge61" class="edge">
<title>Node17&#45;&gt;Node3</title>
<path fill="none" stroke="midnightblue" d="M945.56,-291.25C952.72,-282.56 963.35,-268.61 970,-255 987.71,-218.74 976.35,-203.25 996,-168 1006.42,-149.3 1017.5,-150.66 1028,-132 1036.14,-117.53 1041.37,-99.34 1044.44,-85.89"/>
<polygon fill="midnightblue" stroke="midnightblue" points="1047.91,-86.39 1046.51,-75.89 1041.05,-84.97 1047.91,-86.39"/>
</g>
<!-- Node17&#45;&gt;Node13 -->
<g id="edge67" class="edge">
<title>Node17&#45;&gt;Node13</title>
<path fill="none" stroke="midnightblue" d="M938.5,-291.44C938.91,-275.59 937.32,-241.69 918,-224 847.83,-159.77 799.82,-208.85 707,-188 616.94,-167.77 562.78,-205.55 507,-132 493.44,-114.13 515.45,-94.03 534.87,-80.98"/>
<polygon fill="midnightblue" stroke="midnightblue" points="536.91,-83.83 543.47,-75.51 533.16,-77.92 536.91,-83.83"/>
</g>
<!-- Node18 -->
<g id="node18" class="node">
<title>Node18</title>
<g id="a_node18"><a xlink:href="Basisnames_8hpp.html" target="_top" xlink:title=" ">
<polygon fill="none" stroke="black" points="716.5,-168.5 716.5,-187.5 813.5,-187.5 813.5,-168.5 716.5,-168.5"/>
<text text-anchor="middle" x="765" y="-175.5" font-family="Helvetica,sans-Serif" font-size="10.00">Basisnames.hpp</text>
</a>
</g>
</g>
<!-- Node17&#45;&gt;Node18 -->
<g id="edge18" class="edge">
<title>Node17&#45;&gt;Node18</title>
<path fill="none" stroke="midnightblue" d="M943.46,-291.44C952.42,-276.19 967.78,-244.02 952,-224 936.18,-203.92 872.39,-191.76 823.67,-185.23"/>
<polygon fill="midnightblue" stroke="midnightblue" points="823.89,-181.73 813.53,-183.92 823,-188.68 823.89,-181.73"/>
</g>
<!-- Node21 -->
<g id="node21" class="node">
<title>Node21</title>
<g id="a_node21"><a xlink:title=" ">
<polygon fill="none" stroke="#bfbfbf" points="1096,-56.5 1096,-75.5 1152,-75.5 1152,-56.5 1096,-56.5"/>
<text text-anchor="middle" x="1124" y="-63.5" font-family="Helvetica,sans-Serif" font-size="10.00">sstream</text>
</a>
</g>
</g>
<!-- Node17&#45;&gt;Node21 -->
<g id="edge66" class="edge">
<title>Node17&#45;&gt;Node21</title>
<path fill="none" stroke="midnightblue" d="M949.45,-291.4C960.47,-282.82 977.3,-268.95 990,-255 1042.3,-197.53 1092.23,-119.29 1113.39,-84.69"/>
<polygon fill="midnightblue" stroke="midnightblue" points="1116.6,-86.15 1118.79,-75.79 1110.61,-82.52 1116.6,-86.15"/>
</g>
<!-- Node25 -->
<g id="node25" class="node">
<title>Node25</title>
<g id="a_node25"><a xlink:title=" ">
<polygon fill="none" stroke="#bfbfbf" points="1241,-56.5 1241,-75.5 1299,-75.5 1299,-56.5 1241,-56.5"/>
<text text-anchor="middle" x="1270" y="-63.5" font-family="Helvetica,sans-Serif" font-size="10.00">memory</text>
</a>
</g>
</g>
<!-- Node17&#45;&gt;Node25 -->
<g id="edge65" class="edge">
<title>Node17&#45;&gt;Node25</title>
<path fill="none" stroke="midnightblue" d="M1008.17,-297.71C1149.82,-291.42 1461.78,-268.53 1524,-188 1557.04,-145.25 1502.89,-135.74 1455,-112 1451.68,-110.35 1362.12,-88.91 1308.85,-76.23"/>
<polygon fill="midnightblue" stroke="midnightblue" points="1309.58,-72.8 1299.04,-73.89 1307.96,-79.61 1309.58,-72.8"/>
</g>
<!-- Node29 -->
<g id="node29" class="node">
<title>Node29</title>
<g id="a_node29"><a xlink:href="Wavefunction_8hpp.html" target="_top" xlink:title=" ">
<polygon fill="none" stroke="black" points="1153.5,-230 1153.5,-249 1258.5,-249 1258.5,-230 1153.5,-230"/>
<text text-anchor="middle" x="1206" y="-237" font-family="Helvetica,sans-Serif" font-size="10.00">Wavefunction.hpp</text>
</a>
</g>
</g>
<!-- Node17&#45;&gt;Node29 -->
<g id="edge39" class="edge">
<title>Node17&#45;&gt;Node29</title>
<path fill="none" stroke="midnightblue" d="M976.4,-291.48C1024.16,-280.87 1105.74,-262.76 1157.7,-251.22"/>
<polygon fill="midnightblue" stroke="midnightblue" points="1158.67,-254.59 1167.67,-249.01 1157.15,-247.76 1158.67,-254.59"/>
</g>
<!-- Node39 -->
<g id="node39" class="node">
<title>Node39</title>
<g id="a_node39"><a xlink:title=" ">
<polygon fill="none" stroke="#bfbfbf" points="274.5,-224.5 274.5,-254.5 403.5,-254.5 403.5,-224.5 274.5,-224.5"/>
<text text-anchor="start" x="282.5" y="-242.5" font-family="Helvetica,sans-Serif" font-size="10.00">cereal/types/unordered</text>
<text text-anchor="middle" x="339" y="-231.5" font-family="Helvetica,sans-Serif" font-size="10.00">_map.hpp</text>
</a>
</g>
</g>
<!-- Node17&#45;&gt;Node39 -->
<g id="edge62" class="edge">
<title>Node17&#45;&gt;Node39</title>
<path fill="none" stroke="midnightblue" d="M867.95,-296.48C768.86,-290.95 581.92,-278.51 413.84,-255.17"/>
<polygon fill="midnightblue" stroke="midnightblue" points="414.2,-251.69 403.82,-253.76 413.23,-258.62 414.2,-251.69"/>
</g>
<!-- Node40 -->
<g id="node40" class="node">
<title>Node40</title>
<g id="a_node40"><a xlink:title=" ">
<polygon fill="none" stroke="#bfbfbf" points="421.5,-224.5 421.5,-254.5 550.5,-254.5 550.5,-224.5 421.5,-224.5"/>
<text text-anchor="start" x="429.5" y="-242.5" font-family="Helvetica,sans-Serif" font-size="10.00">cereal/types/unordered</text>
<text text-anchor="middle" x="486" y="-231.5" font-family="Helvetica,sans-Serif" font-size="10.00">_set.hpp</text>
</a>
</g>
</g>
<!-- Node17&#45;&gt;Node40 -->
<g id="edge63" class="edge">
<title>Node17&#45;&gt;Node40</title>
<path fill="none" stroke="midnightblue" d="M867.77,-293.23C793.86,-285.75 673.94,-272.59 560.43,-254.99"/>
<polygon fill="midnightblue" stroke="midnightblue" points="560.94,-251.53 550.52,-253.44 559.86,-258.44 560.94,-251.53"/>
</g>
<!-- Node41 -->
<g id="node41" class="node">
<title>Node41</title>
<g id="a_node41"><a xlink:title=" ">
<polygon fill="none" stroke="#bfbfbf" points="569,-224.5 569,-254.5 739,-254.5 739,-224.5 569,-224.5"/>
<text text-anchor="start" x="577" y="-242.5" font-family="Helvetica,sans-Serif" font-size="10.00">wignerSymbols/wignerSymbols</text>
<text text-anchor="middle" x="654" y="-231.5" font-family="Helvetica,sans-Serif" font-size="10.00">&#45;cpp.h</text>
</a>
</g>
</g>
<!-- Node17&#45;&gt;Node41 -->
<g id="edge64" class="edge">
<title>Node17&#45;&gt;Node41</title>
<path fill="none" stroke="midnightblue" d="M897.31,-291.48C853.99,-282.4 784.43,-267.83 730.76,-256.58"/>
<polygon fill="midnightblue" stroke="midnightblue" points="731.44,-253.15 720.93,-254.52 730,-260 731.44,-253.15"/>
</g>
<!-- Node42 -->
<g id="node42" class="node">
<title>Node42</title>
<g id="a_node42"><a xlink:title=" ">
<polygon fill="none" stroke="#bfbfbf" points="757.5,-230 757.5,-249 798.5,-249 798.5,-230 757.5,-230"/>
<text text-anchor="middle" x="778" y="-237" font-family="Helvetica,sans-Serif" font-size="10.00">tuple</text>
</a>
</g>
</g>
<!-- Node17&#45;&gt;Node42 -->
<g id="edge68" class="edge">
<title>Node17&#45;&gt;Node42</title>
<path fill="none" stroke="midnightblue" d="M909.74,-291.49C882.93,-283.14 841.7,-269.56 807,-255 805.8,-254.5 804.59,-253.97 803.36,-253.42"/>
<polygon fill="midnightblue" stroke="midnightblue" points="804.62,-250.14 794.08,-249.01 801.61,-256.46 804.62,-250.14"/>
</g>
<!-- Node43 -->
<g id="node43" class="node">
<title>Node43</title>
<g id="a_node43"><a xlink:title=" ">
<polygon fill="none" stroke="#bfbfbf" points="816.5,-230 816.5,-249 909.5,-249 909.5,-230 816.5,-230"/>
<text text-anchor="middle" x="863" y="-237" font-family="Helvetica,sans-Serif" font-size="10.00">unordered_map</text>
</a>
</g>
</g>
<!-- Node17&#45;&gt;Node43 -->
<g id="edge69" class="edge">
<title>Node17&#45;&gt;Node43</title>
<path fill="none" stroke="midnightblue" d="M927.25,-291.48C915.45,-282.11 896.26,-266.88 881.92,-255.51"/>
<polygon fill="midnightblue" stroke="midnightblue" points="883.74,-252.48 873.73,-249.01 879.38,-257.97 883.74,-252.48"/>
</g>
<!-- Node18&#45;&gt;Node13 -->
<g id="edge35" class="edge">
<title>Node18&#45;&gt;Node13</title>
<path fill="none" stroke="midnightblue" d="M716.25,-175.39C650.89,-172.08 540.14,-162.07 515,-132 501.4,-115.74 520.57,-95.24 537.71,-81.66"/>
<polygon fill="midnightblue" stroke="midnightblue" points="539.9,-84.39 545.81,-75.6 535.71,-78.79 539.9,-84.39"/>
</g>
<!-- Node19 -->
<g id="node19" class="node">
<title>Node19</title>
<g id="a_node19"><a xlink:href="ConfParser_8hpp.html" target="_top" xlink:title=" ">
<polygon fill="none" stroke="black" points="524.5,-112.5 524.5,-131.5 615.5,-131.5 615.5,-112.5 524.5,-112.5"/>
<text text-anchor="middle" x="570" y="-119.5" font-family="Helvetica,sans-Serif" font-size="10.00">ConfParser.hpp</text>
</a>
</g>
</g>
<!-- Node18&#45;&gt;Node19 -->
<g id="edge19" class="edge">
<title>Node18&#45;&gt;Node19</title>
<path fill="none" stroke="midnightblue" d="M734.1,-168.44C700.73,-159.2 647.41,-144.44 610.65,-134.26"/>
<polygon fill="midnightblue" stroke="midnightblue" points="611.33,-130.81 600.75,-131.52 609.46,-137.56 611.33,-130.81"/>
</g>
<!-- Node22 -->
<g id="node22" class="node">
<title>Node22</title>
<g id="a_node22"><a xlink:href="Iter_8hpp.html" target="_top" xlink:title=" ">
<polygon fill="none" stroke="black" points="634,-112.5 634,-131.5 688,-131.5 688,-112.5 634,-112.5"/>
<text text-anchor="middle" x="661" y="-119.5" font-family="Helvetica,sans-Serif" font-size="10.00">Iter.hpp</text>
</a>
</g>
</g>
<!-- Node18&#45;&gt;Node22 -->
<g id="edge23" class="edge">
<title>Node18&#45;&gt;Node22</title>
<path fill="none" stroke="midnightblue" d="M748.29,-168.32C731.69,-159.7 706,-146.36 686.78,-136.39"/>
<polygon fill="midnightblue" stroke="midnightblue" points="688.16,-133.16 677.67,-131.65 684.93,-139.37 688.16,-133.16"/>
</g>
<!-- Node23 -->
<g id="node23" class="node">
<title>Node23</title>
<g id="a_node23"><a xlink:href="StateOld_8hpp.html" target="_top" xlink:title=" ">
<polygon fill="none" stroke="black" points="312,-112.5 312,-131.5 392,-131.5 392,-112.5 312,-112.5"/>
<text text-anchor="middle" x="352" y="-119.5" font-family="Helvetica,sans-Serif" font-size="10.00">StateOld.hpp</text>
</a>
</g>
</g>
<!-- Node18&#45;&gt;Node23 -->
<g id="edge24" class="edge">
<title>Node18&#45;&gt;Node23</title>
<path fill="none" stroke="midnightblue" d="M716.41,-170.65C637.54,-160.33 482.43,-140.05 402.41,-129.59"/>
<polygon fill="midnightblue" stroke="midnightblue" points="402.46,-126.07 392.1,-128.24 401.56,-133.01 402.46,-126.07"/>
</g>
<!-- Node24 -->
<g id="node24" class="node">
<title>Node24</title>
<g id="a_node24"><a xlink:title=" ">
<polygon fill="none" stroke="#bfbfbf" points="706.5,-112.5 706.5,-131.5 761.5,-131.5 761.5,-112.5 706.5,-112.5"/>
<text text-anchor="middle" x="734" y="-119.5" font-family="Helvetica,sans-Serif" font-size="10.00">fstream</text>
</a>
</g>
</g>
<!-- Node18&#45;&gt;Node24 -->
<g id="edge32" class="edge">
<title>Node18&#45;&gt;Node24</title>
<path fill="none" stroke="midnightblue" d="M759.88,-168.08C755.59,-160.61 749.34,-149.72 744.06,-140.52"/>
<polygon fill="midnightblue" stroke="midnightblue" points="747.04,-138.68 739.02,-131.75 740.97,-142.17 747.04,-138.68"/>
</g>
<!-- Node18&#45;&gt;Node25 -->
<g id="edge33" class="edge">
<title>Node18&#45;&gt;Node25</title>
<path fill="none" stroke="midnightblue" d="M803.9,-168.49C836.77,-160.72 884.79,-148.03 925,-132 942.73,-124.93 944.85,-117.91 963,-112 1011.96,-96.05 1159.02,-78.82 1230.34,-71.12"/>
<polygon fill="midnightblue" stroke="midnightblue" points="1231.13,-74.56 1240.71,-70.02 1230.39,-67.6 1231.13,-74.56"/>
</g>
<!-- Node26 -->
<g id="node26" class="node">
<title>Node26</title>
<g id="a_node26"><a xlink:title=" ">
<polygon fill="none" stroke="#bfbfbf" points="780,-112.5 780,-131.5 812,-131.5 812,-112.5 780,-112.5"/>
<text text-anchor="middle" x="796" y="-119.5" font-family="Helvetica,sans-Serif" font-size="10.00">set</text>
</a>
</g>
</g>
<!-- Node18&#45;&gt;Node26 -->
<g id="edge34" class="edge">
<title>Node18&#45;&gt;Node26</title>
<path fill="none" stroke="midnightblue" d="M770.12,-168.08C774.41,-160.61 780.66,-149.72 785.94,-140.52"/>
<polygon fill="midnightblue" stroke="midnightblue" points="789.03,-142.17 790.98,-131.75 782.96,-138.68 789.03,-142.17"/>
</g>
<!-- Node27 -->
<g id="node27" class="node">
<title>Node27</title>
<g id="a_node27"><a xlink:title=" ">
<polygon fill="none" stroke="#bfbfbf" points="830,-112.5 830,-131.5 916,-131.5 916,-112.5 830,-112.5"/>
<text text-anchor="middle" x="873" y="-119.5" font-family="Helvetica,sans-Serif" font-size="10.00">unordered_set</text>
</a>
</g>
</g>
<!-- Node18&#45;&gt;Node27 -->
<g id="edge36" class="edge">
<title>Node18&#45;&gt;Node27</title>
<path fill="none" stroke="midnightblue" d="M782.35,-168.32C799.67,-159.66 826.52,-146.24 846.5,-136.25"/>
<polygon fill="midnightblue" stroke="midnightblue" points="848.31,-139.26 855.69,-131.65 845.18,-133 848.31,-139.26"/>
</g>
<!-- Node28 -->
<g id="node28" class="node">
<title>Node28</title>
<g id="a_node28"><a xlink:title=" ">
<polygon fill="none" stroke="#bfbfbf" points="972.5,-112.5 972.5,-131.5 1019.5,-131.5 1019.5,-112.5 972.5,-112.5"/>
<text text-anchor="middle" x="996" y="-119.5" font-family="Helvetica,sans-Serif" font-size="10.00">vector</text>
</a>
</g>
</g>
<!-- Node18&#45;&gt;Node28 -->
<g id="edge37" class="edge">
<title>Node18&#45;&gt;Node28</title>
<path fill="none" stroke="midnightblue" d="M801.65,-168.49C840.48,-159.47 903.57,-144.79 958,-132 959.44,-131.66 960.92,-131.31 962.41,-130.96"/>
<polygon fill="midnightblue" stroke="midnightblue" points="963.36,-134.33 972.29,-128.63 961.75,-127.52 963.36,-134.33"/>
</g>
<!-- Node19&#45;&gt;Node13 -->
<g id="edge22" class="edge">
<title>Node19&#45;&gt;Node13</title>
<path fill="none" stroke="midnightblue" d="M568.18,-112.08C566.73,-104.93 564.63,-94.64 562.81,-85.69"/>
<polygon fill="midnightblue" stroke="midnightblue" points="566.21,-84.85 560.78,-75.75 559.35,-86.25 566.21,-84.85"/>
</g>
<!-- Node20 -->
<g id="node20" class="node">
<title>Node20</title>
<g id="a_node20"><a xlink:title=" ">
<polygon fill="none" stroke="#bfbfbf" points="599,-56.5 599,-75.5 637,-75.5 637,-56.5 599,-56.5"/>
<text text-anchor="middle" x="618" y="-63.5" font-family="Helvetica,sans-Serif" font-size="10.00">map</text>
</a>
</g>
</g>
<!-- Node19&#45;&gt;Node20 -->
<g id="edge20" class="edge">
<title>Node19&#45;&gt;Node20</title>
<path fill="none" stroke="midnightblue" d="M577.93,-112.08C584.85,-104.3 595.07,-92.8 603.45,-83.37"/>
<polygon fill="midnightblue" stroke="midnightblue" points="606.19,-85.55 610.22,-75.75 600.96,-80.9 606.19,-85.55"/>
</g>
<!-- Node19&#45;&gt;Node21 -->
<g id="edge21" class="edge">
<title>Node19&#45;&gt;Node21</title>
<path fill="none" stroke="midnightblue" d="M615.58,-113.24C618.76,-112.79 621.93,-112.37 625,-112 829.03,-87.38 882.96,-107.78 1086,-76 1086.1,-75.98 1086.2,-75.97 1086.3,-75.95"/>
<polygon fill="midnightblue" stroke="midnightblue" points="1086.68,-79.44 1095.87,-74.17 1085.4,-72.56 1086.68,-79.44"/>
</g>
<!-- Node23&#45;&gt;Node3 -->
<g id="edge25" class="edge">
<title>Node23&#45;&gt;Node3</title>
<path fill="none" stroke="midnightblue" d="M392.17,-117.88C515.24,-108.33 886.06,-79.56 1008.38,-70.07"/>
<polygon fill="midnightblue" stroke="midnightblue" points="1008.73,-73.56 1018.43,-69.29 1008.19,-66.58 1008.73,-73.56"/>
</g>
<!-- Node23&#45;&gt;Node5 -->
<g id="edge26" class="edge">
<title>Node23&#45;&gt;Node5</title>
<path fill="none" stroke="midnightblue" d="M392.05,-113.35C428.48,-105.48 478.31,-92.11 490,-76 495.22,-68.81 495.61,-62.9 490,-56 467.06,-27.79 359.36,-16.67 305.22,-12.81"/>
<polygon fill="midnightblue" stroke="midnightblue" points="305.36,-9.31 295.15,-12.13 304.89,-16.3 305.36,-9.31"/>
</g>
<!-- Node23&#45;&gt;Node11 -->
<g id="edge27" class="edge">
<title>Node23&#45;&gt;Node11</title>
<path fill="none" stroke="midnightblue" d="M333.62,-112.44C314.78,-103.68 285.27,-89.94 263.62,-79.86"/>
<polygon fill="midnightblue" stroke="midnightblue" points="264.84,-76.56 254.29,-75.52 261.88,-82.91 264.84,-76.56"/>
</g>
<!-- Node23&#45;&gt;Node12 -->
<g id="edge28" class="edge">
<title>Node23&#45;&gt;Node12</title>
<path fill="none" stroke="midnightblue" d="M367.91,-112.32C383.64,-103.74 407.94,-90.49 426.21,-80.52"/>
<polygon fill="midnightblue" stroke="midnightblue" points="428.03,-83.52 435.13,-75.65 424.68,-77.37 428.03,-83.52"/>
</g>
<!-- Node23&#45;&gt;Node13 -->
<g id="edge29" class="edge">
<title>Node23&#45;&gt;Node13</title>
<path fill="none" stroke="midnightblue" d="M384.8,-112.44C423.83,-102.26 488.57,-85.37 527.17,-75.3"/>
<polygon fill="midnightblue" stroke="midnightblue" points="528.06,-78.69 536.86,-72.78 526.3,-71.91 528.06,-78.69"/>
</g>
<!-- Node23&#45;&gt;Node14 -->
<g id="edge30" class="edge">
<title>Node23&#45;&gt;Node14</title>
<path fill="none" stroke="midnightblue" d="M350.02,-112.08C348.43,-104.93 346.14,-94.64 344.15,-85.69"/>
<polygon fill="midnightblue" stroke="midnightblue" points="347.53,-84.75 341.94,-75.75 340.7,-86.27 347.53,-84.75"/>
</g>
<!-- Node23&#45;&gt;Node15 -->
<g id="edge31" class="edge">
<title>Node23&#45;&gt;Node15</title>
<path fill="none" stroke="midnightblue" d="M316.82,-112.44C278.42,-103.1 216.82,-88.12 174.94,-77.93"/>
<polygon fill="midnightblue" stroke="midnightblue" points="175.56,-74.48 165.01,-75.52 173.9,-81.28 175.56,-74.48"/>
</g>
<!-- Node29&#45;&gt;Node13 -->
<g id="edge59" class="edge">
<title>Node29&#45;&gt;Node13</title>
<path fill="none" stroke="midnightblue" d="M1184,-229.89C1162.76,-221.04 1130.19,-206.03 1105,-188 1065.9,-160.01 1071.7,-132.06 1028,-112 941.93,-72.48 701.22,-92.4 591.14,-75.7"/>
<polygon fill="midnightblue" stroke="midnightblue" points="591.67,-72.24 581.22,-74.03 590.5,-79.15 591.67,-72.24"/>
</g>
<!-- Node29&#45;&gt;Node28 -->
<g id="edge60" class="edge">
<title>Node29&#45;&gt;Node28</title>
<path fill="none" stroke="midnightblue" d="M1174.28,-229.96C1146.21,-221.62 1104.74,-207.36 1072,-188 1048.8,-174.28 1025.79,-153.3 1011.27,-138.9"/>
<polygon fill="midnightblue" stroke="midnightblue" points="1013.64,-136.33 1004.13,-131.67 1008.66,-141.25 1013.64,-136.33"/>
</g>
<!-- Node29&#45;&gt;Node30 -->
<g id="edge40" class="edge">
<title>Node29&#45;&gt;Node30</title>
<path fill="none" stroke="midnightblue" d="M1242.11,-229.98C1286.83,-219.42 1363.08,-201.41 1411.97,-189.87"/>
<polygon fill="midnightblue" stroke="midnightblue" points="1413.03,-193.21 1421.96,-187.51 1411.42,-186.4 1413.03,-193.21"/>
</g>
<!-- Node35 -->
<g id="node35" class="node">
<title>Node35</title>
<g id="a_node35"><a xlink:href="EigenCompat_8hpp.html" target="_top" xlink:title=" ">
<polygon fill="none" stroke="black" points="1114.5,-168.5 1114.5,-187.5 1217.5,-187.5 1217.5,-168.5 1114.5,-168.5"/>
<text text-anchor="middle" x="1166" y="-175.5" font-family="Helvetica,sans-Serif" font-size="10.00">EigenCompat.hpp</text>
</a>
</g>
</g>
<!-- Node29&#45;&gt;Node35 -->
<g id="edge54" class="edge">
<title>Node29&#45;&gt;Node35</title>
<path fill="none" stroke="midnightblue" d="M1200.27,-229.98C1194.33,-221.14 1184.88,-207.09 1177.41,-195.98"/>
<polygon fill="midnightblue" stroke="midnightblue" points="1180.2,-193.86 1171.72,-187.51 1174.39,-197.76 1180.2,-193.86"/>
</g>
<!-- Node36 -->
<g id="node36" class="node">
<title>Node36</title>
<g id="a_node36"><a xlink:title=" ">
<polygon fill="none" stroke="#bfbfbf" points="1164.5,-112.5 1164.5,-131.5 1233.5,-131.5 1233.5,-112.5 1164.5,-112.5"/>
<text text-anchor="middle" x="1199" y="-119.5" font-family="Helvetica,sans-Serif" font-size="10.00">Eigen/Core</text>
</a>
</g>
</g>
<!-- Node29&#45;&gt;Node36 -->
<g id="edge56" class="edge">
<title>Node29&#45;&gt;Node36</title>
<path fill="none" stroke="midnightblue" d="M1211.6,-229.83C1219.46,-216.53 1232.18,-190.31 1226,-168 1223.21,-157.92 1217.49,-147.83 1212.03,-139.77"/>
<polygon fill="midnightblue" stroke="midnightblue" points="1214.85,-137.69 1206.15,-131.64 1209.18,-141.79 1214.85,-137.69"/>
</g>
<!-- Node37 -->
<g id="node37" class="node">
<title>Node37</title>
<g id="a_node37"><a xlink:title=" ">
<polygon fill="none" stroke="#bfbfbf" points="1274,-168.5 1274,-187.5 1320,-187.5 1320,-168.5 1274,-168.5"/>
<text text-anchor="middle" x="1297" y="-175.5" font-family="Helvetica,sans-Serif" font-size="10.00">cstdio</text>
</a>
</g>
</g>
<!-- Node29&#45;&gt;Node37 -->
<g id="edge57" class="edge">
<title>Node29&#45;&gt;Node37</title>
<path fill="none" stroke="midnightblue" d="M1219.04,-229.98C1233.77,-220.34 1257.97,-204.52 1275.51,-193.05"/>
<polygon fill="midnightblue" stroke="midnightblue" points="1277.53,-195.91 1283.99,-187.51 1273.7,-190.05 1277.53,-195.91"/>
</g>
<!-- Node38 -->
<g id="node38" class="node">
<title>Node38</title>
<g id="a_node38"><a xlink:title=" ">
<polygon fill="none" stroke="#bfbfbf" points="1338,-168.5 1338,-187.5 1382,-187.5 1382,-168.5 1338,-168.5"/>
<text text-anchor="middle" x="1360" y="-175.5" font-family="Helvetica,sans-Serif" font-size="10.00">limits</text>
</a>
</g>
</g>
<!-- Node29&#45;&gt;Node38 -->
<g id="edge58" class="edge">
<title>Node29&#45;&gt;Node38</title>
<path fill="none" stroke="midnightblue" d="M1228.06,-229.98C1254.37,-219.81 1298.51,-202.76 1328.42,-191.2"/>
<polygon fill="midnightblue" stroke="midnightblue" points="1329.91,-194.38 1337.98,-187.51 1327.39,-187.85 1329.91,-194.38"/>
</g>
<!-- Node30&#45;&gt;Node3 -->
<g id="edge52" class="edge">
<title>Node30&#45;&gt;Node3</title>
<path fill="none" stroke="midnightblue" d="M1434.63,-168.45C1387.71,-151.3 1285.87,-114.15 1278,-112 1197.68,-90.08 1173.3,-93.43 1087.68,-76.05"/>
<polygon fill="midnightblue" stroke="midnightblue" points="1088.28,-72.6 1077.78,-74 1086.87,-79.46 1088.28,-72.6"/>
</g>
<!-- Node30&#45;&gt;Node13 -->
<g id="edge53" class="edge">
<title>Node30&#45;&gt;Node13</title>
<path fill="none" stroke="midnightblue" d="M1409.56,-168.48C1372.7,-161.14 1321.14,-149.03 1278,-132 1260.98,-125.28 1259.58,-117.08 1242,-112 966.44,-32.43 878.16,-122.61 591.49,-75.83"/>
<polygon fill="midnightblue" stroke="midnightblue" points="591.65,-72.3 581.21,-74.1 590.49,-79.21 591.65,-72.3"/>
</g>
<!-- Node31 -->
<g id="node31" class="node">
<title>Node31</title>
<g id="a_node31"><a xlink:href="SQLite_8hpp.html" target="_top" xlink:title=" ">
<polygon fill="none" stroke="black" points="1377.5,-112.5 1377.5,-131.5 1446.5,-131.5 1446.5,-112.5 1377.5,-112.5"/>
<text text-anchor="middle" x="1412" y="-119.5" font-family="Helvetica,sans-Serif" font-size="10.00">SQLite.hpp</text>
</a>
</g>
</g>
<!-- Node30&#45;&gt;Node31 -->
<g id="edge41" class="edge">
<title>Node30&#45;&gt;Node31</title>
<path fill="none" stroke="midnightblue" d="M1450.4,-168.08C1443.77,-160.3 1433.98,-148.8 1425.94,-139.37"/>
<polygon fill="midnightblue" stroke="midnightblue" points="1428.6,-137.09 1419.45,-131.75 1423.27,-141.63 1428.6,-137.09"/>
</g>
<!-- Node31&#45;&gt;Node3 -->
<g id="edge51" class="edge">
<title>Node31&#45;&gt;Node3</title>
<path fill="none" stroke="midnightblue" d="M1377.24,-114.39C1372.46,-113.54 1367.61,-112.72 1363,-112 1244.01,-93.33 1210.5,-97.68 1087.91,-76"/>
<polygon fill="midnightblue" stroke="midnightblue" points="1088.21,-72.5 1077.75,-74.18 1086.98,-79.39 1088.21,-72.5"/>
</g>
<!-- Node31&#45;&gt;Node8 -->
<g id="edge44" class="edge">
<title>Node31&#45;&gt;Node8</title>
<path fill="none" stroke="midnightblue" d="M1423.76,-112.31C1438.94,-99.98 1462.16,-76.6 1451,-56 1443.25,-41.7 1428.77,-31.22 1415.06,-23.99"/>
<polygon fill="midnightblue" stroke="midnightblue" points="1416.31,-20.71 1405.79,-19.5 1413.26,-27.01 1416.31,-20.71"/>
</g>
<!-- Node31&#45;&gt;Node9 -->
<g id="edge48" class="edge">
<title>Node31&#45;&gt;Node9</title>
<path fill="none" stroke="midnightblue" d="M1377.41,-114.28C1328.14,-104.41 1242.51,-86.1 1232,-76 1219.56,-64.04 1215.14,-44.43 1213.63,-29.87"/>
<polygon fill="midnightblue" stroke="midnightblue" points="1217.1,-29.27 1212.95,-19.52 1210.11,-29.73 1217.1,-29.27"/>
</g>
<!-- Node31&#45;&gt;Node12 -->
<g id="edge42" class="edge">
<title>Node31&#45;&gt;Node12</title>
<path fill="none" stroke="midnightblue" d="M1377.49,-119.15C1343.14,-117.31 1288.93,-114.43 1242,-112 924.69,-95.6 844.63,-102.46 528,-76 516.07,-75 503.14,-73.61 491.33,-72.22"/>
<polygon fill="midnightblue" stroke="midnightblue" points="491.66,-68.74 481.31,-71.01 490.82,-75.69 491.66,-68.74"/>
</g>
<!-- Node31&#45;&gt;Node13 -->
<g id="edge46" class="edge">
<title>Node31&#45;&gt;Node13</title>
<path fill="none" stroke="midnightblue" d="M1377.3,-118.53C1350.26,-116.64 1311.75,-114.02 1278,-112 975.63,-93.94 893.67,-126.31 591.14,-75.79"/>
<polygon fill="midnightblue" stroke="midnightblue" points="591.65,-72.32 581.21,-74.11 590.49,-79.23 591.65,-72.32"/>
</g>
<!-- Node31&#45;&gt;Node21 -->
<g id="edge45" class="edge">
<title>Node31&#45;&gt;Node21</title>
<path fill="none" stroke="midnightblue" d="M1377.26,-114.49C1323.04,-104.32 1218.67,-84.75 1162.32,-74.19"/>
<polygon fill="midnightblue" stroke="midnightblue" points="1162.86,-70.73 1152.39,-72.32 1161.57,-77.61 1162.86,-70.73"/>
</g>
<!-- Node31&#45;&gt;Node25 -->
<g id="edge43" class="edge">
<title>Node31&#45;&gt;Node25</title>
<path fill="none" stroke="midnightblue" d="M1389.5,-112.44C1365.92,-103.48 1328.68,-89.31 1302.04,-79.18"/>
<polygon fill="midnightblue" stroke="midnightblue" points="1302.99,-75.8 1292.4,-75.52 1300.5,-82.34 1302.99,-75.8"/>
</g>
<!-- Node32 -->
<g id="node32" class="node">
<title>Node32</title>
<g id="a_node32"><a xlink:title=" ">
<polygon fill="none" stroke="#bfbfbf" points="1317,-56.5 1317,-75.5 1365,-75.5 1365,-56.5 1317,-56.5"/>
<text text-anchor="middle" x="1341" y="-63.5" font-family="Helvetica,sans-Serif" font-size="10.00">thread</text>
</a>
</g>
</g>
<!-- Node31&#45;&gt;Node32 -->
<g id="edge47" class="edge">
<title>Node31&#45;&gt;Node32</title>
<path fill="none" stroke="midnightblue" d="M1400.59,-112.32C1389.89,-104.18 1373.66,-91.84 1360.84,-82.09"/>
<polygon fill="midnightblue" stroke="midnightblue" points="1362.69,-79.1 1352.61,-75.83 1358.46,-84.67 1362.69,-79.1"/>
</g>
<!-- Node33 -->
<g id="node33" class="node">
<title>Node33</title>
<g id="a_node33"><a xlink:title=" ">
<polygon fill="none" stroke="#bfbfbf" points="1383.5,-56.5 1383.5,-75.5 1442.5,-75.5 1442.5,-56.5 1383.5,-56.5"/>
<text text-anchor="middle" x="1413" y="-63.5" font-family="Helvetica,sans-Serif" font-size="10.00">sqlite3.h</text>
</a>
</g>
</g>
<!-- Node31&#45;&gt;Node33 -->
<g id="edge49" class="edge">
<title>Node31&#45;&gt;Node33</title>
<path fill="none" stroke="midnightblue" d="M1412.17,-112.08C1412.3,-105.01 1412.48,-94.86 1412.65,-85.99"/>
<polygon fill="midnightblue" stroke="midnightblue" points="1416.15,-85.81 1412.84,-75.75 1409.15,-85.68 1416.15,-85.81"/>
</g>
<!-- Node31&#45;&gt;Node34 -->
<g id="edge50" class="edge">
<title>Node31&#45;&gt;Node34</title>
<path fill="none" stroke="midnightblue" d="M1437.19,-112.44C1464.73,-103.09 1508.91,-88.09 1538.91,-77.9"/>
<polygon fill="midnightblue" stroke="midnightblue" points="1540.15,-81.17 1548.49,-74.64 1537.9,-74.55 1540.15,-81.17"/>
</g>
<!-- Node35&#45;&gt;Node36 -->
<g id="edge55" class="edge">
<title>Node35&#45;&gt;Node36</title>
<path fill="none" stroke="midnightblue" d="M1171.45,-168.08C1176.01,-160.61 1182.67,-149.72 1188.29,-140.52"/>
<polygon fill="midnightblue" stroke="midnightblue" points="1191.42,-142.11 1193.65,-131.75 1185.45,-138.46 1191.42,-142.11"/>
</g>
</g>
</svg>
