<?xml version="1.0" encoding="UTF-8" standalone="no"?>
<!DOCTYPE svg PUBLIC "-//W3C//DTD SVG 1.1//EN"
 "http://www.w3.org/Graphics/SVG/1.1/DTD/svg11.dtd">
<!-- Generated by graphviz version 2.43.0 (0)
 -->
<!-- Title: /__w/pairinteraction/pairinteraction/pairinteraction/State.hpp Pages: 1 -->
<svg width="1170pt" height="362pt"
 viewBox="0.00 0.00 1169.63 362.00" xmlns="http://www.w3.org/2000/svg" xmlns:xlink="http://www.w3.org/1999/xlink">
<g id="graph0" class="graph" transform="scale(1 1) rotate(0) translate(4 358)">
<title>/__w/pairinteraction/pairinteraction/pairinteraction/State.hpp</title>
<!-- Node1 -->
<g id="node1" class="node">
<title>Node1</title>
<g id="a_node1"><a xlink:title=" ">
<polygon fill="#bfbfbf" stroke="black" points="412.63,-312.5 412.63,-353.5 577.63,-353.5 577.63,-312.5 412.63,-312.5"/>
<text text-anchor="start" x="420.63" y="-341.5" font-family="Helvetica,sans-Serif" font-size="10.00">/__w/pairinteraction</text>
<text text-anchor="start" x="420.63" y="-330.5" font-family="Helvetica,sans-Serif" font-size="10.00">/pairinteraction/pairinteraction</text>
<text text-anchor="middle" x="495.13" y="-319.5" font-family="Helvetica,sans-Serif" font-size="10.00">/State.hpp</text>
</a>
</g>
</g>
<!-- Node2 -->
<g id="node2" class="node">
<title>Node2</title>
<g id="a_node2"><a xlink:href="integration__bench_8cpp.html" target="_top" xlink:title=" ">
<polygon fill="none" stroke="black" points="76.63,-0.5 76.63,-41.5 267.63,-41.5 267.63,-0.5 76.63,-0.5"/>
<text text-anchor="start" x="84.63" y="-29.5" font-family="Helvetica,sans-Serif" font-size="10.00">/__w/pairinteraction</text>
<text text-anchor="start" x="84.63" y="-18.5" font-family="Helvetica,sans-Serif" font-size="10.00">/pairinteraction/pairinteraction</text>
<text text-anchor="middle" x="172.13" y="-7.5" font-family="Helvetica,sans-Serif" font-size="10.00">/benchmarks/integration_bench.cpp</text>
</a>
</g>
</g>
<!-- Node1&#45;&gt;Node2 -->
<g id="edge1" class="edge">
<title>Node1&#45;&gt;Node2</title>
<path fill="none" stroke="midnightblue" d="M402.14,-330.01C296.38,-325.94 132.14,-313.56 84.13,-276 11.72,-219.34 -28.13,-153.65 24.13,-78 36.7,-59.8 56,-47.51 76.55,-39.22"/>
<polygon fill="midnightblue" stroke="midnightblue" points="402.06,-333.51 412.19,-330.38 402.32,-326.51 402.06,-333.51"/>
</g>
<!-- Node3 -->
<g id="node3" class="node">
<title>Node3</title>
<g id="a_node3"><a xlink:href="MatrixElementCache_8hpp.html" target="_top" xlink:title=" ">
<polygon fill="none" stroke="black" points="606.63,-156.5 606.63,-197.5 771.63,-197.5 771.63,-156.5 606.63,-156.5"/>
<text text-anchor="start" x="614.63" y="-185.5" font-family="Helvetica,sans-Serif" font-size="10.00">/__w/pairinteraction</text>
<text text-anchor="start" x="614.63" y="-174.5" font-family="Helvetica,sans-Serif" font-size="10.00">/pairinteraction/pairinteraction</text>
<text text-anchor="middle" x="689.13" y="-163.5" font-family="Helvetica,sans-Serif" font-size="10.00">/MatrixElementCache.hpp</text>
</a>
</g>
</g>
<!-- Node1&#45;&gt;Node3 -->
<g id="edge2" class="edge">
<title>Node1&#45;&gt;Node3</title>
<path fill="none" stroke="midnightblue" d="M528.02,-305.89C566.64,-275.24 629.8,-225.1 664.46,-197.59"/>
<polygon fill="midnightblue" stroke="midnightblue" points="525.36,-303.54 519.7,-312.5 529.71,-309.02 525.36,-303.54"/>
</g>
<!-- Node5 -->
<g id="node5" class="node">
<title>Node5</title>
<g id="a_node5"><a xlink:href="PerturbativeInteraction_8hpp.html" target="_top" xlink:title=" ">
<polygon fill="none" stroke="black" points="996.63,-78.5 996.63,-119.5 1161.63,-119.5 1161.63,-78.5 996.63,-78.5"/>
<text text-anchor="start" x="1004.63" y="-107.5" font-family="Helvetica,sans-Serif" font-size="10.00">/__w/pairinteraction</text>
<text text-anchor="start" x="1004.63" y="-96.5" font-family="Helvetica,sans-Serif" font-size="10.00">/pairinteraction/pairinteraction</text>
<text text-anchor="middle" x="1079.13" y="-85.5" font-family="Helvetica,sans-Serif" font-size="10.00">/PerturbativeInteraction.hpp</text>
</a>
</g>
</g>
<!-- Node1&#45;&gt;Node5 -->
<g id="edge11" class="edge">
<title>Node1&#45;&gt;Node5</title>
<path fill="none" stroke="midnightblue" d="M587.97,-331.27C710.95,-328.65 919.62,-317.93 982.13,-276 1038.2,-238.4 1064.93,-157.09 1074.64,-119.62"/>
<polygon fill="midnightblue" stroke="midnightblue" points="587.74,-327.78 577.81,-331.48 587.88,-334.78 587.74,-327.78"/>
</g>
<!-- Node7 -->
<g id="node7" class="node">
<title>Node7</title>
<g id="a_node7"><a xlink:href="State_8cpp.html" target="_top" xlink:title=" ">
<polygon fill="none" stroke="black" points="476.63,-78.5 476.63,-119.5 641.63,-119.5 641.63,-78.5 476.63,-78.5"/>
<text text-anchor="start" x="484.63" y="-107.5" font-family="Helvetica,sans-Serif" font-size="10.00">/__w/pairinteraction</text>
<text text-anchor="start" x="484.63" y="-96.5" font-family="Helvetica,sans-Serif" font-size="10.00">/pairinteraction/pairinteraction</text>
<text text-anchor="middle" x="559.13" y="-85.5" font-family="Helvetica,sans-Serif" font-size="10.00">/State.cpp</text>
</a>
</g>
</g>
<!-- Node1&#45;&gt;Node7 -->
<g id="edge12" class="edge">
<title>Node1&#45;&gt;Node7</title>
<path fill="none" stroke="midnightblue" d="M503.29,-302.41C516.56,-254.34 542.44,-160.52 553.69,-119.73"/>
<polygon fill="midnightblue" stroke="midnightblue" points="499.88,-301.65 500.59,-312.22 506.62,-303.51 499.88,-301.65"/>
</g>
<!-- Node10 -->
<g id="node10" class="node">
<title>Node10</title>
<g id="a_node10"><a xlink:href="integration__test_8cpp.html" target="_top" xlink:title=" ">
<polygon fill="none" stroke="black" points="726.63,-0.5 726.63,-41.5 891.63,-41.5 891.63,-0.5 726.63,-0.5"/>
<text text-anchor="start" x="734.63" y="-29.5" font-family="Helvetica,sans-Serif" font-size="10.00">/__w/pairinteraction</text>
<text text-anchor="start" x="734.63" y="-18.5" font-family="Helvetica,sans-Serif" font-size="10.00">/pairinteraction/pairinteraction</text>
<text text-anchor="middle" x="809.13" y="-7.5" font-family="Helvetica,sans-Serif" font-size="10.00">/unit_test/integration_test.cpp</text>
</a>
</g>
</g>
<!-- Node1&#45;&gt;Node10 -->
<g id="edge26" class="edge">
<title>Node1&#45;&gt;Node10</title>
<path fill="none" stroke="midnightblue" d="M587.62,-316.82C691.68,-294.19 855.63,-240.56 928.13,-120 937.75,-104 938.14,-93.76 928.13,-78 917.73,-61.61 901.12,-49.93 883.57,-41.64"/>
<polygon fill="midnightblue" stroke="midnightblue" points="586.79,-313.41 577.74,-318.91 588.25,-320.26 586.79,-313.41"/>
</g>
<!-- Node11 -->
<g id="node11" class="node">
<title>Node11</title>
<g id="a_node11"><a xlink:href="SystemBase_8hpp.html" target="_top" xlink:title=" ">
<polygon fill="none" stroke="black" points="182.63,-234.5 182.63,-275.5 347.63,-275.5 347.63,-234.5 182.63,-234.5"/>
<text text-anchor="start" x="190.63" y="-263.5" font-family="Helvetica,sans-Serif" font-size="10.00">/__w/pairinteraction</text>
<text text-anchor="start" x="190.63" y="-252.5" font-family="Helvetica,sans-Serif" font-size="10.00">/pairinteraction/pairinteraction</text>
<text text-anchor="middle" x="265.13" y="-241.5" font-family="Helvetica,sans-Serif" font-size="10.00">/SystemBase.hpp</text>
</a>
</g>
</g>
<!-- Node1&#45;&gt;Node11 -->
<g id="edge13" class="edge">
<title>Node1&#45;&gt;Node11</title>
<path fill="none" stroke="midnightblue" d="M426.03,-309.17C393.56,-298.44 355.25,-285.78 324.16,-275.51"/>
<polygon fill="midnightblue" stroke="midnightblue" points="425.31,-312.61 435.9,-312.43 427.51,-305.97 425.31,-312.61"/>
</g>
<!-- Node13 -->
<g id="node13" class="node">
<title>Node13</title>
<g id="a_node13"><a xlink:href="SystemOne_8hpp.html" target="_top" xlink:title=" ">
<polygon fill="none" stroke="black" points="293.63,-156.5 293.63,-197.5 458.63,-197.5 458.63,-156.5 293.63,-156.5"/>
<text text-anchor="start" x="301.63" y="-185.5" font-family="Helvetica,sans-Serif" font-size="10.00">/__w/pairinteraction</text>
<text text-anchor="start" x="301.63" y="-174.5" font-family="Helvetica,sans-Serif" font-size="10.00">/pairinteraction/pairinteraction</text>
<text text-anchor="middle" x="376.13" y="-163.5" font-family="Helvetica,sans-Serif" font-size="10.00">/SystemOne.hpp</text>
</a>
</g>
</g>
<!-- Node1&#45;&gt;Node13 -->
<g id="edge24" class="edge">
<title>Node1&#45;&gt;Node13</title>
<path fill="none" stroke="midnightblue" d="M473.77,-304.36C450.07,-273.68 412.4,-224.94 391.46,-197.83"/>
<polygon fill="midnightblue" stroke="midnightblue" points="471.18,-306.72 480.06,-312.5 476.72,-302.44 471.18,-306.72"/>
</g>
<!-- Node14 -->
<g id="node14" class="node">
<title>Node14</title>
<g id="a_node14"><a xlink:href="SystemTwo_8hpp.html" target="_top" xlink:title=" ">
<polygon fill="none" stroke="black" points="33.63,-78.5 33.63,-119.5 198.63,-119.5 198.63,-78.5 33.63,-78.5"/>
<text text-anchor="start" x="41.63" y="-107.5" font-family="Helvetica,sans-Serif" font-size="10.00">/__w/pairinteraction</text>
<text text-anchor="start" x="41.63" y="-96.5" font-family="Helvetica,sans-Serif" font-size="10.00">/pairinteraction/pairinteraction</text>
<text text-anchor="middle" x="116.13" y="-85.5" font-family="Helvetica,sans-Serif" font-size="10.00">/SystemTwo.hpp</text>
</a>
</g>
</g>
<!-- Node1&#45;&gt;Node14 -->
<g id="edge25" class="edge">
<title>Node1&#45;&gt;Node14</title>
<path fill="none" stroke="midnightblue" d="M402.34,-326.68C336.34,-320.33 246.69,-306.44 173.13,-276 117.42,-252.94 89.93,-251.51 62.13,-198 53.53,-181.44 55.15,-173.31 62.13,-156 67.85,-141.85 79.04,-129.28 89.76,-119.65"/>
<polygon fill="midnightblue" stroke="midnightblue" points="402.04,-330.16 412.31,-327.59 402.68,-323.19 402.04,-330.16"/>
</g>
<!-- Node3&#45;&gt;Node2 -->
<g id="edge3" class="edge">
<title>Node3&#45;&gt;Node2</title>
<path fill="none" stroke="midnightblue" d="M685.78,-146.25C681.59,-123.85 672.19,-94.29 651.13,-78 621.48,-55.05 398.81,-36.8 267.75,-27.91"/>
<polygon fill="midnightblue" stroke="midnightblue" points="682.35,-146.97 687.4,-156.28 689.26,-145.85 682.35,-146.97"/>
</g>
<!-- Node4 -->
<g id="node4" class="node">
<title>Node4</title>
<g id="a_node4"><a xlink:href="MatrixElementCache_8cpp.html" target="_top" xlink:title=" ">
<polygon fill="none" stroke="black" points="736.63,-78.5 736.63,-119.5 901.63,-119.5 901.63,-78.5 736.63,-78.5"/>
<text text-anchor="start" x="744.63" y="-107.5" font-family="Helvetica,sans-Serif" font-size="10.00">/__w/pairinteraction</text>
<text text-anchor="start" x="744.63" y="-96.5" font-family="Helvetica,sans-Serif" font-size="10.00">/pairinteraction/pairinteraction</text>
<text text-anchor="middle" x="819.13" y="-85.5" font-family="Helvetica,sans-Serif" font-size="10.00">/MatrixElementCache.cpp</text>
</a>
</g>
</g>
<!-- Node3&#45;&gt;Node4 -->
<g id="edge4" class="edge">
<title>Node3&#45;&gt;Node4</title>
<path fill="none" stroke="midnightblue" d="M731.55,-151.2C749.14,-140.92 769.26,-129.16 785.77,-119.51"/>
<polygon fill="midnightblue" stroke="midnightblue" points="729.48,-148.36 722.61,-156.43 733.01,-154.4 729.48,-148.36"/>
</g>
<!-- Node3&#45;&gt;Node5 -->
<g id="edge5" class="edge">
<title>Node3&#45;&gt;Node5</title>
<path fill="none" stroke="midnightblue" d="M781.72,-157.96C846.98,-145.24 933.62,-128.36 996.54,-116.09"/>
<polygon fill="midnightblue" stroke="midnightblue" points="780.99,-154.53 771.84,-159.88 782.33,-161.4 780.99,-154.53"/>
</g>
<!-- Node3&#45;&gt;Node7 -->
<g id="edge7" class="edge">
<title>Node3&#45;&gt;Node7</title>
<path fill="none" stroke="midnightblue" d="M646.72,-151.2C629.12,-140.92 609.01,-129.16 592.5,-119.51"/>
<polygon fill="midnightblue" stroke="midnightblue" points="645.26,-154.4 655.65,-156.43 648.79,-148.36 645.26,-154.4"/>
</g>
<!-- Node8 -->
<g id="node8" class="node">
<title>Node8</title>
<g id="a_node8"><a xlink:href="SystemOne_8cpp.html" target="_top" xlink:title=" ">
<polygon fill="none" stroke="black" points="293.63,-78.5 293.63,-119.5 458.63,-119.5 458.63,-78.5 293.63,-78.5"/>
<text text-anchor="start" x="301.63" y="-107.5" font-family="Helvetica,sans-Serif" font-size="10.00">/__w/pairinteraction</text>
<text text-anchor="start" x="301.63" y="-96.5" font-family="Helvetica,sans-Serif" font-size="10.00">/pairinteraction/pairinteraction</text>
<text text-anchor="middle" x="376.13" y="-85.5" font-family="Helvetica,sans-Serif" font-size="10.00">/SystemOne.cpp</text>
</a>
</g>
</g>
<!-- Node3&#45;&gt;Node8 -->
<g id="edge8" class="edge">
<title>Node3&#45;&gt;Node8</title>
<path fill="none" stroke="midnightblue" d="M598.78,-154.06C553.83,-143.15 499.96,-130.07 456.47,-119.51"/>
<polygon fill="midnightblue" stroke="midnightblue" points="597.98,-157.47 608.53,-156.43 599.64,-150.67 597.98,-157.47"/>
</g>
<!-- Node9 -->
<g id="node9" class="node">
<title>Node9</title>
<g id="a_node9"><a xlink:href="SystemTwo_8cpp.html" target="_top" xlink:title=" ">
<polygon fill="none" stroke="black" points="455.63,-0.5 455.63,-41.5 620.63,-41.5 620.63,-0.5 455.63,-0.5"/>
<text text-anchor="start" x="463.63" y="-29.5" font-family="Helvetica,sans-Serif" font-size="10.00">/__w/pairinteraction</text>
<text text-anchor="start" x="463.63" y="-18.5" font-family="Helvetica,sans-Serif" font-size="10.00">/pairinteraction/pairinteraction</text>
<text text-anchor="middle" x="538.13" y="-7.5" font-family="Helvetica,sans-Serif" font-size="10.00">/SystemTwo.cpp</text>
</a>
</g>
</g>
<!-- Node3&#45;&gt;Node9 -->
<g id="edge9" class="edge">
<title>Node3&#45;&gt;Node9</title>
<path fill="none" stroke="midnightblue" d="M695.54,-146.28C698.33,-125.26 698.26,-97.46 684.13,-78 668.99,-57.13 644.97,-44.03 620.76,-35.82"/>
<polygon fill="midnightblue" stroke="midnightblue" points="692.07,-145.85 693.95,-156.28 698.98,-146.96 692.07,-145.85"/>
</g>
<!-- Node3&#45;&gt;Node10 -->
<g id="edge10" class="edge">
<title>Node3&#45;&gt;Node10</title>
<path fill="none" stroke="midnightblue" d="M781.57,-164.22C834.99,-155.3 894.8,-140.96 911.13,-120 922.61,-105.27 920.64,-94.06 911.13,-78 901.56,-61.83 885.49,-50.02 868.89,-41.53"/>
<polygon fill="midnightblue" stroke="midnightblue" points="780.99,-160.77 771.68,-165.82 782.11,-167.68 780.99,-160.77"/>
</g>
<!-- Node6 -->
<g id="node6" class="node">
<title>Node6</title>
<g id="a_node6"><a xlink:href="PerturbativeInteraction_8cpp.html" target="_top" xlink:title=" ">
<polygon fill="none" stroke="black" points="996.63,-0.5 996.63,-41.5 1161.63,-41.5 1161.63,-0.5 996.63,-0.5"/>
<text text-anchor="start" x="1004.63" y="-29.5" font-family="Helvetica,sans-Serif" font-size="10.00">/__w/pairinteraction</text>
<text text-anchor="start" x="1004.63" y="-18.5" font-family="Helvetica,sans-Serif" font-size="10.00">/pairinteraction/pairinteraction</text>
<text text-anchor="middle" x="1079.13" y="-7.5" font-family="Helvetica,sans-Serif" font-size="10.00">/PerturbativeInteraction.cpp</text>
</a>
</g>
</g>
<!-- Node5&#45;&gt;Node6 -->
<g id="edge6" class="edge">
<title>Node5&#45;&gt;Node6</title>
<path fill="none" stroke="midnightblue" d="M1079.13,-68.3C1079.13,-59.3 1079.13,-49.65 1079.13,-41.51"/>
<polygon fill="midnightblue" stroke="midnightblue" points="1075.63,-68.43 1079.13,-78.43 1082.63,-68.43 1075.63,-68.43"/>
</g>
<!-- Node12 -->
<g id="node12" class="node">
<title>Node12</title>
<g id="a_node12"><a xlink:href="SystemBase_8cpp.html" target="_top" xlink:title=" ">
<polygon fill="none" stroke="black" points="71.63,-156.5 71.63,-197.5 236.63,-197.5 236.63,-156.5 71.63,-156.5"/>
<text text-anchor="start" x="79.63" y="-185.5" font-family="Helvetica,sans-Serif" font-size="10.00">/__w/pairinteraction</text>
<text text-anchor="start" x="79.63" y="-174.5" font-family="Helvetica,sans-Serif" font-size="10.00">/pairinteraction/pairinteraction</text>
<text text-anchor="middle" x="154.13" y="-163.5" font-family="Helvetica,sans-Serif" font-size="10.00">/SystemBase.cpp</text>
</a>
</g>
</g>
<!-- Node11&#45;&gt;Node12 -->
<g id="edge14" class="edge">
<title>Node11&#45;&gt;Node12</title>
<path fill="none" stroke="midnightblue" d="M228.09,-228.64C213.27,-218.49 196.46,-206.98 182.62,-197.51"/>
<polygon fill="midnightblue" stroke="midnightblue" points="226.32,-231.67 236.55,-234.43 230.27,-225.89 226.32,-231.67"/>
</g>
<!-- Node11&#45;&gt;Node13 -->
<g id="edge15" class="edge">
<title>Node11&#45;&gt;Node13</title>
<path fill="none" stroke="midnightblue" d="M302.18,-228.64C317,-218.49 333.8,-206.98 347.64,-197.51"/>
<polygon fill="midnightblue" stroke="midnightblue" points="299.99,-225.89 293.72,-234.43 303.95,-231.67 299.99,-225.89"/>
</g>
<!-- Node11&#45;&gt;Node14 -->
<g id="edge23" class="edge">
<title>Node11&#45;&gt;Node14</title>
<path fill="none" stroke="midnightblue" d="M266.01,-224.41C265.12,-203.21 260.66,-175.15 245.13,-156 231.83,-139.6 212.79,-127.88 193.41,-119.57"/>
<polygon fill="midnightblue" stroke="midnightblue" points="262.51,-224.55 266.19,-234.48 269.51,-224.42 262.51,-224.55"/>
</g>
<!-- Node13&#45;&gt;Node2 -->
<g id="edge16" class="edge">
<title>Node13&#45;&gt;Node2</title>
<path fill="none" stroke="midnightblue" d="M308.15,-152.45C288.67,-143.92 268.13,-133.1 251.13,-120 222.4,-97.85 197.71,-63.22 183.91,-41.61"/>
<polygon fill="midnightblue" stroke="midnightblue" points="307.03,-155.77 317.61,-156.45 309.76,-149.33 307.03,-155.77"/>
</g>
<!-- Node13&#45;&gt;Node8 -->
<g id="edge17" class="edge">
<title>Node13&#45;&gt;Node8</title>
<path fill="none" stroke="midnightblue" d="M376.13,-146.3C376.13,-137.3 376.13,-127.65 376.13,-119.51"/>
<polygon fill="midnightblue" stroke="midnightblue" points="372.63,-146.43 376.13,-156.43 379.63,-146.43 372.63,-146.43"/>
</g>
<!-- Node13&#45;&gt;Node10 -->
<g id="edge22" class="edge">
<title>Node13&#45;&gt;Node10</title>
<path fill="none" stroke="midnightblue" d="M315.3,-151.12C302.85,-143.09 291.35,-132.85 284.13,-120 274.99,-103.73 271.64,-91.87 284.13,-78 310.01,-49.29 591.7,-46.15 630.13,-42 661.53,-38.61 696.02,-34.78 726.27,-31.39"/>
<polygon fill="midnightblue" stroke="midnightblue" points="313.65,-154.21 324.03,-156.33 317.24,-148.2 313.65,-154.21"/>
</g>
<!-- Node13&#45;&gt;Node14 -->
<g id="edge18" class="edge">
<title>Node13&#45;&gt;Node14</title>
<path fill="none" stroke="midnightblue" d="M299.43,-153.58C262.43,-142.76 218.46,-129.91 182.86,-119.51"/>
<polygon fill="midnightblue" stroke="midnightblue" points="298.6,-156.98 309.18,-156.43 300.56,-150.26 298.6,-156.98"/>
</g>
<!-- Node14&#45;&gt;Node2 -->
<g id="edge19" class="edge">
<title>Node14&#45;&gt;Node2</title>
<path fill="none" stroke="midnightblue" d="M136.52,-70.34C143.56,-60.78 151.3,-50.27 157.76,-41.51"/>
<polygon fill="midnightblue" stroke="midnightblue" points="133.67,-68.3 130.55,-78.43 139.3,-72.45 133.67,-68.3"/>
</g>
<!-- Node14&#45;&gt;Node9 -->
<g id="edge20" class="edge">
<title>Node14&#45;&gt;Node9</title>
<path fill="none" stroke="midnightblue" d="M208.94,-81.29C282.55,-68.03 384.49,-49.67 455.35,-36.91"/>
<polygon fill="midnightblue" stroke="midnightblue" points="207.97,-77.9 198.75,-83.12 209.21,-84.79 207.97,-77.9"/>
</g>
<!-- Node14&#45;&gt;Node10 -->
<g id="edge21" class="edge">
<title>Node14&#45;&gt;Node10</title>
<path fill="none" stroke="midnightblue" d="M209.05,-83.58C223.13,-81.59 237.51,-79.66 251.13,-78 419.1,-57.59 461.83,-59.39 630.13,-42 661.55,-38.75 696.04,-34.96 726.28,-31.55"/>
<polygon fill="midnightblue" stroke="midnightblue" points="208.26,-80.16 198.86,-85.04 209.25,-87.09 208.26,-80.16"/>
</g>
</g>
</svg>
