<?xml version="1.0" encoding="UTF-8" standalone="no"?>
<!DOCTYPE svg PUBLIC "-//W3C//DTD SVG 1.1//EN"
 "http://www.w3.org/Graphics/SVG/1.1/DTD/svg11.dtd">
<!-- Generated by graphviz version 2.43.0 (0)
 -->
<!-- Title: /__w/pairinteraction/pairinteraction/pairinteraction/State.hpp Pages: 1 -->
<svg width="745pt" height="162pt"
 viewBox="0.00 0.00 745.00 162.00" xmlns="http://www.w3.org/2000/svg" xmlns:xlink="http://www.w3.org/1999/xlink">
<g id="graph0" class="graph" transform="scale(1 1) rotate(0) translate(4 158)">
<title>/__w/pairinteraction/pairinteraction/pairinteraction/State.hpp</title>
<!-- Node1 -->
<g id="node1" class="node">
<title>Node1</title>
<g id="a_node1"><a xlink:title=" ">
<polygon fill="#bfbfbf" stroke="black" points="272.5,-112.5 272.5,-153.5 437.5,-153.5 437.5,-112.5 272.5,-112.5"/>
<text text-anchor="start" x="280.5" y="-141.5" font-family="Helvetica,sans-Serif" font-size="10.00">/__w/pairinteraction</text>
<text text-anchor="start" x="280.5" y="-130.5" font-family="Helvetica,sans-Serif" font-size="10.00">/pairinteraction/pairinteraction</text>
<text text-anchor="middle" x="355" y="-119.5" font-family="Helvetica,sans-Serif" font-size="10.00">/State.hpp</text>
</a>
</g>
</g>
<!-- Node2 -->
<g id="node2" class="node">
<title>Node2</title>
<g id="a_node2"><a xlink:href="utils_8hpp.html" target="_top" xlink:title=" ">
<polygon fill="none" stroke="black" points="182.5,-56.5 182.5,-75.5 241.5,-75.5 241.5,-56.5 182.5,-56.5"/>
<text text-anchor="middle" x="212" y="-63.5" font-family="Helvetica,sans-Serif" font-size="10.00">utils.hpp</text>
</a>
</g>
</g>
<!-- Node1&#45;&gt;Node2 -->
<g id="edge1" class="edge">
<title>Node1&#45;&gt;Node2</title>
<path fill="none" stroke="midnightblue" d="M312.1,-112.5C288.8,-101.91 260.66,-89.12 240.15,-79.8"/>
<polygon fill="midnightblue" stroke="midnightblue" points="241.59,-76.6 231.04,-75.65 238.69,-82.98 241.59,-76.6"/>
</g>
<!-- Node4 -->
<g id="node4" class="node">
<title>Node4</title>
<g id="a_node4"><a xlink:title=" ">
<polygon fill="none" stroke="#bfbfbf" points="0,-0.5 0,-19.5 42,-19.5 42,-0.5 0,-0.5"/>
<text text-anchor="middle" x="21" y="-7.5" font-family="Helvetica,sans-Serif" font-size="10.00">array</text>
</a>
</g>
</g>
<!-- Node1&#45;&gt;Node4 -->
<g id="edge9" class="edge">
<title>Node1&#45;&gt;Node4</title>
<path fill="none" stroke="midnightblue" d="M286.12,-112.48C252.1,-102.39 210.6,-89.4 174,-76 129.49,-59.71 79.12,-37.57 48.73,-23.79"/>
<polygon fill="midnightblue" stroke="midnightblue" points="50.15,-20.59 39.6,-19.63 47.25,-26.96 50.15,-20.59"/>
</g>
<!-- Node10 -->
<g id="node10" class="node">
<title>Node10</title>
<g id="a_node10"><a xlink:title=" ">
<polygon fill="none" stroke="#bfbfbf" points="259.5,-56.5 259.5,-75.5 306.5,-75.5 306.5,-56.5 259.5,-56.5"/>
<text text-anchor="middle" x="283" y="-63.5" font-family="Helvetica,sans-Serif" font-size="10.00">cmath</text>
</a>
</g>
</g>
<!-- Node1&#45;&gt;Node10 -->
<g id="edge10" class="edge">
<title>Node1&#45;&gt;Node10</title>
<path fill="none" stroke="midnightblue" d="M333.4,-112.5C322.78,-102.92 310.17,-91.53 300.22,-82.54"/>
<polygon fill="midnightblue" stroke="midnightblue" points="302.35,-79.76 292.58,-75.65 297.66,-84.95 302.35,-79.76"/>
</g>
<!-- Node11 -->
<g id="node11" class="node">
<title>Node11</title>
<g id="a_node11"><a xlink:title=" ">
<polygon fill="none" stroke="#bfbfbf" points="325,-56.5 325,-75.5 385,-75.5 385,-56.5 325,-56.5"/>
<text text-anchor="middle" x="355" y="-63.5" font-family="Helvetica,sans-Serif" font-size="10.00">iostream</text>
</a>
</g>
</g>
<!-- Node1&#45;&gt;Node11 -->
<g id="edge11" class="edge">
<title>Node1&#45;&gt;Node11</title>
<path fill="none" stroke="midnightblue" d="M355,-112.5C355,-104.07 355,-94.24 355,-85.87"/>
<polygon fill="midnightblue" stroke="midnightblue" points="358.5,-85.65 355,-75.65 351.5,-85.65 358.5,-85.65"/>
</g>
<!-- Node12 -->
<g id="node12" class="node">
<title>Node12</title>
<g id="a_node12"><a xlink:title=" ">
<polygon fill="none" stroke="#bfbfbf" points="403,-56.5 403,-75.5 447,-75.5 447,-56.5 403,-56.5"/>
<text text-anchor="middle" x="425" y="-63.5" font-family="Helvetica,sans-Serif" font-size="10.00">string</text>
</a>
</g>
</g>
<!-- Node1&#45;&gt;Node12 -->
<g id="edge12" class="edge">
<title>Node1&#45;&gt;Node12</title>
<path fill="none" stroke="midnightblue" d="M376,-112.5C386.32,-102.92 398.59,-91.53 408.26,-82.54"/>
<polygon fill="midnightblue" stroke="midnightblue" points="410.74,-85.02 415.68,-75.65 405.97,-79.89 410.74,-85.02"/>
</g>
<!-- Node13 -->
<g id="node13" class="node">
<title>Node13</title>
<g id="a_node13"><a xlink:title=" ">
<polygon fill="none" stroke="#bfbfbf" points="465.5,-56.5 465.5,-75.5 590.5,-75.5 590.5,-56.5 465.5,-56.5"/>
<text text-anchor="middle" x="528" y="-63.5" font-family="Helvetica,sans-Serif" font-size="10.00">cereal/types/array.hpp</text>
</a>
</g>
</g>
<!-- Node1&#45;&gt;Node13 -->
<g id="edge13" class="edge">
<title>Node1&#45;&gt;Node13</title>
<path fill="none" stroke="midnightblue" d="M406.91,-112.5C435.6,-101.72 470.37,-88.65 495.28,-79.29"/>
<polygon fill="midnightblue" stroke="midnightblue" points="496.84,-82.45 504.97,-75.65 494.38,-75.89 496.84,-82.45"/>
</g>
<!-- Node14 -->
<g id="node14" class="node">
<title>Node14</title>
<g id="a_node14"><a xlink:title=" ">
<polygon fill="none" stroke="#bfbfbf" points="609,-56.5 609,-75.5 737,-75.5 737,-56.5 609,-56.5"/>
<text text-anchor="middle" x="673" y="-63.5" font-family="Helvetica,sans-Serif" font-size="10.00">cereal/types/string.hpp</text>
</a>
</g>
</g>
<!-- Node1&#45;&gt;Node14 -->
<g id="edge14" class="edge">
<title>Node1&#45;&gt;Node14</title>
<path fill="none" stroke="midnightblue" d="M437.72,-115.09C495.74,-103.23 571.52,-87.74 621.19,-77.59"/>
<polygon fill="midnightblue" stroke="midnightblue" points="621.97,-81 631.07,-75.57 620.57,-74.15 621.97,-81"/>
</g>
<!-- Node3 -->
<g id="node3" class="node">
<title>Node3</title>
<g id="a_node3"><a xlink:title=" ">
<polygon fill="none" stroke="#bfbfbf" points="60,-0.5 60,-19.5 124,-19.5 124,-0.5 60,-0.5"/>
<text text-anchor="middle" x="92" y="-7.5" font-family="Helvetica,sans-Serif" font-size="10.00">algorithm</text>
</a>
</g>
</g>
<!-- Node2&#45;&gt;Node3 -->
<g id="edge2" class="edge">
<title>Node2&#45;&gt;Node3</title>
<path fill="none" stroke="midnightblue" d="M192.99,-56.44C173.41,-47.64 142.69,-33.81 120.27,-23.72"/>
<polygon fill="midnightblue" stroke="midnightblue" points="121.48,-20.43 110.93,-19.52 118.61,-26.81 121.48,-20.43"/>
</g>
<!-- Node2&#45;&gt;Node4 -->
<g id="edge3" class="edge">
<title>Node2&#45;&gt;Node4</title>
<path fill="none" stroke="midnightblue" d="M182.28,-56.87C151.89,-48.53 103.08,-35.01 52.16,-20.3"/>
<polygon fill="midnightblue" stroke="midnightblue" points="52.87,-16.86 42.29,-17.44 50.92,-23.58 52.87,-16.86"/>
</g>
<!-- Node5 -->
<g id="node5" class="node">
<title>Node5</title>
<g id="a_node5"><a xlink:title=" ">
<polygon fill="none" stroke="#bfbfbf" points="142.5,-0.5 142.5,-19.5 201.5,-19.5 201.5,-0.5 142.5,-0.5"/>
<text text-anchor="middle" x="172" y="-7.5" font-family="Helvetica,sans-Serif" font-size="10.00">complex</text>
</a>
</g>
</g>
<!-- Node2&#45;&gt;Node5 -->
<g id="edge4" class="edge">
<title>Node2&#45;&gt;Node5</title>
<path fill="none" stroke="midnightblue" d="M205.39,-56.08C199.74,-48.46 191.46,-37.26 184.55,-27.94"/>
<polygon fill="midnightblue" stroke="midnightblue" points="187.25,-25.7 178.48,-19.75 181.62,-29.87 187.25,-25.7"/>
</g>
<!-- Node6 -->
<g id="node6" class="node">
<title>Node6</title>
<g id="a_node6"><a xlink:title=" ">
<polygon fill="none" stroke="#bfbfbf" points="219.5,-0.5 219.5,-19.5 284.5,-19.5 284.5,-0.5 219.5,-0.5"/>
<text text-anchor="middle" x="252" y="-7.5" font-family="Helvetica,sans-Serif" font-size="10.00">functional</text>
</a>
</g>
</g>
<!-- Node2&#45;&gt;Node6 -->
<g id="edge5" class="edge">
<title>Node2&#45;&gt;Node6</title>
<path fill="none" stroke="midnightblue" d="M218.61,-56.08C224.26,-48.46 232.54,-37.26 239.45,-27.94"/>
<polygon fill="midnightblue" stroke="midnightblue" points="242.38,-29.87 245.52,-19.75 236.75,-25.7 242.38,-29.87"/>
</g>
<!-- Node7 -->
<g id="node7" class="node">
<title>Node7</title>
<g id="a_node7"><a xlink:title=" ">
<polygon fill="none" stroke="#bfbfbf" points="303,-0.5 303,-19.5 357,-19.5 357,-0.5 303,-0.5"/>
<text text-anchor="middle" x="330" y="-7.5" font-family="Helvetica,sans-Serif" font-size="10.00">random</text>
</a>
</g>
</g>
<!-- Node2&#45;&gt;Node7 -->
<g id="edge6" class="edge">
<title>Node2&#45;&gt;Node7</title>
<path fill="none" stroke="midnightblue" d="M230.7,-56.44C249.94,-47.64 280.15,-33.81 302.2,-23.72"/>
<polygon fill="midnightblue" stroke="midnightblue" points="303.75,-26.86 311.39,-19.52 300.84,-20.5 303.75,-26.86"/>
</g>
<!-- Node8 -->
<g id="node8" class="node">
<title>Node8</title>
<g id="a_node8"><a xlink:title=" ">
<polygon fill="none" stroke="#bfbfbf" points="375.5,-0.5 375.5,-19.5 444.5,-19.5 444.5,-0.5 375.5,-0.5"/>
<text text-anchor="middle" x="410" y="-7.5" font-family="Helvetica,sans-Serif" font-size="10.00">type_traits</text>
</a>
</g>
</g>
<!-- Node2&#45;&gt;Node8 -->
<g id="edge7" class="edge">
<title>Node2&#45;&gt;Node8</title>
<path fill="none" stroke="midnightblue" d="M241.64,-56.92C275.41,-47.71 330.82,-32.59 368.78,-22.24"/>
<polygon fill="midnightblue" stroke="midnightblue" points="369.79,-25.59 378.52,-19.59 367.95,-18.84 369.79,-25.59"/>
</g>
<!-- Node9 -->
<g id="node9" class="node">
<title>Node9</title>
<g id="a_node9"><a xlink:title=" ">
<polygon fill="none" stroke="#bfbfbf" points="463,-0.5 463,-19.5 519,-19.5 519,-0.5 463,-0.5"/>
<text text-anchor="middle" x="491" y="-7.5" font-family="Helvetica,sans-Serif" font-size="10.00">unistd.h</text>
</a>
</g>
</g>
<!-- Node2&#45;&gt;Node9 -->
<g id="edge8" class="edge">
<title>Node2&#45;&gt;Node9</title>
<path fill="none" stroke="midnightblue" d="M241.78,-57.96C244.89,-57.28 248,-56.61 251,-56 337.71,-38.32 362.64,-38.78 452.92,-20.12"/>
<polygon fill="midnightblue" stroke="midnightblue" points="453.69,-23.53 462.76,-18.06 452.26,-16.68 453.69,-23.53"/>
</g>
</g>
</svg>
