<?xml version="1.0" encoding="UTF-8" standalone="no"?>
<!DOCTYPE svg PUBLIC "-//W3C//DTD SVG 1.1//EN"
 "http://www.w3.org/Graphics/SVG/1.1/DTD/svg11.dtd">
<!-- Generated by graphviz version 2.43.0 (0)
 -->
<!-- Title: /__w/pairinteraction/pairinteraction/pairinteraction/StateOld.hpp Pages: 1 -->
<svg width="2000pt" height="518pt"
 viewBox="0.00 0.00 2000.00 518.00" xmlns="http://www.w3.org/2000/svg" xmlns:xlink="http://www.w3.org/1999/xlink">
<g id="graph0" class="graph" transform="scale(1 1) rotate(0) translate(4 514)">
<title>/__w/pairinteraction/pairinteraction/pairinteraction/StateOld.hpp</title>
<!-- Node1 -->
<g id="node1" class="node">
<title>Node1</title>
<g id="a_node1"><a xlink:title=" ">
<polygon fill="#bfbfbf" stroke="black" points="917,-468.5 917,-509.5 1082,-509.5 1082,-468.5 917,-468.5"/>
<text text-anchor="start" x="925" y="-497.5" font-family="Helvetica,sans-Serif" font-size="10.00">/__w/pairinteraction</text>
<text text-anchor="start" x="925" y="-486.5" font-family="Helvetica,sans-Serif" font-size="10.00">/pairinteraction/pairinteraction</text>
<text text-anchor="middle" x="999.5" y="-475.5" font-family="Helvetica,sans-Serif" font-size="10.00">/StateOld.hpp</text>
</a>
</g>
</g>
<!-- Node2 -->
<g id="node2" class="node">
<title>Node2</title>
<g id="a_node2"><a xlink:href="Basisnames_8hpp.html" target="_top" xlink:title=" ">
<polygon fill="none" stroke="black" points="862,-390.5 862,-431.5 1027,-431.5 1027,-390.5 862,-390.5"/>
<text text-anchor="start" x="870" y="-419.5" font-family="Helvetica,sans-Serif" font-size="10.00">/__w/pairinteraction</text>
<text text-anchor="start" x="870" y="-408.5" font-family="Helvetica,sans-Serif" font-size="10.00">/pairinteraction/pairinteraction</text>
<text text-anchor="middle" x="944.5" y="-397.5" font-family="Helvetica,sans-Serif" font-size="10.00">/Basisnames.hpp</text>
</a>
</g>
</g>
<!-- Node1&#45;&gt;Node2 -->
<g id="edge1" class="edge">
<title>Node1&#45;&gt;Node2</title>
<path fill="none" stroke="midnightblue" d="M979.27,-460.05C972.41,-450.57 964.9,-440.18 958.62,-431.51"/>
<polygon fill="midnightblue" stroke="midnightblue" points="976.64,-462.38 985.34,-468.43 982.31,-458.27 976.64,-462.38"/>
</g>
<!-- Node4 -->
<g id="node4" class="node">
<title>Node4</title>
<g id="a_node4"><a xlink:href="Hamiltonianmatrix_8hpp.html" target="_top" xlink:title=" ">
<polygon fill="none" stroke="black" points="183,-312.5 183,-353.5 348,-353.5 348,-312.5 183,-312.5"/>
<text text-anchor="start" x="191" y="-341.5" font-family="Helvetica,sans-Serif" font-size="10.00">/__w/pairinteraction</text>
<text text-anchor="start" x="191" y="-330.5" font-family="Helvetica,sans-Serif" font-size="10.00">/pairinteraction/pairinteraction</text>
<text text-anchor="middle" x="265.5" y="-319.5" font-family="Helvetica,sans-Serif" font-size="10.00">/Hamiltonianmatrix.hpp</text>
</a>
</g>
</g>
<!-- Node1&#45;&gt;Node4 -->
<g id="edge28" class="edge">
<title>Node1&#45;&gt;Node4</title>
<path fill="none" stroke="midnightblue" d="M906.56,-468.5C762.15,-438.2 486.18,-380.3 348.25,-351.36"/>
<polygon fill="midnightblue" stroke="midnightblue" points="906.22,-472.01 916.73,-470.63 907.66,-465.15 906.22,-472.01"/>
</g>
<!-- Node21 -->
<g id="node21" class="node">
<title>Node21</title>
<g id="a_node21"><a xlink:href="MatrixElements_8hpp.html" target="_top" xlink:title=" ">
<polygon fill="none" stroke="black" points="1752,-312.5 1752,-353.5 1917,-353.5 1917,-312.5 1752,-312.5"/>
<text text-anchor="start" x="1760" y="-341.5" font-family="Helvetica,sans-Serif" font-size="10.00">/__w/pairinteraction</text>
<text text-anchor="start" x="1760" y="-330.5" font-family="Helvetica,sans-Serif" font-size="10.00">/pairinteraction/pairinteraction</text>
<text text-anchor="middle" x="1834.5" y="-319.5" font-family="Helvetica,sans-Serif" font-size="10.00">/MatrixElements.hpp</text>
</a>
</g>
</g>
<!-- Node1&#45;&gt;Node21 -->
<g id="edge29" class="edge">
<title>Node1&#45;&gt;Node21</title>
<path fill="none" stroke="midnightblue" d="M1017.37,-459.55C1034.37,-433.53 1059.5,-397.92 1074.5,-390 1139.74,-355.55 1664.34,-363.48 1737.5,-354 1742.19,-353.39 1746.99,-352.69 1751.83,-351.91"/>
<polygon fill="midnightblue" stroke="midnightblue" points="1014.21,-457.99 1011.73,-468.29 1020.09,-461.79 1014.21,-457.99"/>
</g>
<!-- Node23 -->
<g id="node23" class="node">
<title>Node23</title>
<g id="a_node23"><a xlink:href="StateOld_8cpp.html" target="_top" xlink:title=" ">
<polygon fill="none" stroke="black" points="1084,-390.5 1084,-431.5 1249,-431.5 1249,-390.5 1084,-390.5"/>
<text text-anchor="start" x="1092" y="-419.5" font-family="Helvetica,sans-Serif" font-size="10.00">/__w/pairinteraction</text>
<text text-anchor="start" x="1092" y="-408.5" font-family="Helvetica,sans-Serif" font-size="10.00">/pairinteraction/pairinteraction</text>
<text text-anchor="middle" x="1166.5" y="-397.5" font-family="Helvetica,sans-Serif" font-size="10.00">/StateOld.cpp</text>
</a>
</g>
</g>
<!-- Node1&#45;&gt;Node23 -->
<g id="edge30" class="edge">
<title>Node1&#45;&gt;Node23</title>
<path fill="none" stroke="midnightblue" d="M1051.82,-464.19C1074.92,-453.67 1101.75,-441.47 1123.64,-431.51"/>
<polygon fill="midnightblue" stroke="midnightblue" points="1050.16,-461.1 1042.51,-468.43 1053.06,-467.47 1050.16,-461.1"/>
</g>
<!-- Node3 -->
<g id="node3" class="node">
<title>Node3</title>
<g id="a_node3"><a xlink:href="Basisnames_8cpp.html" target="_top" xlink:title=" ">
<polygon fill="none" stroke="black" points="771,-312.5 771,-353.5 936,-353.5 936,-312.5 771,-312.5"/>
<text text-anchor="start" x="779" y="-341.5" font-family="Helvetica,sans-Serif" font-size="10.00">/__w/pairinteraction</text>
<text text-anchor="start" x="779" y="-330.5" font-family="Helvetica,sans-Serif" font-size="10.00">/pairinteraction/pairinteraction</text>
<text text-anchor="middle" x="853.5" y="-319.5" font-family="Helvetica,sans-Serif" font-size="10.00">/Basisnames.cpp</text>
</a>
</g>
</g>
<!-- Node2&#45;&gt;Node3 -->
<g id="edge2" class="edge">
<title>Node2&#45;&gt;Node3</title>
<path fill="none" stroke="midnightblue" d="M913.1,-383.78C901.21,-373.84 887.88,-362.72 876.86,-353.51"/>
<polygon fill="midnightblue" stroke="midnightblue" points="911.15,-386.7 921.07,-390.43 915.63,-381.33 911.15,-386.7"/>
</g>
<!-- Node2&#45;&gt;Node4 -->
<g id="edge3" class="edge">
<title>Node2&#45;&gt;Node4</title>
<path fill="none" stroke="midnightblue" d="M851.56,-404.15C736.36,-396.19 534.23,-379.89 362.5,-354 357.82,-353.3 353.03,-352.51 348.21,-351.67"/>
<polygon fill="midnightblue" stroke="midnightblue" points="851.54,-407.66 861.75,-404.85 852.01,-400.67 851.54,-407.66"/>
</g>
<!-- Node6 -->
<g id="node6" class="node">
<title>Node6</title>
<g id="a_node6"><a xlink:href="HamiltonianOne_8hpp.html" target="_top" xlink:title=" ">
<polygon fill="none" stroke="black" points="820,-156.5 820,-197.5 985,-197.5 985,-156.5 820,-156.5"/>
<text text-anchor="start" x="828" y="-185.5" font-family="Helvetica,sans-Serif" font-size="10.00">/__w/pairinteraction</text>
<text text-anchor="start" x="828" y="-174.5" font-family="Helvetica,sans-Serif" font-size="10.00">/pairinteraction/pairinteraction</text>
<text text-anchor="middle" x="902.5" y="-163.5" font-family="Helvetica,sans-Serif" font-size="10.00">/HamiltonianOne.hpp</text>
</a>
</g>
</g>
<!-- Node2&#45;&gt;Node6 -->
<g id="edge13" class="edge">
<title>Node2&#45;&gt;Node6</title>
<path fill="none" stroke="midnightblue" d="M851.78,-401C710.36,-385.14 451.23,-346.97 395.5,-276 383.97,-261.32 383.05,-247.91 395.5,-234 402.51,-226.17 678.03,-199.15 819.9,-185.71"/>
<polygon fill="midnightblue" stroke="midnightblue" points="851.43,-404.48 861.76,-402.1 852.2,-397.52 851.43,-404.48"/>
</g>
<!-- Node8 -->
<g id="node8" class="node">
<title>Node8</title>
<g id="a_node8"><a xlink:href="HamiltonianTwo_8hpp.html" target="_top" xlink:title=" ">
<polygon fill="none" stroke="black" points="1023,-78.5 1023,-119.5 1188,-119.5 1188,-78.5 1023,-78.5"/>
<text text-anchor="start" x="1031" y="-107.5" font-family="Helvetica,sans-Serif" font-size="10.00">/__w/pairinteraction</text>
<text text-anchor="start" x="1031" y="-96.5" font-family="Helvetica,sans-Serif" font-size="10.00">/pairinteraction/pairinteraction</text>
<text text-anchor="middle" x="1105.5" y="-85.5" font-family="Helvetica,sans-Serif" font-size="10.00">/HamiltonianTwo.hpp</text>
</a>
</g>
</g>
<!-- Node2&#45;&gt;Node8 -->
<g id="edge14" class="edge">
<title>Node2&#45;&gt;Node8</title>
<path fill="none" stroke="midnightblue" d="M1037.22,-389.63C1199.73,-362.15 1608.22,-388.88 1703.5,-276 1737.9,-235.24 1739.41,-195.43 1703.5,-156 1669.47,-118.63 1344.01,-105.75 1188.05,-101.69"/>
<polygon fill="midnightblue" stroke="midnightblue" points="1036.56,-386.19 1027.35,-391.43 1037.81,-393.08 1036.56,-386.19"/>
</g>
<!-- Node12 -->
<g id="node12" class="node">
<title>Node12</title>
<g id="a_node12"><a xlink:href="MatrixElementCache_8hpp.html" target="_top" xlink:title=" ">
<polygon fill="none" stroke="black" points="954,-312.5 954,-353.5 1119,-353.5 1119,-312.5 954,-312.5"/>
<text text-anchor="start" x="962" y="-341.5" font-family="Helvetica,sans-Serif" font-size="10.00">/__w/pairinteraction</text>
<text text-anchor="start" x="962" y="-330.5" font-family="Helvetica,sans-Serif" font-size="10.00">/pairinteraction/pairinteraction</text>
<text text-anchor="middle" x="1036.5" y="-319.5" font-family="Helvetica,sans-Serif" font-size="10.00">/MatrixElementCache.hpp</text>
</a>
</g>
</g>
<!-- Node2&#45;&gt;Node12 -->
<g id="edge15" class="edge">
<title>Node2&#45;&gt;Node12</title>
<path fill="none" stroke="midnightblue" d="M976.24,-383.78C988.27,-373.84 1001.74,-362.72 1012.89,-353.51"/>
<polygon fill="midnightblue" stroke="midnightblue" points="973.67,-381.36 968.19,-390.43 978.13,-386.76 973.67,-381.36"/>
</g>
<!-- Node2&#45;&gt;Node21 -->
<g id="edge24" class="edge">
<title>Node2&#45;&gt;Node21</title>
<path fill="none" stroke="midnightblue" d="M1037.07,-390.59C1038.56,-390.39 1040.03,-390.19 1041.5,-390 1348.73,-350.61 1430.27,-393.39 1737.5,-354 1742.19,-353.4 1746.99,-352.7 1751.83,-351.92"/>
<polygon fill="midnightblue" stroke="midnightblue" points="1036.54,-387.13 1027.17,-392.08 1037.58,-394.06 1036.54,-387.13"/>
</g>
<!-- Node5 -->
<g id="node5" class="node">
<title>Node5</title>
<g id="a_node5"><a xlink:href="Hamiltonian_8hpp.html" target="_top" xlink:title=" ">
<polygon fill="none" stroke="black" points="183,-234.5 183,-275.5 348,-275.5 348,-234.5 183,-234.5"/>
<text text-anchor="start" x="191" y="-263.5" font-family="Helvetica,sans-Serif" font-size="10.00">/__w/pairinteraction</text>
<text text-anchor="start" x="191" y="-252.5" font-family="Helvetica,sans-Serif" font-size="10.00">/pairinteraction/pairinteraction</text>
<text text-anchor="middle" x="265.5" y="-241.5" font-family="Helvetica,sans-Serif" font-size="10.00">/Hamiltonian.hpp</text>
</a>
</g>
</g>
<!-- Node4&#45;&gt;Node5 -->
<g id="edge4" class="edge">
<title>Node4&#45;&gt;Node5</title>
<path fill="none" stroke="midnightblue" d="M265.5,-302.3C265.5,-293.3 265.5,-283.65 265.5,-275.51"/>
<polygon fill="midnightblue" stroke="midnightblue" points="262,-302.43 265.5,-312.43 269,-302.43 262,-302.43"/>
</g>
<!-- Node11 -->
<g id="node11" class="node">
<title>Node11</title>
<g id="a_node11"><a xlink:href="Hamiltonianmatrix_8cpp.html" target="_top" xlink:title=" ">
<polygon fill="none" stroke="black" points="0,-234.5 0,-275.5 165,-275.5 165,-234.5 0,-234.5"/>
<text text-anchor="start" x="8" y="-263.5" font-family="Helvetica,sans-Serif" font-size="10.00">/__w/pairinteraction</text>
<text text-anchor="start" x="8" y="-252.5" font-family="Helvetica,sans-Serif" font-size="10.00">/pairinteraction/pairinteraction</text>
<text text-anchor="middle" x="82.5" y="-241.5" font-family="Helvetica,sans-Serif" font-size="10.00">/Hamiltonianmatrix.cpp</text>
</a>
</g>
</g>
<!-- Node4&#45;&gt;Node11 -->
<g id="edge12" class="edge">
<title>Node4&#45;&gt;Node11</title>
<path fill="none" stroke="midnightblue" d="M208.84,-308.47C183.37,-297.89 153.67,-285.56 129.47,-275.51"/>
<polygon fill="midnightblue" stroke="midnightblue" points="207.8,-311.82 218.37,-312.43 210.48,-305.36 207.8,-311.82"/>
</g>
<!-- Node5&#45;&gt;Node6 -->
<g id="edge5" class="edge">
<title>Node5&#45;&gt;Node6</title>
<path fill="none" stroke="midnightblue" d="M358.08,-234.65C359.56,-234.43 361.04,-234.21 362.5,-234 558.04,-206 609.96,-226 805.5,-198 810.18,-197.33 814.98,-196.57 819.8,-195.76"/>
<polygon fill="midnightblue" stroke="midnightblue" points="357.51,-231.2 348.2,-236.24 358.62,-238.11 357.51,-231.2"/>
</g>
<!-- Node5&#45;&gt;Node8 -->
<g id="edge11" class="edge">
<title>Node5&#45;&gt;Node8</title>
<path fill="none" stroke="midnightblue" d="M358.03,-234.87C359.53,-234.57 361.02,-234.29 362.5,-234 601.87,-187.75 885.63,-137.97 1022.91,-114.2"/>
<polygon fill="midnightblue" stroke="midnightblue" points="357.16,-231.47 348.02,-236.84 358.51,-238.34 357.16,-231.47"/>
</g>
<!-- Node7 -->
<g id="node7" class="node">
<title>Node7</title>
<g id="a_node7"><a xlink:href="HamiltonianOne_8cpp.html" target="_top" xlink:title=" ">
<polygon fill="none" stroke="black" points="765,-78.5 765,-119.5 930,-119.5 930,-78.5 765,-78.5"/>
<text text-anchor="start" x="773" y="-107.5" font-family="Helvetica,sans-Serif" font-size="10.00">/__w/pairinteraction</text>
<text text-anchor="start" x="773" y="-96.5" font-family="Helvetica,sans-Serif" font-size="10.00">/pairinteraction/pairinteraction</text>
<text text-anchor="middle" x="847.5" y="-85.5" font-family="Helvetica,sans-Serif" font-size="10.00">/HamiltonianOne.cpp</text>
</a>
</g>
</g>
<!-- Node6&#45;&gt;Node7 -->
<g id="edge6" class="edge">
<title>Node6&#45;&gt;Node7</title>
<path fill="none" stroke="midnightblue" d="M882.27,-148.05C875.41,-138.57 867.9,-128.18 861.62,-119.51"/>
<polygon fill="midnightblue" stroke="midnightblue" points="879.64,-150.38 888.34,-156.43 885.31,-146.27 879.64,-150.38"/>
</g>
<!-- Node6&#45;&gt;Node8 -->
<g id="edge7" class="edge">
<title>Node6&#45;&gt;Node8</title>
<path fill="none" stroke="midnightblue" d="M964.24,-152.89C992.73,-142.22 1026.2,-129.69 1053.4,-119.51"/>
<polygon fill="midnightblue" stroke="midnightblue" points="962.92,-149.64 954.78,-156.43 965.37,-156.2 962.92,-149.64"/>
</g>
<!-- Node10 -->
<g id="node10" class="node">
<title>Node10</title>
<g id="a_node10"><a xlink:href="Interface_8cpp.html" target="_top" xlink:title=" ">
<polygon fill="none" stroke="black" points="876,-0.5 876,-41.5 1041,-41.5 1041,-0.5 876,-0.5"/>
<text text-anchor="start" x="884" y="-29.5" font-family="Helvetica,sans-Serif" font-size="10.00">/__w/pairinteraction</text>
<text text-anchor="start" x="884" y="-18.5" font-family="Helvetica,sans-Serif" font-size="10.00">/pairinteraction/pairinteraction</text>
<text text-anchor="middle" x="958.5" y="-7.5" font-family="Helvetica,sans-Serif" font-size="10.00">/Interface.cpp</text>
</a>
</g>
</g>
<!-- Node6&#45;&gt;Node10 -->
<g id="edge10" class="edge">
<title>Node6&#45;&gt;Node10</title>
<path fill="none" stroke="midnightblue" d="M923.51,-147.78C929.08,-139.21 934.62,-129.54 938.5,-120 949.03,-94.1 954.23,-62.02 956.63,-41.77"/>
<polygon fill="midnightblue" stroke="midnightblue" points="920.48,-146.02 917.76,-156.26 926.27,-149.95 920.48,-146.02"/>
</g>
<!-- Node9 -->
<g id="node9" class="node">
<title>Node9</title>
<g id="a_node9"><a xlink:href="HamiltonianTwo_8cpp.html" target="_top" xlink:title=" ">
<polygon fill="none" stroke="black" points="1059,-0.5 1059,-41.5 1224,-41.5 1224,-0.5 1059,-0.5"/>
<text text-anchor="start" x="1067" y="-29.5" font-family="Helvetica,sans-Serif" font-size="10.00">/__w/pairinteraction</text>
<text text-anchor="start" x="1067" y="-18.5" font-family="Helvetica,sans-Serif" font-size="10.00">/pairinteraction/pairinteraction</text>
<text text-anchor="middle" x="1141.5" y="-7.5" font-family="Helvetica,sans-Serif" font-size="10.00">/HamiltonianTwo.cpp</text>
</a>
</g>
</g>
<!-- Node8&#45;&gt;Node9 -->
<g id="edge8" class="edge">
<title>Node8&#45;&gt;Node9</title>
<path fill="none" stroke="midnightblue" d="M1119.15,-69.17C1123.53,-59.93 1128.28,-49.92 1132.26,-41.51"/>
<polygon fill="midnightblue" stroke="midnightblue" points="1115.89,-67.89 1114.77,-78.43 1122.21,-70.89 1115.89,-67.89"/>
</g>
<!-- Node8&#45;&gt;Node10 -->
<g id="edge9" class="edge">
<title>Node8&#45;&gt;Node10</title>
<path fill="none" stroke="midnightblue" d="M1058.63,-73.77C1038.48,-63.35 1015.24,-51.34 996.23,-41.51"/>
<polygon fill="midnightblue" stroke="midnightblue" points="1057.15,-76.94 1067.64,-78.43 1060.37,-70.73 1057.15,-76.94"/>
</g>
<!-- Node13 -->
<g id="node13" class="node">
<title>Node13</title>
<g id="a_node13"><a xlink:href="integration__bench_8cpp.html" target="_top" xlink:title=" ">
<polygon fill="none" stroke="black" points="1137,-234.5 1137,-275.5 1328,-275.5 1328,-234.5 1137,-234.5"/>
<text text-anchor="start" x="1145" y="-263.5" font-family="Helvetica,sans-Serif" font-size="10.00">/__w/pairinteraction</text>
<text text-anchor="start" x="1145" y="-252.5" font-family="Helvetica,sans-Serif" font-size="10.00">/pairinteraction/pairinteraction</text>
<text text-anchor="middle" x="1232.5" y="-241.5" font-family="Helvetica,sans-Serif" font-size="10.00">/benchmarks/integration_bench.cpp</text>
</a>
</g>
</g>
<!-- Node12&#45;&gt;Node13 -->
<g id="edge16" class="edge">
<title>Node12&#45;&gt;Node13</title>
<path fill="none" stroke="midnightblue" d="M1096.47,-308.75C1123.9,-298.11 1156.05,-285.65 1182.2,-275.51"/>
<polygon fill="midnightblue" stroke="midnightblue" points="1095.03,-305.55 1086.97,-312.43 1097.56,-312.08 1095.03,-305.55"/>
</g>
<!-- Node14 -->
<g id="node14" class="node">
<title>Node14</title>
<g id="a_node14"><a xlink:href="MatrixElementCache_8cpp.html" target="_top" xlink:title=" ">
<polygon fill="none" stroke="black" points="1346,-234.5 1346,-275.5 1511,-275.5 1511,-234.5 1346,-234.5"/>
<text text-anchor="start" x="1354" y="-263.5" font-family="Helvetica,sans-Serif" font-size="10.00">/__w/pairinteraction</text>
<text text-anchor="start" x="1354" y="-252.5" font-family="Helvetica,sans-Serif" font-size="10.00">/pairinteraction/pairinteraction</text>
<text text-anchor="middle" x="1428.5" y="-241.5" font-family="Helvetica,sans-Serif" font-size="10.00">/MatrixElementCache.cpp</text>
</a>
</g>
</g>
<!-- Node12&#45;&gt;Node14 -->
<g id="edge17" class="edge">
<title>Node12&#45;&gt;Node14</title>
<path fill="none" stroke="midnightblue" d="M1129.18,-315.43C1188.53,-304.64 1267.15,-290.01 1336.5,-276 1339.54,-275.39 1342.64,-274.75 1345.77,-274.1"/>
<polygon fill="midnightblue" stroke="midnightblue" points="1128.29,-312.03 1119.08,-317.26 1129.54,-318.92 1128.29,-312.03"/>
</g>
<!-- Node15 -->
<g id="node15" class="node">
<title>Node15</title>
<g id="a_node15"><a xlink:href="PerturbativeInteraction_8hpp.html" target="_top" xlink:title=" ">
<polygon fill="none" stroke="black" points="1529,-234.5 1529,-275.5 1694,-275.5 1694,-234.5 1529,-234.5"/>
<text text-anchor="start" x="1537" y="-263.5" font-family="Helvetica,sans-Serif" font-size="10.00">/__w/pairinteraction</text>
<text text-anchor="start" x="1537" y="-252.5" font-family="Helvetica,sans-Serif" font-size="10.00">/pairinteraction/pairinteraction</text>
<text text-anchor="middle" x="1611.5" y="-241.5" font-family="Helvetica,sans-Serif" font-size="10.00">/PerturbativeInteraction.hpp</text>
</a>
</g>
</g>
<!-- Node12&#45;&gt;Node15 -->
<g id="edge18" class="edge">
<title>Node12&#45;&gt;Node15</title>
<path fill="none" stroke="midnightblue" d="M1129.45,-323.97C1226.98,-314.9 1384.58,-298.43 1519.5,-276 1522.56,-275.49 1525.68,-274.95 1528.82,-274.38"/>
<polygon fill="midnightblue" stroke="midnightblue" points="1128.96,-320.5 1119.32,-324.9 1129.6,-327.47 1128.96,-320.5"/>
</g>
<!-- Node17 -->
<g id="node17" class="node">
<title>Node17</title>
<g id="a_node17"><a xlink:href="State_8cpp.html" target="_top" xlink:title=" ">
<polygon fill="none" stroke="black" points="405,-234.5 405,-275.5 570,-275.5 570,-234.5 405,-234.5"/>
<text text-anchor="start" x="413" y="-263.5" font-family="Helvetica,sans-Serif" font-size="10.00">/__w/pairinteraction</text>
<text text-anchor="start" x="413" y="-252.5" font-family="Helvetica,sans-Serif" font-size="10.00">/pairinteraction/pairinteraction</text>
<text text-anchor="middle" x="487.5" y="-241.5" font-family="Helvetica,sans-Serif" font-size="10.00">/State.cpp</text>
</a>
</g>
</g>
<!-- Node12&#45;&gt;Node17 -->
<g id="edge20" class="edge">
<title>Node12&#45;&gt;Node17</title>
<path fill="none" stroke="midnightblue" d="M943.48,-311.95C781.22,-287.19 736.63,-301.06 578.5,-276 575.78,-275.57 573.03,-275.11 570.25,-274.62"/>
<polygon fill="midnightblue" stroke="midnightblue" points="943.41,-315.48 953.83,-313.56 944.49,-308.56 943.41,-315.48"/>
</g>
<!-- Node18 -->
<g id="node18" class="node">
<title>Node18</title>
<g id="a_node18"><a xlink:href="SystemOne_8cpp.html" target="_top" xlink:title=" ">
<polygon fill="none" stroke="black" points="588,-234.5 588,-275.5 753,-275.5 753,-234.5 588,-234.5"/>
<text text-anchor="start" x="596" y="-263.5" font-family="Helvetica,sans-Serif" font-size="10.00">/__w/pairinteraction</text>
<text text-anchor="start" x="596" y="-252.5" font-family="Helvetica,sans-Serif" font-size="10.00">/pairinteraction/pairinteraction</text>
<text text-anchor="middle" x="670.5" y="-241.5" font-family="Helvetica,sans-Serif" font-size="10.00">/SystemOne.cpp</text>
</a>
</g>
</g>
<!-- Node12&#45;&gt;Node18 -->
<g id="edge21" class="edge">
<title>Node12&#45;&gt;Node18</title>
<path fill="none" stroke="midnightblue" d="M943.73,-311.86C861.67,-295 839.56,-292.25 761.5,-276 758.81,-275.44 756.07,-274.87 753.31,-274.28"/>
<polygon fill="midnightblue" stroke="midnightblue" points="943.26,-315.34 953.76,-313.93 944.68,-308.48 943.26,-315.34"/>
</g>
<!-- Node19 -->
<g id="node19" class="node">
<title>Node19</title>
<g id="a_node19"><a xlink:href="SystemTwo_8cpp.html" target="_top" xlink:title=" ">
<polygon fill="none" stroke="black" points="771,-234.5 771,-275.5 936,-275.5 936,-234.5 771,-234.5"/>
<text text-anchor="start" x="779" y="-263.5" font-family="Helvetica,sans-Serif" font-size="10.00">/__w/pairinteraction</text>
<text text-anchor="start" x="779" y="-252.5" font-family="Helvetica,sans-Serif" font-size="10.00">/pairinteraction/pairinteraction</text>
<text text-anchor="middle" x="853.5" y="-241.5" font-family="Helvetica,sans-Serif" font-size="10.00">/SystemTwo.cpp</text>
</a>
</g>
</g>
<!-- Node12&#45;&gt;Node19 -->
<g id="edge22" class="edge">
<title>Node12&#45;&gt;Node19</title>
<path fill="none" stroke="midnightblue" d="M979.84,-308.47C954.37,-297.89 924.67,-285.56 900.47,-275.51"/>
<polygon fill="midnightblue" stroke="midnightblue" points="978.8,-311.82 989.37,-312.43 981.48,-305.36 978.8,-311.82"/>
</g>
<!-- Node20 -->
<g id="node20" class="node">
<title>Node20</title>
<g id="a_node20"><a xlink:href="integration__test_8cpp.html" target="_top" xlink:title=" ">
<polygon fill="none" stroke="black" points="954,-234.5 954,-275.5 1119,-275.5 1119,-234.5 954,-234.5"/>
<text text-anchor="start" x="962" y="-263.5" font-family="Helvetica,sans-Serif" font-size="10.00">/__w/pairinteraction</text>
<text text-anchor="start" x="962" y="-252.5" font-family="Helvetica,sans-Serif" font-size="10.00">/pairinteraction/pairinteraction</text>
<text text-anchor="middle" x="1036.5" y="-241.5" font-family="Helvetica,sans-Serif" font-size="10.00">/unit_test/integration_test.cpp</text>
</a>
</g>
</g>
<!-- Node12&#45;&gt;Node20 -->
<g id="edge23" class="edge">
<title>Node12&#45;&gt;Node20</title>
<path fill="none" stroke="midnightblue" d="M1036.5,-302.3C1036.5,-293.3 1036.5,-283.65 1036.5,-275.51"/>
<polygon fill="midnightblue" stroke="midnightblue" points="1033,-302.43 1036.5,-312.43 1040,-302.43 1033,-302.43"/>
</g>
<!-- Node16 -->
<g id="node16" class="node">
<title>Node16</title>
<g id="a_node16"><a xlink:href="PerturbativeInteraction_8cpp.html" target="_top" xlink:title=" ">
<polygon fill="none" stroke="black" points="1529,-156.5 1529,-197.5 1694,-197.5 1694,-156.5 1529,-156.5"/>
<text text-anchor="start" x="1537" y="-185.5" font-family="Helvetica,sans-Serif" font-size="10.00">/__w/pairinteraction</text>
<text text-anchor="start" x="1537" y="-174.5" font-family="Helvetica,sans-Serif" font-size="10.00">/pairinteraction/pairinteraction</text>
<text text-anchor="middle" x="1611.5" y="-163.5" font-family="Helvetica,sans-Serif" font-size="10.00">/PerturbativeInteraction.cpp</text>
</a>
</g>
</g>
<!-- Node15&#45;&gt;Node16 -->
<g id="edge19" class="edge">
<title>Node15&#45;&gt;Node16</title>
<path fill="none" stroke="midnightblue" d="M1611.5,-224.3C1611.5,-215.3 1611.5,-205.65 1611.5,-197.51"/>
<polygon fill="midnightblue" stroke="midnightblue" points="1608,-224.43 1611.5,-234.43 1615,-224.43 1608,-224.43"/>
</g>
<!-- Node21&#45;&gt;Node6 -->
<g id="edge25" class="edge">
<title>Node21&#45;&gt;Node6</title>
<path fill="none" stroke="midnightblue" d="M1808.35,-305.12C1783.73,-281.74 1744.58,-249.28 1703.5,-234 1573.66,-185.71 1162.63,-178.65 985.28,-177.9"/>
<polygon fill="midnightblue" stroke="midnightblue" points="1806.2,-307.91 1815.82,-312.36 1811.08,-302.89 1806.2,-307.91"/>
</g>
<!-- Node21&#45;&gt;Node8 -->
<g id="edge26" class="edge">
<title>Node21&#45;&gt;Node8</title>
<path fill="none" stroke="midnightblue" d="M1825.46,-302.79C1810.22,-253.98 1780.5,-160.68 1774.5,-156 1729.23,-120.65 1357.01,-106.54 1188.19,-101.91"/>
<polygon fill="midnightblue" stroke="midnightblue" points="1822.16,-303.97 1828.47,-312.48 1828.84,-301.89 1822.16,-303.97"/>
</g>
<!-- Node22 -->
<g id="node22" class="node">
<title>Node22</title>
<g id="a_node22"><a xlink:href="MatrixElements_8cpp.html" target="_top" xlink:title=" ">
<polygon fill="none" stroke="black" points="1827,-234.5 1827,-275.5 1992,-275.5 1992,-234.5 1827,-234.5"/>
<text text-anchor="start" x="1835" y="-263.5" font-family="Helvetica,sans-Serif" font-size="10.00">/__w/pairinteraction</text>
<text text-anchor="start" x="1835" y="-252.5" font-family="Helvetica,sans-Serif" font-size="10.00">/pairinteraction/pairinteraction</text>
<text text-anchor="middle" x="1909.5" y="-241.5" font-family="Helvetica,sans-Serif" font-size="10.00">/MatrixElements.cpp</text>
</a>
</g>
</g>
<!-- Node21&#45;&gt;Node22 -->
<g id="edge27" class="edge">
<title>Node21&#45;&gt;Node22</title>
<path fill="none" stroke="midnightblue" d="M1860.94,-305.2C1870.6,-295.42 1881.34,-284.54 1890.25,-275.51"/>
<polygon fill="midnightblue" stroke="midnightblue" points="1858.35,-302.85 1853.81,-312.43 1863.33,-307.77 1858.35,-302.85"/>
</g>
</g>
</svg>
