<?xml version="1.0" encoding="UTF-8" standalone="no"?>
<!DOCTYPE svg PUBLIC "-//W3C//DTD SVG 1.1//EN"
 "http://www.w3.org/Graphics/SVG/1.1/DTD/svg11.dtd">
<!-- Generated by graphviz version 2.43.0 (0)
 -->
<!-- Title: /__w/pairinteraction/pairinteraction/pairinteraction/StateOld.cpp Pages: 1 -->
<svg width="1048pt" height="274pt"
 viewBox="0.00 0.00 1048.25 274.00" xmlns="http://www.w3.org/2000/svg" xmlns:xlink="http://www.w3.org/1999/xlink">
<g id="graph0" class="graph" transform="scale(1 1) rotate(0) translate(4 270)">
<title>/__w/pairinteraction/pairinteraction/pairinteraction/StateOld.cpp</title>
<!-- Node1 -->
<g id="node1" class="node">
<title>Node1</title>
<g id="a_node1"><a xlink:title=" ">
<polygon fill="#bfbfbf" stroke="black" points="456.25,-224.5 456.25,-265.5 621.25,-265.5 621.25,-224.5 456.25,-224.5"/>
<text text-anchor="start" x="464.25" y="-253.5" font-family="Helvetica,sans-Serif" font-size="10.00">/__w/pairinteraction</text>
<text text-anchor="start" x="464.25" y="-242.5" font-family="Helvetica,sans-Serif" font-size="10.00">/pairinteraction/pairinteraction</text>
<text text-anchor="middle" x="538.75" y="-231.5" font-family="Helvetica,sans-Serif" font-size="10.00">/StateOld.cpp</text>
</a>
</g>
</g>
<!-- Node2 -->
<g id="node2" class="node">
<title>Node2</title>
<g id="a_node2"><a xlink:href="StateOld_8hpp.html" target="_top" xlink:title=" ">
<polygon fill="none" stroke="black" points="303.75,-112.5 303.75,-131.5 383.75,-131.5 383.75,-112.5 303.75,-112.5"/>
<text text-anchor="middle" x="343.75" y="-119.5" font-family="Helvetica,sans-Serif" font-size="10.00">StateOld.hpp</text>
</a>
</g>
</g>
<!-- Node1&#45;&gt;Node2 -->
<g id="edge1" class="edge">
<title>Node1&#45;&gt;Node2</title>
<path fill="none" stroke="midnightblue" d="M486.63,-224.46C464.01,-214.94 437.72,-202.42 415.75,-188 394.33,-173.94 372.94,-153.64 359.11,-139.47"/>
<polygon fill="midnightblue" stroke="midnightblue" points="361.34,-136.74 351.9,-131.94 356.29,-141.58 361.34,-136.74"/>
</g>
<!-- Node5 -->
<g id="node5" class="node">
<title>Node5</title>
<g id="a_node5"><a xlink:title=" ">
<polygon fill="none" stroke="#bfbfbf" points="68.75,-0.5 68.75,-19.5 110.75,-19.5 110.75,-0.5 68.75,-0.5"/>
<text text-anchor="middle" x="89.75" y="-7.5" font-family="Helvetica,sans-Serif" font-size="10.00">array</text>
</a>
</g>
</g>
<!-- Node1&#45;&gt;Node5 -->
<g id="edge31" class="edge">
<title>Node1&#45;&gt;Node5</title>
<path fill="none" stroke="midnightblue" d="M456.09,-230.13C320.06,-205.44 58.65,-149.46 4.75,-76 -13.49,-51.13 27.68,-31.18 58.88,-20.23"/>
<polygon fill="midnightblue" stroke="midnightblue" points="60.19,-23.48 68.56,-16.99 57.97,-16.84 60.19,-23.48"/>
</g>
<!-- Node12 -->
<g id="node12" class="node">
<title>Node12</title>
<g id="a_node12"><a xlink:title=" ">
<polygon fill="none" stroke="#bfbfbf" points="407.75,-56.5 407.75,-75.5 467.75,-75.5 467.75,-56.5 407.75,-56.5"/>
<text text-anchor="middle" x="437.75" y="-63.5" font-family="Helvetica,sans-Serif" font-size="10.00">iostream</text>
</a>
</g>
</g>
<!-- Node1&#45;&gt;Node12 -->
<g id="edge34" class="edge">
<title>Node1&#45;&gt;Node12</title>
<path fill="none" stroke="midnightblue" d="M513.57,-224.32C502.28,-214.43 489.54,-201.65 480.75,-188 459.5,-155.01 447.14,-110.17 441.5,-85.38"/>
<polygon fill="midnightblue" stroke="midnightblue" points="444.9,-84.55 439.37,-75.52 438.06,-86.03 444.9,-84.55"/>
</g>
<!-- Node13 -->
<g id="node13" class="node">
<title>Node13</title>
<g id="a_node13"><a xlink:title=" ">
<polygon fill="none" stroke="#bfbfbf" points="563.75,-56.5 563.75,-75.5 607.75,-75.5 607.75,-56.5 563.75,-56.5"/>
<text text-anchor="middle" x="585.75" y="-63.5" font-family="Helvetica,sans-Serif" font-size="10.00">string</text>
</a>
</g>
</g>
<!-- Node1&#45;&gt;Node13 -->
<g id="edge35" class="edge">
<title>Node1&#45;&gt;Node13</title>
<path fill="none" stroke="midnightblue" d="M511.54,-224.4C494.87,-209.8 478.23,-188.87 486.75,-168 502.23,-130.11 539.53,-98.74 563.67,-81.46"/>
<polygon fill="midnightblue" stroke="midnightblue" points="565.98,-84.12 572.2,-75.55 561.99,-78.37 565.98,-84.12"/>
</g>
<!-- Node16 -->
<g id="node16" class="node">
<title>Node16</title>
<g id="a_node16"><a xlink:href="Constants_8hpp.html" target="_top" xlink:title=" ">
<polygon fill="none" stroke="black" points="495.75,-168.5 495.75,-187.5 581.75,-187.5 581.75,-168.5 495.75,-168.5"/>
<text text-anchor="middle" x="538.75" y="-175.5" font-family="Helvetica,sans-Serif" font-size="10.00">Constants.hpp</text>
</a>
</g>
</g>
<!-- Node1&#45;&gt;Node16 -->
<g id="edge16" class="edge">
<title>Node1&#45;&gt;Node16</title>
<path fill="none" stroke="midnightblue" d="M538.75,-224.5C538.75,-216.07 538.75,-206.24 538.75,-197.87"/>
<polygon fill="midnightblue" stroke="midnightblue" points="542.25,-197.65 538.75,-187.65 535.25,-197.65 542.25,-197.65"/>
</g>
<!-- Node17 -->
<g id="node17" class="node">
<title>Node17</title>
<g id="a_node17"><a xlink:href="QuantumDefect_8hpp.html" target="_top" xlink:title=" ">
<polygon fill="none" stroke="black" points="600.25,-168.5 600.25,-187.5 715.25,-187.5 715.25,-168.5 600.25,-168.5"/>
<text text-anchor="middle" x="657.75" y="-175.5" font-family="Helvetica,sans-Serif" font-size="10.00">QuantumDefect.hpp</text>
</a>
</g>
</g>
<!-- Node1&#45;&gt;Node17 -->
<g id="edge17" class="edge">
<title>Node1&#45;&gt;Node17</title>
<path fill="none" stroke="midnightblue" d="M574.46,-224.5C593.23,-214.24 615.78,-201.93 632.68,-192.69"/>
<polygon fill="midnightblue" stroke="midnightblue" points="634.81,-195.52 641.91,-187.65 631.46,-189.37 634.81,-195.52"/>
</g>
<!-- Node23 -->
<g id="node23" class="node">
<title>Node23</title>
<g id="a_node23"><a xlink:title=" ">
<polygon fill="none" stroke="#bfbfbf" points="995.25,-56.5 995.25,-75.5 1040.25,-75.5 1040.25,-56.5 995.25,-56.5"/>
<text text-anchor="middle" x="1017.75" y="-63.5" font-family="Helvetica,sans-Serif" font-size="10.00">utility</text>
</a>
</g>
</g>
<!-- Node1&#45;&gt;Node23 -->
<g id="edge36" class="edge">
<title>Node1&#45;&gt;Node23</title>
<path fill="none" stroke="midnightblue" d="M613.56,-224.48C647.63,-214.8 688.21,-202.15 723.75,-188 742.22,-180.65 745.61,-176.12 763.75,-168 842.19,-132.87 936.78,-96.89 985.4,-78.85"/>
<polygon fill="midnightblue" stroke="midnightblue" points="986.89,-82.03 995.06,-75.28 984.47,-75.47 986.89,-82.03"/>
</g>
<!-- Node24 -->
<g id="node24" class="node">
<title>Node24</title>
<g id="a_node24"><a xlink:title=" ">
<polygon fill="none" stroke="#bfbfbf" points="772.25,-168.5 772.25,-187.5 821.25,-187.5 821.25,-168.5 772.25,-168.5"/>
<text text-anchor="middle" x="796.75" y="-175.5" font-family="Helvetica,sans-Serif" font-size="10.00">cctype</text>
</a>
</g>
</g>
<!-- Node1&#45;&gt;Node24 -->
<g id="edge32" class="edge">
<title>Node1&#45;&gt;Node24</title>
<path fill="none" stroke="midnightblue" d="M616.16,-224.5C664.73,-212.26 724.99,-197.08 762.15,-187.72"/>
<polygon fill="midnightblue" stroke="midnightblue" points="763.15,-191.08 771.99,-185.24 761.44,-184.29 763.15,-191.08"/>
</g>
<!-- Node25 -->
<g id="node25" class="node">
<title>Node25</title>
<g id="a_node25"><a xlink:title=" ">
<polygon fill="none" stroke="#bfbfbf" points="839.75,-168.5 839.75,-187.5 895.75,-187.5 895.75,-168.5 839.75,-168.5"/>
<text text-anchor="middle" x="867.75" y="-175.5" font-family="Helvetica,sans-Serif" font-size="10.00">iomanip</text>
</a>
</g>
</g>
<!-- Node1&#45;&gt;Node25 -->
<g id="edge33" class="edge">
<title>Node1&#45;&gt;Node25</title>
<path fill="none" stroke="midnightblue" d="M621.41,-229.27C677.49,-219.01 753.52,-204.6 829.3,-188.24"/>
<polygon fill="midnightblue" stroke="midnightblue" points="830.47,-191.56 839.5,-186.02 828.99,-184.72 830.47,-191.56"/>
</g>
<!-- Node3 -->
<g id="node3" class="node">
<title>Node3</title>
<g id="a_node3"><a xlink:href="utils_8hpp.html" target="_top" xlink:title=" ">
<polygon fill="none" stroke="black" points="486.25,-56.5 486.25,-75.5 545.25,-75.5 545.25,-56.5 486.25,-56.5"/>
<text text-anchor="middle" x="515.75" y="-63.5" font-family="Helvetica,sans-Serif" font-size="10.00">utils.hpp</text>
</a>
</g>
</g>
<!-- Node2&#45;&gt;Node3 -->
<g id="edge2" class="edge">
<title>Node2&#45;&gt;Node3</title>
<path fill="none" stroke="midnightblue" d="M371.01,-112.44C400.19,-103.28 446.67,-88.69 479.06,-78.52"/>
<polygon fill="midnightblue" stroke="midnightblue" points="480.13,-81.85 488.63,-75.52 478.04,-75.17 480.13,-81.85"/>
</g>
<!-- Node2&#45;&gt;Node5 -->
<g id="edge10" class="edge">
<title>Node2&#45;&gt;Node5</title>
<path fill="none" stroke="midnightblue" d="M303.7,-118.31C244.29,-113.51 136.8,-101.5 108.75,-76 95.86,-64.28 91.53,-44.34 90.16,-29.63"/>
<polygon fill="midnightblue" stroke="midnightblue" points="93.66,-29.41 89.61,-19.62 86.67,-29.8 93.66,-29.41"/>
</g>
<!-- Node11 -->
<g id="node11" class="node">
<title>Node11</title>
<g id="a_node11"><a xlink:title=" ">
<polygon fill="none" stroke="#bfbfbf" points="14.25,-56.5 14.25,-75.5 61.25,-75.5 61.25,-56.5 14.25,-56.5"/>
<text text-anchor="middle" x="37.75" y="-63.5" font-family="Helvetica,sans-Serif" font-size="10.00">cmath</text>
</a>
</g>
</g>
<!-- Node2&#45;&gt;Node11 -->
<g id="edge11" class="edge">
<title>Node2&#45;&gt;Node11</title>
<path fill="none" stroke="midnightblue" d="M303.64,-115.11C251.11,-107.21 156.22,-92.27 75.75,-76 74.3,-75.71 72.82,-75.4 71.32,-75.08"/>
<polygon fill="midnightblue" stroke="midnightblue" points="71.94,-71.63 61.42,-72.86 70.41,-78.46 71.94,-71.63"/>
</g>
<!-- Node2&#45;&gt;Node12 -->
<g id="edge12" class="edge">
<title>Node2&#45;&gt;Node12</title>
<path fill="none" stroke="midnightblue" d="M358.85,-112.32C373.66,-103.82 396.45,-90.73 413.73,-80.8"/>
<polygon fill="midnightblue" stroke="midnightblue" points="415.76,-83.67 422.69,-75.65 412.27,-77.6 415.76,-83.67"/>
</g>
<!-- Node2&#45;&gt;Node13 -->
<g id="edge13" class="edge">
<title>Node2&#45;&gt;Node13</title>
<path fill="none" stroke="midnightblue" d="M383.79,-113.2C424.11,-105.18 488.28,-91.93 553.39,-75.96"/>
<polygon fill="midnightblue" stroke="midnightblue" points="554.55,-79.27 563.42,-73.47 552.87,-72.48 554.55,-79.27"/>
</g>
<!-- Node14 -->
<g id="node14" class="node">
<title>Node14</title>
<g id="a_node14"><a xlink:title=" ">
<polygon fill="none" stroke="#bfbfbf" points="118.25,-56.5 118.25,-75.5 243.25,-75.5 243.25,-56.5 118.25,-56.5"/>
<text text-anchor="middle" x="180.75" y="-63.5" font-family="Helvetica,sans-Serif" font-size="10.00">cereal/types/array.hpp</text>
</a>
</g>
</g>
<!-- Node2&#45;&gt;Node14 -->
<g id="edge14" class="edge">
<title>Node2&#45;&gt;Node14</title>
<path fill="none" stroke="midnightblue" d="M317.92,-112.44C290.5,-103.36 246.97,-88.94 216.32,-78.78"/>
<polygon fill="midnightblue" stroke="midnightblue" points="217.05,-75.34 206.46,-75.52 214.85,-81.98 217.05,-75.34"/>
</g>
<!-- Node15 -->
<g id="node15" class="node">
<title>Node15</title>
<g id="a_node15"><a xlink:title=" ">
<polygon fill="none" stroke="#bfbfbf" points="261.75,-56.5 261.75,-75.5 389.75,-75.5 389.75,-56.5 261.75,-56.5"/>
<text text-anchor="middle" x="325.75" y="-63.5" font-family="Helvetica,sans-Serif" font-size="10.00">cereal/types/string.hpp</text>
</a>
</g>
</g>
<!-- Node2&#45;&gt;Node15 -->
<g id="edge15" class="edge">
<title>Node2&#45;&gt;Node15</title>
<path fill="none" stroke="midnightblue" d="M340.78,-112.08C338.37,-104.85 334.89,-94.41 331.88,-85.4"/>
<polygon fill="midnightblue" stroke="midnightblue" points="335.15,-84.13 328.67,-75.75 328.51,-86.34 335.15,-84.13"/>
</g>
<!-- Node4 -->
<g id="node4" class="node">
<title>Node4</title>
<g id="a_node4"><a xlink:title=" ">
<polygon fill="none" stroke="#bfbfbf" points="270.75,-0.5 270.75,-19.5 334.75,-19.5 334.75,-0.5 270.75,-0.5"/>
<text text-anchor="middle" x="302.75" y="-7.5" font-family="Helvetica,sans-Serif" font-size="10.00">algorithm</text>
</a>
</g>
</g>
<!-- Node3&#45;&gt;Node4 -->
<g id="edge3" class="edge">
<title>Node3&#45;&gt;Node4</title>
<path fill="none" stroke="midnightblue" d="M486.14,-57.49C449.39,-48.17 386.48,-32.23 344.76,-21.65"/>
<polygon fill="midnightblue" stroke="midnightblue" points="345.45,-18.22 334.9,-19.15 343.73,-25 345.45,-18.22"/>
</g>
<!-- Node3&#45;&gt;Node5 -->
<g id="edge4" class="edge">
<title>Node3&#45;&gt;Node5</title>
<path fill="none" stroke="midnightblue" d="M486.01,-57.78C482.89,-57.13 479.76,-56.52 476.75,-56 345.43,-33.28 187.01,-18.88 120.99,-13.45"/>
<polygon fill="midnightblue" stroke="midnightblue" points="121.1,-9.94 110.84,-12.62 120.53,-16.92 121.1,-9.94"/>
</g>
<!-- Node6 -->
<g id="node6" class="node">
<title>Node6</title>
<g id="a_node6"><a xlink:title=" ">
<polygon fill="none" stroke="#bfbfbf" points="353.25,-0.5 353.25,-19.5 412.25,-19.5 412.25,-0.5 353.25,-0.5"/>
<text text-anchor="middle" x="382.75" y="-7.5" font-family="Helvetica,sans-Serif" font-size="10.00">complex</text>
</a>
</g>
</g>
<!-- Node3&#45;&gt;Node6 -->
<g id="edge5" class="edge">
<title>Node3&#45;&gt;Node6</title>
<path fill="none" stroke="midnightblue" d="M494.68,-56.44C472.69,-47.52 438.02,-33.44 413.09,-23.32"/>
<polygon fill="midnightblue" stroke="midnightblue" points="414.31,-20.04 403.73,-19.52 411.68,-26.52 414.31,-20.04"/>
</g>
<!-- Node7 -->
<g id="node7" class="node">
<title>Node7</title>
<g id="a_node7"><a xlink:title=" ">
<polygon fill="none" stroke="#bfbfbf" points="430.25,-0.5 430.25,-19.5 495.25,-19.5 495.25,-0.5 430.25,-0.5"/>
<text text-anchor="middle" x="462.75" y="-7.5" font-family="Helvetica,sans-Serif" font-size="10.00">functional</text>
</a>
</g>
</g>
<!-- Node3&#45;&gt;Node7 -->
<g id="edge6" class="edge">
<title>Node3&#45;&gt;Node7</title>
<path fill="none" stroke="midnightblue" d="M507,-56.08C499.28,-48.22 487.85,-36.57 478.54,-27.08"/>
<polygon fill="midnightblue" stroke="midnightblue" points="480.84,-24.44 471.34,-19.75 475.85,-29.34 480.84,-24.44"/>
</g>
<!-- Node8 -->
<g id="node8" class="node">
<title>Node8</title>
<g id="a_node8"><a xlink:title=" ">
<polygon fill="none" stroke="#bfbfbf" points="587.75,-0.5 587.75,-19.5 641.75,-19.5 641.75,-0.5 587.75,-0.5"/>
<text text-anchor="middle" x="614.75" y="-7.5" font-family="Helvetica,sans-Serif" font-size="10.00">random</text>
</a>
</g>
</g>
<!-- Node3&#45;&gt;Node8 -->
<g id="edge7" class="edge">
<title>Node3&#45;&gt;Node8</title>
<path fill="none" stroke="midnightblue" d="M531.66,-56.32C547.39,-47.74 571.69,-34.49 589.96,-24.52"/>
<polygon fill="midnightblue" stroke="midnightblue" points="591.78,-27.52 598.89,-19.65 588.43,-21.37 591.78,-27.52"/>
</g>
<!-- Node9 -->
<g id="node9" class="node">
<title>Node9</title>
<g id="a_node9"><a xlink:title=" ">
<polygon fill="none" stroke="#bfbfbf" points="660.25,-0.5 660.25,-19.5 729.25,-19.5 729.25,-0.5 660.25,-0.5"/>
<text text-anchor="middle" x="694.75" y="-7.5" font-family="Helvetica,sans-Serif" font-size="10.00">type_traits</text>
</a>
</g>
</g>
<!-- Node3&#45;&gt;Node9 -->
<g id="edge8" class="edge">
<title>Node3&#45;&gt;Node9</title>
<path fill="none" stroke="midnightblue" d="M544.11,-56.44C574.49,-47.28 622.86,-32.69 656.57,-22.52"/>
<polygon fill="midnightblue" stroke="midnightblue" points="657.96,-25.76 666.52,-19.52 655.94,-19.05 657.96,-25.76"/>
</g>
<!-- Node10 -->
<g id="node10" class="node">
<title>Node10</title>
<g id="a_node10"><a xlink:title=" ">
<polygon fill="none" stroke="#bfbfbf" points="513.75,-0.5 513.75,-19.5 569.75,-19.5 569.75,-0.5 513.75,-0.5"/>
<text text-anchor="middle" x="541.75" y="-7.5" font-family="Helvetica,sans-Serif" font-size="10.00">unistd.h</text>
</a>
</g>
</g>
<!-- Node3&#45;&gt;Node10 -->
<g id="edge9" class="edge">
<title>Node3&#45;&gt;Node10</title>
<path fill="none" stroke="midnightblue" d="M520.05,-56.08C523.6,-48.69 528.77,-37.95 533.18,-28.81"/>
<polygon fill="midnightblue" stroke="midnightblue" points="536.35,-30.28 537.54,-19.75 530.05,-27.24 536.35,-30.28"/>
</g>
<!-- Node17&#45;&gt;Node3 -->
<g id="edge29" class="edge">
<title>Node17&#45;&gt;Node3</title>
<path fill="none" stroke="midnightblue" d="M646.61,-168.37C622.45,-149.65 565,-105.15 534.9,-81.83"/>
<polygon fill="midnightblue" stroke="midnightblue" points="536.89,-78.95 526.84,-75.59 532.6,-84.48 536.89,-78.95"/>
</g>
<!-- Node17&#45;&gt;Node13 -->
<g id="edge30" class="edge">
<title>Node17&#45;&gt;Node13</title>
<path fill="none" stroke="midnightblue" d="M652.1,-168.37C640.22,-150.22 612.46,-107.8 596.87,-83.99"/>
<polygon fill="midnightblue" stroke="midnightblue" points="599.78,-82.04 591.38,-75.59 593.92,-85.88 599.78,-82.04"/>
</g>
<!-- Node18 -->
<g id="node18" class="node">
<title>Node18</title>
<g id="a_node18"><a xlink:href="SQLite_8hpp.html" target="_top" xlink:title=" ">
<polygon fill="none" stroke="black" points="639.25,-112.5 639.25,-131.5 708.25,-131.5 708.25,-112.5 639.25,-112.5"/>
<text text-anchor="middle" x="673.75" y="-119.5" font-family="Helvetica,sans-Serif" font-size="10.00">SQLite.hpp</text>
</a>
</g>
</g>
<!-- Node17&#45;&gt;Node18 -->
<g id="edge18" class="edge">
<title>Node17&#45;&gt;Node18</title>
<path fill="none" stroke="midnightblue" d="M660.39,-168.08C662.54,-160.85 665.63,-150.41 668.3,-141.4"/>
<polygon fill="midnightblue" stroke="midnightblue" points="671.67,-142.33 671.16,-131.75 664.96,-140.34 671.67,-142.33"/>
</g>
<!-- Node18&#45;&gt;Node3 -->
<g id="edge28" class="edge">
<title>Node18&#45;&gt;Node3</title>
<path fill="none" stroke="midnightblue" d="M648.72,-112.44C622.14,-103.36 579.94,-88.94 550.23,-78.78"/>
<polygon fill="midnightblue" stroke="midnightblue" points="551.26,-75.44 540.67,-75.52 549,-82.06 551.26,-75.44"/>
</g>
<!-- Node18&#45;&gt;Node8 -->
<g id="edge21" class="edge">
<title>Node18&#45;&gt;Node8</title>
<path fill="none" stroke="midnightblue" d="M669.12,-112.37C659.47,-94.38 637.04,-52.55 624.21,-28.63"/>
<polygon fill="midnightblue" stroke="midnightblue" points="627.17,-26.75 619.36,-19.59 621,-30.06 627.17,-26.75"/>
</g>
<!-- Node18&#45;&gt;Node9 -->
<g id="edge25" class="edge">
<title>Node18&#45;&gt;Node9</title>
<path fill="none" stroke="midnightblue" d="M675.4,-112.37C678.79,-94.62 686.61,-53.67 691.2,-29.6"/>
<polygon fill="midnightblue" stroke="midnightblue" points="694.67,-30.07 693.11,-19.59 687.8,-28.76 694.67,-30.07"/>
</g>
<!-- Node18&#45;&gt;Node12 -->
<g id="edge19" class="edge">
<title>Node18&#45;&gt;Node12</title>
<path fill="none" stroke="midnightblue" d="M639.23,-113.14C601.89,-104.63 540.34,-90.59 477.99,-76.28"/>
<polygon fill="midnightblue" stroke="midnightblue" points="478.51,-72.81 467.98,-73.98 476.95,-79.63 478.51,-72.81"/>
</g>
<!-- Node18&#45;&gt;Node13 -->
<g id="edge23" class="edge">
<title>Node18&#45;&gt;Node13</title>
<path fill="none" stroke="midnightblue" d="M659.61,-112.32C645.89,-103.9 624.82,-90.97 608.69,-81.07"/>
<polygon fill="midnightblue" stroke="midnightblue" points="610.21,-77.9 599.86,-75.65 606.55,-83.87 610.21,-77.9"/>
</g>
<!-- Node19 -->
<g id="node19" class="node">
<title>Node19</title>
<g id="a_node19"><a xlink:title=" ">
<polygon fill="none" stroke="#bfbfbf" points="701.75,-56.5 701.75,-75.5 759.75,-75.5 759.75,-56.5 701.75,-56.5"/>
<text text-anchor="middle" x="730.75" y="-63.5" font-family="Helvetica,sans-Serif" font-size="10.00">memory</text>
</a>
</g>
</g>
<!-- Node18&#45;&gt;Node19 -->
<g id="edge20" class="edge">
<title>Node18&#45;&gt;Node19</title>
<path fill="none" stroke="midnightblue" d="M682.91,-112.32C691.25,-104.42 703.78,-92.55 713.93,-82.94"/>
<polygon fill="midnightblue" stroke="midnightblue" points="716.57,-85.25 721.43,-75.83 711.76,-80.17 716.57,-85.25"/>
</g>
<!-- Node20 -->
<g id="node20" class="node">
<title>Node20</title>
<g id="a_node20"><a xlink:title=" ">
<polygon fill="none" stroke="#bfbfbf" points="777.75,-56.5 777.75,-75.5 833.75,-75.5 833.75,-56.5 777.75,-56.5"/>
<text text-anchor="middle" x="805.75" y="-63.5" font-family="Helvetica,sans-Serif" font-size="10.00">sstream</text>
</a>
</g>
</g>
<!-- Node18&#45;&gt;Node20 -->
<g id="edge22" class="edge">
<title>Node18&#45;&gt;Node20</title>
<path fill="none" stroke="midnightblue" d="M694.67,-112.44C716.49,-103.52 750.9,-89.44 775.64,-79.32"/>
<polygon fill="midnightblue" stroke="midnightblue" points="777,-82.54 784.93,-75.52 774.35,-76.06 777,-82.54"/>
</g>
<!-- Node21 -->
<g id="node21" class="node">
<title>Node21</title>
<g id="a_node21"><a xlink:title=" ">
<polygon fill="none" stroke="#bfbfbf" points="851.75,-56.5 851.75,-75.5 899.75,-75.5 899.75,-56.5 851.75,-56.5"/>
<text text-anchor="middle" x="875.75" y="-63.5" font-family="Helvetica,sans-Serif" font-size="10.00">thread</text>
</a>
</g>
</g>
<!-- Node18&#45;&gt;Node21 -->
<g id="edge24" class="edge">
<title>Node18&#45;&gt;Node21</title>
<path fill="none" stroke="midnightblue" d="M706.17,-112.43C738.2,-103.95 788.88,-90.49 841.72,-76.27"/>
<polygon fill="midnightblue" stroke="midnightblue" points="842.86,-79.58 851.61,-73.6 841.04,-72.83 842.86,-79.58"/>
</g>
<!-- Node22 -->
<g id="node22" class="node">
<title>Node22</title>
<g id="a_node22"><a xlink:title=" ">
<polygon fill="none" stroke="#bfbfbf" points="918.25,-56.5 918.25,-75.5 977.25,-75.5 977.25,-56.5 918.25,-56.5"/>
<text text-anchor="middle" x="947.75" y="-63.5" font-family="Helvetica,sans-Serif" font-size="10.00">sqlite3.h</text>
</a>
</g>
</g>
<!-- Node18&#45;&gt;Node22 -->
<g id="edge26" class="edge">
<title>Node18&#45;&gt;Node22</title>
<path fill="none" stroke="midnightblue" d="M708.48,-114.77C752.52,-106.78 831.05,-92.23 908.09,-76.08"/>
<polygon fill="midnightblue" stroke="midnightblue" points="908.9,-79.48 917.97,-73.99 907.46,-72.63 908.9,-79.48"/>
</g>
<!-- Node18&#45;&gt;Node23 -->
<g id="edge27" class="edge">
<title>Node18&#45;&gt;Node23</title>
<path fill="none" stroke="midnightblue" d="M708.39,-115.32C715.45,-114.19 722.84,-113.04 729.75,-112 840.58,-95.33 872.19,-99.86 985.08,-76.11"/>
<polygon fill="midnightblue" stroke="midnightblue" points="986.11,-79.47 995.16,-73.96 984.65,-72.63 986.11,-79.47"/>
</g>
</g>
</svg>
