<?xml version="1.0" encoding="UTF-8" standalone="no"?>
<!DOCTYPE svg PUBLIC "-//W3C//DTD SVG 1.1//EN"
 "http://www.w3.org/Graphics/SVG/1.1/DTD/svg11.dtd">
<!-- Generated by graphviz version 2.43.0 (0)
 -->
<!-- Title: utils::hash&lt; std::array&lt; T, N &gt; &gt;::operator() Pages: 1 -->
<svg width="419pt" height="39pt"
 viewBox="0.00 0.00 419.00 39.00" xmlns="http://www.w3.org/2000/svg" xmlns:xlink="http://www.w3.org/1999/xlink">
<g id="graph0" class="graph" transform="scale(1 1) rotate(0) translate(4 35)">
<title>utils::hash&lt; std::array&lt; T, N &gt; &gt;::operator()</title>
<!-- Node1 -->
<g id="node1" class="node">
<title>Node1</title>
<g id="a_node1"><a xlink:title=" ">
<polygon fill="#bfbfbf" stroke="black" points="0,-0.5 0,-30.5 125,-30.5 125,-0.5 0,-0.5"/>
<text text-anchor="start" x="8" y="-18.5" font-family="Helvetica,sans-Serif" font-size="10.00">utils::hash&lt; std::array</text>
<text text-anchor="middle" x="62.5" y="-7.5" font-family="Helvetica,sans-Serif" font-size="10.00">&lt; T, N &gt; &gt;::operator()</text>
</a>
</g>
</g>
<!-- Node2 -->
<g id="node2" class="node">
<title>Node2</title>
<g id="a_node2"><a xlink:href="namespaceutils.html#abf58922e3b42ea50854095f06fb12d50" target="_top" xlink:title="Combine hashes of values in a range.">
<polygon fill="none" stroke="black" points="161,-6 161,-25 261,-25 261,-6 161,-6"/>
<text text-anchor="middle" x="211" y="-13" font-family="Helvetica,sans-Serif" font-size="10.00">utils::hash_range</text>
</a>
</g>
</g>
<!-- Node1&#45;&gt;Node2 -->
<g id="edge1" class="edge">
<title>Node1&#45;&gt;Node2</title>
<path fill="none" stroke="midnightblue" d="M125.2,-15.5C133.65,-15.5 142.32,-15.5 150.72,-15.5"/>
<polygon fill="midnightblue" stroke="midnightblue" points="150.82,-19 160.82,-15.5 150.82,-12 150.82,-19"/>
</g>
<!-- Node3 -->
<g id="node3" class="node">
<title>Node3</title>
<g id="a_node3"><a xlink:href="namespaceutils.html#a11e4074d431e26fbbeaf9b97d42f26dd" target="_top" xlink:title="Combine hashes.">
<polygon fill="none" stroke="black" points="297,-6 297,-25 411,-25 411,-6 297,-6"/>
<text text-anchor="middle" x="354" y="-13" font-family="Helvetica,sans-Serif" font-size="10.00">utils::hash_combine</text>
</a>
</g>
</g>
<!-- Node2&#45;&gt;Node3 -->
<g id="edge2" class="edge">
<title>Node2&#45;&gt;Node3</title>
<path fill="none" stroke="midnightblue" d="M261.31,-15.5C269.45,-15.5 277.99,-15.5 286.46,-15.5"/>
<polygon fill="midnightblue" stroke="midnightblue" points="286.72,-19 296.72,-15.5 286.72,-12 286.72,-19"/>
</g>
</g>
</svg>
