<?xml version="1.0" encoding="UTF-8" standalone="no"?>
<!DOCTYPE svg PUBLIC "-//W3C//DTD SVG 1.1//EN"
 "http://www.w3.org/Graphics/SVG/1.1/DTD/svg11.dtd">
<!-- Generated by graphviz version 2.43.0 (0)
 -->
<!-- Title: Fixture&lt; l &gt; Pages: 1 -->
<svg width="178pt" height="250pt"
 viewBox="0.00 0.00 178.00 250.00" xmlns="http://www.w3.org/2000/svg" xmlns:xlink="http://www.w3.org/1999/xlink">
<g id="graph0" class="graph" transform="scale(1 1) rotate(0) translate(4 246)">
<title>Fixture&lt; l &gt;</title>
<!-- Node1 -->
<g id="node1" class="node">
<title>Node1</title>
<g id="a_node1"><a xlink:title=" ">
<polygon fill="#bfbfbf" stroke="black" points="45.5,-0.5 45.5,-19.5 120.5,-19.5 120.5,-0.5 45.5,-0.5"/>
<text text-anchor="middle" x="83" y="-7.5" font-family="Helvetica,sans-Serif" font-size="10.00">Fixture&lt; l &gt;</text>
</a>
</g>
</g>
<!-- Node2 -->
<g id="node2" class="node">
<title>Node2</title>
<g id="a_node2"><a xlink:href="classQuantumDefect.html" target="_top" xlink:title="Quantum defect storage.">
<polygon fill="none" stroke="black" points="36,-67.5 36,-86.5 130,-86.5 130,-67.5 36,-67.5"/>
<text text-anchor="middle" x="83" y="-74.5" font-family="Helvetica,sans-Serif" font-size="10.00">QuantumDefect</text>
</a>
</g>
</g>
<!-- Node2&#45;&gt;Node1 -->
<g id="edge1" class="edge">
<title>Node2&#45;&gt;Node1</title>
<path fill="none" stroke="#9a32cd" stroke-dasharray="5,2" d="M83,-57.04C83,-44.67 83,-29.12 83,-19.63"/>
<polygon fill="#9a32cd" stroke="#9a32cd" points="79.5,-57.23 83,-67.23 86.5,-57.23 79.5,-57.23"/>
<text text-anchor="middle" x="91" y="-41" font-family="Helvetica,sans-Serif" font-size="10.00"> qd</text>
</g>
<!-- Node3 -->
<g id="node3" class="node">
<title>Node3</title>
<g id="a_node3"><a xlink:title=" ">
<polygon fill="none" stroke="#bfbfbf" points="0,-222.5 0,-241.5 50,-241.5 50,-222.5 0,-222.5"/>
<text text-anchor="middle" x="25" y="-229.5" font-family="Helvetica,sans-Serif" font-size="10.00">double</text>
</a>
</g>
</g>
<!-- Node3&#45;&gt;Node2 -->
<g id="edge2" class="edge">
<title>Node3&#45;&gt;Node2</title>
<path fill="none" stroke="#9a32cd" stroke-dasharray="5,2" d="M23.65,-212.24C22.67,-186.17 24.25,-138.45 45,-105 49.78,-97.3 57.65,-91.17 64.99,-86.71"/>
<polygon fill="#9a32cd" stroke="#9a32cd" points="20.15,-212.47 24.19,-222.27 27.14,-212.09 20.15,-212.47"/>
<text text-anchor="middle" x="62" y="-196" font-family="Helvetica,sans-Serif" font-size="10.00"> a1</text>
<text text-anchor="middle" x="62" y="-185" font-family="Helvetica,sans-Serif" font-size="10.00">a2</text>
<text text-anchor="middle" x="62" y="-174" font-family="Helvetica,sans-Serif" font-size="10.00">a3</text>
<text text-anchor="middle" x="62" y="-163" font-family="Helvetica,sans-Serif" font-size="10.00">a4</text>
<text text-anchor="middle" x="62" y="-152" font-family="Helvetica,sans-Serif" font-size="10.00">ac</text>
<text text-anchor="middle" x="62" y="-141" font-family="Helvetica,sans-Serif" font-size="10.00">energy</text>
<text text-anchor="middle" x="62" y="-130" font-family="Helvetica,sans-Serif" font-size="10.00">j</text>
<text text-anchor="middle" x="62" y="-119" font-family="Helvetica,sans-Serif" font-size="10.00">nstar</text>
<text text-anchor="middle" x="62" y="-108" font-family="Helvetica,sans-Serif" font-size="10.00">rc</text>
</g>
<!-- Node4 -->
<g id="node4" class="node">
<title>Node4</title>
<g id="a_node4"><a xlink:title=" ">
<polygon fill="none" stroke="#bfbfbf" points="68.5,-222.5 68.5,-241.5 97.5,-241.5 97.5,-222.5 68.5,-222.5"/>
<text text-anchor="middle" x="83" y="-229.5" font-family="Helvetica,sans-Serif" font-size="10.00">int</text>
</a>
</g>
</g>
<!-- Node4&#45;&gt;Node2 -->
<g id="edge3" class="edge">
<title>Node4&#45;&gt;Node2</title>
<path fill="none" stroke="#9a32cd" stroke-dasharray="5,2" d="M83,-212.11C83,-178.72 83,-110.54 83,-86.57"/>
<polygon fill="#9a32cd" stroke="#9a32cd" points="79.5,-212.34 83,-222.34 86.5,-212.34 79.5,-212.34"/>
<text text-anchor="middle" x="88" y="-163" font-family="Helvetica,sans-Serif" font-size="10.00"> Z</text>
<text text-anchor="middle" x="88" y="-152" font-family="Helvetica,sans-Serif" font-size="10.00">l</text>
<text text-anchor="middle" x="88" y="-141" font-family="Helvetica,sans-Serif" font-size="10.00">n</text>
</g>
<!-- Node5 -->
<g id="node5" class="node">
<title>Node5</title>
<g id="a_node5"><a xlink:title=" ">
<polygon fill="none" stroke="#bfbfbf" points="116,-222.5 116,-241.5 160,-241.5 160,-222.5 116,-222.5"/>
<text text-anchor="middle" x="138" y="-229.5" font-family="Helvetica,sans-Serif" font-size="10.00">string</text>
</a>
</g>
</g>
<!-- Node5&#45;&gt;Node2 -->
<g id="edge4" class="edge">
<title>Node5&#45;&gt;Node2</title>
<path fill="none" stroke="#9a32cd" stroke-dasharray="5,2" d="M132.97,-212.37C126.02,-187.47 112.56,-142.17 97,-105 94.39,-98.77 90.89,-92.02 88.04,-86.82"/>
<polygon fill="#9a32cd" stroke="#9a32cd" points="129.67,-213.55 135.69,-222.27 136.42,-211.7 129.67,-213.55"/>
<text text-anchor="middle" x="150" y="-152" font-family="Helvetica,sans-Serif" font-size="10.00"> species</text>
</g>
</g>
</svg>
