<?xml version="1.0" encoding="UTF-8" standalone="no"?>
<!DOCTYPE svg PUBLIC "-//W3C//DTD SVG 1.1//EN"
 "http://www.w3.org/Graphics/SVG/1.1/DTD/svg11.dtd">
<!-- Generated by graphviz version 2.43.0 (0)
 -->
<!-- Title: /__w/pairinteraction/pairinteraction/pairinteraction/SystemBase.cpp Pages: 1 -->
<!--zoomable 296 -->
<svg id="main" version="1.1" xmlns="http://www.w3.org/2000/svg" xmlns:xlink="http://www.w3.org/1999/xlink" xml:space="preserve" onload="init(evt)">
<style type="text/css"><![CDATA[
.edge:hover path { stroke: red; }
.edge:hover polygon { stroke: red; fill: red; }
]]></style>
<script type="text/javascript"><![CDATA[
var edges = document.getElementsByTagName('g');
if (edges && edges.length) {
  for (var i=0;i<edges.length;i++) {
    if (edges[i].id.substr(0,4)=='edge') {
      edges[i].setAttribute('class','edge');
    }
  }
}
]]></script>
        <defs>
                <circle id="rim" cx="0" cy="0" r="7"/>
                <circle id="rim2" cx="0" cy="0" r="3.5"/>
                <g id="zoomPlus">
                        <use xlink:href="#rim" fill="#404040">
                                <set attributeName="fill" to="#808080" begin="zoomplus.mouseover" end="zoomplus.mouseout"/>
                        </use>
                        <path d="M-4,0h8M0,-4v8" fill="none" stroke="white" stroke-width="1.5" pointer-events="none"/>
                </g>
                <g id="zoomMin">
                        <use xlink:href="#rim" fill="#404040">
                                <set attributeName="fill" to="#808080" begin="zoomminus.mouseover" end="zoomminus.mouseout"/>
                        </use>
                        <path d="M-4,0h8" fill="none" stroke="white" stroke-width="1.5" pointer-events="none"/>
                </g>
                <g id="dirArrow">
                        <path fill="none" stroke="white" stroke-width="1.5" d="M0,-3.0v7 M-2.5,-0.5L0,-3.0L2.5,-0.5"/>
                </g>
               <g id="resetDef">
                       <use xlink:href="#rim2" fill="#404040">
                               <set attributeName="fill" to="#808080" begin="reset.mouseover" end="reset.mouseout"/>
                       </use>
               </g>
        </defs>

<script type="text/javascript">
var viewWidth = 2777;
var viewHeight = 296;
var sectionId = 'dynsection-0';
</script>
<script xlink:href="svgpan.js"/>
<svg id="graph" class="graph">
<g id="viewport">
<title>/__w/pairinteraction/pairinteraction/pairinteraction/SystemBase.cpp</title>
<!-- Node1 -->
<g id="node1" class="node">
<title>Node1</title>
<g id="a_node1"><a xlink:title=" ">
<polygon fill="#bfbfbf" stroke="black" points="2278,-246.5 2278,-287.5 2443,-287.5 2443,-246.5 2278,-246.5"/>
<text text-anchor="start" x="2286" y="-275.5" font-family="Helvetica,sans-Serif" font-size="10.00">/__w/pairinteraction</text>
<text text-anchor="start" x="2286" y="-264.5" font-family="Helvetica,sans-Serif" font-size="10.00">/pairinteraction/pairinteraction</text>
<text text-anchor="middle" x="2360.5" y="-253.5" font-family="Helvetica,sans-Serif" font-size="10.00">/SystemBase.cpp</text>
</a>
</g>
</g>
<!-- Node2 -->
<g id="node2" class="node">
<title>Node2</title>
<g id="a_node2"><a xlink:href="SystemBase_8hpp.html" target="_top" xlink:title=" ">
<polygon fill="none" stroke="black" points="1702.5,-185 1702.5,-204 1800.5,-204 1800.5,-185 1702.5,-185"/>
<text text-anchor="middle" x="1751.5" y="-192" font-family="Helvetica,sans-Serif" font-size="10.00">SystemBase.hpp</text>
</a>
</g>
</g>
<!-- Node1&#45;&gt;Node2 -->
<g id="edge1" class="edge">
<title>Node1&#45;&gt;Node2</title>
<path fill="none" stroke="midnightblue" d="M2277.73,-256.42C2153.13,-241.99 1920.33,-215.04 1811.04,-202.39"/>
<polygon fill="midnightblue" stroke="midnightblue" points="1811.2,-198.89 1800.86,-201.21 1810.39,-205.84 1811.2,-198.89"/>
</g>
<!-- Node21 -->
<g id="node21" class="node">
<title>Node21</title>
<g id="a_node21"><a xlink:href="EigenCompat_8hpp.html" target="_top" xlink:title=" ">
<polygon fill="none" stroke="black" points="0,-56.5 0,-75.5 103,-75.5 103,-56.5 0,-56.5"/>
<text text-anchor="middle" x="51.5" y="-63.5" font-family="Helvetica,sans-Serif" font-size="10.00">EigenCompat.hpp</text>
</a>
</g>
</g>
<!-- Node1&#45;&gt;Node21 -->
<g id="edge41" class="edge">
<title>Node1&#45;&gt;Node21</title>
<path fill="none" stroke="midnightblue" d="M2277.81,-264.04C1940.9,-255.62 671.02,-219.37 277.5,-143 204.52,-128.84 122.7,-97.14 80.37,-79.48"/>
<polygon fill="midnightblue" stroke="midnightblue" points="81.55,-76.18 70.97,-75.52 78.83,-82.63 81.55,-76.18"/>
</g>
<!-- Node33 -->
<g id="node33" class="node">
<title>Node33</title>
<g id="a_node33"><a xlink:href="Symmetry_8hpp.html" target="_top" xlink:title=" ">
<polygon fill="none" stroke="black" points="2263,-185 2263,-204 2350,-204 2350,-185 2263,-185"/>
<text text-anchor="middle" x="2306.5" y="-192" font-family="Helvetica,sans-Serif" font-size="10.00">Symmetry.hpp</text>
</a>
</g>
</g>
<!-- Node1&#45;&gt;Node33 -->
<g id="edge38" class="edge">
<title>Node1&#45;&gt;Node33</title>
<path fill="none" stroke="midnightblue" d="M2345.46,-246.36C2337.25,-235.65 2327.2,-222.52 2319.36,-212.29"/>
<polygon fill="midnightblue" stroke="midnightblue" points="2322,-209.98 2313.14,-204.17 2316.45,-214.24 2322,-209.98"/>
</g>
<!-- Node35 -->
<g id="node35" class="node">
<title>Node35</title>
<g id="a_node35"><a xlink:title=" ">
<polygon fill="none" stroke="#bfbfbf" points="2368,-185 2368,-204 2463,-204 2463,-185 2368,-185"/>
<text text-anchor="middle" x="2415.5" y="-192" font-family="Helvetica,sans-Serif" font-size="10.00">Eigen/Geometry</text>
</a>
</g>
</g>
<!-- Node1&#45;&gt;Node35 -->
<g id="edge42" class="edge">
<title>Node1&#45;&gt;Node35</title>
<path fill="none" stroke="midnightblue" d="M2375.82,-246.36C2384.18,-235.65 2394.42,-222.52 2402.4,-212.29"/>
<polygon fill="midnightblue" stroke="midnightblue" points="2405.34,-214.21 2408.73,-204.17 2399.82,-209.91 2405.34,-214.21"/>
</g>
<!-- Node36 -->
<g id="node36" class="node">
<title>Node36</title>
<g id="a_node36"><a xlink:title=" ">
<polygon fill="none" stroke="#bfbfbf" points="2481.5,-179.5 2481.5,-209.5 2623.5,-209.5 2623.5,-179.5 2481.5,-179.5"/>
<text text-anchor="start" x="2489.5" y="-197.5" font-family="Helvetica,sans-Serif" font-size="10.00">unsupported/Eigen/Matrix</text>
<text text-anchor="middle" x="2552.5" y="-186.5" font-family="Helvetica,sans-Serif" font-size="10.00">Functions</text>
</a>
</g>
</g>
<!-- Node1&#45;&gt;Node36 -->
<g id="edge43" class="edge">
<title>Node1&#45;&gt;Node36</title>
<path fill="none" stroke="midnightblue" d="M2413.73,-246.46C2442.22,-235.99 2477.03,-223.21 2504.66,-213.07"/>
<polygon fill="midnightblue" stroke="midnightblue" points="2505.93,-216.33 2514.11,-209.6 2503.52,-209.76 2505.93,-216.33"/>
</g>
<!-- Node37 -->
<g id="node37" class="node">
<title>Node37</title>
<g id="a_node37"><a xlink:title=" ">
<polygon fill="none" stroke="#bfbfbf" points="2641.5,-185 2641.5,-204 2697.5,-204 2697.5,-185 2641.5,-185"/>
<text text-anchor="middle" x="2669.5" y="-192" font-family="Helvetica,sans-Serif" font-size="10.00">numeric</text>
</a>
</g>
</g>
<!-- Node1&#45;&gt;Node37 -->
<g id="edge44" class="edge">
<title>Node1&#45;&gt;Node37</title>
<path fill="none" stroke="midnightblue" d="M2443.23,-252.75C2497.6,-243.12 2569.98,-228.54 2632.5,-210 2634.93,-209.28 2637.43,-208.47 2639.92,-207.6"/>
<polygon fill="midnightblue" stroke="midnightblue" points="2641.2,-210.86 2649.36,-204.11 2638.77,-204.3 2641.2,-210.86"/>
</g>
<!-- Node3 -->
<g id="node3" class="node">
<title>Node3</title>
<g id="a_node3"><a xlink:href="State_8hpp.html" target="_top" xlink:title=" ">
<polygon fill="none" stroke="black" points="2321,-118 2321,-137 2384,-137 2384,-118 2321,-118"/>
<text text-anchor="middle" x="2352.5" y="-125" font-family="Helvetica,sans-Serif" font-size="10.00">State.hpp</text>
</a>
</g>
</g>
<!-- Node2&#45;&gt;Node3 -->
<g id="edge2" class="edge">
<title>Node2&#45;&gt;Node3</title>
<path fill="none" stroke="midnightblue" d="M1800.68,-188.18C1916.12,-175.7 2202.82,-144.69 2310.62,-133.03"/>
<polygon fill="midnightblue" stroke="midnightblue" points="2311.22,-136.49 2320.79,-131.93 2310.47,-129.53 2311.22,-136.49"/>
</g>
<!-- Node4 -->
<g id="node4" class="node">
<title>Node4</title>
<g id="a_node4"><a xlink:href="utils_8hpp.html" target="_top" xlink:title=" ">
<polygon fill="none" stroke="black" points="2031,-56.5 2031,-75.5 2090,-75.5 2090,-56.5 2031,-56.5"/>
<text text-anchor="middle" x="2060.5" y="-63.5" font-family="Helvetica,sans-Serif" font-size="10.00">utils.hpp</text>
</a>
</g>
</g>
<!-- Node2&#45;&gt;Node4 -->
<g id="edge25" class="edge">
<title>Node2&#45;&gt;Node4</title>
<path fill="none" stroke="midnightblue" d="M1800.61,-191.72C1875.34,-187.95 2012.53,-176.54 2046.5,-143 2061.46,-128.23 2063.35,-103.07 2062.57,-85.77"/>
<polygon fill="midnightblue" stroke="midnightblue" points="2066.05,-85.42 2061.78,-75.73 2059.07,-85.97 2066.05,-85.42"/>
</g>
<!-- Node5 -->
<g id="node5" class="node">
<title>Node5</title>
<g id="a_node5"><a xlink:title=" ">
<polygon fill="none" stroke="#bfbfbf" points="2178.5,-0.5 2178.5,-19.5 2242.5,-19.5 2242.5,-0.5 2178.5,-0.5"/>
<text text-anchor="middle" x="2210.5" y="-7.5" font-family="Helvetica,sans-Serif" font-size="10.00">algorithm</text>
</a>
</g>
</g>
<!-- Node2&#45;&gt;Node5 -->
<g id="edge33" class="edge">
<title>Node2&#45;&gt;Node5</title>
<path fill="none" stroke="midnightblue" d="M1800.68,-189.95C1877.82,-183.68 2023.05,-168.8 2067.5,-143 2110.42,-118.09 2100.28,-88.83 2137.5,-56 2151.6,-43.56 2169.57,-32.44 2184.14,-24.36"/>
<polygon fill="midnightblue" stroke="midnightblue" points="2186.01,-27.33 2193.16,-19.52 2182.69,-21.17 2186.01,-27.33"/>
</g>
<!-- Node7 -->
<g id="node7" class="node">
<title>Node7</title>
<g id="a_node7"><a xlink:title=" ">
<polygon fill="none" stroke="#bfbfbf" points="1240,-0.5 1240,-19.5 1299,-19.5 1299,-0.5 1240,-0.5"/>
<text text-anchor="middle" x="1269.5" y="-7.5" font-family="Helvetica,sans-Serif" font-size="10.00">complex</text>
</a>
</g>
</g>
<!-- Node2&#45;&gt;Node7 -->
<g id="edge34" class="edge">
<title>Node2&#45;&gt;Node7</title>
<path fill="none" stroke="midnightblue" d="M1702.38,-192.9C1504.91,-190.23 777.84,-178.06 744.5,-143 674.58,-69.49 1096.02,-26.08 1229.75,-14.29"/>
<polygon fill="midnightblue" stroke="midnightblue" points="1230.31,-17.75 1239.97,-13.4 1229.7,-10.78 1230.31,-17.75"/>
</g>
<!-- Node8 -->
<g id="node8" class="node">
<title>Node8</title>
<g id="a_node8"><a xlink:title=" ">
<polygon fill="none" stroke="#bfbfbf" points="1862,-0.5 1862,-19.5 1927,-19.5 1927,-0.5 1862,-0.5"/>
<text text-anchor="middle" x="1894.5" y="-7.5" font-family="Helvetica,sans-Serif" font-size="10.00">functional</text>
</a>
</g>
</g>
<!-- Node2&#45;&gt;Node8 -->
<g id="edge35" class="edge">
<title>Node2&#45;&gt;Node8</title>
<path fill="none" stroke="midnightblue" d="M1800.61,-191.26C1868.87,-186.99 1987.03,-175.06 2013.5,-143 2050.64,-98.02 1968.03,-47.49 1922.28,-24.13"/>
<polygon fill="midnightblue" stroke="midnightblue" points="1923.64,-20.9 1913.13,-19.57 1920.52,-27.17 1923.64,-20.9"/>
</g>
<!-- Node17 -->
<g id="node17" class="node">
<title>Node17</title>
<g id="a_node17"><a xlink:href="serialization__eigen_8hpp.html" target="_top" xlink:title=" ">
<polygon fill="none" stroke="black" points="286.5,-118 286.5,-137 416.5,-137 416.5,-118 286.5,-118"/>
<text text-anchor="middle" x="351.5" y="-125" font-family="Helvetica,sans-Serif" font-size="10.00">serialization_eigen.hpp</text>
</a>
</g>
</g>
<!-- Node2&#45;&gt;Node17 -->
<g id="edge17" class="edge">
<title>Node2&#45;&gt;Node17</title>
<path fill="none" stroke="midnightblue" d="M1702.49,-191.22C1494.01,-181.55 679.99,-143.75 426.97,-132"/>
<polygon fill="midnightblue" stroke="midnightblue" points="426.92,-128.5 416.77,-131.53 426.6,-135.49 426.92,-128.5"/>
</g>
<!-- Node24 -->
<g id="node24" class="node">
<title>Node24</title>
<g id="a_node24"><a xlink:title=" ">
<polygon fill="none" stroke="#bfbfbf" points="753,-112.5 753,-142.5 896,-142.5 896,-112.5 753,-112.5"/>
<text text-anchor="start" x="761" y="-130.5" font-family="Helvetica,sans-Serif" font-size="10.00">boost/multi_index/hashed</text>
<text text-anchor="middle" x="824.5" y="-119.5" font-family="Helvetica,sans-Serif" font-size="10.00">_index.hpp</text>
</a>
</g>
</g>
<!-- Node2&#45;&gt;Node24 -->
<g id="edge26" class="edge">
<title>Node2&#45;&gt;Node24</title>
<path fill="none" stroke="midnightblue" d="M1702.21,-192.58C1573.16,-189.74 1214.66,-179.07 906.45,-143.01"/>
<polygon fill="midnightblue" stroke="midnightblue" points="906.76,-139.52 896.42,-141.83 905.94,-146.48 906.76,-139.52"/>
</g>
<!-- Node25 -->
<g id="node25" class="node">
<title>Node25</title>
<g id="a_node25"><a xlink:title=" ">
<polygon fill="none" stroke="#bfbfbf" points="914.5,-118 914.5,-137 1084.5,-137 1084.5,-118 914.5,-118"/>
<text text-anchor="middle" x="999.5" y="-125" font-family="Helvetica,sans-Serif" font-size="10.00">boost/multi_index/member.hpp</text>
</a>
</g>
</g>
<!-- Node2&#45;&gt;Node25 -->
<g id="edge27" class="edge">
<title>Node2&#45;&gt;Node25</title>
<path fill="none" stroke="midnightblue" d="M1702.34,-190.98C1592.9,-185.1 1320.96,-168.95 1094.5,-143 1083.59,-141.75 1072,-140.18 1060.81,-138.55"/>
<polygon fill="midnightblue" stroke="midnightblue" points="1061.09,-135.05 1050.68,-137.03 1060.05,-141.97 1061.09,-135.05"/>
</g>
<!-- Node26 -->
<g id="node26" class="node">
<title>Node26</title>
<g id="a_node26"><a xlink:title=" ">
<polygon fill="none" stroke="#bfbfbf" points="1103,-112.5 1103,-142.5 1248,-142.5 1248,-112.5 1103,-112.5"/>
<text text-anchor="start" x="1111" y="-130.5" font-family="Helvetica,sans-Serif" font-size="10.00">boost/multi_index/random</text>
<text text-anchor="middle" x="1175.5" y="-119.5" font-family="Helvetica,sans-Serif" font-size="10.00">_access_index.hpp</text>
</a>
</g>
</g>
<!-- Node2&#45;&gt;Node26 -->
<g id="edge28" class="edge">
<title>Node2&#45;&gt;Node26</title>
<path fill="none" stroke="midnightblue" d="M1702.28,-189.67C1615.01,-182.61 1427.25,-166.26 1258.4,-143.06"/>
<polygon fill="midnightblue" stroke="midnightblue" points="1258.72,-139.57 1248.33,-141.66 1257.76,-146.5 1258.72,-139.57"/>
</g>
<!-- Node27 -->
<g id="node27" class="node">
<title>Node27</title>
<g id="a_node27"><a xlink:title=" ">
<polygon fill="none" stroke="#bfbfbf" points="1266.5,-118 1266.5,-137 1442.5,-137 1442.5,-118 1266.5,-118"/>
<text text-anchor="middle" x="1354.5" y="-125" font-family="Helvetica,sans-Serif" font-size="10.00">boost/multi_index_container.hpp</text>
</a>
</g>
</g>
<!-- Node2&#45;&gt;Node27 -->
<g id="edge29" class="edge">
<title>Node2&#45;&gt;Node27</title>
<path fill="none" stroke="midnightblue" d="M1702.42,-185.46C1630.35,-173.66 1495.9,-151.65 1416.91,-138.72"/>
<polygon fill="midnightblue" stroke="midnightblue" points="1417.05,-135.19 1406.61,-137.03 1415.92,-142.1 1417.05,-135.19"/>
</g>
<!-- Node28 -->
<g id="node28" class="node">
<title>Node28</title>
<g id="a_node28"><a xlink:title=" ">
<polygon fill="none" stroke="#bfbfbf" points="1461,-118 1461,-137 1604,-137 1604,-118 1461,-118"/>
<text text-anchor="middle" x="1532.5" y="-125" font-family="Helvetica,sans-Serif" font-size="10.00">cereal/types/complex.hpp</text>
</a>
</g>
</g>
<!-- Node2&#45;&gt;Node28 -->
<g id="edge30" class="edge">
<title>Node2&#45;&gt;Node28</title>
<path fill="none" stroke="midnightblue" d="M1722.42,-184.87C1683.45,-173.3 1614.2,-152.75 1570.96,-139.91"/>
<polygon fill="midnightblue" stroke="midnightblue" points="1571.94,-136.55 1561.35,-137.06 1569.94,-143.26 1571.94,-136.55"/>
</g>
<!-- Node29 -->
<g id="node29" class="node">
<title>Node29</title>
<g id="a_node29"><a xlink:title=" ">
<polygon fill="none" stroke="#bfbfbf" points="1622.5,-118 1622.5,-137 1738.5,-137 1738.5,-118 1622.5,-118"/>
<text text-anchor="middle" x="1680.5" y="-125" font-family="Helvetica,sans-Serif" font-size="10.00">cereal/types/set.hpp</text>
</a>
</g>
</g>
<!-- Node2&#45;&gt;Node29 -->
<g id="edge31" class="edge">
<title>Node2&#45;&gt;Node29</title>
<path fill="none" stroke="midnightblue" d="M1741.92,-184.73C1730.53,-174.31 1711.31,-156.71 1697.4,-143.97"/>
<polygon fill="midnightblue" stroke="midnightblue" points="1699.66,-141.3 1689.92,-137.13 1694.94,-146.46 1699.66,-141.3"/>
</g>
<!-- Node30 -->
<g id="node30" class="node">
<title>Node30</title>
<g id="a_node30"><a xlink:title=" ">
<polygon fill="none" stroke="#bfbfbf" points="1757,-118 1757,-137 1888,-137 1888,-118 1757,-118"/>
<text text-anchor="middle" x="1822.5" y="-125" font-family="Helvetica,sans-Serif" font-size="10.00">cereal/types/vector.hpp</text>
</a>
</g>
</g>
<!-- Node2&#45;&gt;Node30 -->
<g id="edge32" class="edge">
<title>Node2&#45;&gt;Node30</title>
<path fill="none" stroke="midnightblue" d="M1761.08,-184.73C1772.47,-174.31 1791.69,-156.71 1805.6,-143.97"/>
<polygon fill="midnightblue" stroke="midnightblue" points="1808.06,-146.46 1813.08,-137.13 1803.34,-141.3 1808.06,-146.46"/>
</g>
<!-- Node31 -->
<g id="node31" class="node">
<title>Node31</title>
<g id="a_node31"><a xlink:title=" ">
<polygon fill="none" stroke="#bfbfbf" points="1906.5,-118 1906.5,-137 1938.5,-137 1938.5,-118 1906.5,-118"/>
<text text-anchor="middle" x="1922.5" y="-125" font-family="Helvetica,sans-Serif" font-size="10.00">set</text>
</a>
</g>
</g>
<!-- Node2&#45;&gt;Node31 -->
<g id="edge36" class="edge">
<title>Node2&#45;&gt;Node31</title>
<path fill="none" stroke="midnightblue" d="M1781.52,-184.97C1811.5,-176.03 1858.6,-160.81 1897.5,-143 1898.2,-142.68 1898.91,-142.34 1899.62,-142"/>
<polygon fill="midnightblue" stroke="midnightblue" points="1901.57,-144.92 1908.74,-137.12 1898.27,-138.75 1901.57,-144.92"/>
</g>
<!-- Node32 -->
<g id="node32" class="node">
<title>Node32</title>
<g id="a_node32"><a xlink:title=" ">
<polygon fill="none" stroke="#bfbfbf" points="1957,-118 1957,-137 2004,-137 2004,-118 1957,-118"/>
<text text-anchor="middle" x="1980.5" y="-125" font-family="Helvetica,sans-Serif" font-size="10.00">vector</text>
</a>
</g>
</g>
<!-- Node2&#45;&gt;Node32 -->
<g id="edge37" class="edge">
<title>Node2&#45;&gt;Node32</title>
<path fill="none" stroke="midnightblue" d="M1792.61,-184.94C1832.67,-176.13 1895.03,-161.15 1947.5,-143 1949.36,-142.36 1951.27,-141.65 1953.17,-140.91"/>
<polygon fill="midnightblue" stroke="midnightblue" points="1954.66,-144.08 1962.55,-137.01 1951.98,-137.62 1954.66,-144.08"/>
</g>
<!-- Node3&#45;&gt;Node4 -->
<g id="edge3" class="edge">
<title>Node3&#45;&gt;Node4</title>
<path fill="none" stroke="midnightblue" d="M2320.97,-120.08C2267.41,-109.16 2158.77,-87.02 2100.14,-75.08"/>
<polygon fill="midnightblue" stroke="midnightblue" points="2100.65,-71.61 2090.15,-73.04 2099.25,-78.47 2100.65,-71.61"/>
</g>
<!-- Node6 -->
<g id="node6" class="node">
<title>Node6</title>
<g id="a_node6"><a xlink:title=" ">
<polygon fill="none" stroke="#bfbfbf" points="2631.5,-0.5 2631.5,-19.5 2673.5,-19.5 2673.5,-0.5 2631.5,-0.5"/>
<text text-anchor="middle" x="2652.5" y="-7.5" font-family="Helvetica,sans-Serif" font-size="10.00">array</text>
</a>
</g>
</g>
<!-- Node3&#45;&gt;Node6 -->
<g id="edge11" class="edge">
<title>Node3&#45;&gt;Node6</title>
<path fill="none" stroke="midnightblue" d="M2384.11,-124.92C2449.61,-121.01 2597.1,-108.72 2633.5,-76 2646.46,-64.35 2650.78,-44.4 2652.12,-29.67"/>
<polygon fill="midnightblue" stroke="midnightblue" points="2655.62,-29.82 2652.66,-19.64 2648.63,-29.44 2655.62,-29.82"/>
</g>
<!-- Node12 -->
<g id="node12" class="node">
<title>Node12</title>
<g id="a_node12"><a xlink:title=" ">
<polygon fill="none" stroke="#bfbfbf" points="2293,-56.5 2293,-75.5 2340,-75.5 2340,-56.5 2293,-56.5"/>
<text text-anchor="middle" x="2316.5" y="-63.5" font-family="Helvetica,sans-Serif" font-size="10.00">cmath</text>
</a>
</g>
</g>
<!-- Node3&#45;&gt;Node12 -->
<g id="edge12" class="edge">
<title>Node3&#45;&gt;Node12</title>
<path fill="none" stroke="midnightblue" d="M2347.34,-117.98C2342.05,-109.23 2333.66,-95.37 2326.97,-84.31"/>
<polygon fill="midnightblue" stroke="midnightblue" points="2329.82,-82.25 2321.65,-75.51 2323.83,-85.88 2329.82,-82.25"/>
</g>
<!-- Node13 -->
<g id="node13" class="node">
<title>Node13</title>
<g id="a_node13"><a xlink:title=" ">
<polygon fill="none" stroke="#bfbfbf" points="2358.5,-56.5 2358.5,-75.5 2418.5,-75.5 2418.5,-56.5 2358.5,-56.5"/>
<text text-anchor="middle" x="2388.5" y="-63.5" font-family="Helvetica,sans-Serif" font-size="10.00">iostream</text>
</a>
</g>
</g>
<!-- Node3&#45;&gt;Node13 -->
<g id="edge13" class="edge">
<title>Node3&#45;&gt;Node13</title>
<path fill="none" stroke="midnightblue" d="M2357.66,-117.98C2362.95,-109.23 2371.34,-95.37 2378.03,-84.31"/>
<polygon fill="midnightblue" stroke="midnightblue" points="2381.17,-85.88 2383.35,-75.51 2375.18,-82.25 2381.17,-85.88"/>
</g>
<!-- Node14 -->
<g id="node14" class="node">
<title>Node14</title>
<g id="a_node14"><a xlink:title=" ">
<polygon fill="none" stroke="#bfbfbf" points="2436.5,-56.5 2436.5,-75.5 2480.5,-75.5 2480.5,-56.5 2436.5,-56.5"/>
<text text-anchor="middle" x="2458.5" y="-63.5" font-family="Helvetica,sans-Serif" font-size="10.00">string</text>
</a>
</g>
</g>
<!-- Node3&#45;&gt;Node14 -->
<g id="edge14" class="edge">
<title>Node3&#45;&gt;Node14</title>
<path fill="none" stroke="midnightblue" d="M2367.69,-117.98C2385.16,-108.17 2414.08,-91.93 2434.58,-80.42"/>
<polygon fill="midnightblue" stroke="midnightblue" points="2436.33,-83.46 2443.34,-75.51 2432.91,-77.35 2436.33,-83.46"/>
</g>
<!-- Node15 -->
<g id="node15" class="node">
<title>Node15</title>
<g id="a_node15"><a xlink:title=" ">
<polygon fill="none" stroke="#bfbfbf" points="2499,-56.5 2499,-75.5 2624,-75.5 2624,-56.5 2499,-56.5"/>
<text text-anchor="middle" x="2561.5" y="-63.5" font-family="Helvetica,sans-Serif" font-size="10.00">cereal/types/array.hpp</text>
</a>
</g>
</g>
<!-- Node3&#45;&gt;Node15 -->
<g id="edge15" class="edge">
<title>Node3&#45;&gt;Node15</title>
<path fill="none" stroke="midnightblue" d="M2382.44,-117.98C2419.07,-107.55 2481.2,-89.86 2521.78,-78.31"/>
<polygon fill="midnightblue" stroke="midnightblue" points="2522.95,-81.61 2531.61,-75.51 2521.03,-74.88 2522.95,-81.61"/>
</g>
<!-- Node16 -->
<g id="node16" class="node">
<title>Node16</title>
<g id="a_node16"><a xlink:title=" ">
<polygon fill="none" stroke="#bfbfbf" points="2146.5,-56.5 2146.5,-75.5 2274.5,-75.5 2274.5,-56.5 2146.5,-56.5"/>
<text text-anchor="middle" x="2210.5" y="-63.5" font-family="Helvetica,sans-Serif" font-size="10.00">cereal/types/string.hpp</text>
</a>
</g>
</g>
<!-- Node3&#45;&gt;Node16 -->
<g id="edge16" class="edge">
<title>Node3&#45;&gt;Node16</title>
<path fill="none" stroke="midnightblue" d="M2332.15,-117.98C2308.11,-107.9 2267.9,-91.05 2240.34,-79.5"/>
<polygon fill="midnightblue" stroke="midnightblue" points="2241.38,-76.15 2230.81,-75.51 2238.68,-82.6 2241.38,-76.15"/>
</g>
<!-- Node4&#45;&gt;Node5 -->
<g id="edge4" class="edge">
<title>Node4&#45;&gt;Node5</title>
<path fill="none" stroke="midnightblue" d="M2084.27,-56.44C2109.39,-47.4 2149.21,-33.06 2177.4,-22.92"/>
<polygon fill="midnightblue" stroke="midnightblue" points="2178.62,-26.2 2186.84,-19.52 2176.25,-19.61 2178.62,-26.2"/>
</g>
<!-- Node4&#45;&gt;Node6 -->
<g id="edge5" class="edge">
<title>Node4&#45;&gt;Node6</title>
<path fill="none" stroke="midnightblue" d="M2090.1,-61.34C2104.4,-59.62 2121.83,-57.6 2137.5,-56 2320.42,-37.32 2540.38,-19.72 2620.96,-13.43"/>
<polygon fill="midnightblue" stroke="midnightblue" points="2621.69,-16.89 2631.39,-12.62 2621.14,-9.91 2621.69,-16.89"/>
</g>
<!-- Node4&#45;&gt;Node7 -->
<g id="edge6" class="edge">
<title>Node4&#45;&gt;Node7</title>
<path fill="none" stroke="midnightblue" d="M2030.94,-62.98C1909.43,-54.69 1448.42,-23.21 1309.41,-13.72"/>
<polygon fill="midnightblue" stroke="midnightblue" points="1309.43,-10.22 1299.21,-13.03 1308.95,-17.2 1309.43,-10.22"/>
</g>
<!-- Node4&#45;&gt;Node8 -->
<g id="edge7" class="edge">
<title>Node4&#45;&gt;Node8</title>
<path fill="none" stroke="midnightblue" d="M2034.2,-56.44C2006.15,-47.32 1961.56,-32.81 1930.32,-22.65"/>
<polygon fill="midnightblue" stroke="midnightblue" points="1931.27,-19.28 1920.68,-19.52 1929.11,-25.94 1931.27,-19.28"/>
</g>
<!-- Node9 -->
<g id="node9" class="node">
<title>Node9</title>
<g id="a_node9"><a xlink:title=" ">
<polygon fill="none" stroke="#bfbfbf" points="2106.5,-0.5 2106.5,-19.5 2160.5,-19.5 2160.5,-0.5 2106.5,-0.5"/>
<text text-anchor="middle" x="2133.5" y="-7.5" font-family="Helvetica,sans-Serif" font-size="10.00">random</text>
</a>
</g>
</g>
<!-- Node4&#45;&gt;Node9 -->
<g id="edge8" class="edge">
<title>Node4&#45;&gt;Node9</title>
<path fill="none" stroke="midnightblue" d="M2072.23,-56.32C2083.34,-48.11 2100.24,-35.6 2113.48,-25.81"/>
<polygon fill="midnightblue" stroke="midnightblue" points="2115.6,-28.59 2121.56,-19.83 2111.44,-22.97 2115.6,-28.59"/>
</g>
<!-- Node10 -->
<g id="node10" class="node">
<title>Node10</title>
<g id="a_node10"><a xlink:title=" ">
<polygon fill="none" stroke="#bfbfbf" points="1945,-0.5 1945,-19.5 2014,-19.5 2014,-0.5 1945,-0.5"/>
<text text-anchor="middle" x="1979.5" y="-7.5" font-family="Helvetica,sans-Serif" font-size="10.00">type_traits</text>
</a>
</g>
</g>
<!-- Node4&#45;&gt;Node10 -->
<g id="edge9" class="edge">
<title>Node4&#45;&gt;Node10</title>
<path fill="none" stroke="midnightblue" d="M2047.49,-56.32C2034.97,-47.98 2015.82,-35.21 2001.03,-25.35"/>
<polygon fill="midnightblue" stroke="midnightblue" points="2002.74,-22.29 1992.48,-19.65 1998.86,-28.11 2002.74,-22.29"/>
</g>
<!-- Node11 -->
<g id="node11" class="node">
<title>Node11</title>
<g id="a_node11"><a xlink:title=" ">
<polygon fill="none" stroke="#bfbfbf" points="2032.5,-0.5 2032.5,-19.5 2088.5,-19.5 2088.5,-0.5 2032.5,-0.5"/>
<text text-anchor="middle" x="2060.5" y="-7.5" font-family="Helvetica,sans-Serif" font-size="10.00">unistd.h</text>
</a>
</g>
</g>
<!-- Node4&#45;&gt;Node11 -->
<g id="edge10" class="edge">
<title>Node4&#45;&gt;Node11</title>
<path fill="none" stroke="midnightblue" d="M2060.5,-56.08C2060.5,-49.01 2060.5,-38.86 2060.5,-29.99"/>
<polygon fill="midnightblue" stroke="midnightblue" points="2064,-29.75 2060.5,-19.75 2057,-29.75 2064,-29.75"/>
</g>
<!-- Node18 -->
<g id="node18" class="node">
<title>Node18</title>
<g id="a_node18"><a xlink:title=" ">
<polygon fill="none" stroke="#bfbfbf" points="279.5,-56.5 279.5,-75.5 423.5,-75.5 423.5,-56.5 279.5,-56.5"/>
<text text-anchor="middle" x="351.5" y="-63.5" font-family="Helvetica,sans-Serif" font-size="10.00">cereal/archives/binary.hpp</text>
</a>
</g>
</g>
<!-- Node17&#45;&gt;Node18 -->
<g id="edge18" class="edge">
<title>Node17&#45;&gt;Node18</title>
<path fill="none" stroke="midnightblue" d="M351.5,-117.98C351.5,-109.58 351.5,-96.48 351.5,-85.66"/>
<polygon fill="midnightblue" stroke="midnightblue" points="355,-85.51 351.5,-75.51 348,-85.51 355,-85.51"/>
</g>
<!-- Node19 -->
<g id="node19" class="node">
<title>Node19</title>
<g id="a_node19"><a xlink:title=" ">
<polygon fill="none" stroke="#bfbfbf" points="442,-56.5 442,-75.5 577,-75.5 577,-56.5 442,-56.5"/>
<text text-anchor="middle" x="509.5" y="-63.5" font-family="Helvetica,sans-Serif" font-size="10.00">cereal/archives/json.hpp</text>
</a>
</g>
</g>
<!-- Node17&#45;&gt;Node19 -->
<g id="edge19" class="edge">
<title>Node17&#45;&gt;Node19</title>
<path fill="none" stroke="midnightblue" d="M374.14,-117.98C401.24,-107.77 446.81,-90.61 477.5,-79.05"/>
<polygon fill="midnightblue" stroke="midnightblue" points="478.78,-82.31 486.9,-75.51 476.31,-75.76 478.78,-82.31"/>
</g>
<!-- Node20 -->
<g id="node20" class="node">
<title>Node20</title>
<g id="a_node20"><a xlink:title=" ">
<polygon fill="none" stroke="#bfbfbf" points="595,-56.5 595,-75.5 696,-75.5 696,-56.5 595,-56.5"/>
<text text-anchor="middle" x="645.5" y="-63.5" font-family="Helvetica,sans-Serif" font-size="10.00">cereal/cereal.hpp</text>
</a>
</g>
</g>
<!-- Node17&#45;&gt;Node20 -->
<g id="edge20" class="edge">
<title>Node17&#45;&gt;Node20</title>
<path fill="none" stroke="midnightblue" d="M393.62,-117.98C446.35,-107.3 536.63,-89.03 593.57,-77.51"/>
<polygon fill="midnightblue" stroke="midnightblue" points="594.35,-80.92 603.46,-75.51 592.96,-74.06 594.35,-80.92"/>
</g>
<!-- Node17&#45;&gt;Node21 -->
<g id="edge21" class="edge">
<title>Node17&#45;&gt;Node21</title>
<path fill="none" stroke="midnightblue" d="M308.52,-117.98C254.72,-107.3 162.59,-89.03 104.49,-77.51"/>
<polygon fill="midnightblue" stroke="midnightblue" points="104.89,-74.02 94.4,-75.51 103.53,-80.89 104.89,-74.02"/>
</g>
<!-- Node22 -->
<g id="node22" class="node">
<title>Node22</title>
<g id="a_node22"><a xlink:title=" ">
<polygon fill="none" stroke="#bfbfbf" points="57,-0.5 57,-19.5 126,-19.5 126,-0.5 57,-0.5"/>
<text text-anchor="middle" x="91.5" y="-7.5" font-family="Helvetica,sans-Serif" font-size="10.00">Eigen/Core</text>
</a>
</g>
</g>
<!-- Node17&#45;&gt;Node22 -->
<g id="edge23" class="edge">
<title>Node17&#45;&gt;Node22</title>
<path fill="none" stroke="midnightblue" d="M286.24,-119.91C244.99,-113.46 191.85,-100.79 150.5,-76 130.36,-63.93 113.1,-42.85 102.54,-27.98"/>
<polygon fill="midnightblue" stroke="midnightblue" points="105.39,-25.95 96.87,-19.65 99.61,-29.89 105.39,-25.95"/>
</g>
<!-- Node23 -->
<g id="node23" class="node">
<title>Node23</title>
<g id="a_node23"><a xlink:title=" ">
<polygon fill="none" stroke="#bfbfbf" points="159.5,-56.5 159.5,-75.5 261.5,-75.5 261.5,-56.5 159.5,-56.5"/>
<text text-anchor="middle" x="210.5" y="-63.5" font-family="Helvetica,sans-Serif" font-size="10.00">Eigen/SparseCore</text>
</a>
</g>
</g>
<!-- Node17&#45;&gt;Node23 -->
<g id="edge24" class="edge">
<title>Node17&#45;&gt;Node23</title>
<path fill="none" stroke="midnightblue" d="M331.3,-117.98C307.43,-107.9 267.5,-91.05 240.13,-79.5"/>
<polygon fill="midnightblue" stroke="midnightblue" points="241.24,-76.17 230.66,-75.51 238.52,-82.62 241.24,-76.17"/>
</g>
<!-- Node21&#45;&gt;Node22 -->
<g id="edge22" class="edge">
<title>Node21&#45;&gt;Node22</title>
<path fill="none" stroke="midnightblue" d="M58.11,-56.08C63.76,-48.46 72.04,-37.26 78.95,-27.94"/>
<polygon fill="midnightblue" stroke="midnightblue" points="81.88,-29.87 85.02,-19.75 76.25,-25.7 81.88,-29.87"/>
</g>
<!-- Node33&#45;&gt;Node6 -->
<g id="edge39" class="edge">
<title>Node33&#45;&gt;Node6</title>
<path fill="none" stroke="midnightblue" d="M2334.56,-184.97C2415.42,-160.28 2643.75,-89.6 2653.5,-76 2663.05,-62.68 2661.45,-43.57 2658.27,-29.51"/>
<polygon fill="midnightblue" stroke="midnightblue" points="2661.56,-28.27 2655.56,-19.53 2654.8,-30.1 2661.56,-28.27"/>
</g>
<!-- Node34 -->
<g id="node34" class="node">
<title>Node34</title>
<g id="a_node34"><a xlink:title=" ">
<polygon fill="none" stroke="#bfbfbf" points="2718.5,-118 2718.5,-137 2768.5,-137 2768.5,-118 2718.5,-118"/>
<text text-anchor="middle" x="2743.5" y="-125" font-family="Helvetica,sans-Serif" font-size="10.00">climits</text>
</a>
</g>
</g>
<!-- Node33&#45;&gt;Node34 -->
<g id="edge40" class="edge">
<title>Node33&#45;&gt;Node34</title>
<path fill="none" stroke="midnightblue" d="M2334.36,-184.96C2342.41,-182.75 2351.25,-180.55 2359.5,-179 2511.02,-150.56 2554.39,-178.14 2704.5,-143 2707.57,-142.28 2710.72,-141.39 2713.84,-140.4"/>
<polygon fill="midnightblue" stroke="midnightblue" points="2715.26,-143.61 2723.56,-137.01 2712.96,-137 2715.26,-143.61"/>
</g>
</g>
</svg>
        <g id="navigator" transform="translate(0 0)" fill="#404254">
                <rect fill="#f2f5e9" fill-opacity="0.5" stroke="#606060" stroke-width=".5" x="0" y="0" width="60" height="60"/>
                <use id="zoomplus" xlink:href="#zoomPlus" x="17" y="9" onmousedown="handleZoom(evt,'in')"/>
                <use id="zoomminus" xlink:href="#zoomMin" x="42" y="9" onmousedown="handleZoom(evt,'out')"/>
                <use id="reset" xlink:href="#resetDef" x="30" y="36" onmousedown="handleReset()"/>
                <g id="arrowUp" xlink:href="#dirArrow" transform="translate(30 24)" onmousedown="handlePan(0,-1)">
                  <use xlink:href="#rim" fill="#404040">
                        <set attributeName="fill" to="#808080" begin="arrowUp.mouseover" end="arrowUp.mouseout"/>
                  </use>
                  <path fill="none" stroke="white" stroke-width="1.5" d="M0,-3.0v7 M-2.5,-0.5L0,-3.0L2.5,-0.5"/>
                </g>
                <g id="arrowRight" xlink:href="#dirArrow" transform="rotate(90) translate(36 -43)" onmousedown="handlePan(1,0)">
                  <use xlink:href="#rim" fill="#404040">
                        <set attributeName="fill" to="#808080" begin="arrowRight.mouseover" end="arrowRight.mouseout"/>
                  </use>
                  <path fill="none" stroke="white" stroke-width="1.5" d="M0,-3.0v7 M-2.5,-0.5L0,-3.0L2.5,-0.5"/>
                </g>
                <g id="arrowDown" xlink:href="#dirArrow" transform="rotate(180) translate(-30 -48)" onmousedown="handlePan(0,1)">
                  <use xlink:href="#rim" fill="#404040">
                        <set attributeName="fill" to="#808080" begin="arrowDown.mouseover" end="arrowDown.mouseout"/>
                  </use>
                  <path fill="none" stroke="white" stroke-width="1.5" d="M0,-3.0v7 M-2.5,-0.5L0,-3.0L2.5,-0.5"/>
                </g>
                <g id="arrowLeft" xlink:href="#dirArrow" transform="rotate(270) translate(-36 17)" onmousedown="handlePan(-1,0)">
                  <use xlink:href="#rim" fill="#404040">
                        <set attributeName="fill" to="#808080" begin="arrowLeft.mouseover" end="arrowLeft.mouseout"/>
                  </use>
                  <path fill="none" stroke="white" stroke-width="1.5" d="M0,-3.0v7 M-2.5,-0.5L0,-3.0L2.5,-0.5"/>
                </g>
        </g>
        <svg viewBox="0 0 15 15" width="100%" height="30px" preserveAspectRatio="xMaxYMin meet">
         <g id="arrow_out" transform="scale(0.3 0.3)">
          <a xlink:href="SystemBase_8cpp__incl_org.svg" target="_base">
           <rect id="button" ry="5" rx="5" y="6" x="6" height="38" width="38"
                fill="#f2f5e9" fill-opacity="0.5" stroke="#606060" stroke-width="1.0"/>
           <path id="arrow"
             d="M 11.500037,31.436501 C 11.940474,20.09759 22.043105,11.32322 32.158766,21.979434 L 37.068811,17.246167 C 37.068811,17.246167 37.088388,32 37.088388,32 L 22.160133,31.978069 C 22.160133,31.978069 26.997745,27.140456 26.997745,27.140456 C 18.528582,18.264221 13.291696,25.230495 11.500037,31.436501 z"
             style="fill:#404040;"/>
          </a>
         </g>
        </svg>
</svg>
