<?xml version="1.0" encoding="UTF-8" standalone="no"?>
<!DOCTYPE svg PUBLIC "-//W3C//DTD SVG 1.1//EN"
 "http://www.w3.org/Graphics/SVG/1.1/DTD/svg11.dtd">
<!-- Generated by graphviz version 2.43.0 (0)
 -->
<!-- Title: /__w/pairinteraction/pairinteraction/pairinteraction/SystemTwo.hpp Pages: 1 -->
<svg width="2749pt" height="352pt"
 viewBox="0.00 0.00 2749.00 352.00" xmlns="http://www.w3.org/2000/svg" xmlns:xlink="http://www.w3.org/1999/xlink">
<g id="graph0" class="graph" transform="scale(1 1) rotate(0) translate(4 348)">
<title>/__w/pairinteraction/pairinteraction/pairinteraction/SystemTwo.hpp</title>
<!-- Node1 -->
<g id="node1" class="node">
<title>Node1</title>
<g id="a_node1"><a xlink:title=" ">
<polygon fill="#bfbfbf" stroke="black" points="1190,-302.5 1190,-343.5 1355,-343.5 1355,-302.5 1190,-302.5"/>
<text text-anchor="start" x="1198" y="-331.5" font-family="Helvetica,sans-Serif" font-size="10.00">/__w/pairinteraction</text>
<text text-anchor="start" x="1198" y="-320.5" font-family="Helvetica,sans-Serif" font-size="10.00">/pairinteraction/pairinteraction</text>
<text text-anchor="middle" x="1272.5" y="-309.5" font-family="Helvetica,sans-Serif" font-size="10.00">/SystemTwo.hpp</text>
</a>
</g>
</g>
<!-- Node2 -->
<g id="node2" class="node">
<title>Node2</title>
<g id="a_node2"><a xlink:href="State_8hpp.html" target="_top" xlink:title=" ">
<polygon fill="none" stroke="black" points="887,-118 887,-137 950,-137 950,-118 887,-118"/>
<text text-anchor="middle" x="918.5" y="-125" font-family="Helvetica,sans-Serif" font-size="10.00">State.hpp</text>
</a>
</g>
</g>
<!-- Node1&#45;&gt;Node2 -->
<g id="edge1" class="edge">
<title>Node1&#45;&gt;Node2</title>
<path fill="none" stroke="midnightblue" d="M1189.89,-315.9C1067.11,-304.71 846.86,-275.75 809.5,-210 802.69,-198.02 802.08,-190.61 809.5,-179 814.06,-171.86 856.71,-153.45 887.28,-140.95"/>
<polygon fill="midnightblue" stroke="midnightblue" points="888.77,-144.12 896.72,-137.12 886.14,-137.64 888.77,-144.12"/>
</g>
<!-- Node9 -->
<g id="node9" class="node">
<title>Node9</title>
<g id="a_node9"><a xlink:title=" ">
<polygon fill="none" stroke="#bfbfbf" points="2195,-0.5 2195,-19.5 2264,-19.5 2264,-0.5 2195,-0.5"/>
<text text-anchor="middle" x="2229.5" y="-7.5" font-family="Helvetica,sans-Serif" font-size="10.00">type_traits</text>
</a>
</g>
</g>
<!-- Node1&#45;&gt;Node9 -->
<g id="edge71" class="edge">
<title>Node1&#45;&gt;Node9</title>
<path fill="none" stroke="midnightblue" d="M1355.16,-321.29C1525.31,-318.96 1926.73,-308.95 2260.5,-266 2417.45,-245.8 2609.5,-353.74 2609.5,-195.5 2609.5,-195.5 2609.5,-195.5 2609.5,-126.5 2609.5,-94.05 2614.99,-77.29 2590.5,-56 2544.24,-15.77 2360.51,-10.68 2274.43,-10.57"/>
<polygon fill="midnightblue" stroke="midnightblue" points="2274.18,-7.07 2264.19,-10.58 2274.19,-14.07 2274.18,-7.07"/>
</g>
<!-- Node11 -->
<g id="node11" class="node">
<title>Node11</title>
<g id="a_node11"><a xlink:title=" ">
<polygon fill="none" stroke="#bfbfbf" points="233,-56.5 233,-75.5 280,-75.5 280,-56.5 233,-56.5"/>
<text text-anchor="middle" x="256.5" y="-63.5" font-family="Helvetica,sans-Serif" font-size="10.00">cmath</text>
</a>
</g>
</g>
<!-- Node1&#45;&gt;Node11 -->
<g id="edge69" class="edge">
<title>Node1&#45;&gt;Node11</title>
<path fill="none" stroke="midnightblue" d="M1189.99,-318.87C958.41,-309.28 315.01,-276.82 249.5,-210 216.81,-176.66 235.87,-115.25 248.33,-84.92"/>
<polygon fill="midnightblue" stroke="midnightblue" points="251.61,-86.15 252.36,-75.58 245.18,-83.37 251.61,-86.15"/>
</g>
<!-- Node14 -->
<g id="node14" class="node">
<title>Node14</title>
<g id="a_node14"><a xlink:title=" ">
<polygon fill="none" stroke="#bfbfbf" points="0,-56.5 0,-75.5 125,-75.5 125,-56.5 0,-56.5"/>
<text text-anchor="middle" x="62.5" y="-63.5" font-family="Helvetica,sans-Serif" font-size="10.00">cereal/types/array.hpp</text>
</a>
</g>
</g>
<!-- Node1&#45;&gt;Node14 -->
<g id="edge64" class="edge">
<title>Node1&#45;&gt;Node14</title>
<path fill="none" stroke="midnightblue" d="M1189.81,-320.83C994.16,-317.44 507.45,-305.21 349.5,-266 221.13,-234.13 161.27,-246.17 78.5,-143 65.47,-126.76 62.34,-102.47 61.9,-85.75"/>
<polygon fill="midnightblue" stroke="midnightblue" points="65.4,-85.58 61.95,-75.57 58.41,-85.55 65.4,-85.58"/>
</g>
<!-- Node15 -->
<g id="node15" class="node">
<title>Node15</title>
<g id="a_node15"><a xlink:title=" ">
<polygon fill="none" stroke="#bfbfbf" points="1664.5,-56.5 1664.5,-75.5 1792.5,-75.5 1792.5,-56.5 1664.5,-56.5"/>
<text text-anchor="middle" x="1728.5" y="-63.5" font-family="Helvetica,sans-Serif" font-size="10.00">cereal/types/string.hpp</text>
</a>
</g>
</g>
<!-- Node1&#45;&gt;Node15 -->
<g id="edge67" class="edge">
<title>Node1&#45;&gt;Node15</title>
<path fill="none" stroke="midnightblue" d="M1355.35,-321.43C1585.5,-317.93 2224.05,-294.49 2352.5,-143 2361.41,-132.49 2361.89,-122.09 2352.5,-112 2334.03,-92.15 1964.51,-75.88 1802.99,-69.69"/>
<polygon fill="midnightblue" stroke="midnightblue" points="1802.78,-66.18 1792.66,-69.3 1802.52,-73.17 1802.78,-66.18"/>
</g>
<!-- Node16 -->
<g id="node16" class="node">
<title>Node16</title>
<g id="a_node16"><a xlink:href="SystemBase_8hpp.html" target="_top" xlink:title=" ">
<polygon fill="none" stroke="black" points="1133.5,-185 1133.5,-204 1231.5,-204 1231.5,-185 1133.5,-185"/>
<text text-anchor="middle" x="1182.5" y="-192" font-family="Helvetica,sans-Serif" font-size="10.00">SystemBase.hpp</text>
</a>
</g>
</g>
<!-- Node1&#45;&gt;Node16 -->
<g id="edge16" class="edge">
<title>Node1&#45;&gt;Node16</title>
<path fill="none" stroke="midnightblue" d="M1258.44,-302.23C1240.89,-277.57 1211.19,-235.82 1194.61,-212.52"/>
<polygon fill="midnightblue" stroke="midnightblue" points="1197.41,-210.41 1188.76,-204.29 1191.7,-214.47 1197.41,-210.41"/>
</g>
<!-- Node21 -->
<g id="node21" class="node">
<title>Node21</title>
<g id="a_node21"><a xlink:href="EigenCompat_8hpp.html" target="_top" xlink:title=" ">
<polygon fill="none" stroke="black" points="2638,-56.5 2638,-75.5 2741,-75.5 2741,-56.5 2638,-56.5"/>
<text text-anchor="middle" x="2689.5" y="-63.5" font-family="Helvetica,sans-Serif" font-size="10.00">EigenCompat.hpp</text>
</a>
</g>
</g>
<!-- Node1&#45;&gt;Node21 -->
<g id="edge61" class="edge">
<title>Node1&#45;&gt;Node21</title>
<path fill="none" stroke="midnightblue" d="M1355.44,-321.14C1641.59,-317.85 2572.77,-304.24 2623.5,-266 2681.29,-222.43 2689.13,-126.49 2689.74,-85.82"/>
<polygon fill="midnightblue" stroke="midnightblue" points="2693.24,-85.7 2689.76,-75.69 2686.24,-85.69 2693.24,-85.7"/>
</g>
<!-- Node23 -->
<g id="node23" class="node">
<title>Node23</title>
<g id="a_node23"><a xlink:title=" ">
<polygon fill="none" stroke="#bfbfbf" points="2479.5,-56.5 2479.5,-75.5 2581.5,-75.5 2581.5,-56.5 2479.5,-56.5"/>
<text text-anchor="middle" x="2530.5" y="-63.5" font-family="Helvetica,sans-Serif" font-size="10.00">Eigen/SparseCore</text>
</a>
</g>
</g>
<!-- Node1&#45;&gt;Node23 -->
<g id="edge62" class="edge">
<title>Node1&#45;&gt;Node23</title>
<path fill="none" stroke="midnightblue" d="M1355.24,-322.03C1505.15,-320.85 1831.22,-312.56 2101.5,-266 2300.76,-231.67 2417.37,-304.15 2539.5,-143 2552.13,-126.34 2545.83,-101.45 2539.11,-84.74"/>
<polygon fill="midnightblue" stroke="midnightblue" points="2542.28,-83.26 2535.03,-75.54 2535.88,-86.1 2542.28,-83.26"/>
</g>
<!-- Node31 -->
<g id="node31" class="node">
<title>Node31</title>
<g id="a_node31"><a xlink:title=" ">
<polygon fill="none" stroke="#bfbfbf" points="1006.5,-118 1006.5,-137 1038.5,-137 1038.5,-118 1006.5,-118"/>
<text text-anchor="middle" x="1022.5" y="-125" font-family="Helvetica,sans-Serif" font-size="10.00">set</text>
</a>
</g>
</g>
<!-- Node1&#45;&gt;Node31 -->
<g id="edge70" class="edge">
<title>Node1&#45;&gt;Node31</title>
<path fill="none" stroke="midnightblue" d="M1246.14,-302.38C1216.42,-280.18 1166.72,-242.84 1124.5,-210 1095.07,-187.11 1061.34,-159.99 1041,-143.52"/>
<polygon fill="midnightblue" stroke="midnightblue" points="1043.12,-140.74 1033.15,-137.16 1038.71,-146.17 1043.12,-140.74"/>
</g>
<!-- Node33 -->
<g id="node33" class="node">
<title>Node33</title>
<g id="a_node33"><a xlink:href="SystemOne_8hpp.html" target="_top" xlink:title=" ">
<polygon fill="none" stroke="black" points="912.5,-246.5 912.5,-265.5 1006.5,-265.5 1006.5,-246.5 912.5,-246.5"/>
<text text-anchor="middle" x="959.5" y="-253.5" font-family="Helvetica,sans-Serif" font-size="10.00">SystemOne.hpp</text>
</a>
</g>
</g>
<!-- Node1&#45;&gt;Node33 -->
<g id="edge39" class="edge">
<title>Node1&#45;&gt;Node33</title>
<path fill="none" stroke="midnightblue" d="M1189.85,-304.84C1132.87,-293 1058.94,-277.65 1010.4,-267.57"/>
<polygon fill="midnightblue" stroke="midnightblue" points="1010.95,-264.11 1000.45,-265.5 1009.52,-270.96 1010.95,-264.11"/>
</g>
<!-- Node37 -->
<g id="node37" class="node">
<title>Node37</title>
<g id="a_node37"><a xlink:title=" ">
<polygon fill="none" stroke="#bfbfbf" points="669.5,-112.5 669.5,-142.5 803.5,-142.5 803.5,-112.5 669.5,-112.5"/>
<text text-anchor="start" x="677.5" y="-130.5" font-family="Helvetica,sans-Serif" font-size="10.00">boost/math/special</text>
<text text-anchor="middle" x="736.5" y="-119.5" font-family="Helvetica,sans-Serif" font-size="10.00">_functions/binomial.hpp</text>
</a>
</g>
</g>
<!-- Node1&#45;&gt;Node37 -->
<g id="edge63" class="edge">
<title>Node1&#45;&gt;Node37</title>
<path fill="none" stroke="midnightblue" d="M1189.71,-317.36C1085.01,-310.38 911.5,-294.84 854.5,-266 804.39,-240.65 766.78,-183.78 748.61,-151.69"/>
<polygon fill="midnightblue" stroke="midnightblue" points="751.49,-149.66 743.6,-142.59 745.36,-153.03 751.49,-149.66"/>
</g>
<!-- Node40 -->
<g id="node40" class="node">
<title>Node40</title>
<g id="a_node40"><a xlink:title=" ">
<polygon fill="none" stroke="#bfbfbf" points="1249.5,-185 1249.5,-204 1403.5,-204 1403.5,-185 1249.5,-185"/>
<text text-anchor="middle" x="1326.5" y="-192" font-family="Helvetica,sans-Serif" font-size="10.00">cereal/types/base_class.hpp</text>
</a>
</g>
</g>
<!-- Node1&#45;&gt;Node40 -->
<g id="edge65" class="edge">
<title>Node1&#45;&gt;Node40</title>
<path fill="none" stroke="midnightblue" d="M1280.94,-302.23C1291.28,-278.01 1308.66,-237.29 1318.7,-213.77"/>
<polygon fill="midnightblue" stroke="midnightblue" points="1322.04,-214.87 1322.75,-204.29 1315.6,-212.12 1322.04,-214.87"/>
</g>
<!-- Node41 -->
<g id="node41" class="node">
<title>Node41</title>
<g id="a_node41"><a xlink:title=" ">
<polygon fill="none" stroke="#bfbfbf" points="1422,-185 1422,-204 1583,-204 1583,-185 1422,-185"/>
<text text-anchor="middle" x="1502.5" y="-192" font-family="Helvetica,sans-Serif" font-size="10.00">cereal/types/polymorphic.hpp</text>
</a>
</g>
</g>
<!-- Node1&#45;&gt;Node41 -->
<g id="edge66" class="edge">
<title>Node1&#45;&gt;Node41</title>
<path fill="none" stroke="midnightblue" d="M1308.19,-302.37C1355.38,-276.42 1437.31,-231.35 1478.05,-208.95"/>
<polygon fill="midnightblue" stroke="midnightblue" points="1479.94,-211.9 1487.01,-204.02 1476.57,-205.77 1479.94,-211.9"/>
</g>
<!-- Node42 -->
<g id="node42" class="node">
<title>Node42</title>
<g id="a_node42"><a xlink:title=" ">
<polygon fill="none" stroke="#bfbfbf" points="1601,-179.5 1601,-209.5 1730,-209.5 1730,-179.5 1601,-179.5"/>
<text text-anchor="start" x="1609" y="-197.5" font-family="Helvetica,sans-Serif" font-size="10.00">cereal/types/unordered</text>
<text text-anchor="middle" x="1665.5" y="-186.5" font-family="Helvetica,sans-Serif" font-size="10.00">_map.hpp</text>
</a>
</g>
</g>
<!-- Node1&#45;&gt;Node42 -->
<g id="edge68" class="edge">
<title>Node1&#45;&gt;Node42</title>
<path fill="none" stroke="midnightblue" d="M1333.48,-302.37C1409.77,-277.82 1539.2,-236.15 1611.87,-212.76"/>
<polygon fill="midnightblue" stroke="midnightblue" points="1613.29,-215.98 1621.74,-209.59 1611.15,-209.32 1613.29,-215.98"/>
</g>
<!-- Node3 -->
<g id="node3" class="node">
<title>Node3</title>
<g id="a_node3"><a xlink:href="utils_8hpp.html" target="_top" xlink:title=" ">
<polygon fill="none" stroke="black" points="1235,-56.5 1235,-75.5 1294,-75.5 1294,-56.5 1235,-56.5"/>
<text text-anchor="middle" x="1264.5" y="-63.5" font-family="Helvetica,sans-Serif" font-size="10.00">utils.hpp</text>
</a>
</g>
</g>
<!-- Node2&#45;&gt;Node3 -->
<g id="edge2" class="edge">
<title>Node2&#45;&gt;Node3</title>
<path fill="none" stroke="midnightblue" d="M943.13,-117.95C949.99,-115.79 957.48,-113.62 964.5,-112 1056.52,-90.73 1166.84,-77.18 1224.66,-70.97"/>
<polygon fill="midnightblue" stroke="midnightblue" points="1225.25,-74.42 1234.83,-69.89 1224.52,-67.46 1225.25,-74.42"/>
</g>
<!-- Node5 -->
<g id="node5" class="node">
<title>Node5</title>
<g id="a_node5"><a xlink:title=" ">
<polygon fill="none" stroke="#bfbfbf" points="391.5,-0.5 391.5,-19.5 433.5,-19.5 433.5,-0.5 391.5,-0.5"/>
<text text-anchor="middle" x="412.5" y="-7.5" font-family="Helvetica,sans-Serif" font-size="10.00">array</text>
</a>
</g>
</g>
<!-- Node2&#45;&gt;Node5 -->
<g id="edge10" class="edge">
<title>Node2&#45;&gt;Node5</title>
<path fill="none" stroke="midnightblue" d="M895.68,-117.86C889.8,-115.79 883.46,-113.69 877.5,-112 716.55,-66.26 519.21,-29.67 443.81,-16.39"/>
<polygon fill="midnightblue" stroke="midnightblue" points="444.04,-12.88 433.59,-14.6 442.84,-19.77 444.04,-12.88"/>
</g>
<!-- Node2&#45;&gt;Node11 -->
<g id="edge11" class="edge">
<title>Node2&#45;&gt;Node11</title>
<path fill="none" stroke="midnightblue" d="M897.53,-117.87C891.19,-115.6 884.15,-113.39 877.5,-112 763.72,-88.21 402.84,-72.63 290.33,-68.26"/>
<polygon fill="midnightblue" stroke="midnightblue" points="290.36,-64.76 280.24,-67.87 290.1,-71.75 290.36,-64.76"/>
</g>
<!-- Node12 -->
<g id="node12" class="node">
<title>Node12</title>
<g id="a_node12"><a xlink:title=" ">
<polygon fill="none" stroke="#bfbfbf" points="853.5,-56.5 853.5,-75.5 913.5,-75.5 913.5,-56.5 853.5,-56.5"/>
<text text-anchor="middle" x="883.5" y="-63.5" font-family="Helvetica,sans-Serif" font-size="10.00">iostream</text>
</a>
</g>
</g>
<!-- Node2&#45;&gt;Node12 -->
<g id="edge12" class="edge">
<title>Node2&#45;&gt;Node12</title>
<path fill="none" stroke="midnightblue" d="M913.49,-117.98C908.34,-109.23 900.19,-95.37 893.68,-84.31"/>
<polygon fill="midnightblue" stroke="midnightblue" points="896.59,-82.35 888.51,-75.51 890.56,-85.9 896.59,-82.35"/>
</g>
<!-- Node13 -->
<g id="node13" class="node">
<title>Node13</title>
<g id="a_node13"><a xlink:title=" ">
<polygon fill="none" stroke="#bfbfbf" points="931.5,-56.5 931.5,-75.5 975.5,-75.5 975.5,-56.5 931.5,-56.5"/>
<text text-anchor="middle" x="953.5" y="-63.5" font-family="Helvetica,sans-Serif" font-size="10.00">string</text>
</a>
</g>
</g>
<!-- Node2&#45;&gt;Node13 -->
<g id="edge13" class="edge">
<title>Node2&#45;&gt;Node13</title>
<path fill="none" stroke="midnightblue" d="M923.51,-117.98C928.66,-109.23 936.81,-95.37 943.32,-84.31"/>
<polygon fill="midnightblue" stroke="midnightblue" points="946.44,-85.9 948.49,-75.51 940.41,-82.35 946.44,-85.9"/>
</g>
<!-- Node2&#45;&gt;Node14 -->
<g id="edge14" class="edge">
<title>Node2&#45;&gt;Node14</title>
<path fill="none" stroke="midnightblue" d="M897.97,-117.95C891.52,-115.62 884.31,-113.36 877.5,-112 592.05,-54.89 514.16,-92.12 223.5,-76 194.62,-74.4 162.83,-72.62 135.18,-71.08"/>
<polygon fill="midnightblue" stroke="midnightblue" points="135.38,-67.58 125.2,-70.52 134.98,-74.57 135.38,-67.58"/>
</g>
<!-- Node2&#45;&gt;Node15 -->
<g id="edge15" class="edge">
<title>Node2&#45;&gt;Node15</title>
<path fill="none" stroke="midnightblue" d="M950.27,-119.77C964.63,-116.96 981.86,-113.91 997.5,-112 1236.44,-82.82 1521.76,-72.19 1654.18,-68.63"/>
<polygon fill="midnightblue" stroke="midnightblue" points="1654.31,-72.13 1664.22,-68.37 1654.13,-65.13 1654.31,-72.13"/>
</g>
<!-- Node4 -->
<g id="node4" class="node">
<title>Node4</title>
<g id="a_node4"><a xlink:title=" ">
<polygon fill="none" stroke="#bfbfbf" points="1518.5,-0.5 1518.5,-19.5 1582.5,-19.5 1582.5,-0.5 1518.5,-0.5"/>
<text text-anchor="middle" x="1550.5" y="-7.5" font-family="Helvetica,sans-Serif" font-size="10.00">algorithm</text>
</a>
</g>
</g>
<!-- Node3&#45;&gt;Node4 -->
<g id="edge3" class="edge">
<title>Node3&#45;&gt;Node4</title>
<path fill="none" stroke="midnightblue" d="M1294.03,-59.42C1344.92,-49.82 1449.33,-30.1 1508.02,-19.02"/>
<polygon fill="midnightblue" stroke="midnightblue" points="1508.9,-22.42 1518.08,-17.12 1507.6,-15.54 1508.9,-22.42"/>
</g>
<!-- Node3&#45;&gt;Node5 -->
<g id="edge4" class="edge">
<title>Node3&#45;&gt;Node5</title>
<path fill="none" stroke="midnightblue" d="M1234.68,-63.11C1103.47,-54.79 578.17,-21.5 443.89,-12.99"/>
<polygon fill="midnightblue" stroke="midnightblue" points="443.71,-9.47 433.51,-12.33 443.26,-16.46 443.71,-9.47"/>
</g>
<!-- Node6 -->
<g id="node6" class="node">
<title>Node6</title>
<g id="a_node6"><a xlink:title=" ">
<polygon fill="none" stroke="#bfbfbf" points="1037,-0.5 1037,-19.5 1096,-19.5 1096,-0.5 1037,-0.5"/>
<text text-anchor="middle" x="1066.5" y="-7.5" font-family="Helvetica,sans-Serif" font-size="10.00">complex</text>
</a>
</g>
</g>
<!-- Node3&#45;&gt;Node6 -->
<g id="edge5" class="edge">
<title>Node3&#45;&gt;Node6</title>
<path fill="none" stroke="midnightblue" d="M1234.86,-56.92C1200.49,-47.54 1143.72,-32.06 1105.73,-21.7"/>
<polygon fill="midnightblue" stroke="midnightblue" points="1106.59,-18.31 1096.02,-19.05 1104.75,-25.06 1106.59,-18.31"/>
</g>
<!-- Node7 -->
<g id="node7" class="node">
<title>Node7</title>
<g id="a_node7"><a xlink:title=" ">
<polygon fill="none" stroke="#bfbfbf" points="1738,-0.5 1738,-19.5 1803,-19.5 1803,-0.5 1738,-0.5"/>
<text text-anchor="middle" x="1770.5" y="-7.5" font-family="Helvetica,sans-Serif" font-size="10.00">functional</text>
</a>
</g>
</g>
<!-- Node3&#45;&gt;Node7 -->
<g id="edge6" class="edge">
<title>Node3&#45;&gt;Node7</title>
<path fill="none" stroke="midnightblue" d="M1294.26,-61.82C1379.99,-52.67 1627.71,-26.24 1727.8,-15.56"/>
<polygon fill="midnightblue" stroke="midnightblue" points="1728.28,-19.03 1737.86,-14.48 1727.54,-12.06 1728.28,-19.03"/>
</g>
<!-- Node8 -->
<g id="node8" class="node">
<title>Node8</title>
<g id="a_node8"><a xlink:title=" ">
<polygon fill="none" stroke="#bfbfbf" points="1200.5,-0.5 1200.5,-19.5 1254.5,-19.5 1254.5,-0.5 1200.5,-0.5"/>
<text text-anchor="middle" x="1227.5" y="-7.5" font-family="Helvetica,sans-Serif" font-size="10.00">random</text>
</a>
</g>
</g>
<!-- Node3&#45;&gt;Node8 -->
<g id="edge7" class="edge">
<title>Node3&#45;&gt;Node8</title>
<path fill="none" stroke="midnightblue" d="M1258.39,-56.08C1253.22,-48.53 1245.65,-37.49 1239.31,-28.23"/>
<polygon fill="midnightblue" stroke="midnightblue" points="1242.04,-26.02 1233.5,-19.75 1236.26,-29.98 1242.04,-26.02"/>
</g>
<!-- Node3&#45;&gt;Node9 -->
<g id="edge8" class="edge">
<title>Node3&#45;&gt;Node9</title>
<path fill="none" stroke="midnightblue" d="M1294.17,-63.34C1432.83,-55.58 2017.19,-22.88 2184.54,-13.52"/>
<polygon fill="midnightblue" stroke="midnightblue" points="2185.17,-16.99 2194.95,-12.93 2184.77,-10 2185.17,-16.99"/>
</g>
<!-- Node10 -->
<g id="node10" class="node">
<title>Node10</title>
<g id="a_node10"><a xlink:title=" ">
<polygon fill="none" stroke="#bfbfbf" points="1272.5,-0.5 1272.5,-19.5 1328.5,-19.5 1328.5,-0.5 1272.5,-0.5"/>
<text text-anchor="middle" x="1300.5" y="-7.5" font-family="Helvetica,sans-Serif" font-size="10.00">unistd.h</text>
</a>
</g>
</g>
<!-- Node3&#45;&gt;Node10 -->
<g id="edge9" class="edge">
<title>Node3&#45;&gt;Node10</title>
<path fill="none" stroke="midnightblue" d="M1270.44,-56.08C1275.48,-48.53 1282.84,-37.49 1289.01,-28.23"/>
<polygon fill="midnightblue" stroke="midnightblue" points="1292.03,-30.01 1294.67,-19.75 1286.21,-26.13 1292.03,-30.01"/>
</g>
<!-- Node16&#45;&gt;Node2 -->
<g id="edge17" class="edge">
<title>Node16&#45;&gt;Node2</title>
<path fill="none" stroke="midnightblue" d="M1147.72,-184.94C1099.28,-173.01 1011.66,-151.44 959.91,-138.7"/>
<polygon fill="midnightblue" stroke="midnightblue" points="960.61,-135.26 950.06,-136.27 958.94,-142.06 960.61,-135.26"/>
</g>
<!-- Node16&#45;&gt;Node3 -->
<g id="edge26" class="edge">
<title>Node16&#45;&gt;Node3</title>
<path fill="none" stroke="midnightblue" d="M1212.4,-184.99C1221.37,-182.72 1231.28,-180.48 1240.5,-179 1293.74,-170.43 1687.81,-182.52 1724.5,-143 1733.87,-132.9 1733.76,-122.21 1724.5,-112 1696.49,-81.12 1410.79,-70.72 1304.26,-67.9"/>
<polygon fill="midnightblue" stroke="midnightblue" points="1304.31,-64.4 1294.23,-67.64 1304.13,-71.4 1304.31,-64.4"/>
</g>
<!-- Node16&#45;&gt;Node4 -->
<g id="edge34" class="edge">
<title>Node16&#45;&gt;Node4</title>
<path fill="none" stroke="midnightblue" d="M1212.4,-184.97C1221.37,-182.7 1231.28,-180.47 1240.5,-179 1295.72,-170.19 1704.4,-183.93 1742.5,-143 1751.89,-132.92 1750.16,-123.45 1742.5,-112 1719.25,-77.21 1692.75,-95.08 1655.5,-76 1625.25,-60.51 1592.2,-39.27 1571.41,-25.35"/>
<polygon fill="midnightblue" stroke="midnightblue" points="1573.29,-22.39 1563.04,-19.7 1569.37,-28.19 1573.29,-22.39"/>
</g>
<!-- Node16&#45;&gt;Node6 -->
<g id="edge35" class="edge">
<title>Node16&#45;&gt;Node6</title>
<path fill="none" stroke="midnightblue" d="M1149.8,-184.99C1128.05,-177.56 1100.77,-164.53 1085.5,-143 1061.36,-108.96 1061.79,-57.41 1064.16,-29.89"/>
<polygon fill="midnightblue" stroke="midnightblue" points="1067.67,-30 1065.23,-19.69 1060.71,-29.27 1067.67,-30"/>
</g>
<!-- Node16&#45;&gt;Node7 -->
<g id="edge36" class="edge">
<title>Node16&#45;&gt;Node7</title>
<path fill="none" stroke="midnightblue" d="M1212.4,-184.96C1221.37,-182.69 1231.27,-180.46 1240.5,-179 1354.91,-160.88 1661.47,-203.09 1760.5,-143 1797.04,-120.83 1814.2,-96.82 1801.5,-56 1798.27,-45.62 1791.72,-35.52 1785.48,-27.53"/>
<polygon fill="midnightblue" stroke="midnightblue" points="1788.08,-25.19 1778.98,-19.77 1782.71,-29.68 1788.08,-25.19"/>
</g>
<!-- Node17 -->
<g id="node17" class="node">
<title>Node17</title>
<g id="a_node17"><a xlink:href="serialization__eigen_8hpp.html" target="_top" xlink:title=" ">
<polygon fill="none" stroke="black" points="2400.5,-118 2400.5,-137 2530.5,-137 2530.5,-118 2400.5,-118"/>
<text text-anchor="middle" x="2465.5" y="-125" font-family="Helvetica,sans-Serif" font-size="10.00">serialization_eigen.hpp</text>
</a>
</g>
</g>
<!-- Node16&#45;&gt;Node17 -->
<g id="edge18" class="edge">
<title>Node16&#45;&gt;Node17</title>
<path fill="none" stroke="midnightblue" d="M1211.47,-184.97C1220.67,-182.61 1230.94,-180.33 1240.5,-179 1730.23,-110.65 1859.6,-182.51 2352.5,-143 2367.08,-141.83 2382.66,-140.13 2397.45,-138.3"/>
<polygon fill="midnightblue" stroke="midnightblue" points="2398.07,-141.75 2407.54,-137.01 2397.18,-134.8 2398.07,-141.75"/>
</g>
<!-- Node24 -->
<g id="node24" class="node">
<title>Node24</title>
<g id="a_node24"><a xlink:title=" ">
<polygon fill="none" stroke="#bfbfbf" points="1849,-112.5 1849,-142.5 1992,-142.5 1992,-112.5 1849,-112.5"/>
<text text-anchor="start" x="1857" y="-130.5" font-family="Helvetica,sans-Serif" font-size="10.00">boost/multi_index/hashed</text>
<text text-anchor="middle" x="1920.5" y="-119.5" font-family="Helvetica,sans-Serif" font-size="10.00">_index.hpp</text>
</a>
</g>
</g>
<!-- Node16&#45;&gt;Node24 -->
<g id="edge27" class="edge">
<title>Node16&#45;&gt;Node24</title>
<path fill="none" stroke="midnightblue" d="M1212.09,-184.99C1221.14,-182.68 1231.16,-180.44 1240.5,-179 1501.9,-138.76 1571.73,-173.03 1834.5,-143 1835.81,-142.85 1837.13,-142.69 1838.46,-142.53"/>
<polygon fill="midnightblue" stroke="midnightblue" points="1839.32,-145.95 1848.79,-141.18 1838.42,-139.01 1839.32,-145.95"/>
</g>
<!-- Node25 -->
<g id="node25" class="node">
<title>Node25</title>
<g id="a_node25"><a xlink:title=" ">
<polygon fill="none" stroke="#bfbfbf" points="2010.5,-118 2010.5,-137 2180.5,-137 2180.5,-118 2010.5,-118"/>
<text text-anchor="middle" x="2095.5" y="-125" font-family="Helvetica,sans-Serif" font-size="10.00">boost/multi_index/member.hpp</text>
</a>
</g>
</g>
<!-- Node16&#45;&gt;Node25 -->
<g id="edge28" class="edge">
<title>Node16&#45;&gt;Node25</title>
<path fill="none" stroke="midnightblue" d="M1211.78,-184.98C1220.91,-182.65 1231.05,-180.39 1240.5,-179 1575.05,-129.75 1664.01,-176.56 2000.5,-143 2012.06,-141.85 2024.35,-140.25 2036.13,-138.53"/>
<polygon fill="midnightblue" stroke="midnightblue" points="2036.95,-141.95 2046.32,-137 2035.91,-135.03 2036.95,-141.95"/>
</g>
<!-- Node26 -->
<g id="node26" class="node">
<title>Node26</title>
<g id="a_node26"><a xlink:title=" ">
<polygon fill="none" stroke="#bfbfbf" points="2199,-112.5 2199,-142.5 2344,-142.5 2344,-112.5 2199,-112.5"/>
<text text-anchor="start" x="2207" y="-130.5" font-family="Helvetica,sans-Serif" font-size="10.00">boost/multi_index/random</text>
<text text-anchor="middle" x="2271.5" y="-119.5" font-family="Helvetica,sans-Serif" font-size="10.00">_access_index.hpp</text>
</a>
</g>
</g>
<!-- Node16&#45;&gt;Node26 -->
<g id="edge29" class="edge">
<title>Node16&#45;&gt;Node26</title>
<path fill="none" stroke="midnightblue" d="M1211.77,-184.93C1220.9,-182.6 1231.05,-180.35 1240.5,-179 1655.1,-119.96 1768.05,-186.79 2188.7,-142.96"/>
<polygon fill="midnightblue" stroke="midnightblue" points="2189.12,-146.44 2198.7,-141.91 2188.38,-139.48 2189.12,-146.44"/>
</g>
<!-- Node27 -->
<g id="node27" class="node">
<title>Node27</title>
<g id="a_node27"><a xlink:title=" ">
<polygon fill="none" stroke="#bfbfbf" points="1094.5,-118 1094.5,-137 1270.5,-137 1270.5,-118 1094.5,-118"/>
<text text-anchor="middle" x="1182.5" y="-125" font-family="Helvetica,sans-Serif" font-size="10.00">boost/multi_index_container.hpp</text>
</a>
</g>
</g>
<!-- Node16&#45;&gt;Node27 -->
<g id="edge30" class="edge">
<title>Node16&#45;&gt;Node27</title>
<path fill="none" stroke="midnightblue" d="M1182.5,-184.73C1182.5,-175.18 1182.5,-159.62 1182.5,-147.28"/>
<polygon fill="midnightblue" stroke="midnightblue" points="1186,-147.13 1182.5,-137.13 1179,-147.13 1186,-147.13"/>
</g>
<!-- Node28 -->
<g id="node28" class="node">
<title>Node28</title>
<g id="a_node28"><a xlink:title=" ">
<polygon fill="none" stroke="#bfbfbf" points="1289,-118 1289,-137 1432,-137 1432,-118 1289,-118"/>
<text text-anchor="middle" x="1360.5" y="-125" font-family="Helvetica,sans-Serif" font-size="10.00">cereal/types/complex.hpp</text>
</a>
</g>
</g>
<!-- Node16&#45;&gt;Node28 -->
<g id="edge31" class="edge">
<title>Node16&#45;&gt;Node28</title>
<path fill="none" stroke="midnightblue" d="M1206.14,-184.87C1237.21,-173.52 1291.97,-153.52 1327.22,-140.65"/>
<polygon fill="midnightblue" stroke="midnightblue" points="1328.86,-143.78 1337.05,-137.06 1326.45,-137.21 1328.86,-143.78"/>
</g>
<!-- Node29 -->
<g id="node29" class="node">
<title>Node29</title>
<g id="a_node29"><a xlink:title=" ">
<polygon fill="none" stroke="#bfbfbf" points="1450.5,-118 1450.5,-137 1566.5,-137 1566.5,-118 1450.5,-118"/>
<text text-anchor="middle" x="1508.5" y="-125" font-family="Helvetica,sans-Serif" font-size="10.00">cereal/types/set.hpp</text>
</a>
</g>
</g>
<!-- Node16&#45;&gt;Node29 -->
<g id="edge32" class="edge">
<title>Node16&#45;&gt;Node29</title>
<path fill="none" stroke="midnightblue" d="M1214.93,-184.99C1223.24,-182.92 1232.18,-180.79 1240.5,-179 1328.8,-160.04 1351.88,-160.42 1440.5,-143 1446.64,-141.79 1453.08,-140.48 1459.45,-139.15"/>
<polygon fill="midnightblue" stroke="midnightblue" points="1460.28,-142.56 1469.35,-137.07 1458.84,-135.71 1460.28,-142.56"/>
</g>
<!-- Node30 -->
<g id="node30" class="node">
<title>Node30</title>
<g id="a_node30"><a xlink:title=" ">
<polygon fill="none" stroke="#bfbfbf" points="1585,-118 1585,-137 1716,-137 1716,-118 1585,-118"/>
<text text-anchor="middle" x="1650.5" y="-125" font-family="Helvetica,sans-Serif" font-size="10.00">cereal/types/vector.hpp</text>
</a>
</g>
</g>
<!-- Node16&#45;&gt;Node30 -->
<g id="edge33" class="edge">
<title>Node16&#45;&gt;Node30</title>
<path fill="none" stroke="midnightblue" d="M1213.33,-184.95C1222.06,-182.76 1231.61,-180.58 1240.5,-179 1387.93,-152.78 1427.41,-165.23 1575.5,-143 1583.34,-141.82 1591.6,-140.41 1599.67,-138.92"/>
<polygon fill="midnightblue" stroke="midnightblue" points="1600.56,-142.32 1609.74,-137.03 1599.26,-135.44 1600.56,-142.32"/>
</g>
<!-- Node16&#45;&gt;Node31 -->
<g id="edge37" class="edge">
<title>Node16&#45;&gt;Node31</title>
<path fill="none" stroke="midnightblue" d="M1158.79,-184.94C1132.55,-175.31 1089.13,-158.94 1052.5,-143 1050.93,-142.32 1049.33,-141.6 1047.71,-140.86"/>
<polygon fill="midnightblue" stroke="midnightblue" points="1049.12,-137.66 1038.58,-136.56 1046.14,-143.99 1049.12,-137.66"/>
</g>
<!-- Node32 -->
<g id="node32" class="node">
<title>Node32</title>
<g id="a_node32"><a xlink:title=" ">
<polygon fill="none" stroke="#bfbfbf" points="822,-118 822,-137 869,-137 869,-118 822,-118"/>
<text text-anchor="middle" x="845.5" y="-125" font-family="Helvetica,sans-Serif" font-size="10.00">vector</text>
</a>
</g>
</g>
<!-- Node16&#45;&gt;Node32 -->
<g id="edge38" class="edge">
<title>Node16&#45;&gt;Node32</title>
<path fill="none" stroke="midnightblue" d="M1133.27,-189.34C1072.22,-183.28 965.45,-169.7 877.5,-143 875.57,-142.42 873.61,-141.74 871.66,-141.01"/>
<polygon fill="midnightblue" stroke="midnightblue" points="872.7,-137.65 862.12,-137.02 870,-144.11 872.7,-137.65"/>
</g>
<!-- Node18 -->
<g id="node18" class="node">
<title>Node18</title>
<g id="a_node18"><a xlink:title=" ">
<polygon fill="none" stroke="#bfbfbf" points="2006.5,-56.5 2006.5,-75.5 2150.5,-75.5 2150.5,-56.5 2006.5,-56.5"/>
<text text-anchor="middle" x="2078.5" y="-63.5" font-family="Helvetica,sans-Serif" font-size="10.00">cereal/archives/binary.hpp</text>
</a>
</g>
</g>
<!-- Node17&#45;&gt;Node18 -->
<g id="edge19" class="edge">
<title>Node17&#45;&gt;Node18</title>
<path fill="none" stroke="midnightblue" d="M2420.43,-117.93C2409.35,-115.91 2397.51,-113.81 2386.5,-112 2306.32,-98.79 2214.06,-85.57 2151.58,-76.91"/>
<polygon fill="midnightblue" stroke="midnightblue" points="2151.81,-73.41 2141.43,-75.51 2150.85,-80.35 2151.81,-73.41"/>
</g>
<!-- Node19 -->
<g id="node19" class="node">
<title>Node19</title>
<g id="a_node19"><a xlink:title=" ">
<polygon fill="none" stroke="#bfbfbf" points="2169,-56.5 2169,-75.5 2304,-75.5 2304,-56.5 2169,-56.5"/>
<text text-anchor="middle" x="2236.5" y="-63.5" font-family="Helvetica,sans-Serif" font-size="10.00">cereal/archives/json.hpp</text>
</a>
</g>
</g>
<!-- Node17&#45;&gt;Node19 -->
<g id="edge20" class="edge">
<title>Node17&#45;&gt;Node19</title>
<path fill="none" stroke="midnightblue" d="M2432.69,-117.98C2392.3,-107.48 2323.62,-89.64 2279.17,-78.09"/>
<polygon fill="midnightblue" stroke="midnightblue" points="2279.81,-74.64 2269.25,-75.51 2278.05,-81.41 2279.81,-74.64"/>
</g>
<!-- Node20 -->
<g id="node20" class="node">
<title>Node20</title>
<g id="a_node20"><a xlink:title=" ">
<polygon fill="none" stroke="#bfbfbf" points="2322,-56.5 2322,-75.5 2423,-75.5 2423,-56.5 2322,-56.5"/>
<text text-anchor="middle" x="2372.5" y="-63.5" font-family="Helvetica,sans-Serif" font-size="10.00">cereal/cereal.hpp</text>
</a>
</g>
</g>
<!-- Node17&#45;&gt;Node20 -->
<g id="edge21" class="edge">
<title>Node17&#45;&gt;Node20</title>
<path fill="none" stroke="midnightblue" d="M2452.18,-117.98C2437.12,-108.34 2412.38,-92.52 2394.46,-81.05"/>
<polygon fill="midnightblue" stroke="midnightblue" points="2396.11,-77.95 2385.8,-75.51 2392.34,-83.85 2396.11,-77.95"/>
</g>
<!-- Node17&#45;&gt;Node21 -->
<g id="edge22" class="edge">
<title>Node17&#45;&gt;Node21</title>
<path fill="none" stroke="midnightblue" d="M2497.59,-117.98C2537.1,-107.48 2604.28,-89.64 2647.76,-78.09"/>
<polygon fill="midnightblue" stroke="midnightblue" points="2648.7,-81.46 2657.47,-75.51 2646.9,-74.69 2648.7,-81.46"/>
</g>
<!-- Node22 -->
<g id="node22" class="node">
<title>Node22</title>
<g id="a_node22"><a xlink:title=" ">
<polygon fill="none" stroke="#bfbfbf" points="2536,-0.5 2536,-19.5 2605,-19.5 2605,-0.5 2536,-0.5"/>
<text text-anchor="middle" x="2570.5" y="-7.5" font-family="Helvetica,sans-Serif" font-size="10.00">Eigen/Core</text>
</a>
</g>
</g>
<!-- Node17&#45;&gt;Node22 -->
<g id="edge24" class="edge">
<title>Node17&#45;&gt;Node22</title>
<path fill="none" stroke="midnightblue" d="M2463.49,-117.77C2460.72,-103.45 2457.44,-74.71 2470.5,-56 2483.42,-37.49 2505.83,-26.47 2526.17,-19.97"/>
<polygon fill="midnightblue" stroke="midnightblue" points="2527.31,-23.29 2535.93,-17.14 2525.35,-16.57 2527.31,-23.29"/>
</g>
<!-- Node17&#45;&gt;Node23 -->
<g id="edge25" class="edge">
<title>Node17&#45;&gt;Node23</title>
<path fill="none" stroke="midnightblue" d="M2474.81,-117.98C2484.95,-108.7 2501.36,-93.67 2513.75,-82.33"/>
<polygon fill="midnightblue" stroke="midnightblue" points="2516.19,-84.84 2521.2,-75.51 2511.46,-79.68 2516.19,-84.84"/>
</g>
<!-- Node21&#45;&gt;Node22 -->
<g id="edge23" class="edge">
<title>Node21&#45;&gt;Node22</title>
<path fill="none" stroke="midnightblue" d="M2670.64,-56.44C2651.23,-47.64 2620.77,-33.81 2598.54,-23.72"/>
<polygon fill="midnightblue" stroke="midnightblue" points="2599.82,-20.46 2589.27,-19.52 2596.93,-26.84 2599.82,-20.46"/>
</g>
<!-- Node33&#45;&gt;Node2 -->
<g id="edge40" class="edge">
<title>Node33&#45;&gt;Node2</title>
<path fill="none" stroke="midnightblue" d="M956.68,-246.31C950.07,-225.9 933.44,-174.6 924.47,-146.91"/>
<polygon fill="midnightblue" stroke="midnightblue" points="927.75,-145.69 921.34,-137.26 921.09,-147.85 927.75,-145.69"/>
</g>
<!-- Node33&#45;&gt;Node3 -->
<g id="edge52" class="edge">
<title>Node33&#45;&gt;Node3</title>
<path fill="none" stroke="midnightblue" d="M958.88,-246.33C957.6,-221.28 957.63,-148.34 997.5,-112 1030.15,-82.25 1158.77,-71.93 1224.85,-68.54"/>
<polygon fill="midnightblue" stroke="midnightblue" points="1225.07,-72.03 1234.89,-68.06 1224.73,-65.04 1225.07,-72.03"/>
</g>
<!-- Node33&#45;&gt;Node5 -->
<g id="edge57" class="edge">
<title>Node33&#45;&gt;Node5</title>
<path fill="none" stroke="midnightblue" d="M912.45,-255.29C761.93,-255.76 299.12,-253.63 249.5,-210 197.37,-164.17 180.48,-110.47 223.5,-56 242.83,-31.53 332.86,-18.93 381.36,-13.82"/>
<polygon fill="midnightblue" stroke="midnightblue" points="381.72,-17.3 391.32,-12.81 381.02,-10.34 381.72,-17.3"/>
</g>
<!-- Node33&#45;&gt;Node11 -->
<g id="edge58" class="edge">
<title>Node33&#45;&gt;Node11</title>
<path fill="none" stroke="midnightblue" d="M912.28,-254.53C767.23,-252.74 334.74,-244.51 282.5,-210 244.03,-184.59 244.45,-157.92 248.5,-112 249.28,-103.2 250.89,-93.54 252.47,-85.43"/>
<polygon fill="midnightblue" stroke="midnightblue" points="255.91,-86.07 254.51,-75.57 249.06,-84.65 255.91,-86.07"/>
</g>
<!-- Node33&#45;&gt;Node14 -->
<g id="edge53" class="edge">
<title>Node33&#45;&gt;Node14</title>
<path fill="none" stroke="midnightblue" d="M912.27,-254.72C750.93,-253.43 227.91,-246.46 162.5,-210 112.34,-182.04 81.63,-117.08 69.07,-85.24"/>
<polygon fill="midnightblue" stroke="midnightblue" points="72.32,-83.93 65.51,-75.82 65.77,-86.41 72.32,-83.93"/>
</g>
<!-- Node33&#45;&gt;Node16 -->
<g id="edge44" class="edge">
<title>Node33&#45;&gt;Node16</title>
<path fill="none" stroke="midnightblue" d="M991.45,-246.48C1030.7,-236 1097.38,-218.21 1140.67,-206.66"/>
<polygon fill="midnightblue" stroke="midnightblue" points="1141.85,-209.97 1150.61,-204.01 1140.04,-203.21 1141.85,-209.97"/>
</g>
<!-- Node33&#45;&gt;Node31 -->
<g id="edge59" class="edge">
<title>Node33&#45;&gt;Node31</title>
<path fill="none" stroke="midnightblue" d="M967.12,-246.19C974.39,-237.47 985.26,-223.49 992.5,-210 1003.5,-189.51 1012.13,-164.13 1017.26,-147.19"/>
<polygon fill="midnightblue" stroke="midnightblue" points="1020.67,-147.99 1020.11,-137.41 1013.95,-146.03 1020.67,-147.99"/>
</g>
<!-- Node34 -->
<g id="node34" class="node">
<title>Node34</title>
<g id="a_node34"><a xlink:href="Symmetry_8hpp.html" target="_top" xlink:title=" ">
<polygon fill="none" stroke="black" points="292,-185 292,-204 379,-204 379,-185 292,-185"/>
<text text-anchor="middle" x="335.5" y="-192" font-family="Helvetica,sans-Serif" font-size="10.00">Symmetry.hpp</text>
</a>
</g>
</g>
<!-- Node33&#45;&gt;Node34 -->
<g id="edge41" class="edge">
<title>Node33&#45;&gt;Node34</title>
<path fill="none" stroke="midnightblue" d="M912.34,-250.5C798.54,-239.65 509.4,-212.08 389.19,-200.62"/>
<polygon fill="midnightblue" stroke="midnightblue" points="389.41,-197.12 379.12,-199.66 388.74,-204.09 389.41,-197.12"/>
</g>
<!-- Node36 -->
<g id="node36" class="node">
<title>Node36</title>
<g id="a_node36"><a xlink:href="WignerD_8hpp.html" target="_top" xlink:title=" ">
<polygon fill="none" stroke="black" points="601.5,-185 601.5,-204 681.5,-204 681.5,-185 601.5,-185"/>
<text text-anchor="middle" x="641.5" y="-192" font-family="Helvetica,sans-Serif" font-size="10.00">WignerD.hpp</text>
</a>
</g>
</g>
<!-- Node33&#45;&gt;Node36 -->
<g id="edge45" class="edge">
<title>Node33&#45;&gt;Node36</title>
<path fill="none" stroke="midnightblue" d="M913.94,-246.48C855.17,-235.48 753.26,-216.41 692.13,-204.97"/>
<polygon fill="midnightblue" stroke="midnightblue" points="692.41,-201.47 681.94,-203.07 691.13,-208.35 692.41,-201.47"/>
</g>
<!-- Node33&#45;&gt;Node40 -->
<g id="edge54" class="edge">
<title>Node33&#45;&gt;Node40</title>
<path fill="none" stroke="midnightblue" d="M1006.75,-247.55C1062.61,-238.73 1158.35,-223.5 1240.5,-210 1248.88,-208.62 1257.71,-207.15 1266.39,-205.7"/>
<polygon fill="midnightblue" stroke="midnightblue" points="1267.21,-209.11 1276.49,-204 1266.05,-202.21 1267.21,-209.11"/>
</g>
<!-- Node33&#45;&gt;Node41 -->
<g id="edge55" class="edge">
<title>Node33&#45;&gt;Node41</title>
<path fill="none" stroke="midnightblue" d="M1006.56,-251.27C1088.99,-244.53 1264.77,-229.22 1412.5,-210 1422.39,-208.71 1432.86,-207.18 1443.03,-205.6"/>
<polygon fill="midnightblue" stroke="midnightblue" points="1443.73,-209.04 1453.06,-204.02 1442.64,-202.12 1443.73,-209.04"/>
</g>
<!-- Node33&#45;&gt;Node42 -->
<g id="edge56" class="edge">
<title>Node33&#45;&gt;Node42</title>
<path fill="none" stroke="midnightblue" d="M1006.87,-253.61C1110.78,-250.13 1366.6,-239.24 1590.63,-210"/>
<polygon fill="midnightblue" stroke="midnightblue" points="1591.15,-213.46 1600.6,-208.68 1590.23,-206.52 1591.15,-213.46"/>
</g>
<!-- Node43 -->
<g id="node43" class="node">
<title>Node43</title>
<g id="a_node43"><a xlink:title=" ">
<polygon fill="none" stroke="#bfbfbf" points="819,-185 819,-204 912,-204 912,-185 819,-185"/>
<text text-anchor="middle" x="865.5" y="-192" font-family="Helvetica,sans-Serif" font-size="10.00">unordered_map</text>
</a>
</g>
</g>
<!-- Node33&#45;&gt;Node43 -->
<g id="edge60" class="edge">
<title>Node33&#45;&gt;Node43</title>
<path fill="none" stroke="midnightblue" d="M946.03,-246.48C930.82,-236.84 905.81,-221.02 887.7,-209.55"/>
<polygon fill="midnightblue" stroke="midnightblue" points="889.26,-206.4 878.94,-204.01 885.52,-212.31 889.26,-206.4"/>
</g>
<!-- Node34&#45;&gt;Node5 -->
<g id="edge42" class="edge">
<title>Node34&#45;&gt;Node5</title>
<path fill="none" stroke="midnightblue" d="M336.69,-184.68C338.94,-169.45 344.49,-137.41 354.5,-112 366.79,-80.8 387.5,-47.63 400.56,-28.14"/>
<polygon fill="midnightblue" stroke="midnightblue" points="403.55,-29.98 406.29,-19.74 397.76,-26.03 403.55,-29.98"/>
</g>
<!-- Node35 -->
<g id="node35" class="node">
<title>Node35</title>
<g id="a_node35"><a xlink:title=" ">
<polygon fill="none" stroke="#bfbfbf" points="257.5,-118 257.5,-137 307.5,-137 307.5,-118 257.5,-118"/>
<text text-anchor="middle" x="282.5" y="-125" font-family="Helvetica,sans-Serif" font-size="10.00">climits</text>
</a>
</g>
</g>
<!-- Node34&#45;&gt;Node35 -->
<g id="edge43" class="edge">
<title>Node34&#45;&gt;Node35</title>
<path fill="none" stroke="midnightblue" d="M328.35,-184.73C320.09,-174.6 306.3,-157.69 296,-145.06"/>
<polygon fill="midnightblue" stroke="midnightblue" points="298.57,-142.67 289.53,-137.13 293.14,-147.09 298.57,-142.67"/>
</g>
<!-- Node36&#45;&gt;Node6 -->
<g id="edge49" class="edge">
<title>Node36&#45;&gt;Node6</title>
<path fill="none" stroke="midnightblue" d="M640.9,-184.58C640.28,-168.03 641.44,-132.37 660.5,-112 710.67,-58.38 934.89,-26.45 1026.9,-15.4"/>
<polygon fill="midnightblue" stroke="midnightblue" points="1027.41,-18.87 1036.93,-14.22 1026.59,-11.91 1027.41,-18.87"/>
</g>
<!-- Node36&#45;&gt;Node11 -->
<g id="edge48" class="edge">
<title>Node36&#45;&gt;Node11</title>
<path fill="none" stroke="midnightblue" d="M638.23,-184.81C631.26,-167.65 613.23,-129.55 584.5,-112 535.65,-82.15 364.22,-71.51 290.56,-68.25"/>
<polygon fill="midnightblue" stroke="midnightblue" points="290.56,-64.75 280.42,-67.83 290.27,-71.75 290.56,-64.75"/>
</g>
<!-- Node36&#45;&gt;Node32 -->
<g id="edge51" class="edge">
<title>Node36&#45;&gt;Node32</title>
<path fill="none" stroke="midnightblue" d="M675.01,-184.96C709.78,-175.77 765.55,-160.17 812.5,-143 814.16,-142.39 815.85,-141.75 817.55,-141.07"/>
<polygon fill="midnightblue" stroke="midnightblue" points="819.29,-144.14 827.17,-137.05 816.59,-137.68 819.29,-144.14"/>
</g>
<!-- Node36&#45;&gt;Node37 -->
<g id="edge46" class="edge">
<title>Node36&#45;&gt;Node37</title>
<path fill="none" stroke="midnightblue" d="M654.31,-184.73C667.89,-175.44 689.79,-160.46 707.57,-148.3"/>
<polygon fill="midnightblue" stroke="midnightblue" points="709.63,-151.12 715.91,-142.59 705.68,-145.35 709.63,-151.12"/>
</g>
<!-- Node38 -->
<g id="node38" class="node">
<title>Node38</title>
<g id="a_node38"><a xlink:title=" ">
<polygon fill="none" stroke="#bfbfbf" points="364,-112.5 364,-142.5 501,-142.5 501,-112.5 364,-112.5"/>
<text text-anchor="start" x="372" y="-130.5" font-family="Helvetica,sans-Serif" font-size="10.00">boost/math/special</text>
<text text-anchor="middle" x="432.5" y="-119.5" font-family="Helvetica,sans-Serif" font-size="10.00">_functions/factorials.hpp</text>
</a>
</g>
</g>
<!-- Node36&#45;&gt;Node38 -->
<g id="edge47" class="edge">
<title>Node36&#45;&gt;Node38</title>
<path fill="none" stroke="midnightblue" d="M613.75,-184.87C581.64,-174.88 527.99,-158.2 487.37,-145.56"/>
<polygon fill="midnightblue" stroke="midnightblue" points="488.19,-142.16 477.61,-142.53 486.12,-148.84 488.19,-142.16"/>
</g>
<!-- Node39 -->
<g id="node39" class="node">
<title>Node39</title>
<g id="a_node39"><a xlink:title=" ">
<polygon fill="none" stroke="#bfbfbf" points="519.5,-118 519.5,-137 575.5,-137 575.5,-118 519.5,-118"/>
<text text-anchor="middle" x="547.5" y="-125" font-family="Helvetica,sans-Serif" font-size="10.00">numeric</text>
</a>
</g>
</g>
<!-- Node36&#45;&gt;Node39 -->
<g id="edge50" class="edge">
<title>Node36&#45;&gt;Node39</title>
<path fill="none" stroke="midnightblue" d="M628.82,-184.73C613.32,-174.01 586.86,-155.72 568.34,-142.91"/>
<polygon fill="midnightblue" stroke="midnightblue" points="570.19,-139.94 559.98,-137.13 566.21,-145.69 570.19,-139.94"/>
</g>
</g>
</svg>
