<?xml version="1.0" encoding="UTF-8" standalone="no"?>
<!DOCTYPE svg PUBLIC "-//W3C//DTD SVG 1.1//EN"
 "http://www.w3.org/Graphics/SVG/1.1/DTD/svg11.dtd">
<!-- Generated by graphviz version 2.43.0 (0)
 -->
<!-- Title: /__w/pairinteraction/pairinteraction/pairinteraction/SystemBase.hpp Pages: 1 -->
<!--zoomable 229 -->
<svg id="main" version="1.1" xmlns="http://www.w3.org/2000/svg" xmlns:xlink="http://www.w3.org/1999/xlink" xml:space="preserve" onload="init(evt)">
<style type="text/css"><![CDATA[
.edge:hover path { stroke: red; }
.edge:hover polygon { stroke: red; fill: red; }
]]></style>
<script type="text/javascript"><![CDATA[
var edges = document.getElementsByTagName('g');
if (edges && edges.length) {
  for (var i=0;i<edges.length;i++) {
    if (edges[i].id.substr(0,4)=='edge') {
      edges[i].setAttribute('class','edge');
    }
  }
}
]]></script>
        <defs>
                <circle id="rim" cx="0" cy="0" r="7"/>
                <circle id="rim2" cx="0" cy="0" r="3.5"/>
                <g id="zoomPlus">
                        <use xlink:href="#rim" fill="#404040">
                                <set attributeName="fill" to="#808080" begin="zoomplus.mouseover" end="zoomplus.mouseout"/>
                        </use>
                        <path d="M-4,0h8M0,-4v8" fill="none" stroke="white" stroke-width="1.5" pointer-events="none"/>
                </g>
                <g id="zoomMin">
                        <use xlink:href="#rim" fill="#404040">
                                <set attributeName="fill" to="#808080" begin="zoomminus.mouseover" end="zoomminus.mouseout"/>
                        </use>
                        <path d="M-4,0h8" fill="none" stroke="white" stroke-width="1.5" pointer-events="none"/>
                </g>
                <g id="dirArrow">
                        <path fill="none" stroke="white" stroke-width="1.5" d="M0,-3.0v7 M-2.5,-0.5L0,-3.0L2.5,-0.5"/>
                </g>
               <g id="resetDef">
                       <use xlink:href="#rim2" fill="#404040">
                               <set attributeName="fill" to="#808080" begin="reset.mouseover" end="reset.mouseout"/>
                       </use>
               </g>
        </defs>

<script type="text/javascript">
var viewWidth = 2247;
var viewHeight = 229;
var sectionId = 'dynsection-0';
</script>
<script xlink:href="svgpan.js"/>
<svg id="graph" class="graph">
<g id="viewport">
<title>/__w/pairinteraction/pairinteraction/pairinteraction/SystemBase.hpp</title>
<!-- Node1 -->
<g id="node1" class="node">
<title>Node1</title>
<g id="a_node1"><a xlink:title=" ">
<polygon fill="#bfbfbf" stroke="black" points="1151.5,-179.5 1151.5,-220.5 1316.5,-220.5 1316.5,-179.5 1151.5,-179.5"/>
<text text-anchor="start" x="1159.5" y="-208.5" font-family="Helvetica,sans-Serif" font-size="10.00">/__w/pairinteraction</text>
<text text-anchor="start" x="1159.5" y="-197.5" font-family="Helvetica,sans-Serif" font-size="10.00">/pairinteraction/pairinteraction</text>
<text text-anchor="middle" x="1234" y="-186.5" font-family="Helvetica,sans-Serif" font-size="10.00">/SystemBase.hpp</text>
</a>
</g>
</g>
<!-- Node2 -->
<g id="node2" class="node">
<title>Node2</title>
<g id="a_node2"><a xlink:href="State_8hpp.html" target="_top" xlink:title=" ">
<polygon fill="none" stroke="black" points="435.5,-118 435.5,-137 498.5,-137 498.5,-118 435.5,-118"/>
<text text-anchor="middle" x="467" y="-125" font-family="Helvetica,sans-Serif" font-size="10.00">State.hpp</text>
</a>
</g>
</g>
<!-- Node1&#45;&gt;Node2 -->
<g id="edge1" class="edge">
<title>Node1&#45;&gt;Node2</title>
<path fill="none" stroke="midnightblue" d="M1151.19,-191.39C988.21,-176.41 631.07,-143.58 508.93,-132.35"/>
<polygon fill="midnightblue" stroke="midnightblue" points="509.14,-128.86 498.86,-131.43 508.5,-135.83 509.14,-128.86"/>
</g>
<!-- Node3 -->
<g id="node3" class="node">
<title>Node3</title>
<g id="a_node3"><a xlink:href="utils_8hpp.html" target="_top" xlink:title=" ">
<polygon fill="none" stroke="black" points="220.5,-56.5 220.5,-75.5 279.5,-75.5 279.5,-56.5 220.5,-56.5"/>
<text text-anchor="middle" x="250" y="-63.5" font-family="Helvetica,sans-Serif" font-size="10.00">utils.hpp</text>
</a>
</g>
</g>
<!-- Node1&#45;&gt;Node3 -->
<g id="edge24" class="edge">
<title>Node1&#45;&gt;Node3</title>
<path fill="none" stroke="midnightblue" d="M1151.22,-196.8C973.75,-191.51 561.78,-176 426,-143 368.9,-129.12 306.84,-98.23 273.82,-80.4"/>
<polygon fill="midnightblue" stroke="midnightblue" points="275.38,-77.26 264.93,-75.53 272.02,-83.4 275.38,-77.26"/>
</g>
<!-- Node4 -->
<g id="node4" class="node">
<title>Node4</title>
<g id="a_node4"><a xlink:title=" ">
<polygon fill="none" stroke="#bfbfbf" points="0,-0.5 0,-19.5 64,-19.5 64,-0.5 0,-0.5"/>
<text text-anchor="middle" x="32" y="-7.5" font-family="Helvetica,sans-Serif" font-size="10.00">algorithm</text>
</a>
</g>
</g>
<!-- Node1&#45;&gt;Node4 -->
<g id="edge32" class="edge">
<title>Node1&#45;&gt;Node4</title>
<path fill="none" stroke="midnightblue" d="M1151.2,-197.45C920.94,-192.73 284.11,-176.75 196,-143 130.76,-118.01 71.52,-56.76 45.69,-27.32"/>
<polygon fill="midnightblue" stroke="midnightblue" points="48.22,-24.89 39.04,-19.59 42.91,-29.46 48.22,-24.89"/>
</g>
<!-- Node6 -->
<g id="node6" class="node">
<title>Node6</title>
<g id="a_node6"><a xlink:title=" ">
<polygon fill="none" stroke="#bfbfbf" points="82.5,-0.5 82.5,-19.5 141.5,-19.5 141.5,-0.5 82.5,-0.5"/>
<text text-anchor="middle" x="112" y="-7.5" font-family="Helvetica,sans-Serif" font-size="10.00">complex</text>
</a>
</g>
</g>
<!-- Node1&#45;&gt;Node6 -->
<g id="edge33" class="edge">
<title>Node1&#45;&gt;Node6</title>
<path fill="none" stroke="midnightblue" d="M1151.44,-197.65C928.86,-193.55 327.67,-179.2 246,-143 189.43,-117.92 143.19,-57.65 122.98,-28.02"/>
<polygon fill="midnightblue" stroke="midnightblue" points="125.8,-25.95 117.35,-19.56 119.98,-29.83 125.8,-25.95"/>
</g>
<!-- Node7 -->
<g id="node7" class="node">
<title>Node7</title>
<g id="a_node7"><a xlink:title=" ">
<polygon fill="none" stroke="#bfbfbf" points="159.5,-0.5 159.5,-19.5 224.5,-19.5 224.5,-0.5 159.5,-0.5"/>
<text text-anchor="middle" x="192" y="-7.5" font-family="Helvetica,sans-Serif" font-size="10.00">functional</text>
</a>
</g>
</g>
<!-- Node1&#45;&gt;Node7 -->
<g id="edge34" class="edge">
<title>Node1&#45;&gt;Node7</title>
<path fill="none" stroke="midnightblue" d="M1151.19,-198.22C959.55,-195.7 490.35,-185.27 339,-143 277.16,-125.73 251.7,-125.67 211,-76 200.18,-62.8 195.52,-43.66 193.52,-29.57"/>
<polygon fill="midnightblue" stroke="midnightblue" points="196.99,-29.12 192.41,-19.56 190.03,-29.89 196.99,-29.12"/>
</g>
<!-- Node16 -->
<g id="node16" class="node">
<title>Node16</title>
<g id="a_node16"><a xlink:href="serialization__eigen_8hpp.html" target="_top" xlink:title=" ">
<polygon fill="none" stroke="black" points="839,-118 839,-137 969,-137 969,-118 839,-118"/>
<text text-anchor="middle" x="904" y="-125" font-family="Helvetica,sans-Serif" font-size="10.00">serialization_eigen.hpp</text>
</a>
</g>
</g>
<!-- Node1&#45;&gt;Node16 -->
<g id="edge16" class="edge">
<title>Node1&#45;&gt;Node16</title>
<path fill="none" stroke="midnightblue" d="M1151.15,-181.3C1089.04,-168.03 1006.08,-150.31 953.84,-139.15"/>
<polygon fill="midnightblue" stroke="midnightblue" points="954.33,-135.67 943.82,-137.01 952.87,-142.52 954.33,-135.67"/>
</g>
<!-- Node23 -->
<g id="node23" class="node">
<title>Node23</title>
<g id="a_node23"><a xlink:title=" ">
<polygon fill="none" stroke="#bfbfbf" points="987.5,-112.5 987.5,-142.5 1130.5,-142.5 1130.5,-112.5 987.5,-112.5"/>
<text text-anchor="start" x="995.5" y="-130.5" font-family="Helvetica,sans-Serif" font-size="10.00">boost/multi_index/hashed</text>
<text text-anchor="middle" x="1059" y="-119.5" font-family="Helvetica,sans-Serif" font-size="10.00">_index.hpp</text>
</a>
</g>
</g>
<!-- Node1&#45;&gt;Node23 -->
<g id="edge25" class="edge">
<title>Node1&#45;&gt;Node23</title>
<path fill="none" stroke="midnightblue" d="M1185.25,-179.36C1159.63,-169.04 1128.45,-156.48 1103.48,-146.42"/>
<polygon fill="midnightblue" stroke="midnightblue" points="1104.48,-143.05 1093.9,-142.56 1101.87,-149.54 1104.48,-143.05"/>
</g>
<!-- Node24 -->
<g id="node24" class="node">
<title>Node24</title>
<g id="a_node24"><a xlink:title=" ">
<polygon fill="none" stroke="#bfbfbf" points="1149,-118 1149,-137 1319,-137 1319,-118 1149,-118"/>
<text text-anchor="middle" x="1234" y="-125" font-family="Helvetica,sans-Serif" font-size="10.00">boost/multi_index/member.hpp</text>
</a>
</g>
</g>
<!-- Node1&#45;&gt;Node24 -->
<g id="edge26" class="edge">
<title>Node1&#45;&gt;Node24</title>
<path fill="none" stroke="midnightblue" d="M1234,-179.36C1234,-169.3 1234,-157.1 1234,-147.18"/>
<polygon fill="midnightblue" stroke="midnightblue" points="1237.5,-147.17 1234,-137.17 1230.5,-147.17 1237.5,-147.17"/>
</g>
<!-- Node25 -->
<g id="node25" class="node">
<title>Node25</title>
<g id="a_node25"><a xlink:title=" ">
<polygon fill="none" stroke="#bfbfbf" points="1337.5,-112.5 1337.5,-142.5 1482.5,-142.5 1482.5,-112.5 1337.5,-112.5"/>
<text text-anchor="start" x="1345.5" y="-130.5" font-family="Helvetica,sans-Serif" font-size="10.00">boost/multi_index/random</text>
<text text-anchor="middle" x="1410" y="-119.5" font-family="Helvetica,sans-Serif" font-size="10.00">_access_index.hpp</text>
</a>
</g>
</g>
<!-- Node1&#45;&gt;Node25 -->
<g id="edge27" class="edge">
<title>Node1&#45;&gt;Node25</title>
<path fill="none" stroke="midnightblue" d="M1283.03,-179.36C1308.91,-168.99 1340.43,-156.37 1365.59,-146.29"/>
<polygon fill="midnightblue" stroke="midnightblue" points="1366.92,-149.53 1374.9,-142.56 1364.32,-143.03 1366.92,-149.53"/>
</g>
<!-- Node26 -->
<g id="node26" class="node">
<title>Node26</title>
<g id="a_node26"><a xlink:title=" ">
<polygon fill="none" stroke="#bfbfbf" points="1501,-118 1501,-137 1677,-137 1677,-118 1501,-118"/>
<text text-anchor="middle" x="1589" y="-125" font-family="Helvetica,sans-Serif" font-size="10.00">boost/multi_index_container.hpp</text>
</a>
</g>
</g>
<!-- Node1&#45;&gt;Node26 -->
<g id="edge28" class="edge">
<title>Node1&#45;&gt;Node26</title>
<path fill="none" stroke="midnightblue" d="M1316.78,-182.56C1384.43,-169.13 1478.03,-150.54 1535.99,-139.03"/>
<polygon fill="midnightblue" stroke="midnightblue" points="1536.9,-142.42 1546.03,-137.03 1535.54,-135.55 1536.9,-142.42"/>
</g>
<!-- Node27 -->
<g id="node27" class="node">
<title>Node27</title>
<g id="a_node27"><a xlink:title=" ">
<polygon fill="none" stroke="#bfbfbf" points="1695.5,-118 1695.5,-137 1838.5,-137 1838.5,-118 1695.5,-118"/>
<text text-anchor="middle" x="1767" y="-125" font-family="Helvetica,sans-Serif" font-size="10.00">cereal/types/complex.hpp</text>
</a>
</g>
</g>
<!-- Node1&#45;&gt;Node27 -->
<g id="edge29" class="edge">
<title>Node1&#45;&gt;Node27</title>
<path fill="none" stroke="midnightblue" d="M1316.66,-190.11C1407.43,-180.04 1557.39,-162.46 1686,-143 1694.33,-141.74 1703.11,-140.29 1711.7,-138.81"/>
<polygon fill="midnightblue" stroke="midnightblue" points="1712.42,-142.24 1721.66,-137.06 1711.21,-135.34 1712.42,-142.24"/>
</g>
<!-- Node28 -->
<g id="node28" class="node">
<title>Node28</title>
<g id="a_node28"><a xlink:title=" ">
<polygon fill="none" stroke="#bfbfbf" points="1857,-118 1857,-137 1973,-137 1973,-118 1857,-118"/>
<text text-anchor="middle" x="1915" y="-125" font-family="Helvetica,sans-Serif" font-size="10.00">cereal/types/set.hpp</text>
</a>
</g>
</g>
<!-- Node1&#45;&gt;Node28 -->
<g id="edge30" class="edge">
<title>Node1&#45;&gt;Node28</title>
<path fill="none" stroke="midnightblue" d="M1316.82,-194.67C1435.14,-187.75 1659.14,-171.94 1848,-143 1854.88,-141.95 1862.11,-140.62 1869.17,-139.2"/>
<polygon fill="midnightblue" stroke="midnightblue" points="1870.27,-142.54 1879.34,-137.06 1868.83,-135.69 1870.27,-142.54"/>
</g>
<!-- Node29 -->
<g id="node29" class="node">
<title>Node29</title>
<g id="a_node29"><a xlink:title=" ">
<polygon fill="none" stroke="#bfbfbf" points="1991.5,-118 1991.5,-137 2122.5,-137 2122.5,-118 1991.5,-118"/>
<text text-anchor="middle" x="2057" y="-125" font-family="Helvetica,sans-Serif" font-size="10.00">cereal/types/vector.hpp</text>
</a>
</g>
</g>
<!-- Node1&#45;&gt;Node29 -->
<g id="edge31" class="edge">
<title>Node1&#45;&gt;Node29</title>
<path fill="none" stroke="midnightblue" d="M1316.51,-195.96C1454.69,-190.17 1741.43,-175.15 1982,-143 1990.22,-141.9 1998.91,-140.47 2007.33,-138.94"/>
<polygon fill="midnightblue" stroke="midnightblue" points="2008.26,-142.33 2017.44,-137.04 2006.96,-135.45 2008.26,-142.33"/>
</g>
<!-- Node30 -->
<g id="node30" class="node">
<title>Node30</title>
<g id="a_node30"><a xlink:title=" ">
<polygon fill="none" stroke="#bfbfbf" points="2141,-118 2141,-137 2173,-137 2173,-118 2141,-118"/>
<text text-anchor="middle" x="2157" y="-125" font-family="Helvetica,sans-Serif" font-size="10.00">set</text>
</a>
</g>
</g>
<!-- Node1&#45;&gt;Node30 -->
<g id="edge35" class="edge">
<title>Node1&#45;&gt;Node30</title>
<path fill="none" stroke="midnightblue" d="M1316.86,-198.68C1509.18,-197.15 1981,-188.71 2132,-143 2133.24,-142.62 2134.49,-142.18 2135.73,-141.67"/>
<polygon fill="midnightblue" stroke="midnightblue" points="2137.46,-144.72 2144.81,-137.08 2134.3,-138.47 2137.46,-144.72"/>
</g>
<!-- Node31 -->
<g id="node31" class="node">
<title>Node31</title>
<g id="a_node31"><a xlink:title=" ">
<polygon fill="none" stroke="#bfbfbf" points="2191.5,-118 2191.5,-137 2238.5,-137 2238.5,-118 2191.5,-118"/>
<text text-anchor="middle" x="2215" y="-125" font-family="Helvetica,sans-Serif" font-size="10.00">vector</text>
</a>
</g>
</g>
<!-- Node1&#45;&gt;Node31 -->
<g id="edge36" class="edge">
<title>Node1&#45;&gt;Node31</title>
<path fill="none" stroke="midnightblue" d="M1316.68,-197.86C1516.07,-194.51 2018.91,-182.31 2182,-143 2184.36,-142.43 2186.76,-141.7 2189.14,-140.87"/>
<polygon fill="midnightblue" stroke="midnightblue" points="2190.64,-144.04 2198.61,-137.07 2188.03,-137.55 2190.64,-144.04"/>
</g>
<!-- Node2&#45;&gt;Node3 -->
<g id="edge2" class="edge">
<title>Node2&#45;&gt;Node3</title>
<path fill="none" stroke="midnightblue" d="M435.91,-117.98C397.37,-107.41 331.63,-89.38 289.54,-77.84"/>
<polygon fill="midnightblue" stroke="midnightblue" points="290.21,-74.4 279.64,-75.13 288.36,-81.15 290.21,-74.4"/>
</g>
<!-- Node5 -->
<g id="node5" class="node">
<title>Node5</title>
<g id="a_node5"><a xlink:title=" ">
<polygon fill="none" stroke="#bfbfbf" points="477,-0.5 477,-19.5 519,-19.5 519,-0.5 477,-0.5"/>
<text text-anchor="middle" x="498" y="-7.5" font-family="Helvetica,sans-Serif" font-size="10.00">array</text>
</a>
</g>
</g>
<!-- Node2&#45;&gt;Node5 -->
<g id="edge10" class="edge">
<title>Node2&#45;&gt;Node5</title>
<path fill="none" stroke="midnightblue" d="M435.17,-122.66C384.89,-115.3 295.82,-96.22 327,-56 366.37,-5.23 405.03,-36.96 467,-20 467.1,-19.97 467.2,-19.95 467.29,-19.92"/>
<polygon fill="midnightblue" stroke="midnightblue" points="468,-23.36 476.68,-17.28 466.11,-16.62 468,-23.36"/>
</g>
<!-- Node11 -->
<g id="node11" class="node">
<title>Node11</title>
<g id="a_node11"><a xlink:title=" ">
<polygon fill="none" stroke="#bfbfbf" points="336.5,-56.5 336.5,-75.5 383.5,-75.5 383.5,-56.5 336.5,-56.5"/>
<text text-anchor="middle" x="360" y="-63.5" font-family="Helvetica,sans-Serif" font-size="10.00">cmath</text>
</a>
</g>
</g>
<!-- Node2&#45;&gt;Node11 -->
<g id="edge11" class="edge">
<title>Node2&#45;&gt;Node11</title>
<path fill="none" stroke="midnightblue" d="M451.67,-117.98C434.03,-108.17 404.84,-91.93 384.14,-80.42"/>
<polygon fill="midnightblue" stroke="midnightblue" points="385.74,-77.31 375.3,-75.51 382.34,-83.43 385.74,-77.31"/>
</g>
<!-- Node12 -->
<g id="node12" class="node">
<title>Node12</title>
<g id="a_node12"><a xlink:title=" ">
<polygon fill="none" stroke="#bfbfbf" points="402,-56.5 402,-75.5 462,-75.5 462,-56.5 402,-56.5"/>
<text text-anchor="middle" x="432" y="-63.5" font-family="Helvetica,sans-Serif" font-size="10.00">iostream</text>
</a>
</g>
</g>
<!-- Node2&#45;&gt;Node12 -->
<g id="edge12" class="edge">
<title>Node2&#45;&gt;Node12</title>
<path fill="none" stroke="midnightblue" d="M461.99,-117.98C456.84,-109.23 448.69,-95.37 442.18,-84.31"/>
<polygon fill="midnightblue" stroke="midnightblue" points="445.09,-82.35 437.01,-75.51 439.06,-85.9 445.09,-82.35"/>
</g>
<!-- Node13 -->
<g id="node13" class="node">
<title>Node13</title>
<g id="a_node13"><a xlink:title=" ">
<polygon fill="none" stroke="#bfbfbf" points="480,-56.5 480,-75.5 524,-75.5 524,-56.5 480,-56.5"/>
<text text-anchor="middle" x="502" y="-63.5" font-family="Helvetica,sans-Serif" font-size="10.00">string</text>
</a>
</g>
</g>
<!-- Node2&#45;&gt;Node13 -->
<g id="edge13" class="edge">
<title>Node2&#45;&gt;Node13</title>
<path fill="none" stroke="midnightblue" d="M472.01,-117.98C477.16,-109.23 485.31,-95.37 491.82,-84.31"/>
<polygon fill="midnightblue" stroke="midnightblue" points="494.94,-85.9 496.99,-75.51 488.91,-82.35 494.94,-85.9"/>
</g>
<!-- Node14 -->
<g id="node14" class="node">
<title>Node14</title>
<g id="a_node14"><a xlink:title=" ">
<polygon fill="none" stroke="#bfbfbf" points="542.5,-56.5 542.5,-75.5 667.5,-75.5 667.5,-56.5 542.5,-56.5"/>
<text text-anchor="middle" x="605" y="-63.5" font-family="Helvetica,sans-Serif" font-size="10.00">cereal/types/array.hpp</text>
</a>
</g>
</g>
<!-- Node2&#45;&gt;Node14 -->
<g id="edge14" class="edge">
<title>Node2&#45;&gt;Node14</title>
<path fill="none" stroke="midnightblue" d="M486.77,-117.98C510.14,-107.9 549.21,-91.05 576,-79.5"/>
<polygon fill="midnightblue" stroke="midnightblue" points="577.47,-82.68 585.26,-75.51 574.7,-76.25 577.47,-82.68"/>
</g>
<!-- Node15 -->
<g id="node15" class="node">
<title>Node15</title>
<g id="a_node15"><a xlink:title=" ">
<polygon fill="none" stroke="#bfbfbf" points="686,-56.5 686,-75.5 814,-75.5 814,-56.5 686,-56.5"/>
<text text-anchor="middle" x="750" y="-63.5" font-family="Helvetica,sans-Serif" font-size="10.00">cereal/types/string.hpp</text>
</a>
</g>
</g>
<!-- Node2&#45;&gt;Node15 -->
<g id="edge15" class="edge">
<title>Node2&#45;&gt;Node15</title>
<path fill="none" stroke="midnightblue" d="M498.64,-119.85C547.35,-109.61 641.17,-89.88 699.39,-77.64"/>
<polygon fill="midnightblue" stroke="midnightblue" points="700.41,-81 709.47,-75.52 698.97,-74.15 700.41,-81"/>
</g>
<!-- Node3&#45;&gt;Node4 -->
<g id="edge3" class="edge">
<title>Node3&#45;&gt;Node4</title>
<path fill="none" stroke="midnightblue" d="M220.15,-57.6C182.36,-48.25 117.05,-32.07 74.18,-21.45"/>
<polygon fill="midnightblue" stroke="midnightblue" points="74.88,-18.02 64.33,-19.01 73.19,-24.81 74.88,-18.02"/>
</g>
<!-- Node3&#45;&gt;Node5 -->
<g id="edge4" class="edge">
<title>Node3&#45;&gt;Node5</title>
<path fill="none" stroke="midnightblue" d="M279.54,-58.94C336.76,-47.19 457.9,-22.26 467,-20 467.1,-19.98 467.2,-19.95 467.3,-19.93"/>
<polygon fill="midnightblue" stroke="midnightblue" points="467.95,-23.37 476.71,-17.42 466.15,-16.61 467.95,-23.37"/>
</g>
<!-- Node3&#45;&gt;Node6 -->
<g id="edge5" class="edge">
<title>Node3&#45;&gt;Node6</title>
<path fill="none" stroke="midnightblue" d="M228.13,-56.44C205.22,-47.48 169.02,-33.31 143.13,-23.18"/>
<polygon fill="midnightblue" stroke="midnightblue" points="144.35,-19.9 133.76,-19.52 141.8,-26.42 144.35,-19.9"/>
</g>
<!-- Node3&#45;&gt;Node7 -->
<g id="edge6" class="edge">
<title>Node3&#45;&gt;Node7</title>
<path fill="none" stroke="midnightblue" d="M240.68,-56.32C232.11,-48.34 219.19,-36.31 208.81,-26.65"/>
<polygon fill="midnightblue" stroke="midnightblue" points="211.19,-24.09 201.49,-19.83 206.42,-29.21 211.19,-24.09"/>
</g>
<!-- Node8 -->
<g id="node8" class="node">
<title>Node8</title>
<g id="a_node8"><a xlink:title=" ">
<polygon fill="none" stroke="#bfbfbf" points="317,-0.5 317,-19.5 371,-19.5 371,-0.5 317,-0.5"/>
<text text-anchor="middle" x="344" y="-7.5" font-family="Helvetica,sans-Serif" font-size="10.00">random</text>
</a>
</g>
</g>
<!-- Node3&#45;&gt;Node8 -->
<g id="edge7" class="edge">
<title>Node3&#45;&gt;Node8</title>
<path fill="none" stroke="midnightblue" d="M265.1,-56.32C279.9,-47.82 302.69,-34.73 319.98,-24.8"/>
<polygon fill="midnightblue" stroke="midnightblue" points="322.01,-27.67 328.93,-19.65 318.52,-21.6 322.01,-27.67"/>
</g>
<!-- Node9 -->
<g id="node9" class="node">
<title>Node9</title>
<g id="a_node9"><a xlink:title=" ">
<polygon fill="none" stroke="#bfbfbf" points="389.5,-0.5 389.5,-19.5 458.5,-19.5 458.5,-0.5 389.5,-0.5"/>
<text text-anchor="middle" x="424" y="-7.5" font-family="Helvetica,sans-Serif" font-size="10.00">type_traits</text>
</a>
</g>
</g>
<!-- Node3&#45;&gt;Node9 -->
<g id="edge8" class="edge">
<title>Node3&#45;&gt;Node9</title>
<path fill="none" stroke="midnightblue" d="M277.57,-56.44C307.1,-47.28 354.12,-32.69 386.88,-22.52"/>
<polygon fill="midnightblue" stroke="midnightblue" points="388.04,-25.82 396.56,-19.52 385.97,-19.14 388.04,-25.82"/>
</g>
<!-- Node10 -->
<g id="node10" class="node">
<title>Node10</title>
<g id="a_node10"><a xlink:title=" ">
<polygon fill="none" stroke="#bfbfbf" points="243,-0.5 243,-19.5 299,-19.5 299,-0.5 243,-0.5"/>
<text text-anchor="middle" x="271" y="-7.5" font-family="Helvetica,sans-Serif" font-size="10.00">unistd.h</text>
</a>
</g>
</g>
<!-- Node3&#45;&gt;Node10 -->
<g id="edge9" class="edge">
<title>Node3&#45;&gt;Node10</title>
<path fill="none" stroke="midnightblue" d="M253.47,-56.08C256.31,-48.77 260.43,-38.18 263.96,-29.1"/>
<polygon fill="midnightblue" stroke="midnightblue" points="267.23,-30.34 267.6,-19.75 260.71,-27.8 267.23,-30.34"/>
</g>
<!-- Node17 -->
<g id="node17" class="node">
<title>Node17</title>
<g id="a_node17"><a xlink:title=" ">
<polygon fill="none" stroke="#bfbfbf" points="832,-56.5 832,-75.5 976,-75.5 976,-56.5 832,-56.5"/>
<text text-anchor="middle" x="904" y="-63.5" font-family="Helvetica,sans-Serif" font-size="10.00">cereal/archives/binary.hpp</text>
</a>
</g>
</g>
<!-- Node16&#45;&gt;Node17 -->
<g id="edge17" class="edge">
<title>Node16&#45;&gt;Node17</title>
<path fill="none" stroke="midnightblue" d="M904,-117.98C904,-109.58 904,-96.48 904,-85.66"/>
<polygon fill="midnightblue" stroke="midnightblue" points="907.5,-85.51 904,-75.51 900.5,-85.51 907.5,-85.51"/>
</g>
<!-- Node18 -->
<g id="node18" class="node">
<title>Node18</title>
<g id="a_node18"><a xlink:title=" ">
<polygon fill="none" stroke="#bfbfbf" points="994.5,-56.5 994.5,-75.5 1129.5,-75.5 1129.5,-56.5 994.5,-56.5"/>
<text text-anchor="middle" x="1062" y="-63.5" font-family="Helvetica,sans-Serif" font-size="10.00">cereal/archives/json.hpp</text>
</a>
</g>
</g>
<!-- Node16&#45;&gt;Node18 -->
<g id="edge18" class="edge">
<title>Node16&#45;&gt;Node18</title>
<path fill="none" stroke="midnightblue" d="M926.64,-117.98C953.74,-107.77 999.31,-90.61 1030,-79.05"/>
<polygon fill="midnightblue" stroke="midnightblue" points="1031.28,-82.31 1039.4,-75.51 1028.81,-75.76 1031.28,-82.31"/>
</g>
<!-- Node19 -->
<g id="node19" class="node">
<title>Node19</title>
<g id="a_node19"><a xlink:title=" ">
<polygon fill="none" stroke="#bfbfbf" points="1147.5,-56.5 1147.5,-75.5 1248.5,-75.5 1248.5,-56.5 1147.5,-56.5"/>
<text text-anchor="middle" x="1198" y="-63.5" font-family="Helvetica,sans-Serif" font-size="10.00">cereal/cereal.hpp</text>
</a>
</g>
</g>
<!-- Node16&#45;&gt;Node19 -->
<g id="edge19" class="edge">
<title>Node16&#45;&gt;Node19</title>
<path fill="none" stroke="midnightblue" d="M946.12,-117.98C998.85,-107.3 1089.13,-89.03 1146.07,-77.51"/>
<polygon fill="midnightblue" stroke="midnightblue" points="1146.85,-80.92 1155.96,-75.51 1145.46,-74.06 1146.85,-80.92"/>
</g>
<!-- Node20 -->
<g id="node20" class="node">
<title>Node20</title>
<g id="a_node20"><a xlink:href="EigenCompat_8hpp.html" target="_top" xlink:title=" ">
<polygon fill="none" stroke="black" points="1305.5,-56.5 1305.5,-75.5 1408.5,-75.5 1408.5,-56.5 1305.5,-56.5"/>
<text text-anchor="middle" x="1357" y="-63.5" font-family="Helvetica,sans-Serif" font-size="10.00">EigenCompat.hpp</text>
</a>
</g>
</g>
<!-- Node16&#45;&gt;Node20 -->
<g id="edge20" class="edge">
<title>Node16&#45;&gt;Node20</title>
<path fill="none" stroke="midnightblue" d="M944.61,-117.94C955.43,-115.83 967.13,-113.69 978,-112 1116.37,-90.52 1152.06,-93.46 1291,-76 1292.47,-75.82 1293.96,-75.63 1295.46,-75.43"/>
<polygon fill="midnightblue" stroke="midnightblue" points="1296.03,-78.89 1305.49,-74.13 1295.12,-71.95 1296.03,-78.89"/>
</g>
<!-- Node21 -->
<g id="node21" class="node">
<title>Node21</title>
<g id="a_node21"><a xlink:title=" ">
<polygon fill="none" stroke="#bfbfbf" points="1282.5,-0.5 1282.5,-19.5 1351.5,-19.5 1351.5,-0.5 1282.5,-0.5"/>
<text text-anchor="middle" x="1317" y="-7.5" font-family="Helvetica,sans-Serif" font-size="10.00">Eigen/Core</text>
</a>
</g>
</g>
<!-- Node16&#45;&gt;Node21 -->
<g id="edge22" class="edge">
<title>Node16&#45;&gt;Node21</title>
<path fill="none" stroke="midnightblue" d="M945.01,-117.97C955.72,-115.88 967.27,-113.74 978,-112 1101.41,-91.97 1145.92,-133.39 1257,-76 1278.24,-65.03 1295.84,-43.36 1306.37,-28.06"/>
<polygon fill="midnightblue" stroke="midnightblue" points="1309.42,-29.8 1311.98,-19.52 1303.56,-25.96 1309.42,-29.8"/>
</g>
<!-- Node22 -->
<g id="node22" class="node">
<title>Node22</title>
<g id="a_node22"><a xlink:title=" ">
<polygon fill="none" stroke="#bfbfbf" points="1427,-56.5 1427,-75.5 1529,-75.5 1529,-56.5 1427,-56.5"/>
<text text-anchor="middle" x="1478" y="-63.5" font-family="Helvetica,sans-Serif" font-size="10.00">Eigen/SparseCore</text>
</a>
</g>
</g>
<!-- Node16&#45;&gt;Node22 -->
<g id="edge23" class="edge">
<title>Node16&#45;&gt;Node22</title>
<path fill="none" stroke="midnightblue" d="M943.42,-117.93C954.56,-115.74 966.72,-113.56 978,-112 1169.13,-85.54 1221.37,-98.13 1416.94,-76.04"/>
<polygon fill="midnightblue" stroke="midnightblue" points="1417.43,-79.51 1426.97,-74.89 1416.63,-72.55 1417.43,-79.51"/>
</g>
<!-- Node20&#45;&gt;Node21 -->
<g id="edge21" class="edge">
<title>Node20&#45;&gt;Node21</title>
<path fill="none" stroke="midnightblue" d="M1350.39,-56.08C1344.74,-48.46 1336.46,-37.26 1329.55,-27.94"/>
<polygon fill="midnightblue" stroke="midnightblue" points="1332.25,-25.7 1323.48,-19.75 1326.62,-29.87 1332.25,-25.7"/>
</g>
</g>
</svg>
        <g id="navigator" transform="translate(0 0)" fill="#404254">
                <rect fill="#f2f5e9" fill-opacity="0.5" stroke="#606060" stroke-width=".5" x="0" y="0" width="60" height="60"/>
                <use id="zoomplus" xlink:href="#zoomPlus" x="17" y="9" onmousedown="handleZoom(evt,'in')"/>
                <use id="zoomminus" xlink:href="#zoomMin" x="42" y="9" onmousedown="handleZoom(evt,'out')"/>
                <use id="reset" xlink:href="#resetDef" x="30" y="36" onmousedown="handleReset()"/>
                <g id="arrowUp" xlink:href="#dirArrow" transform="translate(30 24)" onmousedown="handlePan(0,-1)">
                  <use xlink:href="#rim" fill="#404040">
                        <set attributeName="fill" to="#808080" begin="arrowUp.mouseover" end="arrowUp.mouseout"/>
                  </use>
                  <path fill="none" stroke="white" stroke-width="1.5" d="M0,-3.0v7 M-2.5,-0.5L0,-3.0L2.5,-0.5"/>
                </g>
                <g id="arrowRight" xlink:href="#dirArrow" transform="rotate(90) translate(36 -43)" onmousedown="handlePan(1,0)">
                  <use xlink:href="#rim" fill="#404040">
                        <set attributeName="fill" to="#808080" begin="arrowRight.mouseover" end="arrowRight.mouseout"/>
                  </use>
                  <path fill="none" stroke="white" stroke-width="1.5" d="M0,-3.0v7 M-2.5,-0.5L0,-3.0L2.5,-0.5"/>
                </g>
                <g id="arrowDown" xlink:href="#dirArrow" transform="rotate(180) translate(-30 -48)" onmousedown="handlePan(0,1)">
                  <use xlink:href="#rim" fill="#404040">
                        <set attributeName="fill" to="#808080" begin="arrowDown.mouseover" end="arrowDown.mouseout"/>
                  </use>
                  <path fill="none" stroke="white" stroke-width="1.5" d="M0,-3.0v7 M-2.5,-0.5L0,-3.0L2.5,-0.5"/>
                </g>
                <g id="arrowLeft" xlink:href="#dirArrow" transform="rotate(270) translate(-36 17)" onmousedown="handlePan(-1,0)">
                  <use xlink:href="#rim" fill="#404040">
                        <set attributeName="fill" to="#808080" begin="arrowLeft.mouseover" end="arrowLeft.mouseout"/>
                  </use>
                  <path fill="none" stroke="white" stroke-width="1.5" d="M0,-3.0v7 M-2.5,-0.5L0,-3.0L2.5,-0.5"/>
                </g>
        </g>
        <svg viewBox="0 0 15 15" width="100%" height="30px" preserveAspectRatio="xMaxYMin meet">
         <g id="arrow_out" transform="scale(0.3 0.3)">
          <a xlink:href="SystemBase_8hpp__incl_org.svg" target="_base">
           <rect id="button" ry="5" rx="5" y="6" x="6" height="38" width="38"
                fill="#f2f5e9" fill-opacity="0.5" stroke="#606060" stroke-width="1.0"/>
           <path id="arrow"
             d="M 11.500037,31.436501 C 11.940474,20.09759 22.043105,11.32322 32.158766,21.979434 L 37.068811,17.246167 C 37.068811,17.246167 37.088388,32 37.088388,32 L 22.160133,31.978069 C 22.160133,31.978069 26.997745,27.140456 26.997745,27.140456 C 18.528582,18.264221 13.291696,25.230495 11.500037,31.436501 z"
             style="fill:#404040;"/>
          </a>
         </g>
        </svg>
</svg>
