<?xml version="1.0" encoding="UTF-8" standalone="no"?>
<!DOCTYPE svg PUBLIC "-//W3C//DTD SVG 1.1//EN"
 "http://www.w3.org/Graphics/SVG/1.1/DTD/svg11.dtd">
<!-- Generated by graphviz version 2.43.0 (0)
 -->
<!-- Title: /__w/pairinteraction/pairinteraction/pairinteraction/SystemOne.hpp Pages: 1 -->
<svg width="2617pt" height="296pt"
 viewBox="0.00 0.00 2617.00 296.00" xmlns="http://www.w3.org/2000/svg" xmlns:xlink="http://www.w3.org/1999/xlink">
<g id="graph0" class="graph" transform="scale(1 1) rotate(0) translate(4 292)">
<title>/__w/pairinteraction/pairinteraction/pairinteraction/SystemOne.hpp</title>
<!-- Node1 -->
<g id="node1" class="node">
<title>Node1</title>
<g id="a_node1"><a xlink:title=" ">
<polygon fill="#bfbfbf" stroke="black" points="1765,-246.5 1765,-287.5 1930,-287.5 1930,-246.5 1765,-246.5"/>
<text text-anchor="start" x="1773" y="-275.5" font-family="Helvetica,sans-Serif" font-size="10.00">/__w/pairinteraction</text>
<text text-anchor="start" x="1773" y="-264.5" font-family="Helvetica,sans-Serif" font-size="10.00">/pairinteraction/pairinteraction</text>
<text text-anchor="middle" x="1847.5" y="-253.5" font-family="Helvetica,sans-Serif" font-size="10.00">/SystemOne.hpp</text>
</a>
</g>
</g>
<!-- Node2 -->
<g id="node2" class="node">
<title>Node2</title>
<g id="a_node2"><a xlink:href="State_8hpp.html" target="_top" xlink:title=" ">
<polygon fill="none" stroke="black" points="258,-118 258,-137 321,-137 321,-118 258,-118"/>
<text text-anchor="middle" x="289.5" y="-125" font-family="Helvetica,sans-Serif" font-size="10.00">State.hpp</text>
</a>
</g>
</g>
<!-- Node1&#45;&gt;Node2 -->
<g id="edge1" class="edge">
<title>Node1&#45;&gt;Node2</title>
<path fill="none" stroke="midnightblue" d="M1764.94,-265.16C1457.96,-261.77 396.86,-247.37 335.5,-210 312.66,-196.09 300.17,-166.37 294.17,-146.93"/>
<polygon fill="midnightblue" stroke="midnightblue" points="297.48,-145.79 291.41,-137.1 290.74,-147.68 297.48,-145.79"/>
</g>
<!-- Node3 -->
<g id="node3" class="node">
<title>Node3</title>
<g id="a_node3"><a xlink:href="utils_8hpp.html" target="_top" xlink:title=" ">
<polygon fill="none" stroke="black" points="612,-56.5 612,-75.5 671,-75.5 671,-56.5 612,-56.5"/>
<text text-anchor="middle" x="641.5" y="-63.5" font-family="Helvetica,sans-Serif" font-size="10.00">utils.hpp</text>
</a>
</g>
</g>
<!-- Node1&#45;&gt;Node3 -->
<g id="edge49" class="edge">
<title>Node1&#45;&gt;Node3</title>
<path fill="none" stroke="midnightblue" d="M1764.81,-265.51C1466.97,-262.9 461.56,-246.45 366.5,-143 308.93,-80.35 317.81,-129.26 601.53,-76.05"/>
<polygon fill="midnightblue" stroke="midnightblue" points="602.57,-79.41 611.74,-74.11 601.26,-72.54 602.57,-79.41"/>
</g>
<!-- Node5 -->
<g id="node5" class="node">
<title>Node5</title>
<g id="a_node5"><a xlink:title=" ">
<polygon fill="none" stroke="#bfbfbf" points="185.5,-0.5 185.5,-19.5 227.5,-19.5 227.5,-0.5 185.5,-0.5"/>
<text text-anchor="middle" x="206.5" y="-7.5" font-family="Helvetica,sans-Serif" font-size="10.00">array</text>
</a>
</g>
</g>
<!-- Node1&#45;&gt;Node5 -->
<g id="edge54" class="edge">
<title>Node1&#45;&gt;Node5</title>
<path fill="none" stroke="midnightblue" d="M1764.98,-264.82C1449.04,-260.07 330.47,-241.11 261.5,-210 186.7,-176.26 164.88,-152.22 134.5,-76 131.21,-67.74 130.19,-63.77 134.5,-56 143.38,-39.98 160.59,-28.92 175.96,-21.77"/>
<polygon fill="midnightblue" stroke="midnightblue" points="177.39,-24.96 185.2,-17.81 174.63,-18.53 177.39,-24.96"/>
</g>
<!-- Node11 -->
<g id="node11" class="node">
<title>Node11</title>
<g id="a_node11"><a xlink:title=" ">
<polygon fill="none" stroke="#bfbfbf" points="1939,-56.5 1939,-75.5 1986,-75.5 1986,-56.5 1939,-56.5"/>
<text text-anchor="middle" x="1962.5" y="-63.5" font-family="Helvetica,sans-Serif" font-size="10.00">cmath</text>
</a>
</g>
</g>
<!-- Node1&#45;&gt;Node11 -->
<g id="edge55" class="edge">
<title>Node1&#45;&gt;Node11</title>
<path fill="none" stroke="midnightblue" d="M1852.56,-246.34C1861.11,-215.6 1880.59,-155.21 1911.5,-112 1919.76,-100.44 1931.53,-89.81 1941.67,-81.79"/>
<polygon fill="midnightblue" stroke="midnightblue" points="1943.85,-84.53 1949.7,-75.69 1939.62,-78.95 1943.85,-84.53"/>
</g>
<!-- Node14 -->
<g id="node14" class="node">
<title>Node14</title>
<g id="a_node14"><a xlink:title=" ">
<polygon fill="none" stroke="#bfbfbf" points="144,-56.5 144,-75.5 269,-75.5 269,-56.5 144,-56.5"/>
<text text-anchor="middle" x="206.5" y="-63.5" font-family="Helvetica,sans-Serif" font-size="10.00">cereal/types/array.hpp</text>
</a>
</g>
</g>
<!-- Node1&#45;&gt;Node14 -->
<g id="edge50" class="edge">
<title>Node1&#45;&gt;Node14</title>
<path fill="none" stroke="midnightblue" d="M1764.77,-264.88C1453.95,-260.42 370.3,-242.59 304.5,-210 253.13,-184.56 223.95,-117.81 212.38,-85.31"/>
<polygon fill="midnightblue" stroke="midnightblue" points="215.65,-84.06 209.12,-75.71 209.02,-86.31 215.65,-84.06"/>
</g>
<!-- Node16 -->
<g id="node16" class="node">
<title>Node16</title>
<g id="a_node16"><a xlink:href="Symmetry_8hpp.html" target="_top" xlink:title=" ">
<polygon fill="none" stroke="black" points="0,-185 0,-204 87,-204 87,-185 0,-185"/>
<text text-anchor="middle" x="43.5" y="-192" font-family="Helvetica,sans-Serif" font-size="10.00">Symmetry.hpp</text>
</a>
</g>
</g>
<!-- Node1&#45;&gt;Node16 -->
<g id="edge16" class="edge">
<title>Node1&#45;&gt;Node16</title>
<path fill="none" stroke="midnightblue" d="M1764.89,-265.68C1464.23,-264.15 428.82,-255.63 101.5,-210 95.23,-209.13 88.65,-207.84 82.27,-206.4"/>
<polygon fill="midnightblue" stroke="midnightblue" points="83.01,-202.98 72.47,-204.03 81.37,-209.78 83.01,-202.98"/>
</g>
<!-- Node18 -->
<g id="node18" class="node">
<title>Node18</title>
<g id="a_node18"><a xlink:href="SystemBase_8hpp.html" target="_top" xlink:title=" ">
<polygon fill="none" stroke="black" points="1166.5,-185 1166.5,-204 1264.5,-204 1264.5,-185 1166.5,-185"/>
<text text-anchor="middle" x="1215.5" y="-192" font-family="Helvetica,sans-Serif" font-size="10.00">SystemBase.hpp</text>
</a>
</g>
</g>
<!-- Node1&#45;&gt;Node18 -->
<g id="edge19" class="edge">
<title>Node1&#45;&gt;Node18</title>
<path fill="none" stroke="midnightblue" d="M1764.88,-256.78C1635.58,-242.36 1388.5,-214.8 1275.09,-202.15"/>
<polygon fill="midnightblue" stroke="midnightblue" points="1275.19,-198.64 1264.87,-201.01 1274.42,-205.59 1275.19,-198.64"/>
</g>
<!-- Node33 -->
<g id="node33" class="node">
<title>Node33</title>
<g id="a_node33"><a xlink:title=" ">
<polygon fill="none" stroke="#bfbfbf" points="1831.5,-118 1831.5,-137 1863.5,-137 1863.5,-118 1831.5,-118"/>
<text text-anchor="middle" x="1847.5" y="-125" font-family="Helvetica,sans-Serif" font-size="10.00">set</text>
</a>
</g>
</g>
<!-- Node1&#45;&gt;Node33 -->
<g id="edge56" class="edge">
<title>Node1&#45;&gt;Node33</title>
<path fill="none" stroke="midnightblue" d="M1847.5,-246.3C1847.5,-219.9 1847.5,-173.36 1847.5,-147.38"/>
<polygon fill="midnightblue" stroke="midnightblue" points="1851,-147.04 1847.5,-137.04 1844,-147.04 1851,-147.04"/>
</g>
<!-- Node35 -->
<g id="node35" class="node">
<title>Node35</title>
<g id="a_node35"><a xlink:href="WignerD_8hpp.html" target="_top" xlink:title=" ">
<polygon fill="none" stroke="black" points="1919.5,-185 1919.5,-204 1999.5,-204 1999.5,-185 1919.5,-185"/>
<text text-anchor="middle" x="1959.5" y="-192" font-family="Helvetica,sans-Serif" font-size="10.00">WignerD.hpp</text>
</a>
</g>
</g>
<!-- Node1&#45;&gt;Node35 -->
<g id="edge42" class="edge">
<title>Node1&#45;&gt;Node35</title>
<path fill="none" stroke="midnightblue" d="M1878.7,-246.36C1897.27,-234.67 1920.39,-220.12 1937.14,-209.57"/>
<polygon fill="midnightblue" stroke="midnightblue" points="1939.12,-212.46 1945.72,-204.17 1935.39,-206.54 1939.12,-212.46"/>
</g>
<!-- Node39 -->
<g id="node39" class="node">
<title>Node39</title>
<g id="a_node39"><a xlink:title=" ">
<polygon fill="none" stroke="#bfbfbf" points="2017.5,-185 2017.5,-204 2171.5,-204 2171.5,-185 2017.5,-185"/>
<text text-anchor="middle" x="2094.5" y="-192" font-family="Helvetica,sans-Serif" font-size="10.00">cereal/types/base_class.hpp</text>
</a>
</g>
</g>
<!-- Node1&#45;&gt;Node39 -->
<g id="edge51" class="edge">
<title>Node1&#45;&gt;Node39</title>
<path fill="none" stroke="midnightblue" d="M1915.98,-246.46C1960.61,-233.72 2017.29,-217.54 2054.67,-206.87"/>
<polygon fill="midnightblue" stroke="midnightblue" points="2056.02,-210.12 2064.67,-204.01 2054.1,-203.39 2056.02,-210.12"/>
</g>
<!-- Node40 -->
<g id="node40" class="node">
<title>Node40</title>
<g id="a_node40"><a xlink:title=" ">
<polygon fill="none" stroke="#bfbfbf" points="2190,-185 2190,-204 2351,-204 2351,-185 2190,-185"/>
<text text-anchor="middle" x="2270.5" y="-192" font-family="Helvetica,sans-Serif" font-size="10.00">cereal/types/polymorphic.hpp</text>
</a>
</g>
</g>
<!-- Node1&#45;&gt;Node40 -->
<g id="edge52" class="edge">
<title>Node1&#45;&gt;Node40</title>
<path fill="none" stroke="midnightblue" d="M1930.06,-252.24C2012.04,-238.58 2135.81,-217.95 2209.35,-205.69"/>
<polygon fill="midnightblue" stroke="midnightblue" points="2210.1,-209.11 2219.39,-204.02 2208.95,-202.21 2210.1,-209.11"/>
</g>
<!-- Node41 -->
<g id="node41" class="node">
<title>Node41</title>
<g id="a_node41"><a xlink:title=" ">
<polygon fill="none" stroke="#bfbfbf" points="2369,-179.5 2369,-209.5 2498,-209.5 2498,-179.5 2369,-179.5"/>
<text text-anchor="start" x="2377" y="-197.5" font-family="Helvetica,sans-Serif" font-size="10.00">cereal/types/unordered</text>
<text text-anchor="middle" x="2433.5" y="-186.5" font-family="Helvetica,sans-Serif" font-size="10.00">_map.hpp</text>
</a>
</g>
</g>
<!-- Node1&#45;&gt;Node41 -->
<g id="edge53" class="edge">
<title>Node1&#45;&gt;Node41</title>
<path fill="none" stroke="midnightblue" d="M1930.42,-259.19C2029.91,-250.52 2201.93,-233.92 2358.39,-210.25"/>
<polygon fill="midnightblue" stroke="midnightblue" points="2359.32,-213.65 2368.67,-208.68 2358.26,-206.73 2359.32,-213.65"/>
</g>
<!-- Node42 -->
<g id="node42" class="node">
<title>Node42</title>
<g id="a_node42"><a xlink:title=" ">
<polygon fill="none" stroke="#bfbfbf" points="2516,-185 2516,-204 2609,-204 2609,-185 2516,-185"/>
<text text-anchor="middle" x="2562.5" y="-192" font-family="Helvetica,sans-Serif" font-size="10.00">unordered_map</text>
</a>
</g>
</g>
<!-- Node1&#45;&gt;Node42 -->
<g id="edge57" class="edge">
<title>Node1&#45;&gt;Node42</title>
<path fill="none" stroke="midnightblue" d="M1930.14,-263.58C2055.7,-258.86 2301.69,-245.58 2507.5,-210 2512.91,-209.06 2518.57,-207.85 2524.11,-206.52"/>
<polygon fill="midnightblue" stroke="midnightblue" points="2525.04,-209.9 2533.88,-204.05 2523.32,-203.11 2525.04,-209.9"/>
</g>
<!-- Node2&#45;&gt;Node3 -->
<g id="edge2" class="edge">
<title>Node2&#45;&gt;Node3</title>
<path fill="none" stroke="midnightblue" d="M314.12,-117.89C320.97,-115.72 328.47,-113.57 335.5,-112 449.28,-86.59 482.94,-96.9 601.89,-75.94"/>
<polygon fill="midnightblue" stroke="midnightblue" points="602.53,-79.38 611.75,-74.17 601.29,-72.49 602.53,-79.38"/>
</g>
<!-- Node2&#45;&gt;Node5 -->
<g id="edge10" class="edge">
<title>Node2&#45;&gt;Node5</title>
<path fill="none" stroke="midnightblue" d="M290.17,-117.88C290.83,-103.73 290.3,-75.22 277.5,-56 267.75,-41.35 251.43,-30.52 236.9,-23.16"/>
<polygon fill="midnightblue" stroke="midnightblue" points="238.23,-19.91 227.69,-18.81 235.24,-26.24 238.23,-19.91"/>
</g>
<!-- Node2&#45;&gt;Node11 -->
<g id="edge11" class="edge">
<title>Node2&#45;&gt;Node11</title>
<path fill="none" stroke="midnightblue" d="M321.2,-121.71C344.69,-118.37 377.51,-114.14 406.5,-112 1064.9,-63.34 1233.17,-125.58 1891.5,-76 1903.77,-75.08 1917.16,-73.52 1928.98,-71.96"/>
<polygon fill="midnightblue" stroke="midnightblue" points="1929.46,-75.43 1938.89,-70.6 1928.51,-68.49 1929.46,-75.43"/>
</g>
<!-- Node12 -->
<g id="node12" class="node">
<title>Node12</title>
<g id="a_node12"><a xlink:title=" ">
<polygon fill="none" stroke="#bfbfbf" points="533.5,-56.5 533.5,-75.5 593.5,-75.5 593.5,-56.5 533.5,-56.5"/>
<text text-anchor="middle" x="563.5" y="-63.5" font-family="Helvetica,sans-Serif" font-size="10.00">iostream</text>
</a>
</g>
</g>
<!-- Node2&#45;&gt;Node12 -->
<g id="edge12" class="edge">
<title>Node2&#45;&gt;Node12</title>
<path fill="none" stroke="midnightblue" d="M314.66,-117.99C321.38,-115.87 328.68,-113.72 335.5,-112 415.34,-91.89 439.08,-93.46 523.28,-76.18"/>
<polygon fill="midnightblue" stroke="midnightblue" points="524.22,-79.56 533.29,-74.09 522.79,-72.7 524.22,-79.56"/>
</g>
<!-- Node13 -->
<g id="node13" class="node">
<title>Node13</title>
<g id="a_node13"><a xlink:title=" ">
<polygon fill="none" stroke="#bfbfbf" points="325.5,-56.5 325.5,-75.5 369.5,-75.5 369.5,-56.5 325.5,-56.5"/>
<text text-anchor="middle" x="347.5" y="-63.5" font-family="Helvetica,sans-Serif" font-size="10.00">string</text>
</a>
</g>
</g>
<!-- Node2&#45;&gt;Node13 -->
<g id="edge13" class="edge">
<title>Node2&#45;&gt;Node13</title>
<path fill="none" stroke="midnightblue" d="M297.81,-117.98C306.68,-108.87 320.95,-94.24 331.92,-82.98"/>
<polygon fill="midnightblue" stroke="midnightblue" points="334.73,-85.11 339.21,-75.51 329.72,-80.23 334.73,-85.11"/>
</g>
<!-- Node2&#45;&gt;Node14 -->
<g id="edge14" class="edge">
<title>Node2&#45;&gt;Node14</title>
<path fill="none" stroke="midnightblue" d="M277.61,-117.98C264.3,-108.43 242.5,-92.81 226.54,-81.37"/>
<polygon fill="midnightblue" stroke="midnightblue" points="228.54,-78.49 218.37,-75.51 224.46,-84.18 228.54,-78.49"/>
</g>
<!-- Node15 -->
<g id="node15" class="node">
<title>Node15</title>
<g id="a_node15"><a xlink:title=" ">
<polygon fill="none" stroke="#bfbfbf" points="387.5,-56.5 387.5,-75.5 515.5,-75.5 515.5,-56.5 387.5,-56.5"/>
<text text-anchor="middle" x="451.5" y="-63.5" font-family="Helvetica,sans-Serif" font-size="10.00">cereal/types/string.hpp</text>
</a>
</g>
</g>
<!-- Node2&#45;&gt;Node15 -->
<g id="edge15" class="edge">
<title>Node2&#45;&gt;Node15</title>
<path fill="none" stroke="midnightblue" d="M312.71,-117.98C340.5,-107.77 387.22,-90.61 418.69,-79.05"/>
<polygon fill="midnightblue" stroke="midnightblue" points="420.15,-82.24 428.33,-75.51 417.74,-75.67 420.15,-82.24"/>
</g>
<!-- Node4 -->
<g id="node4" class="node">
<title>Node4</title>
<g id="a_node4"><a xlink:title=" ">
<polygon fill="none" stroke="#bfbfbf" points="995.5,-0.5 995.5,-19.5 1059.5,-19.5 1059.5,-0.5 995.5,-0.5"/>
<text text-anchor="middle" x="1027.5" y="-7.5" font-family="Helvetica,sans-Serif" font-size="10.00">algorithm</text>
</a>
</g>
</g>
<!-- Node3&#45;&gt;Node4 -->
<g id="edge3" class="edge">
<title>Node3&#45;&gt;Node4</title>
<path fill="none" stroke="midnightblue" d="M671.25,-61.75C730.61,-55.1 867.92,-39 982.5,-20 983.39,-19.85 984.3,-19.7 985.21,-19.54"/>
<polygon fill="midnightblue" stroke="midnightblue" points="985.89,-22.98 995.1,-17.75 984.64,-16.09 985.89,-22.98"/>
</g>
<!-- Node3&#45;&gt;Node5 -->
<g id="edge4" class="edge">
<title>Node3&#45;&gt;Node5</title>
<path fill="none" stroke="midnightblue" d="M611.76,-57.77C608.64,-57.12 605.51,-56.52 602.5,-56 467.81,-32.88 305.24,-18.65 237.98,-13.35"/>
<polygon fill="midnightblue" stroke="midnightblue" points="237.9,-9.84 227.66,-12.55 237.35,-16.82 237.9,-9.84"/>
</g>
<!-- Node6 -->
<g id="node6" class="node">
<title>Node6</title>
<g id="a_node6"><a xlink:title=" ">
<polygon fill="none" stroke="#bfbfbf" points="1881,-0.5 1881,-19.5 1940,-19.5 1940,-0.5 1881,-0.5"/>
<text text-anchor="middle" x="1910.5" y="-7.5" font-family="Helvetica,sans-Serif" font-size="10.00">complex</text>
</a>
</g>
</g>
<!-- Node3&#45;&gt;Node6 -->
<g id="edge5" class="edge">
<title>Node3&#45;&gt;Node6</title>
<path fill="none" stroke="midnightblue" d="M671,-63.74C839.28,-56.58 1677.18,-20.93 1870.61,-12.7"/>
<polygon fill="midnightblue" stroke="midnightblue" points="1871.04,-16.18 1880.88,-12.26 1870.74,-9.19 1871.04,-16.18"/>
</g>
<!-- Node7 -->
<g id="node7" class="node">
<title>Node7</title>
<g id="a_node7"><a xlink:title=" ">
<polygon fill="none" stroke="#bfbfbf" points="908,-0.5 908,-19.5 973,-19.5 973,-0.5 908,-0.5"/>
<text text-anchor="middle" x="940.5" y="-7.5" font-family="Helvetica,sans-Serif" font-size="10.00">functional</text>
</a>
</g>
</g>
<!-- Node3&#45;&gt;Node7 -->
<g id="edge6" class="edge">
<title>Node3&#45;&gt;Node7</title>
<path fill="none" stroke="midnightblue" d="M671.26,-59.62C724.46,-50.02 836.04,-29.86 897.55,-18.76"/>
<polygon fill="midnightblue" stroke="midnightblue" points="898.48,-22.15 907.7,-16.92 897.23,-15.26 898.48,-22.15"/>
</g>
<!-- Node8 -->
<g id="node8" class="node">
<title>Node8</title>
<g id="a_node8"><a xlink:title=" ">
<polygon fill="none" stroke="#bfbfbf" points="614.5,-0.5 614.5,-19.5 668.5,-19.5 668.5,-0.5 614.5,-0.5"/>
<text text-anchor="middle" x="641.5" y="-7.5" font-family="Helvetica,sans-Serif" font-size="10.00">random</text>
</a>
</g>
</g>
<!-- Node3&#45;&gt;Node8 -->
<g id="edge7" class="edge">
<title>Node3&#45;&gt;Node8</title>
<path fill="none" stroke="midnightblue" d="M641.5,-56.08C641.5,-49.01 641.5,-38.86 641.5,-29.99"/>
<polygon fill="midnightblue" stroke="midnightblue" points="645,-29.75 641.5,-19.75 638,-29.75 645,-29.75"/>
</g>
<!-- Node9 -->
<g id="node9" class="node">
<title>Node9</title>
<g id="a_node9"><a xlink:title=" ">
<polygon fill="none" stroke="#bfbfbf" points="687,-0.5 687,-19.5 756,-19.5 756,-0.5 687,-0.5"/>
<text text-anchor="middle" x="721.5" y="-7.5" font-family="Helvetica,sans-Serif" font-size="10.00">type_traits</text>
</a>
</g>
</g>
<!-- Node3&#45;&gt;Node9 -->
<g id="edge8" class="edge">
<title>Node3&#45;&gt;Node9</title>
<path fill="none" stroke="midnightblue" d="M654.35,-56.32C666.72,-47.98 685.63,-35.21 700.24,-25.35"/>
<polygon fill="midnightblue" stroke="midnightblue" points="702.35,-28.15 708.68,-19.65 698.43,-22.35 702.35,-28.15"/>
</g>
<!-- Node10 -->
<g id="node10" class="node">
<title>Node10</title>
<g id="a_node10"><a xlink:title=" ">
<polygon fill="none" stroke="#bfbfbf" points="540.5,-0.5 540.5,-19.5 596.5,-19.5 596.5,-0.5 540.5,-0.5"/>
<text text-anchor="middle" x="568.5" y="-7.5" font-family="Helvetica,sans-Serif" font-size="10.00">unistd.h</text>
</a>
</g>
</g>
<!-- Node3&#45;&gt;Node10 -->
<g id="edge9" class="edge">
<title>Node3&#45;&gt;Node10</title>
<path fill="none" stroke="midnightblue" d="M629.77,-56.32C618.66,-48.11 601.76,-35.6 588.52,-25.81"/>
<polygon fill="midnightblue" stroke="midnightblue" points="590.56,-22.97 580.44,-19.83 586.4,-28.59 590.56,-22.97"/>
</g>
<!-- Node16&#45;&gt;Node5 -->
<g id="edge17" class="edge">
<title>Node16&#45;&gt;Node5</title>
<path fill="none" stroke="midnightblue" d="M38.61,-184.93C30.53,-169.53 16.41,-136.52 28.5,-112 56.6,-55.04 132.25,-28.38 175.34,-17.48"/>
<polygon fill="midnightblue" stroke="midnightblue" points="176.38,-20.83 185.29,-15.1 174.75,-14.02 176.38,-20.83"/>
</g>
<!-- Node17 -->
<g id="node17" class="node">
<title>Node17</title>
<g id="a_node17"><a xlink:title=" ">
<polygon fill="none" stroke="#bfbfbf" points="37.5,-118 37.5,-137 87.5,-137 87.5,-118 37.5,-118"/>
<text text-anchor="middle" x="62.5" y="-125" font-family="Helvetica,sans-Serif" font-size="10.00">climits</text>
</a>
</g>
</g>
<!-- Node16&#45;&gt;Node17 -->
<g id="edge18" class="edge">
<title>Node16&#45;&gt;Node17</title>
<path fill="none" stroke="midnightblue" d="M46.06,-184.73C48.88,-175.09 53.5,-159.3 57.12,-146.91"/>
<polygon fill="midnightblue" stroke="midnightblue" points="60.53,-147.71 59.98,-137.13 53.81,-145.74 60.53,-147.71"/>
</g>
<!-- Node18&#45;&gt;Node2 -->
<g id="edge20" class="edge">
<title>Node18&#45;&gt;Node2</title>
<path fill="none" stroke="midnightblue" d="M1166.45,-192.46C1036.65,-189.3 673.53,-177.78 373.5,-143 359.68,-141.4 344.68,-139.02 331.23,-136.64"/>
<polygon fill="midnightblue" stroke="midnightblue" points="331.75,-133.18 321.29,-134.84 330.51,-140.07 331.75,-133.18"/>
</g>
<!-- Node18&#45;&gt;Node3 -->
<g id="edge29" class="edge">
<title>Node18&#45;&gt;Node3</title>
<path fill="none" stroke="midnightblue" d="M1166.42,-192.27C995.1,-187.74 432.62,-170.8 406.5,-143 304.43,-34.36 217.07,-154.06 601.67,-76.08"/>
<polygon fill="midnightblue" stroke="midnightblue" points="602.63,-79.46 611.72,-74.02 601.22,-72.6 602.63,-79.46"/>
</g>
<!-- Node18&#45;&gt;Node4 -->
<g id="edge37" class="edge">
<title>Node18&#45;&gt;Node4</title>
<path fill="none" stroke="midnightblue" d="M1223.71,-184.87C1237.42,-169.39 1262.01,-136.23 1246.5,-112 1240.97,-103.35 1115.34,-48.66 1056.9,-23.56"/>
<polygon fill="midnightblue" stroke="midnightblue" points="1058.04,-20.24 1047.47,-19.52 1055.28,-26.67 1058.04,-20.24"/>
</g>
<!-- Node18&#45;&gt;Node6 -->
<g id="edge38" class="edge">
<title>Node18&#45;&gt;Node6</title>
<path fill="none" stroke="midnightblue" d="M1264.8,-192.81C1385.11,-190.56 1690.8,-181.12 1784.5,-143 1804.69,-134.79 1804.3,-123.99 1822.5,-112 1851.38,-92.97 1869.56,-102.74 1891.5,-76 1902.33,-62.8 1906.99,-43.67 1908.99,-29.58"/>
<polygon fill="midnightblue" stroke="midnightblue" points="1912.48,-29.89 1910.09,-19.56 1905.52,-29.12 1912.48,-29.89"/>
</g>
<!-- Node18&#45;&gt;Node7 -->
<g id="edge39" class="edge">
<title>Node18&#45;&gt;Node7</title>
<path fill="none" stroke="midnightblue" d="M1184.33,-184.94C1157.01,-176.64 1116.89,-162.44 1085.5,-143 1071.17,-134.12 992.18,-59.93 957.19,-26.83"/>
<polygon fill="midnightblue" stroke="midnightblue" points="959.35,-24.05 949.68,-19.72 954.53,-29.14 959.35,-24.05"/>
</g>
<!-- Node19 -->
<g id="node19" class="node">
<title>Node19</title>
<g id="a_node19"><a xlink:href="serialization__eigen_8hpp.html" target="_top" xlink:title=" ">
<polygon fill="none" stroke="black" points="1481.5,-118 1481.5,-137 1611.5,-137 1611.5,-118 1481.5,-118"/>
<text text-anchor="middle" x="1546.5" y="-125" font-family="Helvetica,sans-Serif" font-size="10.00">serialization_eigen.hpp</text>
</a>
</g>
</g>
<!-- Node18&#45;&gt;Node19 -->
<g id="edge21" class="edge">
<title>Node18&#45;&gt;Node19</title>
<path fill="none" stroke="midnightblue" d="M1259.11,-184.94C1319.35,-173.11 1427.93,-151.78 1493,-139.01"/>
<polygon fill="midnightblue" stroke="midnightblue" points="1493.92,-142.39 1503.05,-137.03 1492.57,-135.52 1493.92,-142.39"/>
</g>
<!-- Node26 -->
<g id="node26" class="node">
<title>Node26</title>
<g id="a_node26"><a xlink:title=" ">
<polygon fill="none" stroke="#bfbfbf" points="1094,-112.5 1094,-142.5 1237,-142.5 1237,-112.5 1094,-112.5"/>
<text text-anchor="start" x="1102" y="-130.5" font-family="Helvetica,sans-Serif" font-size="10.00">boost/multi_index/hashed</text>
<text text-anchor="middle" x="1165.5" y="-119.5" font-family="Helvetica,sans-Serif" font-size="10.00">_index.hpp</text>
</a>
</g>
</g>
<!-- Node18&#45;&gt;Node26 -->
<g id="edge30" class="edge">
<title>Node18&#45;&gt;Node26</title>
<path fill="none" stroke="midnightblue" d="M1208.76,-184.73C1202.06,-176.03 1191.53,-162.34 1182.54,-150.65"/>
<polygon fill="midnightblue" stroke="midnightblue" points="1185.21,-148.38 1176.34,-142.59 1179.66,-152.65 1185.21,-148.38"/>
</g>
<!-- Node27 -->
<g id="node27" class="node">
<title>Node27</title>
<g id="a_node27"><a xlink:title=" ">
<polygon fill="none" stroke="#bfbfbf" points="1293.5,-118 1293.5,-137 1463.5,-137 1463.5,-118 1293.5,-118"/>
<text text-anchor="middle" x="1378.5" y="-125" font-family="Helvetica,sans-Serif" font-size="10.00">boost/multi_index/member.hpp</text>
</a>
</g>
</g>
<!-- Node18&#45;&gt;Node27 -->
<g id="edge31" class="edge">
<title>Node18&#45;&gt;Node27</title>
<path fill="none" stroke="midnightblue" d="M1237.15,-184.87C1265.48,-173.57 1315.32,-153.7 1347.61,-140.82"/>
<polygon fill="midnightblue" stroke="midnightblue" points="1349.03,-144.02 1357.02,-137.06 1346.44,-137.52 1349.03,-144.02"/>
</g>
<!-- Node28 -->
<g id="node28" class="node">
<title>Node28</title>
<g id="a_node28"><a xlink:title=" ">
<polygon fill="none" stroke="#bfbfbf" points="1630,-112.5 1630,-142.5 1775,-142.5 1775,-112.5 1630,-112.5"/>
<text text-anchor="start" x="1638" y="-130.5" font-family="Helvetica,sans-Serif" font-size="10.00">boost/multi_index/random</text>
<text text-anchor="middle" x="1702.5" y="-119.5" font-family="Helvetica,sans-Serif" font-size="10.00">_access_index.hpp</text>
</a>
</g>
</g>
<!-- Node18&#45;&gt;Node28 -->
<g id="edge32" class="edge">
<title>Node18&#45;&gt;Node28</title>
<path fill="none" stroke="midnightblue" d="M1264.55,-188.2C1338.97,-179.98 1485.1,-163.14 1619.58,-143.09"/>
<polygon fill="midnightblue" stroke="midnightblue" points="1620.28,-146.52 1629.65,-141.58 1619.25,-139.6 1620.28,-146.52"/>
</g>
<!-- Node29 -->
<g id="node29" class="node">
<title>Node29</title>
<g id="a_node29"><a xlink:title=" ">
<polygon fill="none" stroke="#bfbfbf" points="415.5,-118 415.5,-137 591.5,-137 591.5,-118 415.5,-118"/>
<text text-anchor="middle" x="503.5" y="-125" font-family="Helvetica,sans-Serif" font-size="10.00">boost/multi_index_container.hpp</text>
</a>
</g>
</g>
<!-- Node18&#45;&gt;Node29 -->
<g id="edge33" class="edge">
<title>Node18&#45;&gt;Node29</title>
<path fill="none" stroke="midnightblue" d="M1166.45,-190.55C1062.22,-184.04 811.09,-167.1 601.5,-143 590.27,-141.71 578.34,-140.12 566.82,-138.48"/>
<polygon fill="midnightblue" stroke="midnightblue" points="567.22,-135 556.82,-137.03 566.22,-141.93 567.22,-135"/>
</g>
<!-- Node30 -->
<g id="node30" class="node">
<title>Node30</title>
<g id="a_node30"><a xlink:title=" ">
<polygon fill="none" stroke="#bfbfbf" points="610,-118 610,-137 753,-137 753,-118 610,-118"/>
<text text-anchor="middle" x="681.5" y="-125" font-family="Helvetica,sans-Serif" font-size="10.00">cereal/types/complex.hpp</text>
</a>
</g>
</g>
<!-- Node18&#45;&gt;Node30 -->
<g id="edge34" class="edge">
<title>Node18&#45;&gt;Node30</title>
<path fill="none" stroke="midnightblue" d="M1166.43,-189.1C1083.16,-181.4 908.95,-164.25 762.5,-143 753.87,-141.75 744.75,-140.27 735.87,-138.74"/>
<polygon fill="midnightblue" stroke="midnightblue" points="736.43,-135.29 725.98,-137.01 735.22,-142.18 736.43,-135.29"/>
</g>
<!-- Node31 -->
<g id="node31" class="node">
<title>Node31</title>
<g id="a_node31"><a xlink:title=" ">
<polygon fill="none" stroke="#bfbfbf" points="771.5,-118 771.5,-137 887.5,-137 887.5,-118 771.5,-118"/>
<text text-anchor="middle" x="829.5" y="-125" font-family="Helvetica,sans-Serif" font-size="10.00">cereal/types/set.hpp</text>
</a>
</g>
</g>
<!-- Node18&#45;&gt;Node31 -->
<g id="edge35" class="edge">
<title>Node18&#45;&gt;Node31</title>
<path fill="none" stroke="midnightblue" d="M1166.33,-186.51C1103.73,-177.43 992.3,-160.62 897.5,-143 891.19,-141.83 884.57,-140.52 878.04,-139.18"/>
<polygon fill="midnightblue" stroke="midnightblue" points="878.41,-135.68 867.91,-137.06 876.98,-142.53 878.41,-135.68"/>
</g>
<!-- Node32 -->
<g id="node32" class="node">
<title>Node32</title>
<g id="a_node32"><a xlink:title=" ">
<polygon fill="none" stroke="#bfbfbf" points="906,-118 906,-137 1037,-137 1037,-118 906,-118"/>
<text text-anchor="middle" x="971.5" y="-125" font-family="Helvetica,sans-Serif" font-size="10.00">cereal/types/vector.hpp</text>
</a>
</g>
</g>
<!-- Node18&#45;&gt;Node32 -->
<g id="edge36" class="edge">
<title>Node18&#45;&gt;Node32</title>
<path fill="none" stroke="midnightblue" d="M1183.35,-184.94C1139.74,-173.32 1061.75,-152.54 1013.53,-139.7"/>
<polygon fill="midnightblue" stroke="midnightblue" points="1014.28,-136.28 1003.72,-137.08 1012.48,-143.04 1014.28,-136.28"/>
</g>
<!-- Node18&#45;&gt;Node33 -->
<g id="edge40" class="edge">
<title>Node18&#45;&gt;Node33</title>
<path fill="none" stroke="midnightblue" d="M1264.85,-191.68C1389.36,-186.72 1713.68,-171.39 1817.5,-143 1819.23,-142.53 1820.97,-141.96 1822.71,-141.32"/>
<polygon fill="midnightblue" stroke="midnightblue" points="1824.56,-144.33 1832.35,-137.15 1821.78,-137.91 1824.56,-144.33"/>
</g>
<!-- Node34 -->
<g id="node34" class="node">
<title>Node34</title>
<g id="a_node34"><a xlink:title=" ">
<polygon fill="none" stroke="#bfbfbf" points="1920,-118 1920,-137 1967,-137 1967,-118 1920,-118"/>
<text text-anchor="middle" x="1943.5" y="-125" font-family="Helvetica,sans-Serif" font-size="10.00">vector</text>
</a>
</g>
</g>
<!-- Node18&#45;&gt;Node34 -->
<g id="edge41" class="edge">
<title>Node18&#45;&gt;Node34</title>
<path fill="none" stroke="midnightblue" d="M1264.76,-191.81C1374.42,-187.6 1646.76,-174.6 1872.5,-143 1884.83,-141.27 1898.25,-138.71 1910.06,-136.22"/>
<polygon fill="midnightblue" stroke="midnightblue" points="1910.93,-139.62 1919.96,-134.08 1909.45,-132.78 1910.93,-139.62"/>
</g>
<!-- Node20 -->
<g id="node20" class="node">
<title>Node20</title>
<g id="a_node20"><a xlink:title=" ">
<polygon fill="none" stroke="#bfbfbf" points="1465.5,-56.5 1465.5,-75.5 1609.5,-75.5 1609.5,-56.5 1465.5,-56.5"/>
<text text-anchor="middle" x="1537.5" y="-63.5" font-family="Helvetica,sans-Serif" font-size="10.00">cereal/archives/binary.hpp</text>
</a>
</g>
</g>
<!-- Node19&#45;&gt;Node20 -->
<g id="edge22" class="edge">
<title>Node19&#45;&gt;Node20</title>
<path fill="none" stroke="midnightblue" d="M1545.21,-117.98C1543.94,-109.58 1541.96,-96.48 1540.32,-85.66"/>
<polygon fill="midnightblue" stroke="midnightblue" points="1543.74,-84.87 1538.79,-75.51 1536.82,-85.92 1543.74,-84.87"/>
</g>
<!-- Node21 -->
<g id="node21" class="node">
<title>Node21</title>
<g id="a_node21"><a xlink:title=" ">
<polygon fill="none" stroke="#bfbfbf" points="1628,-56.5 1628,-75.5 1763,-75.5 1763,-56.5 1628,-56.5"/>
<text text-anchor="middle" x="1695.5" y="-63.5" font-family="Helvetica,sans-Serif" font-size="10.00">cereal/archives/json.hpp</text>
</a>
</g>
</g>
<!-- Node19&#45;&gt;Node21 -->
<g id="edge23" class="edge">
<title>Node19&#45;&gt;Node21</title>
<path fill="none" stroke="midnightblue" d="M1567.85,-117.98C1593.19,-107.86 1635.64,-90.9 1664.57,-79.35"/>
<polygon fill="midnightblue" stroke="midnightblue" points="1666.2,-82.47 1674.19,-75.51 1663.61,-75.97 1666.2,-82.47"/>
</g>
<!-- Node22 -->
<g id="node22" class="node">
<title>Node22</title>
<g id="a_node22"><a xlink:title=" ">
<polygon fill="none" stroke="#bfbfbf" points="1781,-56.5 1781,-75.5 1882,-75.5 1882,-56.5 1781,-56.5"/>
<text text-anchor="middle" x="1831.5" y="-63.5" font-family="Helvetica,sans-Serif" font-size="10.00">cereal/cereal.hpp</text>
</a>
</g>
</g>
<!-- Node19&#45;&gt;Node22 -->
<g id="edge24" class="edge">
<title>Node19&#45;&gt;Node22</title>
<path fill="none" stroke="midnightblue" d="M1587.33,-117.98C1638.34,-107.33 1725.6,-89.11 1780.82,-77.58"/>
<polygon fill="midnightblue" stroke="midnightblue" points="1781.67,-80.98 1790.74,-75.51 1780.24,-74.13 1781.67,-80.98"/>
</g>
<!-- Node23 -->
<g id="node23" class="node">
<title>Node23</title>
<g id="a_node23"><a xlink:href="EigenCompat_8hpp.html" target="_top" xlink:title=" ">
<polygon fill="none" stroke="black" points="1306,-56.5 1306,-75.5 1409,-75.5 1409,-56.5 1306,-56.5"/>
<text text-anchor="middle" x="1357.5" y="-63.5" font-family="Helvetica,sans-Serif" font-size="10.00">EigenCompat.hpp</text>
</a>
</g>
</g>
<!-- Node19&#45;&gt;Node23 -->
<g id="edge25" class="edge">
<title>Node19&#45;&gt;Node23</title>
<path fill="none" stroke="midnightblue" d="M1519.42,-117.98C1486.58,-107.64 1431.07,-90.16 1394.35,-78.6"/>
<polygon fill="midnightblue" stroke="midnightblue" points="1395.12,-75.17 1384.53,-75.51 1393.02,-81.85 1395.12,-75.17"/>
</g>
<!-- Node24 -->
<g id="node24" class="node">
<title>Node24</title>
<g id="a_node24"><a xlink:title=" ">
<polygon fill="none" stroke="#bfbfbf" points="1363,-0.5 1363,-19.5 1432,-19.5 1432,-0.5 1363,-0.5"/>
<text text-anchor="middle" x="1397.5" y="-7.5" font-family="Helvetica,sans-Serif" font-size="10.00">Eigen/Core</text>
</a>
</g>
</g>
<!-- Node19&#45;&gt;Node24 -->
<g id="edge27" class="edge">
<title>Node19&#45;&gt;Node24</title>
<path fill="none" stroke="midnightblue" d="M1527.13,-117.89C1508.11,-108.93 1478.78,-93.75 1456.5,-76 1438.7,-61.83 1421.6,-42.08 1410.43,-28.08"/>
<polygon fill="midnightblue" stroke="midnightblue" points="1412.91,-25.56 1404,-19.82 1407.38,-29.86 1412.91,-25.56"/>
</g>
<!-- Node25 -->
<g id="node25" class="node">
<title>Node25</title>
<g id="a_node25"><a xlink:title=" ">
<polygon fill="none" stroke="#bfbfbf" points="1185.5,-56.5 1185.5,-75.5 1287.5,-75.5 1287.5,-56.5 1185.5,-56.5"/>
<text text-anchor="middle" x="1236.5" y="-63.5" font-family="Helvetica,sans-Serif" font-size="10.00">Eigen/SparseCore</text>
</a>
</g>
</g>
<!-- Node19&#45;&gt;Node25 -->
<g id="edge28" class="edge">
<title>Node19&#45;&gt;Node25</title>
<path fill="none" stroke="midnightblue" d="M1503.07,-117.95C1493.04,-115.99 1482.4,-113.91 1472.5,-112 1410.56,-100.03 1339.44,-86.49 1291.6,-77.42"/>
<polygon fill="midnightblue" stroke="midnightblue" points="1292.23,-73.98 1281.76,-75.56 1290.93,-80.86 1292.23,-73.98"/>
</g>
<!-- Node23&#45;&gt;Node24 -->
<g id="edge26" class="edge">
<title>Node23&#45;&gt;Node24</title>
<path fill="none" stroke="midnightblue" d="M1364.11,-56.08C1369.76,-48.46 1378.04,-37.26 1384.95,-27.94"/>
<polygon fill="midnightblue" stroke="midnightblue" points="1387.88,-29.87 1391.02,-19.75 1382.25,-25.7 1387.88,-29.87"/>
</g>
<!-- Node35&#45;&gt;Node6 -->
<g id="edge46" class="edge">
<title>Node35&#45;&gt;Node6</title>
<path fill="none" stroke="midnightblue" d="M1966.08,-184.8C1982.43,-162.05 2021.72,-99.55 1995.5,-56 1985.49,-39.38 1967.06,-28.58 1949.91,-21.73"/>
<polygon fill="midnightblue" stroke="midnightblue" points="1950.63,-18.27 1940.03,-18.15 1948.24,-24.85 1950.63,-18.27"/>
</g>
<!-- Node35&#45;&gt;Node11 -->
<g id="edge45" class="edge">
<title>Node35&#45;&gt;Node11</title>
<path fill="none" stroke="midnightblue" d="M1963.41,-184.78C1967.61,-174.89 1974.02,-158.15 1976.5,-143 1978.73,-129.4 1978.57,-125.62 1976.5,-112 1975.13,-103 1972.31,-93.33 1969.55,-85.26"/>
<polygon fill="midnightblue" stroke="midnightblue" points="1972.81,-83.98 1966.1,-75.78 1966.23,-86.37 1972.81,-83.98"/>
</g>
<!-- Node35&#45;&gt;Node34 -->
<g id="edge48" class="edge">
<title>Node35&#45;&gt;Node34</title>
<path fill="none" stroke="midnightblue" d="M1957.34,-184.73C1954.97,-175.09 1951.08,-159.3 1948.03,-146.91"/>
<polygon fill="midnightblue" stroke="midnightblue" points="1951.41,-146 1945.62,-137.13 1944.62,-147.67 1951.41,-146"/>
</g>
<!-- Node36 -->
<g id="node36" class="node">
<title>Node36</title>
<g id="a_node36"><a xlink:title=" ">
<polygon fill="none" stroke="#bfbfbf" points="2061.5,-112.5 2061.5,-142.5 2195.5,-142.5 2195.5,-112.5 2061.5,-112.5"/>
<text text-anchor="start" x="2069.5" y="-130.5" font-family="Helvetica,sans-Serif" font-size="10.00">boost/math/special</text>
<text text-anchor="middle" x="2128.5" y="-119.5" font-family="Helvetica,sans-Serif" font-size="10.00">_functions/binomial.hpp</text>
</a>
</g>
</g>
<!-- Node35&#45;&gt;Node36 -->
<g id="edge43" class="edge">
<title>Node35&#45;&gt;Node36</title>
<path fill="none" stroke="midnightblue" d="M1981.94,-184.87C2007.52,-175.03 2050.01,-158.69 2082.67,-146.13"/>
<polygon fill="midnightblue" stroke="midnightblue" points="2083.95,-149.38 2092.03,-142.53 2081.44,-142.85 2083.95,-149.38"/>
</g>
<!-- Node37 -->
<g id="node37" class="node">
<title>Node37</title>
<g id="a_node37"><a xlink:title=" ">
<polygon fill="none" stroke="#bfbfbf" points="2214,-112.5 2214,-142.5 2351,-142.5 2351,-112.5 2214,-112.5"/>
<text text-anchor="start" x="2222" y="-130.5" font-family="Helvetica,sans-Serif" font-size="10.00">boost/math/special</text>
<text text-anchor="middle" x="2282.5" y="-119.5" font-family="Helvetica,sans-Serif" font-size="10.00">_functions/factorials.hpp</text>
</a>
</g>
</g>
<!-- Node35&#45;&gt;Node37 -->
<g id="edge44" class="edge">
<title>Node35&#45;&gt;Node37</title>
<path fill="none" stroke="midnightblue" d="M1986.58,-184.93C1993.67,-182.84 2001.34,-180.71 2008.5,-179 2091.61,-159.13 2115.73,-159.07 2203.72,-143.13"/>
<polygon fill="midnightblue" stroke="midnightblue" points="2204.39,-146.56 2213.6,-141.32 2203.13,-139.67 2204.39,-146.56"/>
</g>
<!-- Node38 -->
<g id="node38" class="node">
<title>Node38</title>
<g id="a_node38"><a xlink:title=" ">
<polygon fill="none" stroke="#bfbfbf" points="2369.5,-118 2369.5,-137 2425.5,-137 2425.5,-118 2369.5,-118"/>
<text text-anchor="middle" x="2397.5" y="-125" font-family="Helvetica,sans-Serif" font-size="10.00">numeric</text>
</a>
</g>
</g>
<!-- Node35&#45;&gt;Node38 -->
<g id="edge47" class="edge">
<title>Node35&#45;&gt;Node38</title>
<path fill="none" stroke="midnightblue" d="M1984.96,-184.99C1992.47,-182.75 2000.75,-180.53 2008.5,-179 2162.79,-148.56 2207.66,-180.03 2360.5,-143 2363.33,-142.31 2366.23,-141.46 2369.1,-140.51"/>
<polygon fill="midnightblue" stroke="midnightblue" points="2370.42,-143.76 2378.62,-137.04 2368.02,-137.18 2370.42,-143.76"/>
</g>
</g>
</svg>
