<?xml version="1.0" encoding="UTF-8" standalone="no"?>
<!DOCTYPE svg PUBLIC "-//W3C//DTD SVG 1.1//EN"
 "http://www.w3.org/Graphics/SVG/1.1/DTD/svg11.dtd">
<!-- Generated by graphviz version 2.43.0 (0)
 -->
<!-- Title: /__w/pairinteraction/pairinteraction/pairinteraction/Wavefunction.hpp Pages: 1 -->
<svg width="1147pt" height="274pt"
 viewBox="0.00 0.00 1146.50 274.00" xmlns="http://www.w3.org/2000/svg" xmlns:xlink="http://www.w3.org/1999/xlink">
<g id="graph0" class="graph" transform="scale(1 1) rotate(0) translate(4 270)">
<title>/__w/pairinteraction/pairinteraction/pairinteraction/Wavefunction.hpp</title>
<!-- Node1 -->
<g id="node1" class="node">
<title>Node1</title>
<g id="a_node1"><a xlink:title=" ">
<polygon fill="#bfbfbf" stroke="black" points="854.5,-224.5 854.5,-265.5 1019.5,-265.5 1019.5,-224.5 854.5,-224.5"/>
<text text-anchor="start" x="862.5" y="-253.5" font-family="Helvetica,sans-Serif" font-size="10.00">/__w/pairinteraction</text>
<text text-anchor="start" x="862.5" y="-242.5" font-family="Helvetica,sans-Serif" font-size="10.00">/pairinteraction/pairinteraction</text>
<text text-anchor="middle" x="937" y="-231.5" font-family="Helvetica,sans-Serif" font-size="10.00">/Wavefunction.hpp</text>
</a>
</g>
</g>
<!-- Node2 -->
<g id="node2" class="node">
<title>Node2</title>
<g id="a_node2"><a xlink:href="QuantumDefect_8hpp.html" target="_top" xlink:title=" ">
<polygon fill="none" stroke="black" points="626.5,-168.5 626.5,-187.5 741.5,-187.5 741.5,-168.5 626.5,-168.5"/>
<text text-anchor="middle" x="684" y="-175.5" font-family="Helvetica,sans-Serif" font-size="10.00">QuantumDefect.hpp</text>
</a>
</g>
</g>
<!-- Node1&#45;&gt;Node2 -->
<g id="edge1" class="edge">
<title>Node1&#45;&gt;Node2</title>
<path fill="none" stroke="midnightblue" d="M861.09,-224.5C817.32,-213.25 763.87,-199.52 727.22,-190.1"/>
<polygon fill="midnightblue" stroke="midnightblue" points="727.9,-186.67 717.35,-187.57 726.16,-193.45 727.9,-186.67"/>
</g>
<!-- Node8 -->
<g id="node8" class="node">
<title>Node8</title>
<g id="a_node8"><a xlink:title=" ">
<polygon fill="none" stroke="#bfbfbf" points="805,-56.5 805,-75.5 849,-75.5 849,-56.5 805,-56.5"/>
<text text-anchor="middle" x="827" y="-63.5" font-family="Helvetica,sans-Serif" font-size="10.00">string</text>
</a>
</g>
</g>
<!-- Node1&#45;&gt;Node8 -->
<g id="edge27" class="edge">
<title>Node1&#45;&gt;Node8</title>
<path fill="none" stroke="midnightblue" d="M854.3,-229.18C831.65,-220.92 809.61,-208.05 796,-188 774.08,-155.7 798.31,-109 814.63,-84.12"/>
<polygon fill="midnightblue" stroke="midnightblue" points="817.62,-85.95 820.38,-75.73 811.84,-82 817.62,-85.95"/>
</g>
<!-- Node19 -->
<g id="node19" class="node">
<title>Node19</title>
<g id="a_node19"><a xlink:href="EigenCompat_8hpp.html" target="_top" xlink:title=" ">
<polygon fill="none" stroke="black" points="805.5,-168.5 805.5,-187.5 908.5,-187.5 908.5,-168.5 805.5,-168.5"/>
<text text-anchor="middle" x="857" y="-175.5" font-family="Helvetica,sans-Serif" font-size="10.00">EigenCompat.hpp</text>
</a>
</g>
</g>
<!-- Node1&#45;&gt;Node19 -->
<g id="edge22" class="edge">
<title>Node1&#45;&gt;Node19</title>
<path fill="none" stroke="midnightblue" d="M913,-224.5C900.97,-214.72 886.63,-203.07 875.47,-194.01"/>
<polygon fill="midnightblue" stroke="midnightblue" points="877.62,-191.24 867.65,-187.65 873.2,-196.67 877.62,-191.24"/>
</g>
<!-- Node20 -->
<g id="node20" class="node">
<title>Node20</title>
<g id="a_node20"><a xlink:title=" ">
<polygon fill="none" stroke="#bfbfbf" points="862.5,-112.5 862.5,-131.5 931.5,-131.5 931.5,-112.5 862.5,-112.5"/>
<text text-anchor="middle" x="897" y="-119.5" font-family="Helvetica,sans-Serif" font-size="10.00">Eigen/Core</text>
</a>
</g>
</g>
<!-- Node1&#45;&gt;Node20 -->
<g id="edge24" class="edge">
<title>Node1&#45;&gt;Node20</title>
<path fill="none" stroke="midnightblue" d="M933.17,-224.33C929.88,-208.8 924.64,-186.71 918,-168 914.72,-158.76 910.21,-148.84 906.21,-140.68"/>
<polygon fill="midnightblue" stroke="midnightblue" points="909.33,-139.1 901.7,-131.75 903.09,-142.26 909.33,-139.1"/>
</g>
<!-- Node21 -->
<g id="node21" class="node">
<title>Node21</title>
<g id="a_node21"><a xlink:title=" ">
<polygon fill="none" stroke="#bfbfbf" points="965,-168.5 965,-187.5 1011,-187.5 1011,-168.5 965,-168.5"/>
<text text-anchor="middle" x="988" y="-175.5" font-family="Helvetica,sans-Serif" font-size="10.00">cstdio</text>
</a>
</g>
</g>
<!-- Node1&#45;&gt;Node21 -->
<g id="edge25" class="edge">
<title>Node1&#45;&gt;Node21</title>
<path fill="none" stroke="midnightblue" d="M952.3,-224.5C959.52,-215.3 968.04,-204.44 974.95,-195.63"/>
<polygon fill="midnightblue" stroke="midnightblue" points="977.79,-197.68 981.21,-187.65 972.28,-193.36 977.79,-197.68"/>
</g>
<!-- Node22 -->
<g id="node22" class="node">
<title>Node22</title>
<g id="a_node22"><a xlink:title=" ">
<polygon fill="none" stroke="#bfbfbf" points="1029,-168.5 1029,-187.5 1073,-187.5 1073,-168.5 1029,-168.5"/>
<text text-anchor="middle" x="1051" y="-175.5" font-family="Helvetica,sans-Serif" font-size="10.00">limits</text>
</a>
</g>
</g>
<!-- Node1&#45;&gt;Node22 -->
<g id="edge26" class="edge">
<title>Node1&#45;&gt;Node22</title>
<path fill="none" stroke="midnightblue" d="M971.2,-224.5C989.19,-214.24 1010.79,-201.93 1026.99,-192.69"/>
<polygon fill="midnightblue" stroke="midnightblue" points="1028.87,-195.65 1035.82,-187.65 1025.4,-189.57 1028.87,-195.65"/>
</g>
<!-- Node23 -->
<g id="node23" class="node">
<title>Node23</title>
<g id="a_node23"><a xlink:title=" ">
<polygon fill="none" stroke="#bfbfbf" points="1091.5,-168.5 1091.5,-187.5 1138.5,-187.5 1138.5,-168.5 1091.5,-168.5"/>
<text text-anchor="middle" x="1115" y="-175.5" font-family="Helvetica,sans-Serif" font-size="10.00">vector</text>
</a>
</g>
</g>
<!-- Node1&#45;&gt;Node23 -->
<g id="edge28" class="edge">
<title>Node1&#45;&gt;Node23</title>
<path fill="none" stroke="midnightblue" d="M990.41,-224.5C1020.06,-213.67 1056.02,-200.54 1081.67,-191.17"/>
<polygon fill="midnightblue" stroke="midnightblue" points="1083.11,-194.37 1091.31,-187.65 1080.71,-187.8 1083.11,-194.37"/>
</g>
<!-- Node3 -->
<g id="node3" class="node">
<title>Node3</title>
<g id="a_node3"><a xlink:href="SQLite_8hpp.html" target="_top" xlink:title=" ">
<polygon fill="none" stroke="black" points="537.5,-112.5 537.5,-131.5 606.5,-131.5 606.5,-112.5 537.5,-112.5"/>
<text text-anchor="middle" x="572" y="-119.5" font-family="Helvetica,sans-Serif" font-size="10.00">SQLite.hpp</text>
</a>
</g>
</g>
<!-- Node2&#45;&gt;Node3 -->
<g id="edge2" class="edge">
<title>Node2&#45;&gt;Node3</title>
<path fill="none" stroke="midnightblue" d="M666.01,-168.32C647.96,-159.62 619.95,-146.12 599.2,-136.11"/>
<polygon fill="midnightblue" stroke="midnightblue" points="600.48,-132.84 589.95,-131.65 597.44,-139.15 600.48,-132.84"/>
</g>
<!-- Node2&#45;&gt;Node8 -->
<g id="edge21" class="edge">
<title>Node2&#45;&gt;Node8</title>
<path fill="none" stroke="midnightblue" d="M694.03,-168.34C708.84,-155.63 737.56,-131.36 763,-112 776.91,-101.41 793.02,-90.09 805.6,-81.45"/>
<polygon fill="midnightblue" stroke="midnightblue" points="807.76,-84.21 814.05,-75.68 803.81,-78.43 807.76,-84.21"/>
</g>
<!-- Node13 -->
<g id="node13" class="node">
<title>Node13</title>
<g id="a_node13"><a xlink:href="utils_8hpp.html" target="_top" xlink:title=" ">
<polygon fill="none" stroke="black" points="216.5,-56.5 216.5,-75.5 275.5,-75.5 275.5,-56.5 216.5,-56.5"/>
<text text-anchor="middle" x="246" y="-63.5" font-family="Helvetica,sans-Serif" font-size="10.00">utils.hpp</text>
</a>
</g>
</g>
<!-- Node2&#45;&gt;Node13 -->
<g id="edge20" class="edge">
<title>Node2&#45;&gt;Node13</title>
<path fill="none" stroke="midnightblue" d="M650,-168.46C570.03,-148.38 370.42,-98.25 285.38,-76.89"/>
<polygon fill="midnightblue" stroke="midnightblue" points="286.14,-73.47 275.59,-74.43 284.44,-80.26 286.14,-73.47"/>
</g>
<!-- Node4 -->
<g id="node4" class="node">
<title>Node4</title>
<g id="a_node4"><a xlink:title=" ">
<polygon fill="none" stroke="#bfbfbf" points="613,-56.5 613,-75.5 673,-75.5 673,-56.5 613,-56.5"/>
<text text-anchor="middle" x="643" y="-63.5" font-family="Helvetica,sans-Serif" font-size="10.00">iostream</text>
</a>
</g>
</g>
<!-- Node3&#45;&gt;Node4 -->
<g id="edge3" class="edge">
<title>Node3&#45;&gt;Node4</title>
<path fill="none" stroke="midnightblue" d="M583.41,-112.32C594.11,-104.18 610.34,-91.84 623.16,-82.09"/>
<polygon fill="midnightblue" stroke="midnightblue" points="625.54,-84.67 631.39,-75.83 621.31,-79.1 625.54,-84.67"/>
</g>
<!-- Node5 -->
<g id="node5" class="node">
<title>Node5</title>
<g id="a_node5"><a xlink:title=" ">
<polygon fill="none" stroke="#bfbfbf" points="691,-56.5 691,-75.5 749,-75.5 749,-56.5 691,-56.5"/>
<text text-anchor="middle" x="720" y="-63.5" font-family="Helvetica,sans-Serif" font-size="10.00">memory</text>
</a>
</g>
</g>
<!-- Node3&#45;&gt;Node5 -->
<g id="edge4" class="edge">
<title>Node3&#45;&gt;Node5</title>
<path fill="none" stroke="midnightblue" d="M595.45,-112.44C620.13,-103.44 659.19,-89.19 686.98,-79.05"/>
<polygon fill="midnightblue" stroke="midnightblue" points="688.46,-82.23 696.66,-75.52 686.06,-75.66 688.46,-82.23"/>
</g>
<!-- Node6 -->
<g id="node6" class="node">
<title>Node6</title>
<g id="a_node6"><a xlink:title=" ">
<polygon fill="none" stroke="#bfbfbf" points="607,-0.5 607,-19.5 661,-19.5 661,-0.5 607,-0.5"/>
<text text-anchor="middle" x="634" y="-7.5" font-family="Helvetica,sans-Serif" font-size="10.00">random</text>
</a>
</g>
</g>
<!-- Node3&#45;&gt;Node6 -->
<g id="edge5" class="edge">
<title>Node3&#45;&gt;Node6</title>
<path fill="none" stroke="midnightblue" d="M606.56,-117.67C655.07,-112.2 739.51,-99.5 758,-76 784.34,-42.53 716.51,-24.42 671.1,-16.33"/>
<polygon fill="midnightblue" stroke="midnightblue" points="671.67,-12.88 661.23,-14.66 670.5,-19.78 671.67,-12.88"/>
</g>
<!-- Node7 -->
<g id="node7" class="node">
<title>Node7</title>
<g id="a_node7"><a xlink:title=" ">
<polygon fill="none" stroke="#bfbfbf" points="332,-56.5 332,-75.5 388,-75.5 388,-56.5 332,-56.5"/>
<text text-anchor="middle" x="360" y="-63.5" font-family="Helvetica,sans-Serif" font-size="10.00">sstream</text>
</a>
</g>
</g>
<!-- Node3&#45;&gt;Node7 -->
<g id="edge6" class="edge">
<title>Node3&#45;&gt;Node7</title>
<path fill="none" stroke="midnightblue" d="M538.41,-112.44C500.17,-102.7 437.86,-86.83 397.91,-76.66"/>
<polygon fill="midnightblue" stroke="midnightblue" points="398.57,-73.21 388.02,-74.14 396.85,-80 398.57,-73.21"/>
</g>
<!-- Node3&#45;&gt;Node8 -->
<g id="edge7" class="edge">
<title>Node3&#45;&gt;Node8</title>
<path fill="none" stroke="midnightblue" d="M606.61,-114.36C649.86,-105.95 726.09,-90.78 791,-76 792.27,-75.71 793.57,-75.41 794.88,-75.1"/>
<polygon fill="midnightblue" stroke="midnightblue" points="796.05,-78.42 804.95,-72.67 794.41,-71.62 796.05,-78.42"/>
</g>
<!-- Node9 -->
<g id="node9" class="node">
<title>Node9</title>
<g id="a_node9"><a xlink:title=" ">
<polygon fill="none" stroke="#bfbfbf" points="406,-56.5 406,-75.5 454,-75.5 454,-56.5 406,-56.5"/>
<text text-anchor="middle" x="430" y="-63.5" font-family="Helvetica,sans-Serif" font-size="10.00">thread</text>
</a>
</g>
</g>
<!-- Node3&#45;&gt;Node9 -->
<g id="edge8" class="edge">
<title>Node3&#45;&gt;Node9</title>
<path fill="none" stroke="midnightblue" d="M549.5,-112.44C525.92,-103.48 488.68,-89.31 462.04,-79.18"/>
<polygon fill="midnightblue" stroke="midnightblue" points="462.99,-75.8 452.4,-75.52 460.5,-82.34 462.99,-75.8"/>
</g>
<!-- Node10 -->
<g id="node10" class="node">
<title>Node10</title>
<g id="a_node10"><a xlink:title=" ">
<polygon fill="none" stroke="#bfbfbf" points="376.5,-0.5 376.5,-19.5 445.5,-19.5 445.5,-0.5 376.5,-0.5"/>
<text text-anchor="middle" x="411" y="-7.5" font-family="Helvetica,sans-Serif" font-size="10.00">type_traits</text>
</a>
</g>
</g>
<!-- Node3&#45;&gt;Node10 -->
<g id="edge9" class="edge">
<title>Node3&#45;&gt;Node10</title>
<path fill="none" stroke="midnightblue" d="M537.2,-120C475.27,-117.4 349.9,-108.19 323,-76 304.18,-53.48 340.14,-34.46 371.61,-22.93"/>
<polygon fill="midnightblue" stroke="midnightblue" points="372.87,-26.19 381.16,-19.59 370.57,-19.58 372.87,-26.19"/>
</g>
<!-- Node11 -->
<g id="node11" class="node">
<title>Node11</title>
<g id="a_node11"><a xlink:title=" ">
<polygon fill="none" stroke="#bfbfbf" points="472.5,-56.5 472.5,-75.5 531.5,-75.5 531.5,-56.5 472.5,-56.5"/>
<text text-anchor="middle" x="502" y="-63.5" font-family="Helvetica,sans-Serif" font-size="10.00">sqlite3.h</text>
</a>
</g>
</g>
<!-- Node3&#45;&gt;Node11 -->
<g id="edge10" class="edge">
<title>Node3&#45;&gt;Node11</title>
<path fill="none" stroke="midnightblue" d="M560.75,-112.32C550.2,-104.18 534.2,-91.84 521.56,-82.09"/>
<polygon fill="midnightblue" stroke="midnightblue" points="523.51,-79.17 513.45,-75.83 519.23,-84.71 523.51,-79.17"/>
</g>
<!-- Node12 -->
<g id="node12" class="node">
<title>Node12</title>
<g id="a_node12"><a xlink:title=" ">
<polygon fill="none" stroke="#bfbfbf" points="549.5,-56.5 549.5,-75.5 594.5,-75.5 594.5,-56.5 549.5,-56.5"/>
<text text-anchor="middle" x="572" y="-63.5" font-family="Helvetica,sans-Serif" font-size="10.00">utility</text>
</a>
</g>
</g>
<!-- Node3&#45;&gt;Node12 -->
<g id="edge11" class="edge">
<title>Node3&#45;&gt;Node12</title>
<path fill="none" stroke="midnightblue" d="M572,-112.08C572,-105.01 572,-94.86 572,-85.99"/>
<polygon fill="midnightblue" stroke="midnightblue" points="575.5,-85.75 572,-75.75 568.5,-85.75 575.5,-85.75"/>
</g>
<!-- Node3&#45;&gt;Node13 -->
<g id="edge12" class="edge">
<title>Node3&#45;&gt;Node13</title>
<path fill="none" stroke="midnightblue" d="M537.19,-115.94C483.85,-108.08 378.77,-92.15 290,-76 288.56,-75.74 287.1,-75.47 285.62,-75.19"/>
<polygon fill="midnightblue" stroke="midnightblue" points="286.27,-71.75 275.79,-73.28 284.94,-78.62 286.27,-71.75"/>
</g>
<!-- Node13&#45;&gt;Node6 -->
<g id="edge17" class="edge">
<title>Node13&#45;&gt;Node6</title>
<path fill="none" stroke="midnightblue" d="M275.8,-60.85C345.71,-51.12 520.12,-26.85 596.81,-16.18"/>
<polygon fill="midnightblue" stroke="midnightblue" points="597.55,-19.61 606.97,-14.76 596.58,-12.67 597.55,-19.61"/>
</g>
<!-- Node13&#45;&gt;Node10 -->
<g id="edge18" class="edge">
<title>Node13&#45;&gt;Node10</title>
<path fill="none" stroke="midnightblue" d="M272.14,-56.44C300.02,-47.32 344.35,-32.81 375.4,-22.65"/>
<polygon fill="midnightblue" stroke="midnightblue" points="376.56,-25.95 384.98,-19.52 374.38,-19.3 376.56,-25.95"/>
</g>
<!-- Node14 -->
<g id="node14" class="node">
<title>Node14</title>
<g id="a_node14"><a xlink:title=" ">
<polygon fill="none" stroke="#bfbfbf" points="74,-0.5 74,-19.5 138,-19.5 138,-0.5 74,-0.5"/>
<text text-anchor="middle" x="106" y="-7.5" font-family="Helvetica,sans-Serif" font-size="10.00">algorithm</text>
</a>
</g>
</g>
<!-- Node13&#45;&gt;Node14 -->
<g id="edge13" class="edge">
<title>Node13&#45;&gt;Node14</title>
<path fill="none" stroke="midnightblue" d="M223.82,-56.44C200.57,-47.48 163.85,-33.31 137.58,-23.18"/>
<polygon fill="midnightblue" stroke="midnightblue" points="138.67,-19.85 128.08,-19.52 136.15,-26.38 138.67,-19.85"/>
</g>
<!-- Node15 -->
<g id="node15" class="node">
<title>Node15</title>
<g id="a_node15"><a xlink:title=" ">
<polygon fill="none" stroke="#bfbfbf" points="156,-0.5 156,-19.5 198,-19.5 198,-0.5 156,-0.5"/>
<text text-anchor="middle" x="177" y="-7.5" font-family="Helvetica,sans-Serif" font-size="10.00">array</text>
</a>
</g>
</g>
<!-- Node13&#45;&gt;Node15 -->
<g id="edge14" class="edge">
<title>Node13&#45;&gt;Node15</title>
<path fill="none" stroke="midnightblue" d="M234.91,-56.32C224.51,-48.18 208.74,-35.84 196.28,-26.09"/>
<polygon fill="midnightblue" stroke="midnightblue" points="198.32,-23.24 188.29,-19.83 194.01,-28.75 198.32,-23.24"/>
</g>
<!-- Node16 -->
<g id="node16" class="node">
<title>Node16</title>
<g id="a_node16"><a xlink:title=" ">
<polygon fill="none" stroke="#bfbfbf" points="216.5,-0.5 216.5,-19.5 275.5,-19.5 275.5,-0.5 216.5,-0.5"/>
<text text-anchor="middle" x="246" y="-7.5" font-family="Helvetica,sans-Serif" font-size="10.00">complex</text>
</a>
</g>
</g>
<!-- Node13&#45;&gt;Node16 -->
<g id="edge15" class="edge">
<title>Node13&#45;&gt;Node16</title>
<path fill="none" stroke="midnightblue" d="M246,-56.08C246,-49.01 246,-38.86 246,-29.99"/>
<polygon fill="midnightblue" stroke="midnightblue" points="249.5,-29.75 246,-19.75 242.5,-29.75 249.5,-29.75"/>
</g>
<!-- Node17 -->
<g id="node17" class="node">
<title>Node17</title>
<g id="a_node17"><a xlink:title=" ">
<polygon fill="none" stroke="#bfbfbf" points="293.5,-0.5 293.5,-19.5 358.5,-19.5 358.5,-0.5 293.5,-0.5"/>
<text text-anchor="middle" x="326" y="-7.5" font-family="Helvetica,sans-Serif" font-size="10.00">functional</text>
</a>
</g>
</g>
<!-- Node13&#45;&gt;Node17 -->
<g id="edge16" class="edge">
<title>Node13&#45;&gt;Node17</title>
<path fill="none" stroke="midnightblue" d="M258.85,-56.32C271.22,-47.98 290.13,-35.21 304.74,-25.35"/>
<polygon fill="midnightblue" stroke="midnightblue" points="306.85,-28.15 313.18,-19.65 302.93,-22.35 306.85,-28.15"/>
</g>
<!-- Node18 -->
<g id="node18" class="node">
<title>Node18</title>
<g id="a_node18"><a xlink:title=" ">
<polygon fill="none" stroke="#bfbfbf" points="0,-0.5 0,-19.5 56,-19.5 56,-0.5 0,-0.5"/>
<text text-anchor="middle" x="28" y="-7.5" font-family="Helvetica,sans-Serif" font-size="10.00">unistd.h</text>
</a>
</g>
</g>
<!-- Node13&#45;&gt;Node18 -->
<g id="edge19" class="edge">
<title>Node13&#45;&gt;Node18</title>
<path fill="none" stroke="midnightblue" d="M216.15,-57.6C177.07,-47.92 108.54,-30.95 65.85,-20.38"/>
<polygon fill="midnightblue" stroke="midnightblue" points="66.66,-16.97 56.11,-17.96 64.98,-23.77 66.66,-16.97"/>
</g>
<!-- Node19&#45;&gt;Node20 -->
<g id="edge23" class="edge">
<title>Node19&#45;&gt;Node20</title>
<path fill="none" stroke="midnightblue" d="M863.61,-168.08C869.26,-160.46 877.54,-149.26 884.45,-139.94"/>
<polygon fill="midnightblue" stroke="midnightblue" points="887.38,-141.87 890.52,-131.75 881.75,-137.7 887.38,-141.87"/>
</g>
</g>
</svg>
