<?xml version="1.0" encoding="UTF-8" standalone="no"?>
<!DOCTYPE svg PUBLIC "-//W3C//DTD SVG 1.1//EN"
 "http://www.w3.org/Graphics/SVG/1.1/DTD/svg11.dtd">
<!-- Generated by graphviz version 2.43.0 (0)
 -->
<!-- Title: /__w/pairinteraction/pairinteraction/pairinteraction/Wavefunction.cpp Pages: 1 -->
<!--zoomable 330 -->
<svg id="main" version="1.1" xmlns="http://www.w3.org/2000/svg" xmlns:xlink="http://www.w3.org/1999/xlink" xml:space="preserve" onload="init(evt)">
<style type="text/css"><![CDATA[
.edge:hover path { stroke: red; }
.edge:hover polygon { stroke: red; fill: red; }
]]></style>
<script type="text/javascript"><![CDATA[
var edges = document.getElementsByTagName('g');
if (edges && edges.length) {
  for (var i=0;i<edges.length;i++) {
    if (edges[i].id.substr(0,4)=='edge') {
      edges[i].setAttribute('class','edge');
    }
  }
}
]]></script>
        <defs>
                <circle id="rim" cx="0" cy="0" r="7"/>
                <circle id="rim2" cx="0" cy="0" r="3.5"/>
                <g id="zoomPlus">
                        <use xlink:href="#rim" fill="#404040">
                                <set attributeName="fill" to="#808080" begin="zoomplus.mouseover" end="zoomplus.mouseout"/>
                        </use>
                        <path d="M-4,0h8M0,-4v8" fill="none" stroke="white" stroke-width="1.5" pointer-events="none"/>
                </g>
                <g id="zoomMin">
                        <use xlink:href="#rim" fill="#404040">
                                <set attributeName="fill" to="#808080" begin="zoomminus.mouseover" end="zoomminus.mouseout"/>
                        </use>
                        <path d="M-4,0h8" fill="none" stroke="white" stroke-width="1.5" pointer-events="none"/>
                </g>
                <g id="dirArrow">
                        <path fill="none" stroke="white" stroke-width="1.5" d="M0,-3.0v7 M-2.5,-0.5L0,-3.0L2.5,-0.5"/>
                </g>
               <g id="resetDef">
                       <use xlink:href="#rim2" fill="#404040">
                               <set attributeName="fill" to="#808080" begin="reset.mouseover" end="reset.mouseout"/>
                       </use>
               </g>
        </defs>

<script type="text/javascript">
var viewWidth = 1230;
var viewHeight = 330;
var sectionId = 'dynsection-0';
</script>
<script xlink:href="svgpan.js"/>
<svg id="graph" class="graph">
<g id="viewport">
<title>/__w/pairinteraction/pairinteraction/pairinteraction/Wavefunction.cpp</title>
<!-- Node1 -->
<g id="node1" class="node">
<title>Node1</title>
<g id="a_node1"><a xlink:title=" ">
<polygon fill="#bfbfbf" stroke="black" points="855,-280.5 855,-321.5 1020,-321.5 1020,-280.5 855,-280.5"/>
<text text-anchor="start" x="863" y="-309.5" font-family="Helvetica,sans-Serif" font-size="10.00">/__w/pairinteraction</text>
<text text-anchor="start" x="863" y="-298.5" font-family="Helvetica,sans-Serif" font-size="10.00">/pairinteraction/pairinteraction</text>
<text text-anchor="middle" x="937.5" y="-287.5" font-family="Helvetica,sans-Serif" font-size="10.00">/Wavefunction.cpp</text>
</a>
</g>
</g>
<!-- Node2 -->
<g id="node2" class="node">
<title>Node2</title>
<g id="a_node2"><a xlink:href="Wavefunction_8hpp.html" target="_top" xlink:title=" ">
<polygon fill="none" stroke="black" points="622,-224.5 622,-243.5 727,-243.5 727,-224.5 622,-224.5"/>
<text text-anchor="middle" x="674.5" y="-231.5" font-family="Helvetica,sans-Serif" font-size="10.00">Wavefunction.hpp</text>
</a>
</g>
</g>
<!-- Node1&#45;&gt;Node2 -->
<g id="edge1" class="edge">
<title>Node1&#45;&gt;Node2</title>
<path fill="none" stroke="midnightblue" d="M858.59,-280.5C812.9,-269.2 757.06,-255.4 718.94,-245.98"/>
<polygon fill="midnightblue" stroke="midnightblue" points="719.71,-242.57 709.16,-243.57 718.03,-249.36 719.71,-242.57"/>
</g>
<!-- Node3 -->
<g id="node3" class="node">
<title>Node3</title>
<g id="a_node3"><a xlink:href="QuantumDefect_8hpp.html" target="_top" xlink:title=" ">
<polygon fill="none" stroke="black" points="405,-168.5 405,-187.5 520,-187.5 520,-168.5 405,-168.5"/>
<text text-anchor="middle" x="462.5" y="-175.5" font-family="Helvetica,sans-Serif" font-size="10.00">QuantumDefect.hpp</text>
</a>
</g>
</g>
<!-- Node1&#45;&gt;Node3 -->
<g id="edge31" class="edge">
<title>Node1&#45;&gt;Node3</title>
<path fill="none" stroke="midnightblue" d="M854.78,-291.27C788.35,-282.94 693.16,-268.05 612.5,-244 567.05,-230.45 517.02,-206.89 487.76,-192.17"/>
<polygon fill="midnightblue" stroke="midnightblue" points="489.16,-188.96 478.67,-187.54 485.99,-195.19 489.16,-188.96"/>
</g>
<!-- Node9 -->
<g id="node9" class="node">
<title>Node9</title>
<g id="a_node9"><a xlink:title=" ">
<polygon fill="none" stroke="#bfbfbf" points="588.5,-56.5 588.5,-75.5 632.5,-75.5 632.5,-56.5 588.5,-56.5"/>
<text text-anchor="middle" x="610.5" y="-63.5" font-family="Helvetica,sans-Serif" font-size="10.00">string</text>
</a>
</g>
</g>
<!-- Node1&#45;&gt;Node9 -->
<g id="edge36" class="edge">
<title>Node1&#45;&gt;Node9</title>
<path fill="none" stroke="midnightblue" d="M945.01,-280.37C948.67,-269.77 952.67,-256.36 954.5,-244 959.58,-209.76 959.31,-194.88 937.5,-168 863.91,-77.31 710.55,-66.34 643.3,-66.14"/>
<polygon fill="midnightblue" stroke="midnightblue" points="642.88,-62.64 632.9,-66.19 642.92,-69.64 642.88,-62.64"/>
</g>
<!-- Node20 -->
<g id="node20" class="node">
<title>Node20</title>
<g id="a_node20"><a xlink:href="EigenCompat_8hpp.html" target="_top" xlink:title=" ">
<polygon fill="none" stroke="black" points="741,-168.5 741,-187.5 844,-187.5 844,-168.5 741,-168.5"/>
<text text-anchor="middle" x="792.5" y="-175.5" font-family="Helvetica,sans-Serif" font-size="10.00">EigenCompat.hpp</text>
</a>
</g>
</g>
<!-- Node1&#45;&gt;Node20 -->
<g id="edge32" class="edge">
<title>Node1&#45;&gt;Node20</title>
<path fill="none" stroke="midnightblue" d="M913.88,-280.29C885.04,-256.22 836.89,-216.04 810.74,-194.22"/>
<polygon fill="midnightblue" stroke="midnightblue" points="812.7,-191.29 802.78,-187.57 808.21,-196.67 812.7,-191.29"/>
</g>
<!-- Node21 -->
<g id="node21" class="node">
<title>Node21</title>
<g id="a_node21"><a xlink:title=" ">
<polygon fill="none" stroke="#bfbfbf" points="758,-112.5 758,-131.5 827,-131.5 827,-112.5 758,-112.5"/>
<text text-anchor="middle" x="792.5" y="-119.5" font-family="Helvetica,sans-Serif" font-size="10.00">Eigen/Core</text>
</a>
</g>
</g>
<!-- Node1&#45;&gt;Node21 -->
<g id="edge33" class="edge">
<title>Node1&#45;&gt;Node21</title>
<path fill="none" stroke="midnightblue" d="M940.5,-280.07C943.57,-251.84 944.73,-200.09 918.5,-168 898.66,-143.74 864.73,-132.55 837.08,-127.39"/>
<polygon fill="midnightblue" stroke="midnightblue" points="837.65,-123.94 827.21,-125.75 836.5,-130.85 837.65,-123.94"/>
</g>
<!-- Node24 -->
<g id="node24" class="node">
<title>Node24</title>
<g id="a_node24"><a xlink:title=" ">
<polygon fill="none" stroke="#bfbfbf" points="862,-168.5 862,-187.5 909,-187.5 909,-168.5 862,-168.5"/>
<text text-anchor="middle" x="885.5" y="-175.5" font-family="Helvetica,sans-Serif" font-size="10.00">vector</text>
</a>
</g>
</g>
<!-- Node1&#45;&gt;Node24 -->
<g id="edge37" class="edge">
<title>Node1&#45;&gt;Node24</title>
<path fill="none" stroke="midnightblue" d="M929.03,-280.29C919.09,-257.17 902.76,-219.16 893.18,-196.86"/>
<polygon fill="midnightblue" stroke="midnightblue" points="896.35,-195.38 889.19,-187.57 889.92,-198.14 896.35,-195.38"/>
</g>
<!-- Node25 -->
<g id="node25" class="node">
<title>Node25</title>
<g id="a_node25"><a xlink:href="Constants_8hpp.html" target="_top" xlink:title=" ">
<polygon fill="none" stroke="black" points="1003.5,-224.5 1003.5,-243.5 1089.5,-243.5 1089.5,-224.5 1003.5,-224.5"/>
<text text-anchor="middle" x="1046.5" y="-231.5" font-family="Helvetica,sans-Serif" font-size="10.00">Constants.hpp</text>
</a>
</g>
</g>
<!-- Node1&#45;&gt;Node25 -->
<g id="edge30" class="edge">
<title>Node1&#45;&gt;Node25</title>
<path fill="none" stroke="midnightblue" d="M970.2,-280.5C987.24,-270.34 1007.67,-258.16 1023.1,-248.95"/>
<polygon fill="midnightblue" stroke="midnightblue" points="1025.19,-251.78 1031.99,-243.65 1021.61,-245.77 1025.19,-251.78"/>
</g>
<!-- Node26 -->
<g id="node26" class="node">
<title>Node26</title>
<g id="a_node26"><a xlink:title=" ">
<polygon fill="none" stroke="#bfbfbf" points="1108,-224.5 1108,-243.5 1157,-243.5 1157,-224.5 1108,-224.5"/>
<text text-anchor="middle" x="1132.5" y="-231.5" font-family="Helvetica,sans-Serif" font-size="10.00">cctype</text>
</a>
</g>
</g>
<!-- Node1&#45;&gt;Node26 -->
<g id="edge34" class="edge">
<title>Node1&#45;&gt;Node26</title>
<path fill="none" stroke="midnightblue" d="M996.01,-280.5C1029.28,-269.41 1069.8,-255.9 1098.01,-246.5"/>
<polygon fill="midnightblue" stroke="midnightblue" points="1099.43,-249.71 1107.81,-243.23 1097.22,-243.07 1099.43,-249.71"/>
</g>
<!-- Node27 -->
<g id="node27" class="node">
<title>Node27</title>
<g id="a_node27"><a xlink:title=" ">
<polygon fill="none" stroke="#bfbfbf" points="1175,-224.5 1175,-243.5 1222,-243.5 1222,-224.5 1175,-224.5"/>
<text text-anchor="middle" x="1198.5" y="-231.5" font-family="Helvetica,sans-Serif" font-size="10.00">cmath</text>
</a>
</g>
</g>
<!-- Node1&#45;&gt;Node27 -->
<g id="edge35" class="edge">
<title>Node1&#45;&gt;Node27</title>
<path fill="none" stroke="midnightblue" d="M1020.08,-280.53C1061.16,-270.67 1111.77,-258.27 1164.83,-244.38"/>
<polygon fill="midnightblue" stroke="midnightblue" points="1165.98,-247.7 1174.76,-241.77 1164.2,-240.93 1165.98,-247.7"/>
</g>
<!-- Node2&#45;&gt;Node3 -->
<g id="edge2" class="edge">
<title>Node2&#45;&gt;Node3</title>
<path fill="none" stroke="midnightblue" d="M640.91,-224.44C604.31,-215.12 545.66,-200.18 505.67,-190"/>
<polygon fill="midnightblue" stroke="midnightblue" points="506.49,-186.59 495.93,-187.52 504.76,-193.38 506.49,-186.59"/>
</g>
<!-- Node2&#45;&gt;Node9 -->
<g id="edge28" class="edge">
<title>Node2&#45;&gt;Node9</title>
<path fill="none" stroke="midnightblue" d="M671.06,-224.08C660.94,-197.83 631.14,-120.55 617.48,-85.12"/>
<polygon fill="midnightblue" stroke="midnightblue" points="620.67,-83.64 613.8,-75.57 614.14,-86.16 620.67,-83.64"/>
</g>
<!-- Node2&#45;&gt;Node20 -->
<g id="edge23" class="edge">
<title>Node2&#45;&gt;Node20</title>
<path fill="none" stroke="midnightblue" d="M693.2,-224.44C712.44,-215.64 742.65,-201.81 764.7,-191.72"/>
<polygon fill="midnightblue" stroke="midnightblue" points="766.25,-194.86 773.89,-187.52 763.34,-188.5 766.25,-194.86"/>
</g>
<!-- Node2&#45;&gt;Node21 -->
<g id="edge25" class="edge">
<title>Node2&#45;&gt;Node21</title>
<path fill="none" stroke="midnightblue" d="M670.11,-224.08C664.17,-210.62 655.62,-184.9 667.5,-168 685.57,-142.29 719.82,-131.2 747.91,-126.45"/>
<polygon fill="midnightblue" stroke="midnightblue" points="748.55,-129.89 757.93,-124.97 747.53,-122.97 748.55,-129.89"/>
</g>
<!-- Node22 -->
<g id="node22" class="node">
<title>Node22</title>
<g id="a_node22"><a xlink:title=" ">
<polygon fill="none" stroke="#bfbfbf" points="676.5,-168.5 676.5,-187.5 722.5,-187.5 722.5,-168.5 676.5,-168.5"/>
<text text-anchor="middle" x="699.5" y="-175.5" font-family="Helvetica,sans-Serif" font-size="10.00">cstdio</text>
</a>
</g>
</g>
<!-- Node2&#45;&gt;Node22 -->
<g id="edge26" class="edge">
<title>Node2&#45;&gt;Node22</title>
<path fill="none" stroke="midnightblue" d="M678.63,-224.08C682.01,-216.77 686.92,-206.18 691.12,-197.1"/>
<polygon fill="midnightblue" stroke="midnightblue" points="694.42,-198.3 695.45,-187.75 688.07,-195.36 694.42,-198.3"/>
</g>
<!-- Node23 -->
<g id="node23" class="node">
<title>Node23</title>
<g id="a_node23"><a xlink:title=" ">
<polygon fill="none" stroke="#bfbfbf" points="538.5,-168.5 538.5,-187.5 582.5,-187.5 582.5,-168.5 538.5,-168.5"/>
<text text-anchor="middle" x="560.5" y="-175.5" font-family="Helvetica,sans-Serif" font-size="10.00">limits</text>
</a>
</g>
</g>
<!-- Node2&#45;&gt;Node23 -->
<g id="edge27" class="edge">
<title>Node2&#45;&gt;Node23</title>
<path fill="none" stroke="midnightblue" d="M656.44,-224.44C637.93,-215.68 608.92,-201.94 587.64,-191.86"/>
<polygon fill="midnightblue" stroke="midnightblue" points="589.01,-188.63 578.48,-187.52 586.02,-194.96 589.01,-188.63"/>
</g>
<!-- Node2&#45;&gt;Node24 -->
<g id="edge29" class="edge">
<title>Node2&#45;&gt;Node24</title>
<path fill="none" stroke="midnightblue" d="M709.56,-224.49C743.65,-216.15 797.15,-202.89 851.89,-188.38"/>
<polygon fill="midnightblue" stroke="midnightblue" points="852.99,-191.71 861.75,-185.76 851.19,-184.95 852.99,-191.71"/>
</g>
<!-- Node4 -->
<g id="node4" class="node">
<title>Node4</title>
<g id="a_node4"><a xlink:href="SQLite_8hpp.html" target="_top" xlink:title=" ">
<polygon fill="none" stroke="black" points="326,-112.5 326,-131.5 395,-131.5 395,-112.5 326,-112.5"/>
<text text-anchor="middle" x="360.5" y="-119.5" font-family="Helvetica,sans-Serif" font-size="10.00">SQLite.hpp</text>
</a>
</g>
</g>
<!-- Node3&#45;&gt;Node4 -->
<g id="edge3" class="edge">
<title>Node3&#45;&gt;Node4</title>
<path fill="none" stroke="midnightblue" d="M446.11,-168.32C429.83,-159.7 404.63,-146.36 385.78,-136.39"/>
<polygon fill="midnightblue" stroke="midnightblue" points="387.32,-133.24 376.85,-131.65 384.05,-139.43 387.32,-133.24"/>
</g>
<!-- Node3&#45;&gt;Node9 -->
<g id="edge22" class="edge">
<title>Node3&#45;&gt;Node9</title>
<path fill="none" stroke="midnightblue" d="M474.11,-168.37C499.29,-149.65 559.17,-105.15 590.54,-81.83"/>
<polygon fill="midnightblue" stroke="midnightblue" points="593,-84.37 598.94,-75.59 588.83,-78.75 593,-84.37"/>
</g>
<!-- Node14 -->
<g id="node14" class="node">
<title>Node14</title>
<g id="a_node14"><a xlink:href="utils_8hpp.html" target="_top" xlink:title=" ">
<polygon fill="none" stroke="black" points="511,-56.5 511,-75.5 570,-75.5 570,-56.5 511,-56.5"/>
<text text-anchor="middle" x="540.5" y="-63.5" font-family="Helvetica,sans-Serif" font-size="10.00">utils.hpp</text>
</a>
</g>
</g>
<!-- Node3&#45;&gt;Node14 -->
<g id="edge21" class="edge">
<title>Node3&#45;&gt;Node14</title>
<path fill="none" stroke="midnightblue" d="M468.62,-168.37C481.49,-150.22 511.57,-107.8 528.45,-83.99"/>
<polygon fill="midnightblue" stroke="midnightblue" points="531.48,-85.77 534.41,-75.59 525.77,-81.72 531.48,-85.77"/>
</g>
<!-- Node5 -->
<g id="node5" class="node">
<title>Node5</title>
<g id="a_node5"><a xlink:title=" ">
<polygon fill="none" stroke="#bfbfbf" points="140.5,-56.5 140.5,-75.5 200.5,-75.5 200.5,-56.5 140.5,-56.5"/>
<text text-anchor="middle" x="170.5" y="-63.5" font-family="Helvetica,sans-Serif" font-size="10.00">iostream</text>
</a>
</g>
</g>
<!-- Node4&#45;&gt;Node5 -->
<g id="edge4" class="edge">
<title>Node4&#45;&gt;Node5</title>
<path fill="none" stroke="midnightblue" d="M330.39,-112.44C297.87,-103.2 245.92,-88.44 210.11,-78.26"/>
<polygon fill="midnightblue" stroke="midnightblue" points="211.04,-74.88 200.47,-75.52 209.13,-81.62 211.04,-74.88"/>
</g>
<!-- Node6 -->
<g id="node6" class="node">
<title>Node6</title>
<g id="a_node6"><a xlink:title=" ">
<polygon fill="none" stroke="#bfbfbf" points="218.5,-56.5 218.5,-75.5 276.5,-75.5 276.5,-56.5 218.5,-56.5"/>
<text text-anchor="middle" x="247.5" y="-63.5" font-family="Helvetica,sans-Serif" font-size="10.00">memory</text>
</a>
</g>
</g>
<!-- Node4&#45;&gt;Node6 -->
<g id="edge5" class="edge">
<title>Node4&#45;&gt;Node6</title>
<path fill="none" stroke="midnightblue" d="M342.59,-112.44C324.25,-103.68 295.49,-89.94 274.41,-79.86"/>
<polygon fill="midnightblue" stroke="midnightblue" points="275.85,-76.67 265.32,-75.52 272.83,-82.99 275.85,-76.67"/>
</g>
<!-- Node7 -->
<g id="node7" class="node">
<title>Node7</title>
<g id="a_node7"><a xlink:title=" ">
<polygon fill="none" stroke="#bfbfbf" points="284.5,-0.5 284.5,-19.5 338.5,-19.5 338.5,-0.5 284.5,-0.5"/>
<text text-anchor="middle" x="311.5" y="-7.5" font-family="Helvetica,sans-Serif" font-size="10.00">random</text>
</a>
</g>
</g>
<!-- Node4&#45;&gt;Node7 -->
<g id="edge6" class="edge">
<title>Node4&#45;&gt;Node7</title>
<path fill="none" stroke="midnightblue" d="M351.02,-112.31C342.44,-103.89 330.15,-90.31 323.5,-76 316.76,-61.51 313.8,-43.56 312.51,-30.19"/>
<polygon fill="midnightblue" stroke="midnightblue" points="315.97,-29.55 311.74,-19.83 308.99,-30.06 315.97,-29.55"/>
</g>
<!-- Node8 -->
<g id="node8" class="node">
<title>Node8</title>
<g id="a_node8"><a xlink:title=" ">
<polygon fill="none" stroke="#bfbfbf" points="332.5,-56.5 332.5,-75.5 388.5,-75.5 388.5,-56.5 332.5,-56.5"/>
<text text-anchor="middle" x="360.5" y="-63.5" font-family="Helvetica,sans-Serif" font-size="10.00">sstream</text>
</a>
</g>
</g>
<!-- Node4&#45;&gt;Node8 -->
<g id="edge7" class="edge">
<title>Node4&#45;&gt;Node8</title>
<path fill="none" stroke="midnightblue" d="M360.5,-112.08C360.5,-105.01 360.5,-94.86 360.5,-85.99"/>
<polygon fill="midnightblue" stroke="midnightblue" points="364,-85.75 360.5,-75.75 357,-85.75 364,-85.75"/>
</g>
<!-- Node4&#45;&gt;Node9 -->
<g id="edge8" class="edge">
<title>Node4&#45;&gt;Node9</title>
<path fill="none" stroke="midnightblue" d="M395.03,-114.65C436.21,-106.91 507.35,-93 578.18,-75.93"/>
<polygon fill="midnightblue" stroke="midnightblue" points="579.28,-79.26 588.17,-73.5 577.63,-72.46 579.28,-79.26"/>
</g>
<!-- Node10 -->
<g id="node10" class="node">
<title>Node10</title>
<g id="a_node10"><a xlink:title=" ">
<polygon fill="none" stroke="#bfbfbf" points="406.5,-56.5 406.5,-75.5 454.5,-75.5 454.5,-56.5 406.5,-56.5"/>
<text text-anchor="middle" x="430.5" y="-63.5" font-family="Helvetica,sans-Serif" font-size="10.00">thread</text>
</a>
</g>
</g>
<!-- Node4&#45;&gt;Node10 -->
<g id="edge9" class="edge">
<title>Node4&#45;&gt;Node10</title>
<path fill="none" stroke="midnightblue" d="M371.75,-112.32C382.3,-104.18 398.3,-91.84 410.94,-82.09"/>
<polygon fill="midnightblue" stroke="midnightblue" points="413.27,-84.71 419.05,-75.83 408.99,-79.17 413.27,-84.71"/>
</g>
<!-- Node11 -->
<g id="node11" class="node">
<title>Node11</title>
<g id="a_node11"><a xlink:title=" ">
<polygon fill="none" stroke="#bfbfbf" points="363,-0.5 363,-19.5 432,-19.5 432,-0.5 363,-0.5"/>
<text text-anchor="middle" x="397.5" y="-7.5" font-family="Helvetica,sans-Serif" font-size="10.00">type_traits</text>
</a>
</g>
</g>
<!-- Node4&#45;&gt;Node11 -->
<g id="edge10" class="edge">
<title>Node4&#45;&gt;Node11</title>
<path fill="none" stroke="midnightblue" d="M395.06,-115.85C418.72,-110.34 448.43,-99.02 463.5,-76 477.03,-55.33 450.56,-36.06 427.22,-23.96"/>
<polygon fill="midnightblue" stroke="midnightblue" points="428.71,-20.79 418.19,-19.53 425.63,-27.07 428.71,-20.79"/>
</g>
<!-- Node12 -->
<g id="node12" class="node">
<title>Node12</title>
<g id="a_node12"><a xlink:title=" ">
<polygon fill="none" stroke="#bfbfbf" points="0,-56.5 0,-75.5 59,-75.5 59,-56.5 0,-56.5"/>
<text text-anchor="middle" x="29.5" y="-63.5" font-family="Helvetica,sans-Serif" font-size="10.00">sqlite3.h</text>
</a>
</g>
</g>
<!-- Node4&#45;&gt;Node12 -->
<g id="edge11" class="edge">
<title>Node4&#45;&gt;Node12</title>
<path fill="none" stroke="midnightblue" d="M325.61,-116.56C272.37,-109.59 167.46,-95.07 69.4,-76.26"/>
<polygon fill="midnightblue" stroke="midnightblue" points="69.81,-72.77 59.32,-74.3 68.47,-79.64 69.81,-72.77"/>
</g>
<!-- Node13 -->
<g id="node13" class="node">
<title>Node13</title>
<g id="a_node13"><a xlink:title=" ">
<polygon fill="none" stroke="#bfbfbf" points="77,-56.5 77,-75.5 122,-75.5 122,-56.5 77,-56.5"/>
<text text-anchor="middle" x="99.5" y="-63.5" font-family="Helvetica,sans-Serif" font-size="10.00">utility</text>
</a>
</g>
</g>
<!-- Node4&#45;&gt;Node13 -->
<g id="edge12" class="edge">
<title>Node4&#45;&gt;Node13</title>
<path fill="none" stroke="midnightblue" d="M325.79,-115.07C282.69,-107.52 206.76,-93.57 132.2,-76.01"/>
<polygon fill="midnightblue" stroke="midnightblue" points="132.71,-72.53 122.17,-73.62 131.08,-79.34 132.71,-72.53"/>
</g>
<!-- Node4&#45;&gt;Node14 -->
<g id="edge13" class="edge">
<title>Node4&#45;&gt;Node14</title>
<path fill="none" stroke="midnightblue" d="M389.02,-112.44C419.57,-103.28 468.21,-88.69 502.1,-78.52"/>
<polygon fill="midnightblue" stroke="midnightblue" points="503.54,-81.74 512.11,-75.52 501.53,-75.04 503.54,-81.74"/>
</g>
<!-- Node14&#45;&gt;Node7 -->
<g id="edge18" class="edge">
<title>Node14&#45;&gt;Node7</title>
<path fill="none" stroke="midnightblue" d="M510.56,-57.94C468.95,-48.13 393.66,-30.37 348.55,-19.74"/>
<polygon fill="midnightblue" stroke="midnightblue" points="349.13,-16.28 338.59,-17.39 347.52,-23.09 349.13,-16.28"/>
</g>
<!-- Node14&#45;&gt;Node11 -->
<g id="edge19" class="edge">
<title>Node14&#45;&gt;Node11</title>
<path fill="none" stroke="midnightblue" d="M517.84,-56.44C494.1,-47.48 456.59,-33.31 429.76,-23.18"/>
<polygon fill="midnightblue" stroke="midnightblue" points="430.64,-19.77 420.05,-19.52 428.17,-26.32 430.64,-19.77"/>
</g>
<!-- Node15 -->
<g id="node15" class="node">
<title>Node15</title>
<g id="a_node15"><a xlink:title=" ">
<polygon fill="none" stroke="#bfbfbf" points="745.5,-0.5 745.5,-19.5 809.5,-19.5 809.5,-0.5 745.5,-0.5"/>
<text text-anchor="middle" x="777.5" y="-7.5" font-family="Helvetica,sans-Serif" font-size="10.00">algorithm</text>
</a>
</g>
</g>
<!-- Node14&#45;&gt;Node15 -->
<g id="edge14" class="edge">
<title>Node14&#45;&gt;Node15</title>
<path fill="none" stroke="midnightblue" d="M570.31,-58.11C573.41,-57.4 576.52,-56.68 579.5,-56 633.24,-43.69 695.21,-29.63 735.3,-20.55"/>
<polygon fill="midnightblue" stroke="midnightblue" points="736.28,-23.92 745.26,-18.29 734.73,-17.09 736.28,-23.92"/>
</g>
<!-- Node16 -->
<g id="node16" class="node">
<title>Node16</title>
<g id="a_node16"><a xlink:title=" ">
<polygon fill="none" stroke="#bfbfbf" points="450.5,-0.5 450.5,-19.5 492.5,-19.5 492.5,-0.5 450.5,-0.5"/>
<text text-anchor="middle" x="471.5" y="-7.5" font-family="Helvetica,sans-Serif" font-size="10.00">array</text>
</a>
</g>
</g>
<!-- Node14&#45;&gt;Node16 -->
<g id="edge15" class="edge">
<title>Node14&#45;&gt;Node16</title>
<path fill="none" stroke="midnightblue" d="M529.41,-56.32C519.01,-48.18 503.24,-35.84 490.78,-26.09"/>
<polygon fill="midnightblue" stroke="midnightblue" points="492.82,-23.24 482.79,-19.83 488.51,-28.75 492.82,-23.24"/>
</g>
<!-- Node17 -->
<g id="node17" class="node">
<title>Node17</title>
<g id="a_node17"><a xlink:title=" ">
<polygon fill="none" stroke="#bfbfbf" points="511,-0.5 511,-19.5 570,-19.5 570,-0.5 511,-0.5"/>
<text text-anchor="middle" x="540.5" y="-7.5" font-family="Helvetica,sans-Serif" font-size="10.00">complex</text>
</a>
</g>
</g>
<!-- Node14&#45;&gt;Node17 -->
<g id="edge16" class="edge">
<title>Node14&#45;&gt;Node17</title>
<path fill="none" stroke="midnightblue" d="M540.5,-56.08C540.5,-49.01 540.5,-38.86 540.5,-29.99"/>
<polygon fill="midnightblue" stroke="midnightblue" points="544,-29.75 540.5,-19.75 537,-29.75 544,-29.75"/>
</g>
<!-- Node18 -->
<g id="node18" class="node">
<title>Node18</title>
<g id="a_node18"><a xlink:title=" ">
<polygon fill="none" stroke="#bfbfbf" points="588,-0.5 588,-19.5 653,-19.5 653,-0.5 588,-0.5"/>
<text text-anchor="middle" x="620.5" y="-7.5" font-family="Helvetica,sans-Serif" font-size="10.00">functional</text>
</a>
</g>
</g>
<!-- Node14&#45;&gt;Node18 -->
<g id="edge17" class="edge">
<title>Node14&#45;&gt;Node18</title>
<path fill="none" stroke="midnightblue" d="M553.35,-56.32C565.72,-47.98 584.63,-35.21 599.24,-25.35"/>
<polygon fill="midnightblue" stroke="midnightblue" points="601.35,-28.15 607.68,-19.65 597.43,-22.35 601.35,-28.15"/>
</g>
<!-- Node19 -->
<g id="node19" class="node">
<title>Node19</title>
<g id="a_node19"><a xlink:title=" ">
<polygon fill="none" stroke="#bfbfbf" points="671.5,-0.5 671.5,-19.5 727.5,-19.5 727.5,-0.5 671.5,-0.5"/>
<text text-anchor="middle" x="699.5" y="-7.5" font-family="Helvetica,sans-Serif" font-size="10.00">unistd.h</text>
</a>
</g>
</g>
<!-- Node14&#45;&gt;Node19 -->
<g id="edge20" class="edge">
<title>Node14&#45;&gt;Node19</title>
<path fill="none" stroke="midnightblue" d="M565.69,-56.44C592.44,-47.36 634.9,-32.94 664.81,-22.78"/>
<polygon fill="midnightblue" stroke="midnightblue" points="666.08,-26.05 674.42,-19.52 663.83,-19.42 666.08,-26.05"/>
</g>
<!-- Node20&#45;&gt;Node21 -->
<g id="edge24" class="edge">
<title>Node20&#45;&gt;Node21</title>
<path fill="none" stroke="midnightblue" d="M792.5,-168.08C792.5,-161.01 792.5,-150.86 792.5,-141.99"/>
<polygon fill="midnightblue" stroke="midnightblue" points="796,-141.75 792.5,-131.75 789,-141.75 796,-141.75"/>
</g>
</g>
</svg>
        <g id="navigator" transform="translate(0 0)" fill="#404254">
                <rect fill="#f2f5e9" fill-opacity="0.5" stroke="#606060" stroke-width=".5" x="0" y="0" width="60" height="60"/>
                <use id="zoomplus" xlink:href="#zoomPlus" x="17" y="9" onmousedown="handleZoom(evt,'in')"/>
                <use id="zoomminus" xlink:href="#zoomMin" x="42" y="9" onmousedown="handleZoom(evt,'out')"/>
                <use id="reset" xlink:href="#resetDef" x="30" y="36" onmousedown="handleReset()"/>
                <g id="arrowUp" xlink:href="#dirArrow" transform="translate(30 24)" onmousedown="handlePan(0,-1)">
                  <use xlink:href="#rim" fill="#404040">
                        <set attributeName="fill" to="#808080" begin="arrowUp.mouseover" end="arrowUp.mouseout"/>
                  </use>
                  <path fill="none" stroke="white" stroke-width="1.5" d="M0,-3.0v7 M-2.5,-0.5L0,-3.0L2.5,-0.5"/>
                </g>
                <g id="arrowRight" xlink:href="#dirArrow" transform="rotate(90) translate(36 -43)" onmousedown="handlePan(1,0)">
                  <use xlink:href="#rim" fill="#404040">
                        <set attributeName="fill" to="#808080" begin="arrowRight.mouseover" end="arrowRight.mouseout"/>
                  </use>
                  <path fill="none" stroke="white" stroke-width="1.5" d="M0,-3.0v7 M-2.5,-0.5L0,-3.0L2.5,-0.5"/>
                </g>
                <g id="arrowDown" xlink:href="#dirArrow" transform="rotate(180) translate(-30 -48)" onmousedown="handlePan(0,1)">
                  <use xlink:href="#rim" fill="#404040">
                        <set attributeName="fill" to="#808080" begin="arrowDown.mouseover" end="arrowDown.mouseout"/>
                  </use>
                  <path fill="none" stroke="white" stroke-width="1.5" d="M0,-3.0v7 M-2.5,-0.5L0,-3.0L2.5,-0.5"/>
                </g>
                <g id="arrowLeft" xlink:href="#dirArrow" transform="rotate(270) translate(-36 17)" onmousedown="handlePan(-1,0)">
                  <use xlink:href="#rim" fill="#404040">
                        <set attributeName="fill" to="#808080" begin="arrowLeft.mouseover" end="arrowLeft.mouseout"/>
                  </use>
                  <path fill="none" stroke="white" stroke-width="1.5" d="M0,-3.0v7 M-2.5,-0.5L0,-3.0L2.5,-0.5"/>
                </g>
        </g>
        <svg viewBox="0 0 15 15" width="100%" height="30px" preserveAspectRatio="xMaxYMin meet">
         <g id="arrow_out" transform="scale(0.3 0.3)">
          <a xlink:href="Wavefunction_8cpp__incl_org.svg" target="_base">
           <rect id="button" ry="5" rx="5" y="6" x="6" height="38" width="38"
                fill="#f2f5e9" fill-opacity="0.5" stroke="#606060" stroke-width="1.0"/>
           <path id="arrow"
             d="M 11.500037,31.436501 C 11.940474,20.09759 22.043105,11.32322 32.158766,21.979434 L 37.068811,17.246167 C 37.068811,17.246167 37.088388,32 37.088388,32 L 22.160133,31.978069 C 22.160133,31.978069 26.997745,27.140456 26.997745,27.140456 C 18.528582,18.264221 13.291696,25.230495 11.500037,31.436501 z"
             style="fill:#404040;"/>
          </a>
         </g>
        </svg>
</svg>
