<?xml version="1.0" encoding="UTF-8" standalone="no"?>
<!DOCTYPE svg PUBLIC "-//W3C//DTD SVG 1.1//EN"
 "http://www.w3.org/Graphics/SVG/1.1/DTD/svg11.dtd">
<!-- Generated by graphviz version 2.43.0 (0)
 -->
<!-- Title: /__w/pairinteraction/pairinteraction/pairinteraction/Wavefunction.hpp Pages: 1 -->
<svg width="1841pt" height="362pt"
 viewBox="0.00 0.00 1841.00 362.00" xmlns="http://www.w3.org/2000/svg" xmlns:xlink="http://www.w3.org/1999/xlink">
<g id="graph0" class="graph" transform="scale(1 1) rotate(0) translate(4 358)">
<title>/__w/pairinteraction/pairinteraction/pairinteraction/Wavefunction.hpp</title>
<!-- Node1 -->
<g id="node1" class="node">
<title>Node1</title>
<g id="a_node1"><a xlink:title=" ">
<polygon fill="#bfbfbf" stroke="black" points="1384,-312.5 1384,-353.5 1549,-353.5 1549,-312.5 1384,-312.5"/>
<text text-anchor="start" x="1392" y="-341.5" font-family="Helvetica,sans-Serif" font-size="10.00">/__w/pairinteraction</text>
<text text-anchor="start" x="1392" y="-330.5" font-family="Helvetica,sans-Serif" font-size="10.00">/pairinteraction/pairinteraction</text>
<text text-anchor="middle" x="1466.5" y="-319.5" font-family="Helvetica,sans-Serif" font-size="10.00">/Wavefunction.hpp</text>
</a>
</g>
</g>
<!-- Node2 -->
<g id="node2" class="node">
<title>Node2</title>
<g id="a_node2"><a xlink:href="MatrixElementCache_8hpp.html" target="_top" xlink:title=" ">
<polygon fill="none" stroke="black" points="647,-234.5 647,-275.5 812,-275.5 812,-234.5 647,-234.5"/>
<text text-anchor="start" x="655" y="-263.5" font-family="Helvetica,sans-Serif" font-size="10.00">/__w/pairinteraction</text>
<text text-anchor="start" x="655" y="-252.5" font-family="Helvetica,sans-Serif" font-size="10.00">/pairinteraction/pairinteraction</text>
<text text-anchor="middle" x="729.5" y="-241.5" font-family="Helvetica,sans-Serif" font-size="10.00">/MatrixElementCache.hpp</text>
</a>
</g>
</g>
<!-- Node1&#45;&gt;Node2 -->
<g id="edge1" class="edge">
<title>Node1&#45;&gt;Node2</title>
<path fill="none" stroke="midnightblue" d="M1373.53,-322.41C1228.47,-307.45 950.56,-278.8 812.12,-264.52"/>
<polygon fill="midnightblue" stroke="midnightblue" points="1373.44,-325.92 1383.75,-323.47 1374.16,-318.96 1373.44,-325.92"/>
</g>
<!-- Node11 -->
<g id="node11" class="node">
<title>Node11</title>
<g id="a_node11"><a xlink:href="MatrixElements_8hpp.html" target="_top" xlink:title=" ">
<polygon fill="none" stroke="black" points="1290,-234.5 1290,-275.5 1455,-275.5 1455,-234.5 1290,-234.5"/>
<text text-anchor="start" x="1298" y="-263.5" font-family="Helvetica,sans-Serif" font-size="10.00">/__w/pairinteraction</text>
<text text-anchor="start" x="1298" y="-252.5" font-family="Helvetica,sans-Serif" font-size="10.00">/pairinteraction/pairinteraction</text>
<text text-anchor="middle" x="1372.5" y="-241.5" font-family="Helvetica,sans-Serif" font-size="10.00">/MatrixElements.hpp</text>
</a>
</g>
</g>
<!-- Node1&#45;&gt;Node11 -->
<g id="edge10" class="edge">
<title>Node1&#45;&gt;Node11</title>
<path fill="none" stroke="midnightblue" d="M1434.42,-306.06C1422.04,-296.06 1408.13,-284.8 1396.63,-275.51"/>
<polygon fill="midnightblue" stroke="midnightblue" points="1432.32,-308.86 1442.29,-312.43 1436.72,-303.42 1432.32,-308.86"/>
</g>
<!-- Node18 -->
<g id="node18" class="node">
<title>Node18</title>
<g id="a_node18"><a xlink:href="wavefunction__test_8cpp.html" target="_top" xlink:title=" ">
<polygon fill="none" stroke="black" points="1473.5,-234.5 1473.5,-275.5 1649.5,-275.5 1649.5,-234.5 1473.5,-234.5"/>
<text text-anchor="start" x="1481.5" y="-263.5" font-family="Helvetica,sans-Serif" font-size="10.00">/__w/pairinteraction</text>
<text text-anchor="start" x="1481.5" y="-252.5" font-family="Helvetica,sans-Serif" font-size="10.00">/pairinteraction/pairinteraction</text>
<text text-anchor="middle" x="1561.5" y="-241.5" font-family="Helvetica,sans-Serif" font-size="10.00">/unit_test/wavefunction_test.cpp</text>
</a>
</g>
</g>
<!-- Node1&#45;&gt;Node18 -->
<g id="edge19" class="edge">
<title>Node1&#45;&gt;Node18</title>
<path fill="none" stroke="midnightblue" d="M1498.92,-306.06C1511.43,-296.06 1525.49,-284.8 1537.12,-275.51"/>
<polygon fill="midnightblue" stroke="midnightblue" points="1496.59,-303.45 1490.96,-312.43 1500.96,-308.91 1496.59,-303.45"/>
</g>
<!-- Node19 -->
<g id="node19" class="node">
<title>Node19</title>
<g id="a_node19"><a xlink:href="Wavefunction_8cpp.html" target="_top" xlink:title=" ">
<polygon fill="none" stroke="black" points="1668,-234.5 1668,-275.5 1833,-275.5 1833,-234.5 1668,-234.5"/>
<text text-anchor="start" x="1676" y="-263.5" font-family="Helvetica,sans-Serif" font-size="10.00">/__w/pairinteraction</text>
<text text-anchor="start" x="1676" y="-252.5" font-family="Helvetica,sans-Serif" font-size="10.00">/pairinteraction/pairinteraction</text>
<text text-anchor="middle" x="1750.5" y="-241.5" font-family="Helvetica,sans-Serif" font-size="10.00">/Wavefunction.cpp</text>
</a>
</g>
</g>
<!-- Node1&#45;&gt;Node19 -->
<g id="edge20" class="edge">
<title>Node1&#45;&gt;Node19</title>
<path fill="none" stroke="midnightblue" d="M1549.51,-309.79C1590.08,-298.93 1638.48,-285.98 1677.61,-275.51"/>
<polygon fill="midnightblue" stroke="midnightblue" points="1548.39,-306.46 1539.64,-312.43 1550.2,-313.22 1548.39,-306.46"/>
</g>
<!-- Node3 -->
<g id="node3" class="node">
<title>Node3</title>
<g id="a_node3"><a xlink:href="integration__bench_8cpp.html" target="_top" xlink:title=" ">
<polygon fill="none" stroke="black" points="732,-156.5 732,-197.5 923,-197.5 923,-156.5 732,-156.5"/>
<text text-anchor="start" x="740" y="-185.5" font-family="Helvetica,sans-Serif" font-size="10.00">/__w/pairinteraction</text>
<text text-anchor="start" x="740" y="-174.5" font-family="Helvetica,sans-Serif" font-size="10.00">/pairinteraction/pairinteraction</text>
<text text-anchor="middle" x="827.5" y="-163.5" font-family="Helvetica,sans-Serif" font-size="10.00">/benchmarks/integration_bench.cpp</text>
</a>
</g>
</g>
<!-- Node2&#45;&gt;Node3 -->
<g id="edge2" class="edge">
<title>Node2&#45;&gt;Node3</title>
<path fill="none" stroke="midnightblue" d="M762.94,-228.06C775.85,-218.06 790.36,-206.8 802.35,-197.51"/>
<polygon fill="midnightblue" stroke="midnightblue" points="760.49,-225.53 754.74,-234.43 764.78,-231.07 760.49,-225.53"/>
</g>
<!-- Node4 -->
<g id="node4" class="node">
<title>Node4</title>
<g id="a_node4"><a xlink:href="MatrixElementCache_8cpp.html" target="_top" xlink:title=" ">
<polygon fill="none" stroke="black" points="941,-156.5 941,-197.5 1106,-197.5 1106,-156.5 941,-156.5"/>
<text text-anchor="start" x="949" y="-185.5" font-family="Helvetica,sans-Serif" font-size="10.00">/__w/pairinteraction</text>
<text text-anchor="start" x="949" y="-174.5" font-family="Helvetica,sans-Serif" font-size="10.00">/pairinteraction/pairinteraction</text>
<text text-anchor="middle" x="1023.5" y="-163.5" font-family="Helvetica,sans-Serif" font-size="10.00">/MatrixElementCache.cpp</text>
</a>
</g>
</g>
<!-- Node2&#45;&gt;Node4 -->
<g id="edge3" class="edge">
<title>Node2&#45;&gt;Node4</title>
<path fill="none" stroke="midnightblue" d="M814.9,-231.92C857.01,-221.04 907.36,-208.02 948.04,-197.51"/>
<polygon fill="midnightblue" stroke="midnightblue" points="814.02,-228.54 805.21,-234.43 815.77,-235.31 814.02,-228.54"/>
</g>
<!-- Node5 -->
<g id="node5" class="node">
<title>Node5</title>
<g id="a_node5"><a xlink:href="PerturbativeInteraction_8hpp.html" target="_top" xlink:title=" ">
<polygon fill="none" stroke="black" points="1124,-156.5 1124,-197.5 1289,-197.5 1289,-156.5 1124,-156.5"/>
<text text-anchor="start" x="1132" y="-185.5" font-family="Helvetica,sans-Serif" font-size="10.00">/__w/pairinteraction</text>
<text text-anchor="start" x="1132" y="-174.5" font-family="Helvetica,sans-Serif" font-size="10.00">/pairinteraction/pairinteraction</text>
<text text-anchor="middle" x="1206.5" y="-163.5" font-family="Helvetica,sans-Serif" font-size="10.00">/PerturbativeInteraction.hpp</text>
</a>
</g>
</g>
<!-- Node2&#45;&gt;Node5 -->
<g id="edge4" class="edge">
<title>Node2&#45;&gt;Node5</title>
<path fill="none" stroke="midnightblue" d="M822.31,-242.34C900.47,-232.09 1015.12,-216.01 1114.5,-198 1117.56,-197.45 1120.66,-196.86 1123.8,-196.26"/>
<polygon fill="midnightblue" stroke="midnightblue" points="821.47,-238.92 812.01,-243.69 822.38,-245.86 821.47,-238.92"/>
</g>
<!-- Node7 -->
<g id="node7" class="node">
<title>Node7</title>
<g id="a_node7"><a xlink:href="State_8cpp.html" target="_top" xlink:title=" ">
<polygon fill="none" stroke="black" points="0,-156.5 0,-197.5 165,-197.5 165,-156.5 0,-156.5"/>
<text text-anchor="start" x="8" y="-185.5" font-family="Helvetica,sans-Serif" font-size="10.00">/__w/pairinteraction</text>
<text text-anchor="start" x="8" y="-174.5" font-family="Helvetica,sans-Serif" font-size="10.00">/pairinteraction/pairinteraction</text>
<text text-anchor="middle" x="82.5" y="-163.5" font-family="Helvetica,sans-Serif" font-size="10.00">/State.cpp</text>
</a>
</g>
</g>
<!-- Node2&#45;&gt;Node7 -->
<g id="edge6" class="edge">
<title>Node2&#45;&gt;Node7</title>
<path fill="none" stroke="midnightblue" d="M636.55,-247.95C525.8,-239.97 335.38,-223.85 173.5,-198 170.78,-197.57 168.03,-197.1 165.25,-196.61"/>
<polygon fill="midnightblue" stroke="midnightblue" points="636.46,-251.45 646.69,-248.67 636.96,-244.47 636.46,-251.45"/>
</g>
<!-- Node8 -->
<g id="node8" class="node">
<title>Node8</title>
<g id="a_node8"><a xlink:href="SystemOne_8cpp.html" target="_top" xlink:title=" ">
<polygon fill="none" stroke="black" points="183,-156.5 183,-197.5 348,-197.5 348,-156.5 183,-156.5"/>
<text text-anchor="start" x="191" y="-185.5" font-family="Helvetica,sans-Serif" font-size="10.00">/__w/pairinteraction</text>
<text text-anchor="start" x="191" y="-174.5" font-family="Helvetica,sans-Serif" font-size="10.00">/pairinteraction/pairinteraction</text>
<text text-anchor="middle" x="265.5" y="-163.5" font-family="Helvetica,sans-Serif" font-size="10.00">/SystemOne.cpp</text>
</a>
</g>
</g>
<!-- Node2&#45;&gt;Node8 -->
<g id="edge7" class="edge">
<title>Node2&#45;&gt;Node8</title>
<path fill="none" stroke="midnightblue" d="M636.66,-241.83C561.02,-231.49 451.56,-215.56 356.5,-198 353.8,-197.5 351.05,-196.98 348.28,-196.44"/>
<polygon fill="midnightblue" stroke="midnightblue" points="636.26,-245.31 646.64,-243.19 637.2,-238.37 636.26,-245.31"/>
</g>
<!-- Node9 -->
<g id="node9" class="node">
<title>Node9</title>
<g id="a_node9"><a xlink:href="SystemTwo_8cpp.html" target="_top" xlink:title=" ">
<polygon fill="none" stroke="black" points="366,-156.5 366,-197.5 531,-197.5 531,-156.5 366,-156.5"/>
<text text-anchor="start" x="374" y="-185.5" font-family="Helvetica,sans-Serif" font-size="10.00">/__w/pairinteraction</text>
<text text-anchor="start" x="374" y="-174.5" font-family="Helvetica,sans-Serif" font-size="10.00">/pairinteraction/pairinteraction</text>
<text text-anchor="middle" x="448.5" y="-163.5" font-family="Helvetica,sans-Serif" font-size="10.00">/SystemTwo.cpp</text>
</a>
</g>
</g>
<!-- Node2&#45;&gt;Node9 -->
<g id="edge8" class="edge">
<title>Node2&#45;&gt;Node9</title>
<path fill="none" stroke="midnightblue" d="M647.37,-231.79C607.22,-220.93 559.34,-207.98 520.62,-197.51"/>
<polygon fill="midnightblue" stroke="midnightblue" points="646.57,-235.2 657.14,-234.43 648.4,-228.44 646.57,-235.2"/>
</g>
<!-- Node10 -->
<g id="node10" class="node">
<title>Node10</title>
<g id="a_node10"><a xlink:href="integration__test_8cpp.html" target="_top" xlink:title=" ">
<polygon fill="none" stroke="black" points="549,-156.5 549,-197.5 714,-197.5 714,-156.5 549,-156.5"/>
<text text-anchor="start" x="557" y="-185.5" font-family="Helvetica,sans-Serif" font-size="10.00">/__w/pairinteraction</text>
<text text-anchor="start" x="557" y="-174.5" font-family="Helvetica,sans-Serif" font-size="10.00">/pairinteraction/pairinteraction</text>
<text text-anchor="middle" x="631.5" y="-163.5" font-family="Helvetica,sans-Serif" font-size="10.00">/unit_test/integration_test.cpp</text>
</a>
</g>
</g>
<!-- Node2&#45;&gt;Node10 -->
<g id="edge9" class="edge">
<title>Node2&#45;&gt;Node10</title>
<path fill="none" stroke="midnightblue" d="M696.06,-228.06C683.15,-218.06 668.64,-206.8 656.65,-197.51"/>
<polygon fill="midnightblue" stroke="midnightblue" points="694.22,-231.07 704.26,-234.43 698.51,-225.53 694.22,-231.07"/>
</g>
<!-- Node6 -->
<g id="node6" class="node">
<title>Node6</title>
<g id="a_node6"><a xlink:href="PerturbativeInteraction_8cpp.html" target="_top" xlink:title=" ">
<polygon fill="none" stroke="black" points="1124,-78.5 1124,-119.5 1289,-119.5 1289,-78.5 1124,-78.5"/>
<text text-anchor="start" x="1132" y="-107.5" font-family="Helvetica,sans-Serif" font-size="10.00">/__w/pairinteraction</text>
<text text-anchor="start" x="1132" y="-96.5" font-family="Helvetica,sans-Serif" font-size="10.00">/pairinteraction/pairinteraction</text>
<text text-anchor="middle" x="1206.5" y="-85.5" font-family="Helvetica,sans-Serif" font-size="10.00">/PerturbativeInteraction.cpp</text>
</a>
</g>
</g>
<!-- Node5&#45;&gt;Node6 -->
<g id="edge5" class="edge">
<title>Node5&#45;&gt;Node6</title>
<path fill="none" stroke="midnightblue" d="M1206.5,-146.3C1206.5,-137.3 1206.5,-127.65 1206.5,-119.51"/>
<polygon fill="midnightblue" stroke="midnightblue" points="1203,-146.43 1206.5,-156.43 1210,-146.43 1203,-146.43"/>
</g>
<!-- Node12 -->
<g id="node12" class="node">
<title>Node12</title>
<g id="a_node12"><a xlink:href="HamiltonianOne_8hpp.html" target="_top" xlink:title=" ">
<polygon fill="none" stroke="black" points="1529,-156.5 1529,-197.5 1694,-197.5 1694,-156.5 1529,-156.5"/>
<text text-anchor="start" x="1537" y="-185.5" font-family="Helvetica,sans-Serif" font-size="10.00">/__w/pairinteraction</text>
<text text-anchor="start" x="1537" y="-174.5" font-family="Helvetica,sans-Serif" font-size="10.00">/pairinteraction/pairinteraction</text>
<text text-anchor="middle" x="1611.5" y="-163.5" font-family="Helvetica,sans-Serif" font-size="10.00">/HamiltonianOne.hpp</text>
</a>
</g>
</g>
<!-- Node11&#45;&gt;Node12 -->
<g id="edge11" class="edge">
<title>Node11&#45;&gt;Node12</title>
<path fill="none" stroke="midnightblue" d="M1443.87,-231.3C1477.7,-220.55 1517.71,-207.82 1550.16,-197.51"/>
<polygon fill="midnightblue" stroke="midnightblue" points="1442.52,-228.06 1434.05,-234.43 1444.64,-234.73 1442.52,-228.06"/>
</g>
<!-- Node14 -->
<g id="node14" class="node">
<title>Node14</title>
<g id="a_node14"><a xlink:href="HamiltonianTwo_8hpp.html" target="_top" xlink:title=" ">
<polygon fill="none" stroke="black" points="1326,-78.5 1326,-119.5 1491,-119.5 1491,-78.5 1326,-78.5"/>
<text text-anchor="start" x="1334" y="-107.5" font-family="Helvetica,sans-Serif" font-size="10.00">/__w/pairinteraction</text>
<text text-anchor="start" x="1334" y="-96.5" font-family="Helvetica,sans-Serif" font-size="10.00">/pairinteraction/pairinteraction</text>
<text text-anchor="middle" x="1408.5" y="-85.5" font-family="Helvetica,sans-Serif" font-size="10.00">/HamiltonianTwo.hpp</text>
</a>
</g>
</g>
<!-- Node11&#45;&gt;Node14 -->
<g id="edge17" class="edge">
<title>Node11&#45;&gt;Node14</title>
<path fill="none" stroke="midnightblue" d="M1350.23,-226.02C1337.2,-206.06 1325.33,-178.84 1336.5,-156 1343.87,-140.92 1357.49,-128.73 1370.91,-119.62"/>
<polygon fill="midnightblue" stroke="midnightblue" points="1347.44,-228.14 1356.01,-234.36 1353.19,-224.15 1347.44,-228.14"/>
</g>
<!-- Node17 -->
<g id="node17" class="node">
<title>Node17</title>
<g id="a_node17"><a xlink:href="MatrixElements_8cpp.html" target="_top" xlink:title=" ">
<polygon fill="none" stroke="black" points="1346,-156.5 1346,-197.5 1511,-197.5 1511,-156.5 1346,-156.5"/>
<text text-anchor="start" x="1354" y="-185.5" font-family="Helvetica,sans-Serif" font-size="10.00">/__w/pairinteraction</text>
<text text-anchor="start" x="1354" y="-174.5" font-family="Helvetica,sans-Serif" font-size="10.00">/pairinteraction/pairinteraction</text>
<text text-anchor="middle" x="1428.5" y="-163.5" font-family="Helvetica,sans-Serif" font-size="10.00">/MatrixElements.cpp</text>
</a>
</g>
</g>
<!-- Node11&#45;&gt;Node17 -->
<g id="edge18" class="edge">
<title>Node11&#45;&gt;Node17</title>
<path fill="none" stroke="midnightblue" d="M1392.88,-226.34C1399.93,-216.78 1407.67,-206.27 1414.13,-197.51"/>
<polygon fill="midnightblue" stroke="midnightblue" points="1390.04,-224.3 1386.92,-234.43 1395.67,-228.45 1390.04,-224.3"/>
</g>
<!-- Node13 -->
<g id="node13" class="node">
<title>Node13</title>
<g id="a_node13"><a xlink:href="HamiltonianOne_8cpp.html" target="_top" xlink:title=" ">
<polygon fill="none" stroke="black" points="1509,-78.5 1509,-119.5 1674,-119.5 1674,-78.5 1509,-78.5"/>
<text text-anchor="start" x="1517" y="-107.5" font-family="Helvetica,sans-Serif" font-size="10.00">/__w/pairinteraction</text>
<text text-anchor="start" x="1517" y="-96.5" font-family="Helvetica,sans-Serif" font-size="10.00">/pairinteraction/pairinteraction</text>
<text text-anchor="middle" x="1591.5" y="-85.5" font-family="Helvetica,sans-Serif" font-size="10.00">/HamiltonianOne.cpp</text>
</a>
</g>
</g>
<!-- Node12&#45;&gt;Node13 -->
<g id="edge12" class="edge">
<title>Node12&#45;&gt;Node13</title>
<path fill="none" stroke="midnightblue" d="M1603.76,-146.59C1601.37,-137.51 1598.8,-127.74 1596.63,-119.51"/>
<polygon fill="midnightblue" stroke="midnightblue" points="1600.42,-147.65 1606.35,-156.43 1607.19,-145.87 1600.42,-147.65"/>
</g>
<!-- Node12&#45;&gt;Node14 -->
<g id="edge13" class="edge">
<title>Node12&#45;&gt;Node14</title>
<path fill="none" stroke="midnightblue" d="M1549.76,-152.89C1521.27,-142.22 1487.8,-129.69 1460.6,-119.51"/>
<polygon fill="midnightblue" stroke="midnightblue" points="1548.63,-156.2 1559.22,-156.43 1551.08,-149.64 1548.63,-156.2"/>
</g>
<!-- Node16 -->
<g id="node16" class="node">
<title>Node16</title>
<g id="a_node16"><a xlink:href="Interface_8cpp.html" target="_top" xlink:title=" ">
<polygon fill="none" stroke="black" points="1564,-0.5 1564,-41.5 1729,-41.5 1729,-0.5 1564,-0.5"/>
<text text-anchor="start" x="1572" y="-29.5" font-family="Helvetica,sans-Serif" font-size="10.00">/__w/pairinteraction</text>
<text text-anchor="start" x="1572" y="-18.5" font-family="Helvetica,sans-Serif" font-size="10.00">/pairinteraction/pairinteraction</text>
<text text-anchor="middle" x="1646.5" y="-7.5" font-family="Helvetica,sans-Serif" font-size="10.00">/Interface.cpp</text>
</a>
</g>
</g>
<!-- Node12&#45;&gt;Node16 -->
<g id="edge16" class="edge">
<title>Node12&#45;&gt;Node16</title>
<path fill="none" stroke="midnightblue" d="M1657.24,-150.45C1667.79,-142.2 1677.62,-132.02 1683.5,-120 1696.36,-93.7 1678.41,-61.72 1663.32,-41.6"/>
<polygon fill="midnightblue" stroke="midnightblue" points="1655.12,-147.67 1649.09,-156.38 1659.24,-153.33 1655.12,-147.67"/>
</g>
<!-- Node15 -->
<g id="node15" class="node">
<title>Node15</title>
<g id="a_node15"><a xlink:href="HamiltonianTwo_8cpp.html" target="_top" xlink:title=" ">
<polygon fill="none" stroke="black" points="1326,-0.5 1326,-41.5 1491,-41.5 1491,-0.5 1326,-0.5"/>
<text text-anchor="start" x="1334" y="-29.5" font-family="Helvetica,sans-Serif" font-size="10.00">/__w/pairinteraction</text>
<text text-anchor="start" x="1334" y="-18.5" font-family="Helvetica,sans-Serif" font-size="10.00">/pairinteraction/pairinteraction</text>
<text text-anchor="middle" x="1408.5" y="-7.5" font-family="Helvetica,sans-Serif" font-size="10.00">/HamiltonianTwo.cpp</text>
</a>
</g>
</g>
<!-- Node14&#45;&gt;Node15 -->
<g id="edge14" class="edge">
<title>Node14&#45;&gt;Node15</title>
<path fill="none" stroke="midnightblue" d="M1408.5,-68.3C1408.5,-59.3 1408.5,-49.65 1408.5,-41.51"/>
<polygon fill="midnightblue" stroke="midnightblue" points="1405,-68.43 1408.5,-78.43 1412,-68.43 1405,-68.43"/>
</g>
<!-- Node14&#45;&gt;Node16 -->
<g id="edge15" class="edge">
<title>Node14&#45;&gt;Node16</title>
<path fill="none" stroke="midnightblue" d="M1479.57,-75.3C1513.26,-64.55 1553.11,-51.82 1585.42,-41.51"/>
<polygon fill="midnightblue" stroke="midnightblue" points="1478.25,-72.05 1469.79,-78.43 1480.38,-78.72 1478.25,-72.05"/>
</g>
</g>
</svg>
