<?xml version="1.0" encoding="UTF-8" standalone="no"?>
<!DOCTYPE svg PUBLIC "-//W3C//DTD SVG 1.1//EN"
 "http://www.w3.org/Graphics/SVG/1.1/DTD/svg11.dtd">
<!-- Generated by graphviz version 2.43.0 (0)
 -->
<!-- Title: /__w/pairinteraction/pairinteraction/pairinteraction/WignerD.cpp Pages: 1 -->
<svg width="580pt" height="173pt"
 viewBox="0.00 0.00 579.50 173.00" xmlns="http://www.w3.org/2000/svg" xmlns:xlink="http://www.w3.org/1999/xlink">
<g id="graph0" class="graph" transform="scale(1 1) rotate(0) translate(4 169)">
<title>/__w/pairinteraction/pairinteraction/pairinteraction/WignerD.cpp</title>
<!-- Node1 -->
<g id="node1" class="node">
<title>Node1</title>
<g id="a_node1"><a xlink:title=" ">
<polygon fill="#bfbfbf" stroke="black" points="283.5,-123.5 283.5,-164.5 448.5,-164.5 448.5,-123.5 283.5,-123.5"/>
<text text-anchor="start" x="291.5" y="-152.5" font-family="Helvetica,sans-Serif" font-size="10.00">/__w/pairinteraction</text>
<text text-anchor="start" x="291.5" y="-141.5" font-family="Helvetica,sans-Serif" font-size="10.00">/pairinteraction/pairinteraction</text>
<text text-anchor="middle" x="366" y="-130.5" font-family="Helvetica,sans-Serif" font-size="10.00">/WignerD.cpp</text>
</a>
</g>
</g>
<!-- Node2 -->
<g id="node2" class="node">
<title>Node2</title>
<g id="a_node2"><a xlink:href="WignerD_8hpp.html" target="_top" xlink:title=" ">
<polygon fill="none" stroke="black" points="326,-67.5 326,-86.5 406,-86.5 406,-67.5 326,-67.5"/>
<text text-anchor="middle" x="366" y="-74.5" font-family="Helvetica,sans-Serif" font-size="10.00">WignerD.hpp</text>
</a>
</g>
</g>
<!-- Node1&#45;&gt;Node2 -->
<g id="edge1" class="edge">
<title>Node1&#45;&gt;Node2</title>
<path fill="none" stroke="midnightblue" d="M366,-123.5C366,-115.07 366,-105.24 366,-96.87"/>
<polygon fill="midnightblue" stroke="midnightblue" points="369.5,-96.65 366,-86.65 362.5,-96.65 369.5,-96.65"/>
</g>
<!-- Node3 -->
<g id="node3" class="node">
<title>Node3</title>
<g id="a_node3"><a xlink:title=" ">
<polygon fill="none" stroke="#bfbfbf" points="0,-0.5 0,-30.5 134,-30.5 134,-0.5 0,-0.5"/>
<text text-anchor="start" x="8" y="-18.5" font-family="Helvetica,sans-Serif" font-size="10.00">boost/math/special</text>
<text text-anchor="middle" x="67" y="-7.5" font-family="Helvetica,sans-Serif" font-size="10.00">_functions/binomial.hpp</text>
</a>
</g>
</g>
<!-- Node2&#45;&gt;Node3 -->
<g id="edge2" class="edge">
<title>Node2&#45;&gt;Node3</title>
<path fill="none" stroke="midnightblue" d="M325.99,-68.04C279.65,-58.82 202.27,-43.42 144.13,-31.85"/>
<polygon fill="midnightblue" stroke="midnightblue" points="144.73,-28.4 134.24,-29.88 143.36,-35.26 144.73,-28.4"/>
</g>
<!-- Node4 -->
<g id="node4" class="node">
<title>Node4</title>
<g id="a_node4"><a xlink:title=" ">
<polygon fill="none" stroke="#bfbfbf" points="152.5,-0.5 152.5,-30.5 289.5,-30.5 289.5,-0.5 152.5,-0.5"/>
<text text-anchor="start" x="160.5" y="-18.5" font-family="Helvetica,sans-Serif" font-size="10.00">boost/math/special</text>
<text text-anchor="middle" x="221" y="-7.5" font-family="Helvetica,sans-Serif" font-size="10.00">_functions/factorials.hpp</text>
</a>
</g>
</g>
<!-- Node2&#45;&gt;Node4 -->
<g id="edge3" class="edge">
<title>Node2&#45;&gt;Node4</title>
<path fill="none" stroke="midnightblue" d="M345.23,-67.48C324.3,-58.89 291.39,-45.38 264.69,-34.43"/>
<polygon fill="midnightblue" stroke="midnightblue" points="265.75,-31.08 255.17,-30.52 263.1,-37.56 265.75,-31.08"/>
</g>
<!-- Node5 -->
<g id="node5" class="node">
<title>Node5</title>
<g id="a_node5"><a xlink:title=" ">
<polygon fill="none" stroke="#bfbfbf" points="307.5,-6 307.5,-25 354.5,-25 354.5,-6 307.5,-6"/>
<text text-anchor="middle" x="331" y="-13" font-family="Helvetica,sans-Serif" font-size="10.00">cmath</text>
</a>
</g>
</g>
<!-- Node2&#45;&gt;Node5 -->
<g id="edge4" class="edge">
<title>Node2&#45;&gt;Node5</title>
<path fill="none" stroke="midnightblue" d="M360.99,-67.48C355.84,-58.73 347.69,-44.87 341.18,-33.81"/>
<polygon fill="midnightblue" stroke="midnightblue" points="344.09,-31.85 336.01,-25.01 338.06,-35.4 344.09,-31.85"/>
</g>
<!-- Node6 -->
<g id="node6" class="node">
<title>Node6</title>
<g id="a_node6"><a xlink:title=" ">
<polygon fill="none" stroke="#bfbfbf" points="372.5,-6 372.5,-25 431.5,-25 431.5,-6 372.5,-6"/>
<text text-anchor="middle" x="402" y="-13" font-family="Helvetica,sans-Serif" font-size="10.00">complex</text>
</a>
</g>
</g>
<!-- Node2&#45;&gt;Node6 -->
<g id="edge5" class="edge">
<title>Node2&#45;&gt;Node6</title>
<path fill="none" stroke="midnightblue" d="M371.16,-67.48C376.45,-58.73 384.84,-44.87 391.53,-33.81"/>
<polygon fill="midnightblue" stroke="midnightblue" points="394.67,-35.38 396.85,-25.01 388.68,-31.75 394.67,-35.38"/>
</g>
<!-- Node7 -->
<g id="node7" class="node">
<title>Node7</title>
<g id="a_node7"><a xlink:title=" ">
<polygon fill="none" stroke="#bfbfbf" points="450,-6 450,-25 506,-25 506,-6 450,-6"/>
<text text-anchor="middle" x="478" y="-13" font-family="Helvetica,sans-Serif" font-size="10.00">numeric</text>
</a>
</g>
</g>
<!-- Node2&#45;&gt;Node7 -->
<g id="edge6" class="edge">
<title>Node2&#45;&gt;Node7</title>
<path fill="none" stroke="midnightblue" d="M382.05,-67.48C400.59,-57.62 431.34,-41.29 453.02,-29.77"/>
<polygon fill="midnightblue" stroke="midnightblue" points="454.79,-32.79 461.98,-25.01 451.51,-26.61 454.79,-32.79"/>
</g>
<!-- Node8 -->
<g id="node8" class="node">
<title>Node8</title>
<g id="a_node8"><a xlink:title=" ">
<polygon fill="none" stroke="#bfbfbf" points="524.5,-6 524.5,-25 571.5,-25 571.5,-6 524.5,-6"/>
<text text-anchor="middle" x="548" y="-13" font-family="Helvetica,sans-Serif" font-size="10.00">vector</text>
</a>
</g>
</g>
<!-- Node2&#45;&gt;Node8 -->
<g id="edge7" class="edge">
<title>Node2&#45;&gt;Node8</title>
<path fill="none" stroke="midnightblue" d="M398.34,-67.45C428.78,-59.12 475.45,-45.6 515,-31 516.65,-30.39 518.35,-29.74 520.04,-29.06"/>
<polygon fill="midnightblue" stroke="midnightblue" points="521.79,-32.12 529.66,-25.03 519.08,-25.67 521.79,-32.12"/>
</g>
</g>
</svg>
