<?xml version="1.0" encoding="UTF-8" standalone="no"?>
<!DOCTYPE svg PUBLIC "-//W3C//DTD SVG 1.1//EN"
 "http://www.w3.org/Graphics/SVG/1.1/DTD/svg11.dtd">
<!-- Generated by graphviz version 2.43.0 (0)
 -->
<!-- Title: /__w/pairinteraction/pairinteraction/pairinteraction/WignerD.hpp Pages: 1 -->
<svg width="578pt" height="284pt"
 viewBox="0.00 0.00 578.00 284.00" xmlns="http://www.w3.org/2000/svg" xmlns:xlink="http://www.w3.org/1999/xlink">
<g id="graph0" class="graph" transform="scale(1 1) rotate(0) translate(4 280)">
<title>/__w/pairinteraction/pairinteraction/pairinteraction/WignerD.hpp</title>
<!-- Node1 -->
<g id="node1" class="node">
<title>Node1</title>
<g id="a_node1"><a xlink:title=" ">
<polygon fill="#bfbfbf" stroke="black" points="293,-234.5 293,-275.5 458,-275.5 458,-234.5 293,-234.5"/>
<text text-anchor="start" x="301" y="-263.5" font-family="Helvetica,sans-Serif" font-size="10.00">/__w/pairinteraction</text>
<text text-anchor="start" x="301" y="-252.5" font-family="Helvetica,sans-Serif" font-size="10.00">/pairinteraction/pairinteraction</text>
<text text-anchor="middle" x="375.5" y="-241.5" font-family="Helvetica,sans-Serif" font-size="10.00">/WignerD.hpp</text>
</a>
</g>
</g>
<!-- Node2 -->
<g id="node2" class="node">
<title>Node2</title>
<g id="a_node2"><a xlink:href="SystemOne_8hpp.html" target="_top" xlink:title=" ">
<polygon fill="none" stroke="black" points="202,-156.5 202,-197.5 367,-197.5 367,-156.5 202,-156.5"/>
<text text-anchor="start" x="210" y="-185.5" font-family="Helvetica,sans-Serif" font-size="10.00">/__w/pairinteraction</text>
<text text-anchor="start" x="210" y="-174.5" font-family="Helvetica,sans-Serif" font-size="10.00">/pairinteraction/pairinteraction</text>
<text text-anchor="middle" x="284.5" y="-163.5" font-family="Helvetica,sans-Serif" font-size="10.00">/SystemOne.hpp</text>
</a>
</g>
</g>
<!-- Node1&#45;&gt;Node2 -->
<g id="edge1" class="edge">
<title>Node1&#45;&gt;Node2</title>
<path fill="none" stroke="midnightblue" d="M344.1,-227.78C332.21,-217.84 318.88,-206.72 307.86,-197.51"/>
<polygon fill="midnightblue" stroke="midnightblue" points="342.15,-230.7 352.07,-234.43 346.63,-225.33 342.15,-230.7"/>
</g>
<!-- Node8 -->
<g id="node8" class="node">
<title>Node8</title>
<g id="a_node8"><a xlink:href="WignerD_8cpp.html" target="_top" xlink:title=" ">
<polygon fill="none" stroke="black" points="385,-156.5 385,-197.5 550,-197.5 550,-156.5 385,-156.5"/>
<text text-anchor="start" x="393" y="-185.5" font-family="Helvetica,sans-Serif" font-size="10.00">/__w/pairinteraction</text>
<text text-anchor="start" x="393" y="-174.5" font-family="Helvetica,sans-Serif" font-size="10.00">/pairinteraction/pairinteraction</text>
<text text-anchor="middle" x="467.5" y="-163.5" font-family="Helvetica,sans-Serif" font-size="10.00">/WignerD.cpp</text>
</a>
</g>
</g>
<!-- Node1&#45;&gt;Node8 -->
<g id="edge9" class="edge">
<title>Node1&#45;&gt;Node8</title>
<path fill="none" stroke="midnightblue" d="M407.24,-227.78C419.27,-217.84 432.74,-206.72 443.89,-197.51"/>
<polygon fill="midnightblue" stroke="midnightblue" points="404.67,-225.36 399.19,-234.43 409.13,-230.76 404.67,-225.36"/>
</g>
<!-- Node3 -->
<g id="node3" class="node">
<title>Node3</title>
<g id="a_node3"><a xlink:href="integration__bench_8cpp.html" target="_top" xlink:title=" ">
<polygon fill="none" stroke="black" points="0,-0.5 0,-41.5 191,-41.5 191,-0.5 0,-0.5"/>
<text text-anchor="start" x="8" y="-29.5" font-family="Helvetica,sans-Serif" font-size="10.00">/__w/pairinteraction</text>
<text text-anchor="start" x="8" y="-18.5" font-family="Helvetica,sans-Serif" font-size="10.00">/pairinteraction/pairinteraction</text>
<text text-anchor="middle" x="95.5" y="-7.5" font-family="Helvetica,sans-Serif" font-size="10.00">/benchmarks/integration_bench.cpp</text>
</a>
</g>
</g>
<!-- Node2&#45;&gt;Node3 -->
<g id="edge2" class="edge">
<title>Node2&#45;&gt;Node3</title>
<path fill="none" stroke="midnightblue" d="M191.69,-169.25C158.14,-161.9 123.21,-147.55 101.5,-120 83.98,-97.78 86.66,-63.17 90.71,-41.58"/>
<polygon fill="midnightblue" stroke="midnightblue" points="191.08,-172.7 201.58,-171.23 192.46,-165.84 191.08,-172.7"/>
</g>
<!-- Node4 -->
<g id="node4" class="node">
<title>Node4</title>
<g id="a_node4"><a xlink:href="SystemOne_8cpp.html" target="_top" xlink:title=" ">
<polygon fill="none" stroke="black" points="111,-78.5 111,-119.5 276,-119.5 276,-78.5 111,-78.5"/>
<text text-anchor="start" x="119" y="-107.5" font-family="Helvetica,sans-Serif" font-size="10.00">/__w/pairinteraction</text>
<text text-anchor="start" x="119" y="-96.5" font-family="Helvetica,sans-Serif" font-size="10.00">/pairinteraction/pairinteraction</text>
<text text-anchor="middle" x="193.5" y="-85.5" font-family="Helvetica,sans-Serif" font-size="10.00">/SystemOne.cpp</text>
</a>
</g>
</g>
<!-- Node2&#45;&gt;Node4 -->
<g id="edge3" class="edge">
<title>Node2&#45;&gt;Node4</title>
<path fill="none" stroke="midnightblue" d="M253.1,-149.78C241.21,-139.84 227.88,-128.72 216.86,-119.51"/>
<polygon fill="midnightblue" stroke="midnightblue" points="251.15,-152.7 261.07,-156.43 255.63,-147.33 251.15,-152.7"/>
</g>
<!-- Node5 -->
<g id="node5" class="node">
<title>Node5</title>
<g id="a_node5"><a xlink:href="SystemTwo_8hpp.html" target="_top" xlink:title=" ">
<polygon fill="none" stroke="black" points="294,-78.5 294,-119.5 459,-119.5 459,-78.5 294,-78.5"/>
<text text-anchor="start" x="302" y="-107.5" font-family="Helvetica,sans-Serif" font-size="10.00">/__w/pairinteraction</text>
<text text-anchor="start" x="302" y="-96.5" font-family="Helvetica,sans-Serif" font-size="10.00">/pairinteraction/pairinteraction</text>
<text text-anchor="middle" x="376.5" y="-85.5" font-family="Helvetica,sans-Serif" font-size="10.00">/SystemTwo.hpp</text>
</a>
</g>
</g>
<!-- Node2&#45;&gt;Node5 -->
<g id="edge4" class="edge">
<title>Node2&#45;&gt;Node5</title>
<path fill="none" stroke="midnightblue" d="M316.24,-149.78C328.27,-139.84 341.74,-128.72 352.89,-119.51"/>
<polygon fill="midnightblue" stroke="midnightblue" points="313.67,-147.36 308.19,-156.43 318.13,-152.76 313.67,-147.36"/>
</g>
<!-- Node7 -->
<g id="node7" class="node">
<title>Node7</title>
<g id="a_node7"><a xlink:href="integration__test_8cpp.html" target="_top" xlink:title=" ">
<polygon fill="none" stroke="black" points="405,-0.5 405,-41.5 570,-41.5 570,-0.5 405,-0.5"/>
<text text-anchor="start" x="413" y="-29.5" font-family="Helvetica,sans-Serif" font-size="10.00">/__w/pairinteraction</text>
<text text-anchor="start" x="413" y="-18.5" font-family="Helvetica,sans-Serif" font-size="10.00">/pairinteraction/pairinteraction</text>
<text text-anchor="middle" x="487.5" y="-7.5" font-family="Helvetica,sans-Serif" font-size="10.00">/unit_test/integration_test.cpp</text>
</a>
</g>
</g>
<!-- Node2&#45;&gt;Node7 -->
<g id="edge8" class="edge">
<title>Node2&#45;&gt;Node7</title>
<path fill="none" stroke="midnightblue" d="M371.51,-153.85C415.61,-141.86 461.37,-127.92 468.5,-120 487.87,-98.5 490.06,-63.35 489.23,-41.5"/>
<polygon fill="midnightblue" stroke="midnightblue" points="370.59,-150.47 361.85,-156.46 372.42,-157.23 370.59,-150.47"/>
</g>
<!-- Node5&#45;&gt;Node3 -->
<g id="edge5" class="edge">
<title>Node5&#45;&gt;Node3</title>
<path fill="none" stroke="midnightblue" d="M294.37,-75.79C254.22,-64.93 206.34,-51.98 167.62,-41.51"/>
<polygon fill="midnightblue" stroke="midnightblue" points="293.57,-79.2 304.14,-78.43 295.4,-72.44 293.57,-79.2"/>
</g>
<!-- Node6 -->
<g id="node6" class="node">
<title>Node6</title>
<g id="a_node6"><a xlink:href="SystemTwo_8cpp.html" target="_top" xlink:title=" ">
<polygon fill="none" stroke="black" points="222,-0.5 222,-41.5 387,-41.5 387,-0.5 222,-0.5"/>
<text text-anchor="start" x="230" y="-29.5" font-family="Helvetica,sans-Serif" font-size="10.00">/__w/pairinteraction</text>
<text text-anchor="start" x="230" y="-18.5" font-family="Helvetica,sans-Serif" font-size="10.00">/pairinteraction/pairinteraction</text>
<text text-anchor="middle" x="304.5" y="-7.5" font-family="Helvetica,sans-Serif" font-size="10.00">/SystemTwo.cpp</text>
</a>
</g>
</g>
<!-- Node5&#45;&gt;Node6 -->
<g id="edge6" class="edge">
<title>Node5&#45;&gt;Node6</title>
<path fill="none" stroke="midnightblue" d="M350.84,-70.92C341.64,-61.2 331.45,-50.45 322.98,-41.51"/>
<polygon fill="midnightblue" stroke="midnightblue" points="348.54,-73.58 357.96,-78.43 353.62,-68.76 348.54,-73.58"/>
</g>
<!-- Node5&#45;&gt;Node7 -->
<g id="edge7" class="edge">
<title>Node5&#45;&gt;Node7</title>
<path fill="none" stroke="midnightblue" d="M413.55,-72.64C428.37,-62.49 445.17,-50.98 459.01,-41.51"/>
<polygon fill="midnightblue" stroke="midnightblue" points="411.36,-69.89 405.09,-78.43 415.31,-75.67 411.36,-69.89"/>
</g>
</g>
</svg>
