<?xml version="1.0" encoding="UTF-8" standalone="no"?>
<!DOCTYPE svg PUBLIC "-//W3C//DTD SVG 1.1//EN"
 "http://www.w3.org/Graphics/SVG/1.1/DTD/svg11.dtd">
<!-- Generated by graphviz version 2.43.0 (0)
 -->
<!-- Title: /__w/pairinteraction/pairinteraction/pairinteraction/WignerD.hpp Pages: 1 -->
<svg width="580pt" height="117pt"
 viewBox="0.00 0.00 579.50 117.00" xmlns="http://www.w3.org/2000/svg" xmlns:xlink="http://www.w3.org/1999/xlink">
<g id="graph0" class="graph" transform="scale(1 1) rotate(0) translate(4 113)">
<title>/__w/pairinteraction/pairinteraction/pairinteraction/WignerD.hpp</title>
<!-- Node1 -->
<g id="node1" class="node">
<title>Node1</title>
<g id="a_node1"><a xlink:title=" ">
<polygon fill="#bfbfbf" stroke="black" points="283.5,-67.5 283.5,-108.5 448.5,-108.5 448.5,-67.5 283.5,-67.5"/>
<text text-anchor="start" x="291.5" y="-96.5" font-family="Helvetica,sans-Serif" font-size="10.00">/__w/pairinteraction</text>
<text text-anchor="start" x="291.5" y="-85.5" font-family="Helvetica,sans-Serif" font-size="10.00">/pairinteraction/pairinteraction</text>
<text text-anchor="middle" x="366" y="-74.5" font-family="Helvetica,sans-Serif" font-size="10.00">/WignerD.hpp</text>
</a>
</g>
</g>
<!-- Node2 -->
<g id="node2" class="node">
<title>Node2</title>
<g id="a_node2"><a xlink:title=" ">
<polygon fill="none" stroke="#bfbfbf" points="0,-0.5 0,-30.5 134,-30.5 134,-0.5 0,-0.5"/>
<text text-anchor="start" x="8" y="-18.5" font-family="Helvetica,sans-Serif" font-size="10.00">boost/math/special</text>
<text text-anchor="middle" x="67" y="-7.5" font-family="Helvetica,sans-Serif" font-size="10.00">_functions/binomial.hpp</text>
</a>
</g>
</g>
<!-- Node1&#45;&gt;Node2 -->
<g id="edge1" class="edge">
<title>Node1&#45;&gt;Node2</title>
<path fill="none" stroke="midnightblue" d="M283.11,-67.46C237.09,-56.61 180.49,-43.26 136.76,-32.95"/>
<polygon fill="midnightblue" stroke="midnightblue" points="137.32,-29.49 126.79,-30.6 135.72,-36.3 137.32,-29.49"/>
</g>
<!-- Node3 -->
<g id="node3" class="node">
<title>Node3</title>
<g id="a_node3"><a xlink:title=" ">
<polygon fill="none" stroke="#bfbfbf" points="152.5,-0.5 152.5,-30.5 289.5,-30.5 289.5,-0.5 152.5,-0.5"/>
<text text-anchor="start" x="160.5" y="-18.5" font-family="Helvetica,sans-Serif" font-size="10.00">boost/math/special</text>
<text text-anchor="middle" x="221" y="-7.5" font-family="Helvetica,sans-Serif" font-size="10.00">_functions/factorials.hpp</text>
</a>
</g>
</g>
<!-- Node1&#45;&gt;Node3 -->
<g id="edge2" class="edge">
<title>Node1&#45;&gt;Node3</title>
<path fill="none" stroke="midnightblue" d="M325.61,-67.36C304.83,-57.26 279.63,-45.01 259.18,-35.06"/>
<polygon fill="midnightblue" stroke="midnightblue" points="260.67,-31.9 250.14,-30.67 257.61,-38.19 260.67,-31.9"/>
</g>
<!-- Node4 -->
<g id="node4" class="node">
<title>Node4</title>
<g id="a_node4"><a xlink:title=" ">
<polygon fill="none" stroke="#bfbfbf" points="307.5,-6 307.5,-25 354.5,-25 354.5,-6 307.5,-6"/>
<text text-anchor="middle" x="331" y="-13" font-family="Helvetica,sans-Serif" font-size="10.00">cmath</text>
</a>
</g>
</g>
<!-- Node1&#45;&gt;Node4 -->
<g id="edge3" class="edge">
<title>Node1&#45;&gt;Node4</title>
<path fill="none" stroke="midnightblue" d="M356.25,-67.36C351.09,-56.97 344.81,-44.32 339.8,-34.23"/>
<polygon fill="midnightblue" stroke="midnightblue" points="342.89,-32.57 335.31,-25.17 336.62,-35.69 342.89,-32.57"/>
</g>
<!-- Node5 -->
<g id="node5" class="node">
<title>Node5</title>
<g id="a_node5"><a xlink:title=" ">
<polygon fill="none" stroke="#bfbfbf" points="372.5,-6 372.5,-25 431.5,-25 431.5,-6 372.5,-6"/>
<text text-anchor="middle" x="402" y="-13" font-family="Helvetica,sans-Serif" font-size="10.00">complex</text>
</a>
</g>
</g>
<!-- Node1&#45;&gt;Node5 -->
<g id="edge4" class="edge">
<title>Node1&#45;&gt;Node5</title>
<path fill="none" stroke="midnightblue" d="M376.03,-67.36C381.33,-56.97 387.8,-44.32 392.95,-34.23"/>
<polygon fill="midnightblue" stroke="midnightblue" points="396.14,-35.67 397.57,-25.17 389.91,-32.49 396.14,-35.67"/>
</g>
<!-- Node6 -->
<g id="node6" class="node">
<title>Node6</title>
<g id="a_node6"><a xlink:title=" ">
<polygon fill="none" stroke="#bfbfbf" points="450,-6 450,-25 506,-25 506,-6 450,-6"/>
<text text-anchor="middle" x="478" y="-13" font-family="Helvetica,sans-Serif" font-size="10.00">numeric</text>
</a>
</g>
</g>
<!-- Node1&#45;&gt;Node6 -->
<g id="edge5" class="edge">
<title>Node1&#45;&gt;Node6</title>
<path fill="none" stroke="midnightblue" d="M397.2,-67.36C415.77,-55.67 438.89,-41.12 455.64,-30.57"/>
<polygon fill="midnightblue" stroke="midnightblue" points="457.62,-33.46 464.22,-25.17 453.89,-27.54 457.62,-33.46"/>
</g>
<!-- Node7 -->
<g id="node7" class="node">
<title>Node7</title>
<g id="a_node7"><a xlink:title=" ">
<polygon fill="none" stroke="#bfbfbf" points="524.5,-6 524.5,-25 571.5,-25 571.5,-6 524.5,-6"/>
<text text-anchor="middle" x="548" y="-13" font-family="Helvetica,sans-Serif" font-size="10.00">vector</text>
</a>
</g>
</g>
<!-- Node1&#45;&gt;Node7 -->
<g id="edge6" class="edge">
<title>Node1&#45;&gt;Node7</title>
<path fill="none" stroke="midnightblue" d="M420.07,-67.49C448.47,-57.03 483.78,-43.72 515,-31 516.41,-30.42 517.86,-29.83 519.31,-29.22"/>
<polygon fill="midnightblue" stroke="midnightblue" points="521.07,-32.27 528.88,-25.11 518.31,-25.84 521.07,-32.27"/>
</g>
</g>
</svg>
