<?xml version="1.0" encoding="UTF-8" standalone="no"?>
<svg
   version="1.1"
   x="0px"
   y="0px"
   viewBox="0 0 336.10847 100"
   xml:space="preserve"
   id="svg630"
   width="268.88678"
   height="80"
   xmlns:xlink="http://www.w3.org/1999/xlink"
   xmlns="http://www.w3.org/2000/svg"
   xmlns:svg="http://www.w3.org/2000/svg"><defs
   id="defs634" />
<style
   type="text/css"
   id="style2">
    .st0{fill:#FFFFFF;}
    .st1{display:none;}
    .st2{display:inline;fill:#45FFFF;}
    .st3{display:inline;}
    .st4{fill:#94D3E1;}
    .st5{fill:#0092B3;}
    .st6{fill:#9C9D9F;}
    .st7{fill:#1D1D1B;}
    .st8{clip-path:url(#SVGID_00000083800592905788814200000011193371630909899185_);}
    .st9{fill-rule:evenodd;clip-rule:evenodd;fill:#1D1D1B;}
    .st10{fill-rule:evenodd;clip-rule:evenodd;fill:#009982;}
    .st11{clip-path:url(#SVGID_00000109012509114514803910000009095113213067467914_);}
    .st12{fill:#3F454D;}
</style>
<g
   id="Hintergrund"
   transform="translate(-59.891543,-63)">

</g>
<g
   id="Passer"
   class="st1"
   transform="translate(-59.891543,-63)">
    <rect
   x="61.900002"
   class="st2"
   width="2.7"
   height="225"
   id="rect7"
   y="0" />
    <rect
   y="23.5"
   class="st2"
   width="464.79999"
   height="2.9000001"
   id="rect9"
   x="0" />
    <rect
   x="-32.5"
   y="196.2"
   class="st2"
   width="523.20001"
   height="2.5999999"
   id="rect11" />
    <rect
   x="395.39999"
   y="0"
   class="st2"
   width="3.2"
   height="225"
   id="rect13" />
</g>
<g
   id="ICM"
   class="st1"
   transform="translate(-59.891543,-63)">
    <g
   class="st3"
   id="g78">
        <polygon
   class="st4"
   points="208.4,88.1 192,112.1 228.8,112.1 245.2,88.1 231.3,67.8 245.2,47.4 233.9,30.9 252.6,30.9 263.9,47.4 247.5,71.5 295.5,71.5 300.6,64 261.6,64 272.9,47.4 256.6,23.5 256.5,23.4 219.8,23.4 236.2,47.4 222.3,67.8 236.2,88.1 224.9,104.7 206.1,104.7 217.4,88.1 201,64 160.2,64 155.1,71.5 197.1,71.5 "
   id="polygon16" />
        <path
   class="st5"
   d="m 97.8,139.5 c 0,-0.5 0.2,-0.8 0.8,-0.8 h 2.4 c 0.5,0 0.8,0.2 0.8,0.8 v 25.8 c 0,0.5 -0.2,0.8 -0.8,0.8 h -2.4 c -0.5,0 -0.8,-0.2 -0.8,-0.8 z"
   id="path18" />
        <path
   class="st5"
   d="m 121.4,139.5 v 25.8 c 0,0.5 -0.2,0.8 -0.8,0.8 h -1.8 c -0.6,0 -0.8,-0.2 -1.1,-0.8 L 111,149 c -0.1,-0.3 -0.4,-0.2 -0.4,0.1 v 16.2 c 0,0.5 -0.2,0.8 -0.8,0.8 h -2.4 c -0.5,0 -0.8,-0.2 -0.8,-0.8 v -25.8 c 0,-0.5 0.2,-0.8 0.8,-0.8 h 1.8 c 0.6,0 0.8,0.2 1.1,0.8 l 6.7,16.3 c 0.1,0.3 0.4,0.2 0.4,-0.1 v -16.2 c 0,-0.5 0.2,-0.8 0.8,-0.8 h 2.4 c 0.6,0 0.8,0.3 0.8,0.8 z"
   id="path20" />
        <path
   class="st5"
   d="m 141,139.5 v 25.8 c 0,0.5 -0.2,0.8 -0.8,0.8 h -1.8 c -0.6,0 -0.8,-0.2 -1.1,-0.8 L 130.6,149 c -0.1,-0.3 -0.4,-0.2 -0.4,0.1 v 16.2 c 0,0.5 -0.2,0.8 -0.8,0.8 H 127 c -0.5,0 -0.8,-0.2 -0.8,-0.8 v -25.8 c 0,-0.5 0.2,-0.8 0.8,-0.8 h 1.8 c 0.6,0 0.8,0.2 1.1,0.8 l 6.7,16.3 c 0.1,0.3 0.4,0.2 0.4,-0.1 v -16.2 c 0,-0.5 0.2,-0.8 0.8,-0.8 h 2.4 c 0.6,0 0.8,0.3 0.8,0.8 z"
   id="path22" />
        <path
   class="st5"
   d="m 155.5,158.3 v -11.7 c 0,-2.8 -1.1,-4.5 -3.1,-4.5 -1.9,0 -3,1.7 -3,4.5 v 11.7 c 0,2.8 1.1,4.5 3,4.5 2,0 3.1,-1.7 3.1,-4.5 z m -10,0 v -11.7 c 0,-5.1 2.4,-8.2 6.9,-8.2 4.5,0 7,3.1 7,8.2 v 11.7 c 0,5.1 -2.4,8.2 -7,8.2 -4.4,-0.1 -6.9,-3.2 -6.9,-8.2 z"
   id="path24" />
        <path
   class="st5"
   d="m 174.7,138.7 h 2.6 c 0.4,0 0.7,0.2 0.5,0.7 l -6.3,25.9 c -0.1,0.6 -0.4,0.7 -0.9,0.7 h -1.9 c -0.6,0 -0.8,-0.1 -0.9,-0.7 l -6.3,-25.9 c -0.1,-0.5 0.1,-0.7 0.5,-0.7 h 2.6 c 0.5,0 0.8,0.2 0.9,0.7 l 4,18.2 c 0.1,0.3 0.4,0.3 0.4,0 l 4,-18.2 c 0.1,-0.5 0.3,-0.7 0.8,-0.7 z"
   id="path26" />
        <path
   class="st5"
   d="m 183.3,157.1 h 3.7 c 0.2,0 0.3,-0.1 0.3,-0.4 l -1.9,-9.8 c 0,-0.3 -0.4,-0.3 -0.4,0 l -1.9,9.8 c -0.1,0.2 0,0.4 0.2,0.4 z m -0.1,-17.6 c 0.1,-0.6 0.4,-0.7 0.9,-0.7 h 1.9 c 0.6,0 0.8,0.1 1,0.7 l 5.8,25.9 c 0.1,0.5 -0.1,0.7 -0.5,0.7 h -2.5 c -0.5,0 -0.7,-0.2 -0.8,-0.7 l -0.9,-4.3 c -0.1,-0.4 -0.3,-0.5 -0.7,-0.5 H 183 c -0.5,0 -0.6,0.1 -0.7,0.5 l -0.9,4.3 c -0.1,0.5 -0.4,0.7 -0.8,0.7 H 178 c -0.4,0 -0.7,-0.2 -0.5,-0.7 z"
   id="path28" />
        <path
   class="st5"
   d="m 205.4,139.5 v 1.9 c 0,0.5 -0.2,0.8 -0.8,0.8 h -3.2 c -0.5,0 -0.7,0.1 -0.7,0.7 v 22.4 c 0,0.5 -0.2,0.8 -0.8,0.8 h -2.4 c -0.5,0 -0.8,-0.2 -0.8,-0.8 v -22.4 c 0,-0.5 -0.1,-0.7 -0.7,-0.7 h -3 c -0.5,0 -0.8,-0.2 -0.8,-0.8 v -1.9 c 0,-0.5 0.2,-0.8 0.8,-0.8 h 11.6 c 0.6,0 0.8,0.3 0.8,0.8 z"
   id="path30" />
        <path
   class="st5"
   d="m 208.7,139.5 c 0,-0.5 0.2,-0.8 0.8,-0.8 h 2.4 c 0.5,0 0.8,0.2 0.8,0.8 v 25.8 c 0,0.5 -0.2,0.8 -0.8,0.8 h -2.4 c -0.5,0 -0.8,-0.2 -0.8,-0.8 z"
   id="path32" />
        <path
   class="st5"
   d="m 227.2,158.3 v -11.7 c 0,-2.8 -1.1,-4.5 -3.1,-4.5 -1.9,0 -3,1.7 -3,4.5 v 11.7 c 0,2.8 1.1,4.5 3,4.5 2,0 3.1,-1.7 3.1,-4.5 z m -10,0 v -11.7 c 0,-5.1 2.4,-8.2 6.9,-8.2 4.5,0 7,3.1 7,8.2 v 11.7 c 0,5.1 -2.4,8.2 -7,8.2 -4.5,-0.1 -6.9,-3.2 -6.9,-8.2 z"
   id="path34" />
        <path
   class="st5"
   d="m 250.2,139.5 v 25.8 c 0,0.5 -0.2,0.8 -0.8,0.8 h -1.8 c -0.6,0 -0.8,-0.2 -1.1,-0.8 L 239.8,149 c -0.1,-0.3 -0.4,-0.2 -0.4,0.1 v 16.2 c 0,0.5 -0.2,0.8 -0.8,0.8 h -2.4 c -0.5,0 -0.8,-0.2 -0.8,-0.8 v -25.8 c 0,-0.5 0.2,-0.8 0.8,-0.8 h 1.8 c 0.6,0 0.8,0.2 1.1,0.8 l 6.7,16.3 c 0.1,0.3 0.4,0.2 0.4,-0.1 v -16.2 c 0,-0.5 0.2,-0.8 0.8,-0.8 h 2.4 c 0.5,0 0.8,0.3 0.8,0.8 z"
   id="path36" />
        <path
   class="st6"
   d="m 254.7,158.3 v -11.7 c 0,-5.1 2.4,-8.2 6.9,-8.2 4.2,0 6.5,2.8 6.7,6.4 0,0.3 0,0.7 -0.5,0.7 h -2.7 c -0.4,0 -0.6,-0.1 -0.6,-0.5 -0.3,-1.6 -1.2,-2.9 -2.9,-2.9 -1.9,0 -3.1,1.7 -3.1,4.5 v 11.7 c 0,2.8 1.1,4.5 3.1,4.5 1.7,0 2.6,-1.3 2.9,-2.9 0,-0.4 0.2,-0.5 0.6,-0.5 h 2.7 c 0.4,0 0.5,0.3 0.5,0.7 -0.2,3.6 -2.5,6.4 -6.7,6.4 -4.5,-0.1 -6.9,-3.2 -6.9,-8.2 z"
   id="path38" />
        <path
   class="st6"
   d="m 275.9,157.1 h 3.7 c 0.2,0 0.3,-0.1 0.3,-0.4 l -1.9,-9.8 c 0,-0.3 -0.4,-0.3 -0.4,0 l -1.9,9.8 c -0.2,0.2 0,0.4 0.2,0.4 z m -0.1,-17.6 c 0.1,-0.6 0.4,-0.7 0.9,-0.7 h 1.9 c 0.6,0 0.8,0.1 1,0.7 l 5.8,25.9 c 0.1,0.5 -0.1,0.7 -0.5,0.7 h -2.5 c -0.5,0 -0.7,-0.2 -0.8,-0.7 l -0.9,-4.3 c -0.1,-0.4 -0.3,-0.5 -0.7,-0.5 h -4.4 c -0.5,0 -0.6,0.1 -0.7,0.5 l -0.9,4.3 c -0.1,0.5 -0.4,0.7 -0.8,0.7 h -2.5 c -0.4,0 -0.7,-0.2 -0.5,-0.7 z"
   id="path40" />
        <path
   class="st6"
   d="m 288.1,165.3 v -25.8 c 0,-0.5 0.2,-0.8 0.8,-0.8 h 1.7 c 0.5,0 0.7,0.4 0.8,0.8 l 5.5,18.9 c 0.1,0.2 0.4,0.2 0.4,0 l 5.6,-18.9 c 0.1,-0.4 0.3,-0.8 0.8,-0.8 h 1.7 c 0.5,0 0.8,0.2 0.8,0.8 v 25.8 c 0,0.5 -0.2,0.8 -0.8,0.8 H 303 c -0.5,0 -0.8,-0.2 -0.8,-0.8 v -13.1 c 0,-0.3 -0.4,-0.3 -0.4,0 l -3.7,13.1 c -0.1,0.5 -0.4,0.7 -0.9,0.7 H 297 c -0.6,0 -0.8,-0.2 -0.9,-0.7 l -3.7,-13.1 c -0.1,-0.3 -0.4,-0.3 -0.4,0 v 13.1 c 0,0.5 -0.2,0.8 -0.8,0.8 h -2.4 c -0.5,0 -0.7,-0.2 -0.7,-0.8 z"
   id="path42" />
        <path
   class="st6"
   d="m 317.3,152.6 c 1.6,0 3.1,-1.2 3.1,-4 v -2.5 c 0,-2.8 -1.5,-4 -3.1,-4 h -1.6 c -0.5,0 -0.7,0.1 -0.7,0.7 v 9 c 0,0.5 0.1,0.7 0.7,0.7 h 1.6 z m -6.2,12.7 v -25.8 c 0,-0.5 0.2,-0.8 0.8,-0.8 h 5.8 c 3.9,0 6.7,2.8 6.7,7.5 v 2.5 c 0,4.7 -2.8,7.5 -6.7,7.5 h -1.9 c -0.5,0 -0.7,0.1 -0.7,0.7 v 8.4 c 0,0.5 -0.2,0.8 -0.8,0.8 h -2.4 c -0.5,0 -0.8,-0.2 -0.8,-0.8 z"
   id="path44" />
        <path
   class="st6"
   d="m 341,139.5 v 12.7 6 c 0,5.1 -2.4,8.2 -7,8.2 -4.5,0 -6.9,-3.1 -6.9,-8.2 v -8.8 -10 c 0,-0.5 0.2,-0.8 0.8,-0.8 h 2.4 c 0.5,0 0.8,0.2 0.8,0.8 v 12.4 6.3 c 0,2.8 1.1,4.5 3,4.5 1.9,0 3.1,-1.7 3.1,-4.5 v -8.7 -10.1 c 0,-0.5 0.2,-0.8 0.8,-0.8 h 2.4 c 0.4,0.2 0.6,0.5 0.6,1 z"
   id="path46" />
        <path
   class="st6"
   d="m 351.2,166.4 c -4,0 -7,-2.8 -7.1,-6.8 0,-0.4 0,-0.7 0.5,-0.7 h 2.5 c 0.4,0 0.6,0.1 0.6,0.5 0.2,1.7 1.4,3.5 3.5,3.5 1.8,0 3.1,-1.3 3.2,-3.2 0.3,-5.2 -9.9,-8.2 -9.9,-15.1 0,-3.5 2.6,-6.2 6.4,-6.2 4,0 6.3,2.8 6.5,6.2 0,0.4 0,0.7 -0.5,0.7 h -2.5 c -0.4,0 -0.6,-0.1 -0.6,-0.5 -0.3,-1.5 -1.1,-3 -2.7,-3 -1.6,0 -2.7,1.3 -2.6,2.8 0.3,4.2 9.9,7.8 9.9,14.9 -0.1,4.5 -3.8,6.9 -7.2,6.9 z"
   id="path48" />
        <path
   class="st6"
   d="m 105,179.3 v 1.3 c 0,0.4 -0.1,0.5 -0.5,0.5 h -3.6 c -0.4,0 -0.5,0.1 -0.5,0.5 v 4.5 c 0,0.4 0.1,0.5 0.5,0.5 h 2.4 c 0.4,0 0.5,0.1 0.5,0.5 v 1.3 c 0,0.4 -0.1,0.5 -0.5,0.5 h -2.4 c -0.4,0 -0.5,0.1 -0.5,0.5 v 7.2 c 0,0.4 -0.1,0.5 -0.5,0.5 h -1.6 c -0.4,0 -0.5,-0.1 -0.5,-0.5 v -17.2 c 0,-0.4 0.1,-0.5 0.5,-0.5 h 6.1 c 0.4,-0.1 0.6,0 0.6,0.4 z"
   id="path50" />
        <path
   class="st6"
   d="m 115.8,179.3 v 8.5 4 c 0,3.4 -1.6,5.4 -4.6,5.4 -3,0 -4.6,-2.1 -4.6,-5.4 v -5.9 -6.6 c 0,-0.4 0.1,-0.5 0.5,-0.5 h 1.6 c 0.4,0 0.5,0.1 0.5,0.5 v 8.3 4.2 c 0,1.9 0.8,3 2,3 1.3,0 2,-1.1 2,-3 v -5.8 -6.7 c 0,-0.4 0.1,-0.5 0.5,-0.5 h 1.6 c 0.4,0 0.5,0.1 0.5,0.5 z"
   id="path52" />
        <path
   class="st6"
   d="m 126.1,179.3 v 1.3 c 0,0.4 -0.1,0.5 -0.5,0.5 h -2.1 c -0.4,0 -0.5,0.1 -0.5,0.5 v 15 c 0,0.4 -0.1,0.5 -0.5,0.5 H 121 c -0.4,0 -0.5,-0.1 -0.5,-0.5 v -15 c 0,-0.4 -0.1,-0.5 -0.5,-0.5 h -2.1 c -0.4,0 -0.5,-0.1 -0.5,-0.5 v -1.3 c 0,-0.4 0.1,-0.5 0.5,-0.5 h 7.8 c 0.3,0 0.4,0.1 0.4,0.5 z"
   id="path54" />
        <path
   class="st6"
   d="m 136.9,179.3 v 8.5 4 c 0,3.4 -1.6,5.4 -4.6,5.4 -3,0 -4.6,-2.1 -4.6,-5.4 v -5.9 -6.6 c 0,-0.4 0.1,-0.5 0.5,-0.5 h 1.6 c 0.4,0 0.5,0.1 0.5,0.5 v 8.3 4.2 c 0,1.9 0.8,3 2,3 1.3,0 2,-1.1 2,-3 v -5.8 -6.7 c 0,-0.4 0.1,-0.5 0.5,-0.5 h 1.6 c 0.3,0 0.5,0.1 0.5,0.5 z"
   id="path56" />
        <path
   class="st6"
   d="m 142.9,187.7 h 1.1 c 1.1,0 2.1,-0.8 2.1,-2.6 v -1.4 c 0,-1.8 -1,-2.7 -2.1,-2.7 h -1.1 c -0.4,0 -0.5,0.1 -0.5,0.5 v 5.7 c 0,0.4 0.1,0.5 0.5,0.5 z m 6.1,9.3 h -1.8 c -0.3,0 -0.5,-0.1 -0.6,-0.3 l -2.5,-6.5 h -1.2 c -0.4,0 -0.5,0.1 -0.5,0.5 v 5.9 c 0,0.4 -0.1,0.5 -0.5,0.5 h -1.6 c -0.4,0 -0.5,-0.1 -0.5,-0.5 v -17.2 c 0,-0.4 0.1,-0.5 0.5,-0.5 h 3.8 c 2.6,0 4.4,1.9 4.4,5 v 1.3 c 0,2.1 -0.8,3.6 -2.1,4.4 l 2.8,7 c 0.2,0.2 0.1,0.4 -0.2,0.4 z"
   id="path58" />
        <path
   class="st6"
   d="m 154,186 c 0,0.4 0.1,0.5 0.5,0.5 h 3.5 c 0.4,0 0.5,0.1 0.5,0.5 v 1.3 c 0,0.4 -0.1,0.5 -0.5,0.5 h -3.5 c -0.4,0 -0.5,0.1 -0.5,0.5 v 5 c 0,0.4 0.1,0.5 0.5,0.5 h 3.5 c 0.4,0 0.5,0.1 0.5,0.5 v 1.3 c 0,0.4 -0.1,0.5 -0.5,0.5 h -6 c -0.4,0 -0.5,-0.1 -0.5,-0.5 v -17.2 c 0,-0.4 0.1,-0.5 0.5,-0.5 h 6.1 c 0.4,0 0.5,0.1 0.5,0.5 v 1.3 c 0,0.4 -0.1,0.5 -0.5,0.5 h -3.5 c -0.4,0 -0.5,0.1 -0.5,0.5 v 4.3 z"
   id="path60" />
        <path
   class="st6"
   d="m 166.4,196.5 v -17.2 c 0,-0.4 0.1,-0.5 0.5,-0.5 h 1.1 c 0.4,0 0.5,0.2 0.6,0.5 l 3.7,12.6 c 0,0.1 0.2,0.1 0.3,0 l 3.7,-12.6 c 0.1,-0.3 0.2,-0.5 0.6,-0.5 h 1.1 c 0.4,0 0.5,0.1 0.5,0.5 v 17.2 c 0,0.4 -0.1,0.5 -0.5,0.5 h -1.6 c -0.4,0 -0.5,-0.1 -0.5,-0.5 v -8.7 c 0,-0.2 -0.2,-0.2 -0.3,0 l -2.5,8.8 c -0.1,0.4 -0.2,0.5 -0.6,0.5 h -0.1 c -0.4,0 -0.5,-0.1 -0.6,-0.5 l -2.5,-8.8 c 0,-0.2 -0.3,-0.2 -0.3,0 v 8.7 c 0,0.4 -0.1,0.5 -0.5,0.5 h -1.6 c -0.4,0 -0.5,-0.2 -0.5,-0.5 z"
   id="path62" />
        <path
   class="st6"
   d="M 187.9,191.8 V 184 c 0,-1.9 -0.8,-3 -2,-3 -1.3,0 -2,1.1 -2,3 v 7.8 c 0,1.9 0.8,3 2,3 1.3,0 2,-1.1 2,-3 z m -6.6,0 V 184 c 0,-3.4 1.6,-5.4 4.6,-5.4 3,0 4.6,2.1 4.6,5.4 v 7.8 c 0,3.4 -1.6,5.4 -4.6,5.4 -3,0 -4.6,-2.1 -4.6,-5.4 z"
   id="path64" />
        <path
   class="st6"
   d="m 197.6,194.7 c 1.3,0 2.3,-0.8 2.3,-2.7 v -0.8 c 0,-1.8 -0.9,-2.7 -2.3,-2.7 h -1.2 c -0.4,0 -0.5,0.1 -0.5,0.5 v 5.1 c 0,0.4 0.1,0.5 0.5,0.5 h 1.2 z m -0.1,-8.4 c 1.2,0 2.1,-0.8 2.1,-2.4 v -0.5 c 0,-1.6 -0.9,-2.4 -2.1,-2.4 h -1.1 c -0.4,0 -0.5,0.1 -0.5,0.5 v 4.3 c 0,0.4 0.1,0.5 0.5,0.5 z m -4.1,10.2 v -17.2 c 0,-0.4 0.1,-0.5 0.5,-0.5 h 3.9 c 2.7,0 4.4,1.8 4.4,4.6 v 0.4 c 0,2 -1.1,3.2 -1.8,3.7 1.4,0.6 2.2,2.2 2.2,4.2 v 0.6 c 0,2.9 -1.7,4.7 -4.5,4.7 H 194 c -0.5,0 -0.6,-0.2 -0.6,-0.5 z"
   id="path66" />
        <path
   class="st6"
   d="m 205.1,179.3 c 0,-0.4 0.1,-0.5 0.5,-0.5 h 1.6 c 0.4,0 0.5,0.1 0.5,0.5 v 17.2 c 0,0.4 -0.1,0.5 -0.5,0.5 h -1.6 c -0.4,0 -0.5,-0.1 -0.5,-0.5 z"
   id="path68" />
        <path
   class="st6"
   d="m 218,195.2 v 1.3 c 0,0.4 -0.1,0.5 -0.5,0.5 h -6 c -0.4,0 -0.5,-0.1 -0.5,-0.5 v -17.2 c 0,-0.4 0.1,-0.5 0.5,-0.5 h 1.6 c 0.4,0 0.5,0.1 0.5,0.5 v 15 c 0,0.4 0.1,0.5 0.5,0.5 h 3.4 c 0.3,-0.1 0.5,0 0.5,0.4 z"
   id="path70" />
        <path
   class="st6"
   d="m 219.7,179.3 c 0,-0.4 0.1,-0.5 0.5,-0.5 h 1.6 c 0.4,0 0.5,0.1 0.5,0.5 v 17.2 c 0,0.4 -0.1,0.5 -0.5,0.5 h -1.6 c -0.4,0 -0.5,-0.1 -0.5,-0.5 z"
   id="path72" />
        <path
   class="st6"
   d="m 232.8,179.3 v 1.3 c 0,0.4 -0.1,0.5 -0.5,0.5 h -2.1 c -0.4,0 -0.5,0.1 -0.5,0.5 v 15 c 0,0.4 -0.1,0.5 -0.5,0.5 h -1.6 c -0.4,0 -0.5,-0.1 -0.5,-0.5 v -15 c 0,-0.4 -0.1,-0.5 -0.5,-0.5 h -2.1 c -0.4,0 -0.5,-0.1 -0.5,-0.5 v -1.3 c 0,-0.4 0.1,-0.5 0.5,-0.5 h 7.8 c 0.4,0 0.5,0.1 0.5,0.5 z"
   id="path74" />
        <path
   class="st6"
   d="m 243.6,179.2 -3.5,10.1 v 7.2 c 0,0.4 -0.1,0.5 -0.5,0.5 H 238 c -0.4,0 -0.5,-0.1 -0.5,-0.5 v -7.2 L 234,179.2 c -0.1,-0.3 0,-0.5 0.3,-0.5 h 1.7 c 0.3,0 0.5,0.1 0.6,0.5 l 2,6.4 c 0,0.1 0.2,0.1 0.3,0 l 2,-6.4 c 0.1,-0.4 0.3,-0.5 0.6,-0.5 h 1.7 c 0.3,0.1 0.5,0.2 0.4,0.5 z"
   id="path76" />
    </g>
</g>
<g
   id="Ministerium"
   class="st1"
   transform="translate(-59.891543,-63)">
    <g
   class="st3"
   id="g211">
        <polygon
   class="st7"
   points="79.7,178.9 79.7,169.7 76.4,178.9 75.1,178.9 71.8,169.7 71.8,178.9 70.4,178.9 70.4,168.6 72.9,168.6 75.9,177.1 78.8,168.6 81.2,168.6 81.2,178.9 "
   id="polygon81" />
        <polygon
   class="st7"
   points="85.2,178.9 83.8,178.9 83.8,168.6 85.2,168.6 "
   id="polygon83" />
        <polygon
   class="st7"
   points="89.2,170.2 89.2,178.9 88,178.9 88,168.6 89.9,168.6 94.9,177.1 94.9,168.6 96.2,168.6 96.2,178.9 94.4,178.9 "
   id="polygon85" />
        <polygon
   class="st7"
   points="100.3,178.9 98.9,178.9 98.9,168.6 100.3,168.6 "
   id="polygon87" />
        <path
   class="st7"
   d="m 103.9,175.9 c 0,1.4 0.9,2 2.2,2 1.2,0 2.6,-0.3 2.6,-1.8 0,-1 -0.8,-1.4 -1.7,-1.6 -1.7,-0.4 -4.5,-0.8 -4.5,-3 0,-2.2 2,-3 3.9,-3 1.7,0 3.5,0.8 3.5,2.8 h -1.5 c -0.1,-1.1 -1,-1.5 -2,-1.5 -1,0 -2.4,0.4 -2.4,1.6 0,1.2 0.8,1.2 1.7,1.5 1.9,0.6 4.4,0.6 4.4,3.2 0,2.3 -2.1,3.1 -4.1,3.1 -2.1,0 -3.7,-0.9 -3.6,-3.2 h 1.5 z"
   id="path89" />
        <polygon
   class="st7"
   points="114.8,178.9 114.8,169.9 111.4,169.9 111.4,168.6 119.6,168.6 119.6,169.9 116.2,169.9 116.2,178.9 "
   id="polygon91" />
        <path
   class="st7"
   d="m 122.5,173 h 2.3 c 1.6,-0.1 1.9,-0.8 1.9,-1.6 0,-0.8 -0.4,-1.5 -1.9,-1.6 h -2.3 z m 0,1.2 v 4.6 h -1.4 v -10.2 h 3.7 c 1.7,0 3.5,0.5 3.5,2.6 0,1.2 -0.7,2.2 -1.9,2.5 v 0 c 1.2,0.3 1.4,0.9 1.6,2.1 0.2,1 0.3,2.1 0.6,3.1 H 127 c -0.1,-0.6 -0.3,-1.3 -0.4,-1.9 -0.1,-0.9 -0.1,-1.8 -0.6,-2.3 -0.4,-0.5 -1,-0.4 -1.5,-0.5 z"
   id="path93" />
        <polygon
   class="st7"
   points="133.2,175.2 129.2,168.6 130.8,168.6 133.9,173.6 137,168.6 138.6,168.6 134.6,175.2 134.6,178.9 133.2,178.9 "
   id="polygon95" />
        <path
   class="st7"
   d="m 148.2,177.9 c 2.6,0 3.2,-2 3.2,-4.1 0,-2.2 -0.6,-4.1 -3.2,-4.1 -2.6,0 -3.2,1.9 -3.2,4.1 0,2.1 0.6,4.1 3.2,4.1 z m 0,-9.5 c 3.2,0 4.7,2.3 4.7,5.3 0,3 -1.5,5.3 -4.7,5.3 -3.2,0 -4.7,-2.3 -4.7,-5.3 0,-2.9 1.5,-5.3 4.7,-5.3 z"
   id="path97" />
        <polygon
   class="st7"
   points="156.3,173.1 160.7,173.1 160.7,174.3 156.3,174.3 156.3,178.9 154.9,178.9 154.9,168.6 160.9,168.6 160.9,169.9 156.3,169.9 "
   id="polygon99" />
        <path
   class="st7"
   d="m 168,175.9 c 0,1.4 0.9,2 2.2,2 1.2,0 2.6,-0.3 2.6,-1.8 0,-1 -0.8,-1.4 -1.7,-1.6 -1.7,-0.4 -4.5,-0.8 -4.5,-3 0,-2.2 2,-3 3.9,-3 1.7,0 3.5,0.8 3.5,2.8 h -1.5 c -0.1,-1.1 -1,-1.5 -2,-1.5 -1,0 -2.4,0.4 -2.4,1.6 0,1.2 0.8,1.2 1.7,1.5 1.9,0.6 4.4,0.6 4.4,3.2 0,2.3 -2.1,3.1 -4.1,3.1 -2.1,0 -3.7,-0.9 -3.6,-3.2 h 1.5 z"
   id="path101" />
        <path
   class="st7"
   d="m 182.7,171.3 c -0.1,-1 -1.1,-1.6 -2.2,-1.6 -2.5,0 -3,2.3 -3,4.1 0,2.1 0.6,4.1 2.9,4.1 1.1,0 2.1,-0.5 2.3,-1.6 h 1.5 c -0.1,1.7 -1.9,2.8 -3.9,2.8 -3,0 -4.2,-2.5 -4.2,-5.3 0,-2.5 1.1,-5.4 4.5,-5.3 2,0.1 3.4,1 3.6,2.8 z"
   id="path103" />
        <polygon
   class="st7"
   points="187.4,178.9 186,178.9 186,168.6 187.4,168.6 "
   id="polygon105" />
        <polygon
   class="st7"
   points="196.2,169.9 191.3,169.9 191.3,173 196,173 196,174.3 191.3,174.3 191.3,177.6 196.4,177.6 196.4,178.9 189.8,178.9 189.8,168.6 196.2,168.6 "
   id="polygon107" />
        <polygon
   class="st7"
   points="200.2,170.2 200.2,178.9 198.9,178.9 198.9,168.6 200.8,168.6 205.8,177.1 205.8,168.6 207.1,168.6 207.1,178.9 205.4,178.9 "
   id="polygon109" />
        <path
   class="st7"
   d="m 216,171.3 c -0.1,-1 -1.1,-1.6 -2.2,-1.6 -2.5,0 -3,2.3 -3,4.1 0,2.1 0.6,4.1 2.9,4.1 1.1,0 2.1,-0.5 2.2,-1.6 h 1.5 c -0.1,1.7 -1.9,2.8 -3.9,2.8 -3,0 -4.2,-2.5 -4.2,-5.3 0,-2.5 1.1,-5.4 4.5,-5.3 2,0.1 3.4,1 3.6,2.8 z"
   id="path111" />
        <polygon
   class="st7"
   points="225.6,169.9 220.6,169.9 220.6,173 225.3,173 225.3,174.3 220.6,174.3 220.6,177.6 225.7,177.6 225.7,178.9 219.2,178.9 219.2,168.6 225.6,168.6 "
   id="polygon113" />
        <polygon
   class="st7"
   points="227.5,180.6 228.4,177.2 230.1,177.2 228.5,180.6 "
   id="polygon115" />
        <path
   class="st7"
   d="m 237.5,173 h 2.3 c 1.6,-0.1 1.9,-0.8 1.9,-1.6 0,-0.8 -0.4,-1.5 -1.9,-1.6 h -2.3 z m 0,1.2 v 4.6 h -1.4 v -10.2 h 3.6 c 1.7,0 3.5,0.5 3.5,2.6 0,1.2 -0.7,2.2 -1.9,2.5 v 0 c 1.2,0.3 1.4,0.9 1.6,2.1 0.2,1 0.3,2.1 0.6,3.1 H 242 c -0.1,-0.6 -0.3,-1.3 -0.4,-1.9 -0.1,-0.9 -0.1,-1.8 -0.6,-2.3 -0.4,-0.5 -1,-0.4 -1.5,-0.5 z"
   id="path117" />
        <polygon
   class="st7"
   points="251.8,169.9 246.8,169.9 246.8,173 251.6,173 251.6,174.3 246.8,174.3 246.8,177.6 252,177.6 252,178.9 245.4,178.9 245.4,168.6 251.8,168.6 "
   id="polygon119" />
        <path
   class="st7"
   d="m 255.4,175.9 c 0,1.4 0.9,2 2.2,2 1.2,0 2.6,-0.3 2.6,-1.8 0,-1 -0.8,-1.4 -1.7,-1.6 -1.7,-0.4 -4.5,-0.8 -4.5,-3 0,-2.2 2,-3 3.9,-3 1.7,0 3.5,0.8 3.5,2.8 h -1.5 c -0.1,-1.1 -1,-1.5 -2,-1.5 -1,0 -2.4,0.4 -2.4,1.6 0,1.2 0.8,1.2 1.7,1.5 1.9,0.6 4.4,0.6 4.4,3.2 0,2.3 -2.1,3.1 -4.1,3.1 -2.1,0 -3.7,-0.9 -3.6,-3.2 h 1.5 z"
   id="path121" />
        <polygon
   class="st7"
   points="270.1,169.9 265.1,169.9 265.1,173 269.8,173 269.8,174.3 265.1,174.3 265.1,177.6 270.2,177.6 270.2,178.9 263.7,178.9 263.7,168.6 270.1,168.6 "
   id="polygon123" />
        <path
   class="st7"
   d="m 274.5,175 h 3.8 l -1.9,-4.9 z m -3,3.9 4.3,-10.2 h 1.5 l 4.1,10.2 h -1.5 l -1.1,-2.7 H 274 l -1.1,2.7 z"
   id="path125" />
        <path
   class="st7"
   d="m 284.2,173 h 2.3 c 1.6,-0.1 1.9,-0.8 1.9,-1.6 0,-0.8 -0.4,-1.5 -1.9,-1.6 h -2.3 z m 0.1,1.2 v 4.6 h -1.4 v -10.2 h 3.6 c 1.7,0 3.5,0.5 3.5,2.6 0,1.2 -0.7,2.2 -1.9,2.5 v 0 c 1.2,0.3 1.4,0.9 1.6,2.1 0.2,1 0.3,2.1 0.6,3.1 h -1.5 c -0.1,-0.6 -0.3,-1.3 -0.4,-1.9 -0.1,-0.9 -0.1,-1.8 -0.6,-2.3 -0.4,-0.5 -1,-0.4 -1.5,-0.5 z"
   id="path127" />
        <path
   class="st7"
   d="m 298.6,171.3 c -0.1,-1 -1.1,-1.6 -2.2,-1.6 -2.5,0 -3,2.3 -3,4.1 0,2.1 0.6,4.1 2.9,4.1 1.1,0 2.1,-0.5 2.2,-1.6 h 1.5 c -0.1,1.7 -1.9,2.8 -3.9,2.8 -3,0 -4.2,-2.5 -4.2,-5.3 0,-2.5 1.1,-5.4 4.5,-5.3 2,0.1 3.4,1 3.6,2.8 z"
   id="path129" />
        <polygon
   class="st7"
   points="303.3,173 308.2,173 308.2,168.6 309.6,168.6 309.6,178.9 308.2,178.9 308.2,174.2 303.3,174.2 303.3,178.9 301.9,178.9 301.9,168.6 303.3,168.6 "
   id="polygon131" />
        <path
   class="st7"
   d="m 318.1,175 h 3.8 l -1.9,-4.9 z m -3,3.9 4.3,-10.2 h 1.5 l 4.1,10.2 h -1.5 l -1.1,-2.7 h -4.7 l -1.1,2.7 z"
   id="path133" />
        <polygon
   class="st7"
   points="327.9,170.2 327.9,178.9 326.7,178.9 326.7,168.6 328.6,168.6 333.6,177.1 333.6,168.6 334.9,168.6 334.9,178.9 333.1,178.9 "
   id="polygon135" />
        <path
   class="st7"
   d="m 339,177.6 h 2.1 c 1.4,0 2.2,-0.6 2.6,-1.2 0.6,-0.9 0.8,-1.8 0.8,-2.7 0,-0.9 -0.2,-1.9 -0.8,-2.7 -0.4,-0.6 -1.2,-1.2 -2.6,-1.2 H 339 Z m -1.4,-9 h 3.4 c 0.9,0 2,0.1 2.8,0.6 1.5,0.9 2.2,2.5 2.2,4.5 0,1.9 -0.7,3.5 -2.2,4.5 -0.8,0.5 -1.8,0.6 -2.8,0.6 h -3.4 z"
   id="path137" />
        <path
   class="st7"
   d="m 353.8,175 h 3.8 l -1.9,-4.9 z m -3,3.9 4.3,-10.2 h 1.5 l 4.1,10.2 h -1.5 l -1.1,-2.7 h -4.7 l -1.1,2.7 z"
   id="path139" />
        <path
   class="st7"
   d="m 363.5,173 h 2.3 c 1.6,-0.1 1.9,-0.8 1.9,-1.6 0,-0.8 -0.4,-1.5 -1.9,-1.6 h -2.3 z m 0.1,1.2 v 4.6 h -1.4 v -10.2 h 3.6 c 1.7,0 3.5,0.5 3.5,2.6 0,1.2 -0.7,2.2 -1.9,2.5 v 0 c 1.2,0.3 1.4,0.9 1.6,2.1 0.2,1 0.3,2.1 0.6,3.1 H 368 c -0.1,-0.6 -0.3,-1.3 -0.4,-1.9 -0.1,-0.9 -0.1,-1.8 -0.6,-2.3 -0.4,-0.5 -1,-0.4 -1.5,-0.5 z"
   id="path141" />
        <polygon
   class="st7"
   points="373.7,178.9 373.7,169.9 370.2,169.9 370.2,168.6 378.5,168.6 378.5,169.9 375.1,169.9 375.1,178.9 "
   id="polygon143" />
        <path
   class="st7"
   d="m 381,175.9 c 0,1.4 0.9,2 2.2,2 1.2,0 2.6,-0.3 2.6,-1.8 0,-1 -0.8,-1.4 -1.7,-1.6 -1.7,-0.4 -4.5,-0.8 -4.5,-3 0,-2.2 2,-3 3.9,-3 1.7,0 3.5,0.8 3.5,2.8 h -1.5 c -0.1,-1.1 -1,-1.5 -2,-1.5 -1,0 -2.4,0.4 -2.4,1.6 0,1.2 0.8,1.2 1.7,1.5 1.9,0.6 4.4,0.6 4.4,3.2 0,2.3 -2.1,3.1 -4.1,3.1 -2.1,0 -3.7,-0.9 -3.6,-3.2 h 1.5 z"
   id="path145" />
        <g
   id="g163">
            <defs
   id="defs148">
                <rect
   id="SVGID_1_"
   x="165.39999"
   y="39.099998"
   width="126.6"
   height="70" />
            </defs>
            <defs
   id="defs151">
                <path
   id="SVGID_00000153678351237536716490000000879356237072954772_"
   d="m 252.2,52.6 c 0,0 0.1,0 0,0 0,0.1 0,0 0,0 m -79,-6.7 c -0.1,-0.1 -0.2,-0.2 -0.2,-0.2 0,0 0.1,0.1 0.2,0.2 m 109,54.3 c -0.9,-0.1 -0.9,0.5 -0.9,0.5 l 1.5,0.1 c -0.1,-0.6 -0.6,-0.6 -0.6,-0.6 M 279,94.1 c -0.8,-2.4 -4.2,-4.4 -4.9,-4.8 -0.7,-0.4 -1.1,0 -1.1,0 0,0 -2.2,1.7 -2.5,2 -0.3,0.3 -0.2,0.4 -0.1,0.9 0.1,0.4 0.1,0.5 0.1,0.5 0,0 -1.5,1.1 -1.9,1.7 -0.4,0.6 -0.5,2.2 -0.1,3.4 0.4,1.1 1.6,1.8 3.1,1.4 1.5,-0.4 1.1,-1.5 1.1,-1.5 -0.1,-0.7 -0.1,-1.2 0.1,-1.5 0.2,-0.3 0.6,-0.7 0.9,-0.9 0.3,-0.2 0.6,-0.5 0.6,-0.5 1.1,-0.8 1.9,-0.6 1.9,-0.6 0,0 -0.3,0.2 -0.6,0.9 -0.2,0.6 -0.2,1.1 -0.6,2.7 -0.4,1.7 -2.6,2.7 -2.6,2.7 v 0.3 l 1.9,0.1 c 0,0 0.2,-1.2 0.7,-1.8 0.4,-0.6 1.1,-0.8 1.7,-0.8 0.5,0 0.8,0.2 0.8,0.2 0.6,-0.1 1.7,0.1 1.7,0.1 0.7,-1.3 -0.2,-4.5 -0.2,-4.5 m -1.4,-11.7 c 0.5,-2.1 -0.7,-3.6 -1.5,-4.4 -0.9,-0.9 -1.7,-0.6 -1.7,-0.6 0,0 0,0.2 0,0.5 0,0.3 0.4,0.9 0.4,1.3 0,0.4 -0.5,1.1 -0.7,2.2 -0.2,1.2 0.7,3.3 0.9,3.6 0.1,0.3 0.1,0.5 0.4,0.5 0.2,-0.1 0.8,-0.5 0.8,-0.5 0.9,-0.9 1.4,-2.6 1.4,-2.6 m -6.1,5.4 c -0.4,-0.5 -1.4,-0.9 -1.4,-0.9 0,0 -0.1,0.4 -0.3,0.9 -0.1,0.5 -0.2,1.5 -0.2,1.5 0,0 1.4,-0.7 1.7,-0.9 0.4,-0.1 0.6,-0.1 0.2,-0.6 m -5,8.5 h -0.4 l -2.2,2 0.1,0.5 c 1.2,0.4 0.9,2 0.9,2 h 4.2 l 0.2,-0.2 c -2.8,-1.3 -2.8,-4.3 -2.8,-4.3 m -0.6,-8.8 c -0.4,-1.4 -1,-2.7 -1.1,-4.9 -0.1,-2.2 0,-2.9 -0.2,-3.7 -0.2,-0.7 -0.9,-0.9 -0.9,-0.9 0,0 -2.4,-1 -3.9,-1.3 -1.5,-0.3 -1.8,-0.3 -2.5,-0.8 -0.7,-0.5 -1.4,-1.1 -1.7,-1.1 -0.3,0 -0.5,0.1 -0.8,0.3 -0.3,0.1 -1.8,1.4 -2.2,1.9 -0.5,0.5 -2.4,2.2 -2.9,3 -0.5,0.8 -0.7,1.1 -0.4,2 0.3,0.9 0.2,2.3 -0.9,2.9 -1,0.6 -2.4,0.1 -2.4,0.1 0,0 -1,6 -5.3,10.1 0,0 -2.3,3.2 -8.8,5.3 v 0.5 l 22,-0.1 c 0,0 0.1,-1.9 1.1,-2.4 1,-0.6 1.7,-0.4 1.7,-0.4 0,0 1,-0.5 1.6,-0.3 0.6,0.2 1.3,0.4 1.3,0.4 0,0 5.2,-3.2 5.9,-4.7 1,-1.6 0.9,-4.5 0.4,-5.9 M 251,69.2 c 0,0 -1,-1.4 -0.8,-3.1 0,0 -0.3,0 -0.3,-1.4 0,-1.4 -0.1,-2.9 -0.3,-3.7 -0.2,-0.9 -0.7,-2.3 -0.9,-2.6 0,0 -0.5,0.2 -0.9,0.2 l -0.5,9.9 -0.3,6.5 c 0,0 1.4,0.1 1.8,0.9 0.3,0.8 0.3,1.2 0.3,1.2 0,0 0.3,0.2 0.5,-0.2 0.2,-0.4 2.3,-3 2.5,-5.2 -0.1,-0.3 -0.9,-1.5 -1.1,-2.5 m -2.1,-18 c -0.2,-1 -0.5,-1.1 -0.8,-1.1 l -0.1,2 c 0,0 1.1,0.1 0.9,-0.9 m -1,2.6 c 0,0 0.9,0.3 0.7,-0.5 -0.2,-0.8 -0.6,-0.7 -0.6,-0.7 l -0.1,1.2 m -0.1,4.4 c 0.8,-0.2 0.8,-0.9 0.8,-1.5 -0.1,-0.6 -0.7,-0.3 -0.7,-0.3 l -0.1,1.8 m -1,19.7 c 0,0 1.6,-0.1 1.4,-1.2 -0.1,-1 0,-1.3 -0.4,-1.4 C 247.4,75.2 247,75 247,75 l -0.2,2.9 m 0.8,4.2 c 0.7,-0.4 0.5,-1.3 0.5,-1.3 -0.3,-1 -1.3,-0.8 -1.3,-0.8 l -0.2,2.3 c 0,-0.1 0.3,0.2 1,-0.2 m -1.4,2.6 c 0,0 0.2,0.3 1.4,-0.1 1.2,-0.4 0.8,-2 0.8,-2 0,0 -0.1,0 -0.5,0 -0.3,0.1 -1.3,-0.1 -1.3,-0.1 l -0.4,2.2 m 8.4,16 h 1.1 v -1.2 c -1.3,-0.1 -1.1,1.2 -1.1,1.2 m 2.6,0 v -1.6 c 0,0 0.2,-0.2 -0.6,0 -0.8,0.2 -0.8,1.5 -0.8,1.5 l 1.4,0.1 m 0.2,0 h 2.3 v -0.6 c -0.3,-1 -1.3,-0.7 -1.3,-0.7 -1.2,0.1 -1,1.3 -1,1.3 m 6.9,0.1 c -0.1,-0.4 -0.1,-0.8 -1.2,-0.9 -1.1,-0.1 -1,0.8 -1,0.8 l 2.2,0.1 m 11.3,0 0.1,-1.2 c -1.1,0 -1.3,1.2 -1.3,1.2 h 1.2 m 2.6,0 c 0,0 -0.1,-0.8 -1.3,-0.9 -1.2,-0.2 -1.2,0.9 -1.2,0.9 h 2.5 m -63.4,-7.9 c 0,0 -1.9,-3.2 -2.8,-6.1 0,0 -2,-1.5 -2.1,-1.9 0,-0.4 0,-1.1 0,-1.1 0,0 -0.4,-0.7 -0.4,-1.1 0,-0.5 0.4,-3.9 -0.4,-5.1 -0.7,-1.2 -1.7,-2.1 -3.3,-2.7 -1.6,-0.7 -2.1,-0.9 -2.1,-0.9 0,0 -0.5,-0.3 -1,-0.1 -0.5,0.2 -0.6,0.6 -1.1,1 0,0 -2.2,2 -4,2.9 -1.8,0.9 -3.5,1.4 -4.4,1.8 0,0 -1.6,5.5 -2.4,8.2 0,0 -1.1,2.5 -1,3.8 0,0 -0.1,0.8 1.6,1.6 1.8,0.7 1.3,0.7 4.3,1.4 3,0.7 3.3,1.4 3.3,1.4 0,0 0.7,0.5 1,1.4 0.4,0.9 0.8,1.6 1,2 0.3,0.4 1.2,1.6 1.2,1.6 l 23,-0.1 c 0.1,-0.2 -7.1,-2.9 -10.4,-8 m -5.6,-38.5 c 0,0 -0.8,0.1 -1.5,1.7 -0.7,1.5 -0.3,4 -0.3,4 l 0.8,6.2 -0.9,0.6 c 0,0 -0.1,0.2 -0.2,0.7 -0.1,0.5 -0.8,2.1 -1.1,2.7 -0.3,0.6 0,0.8 0.3,1.1 0.3,0.4 2,2.2 2.8,2.7 0.7,0.5 1.4,1.1 1.4,1.1 l -1.3,-20.8 m -23,37.9 c 0.4,-1.1 1,-2.7 0.8,-3.8 -0.2,-1.1 -0.3,-1.5 -0.3,-1.5 0,0 -1.9,1.1 -2.9,1.6 -1,0.5 -0.9,0.7 -2.1,1.2 -1.1,0.4 -2.7,1 -2.7,1 0,0 -0.8,0.6 -1.3,1.1 0,0 -0.5,1.8 -0.5,3.2 0,1.4 0,1.4 0.5,2.3 0.5,0.9 0.2,0.8 1,1.4 0.8,0.6 1,0.6 1.3,1.1 0.4,0.5 0.6,0.9 0.6,0.9 h 19.3 l -0.1,-0.5 c 0,0 -0.6,-0.3 -0.8,-0.6 -0.2,-0.3 -0.3,-1.2 -0.8,-1.6 -0.5,-0.4 -0.5,-0.1 -0.9,-0.6 -0.4,-0.5 -0.2,-0.8 -0.8,-0.9 -0.5,-0.1 -10.4,-3 -10.4,-3 0,0 -0.3,-0.2 0.1,-1.3 m 2.1,-43.9 c 0,0 -0.3,0.8 0,1.1 0.3,0.2 0.7,0.1 1.6,-0.2 0.8,-0.3 0.9,-0.6 0.9,-0.6 l -2.5,-0.3 m -6.1,0.1 c 0,0 -0.1,1 0.3,1.3 0.5,0.3 2.5,0.3 3.4,0.1 0.8,-0.2 0.9,-1.3 0.9,-1.3 l 0.1,-0.1 h -4.7 m -1.4,-0.1 -3.9,-0.6 c 0,0 0,0.6 0,0.8 0,0.1 0.5,0.5 1.3,0.8 0.8,0.2 2,0.4 2.5,0.1 0.5,-0.4 0.1,-1.1 0.1,-1.1 m 104.6,56.2 h -12.8 -35.8 l -25.9,-0.1 h -38.2 l 0.1,-3.8 5.3,-0.1 c 0,0 -0.2,-0.6 -0.6,-1 -0.4,-0.4 -1.6,-1.3 -1.6,-1.3 -0.7,-0.8 -0.3,-3 -0.3,-3 V 89 c 0,-0.4 0.3,-0.4 1.2,-0.7 0.9,-0.4 1.9,-0.5 3.5,-1.6 1.6,-1.1 1.9,-3.1 1.9,-3.1 0,-0.6 -0.7,-1.1 -0.7,-1.1 -1.9,-1.2 -1.4,-2.9 -1.4,-2.9 0,0 -0.7,0.2 -1.3,0.3 -0.6,0.1 -1.2,0.6 -1.2,0.6 0,0 -0.2,0 0.1,-1.1 0.3,-1.1 0.8,-1.6 1.9,-2 1.1,-0.4 1.5,-0.6 2.2,-1.1 0.7,-0.5 1.9,-2.6 1.9,-2.6 0.6,-0.9 2.4,-1.6 2.4,-1.6 1.8,-0.6 2.6,-1.1 4.8,-2.6 2.1,-1.6 3.3,-4.1 3.3,-4.1 0.9,-1.1 1,-2.2 1.1,-2.6 0.1,-0.4 -0.4,-1.8 -0.5,-2.7 -0.1,-0.9 -0.3,-1.1 -0.8,-2 -0.5,-0.8 -1.4,-3 -1.5,-3.5 -0.1,-0.5 -0.6,-1.1 -0.6,-1.1 0,0 -1.1,0.4 -1.5,0.5 -0.4,0.1 -0.9,0.2 -0.6,0 0.3,-0.3 0.5,-1.1 0.5,-1.1 0.3,-0.7 1.5,-2.1 2,-2.6 0.5,-0.5 0,-0.5 0,-0.5 -0.6,0.1 -2.7,0.6 -2.7,0.6 -4.7,0.9 -7.9,0.6 -7.9,0.6 -8.4,-0.5 -10.1,-4.3 -10.1,-4.3 1.9,1.5 3.7,1.4 3.7,1.4 v -1.2 c -0.6,-0.2 -1.6,-0.9 -2,-1.3 0.1,0.1 0.3,0.2 0.6,0.2 0.6,0.1 1.1,0.2 1.1,0.2 0,-0.2 -0.4,-1.7 -0.4,-1.7 0.5,0.3 1.6,1.9 1.6,1.9 0,0 0.7,0.2 0.9,0 0.1,-0.2 -0.2,-2.4 -0.2,-2.4 0.6,0.5 1.9,2.7 1.9,2.7 l 1.9,0.3 -0.2,-1.7 1.1,1.7 c 0,0 1,0.1 1.3,-0.1 0.3,-0.2 -0.6,-2.7 -0.6,-2.7 0.8,0.6 1.8,2.7 2.1,2.9 0.4,0.2 2.6,0 2.6,0 l -0.1,-2.8 c 0.3,0.5 1.1,2.6 1.1,2.6 0,0 0.2,0.4 0.6,0 0.4,-0.4 0.1,-3.6 0.1,-3.6 0.5,0.6 1.2,3.5 1.4,3.8 0.2,0.3 2,0.1 2,0.1 1.1,-1.3 1.5,-4.5 1.5,-4.5 0.4,1.1 0,3.9 0.1,3.9 0.1,0 0.3,0 1,-1 0.7,-1 0.9,-2.6 0.9,-2.6 0,0 0.1,0.7 0.2,1.4 0,0.6 -0.3,1.9 -0.5,2.4 -0.3,0.5 -0.4,1.1 -0.4,1.1 0,0 0.6,-0.2 1.4,-0.2 0.8,0 3.9,0.4 4.9,0.3 1,-0.1 1.9,-0.3 3,-0.3 1.1,0 0.5,1.5 0.2,1.7 -0.3,0.2 -0.9,0.3 -0.9,0.9 -0.1,0.6 0.7,0.5 1,0.5 0.3,0 0.4,0.4 -0.3,0.8 -0.7,0.4 -1.6,-0.1 -1.6,-0.1 0,0 -0.3,0 -0.9,0.3 -0.6,0.3 -1.1,0.8 -1.8,1.5 -0.7,0.6 -0.5,0.9 -0.2,1.1 0.3,0.3 1.6,0.9 2.6,1.1 0.9,0.2 2.9,2.8 2.9,2.8 0,0 0,-0.7 0.1,-1.3 0,-0.5 0,-1 0.6,-1.5 0.6,-0.5 1.3,-1.1 1.8,-1.9 0.5,-0.7 1.5,-2.9 1.5,-2.9 l -0.3,-5.4 c 2.6,-1.2 12.7,-2.7 12.7,-2.7 l 0.2,-1.1 c 3.6,-0.4 12.9,0 12.9,0 l 0.2,1.5 c 0,0 1.8,0.2 5.2,0.5 3.4,0.3 8.2,1.4 8.2,1.4 l -0.1,4.9 c 0,0 0.9,0 2,1 1.1,1 -0.4,2 -0.4,2 0.4,0.5 0.2,1.5 0.2,1.5 l 2.1,4.4 c 0,0 0.4,-0.2 1,-0.9 0.6,-0.7 1.4,-1.5 2.7,-2.3 1.3,-0.7 0.8,-1.1 0.8,-1.1 0,-0.7 -0.6,-0.6 -1.1,-0.8 -0.4,-0.2 -2.7,-1 -3.1,-1.1 0.1,0 0.3,-0.1 0.7,-0.3 0.9,-0.5 2.7,0.1 2.7,0.1 -0.3,-0.7 -1.1,-1.5 -1.7,-2 -0.7,-0.5 -2.1,-0.6 -2.1,-0.6 0.2,-0.5 0.7,-1.7 1.8,-2 1.1,-0.3 3.1,0 3.1,0 1.1,-0.7 3,0.2 3.9,0.6 0.8,0.4 1.1,0.3 1.1,0.3 0.5,-0.5 2.9,-0.5 2.9,-0.5 -0.2,0.2 -0.3,0.9 -0.3,0.9 l 1,-0.1 c 0,0 0.3,-0.5 1.2,-1.6 0.9,-1.1 1.1,-0.9 3.4,-1.1 2.3,-0.2 6.5,-0.6 6.5,-0.6 5.4,-0.5 6.9,-1.8 6.9,-1.8 l -1.4,2.5 c 1.8,-0.4 3.5,-1.3 3.5,-1.3 0,0 -1.5,2.4 -3.6,3.7 -2.1,1.3 -5.9,1.7 -5.9,1.7 -0.8,1.6 -3.4,2.4 -3.4,2.4 -0.4,1.8 -2.1,2.3 -2.1,2.3 0,1.8 -2.1,3.1 -2.1,3.1 0.3,2.5 -1.3,3 -1.3,3 0.3,1.7 -1.5,3.1 -1.5,3.1 l -0.1,1.1 c -0.2,1.4 -2.4,2.2 -2.4,2.2 0,0 0.4,1.1 0.8,1.4 0.4,0.2 1.3,1.4 3.8,2.1 2.5,0.8 4.6,2.6 4.6,2.6 1,0.3 2.6,1 2.6,1 4.3,2.3 4.6,5.9 4.6,5.9 0.8,2.7 -2.6,5.8 -2.6,5.8 -0.3,0.4 -0.3,0.6 -0.3,0.6 0,0 0.9,0.9 2,1.2 1.1,0.4 2.5,1 2.5,1 0.2,0.6 0.7,9.2 0.7,9.2 1.8,0.4 1.3,2.2 1.3,2.2 l 2.3,0.1 v 4.1" />
            </defs>
            <clipPath
   id="SVGID_00000013873309849352801280000008019737019405749904_">
                <use
   xlink:href="#SVGID_1_"
   style="overflow:visible"
   id="use153"
   x="0"
   y="0"
   width="100%"
   height="100%" />
            </clipPath>

                <clipPath
   id="SVGID_00000182515979142615622610000008430894561453569206_"
   clip-path="url(#SVGID_00000013873309849352801280000008019737019405749904_)">
                <use
   xlink:href="#SVGID_00000153678351237536716490000000879356237072954772_"
   style="overflow:visible"
   id="use156"
   x="0"
   y="0"
   width="100%"
   height="100%" />
            </clipPath>
            <g
   clip-path="url(#SVGID_00000182515979142615622610000008430894561453569206_)"
   id="g161">

                    <image
   style="overflow:visible"
   width="591"
   height="327"
   transform="matrix(0.215,0,0,0.2151,165.1523,39.0497)"
   id="image159">
                </image>
            </g>
        </g>
        <g
   id="g175">
            <defs
   id="defs166">
                <rect
   id="SVGID_00000072980221405295925470000000083946260336723380_"
   x="171"
   y="41.5"
   width="120.7"
   height="63.400002" />
            </defs>
            <clipPath
   id="SVGID_00000013176737576877558340000017781464537268300192_">
                <use
   xlink:href="#SVGID_00000072980221405295925470000000083946260336723380_"
   style="overflow:visible"
   id="use168"
   x="0"
   y="0"
   width="100%"
   height="100%" />
            </clipPath>
            <g
   clip-path="url(#SVGID_00000013176737576877558340000017781464537268300192_)"
   id="g173">

                    <image
   style="overflow:visible"
   width="2254"
   height="1183"
   transform="matrix(0.05355714,0,0,0.05356318,170.9804,41.4782)"
   id="image171">
                </image>
            </g>
        </g>
        <path
   class="st9"
   d="m 92.3,126.6 c 0,-3.3 0.2,-3.4 2.3,-3.4 1.9,0 2.8,0.2 3.6,0.6 1.1,0.8 1.8,2.2 1.8,4 0,3 -2,4.8 -5.6,4.8 h -0.3 -0.5 c -1.2,0 -1.5,-0.2 -1.4,-0.9 0,0 0,-0.2 0,-0.3 V 131 c 0,-0.3 0,-0.4 0,-0.8 v -1 -0.7 z m 2.2,7 c 2.5,0 4,0.5 4.9,1.4 0.9,1 1.5,2.6 1.5,4.1 0,1.6 -0.6,3.3 -1.4,4.3 -0.9,1 -1.9,1.4 -3.8,1.4 -1.9,0 -2.8,-0.5 -3.3,-1.6 -0.2,-0.5 -0.3,-1.3 -0.3,-3.7 0,-0.8 0,-2.4 0.1,-3.3 0,-0.7 0,-1.1 0,-1.3 0,-1.2 0.2,-1.4 1.4,-1.4 z m 6.9,-1.9 c 1.4,-0.9 2.3,-2.4 2.3,-4.1 0,-3.5 -3.1,-5.3 -8.8,-5.3 h -2 c -1.1,0 -1.8,0 -2,0.1 l -4.3,0.2 c -0.9,0.1 -1.5,0.3 -1.5,0.6 0,0.1 0.1,0.2 0.2,0.3 0.2,0.1 0.2,0.1 1.8,0.2 0.9,0 1.3,0.5 1.3,1.2 l -0.2,9.5 v 0.8 c 0,1.2 0,1.6 0,2.8 v 1.9 1.1 l -0.1,1.7 c 0,0.9 -0.1,1.3 -0.3,1.5 -0.3,0.3 -1.2,0.6 -2.1,0.6 -0.6,0 -0.8,0.2 -0.8,0.6 0,0.3 0.2,0.5 0.6,0.5 h 0.2 0.3 c 0.1,0 0.4,0 0.8,0 l 2.3,-0.1 1.4,-0.1 5.4,-0.1 c 0.2,0 0.3,0 0.8,0 0.7,0 1.1,-0.1 1.5,-0.2 1.5,-0.2 2.3,-0.4 3.3,-1.1 2.2,-1.3 3.3,-3.2 3.3,-5.8 0,-2.5 -1.4,-4.7 -3.7,-5.6 -0.8,-0.3 -1,-0.5 -1,-0.7 0,-0.1 0.1,-0.2 0.2,-0.3 z"
   id="path177" />
        <path
   class="st9"
   d="m 114.3,138.6 c 0.4,0 0.7,0.4 0.7,1.1 0,3.2 -0.7,4.6 -2.3,4.6 -1.2,0 -2,-0.8 -2,-2 0,-0.9 0.3,-1.6 1.2,-2.4 0.8,-0.7 1.8,-1.3 2.4,-1.3 z m 0.8,-2 c 0,0.9 -0.1,1 -1.9,1.6 -0.7,0.3 -2.3,1.1 -3,1.6 -1.7,1.2 -2.6,2.5 -2.6,4 0,1.4 1,2.4 2.3,2.4 1.1,0 3,-0.8 4,-1.7 0.4,-0.3 0.6,-0.5 0.8,-0.5 0.1,0 0.2,0.1 0.3,0.2 l 0.1,0.2 c 0.6,0.9 1.4,1.3 2.3,1.3 1.8,0 3.6,-1.2 3.7,-2.5 0,-0.1 -0.1,-0.2 -0.3,-0.2 -0.1,0 -0.2,0 -0.3,0.2 -0.4,0.3 -1.1,0.6 -1.5,0.6 -1.1,0 -1.3,-0.8 -1.3,-3.8 0,-0.6 0,-1.3 0,-2.1 0.1,-1.7 0.2,-3.6 0.2,-4.1 0,-1.5 -0.3,-2.1 -1.4,-2.6 -0.6,-0.4 -1.8,-0.6 -2.8,-0.6 -3,0 -6.6,2.5 -6.7,4.8 0,0.4 0.3,0.7 0.8,0.7 0.8,0 1.9,-0.8 2,-1.4 l 0.3,-1.1 c 0.4,-1.2 1.4,-2 2.6,-2 1.6,0 2.2,1.1 2.2,3.9 0,0.3 0,0.5 0,0.6 v 0.5 z"
   id="path179" />
        <path
   class="st9"
   d="m 133.4,142.6 c 0,0.8 -0.1,0.9 -0.6,1.1 -0.6,0.3 -1.2,0.4 -1.9,0.4 -3.3,0 -5.6,-2.7 -5.6,-6.7 0,-3.8 1.7,-6.1 4.5,-6.1 1,0 1.9,0.3 2.6,0.9 0.8,0.8 1,1.4 1,3.1 v 2.2 c 0,1 0,1.6 0,2.2 v 0.9 z m 3,-9.3 c 0,-0.2 0,-0.7 0,-1.5 v -3.4 c 0,-0.8 0,-1.5 0,-2.2 l 0.1,-2.9 v -1.8 c 0,-0.8 -0.3,-1.1 -1,-1.1 H 135 l -0.7,0.1 -1.8,0.1 c -1.1,0.1 -1.6,0.3 -1.6,0.6 0,0.2 0.2,0.4 0.4,0.4 h 0.4 c 1.3,0.1 1.6,0.6 1.6,2.3 v 3.5 c 0,0.2 0,0.7 0,1.4 v 0.9 c 0,0.6 -0.3,0.9 -0.7,0.9 -0.2,0 -0.4,0 -0.6,-0.1 l -1,-0.2 c -0.3,0 -0.6,-0.1 -1.2,-0.1 -4.4,0 -7.8,3.5 -7.8,8.1 0,4.2 2.9,7.2 6.9,7.2 1.2,0 2.5,-0.3 3.6,-1 0.4,-0.3 0.5,-0.3 0.6,-0.3 0.2,0 0.2,0.2 0.3,0.8 0,0.8 0.2,1.1 0.5,1.1 0.2,0 0.4,0 0.6,-0.1 l 1.2,-0.3 c 1.5,-0.4 2.5,-0.6 2.6,-0.7 0.3,-0.1 0.4,-0.2 0.4,-0.5 0,-0.3 -0.1,-0.4 -0.3,-0.4 -0.2,0 -0.3,0 -0.5,0 l -0.5,0.1 h -0.2 c -0.5,0 -0.8,-0.5 -0.8,-1.6 v -2 -3.3 z"
   id="path181" />
        <path
   class="st9"
   d="m 147.9,131.1 c 1.5,0 2.5,0.9 2.5,2 0,0.6 -0.3,1.2 -0.8,1.5 -0.5,0.3 -1,0.3 -2.8,0.4 -0.3,0 -0.6,0 -0.8,0 -0.5,0 -1.1,0.1 -1.2,0.1 -0.6,0 -1,-0.2 -0.9,-0.7 0.1,-1.5 2.2,-3.3 4,-3.3 z m 4.9,5 c 0.2,0 0.3,0 0.3,0 0.3,0 0.3,-0.1 0.3,-0.4 0,-2.6 -2.7,-5.2 -5.5,-5.2 -4.4,0 -7.7,3.6 -7.7,8.3 0,4.5 2.8,7.6 6.8,7.6 1.6,0 3.1,-0.5 4.5,-1.7 1.1,-0.8 1.7,-1.5 1.7,-1.9 0,-0.2 -0.1,-0.3 -0.3,-0.3 -0.1,0 -0.2,0 -0.3,0.1 -1.3,0.9 -3,1.6 -4.3,1.6 -2.6,0 -5,-2.9 -5,-6.2 0,-1.7 0.3,-2.1 1.6,-2.1 0.3,0 1.8,0.1 3.7,0.2 0.7,0 2.4,0.1 3.5,0.1 h 0.7 z"
   id="path183" />
        <path
   class="st7"
   d="m 161.2,132.8 c -0.1,0.1 -0.2,0.2 -0.3,0.2 -0.3,0 -0.4,-0.3 -0.4,-0.8 0,-0.1 0,-0.5 0.1,-1.2 0,-0.1 0,-0.3 0,-0.4 0,-0.3 -0.1,-0.4 -0.3,-0.4 -0.2,0 -0.3,0.1 -0.5,0.4 -0.6,0.9 -2,2 -3.1,2.6 -0.6,0.3 -0.7,0.4 -0.7,0.6 0,0.2 0.3,0.4 0.8,0.5 0.8,0.2 0.8,0.3 0.8,2.5 v 2.7 1.7 c 0,3.1 -0.1,3.5 -1.2,3.9 l -0.4,0.2 c -0.3,0.1 -0.4,0.2 -0.4,0.4 0,0.2 0.2,0.3 0.4,0.3 0.2,0 0.5,0 0.8,-0.1 0.5,-0.1 1.9,-0.2 3,-0.2 0.3,0 0.9,0 1.6,0.1 0.4,0 0.8,0 0.9,0.1 0.3,0 0.5,0.1 0.6,0.1 0.3,0 0.5,-0.2 0.5,-0.4 0,-0.2 -0.2,-0.3 -0.5,-0.4 l -0.8,-0.2 c -1.1,-0.2 -1.3,-0.5 -1.4,-3.1 l -0.1,-1.3 c 0,-0.5 0,-1.3 0,-1.8 0,-2.8 0.1,-4.2 0.3,-4.7 0.4,-0.8 2.2,-1.6 3.4,-1.6 1.1,0 2.2,0.6 2.6,1.4 0.4,0.8 0.5,1.7 0.5,4.7 0,1.8 -0.1,4.4 -0.1,4.8 0,0.3 -0.2,0.6 -0.3,0.8 -0.3,0.4 -0.8,0.6 -1.5,0.6 -0.4,0 -0.5,0.2 -0.5,0.4 0,0.3 0.2,0.4 0.6,0.4 0.1,0 0.4,0 0.6,0 h 0.9 c 0.3,0 0.9,0 1.6,0 1.2,0 2.2,0 2.8,0.2 0.4,0 0.6,0.1 0.9,0.1 0.3,0 0.5,-0.2 0.5,-0.4 0,-0.3 -0.2,-0.5 -1.2,-0.6 -1,-0.2 -1.2,-0.4 -1.2,-1.2 v -0.3 -1 c 0.1,-2.3 0.2,-4.6 0.2,-6 0,-4.2 -1.2,-5.6 -4.6,-5.6 -1.4,0 -3,0.6 -4,1.4 z"
   id="path185" />
        <path
   class="st7"
   d="m 181.7,139.6 c 0.5,0 0.7,-0.2 1.1,-1.5 0,0 0.1,-0.4 0.3,-0.9 0,-0.1 0.1,-0.3 0.1,-0.3 0,-0.3 -0.1,-0.4 -0.4,-0.4 h -0.4 c -0.5,0 -1,0.1 -1.2,0.1 h -0.5 -1.2 -1.2 c -1.2,0 -1.6,0 -1.8,0 H 176 c -0.5,0 -0.6,0.1 -0.8,0.5 l -0.3,1.1 c -0.2,0.7 -0.3,1.1 -0.3,1.3 0,0.2 0.1,0.2 0.3,0.2 h 0.2 0.3 c 0.8,0 3.2,-0.1 4.4,-0.1 0.5,0 1.1,0 1.7,0 z"
   id="path187" />
        <path
   class="st7"
   d="m 186.3,133.6 6,12.3 c 0.3,0.5 0.5,0.8 0.8,0.8 0.2,0 0.3,-0.1 0.7,-0.8 l 3.7,-6.9 c 0.7,-1.4 0.9,-1.7 1.1,-1.7 0.2,0 0.4,0.3 1.1,1.8 0.2,0.4 0.4,0.8 0.6,1.2 l 0.5,0.9 0.6,1.3 c 0.5,1 0.9,1.7 1.1,2.2 0.3,0.5 0.5,0.9 0.6,1.1 l 0.2,0.5 c 0.2,0.4 0.3,0.6 0.5,0.5 0.3,0 0.5,-0.3 0.8,-1.1 0,-0.2 0.2,-0.5 0.3,-0.9 0.2,-0.3 0.3,-0.7 0.5,-1.1 l 0.6,-1.4 2.9,-6.6 2.4,-5.5 0.5,-1 c 0.1,-0.2 0.3,-0.7 0.6,-1.3 0.2,-0.5 0.3,-0.7 0.4,-0.8 l 0.8,-1.7 c 0.9,-1.8 1,-1.9 2.6,-1.8 0.5,0 0.6,-0.2 0.6,-0.6 0,-0.3 -0.1,-0.4 -0.4,-0.4 h -0.2 c -0.2,0 -0.7,0 -1.4,0 h -2 -0.6 -0.7 -1.2 c -0.3,0 -0.5,0.2 -0.5,0.4 0,0.4 0.2,0.5 1.2,0.6 0.5,0.1 0.9,0.4 0.8,0.8 0,0.3 -0.1,0.8 -0.3,1.4 l -0.2,0.7 c -0.1,0.3 -0.3,0.9 -0.6,1.7 l -1.1,2.6 -0.6,1.4 -1.3,3.1 -1.3,3.1 c -0.7,1.7 -1,2.2 -1.3,2.2 -0.3,0 -0.6,-0.3 -0.9,-1.1 l -0.5,-1 c -0.8,-1.4 -1.6,-3 -2.3,-4.7 -0.2,-0.3 -0.3,-0.6 -0.3,-0.8 0,-0.2 0.1,-0.5 0.2,-0.8 l 0.5,-1 c 0.1,-0.3 0.4,-0.9 1.1,-2.2 0.5,-0.9 0.7,-1.5 1.1,-2.2 0.8,-1.7 1.1,-2.2 1.6,-2.6 0.5,-0.5 1.3,-0.9 2,-0.9 h 0.4 c 0.3,0 0.5,-0.2 0.5,-0.4 0,-0.3 -0.2,-0.4 -0.5,-0.4 -0.1,0 -0.3,0 -0.6,0 -0.3,0 -1.1,0 -1.6,0 h -0.4 -0.8 -0.9 -0.8 -0.9 c -0.7,0 -0.9,0.1 -0.9,0.4 0,0.3 0.3,0.5 1.6,0.6 0.5,0.1 0.7,0.3 0.7,0.8 0,0.7 -0.4,1.8 -1.3,3.7 l -0.9,1.8 c -0.5,1 -0.7,1.4 -0.9,1.4 -0.2,0 -0.3,-0.2 -0.5,-0.5 l -0.5,-1 c -0.1,-0.1 -0.3,-0.7 -0.7,-1.5 -0.2,-0.3 -0.5,-0.9 -0.9,-1.9 -0.8,-1.7 -0.9,-1.9 -0.9,-2.1 0,-0.6 0.6,-0.9 1.7,-0.9 h 0.4 c 0.2,0 0.3,-0.2 0.3,-0.3 0,0 0,-0.1 0,-0.1 0,-0.4 -0.2,-0.5 -0.7,-0.5 -0.2,0 -1.1,0 -1.7,0 -0.5,0 -0.8,0 -1,0 h -1.3 -2 -0.8 c -0.4,0 -0.7,0 -0.8,0 -0.3,0 -0.4,0 -0.6,0 -0.3,0 -0.5,0.2 -0.5,0.4 0,0.4 0.1,0.4 0.8,0.5 1.1,0.1 1.4,0.3 1.9,1.4 l 0.8,1.3 c 0.3,0.5 0.3,0.6 0.9,1.9 0.5,0.9 0.9,1.8 1.3,2.8 0.3,0.7 0.7,1.5 1.2,2.4 0.1,0.3 0.2,0.5 0.3,0.6 0.2,0.3 0.2,0.5 0.3,0.5 0.3,0.7 0.5,1.1 0.5,1.4 0,0.2 -0.2,0.6 -0.5,1.2 l -0.5,1 c -0.2,0.3 -0.7,1.3 -1.2,2.2 -0.3,0.5 -0.4,0.7 -0.5,0.8 -0.2,0.3 -0.4,0.5 -0.6,0.5 -0.3,0 -0.6,-0.4 -1.7,-2.6 l -2,-4.5 -2.6,-5.4 c -0.2,-0.4 -0.4,-0.9 -0.6,-1.3 -0.6,-1.3 -0.8,-1.7 -0.9,-2 -0.3,-0.5 -0.4,-0.9 -0.5,-1.3 0,-0.4 0.4,-0.7 1.2,-0.8 0.9,-0.1 0.9,-0.2 0.9,-0.5 0,-0.3 -0.2,-0.4 -0.7,-0.4 -0.5,0 -0.8,0 -1.7,0 h -2.2 -0.9 -0.6 -0.3 l -2.3,-0.2 h -0.1 c -0.4,0.1 -0.5,0.2 -0.5,0.6 0,0.4 0,0.4 0.9,0.4 1.1,0 1.6,0.5 2.6,2.5 z"
   id="path189" />
        <path
   class="st9"
   d="m 225.5,145.4 c 0,0.5 0.1,0.6 0.5,0.6 0.1,0 0.4,0 0.6,-0.1 1.4,-0.3 3.4,-0.7 4.4,-0.8 0.2,0 0.3,-0.2 0.3,-0.4 0,-0.3 -0.1,-0.4 -0.4,-0.4 -0.1,0 -0.3,0 -0.4,0 h -0.3 c -1.2,0 -1.7,-0.3 -1.7,-1.1 v -1 c 0,-0.2 0,-0.7 0,-1.5 0,-0.2 0,-1.1 0,-2.5 v -5.3 -1.1 c 0,-0.4 -0.1,-0.6 -0.5,-0.6 h -0.2 c -0.9,0.1 -1.4,0.1 -3.5,0.1 h -0.5 -0.6 c -0.4,0 -0.6,0.1 -0.6,0.3 0,0.2 0.2,0.4 0.5,0.4 l 0.8,0.1 c 1.3,0.1 1.7,0.6 1.7,2 v 0.8 2.2 1.6 2.7 c 0,0.9 -0.2,1.2 -0.8,1.7 -0.8,0.6 -1.7,0.9 -2.6,0.9 -1.8,0 -3,-1.2 -3.2,-3.1 -0.1,-0.8 -0.2,-2.4 -0.2,-3.4 0,-0.3 0,-1.1 0,-2.4 v -1.5 c 0,-0.5 0,-0.9 0.1,-1.3 v -0.3 -0.2 c 0,-0.5 -0.3,-0.6 -0.8,-0.6 h -1.4 c -0.2,0 -0.6,0 -1.2,-0.1 -0.3,0 -0.6,0 -0.7,-0.1 h -0.6 c -0.4,0 -0.6,0.1 -0.6,0.4 0,0.3 0.2,0.3 1.1,0.5 0.9,0.2 1.1,0.3 1.1,1.1 0,0.1 0,0.4 0,0.8 v 2 2.8 l 0.1,1.8 c 0.1,2.4 0.3,3.3 1.1,4.1 0.7,0.8 1.7,1.2 3,1.2 1.7,0 3.1,-0.6 4.7,-1.9 0.3,-0.3 0.5,-0.4 0.6,-0.4 0.2,0 0.2,0.3 0.2,0.6 z m -0.1,-21.6 c -1,0 -1.9,0.8 -1.9,1.8 0,1.1 0.8,1.9 1.9,1.9 1.1,0 1.9,-0.8 1.9,-1.8 0,-1.1 -0.8,-1.9 -1.9,-1.9 z m -6.4,0 c -1,0 -1.9,0.8 -1.9,1.9 0,1 0.8,1.9 1.9,1.9 1,0 1.9,-0.9 1.9,-1.9 0,-1.1 -0.8,-1.9 -1.9,-1.9 z"
   id="path191" />
        <path
   class="st7"
   d="m 237.5,131.6 c 0,-1.2 -0.1,-1.7 -0.4,-1.7 -0.2,0 -0.2,0 -0.3,0.2 0,0 -0.1,0.1 -0.2,0.3 l -0.2,0.2 c -0.6,0.6 -2.2,1.7 -2.8,2 -0.5,0.2 -0.6,0.3 -0.6,0.5 0,0.3 0.1,0.3 0.8,0.7 0.9,0.4 0.9,0.8 0.9,3.6 v 3.9 c 0,0.6 0,0.9 0,1 v 1.1 c 0,1.1 -0.2,1.4 -1.2,1.7 l -0.6,0.2 c -0.6,0.2 -0.8,0.3 -0.8,0.5 0,0.3 0.1,0.5 0.5,0.5 0.1,0 0.4,0 0.6,0 l 1.1,-0.2 c 1.4,-0.1 3.3,-0.3 3.9,-0.3 l 1.8,0.1 h 0.9 c 0.5,0 0.6,-0.1 0.6,-0.4 0,-0.3 -0.1,-0.4 -1.2,-0.5 -2.5,-0.3 -2.8,-0.8 -2.6,-4.7 0,-0.9 0,-1.7 0,-2.3 v -1 c 0,-2.5 0.5,-3.7 1.6,-3.7 0.4,0 0.8,0.2 1.2,0.5 l 0.3,0.3 c 0.4,0.3 0.9,0.5 1.3,0.5 1,0 1.8,-0.8 1.8,-1.9 0,-1.1 -0.9,-2 -2.1,-2 -1.1,0 -2.1,0.6 -3.1,1.7 -0.4,0.4 -0.6,0.6 -0.8,0.6 -0.2,0 -0.2,-0.1 -0.3,-0.5 v -0.3 -0.6 z"
   id="path193" />
        <path
   class="st7"
   d="m 251,131.2 c -0.7,0 -0.9,-0.3 -0.9,-1.7 v -0.5 -0.2 -0.3 c 0,-0.2 0,-0.3 0,-0.3 0,-0.2 -0.1,-0.3 -0.3,-0.3 -0.2,0 -0.2,0 -0.3,0.3 l -0.2,0.3 -0.4,0.7 c -0.9,1.3 -2.2,2.5 -3.4,2.8 -0.7,0.2 -0.8,0.3 -0.8,0.6 0,0.3 0.1,0.4 0.4,0.4 h 0.9 c 0.7,0 1,0.5 1,1.5 l -0.1,1.6 v 0.5 c -0.1,2 -0.1,1.7 -0.1,3.8 v 2 c 0,2.6 1.3,4 4,4 1.2,0 2.6,-0.6 3.7,-1.6 0.3,-0.3 0.4,-0.5 0.4,-0.6 0,-0.2 -0.2,-0.4 -0.4,-0.4 -0.2,0 -0.2,0 -0.5,0.2 -0.3,0.2 -1,0.3 -1.6,0.3 -1.6,0 -2.5,-1 -2.5,-2.9 0,-0.1 0,-0.5 0,-0.9 v -4.2 -2.3 c 0,-1.1 0.3,-1.3 1.4,-1.3 h 0.8 1.3 0.7 c 0.2,0 0.3,0 0.3,0 0.3,0 0.5,-0.2 0.5,-0.5 v -0.6 c 0,-0.5 -0.2,-0.6 -0.6,-0.6 -0.3,0 -0.6,0 -1,0 -0.6,0 -1,0.1 -1.2,0.1 H 251 Z"
   id="path195" />
        <path
   class="st7"
   d="m 262.3,131.2 c -0.7,0 -0.9,-0.3 -0.9,-1.7 v -0.5 -0.2 -0.3 c 0,-0.2 0,-0.3 0,-0.3 0,-0.2 -0.1,-0.3 -0.3,-0.3 -0.2,0 -0.2,0 -0.3,0.3 l -0.2,0.3 -0.4,0.7 c -0.9,1.3 -2.2,2.5 -3.4,2.8 -0.7,0.2 -0.8,0.3 -0.8,0.6 0,0.3 0.1,0.4 0.4,0.4 h 0.9 c 0.7,0 1,0.5 1,1.5 l -0.1,1.6 v 0.5 c -0.1,2 -0.1,1.7 -0.1,3.8 v 2 c 0,2.6 1.3,4 4,4 1.2,0 2.6,-0.6 3.7,-1.6 0.3,-0.3 0.4,-0.5 0.4,-0.6 0,-0.2 -0.2,-0.4 -0.4,-0.4 -0.2,0 -0.2,0 -0.5,0.2 -0.3,0.2 -1,0.3 -1.6,0.3 -1.6,0 -2.5,-1 -2.5,-2.9 0,-0.1 0,-0.5 0,-0.9 v -4.2 -2.3 c 0,-1.1 0.3,-1.3 1.4,-1.3 h 0.8 1.3 0.7 c 0.2,0 0.3,0 0.3,0 0.3,0 0.5,-0.2 0.5,-0.5 v -0.6 c 0,-0.5 -0.2,-0.6 -0.6,-0.6 -0.3,0 -0.6,0 -1,0 -0.6,0 -1,0.1 -1.2,0.1 h -1.1 z"
   id="path197" />
        <path
   class="st9"
   d="m 274.9,131.1 c 1.5,0 2.5,0.9 2.5,2 0,0.6 -0.3,1.2 -0.8,1.5 -0.5,0.3 -1,0.3 -2.8,0.4 -0.3,0 -0.6,0 -0.8,0 -0.5,0 -1.1,0.1 -1.2,0.1 -0.6,0 -1,-0.2 -0.9,-0.7 0.1,-1.5 2.2,-3.3 4,-3.3 z m 4.9,5 c 0.2,0 0.3,0 0.3,0 0.3,0 0.3,-0.1 0.3,-0.4 0,-2.6 -2.7,-5.2 -5.5,-5.2 -4.4,0 -7.7,3.6 -7.7,8.3 0,4.5 2.8,7.6 6.8,7.6 1.6,0 3.1,-0.5 4.5,-1.7 1.1,-0.8 1.7,-1.5 1.7,-1.9 0,-0.2 -0.1,-0.3 -0.3,-0.3 -0.1,0 -0.2,0 -0.3,0.1 -1.3,0.9 -3,1.6 -4.3,1.6 -2.6,0 -5,-2.9 -5,-6.2 0,-1.7 0.3,-2.1 1.6,-2.1 0.3,0 1.8,0.1 3.7,0.2 0.7,0 2.4,0.1 3.5,0.1 h 0.7 z"
   id="path199" />
        <path
   class="st7"
   d="m 296.9,137 v -2.1 c 0,-1.3 1.5,-2.4 3.3,-2.4 1.2,0 2.3,0.5 2.8,1.4 0.3,0.5 0.3,1.1 0.3,2.2 l -0.1,3 v 3 c 0,2.2 -0.2,2.7 -1.4,2.9 l -0.7,0.1 c -0.4,0.1 -0.5,0.2 -0.5,0.5 0,0.2 0.1,0.3 0.4,0.3 0,0 0.4,0 0.7,0 0.6,0 1.6,0 3.4,0 h 1.5 1.4 c 0.4,0 0.5,-0.1 0.5,-0.3 0,-0.3 -0.2,-0.4 -0.6,-0.4 -1.2,-0.2 -1.6,-0.6 -1.6,-1.9 v -1.8 l 0.1,-3.7 c 0,-2.3 -0.3,-4.4 -0.8,-5.2 -0.8,-1.3 -2.1,-2 -3.7,-2 -1.4,0 -2.9,0.6 -4,1.7 -0.8,0.7 -0.9,0.8 -1,0.8 -0.1,0 -0.2,-0.1 -0.5,-0.4 l -0.3,-0.3 c -0.9,-1.1 -1.8,-1.6 -3,-1.6 -1.4,0 -2.9,0.6 -4,1.7 -0.5,0.4 -0.7,0.6 -0.9,0.6 -0.2,0 -0.3,-0.2 -0.3,-0.8 v -0.6 l 0.1,-0.9 c 0,-0.2 -0.1,-0.4 -0.3,-0.4 -0.1,0 -0.3,0.1 -0.4,0.2 L 287,131 c -0.7,0.9 -1.7,1.4 -3.3,1.9 -0.3,0.1 -0.4,0.3 -0.4,0.5 0,0.2 0.1,0.3 0.3,0.4 l 0.2,0.1 c 0.5,0.2 0.8,0.6 0.8,1.3 v 3.1 c 0,0 0,0.3 0,0.8 0,0.6 0,0.9 0,1.3 -0.1,2.3 -0.1,3.2 -0.2,3.5 -0.2,0.7 -0.3,0.9 -0.9,1.1 l -0.6,0.2 -0.5,0.1 c -0.3,0.1 -0.4,0.2 -0.4,0.4 0,0.2 0.1,0.3 0.4,0.3 0.2,0 0.5,0 0.8,0 0.6,-0.1 1.1,-0.1 2.5,-0.1 0.4,0 1.3,0 2.2,0.1 0.5,0 1,0 1.3,0 0.5,0 0.6,-0.1 0.6,-0.3 0,-0.2 -0.1,-0.3 -0.5,-0.4 -1.8,-0.6 -1.9,-0.7 -1.9,-3.1 0,-1 0,-1.9 0.1,-4.1 0,-0.7 0.1,-1.3 0.1,-1.7 0,-1.2 0.2,-1.9 0.5,-2.3 0.6,-0.7 1.9,-1.2 3.1,-1.2 1.6,0 2.5,0.9 2.5,2.4 l 0.1,6.3 v 0.7 c 0,2.2 -0.1,2.6 -1.1,2.8 l -0.8,0.2 c -0.5,0.1 -0.7,0.3 -0.7,0.5 0,0.2 0.3,0.4 0.7,0.4 l 1.9,-0.1 h 0.8 c 0.9,0 1.9,0 3.8,0.1 h 0.4 c 0.3,0 0.5,-0.1 0.5,-0.3 0,-0.2 -0.2,-0.4 -0.6,-0.5 -1.6,-0.4 -1.9,-0.7 -1.8,-2.3 z"
   id="path201" />
        <path
   class="st9"
   d="m 314.2,134.2 c -0.1,-1.5 0.4,-1.9 2.4,-1.9 3.8,0 6.1,2.6 6.1,6.8 0,3.6 -1.8,6 -4.4,6 -1.3,0 -2.4,-0.5 -3.2,-1.4 -0.7,-0.8 -0.8,-1.4 -0.8,-4.4 v -2.1 -2.2 z m 0.1,-9.9 c 0,-1.2 0,-1.9 0.2,-2.8 0,-0.2 0.1,-0.5 0.1,-0.6 0,-0.4 -0.2,-0.5 -0.7,-0.5 -0.3,0 -0.5,0 -0.7,0.2 l -0.8,0.4 c -0.1,0.1 -0.3,0.2 -0.7,0.3 -0.3,0.2 -0.6,0.3 -0.8,0.4 -0.5,0.2 -0.8,0.4 -1,0.5 -0.4,0.2 -0.6,0.3 -0.6,0.5 0,0.2 0.2,0.4 0.6,0.5 l 0.4,0.1 c 0.6,0.2 0.8,0.6 0.9,1.8 v 1.6 0.8 c 0,0.5 0,0.7 0,2.3 v 3.5 4 5.4 c 0,0.6 0,1.1 -0.1,1.7 -0.1,0.9 -0.1,1.7 -0.1,1.9 0,0.5 0.2,0.7 0.4,0.7 0.3,0 0.4,-0.2 0.8,-0.8 0.5,-0.8 0.8,-1.2 1.1,-1.2 0.3,0 0.9,0.2 1.9,0.6 0.8,0.3 2.1,0.5 3,0.5 4.4,0 8,-3.6 8,-7.9 0,-4.4 -2.8,-7.8 -6.5,-7.8 -1.1,0 -2.8,0.5 -4.3,1.3 -0.2,0.2 -0.3,0.2 -0.5,0.2 -0.3,0 -0.5,-0.2 -0.5,-0.7 v -0.4 -0.9 -0.6 -3.2 -1.8 z"
   id="path203" />
        <path
   class="st9"
   d="m 336.3,131.1 c 1.5,0 2.5,0.9 2.5,2 0,0.6 -0.3,1.2 -0.8,1.5 -0.5,0.3 -1,0.3 -2.8,0.4 -0.3,0 -0.6,0 -0.8,0 -0.5,0 -1.1,0.1 -1.2,0.1 -0.6,0 -1,-0.2 -0.9,-0.7 0.1,-1.5 2.2,-3.3 4,-3.3 z m 4.9,5 c 0.2,0 0.3,0 0.3,0 0.3,0 0.3,-0.1 0.3,-0.4 0,-2.6 -2.7,-5.2 -5.5,-5.2 -4.4,0 -7.7,3.6 -7.7,8.3 0,4.5 2.8,7.6 6.8,7.6 1.6,0 3.1,-0.5 4.5,-1.7 1.1,-0.8 1.7,-1.5 1.7,-1.9 0,-0.2 -0.1,-0.3 -0.3,-0.3 -0.1,0 -0.2,0 -0.3,0.1 -1.3,0.9 -3,1.6 -4.3,1.6 -2.6,0 -5,-2.9 -5,-6.2 0,-1.7 0.3,-2.1 1.6,-2.1 0.3,0 1.8,0.1 3.7,0.2 0.7,0 2.4,0.1 3.5,0.1 h 0.7 z"
   id="path205" />
        <path
   class="st7"
   d="m 349,131.6 c 0,-1.2 -0.1,-1.7 -0.4,-1.7 -0.2,0 -0.2,0 -0.3,0.2 0,0 -0.1,0.1 -0.2,0.3 l -0.2,0.2 c -0.6,0.6 -2.2,1.7 -2.8,2 -0.5,0.2 -0.6,0.3 -0.6,0.5 0,0.3 0.1,0.3 0.8,0.7 0.9,0.4 0.9,0.8 0.9,3.6 v 3.9 c 0,0.6 0,0.9 0,1 v 1.1 c 0,1.1 -0.2,1.4 -1.2,1.7 l -0.6,0.2 c -0.6,0.2 -0.8,0.3 -0.8,0.5 0,0.3 0.1,0.5 0.5,0.5 0.1,0 0.4,0 0.6,0 l 1.1,-0.2 c 1.4,-0.1 3.3,-0.3 3.9,-0.3 l 1.8,0.1 h 0.9 c 0.5,0 0.6,-0.1 0.6,-0.4 0,-0.3 -0.1,-0.4 -1.2,-0.5 -2.5,-0.3 -2.8,-0.8 -2.6,-4.7 0,-0.9 0,-1.7 0,-2.3 v -1 c 0,-2.5 0.5,-3.7 1.6,-3.7 0.4,0 0.8,0.2 1.2,0.5 l 0.3,0.3 c 0.4,0.3 0.9,0.5 1.3,0.5 1,0 1.8,-0.8 1.8,-1.9 0,-1.1 -0.9,-2 -2.1,-2 -1.1,0 -2.1,0.6 -3.1,1.7 -0.4,0.4 -0.6,0.6 -0.8,0.6 -0.2,0 -0.2,-0.1 -0.3,-0.5 v -0.3 -0.6 z"
   id="path207" />
        <path
   class="st9"
   d="m 362.4,131.2 c 1.7,0 3,2.2 3,5.1 0,2.7 -1.1,4.5 -2.8,4.5 -1.8,0 -3.1,-2 -3.1,-5 0.1,-2.7 1.2,-4.6 2.9,-4.6 z m -0.8,16.4 c 3,0 4.7,0.2 5.7,0.7 0.8,0.3 1.4,1.2 1.4,2.1 0,2.3 -3.1,4.5 -6.4,4.5 -2.6,0 -4.7,-1.6 -4.7,-3.5 0,-0.9 0.3,-1.7 0.9,-2.5 0.8,-1 1.5,-1.3 3.1,-1.3 z m -3.1,-0.5 c 0.2,0.2 0.3,0.3 0.3,0.5 0,0.1 -0.1,0.2 -0.2,0.2 -2.3,0.9 -3.7,2.6 -3.7,4.2 0,1.1 0.8,2.3 2,3.1 0.9,0.6 1.9,0.8 3.5,0.8 6.1,0 10.7,-3.1 10.7,-7.1 0,-0.8 -0.2,-1.5 -0.6,-2.2 -0.9,-1.6 -2.5,-2.2 -5.1,-2.2 -0.8,0 -0.9,0 -1.4,0 l -1.7,0.1 c -0.3,0 -0.8,0 -1,0 -1.3,0 -2,-0.5 -2,-1.4 0,-0.9 0.8,-1.4 2.1,-1.5 l 1.7,-0.2 c 3.3,-0.3 5.5,-2.3 5.6,-5.2 l 0.1,-1.9 c 0,-0.5 0.2,-0.6 0.8,-0.8 l 0.6,-0.2 c 0.3,0 1,-0.1 1.4,-0.1 0.1,0 0.2,0 0.3,0 h 0.2 c 0.2,0 0.2,-0.1 0.2,-0.4 0,-0.9 -0.3,-1.2 -1,-1.2 -0.5,0 -0.7,0 -1.1,0 -0.9,0.1 -1.4,0.1 -1.7,0.1 -0.5,0 -0.8,0 -1,-0.2 l -0.7,-0.4 c -0.9,-0.5 -2.4,-0.9 -3.7,-0.9 -3.7,0 -6.4,2.4 -6.4,5.6 0,1.8 1,3.7 2.5,4.6 l 0.4,0.3 c 0.2,0.1 0.3,0.3 0.3,0.4 0,0.1 -0.1,0.2 -0.3,0.3 0,0 -0.2,0.1 -0.5,0.2 -0.4,0.2 -1.2,0.5 -2,0.8 -0.7,0.3 -0.9,0.5 -0.9,0.9 0,0.8 0.8,1.9 2.3,3.2 z"
   id="path209" />
    </g>
</g>
<g
   id="KIT"
   class="st1"
   transform="translate(-59.891543,-63)">
    <g
   class="st3"
   id="g292">
        <path
   class="st9"
   d="m 257.1,146.6 h -29 L 193.6,109.5 V 88.3 l 33.4,-37 h 29.9 l -38.5,47.9 z m 30.5,0 H 261.5 V 51.4 h 26.1 z m 69.2,-95.2 h -62.9 v 21.4 h 18.4 v 73.8 h 26.1 V 72.8 h 18.4 z"
   id="path214" />
        <polygon
   class="st9"
   points=""
   id="polygon216" />
        <polygon
   class="st9"
   points=""
   id="polygon218" />
        <path
   class="st10"
   d="m 112.9,86.2 c -5,6.1 -9.3,12.7 -12.6,19.9 l 87,40.5 z"
   id="path220" />
        <path
   class="st10"
   d="M 187.3,146.6 146.7,60.2 c -7.2,3.3 -13.9,7.4 -20,12.3 z"
   id="path222" />
        <path
   class="st9"
   d="m 187.3,146.6 0.1,-95.2 c -0.3,0 -0.5,0 -0.8,0 -7.7,0 -15.3,1 -22.5,2.7 z"
   id="path224" />
        <polygon
   class="st9"
   points=""
   id="polygon226" />
        <polygon
   class="st9"
   points=""
   id="polygon228" />
        <path
   class="st10"
   d="m 94,123.3 c -2,7.4 -2.9,15.3 -3,23.3 h 96.3 z"
   id="path230" />
        <polygon
   class="st7"
   points="100.6,168.6 94.5,162.2 100.2,156.5 97.9,156.5 92.7,161.8 92.7,156.5 90.9,156.5 90.9,168.6 92.7,168.6 92.7,162.7 98.1,168.6 "
   id="polygon232" />
        <path
   class="st7"
   d="m 107.6,165.2 c 0,1.3 -0.9,2.3 -2.5,2.3 -0.7,0 -1.7,-0.5 -1.7,-1.4 0,-1.6 2.2,-1.7 3.1,-1.7 0.3,0 0.7,0 1,0 v 0.8 z m -4.8,-3.4 c 0.7,-0.6 1.7,-0.9 2.6,-0.9 1.6,0 2.2,0.8 2.2,2.3 -0.6,0 -1.1,0 -1.7,0 -1.7,0 -4.1,0.7 -4.1,2.9 0,1.9 1.3,2.8 3.3,2.8 1.5,0 2.4,-0.8 2.7,-1.4 v 0 1.1 h 1.5 c 0,-0.3 -0.1,-0.7 -0.1,-1.7 v -3.7 c 0,-2.4 -1,-3.7 -3.6,-3.7 -1.1,0 -2.1,0.3 -2.9,0.8 z"
   id="path234" />
        <path
   class="st7"
   d="m 112,168.6 h 1.6 v -4 c 0,-2.2 1,-3.6 2.4,-3.6 0.3,0 0.6,0 0.9,0.2 v -1.5 c -0.3,-0.1 -0.6,-0.1 -1.1,-0.1 -0.9,0 -1.9,0.7 -2.3,1.6 v 0 -1.4 H 112 Z"
   id="path236" />
        <polygon
   class="st7"
   points="118.9,155.6 118.9,168.6 120.6,168.6 120.6,155.6 "
   id="polygon238" />
        <path
   class="st7"
   d="m 122.8,168.4 c 0.7,0.4 1.6,0.5 2.4,0.5 1.6,0 3.1,-0.9 3.1,-2.8 0,-2.8 -3.8,-2.3 -3.8,-4.1 0,-0.7 0.7,-1.1 1.6,-1.1 0.4,0 1.4,0.2 1.7,0.5 l 0.1,-1.4 c -0.6,-0.2 -1.3,-0.3 -2,-0.3 -1.8,0 -3.1,0.9 -3.1,2.7 0,2.5 3.8,2.3 3.8,4 0,1 -0.9,1.3 -1.7,1.3 -0.5,0 -1.4,-0.2 -2,-0.6 z"
   id="path240" />
        <path
   class="st7"
   d="m 130.3,168.6 h 1.6 v -4 c 0,-2.2 1,-3.6 2.4,-3.6 0.3,0 0.6,0 0.9,0.2 v -1.5 c -0.3,-0.1 -0.6,-0.1 -1.1,-0.1 -0.9,0 -1.9,0.7 -2.3,1.6 v 0 -1.4 h -1.5 z"
   id="path242" />
        <path
   class="st7"
   d="m 144.9,159.8 h -1.6 v 4.1 c 0,2.2 -0.8,3.7 -2.7,3.7 -1.4,-0.1 -1.9,-1.1 -1.9,-3.2 v -4.6 h -1.6 v 5.3 c 0,2.4 1,3.8 3.3,3.8 1.2,0 2.4,-0.6 2.9,-1.6 v 0 1.4 h 1.6 z"
   id="path244" />
        <path
   class="st7"
   d="m 147.7,168.6 h 1.6 v -4.1 c 0,-2.2 0.8,-3.7 2.7,-3.7 1.4,0.1 1.9,1.1 1.9,3.2 v 4.6 h 1.6 v -5.3 c 0,-2.4 -1,-3.8 -3.3,-3.8 -1.2,0 -2.3,0.5 -2.9,1.5 v 0 -5.4 h -1.6 z"
   id="path246" />
        <path
   class="st7"
   d="m 159.5,163.4 c 0.1,-1.1 0.8,-2.5 2.4,-2.5 1.4,0 2.2,1.1 2.2,2.5 z m 5.6,3.2 c -0.4,0.3 -1.7,0.9 -2.7,0.9 -1.5,0 -2.9,-1.2 -2.9,-3 h 6.3 c 0,-2.9 -1,-5 -3.9,-5 -2.5,0 -4.2,1.9 -4.2,4.5 0,2.9 1.4,4.8 4.6,4.8 1.5,0 2.2,-0.4 2.8,-0.6 z"
   id="path248" />
        <polygon
   class="st7"
   points="173,156.5 173,168.6 174.7,168.6 174.7,156.5 "
   id="polygon250" />
        <path
   class="st7"
   d="m 177.7,168.6 h 1.6 v -4.1 c 0,-2.2 0.8,-3.7 2.7,-3.7 1.4,0.1 1.9,1.1 1.9,3.2 v 4.6 h 1.6 v -5.3 c 0,-2.4 -1,-3.8 -3.3,-3.8 -1.2,0 -2.4,0.6 -2.9,1.6 v 0 -1.4 h -1.6 z"
   id="path252" />
        <path
   class="st7"
   d="m 187.5,168.4 c 0.7,0.4 1.6,0.5 2.4,0.5 1.6,0 3.1,-0.9 3.1,-2.8 0,-2.8 -3.8,-2.3 -3.8,-4.1 0,-0.7 0.7,-1.1 1.6,-1.1 0.4,0 1.4,0.2 1.7,0.5 l 0.1,-1.4 c -0.6,-0.2 -1.3,-0.3 -2,-0.3 -1.8,0 -3.1,0.9 -3.1,2.7 0,2.5 3.8,2.3 3.8,4 0,1 -0.9,1.3 -1.7,1.3 -0.5,0 -1.4,-0.2 -2,-0.6 z"
   id="path254" />
        <path
   class="st7"
   d="m 199.8,159.8 h -2.3 v -2.6 l -1.6,0.5 v 2.1 h -2 v 1.3 h 2 v 5.2 c 0,1.8 1,2.6 2.7,2.6 0.5,0 1,-0.1 1.4,-0.2 v -1.4 c -0.2,0.2 -0.6,0.3 -1.1,0.3 -0.7,0 -1.4,-0.6 -1.4,-1.6 v -4.8 h 2.3 z"
   id="path256" />
        <path
   class="st7"
   d="M 203.8,156 H 202 v 1.8 h 1.8 z m -1.8,12.6 h 1.6 v -8.9 H 202 Z"
   id="path258" />
        <path
   class="st7"
   d="M 211.4,159.8 H 209 v -2.6 l -1.6,0.5 v 2.1 h -2 v 1.3 h 2 v 5.2 c 0,1.8 1,2.6 2.7,2.6 0.5,0 1,-0.1 1.4,-0.2 v -1.4 c -0.2,0.2 -0.6,0.3 -1.1,0.3 -0.7,0 -1.4,-0.6 -1.4,-1.6 v -4.8 h 2.3 v -1.4 z"
   id="path260" />
        <path
   class="st7"
   d="m 221.3,159.8 h -1.6 v 4.1 c 0,2.2 -0.8,3.7 -2.7,3.7 -1.4,-0.1 -1.9,-1.1 -1.9,-3.2 v -4.6 h -1.6 v 5.3 c 0,2.4 1,3.8 3.3,3.8 1.2,0 2.4,-0.6 2.9,-1.6 v 0 1.4 h 1.6 z"
   id="path262" />
        <path
   class="st7"
   d="m 228.8,159.8 h -2.3 v -2.6 l -1.6,0.5 v 2.1 h -2 v 1.3 h 2 v 5.2 c 0,1.8 1,2.6 2.7,2.6 0.5,0 1,-0.1 1.4,-0.2 v -1.4 c -0.2,0.2 -0.6,0.3 -1.1,0.3 -0.7,0 -1.4,-0.6 -1.4,-1.6 v -4.8 h 2.3 z"
   id="path264" />
        <path
   class="st7"
   d="m 232,163.4 c 0.1,-1.1 0.8,-2.5 2.4,-2.5 1.4,0 2.2,1.1 2.2,2.5 z m 5.6,3.2 c -0.4,0.3 -1.7,0.9 -2.7,0.9 -1.5,0 -2.9,-1.2 -2.9,-3 h 6.3 c 0,-2.9 -1,-5 -3.9,-5 -2.5,0 -4.2,1.9 -4.2,4.5 0,2.9 1.4,4.8 4.6,4.8 1.5,0 2.2,-0.4 2.8,-0.6 z"
   id="path266" />
        <path
   class="st7"
   d="m 246.5,164.2 c 0,-1.7 1,-3.3 2.8,-3.3 1.7,0 2.8,1.6 2.8,3.3 0,1.6 -0.9,3.3 -2.8,3.3 -2,0 -2.8,-1.7 -2.8,-3.3 z m -1.8,0 c 0,2.5 1.8,4.6 4.5,4.6 2.7,0 4.5,-2.1 4.5,-4.6 0,-2.7 -1.8,-4.6 -4.5,-4.6 -2.7,0 -4.5,1.9 -4.5,4.6 z"
   id="path268" />
        <path
   class="st7"
   d="m 257,168.6 h 1.6 v -7.5 h 2.3 v -1.3 h -2.3 v -1 c 0,-1.2 0.2,-2.1 1.6,-2.1 0.3,0 0.6,0 0.8,0.1 l 0.1,-1.3 c -0.3,-0.1 -0.7,-0.1 -1.1,-0.1 -2.4,0 -3,1.4 -3,3.6 v 0.8 h -2.1 v 1.3 h 2.1 z"
   id="path270" />
        <polygon
   class="st7"
   points="270.1,158 270.1,168.6 271.8,168.6 271.8,158 275.6,158 275.6,156.5 266.3,156.5 266.3,158 "
   id="polygon272" />
        <path
   class="st7"
   d="m 277.1,163.4 c 0.1,-1.1 0.8,-2.5 2.4,-2.5 1.4,0 2.2,1.1 2.2,2.5 z m 5.6,3.2 c -0.4,0.3 -1.7,0.9 -2.7,0.9 -1.5,0 -2.9,-1.2 -2.9,-3 h 6.3 c 0,-2.9 -1,-5 -3.9,-5 -2.5,0 -4.2,1.9 -4.2,4.5 0,2.9 1.4,4.8 4.6,4.8 1.5,0 2.2,-0.4 2.8,-0.6 z"
   id="path274" />
        <path
   class="st7"
   d="m 291.4,159.9 c -0.5,-0.2 -1.3,-0.3 -2,-0.3 -2.7,0 -4.5,1.9 -4.5,4.6 0,2.5 1.8,4.6 4.5,4.6 0.6,0 1.4,-0.1 2.1,-0.4 l -0.1,-1.5 c -0.5,0.3 -1.2,0.5 -1.8,0.5 -2.1,0 -3,-1.7 -3,-3.3 0,-1.7 1,-3.3 2.9,-3.3 0.5,0 1.1,0.1 1.8,0.4 z"
   id="path276" />
        <path
   class="st7"
   d="m 293.3,168.6 h 1.6 v -4.1 c 0,-2.2 0.8,-3.7 2.7,-3.7 1.4,0.1 1.9,1.1 1.9,3.2 v 4.6 h 1.6 v -5.3 c 0,-2.4 -1,-3.8 -3.3,-3.8 -1.2,0 -2.3,0.5 -2.9,1.5 v 0 -5.4 h -1.6 z"
   id="path278" />
        <path
   class="st7"
   d="m 303.9,168.6 h 1.6 v -4.1 c 0,-2.2 0.8,-3.7 2.7,-3.7 1.4,0.1 1.9,1.1 1.9,3.2 v 4.6 h 1.6 v -5.3 c 0,-2.4 -1,-3.8 -3.3,-3.8 -1.2,0 -2.4,0.6 -2.9,1.6 v 0 -1.4 h -1.6 z"
   id="path280" />
        <path
   class="st7"
   d="m 315.7,164.2 c 0,-1.7 1,-3.3 2.8,-3.3 1.7,0 2.8,1.6 2.8,3.3 0,1.6 -0.9,3.3 -2.8,3.3 -1.9,0 -2.8,-1.7 -2.8,-3.3 z m -1.7,0 c 0,2.5 1.8,4.6 4.5,4.6 2.7,0 4.5,-2.1 4.5,-4.6 0,-2.7 -1.8,-4.6 -4.5,-4.6 -2.7,0 -4.5,1.9 -4.5,4.6 z"
   id="path282" />
        <polygon
   class="st7"
   points="325.4,155.6 325.4,168.6 327,168.6 327,155.6 "
   id="polygon284" />
        <path
   class="st7"
   d="m 331.2,164.2 c 0,-1.7 1,-3.3 2.8,-3.3 1.7,0 2.8,1.6 2.8,3.3 0,1.6 -0.9,3.3 -2.8,3.3 -2,0 -2.8,-1.7 -2.8,-3.3 z m -1.8,0 c 0,2.5 1.8,4.6 4.5,4.6 2.7,0 4.5,-2.1 4.5,-4.6 0,-2.7 -1.8,-4.6 -4.5,-4.6 -2.7,0 -4.5,1.9 -4.5,4.6 z"
   id="path286" />
        <path
   class="st7"
   d="m 344.3,167.3 c -1.5,0 -2.5,-1.5 -2.5,-3.1 0,-1.5 0.8,-3.3 2.5,-3.3 1.7,0 2.6,1.6 2.6,3.4 -0.1,1.7 -1.1,3 -2.6,3 z m 4.2,-7.5 H 347 v 1.3 0 c -0.5,-1 -1.4,-1.5 -2.9,-1.5 -2.7,0 -4,2.4 -4,4.7 0,2.3 1.3,4.4 3.8,4.4 1.1,0 2.3,-0.5 3,-1.4 v 0 0.9 c 0,1.9 -1,3 -2.7,3 -1.2,0 -1.9,-0.2 -3.2,-0.8 l -0.2,1.5 c 1.4,0.5 2.2,0.6 3.2,0.6 3.2,0 4.6,-1.5 4.6,-4.2 v -8.5 z"
   id="path288" />
        <path
   class="st7"
   d="m 350.5,172.4 c 0.3,0.1 0.6,0.1 1.1,0.1 2.2,0 2.8,-2 3.4,-3.7 l 3.3,-9.1 h -1.7 l -2.4,7.3 v 0 l -2.4,-7.3 H 350 l 3,8.3 c 0.1,0.3 0.3,0.8 0.3,0.9 0,0.2 -0.5,2.2 -1.9,2.2 -0.3,0 -0.6,-0.1 -0.8,-0.1 z"
   id="path290" />
    </g>
</g>
<g
   id="UNI"
   transform="translate(-59.891543,-63)">
    <g
   id="g627">
        <g
   id="g625">
            <defs
   id="defs296">
                <rect
   id="SVGID_00000013164927577880865460000011708249262971847058_"
   x="-26.9"
   y="-18.799999"
   width="509.60001"
   height="254.8" />
            </defs>
            <clipPath
   id="SVGID_00000174591720466042454040000006667728150026497190_">
                <use
   xlink:href="#SVGID_00000013164927577880865460000011708249262971847058_"
   style="overflow:visible"
   id="use298"
   x="0"
   y="0"
   width="100%"
   height="100%" />
            </clipPath>
            <g
   clip-path="url(#SVGID_00000174591720466042454040000006667728150026497190_)"
   id="g623">
                <path
   class="st12"
   d="m 103.8,105.3 c -1,0 -1.7,0.8 -1.7,1.7 0,0.9 0.8,1.7 1.7,1.7 1,0 1.7,-0.8 1.7,-1.7 0,-0.9 -0.8,-1.7 -1.7,-1.7"
   id="path301" />
                <path
   class="st12"
   d="m 108.1,104.4 c 0,-0.9 -0.8,-1.7 -1.7,-1.7 -0.9,0 -1.7,0.8 -1.7,1.7 0,0.9 0.8,1.7 1.7,1.7 0.9,0 1.7,-0.8 1.7,-1.7"
   id="path303" />
                <path
   class="st12"
   d="m 108.1,109.7 c 0,-0.9 -0.8,-1.7 -1.7,-1.7 -0.9,0 -1.7,0.8 -1.7,1.7 0,0.9 0.8,1.7 1.7,1.7 0.9,0 1.7,-0.8 1.7,-1.7"
   id="path305" />
                <path
   class="st12"
   d="m 109.3,105.2 c -0.9,0 -1.7,0.8 -1.7,1.7 0,0.9 0.8,1.7 1.7,1.7 0.9,0 1.7,-0.8 1.7,-1.7 0,-0.9 -0.7,-1.7 -1.7,-1.7"
   id="path307" />
                <path
   class="st12"
   d="m 112.5,102.6 c -0.9,0 -1.7,0.8 -1.7,1.7 0,0.9 0.8,1.7 1.7,1.7 0.9,0 1.7,-0.8 1.7,-1.7 0,-1 -0.7,-1.7 -1.7,-1.7"
   id="path309" />
                <path
   class="st12"
   d="m 112.5,108 c -0.9,0 -1.7,0.8 -1.7,1.7 0,0.9 0.8,1.7 1.7,1.7 0.9,0 1.7,-0.8 1.7,-1.7 0,-0.9 -0.8,-1.7 -1.7,-1.7"
   id="path311" />
                <path
   class="st12"
   d="m 109.2,114.1 c 0.9,0 1.7,-0.8 1.7,-1.7 0,-0.9 -0.8,-1.7 -1.7,-1.7 -0.9,0 -1.7,0.8 -1.7,1.7 0,0.9 0.7,1.7 1.7,1.7"
   id="path313" />
                <path
   class="st12"
   d="m 108.2,115.7 c 0,-0.9 -0.8,-1.7 -1.7,-1.7 -0.9,0 -1.7,0.8 -1.7,1.7 0,1 0.8,1.7 1.7,1.7 0.9,0 1.7,-0.8 1.7,-1.7"
   id="path315" />
                <path
   class="st12"
   d="m 103.9,121 c 0.9,0 1.7,-0.8 1.7,-1.7 0,-0.9 -0.8,-1.7 -1.7,-1.7 -0.9,0 -1.7,0.8 -1.7,1.7 0,0.9 0.8,1.7 1.7,1.7"
   id="path317" />
                <path
   class="st12"
   d="m 116.1,105.2 c -0.9,0 -1.7,0.8 -1.7,1.7 0,0.9 0.8,1.7 1.7,1.7 0.9,0 1.7,-0.8 1.7,-1.7 0,-0.9 -0.7,-1.7 -1.7,-1.7"
   id="path319" />
                <path
   class="st12"
   d="m 116,110.9 c -0.9,0 -1.7,0.8 -1.7,1.7 0,0.9 0.8,1.7 1.7,1.7 0.9,0 1.7,-0.8 1.7,-1.7 0,-0.9 -0.8,-1.7 -1.7,-1.7"
   id="path321" />
                <path
   class="st12"
   d="m 119.9,108.4 c -0.9,0 -1.7,0.8 -1.7,1.7 0,0.9 0.8,1.7 1.7,1.7 1,0 1.7,-0.8 1.7,-1.7 0,-1 -0.7,-1.7 -1.7,-1.7"
   id="path323" />
                <path
   class="st12"
   d="m 121.2,115.9 c 0,-0.9 -0.8,-1.7 -1.7,-1.7 -0.9,0 -1.7,0.8 -1.7,1.7 0,0.9 0.8,1.7 1.7,1.7 0.9,0 1.7,-0.8 1.7,-1.7"
   id="path325" />
                <path
   class="st12"
   d="m 117.1,118.4 c 0,-0.9 -0.8,-1.7 -1.7,-1.7 -0.9,0 -1.7,0.8 -1.7,1.7 0,1 0.8,1.7 1.7,1.7 0.9,0 1.7,-0.7 1.7,-1.7"
   id="path327" />
                <path
   class="st12"
   d="m 109.5,120.8 c 0.9,0 1.7,-0.8 1.7,-1.7 0,-0.9 -0.8,-1.7 -1.7,-1.7 -0.9,0 -1.7,0.8 -1.7,1.7 0,0.9 0.7,1.7 1.7,1.7"
   id="path329" />
                <path
   class="st12"
   d="m 106.8,124.8 c 0.9,0 1.7,-0.8 1.7,-1.7 0,-1 -0.8,-1.7 -1.7,-1.7 -0.9,0 -1.7,0.8 -1.7,1.7 0,0.9 0.8,1.7 1.7,1.7"
   id="path331" />
                <path
   class="st12"
   d="m 103.9,129 c 0.9,0 1.7,-0.8 1.7,-1.7 0,-1 -0.8,-1.7 -1.7,-1.7 -0.9,0 -1.7,0.8 -1.7,1.7 0,0.9 0.7,1.7 1.7,1.7"
   id="path333" />
                <path
   class="st12"
   d="m 113.9,115.3 c 0,-0.9 -0.8,-1.7 -1.7,-1.7 -0.9,0 -1.7,0.8 -1.7,1.7 0,0.9 0.8,1.7 1.7,1.7 0.9,0 1.7,-0.8 1.7,-1.7"
   id="path335" />
                <path
   class="st12"
   d="m 123.9,111.5 c -0.9,0 -1.7,0.8 -1.7,1.7 0,0.9 0.8,1.7 1.7,1.7 0.9,0 1.7,-0.8 1.7,-1.7 0,-0.9 -0.7,-1.7 -1.7,-1.7"
   id="path337" />
                <path
   class="st12"
   d="m 123.3,117.6 c -0.9,0 -1.7,0.8 -1.7,1.7 0,0.9 0.8,1.7 1.7,1.7 0.9,0 1.7,-0.8 1.7,-1.7 0,-0.9 -0.8,-1.7 -1.7,-1.7"
   id="path339" />
                <path
   class="st12"
   d="m 127.5,121.3 c -0.9,0 -1.7,0.8 -1.7,1.7 0,0.9 0.8,1.7 1.7,1.7 0.9,0 1.7,-0.8 1.7,-1.7 0,-0.9 -0.8,-1.7 -1.7,-1.7"
   id="path341" />
                <path
   class="st12"
   d="m 122.3,123.7 c -0.9,0 -1.7,0.8 -1.7,1.7 0,0.9 0.8,1.7 1.7,1.7 0.9,0 1.7,-0.8 1.7,-1.7 0,-1 -0.7,-1.7 -1.7,-1.7"
   id="path343" />
                <path
   class="st12"
   d="m 120.5,121.9 c 0,-0.9 -0.8,-1.7 -1.7,-1.7 -0.9,0 -1.7,0.8 -1.7,1.7 0,0.9 0.8,1.7 1.7,1.7 0.9,0 1.7,-0.8 1.7,-1.7"
   id="path345" />
                <path
   class="st12"
   d="m 116.2,128.1 c 0.9,0 1.7,-0.8 1.7,-1.7 0,-0.9 -0.8,-1.7 -1.7,-1.7 -0.9,0 -1.7,0.8 -1.7,1.7 0,1 0.8,1.7 1.7,1.7"
   id="path347" />
                <path
   class="st12"
   d="m 110,128.8 c 0.9,0 1.7,-0.8 1.7,-1.7 0,-1 -0.8,-1.7 -1.7,-1.7 -1,0 -1.7,0.8 -1.7,1.7 0,0.9 0.8,1.7 1.7,1.7"
   id="path349" />
                <path
   class="st12"
   d="m 114.4,122.6 c 0,-0.9 -0.8,-1.7 -1.7,-1.7 -0.9,0 -1.7,0.8 -1.7,1.7 0,0.9 0.8,1.7 1.7,1.7 0.9,0.1 1.7,-0.7 1.7,-1.7"
   id="path351" />
                <path
   class="st12"
   d="m 126.3,127.7 c -0.9,0 -1.7,0.8 -1.7,1.7 0,0.9 0.8,1.7 1.7,1.7 1,0 1.7,-0.8 1.7,-1.7 0,-0.9 -0.8,-1.7 -1.7,-1.7"
   id="path353" />
                <path
   class="st12"
   d="m 119.8,128.9 c -0.9,0 -1.7,0.8 -1.7,1.7 0,0.9 0.8,1.7 1.7,1.7 1,0 1.7,-0.8 1.7,-1.7 0,-0.9 -0.7,-1.7 -1.7,-1.7"
   id="path355" />
                <path
   class="st12"
   d="m 117,133.9 c -0.9,0 -1.7,0.8 -1.7,1.7 0,0.9 0.8,1.7 1.7,1.7 0.9,0 1.7,-0.8 1.7,-1.7 0,-0.9 -0.7,-1.7 -1.7,-1.7"
   id="path357" />
                <path
   class="st12"
   d="m 113.4,129.6 c -0.9,0 -1.7,0.8 -1.7,1.7 0,1 0.8,1.7 1.7,1.7 0.9,0 1.7,-0.8 1.7,-1.7 0,-0.9 -0.8,-1.7 -1.7,-1.7"
   id="path359" />
                <path
   class="st12"
   d="m 110.4,134.7 c -0.9,0 -1.7,0.8 -1.7,1.7 0,0.9 0.8,1.7 1.7,1.7 1,0 1.7,-0.8 1.7,-1.7 0,-0.9 -0.7,-1.7 -1.7,-1.7"
   id="path361" />
                <path
   class="st12"
   d="m 107,130 c -0.9,0 -1.7,0.8 -1.7,1.7 0,0.9 0.8,1.7 1.7,1.7 0.9,0 1.7,-0.8 1.7,-1.7 0,-0.9 -0.8,-1.7 -1.7,-1.7"
   id="path363" />
                <path
   class="st12"
   d="m 103.9,135.1 c -0.9,0 -1.7,0.8 -1.7,1.7 0,0.9 0.8,1.7 1.7,1.7 0.9,0 1.7,-0.8 1.7,-1.7 0,-1 -0.8,-1.7 -1.7,-1.7"
   id="path365" />
                <path
   class="st12"
   d="m 100.6,130 c -0.9,0 -1.7,0.8 -1.7,1.7 0,0.9 0.8,1.7 1.7,1.7 1,0 1.7,-0.8 1.7,-1.7 0,-0.9 -0.7,-1.7 -1.7,-1.7"
   id="path367" />
                <path
   class="st12"
   d="m 97.2,134.7 c -0.9,0 -1.7,0.8 -1.7,1.7 0,0.9 0.8,1.7 1.7,1.7 1,0 1.7,-0.8 1.7,-1.7 0,-0.9 -0.8,-1.7 -1.7,-1.7"
   id="path369" />
                <path
   class="st12"
   d="m 90.8,133.9 c -0.9,0 -1.7,0.8 -1.7,1.7 0,0.9 0.8,1.7 1.7,1.7 1,0 1.7,-0.8 1.7,-1.7 0,-0.9 -0.8,-1.7 -1.7,-1.7"
   id="path371" />
                <path
   class="st12"
   d="m 128.2,114.8 c -0.9,0 -1.7,0.8 -1.7,1.7 0,0.9 0.8,1.7 1.7,1.7 0.9,0 1.7,-0.8 1.7,-1.7 0,-0.9 -0.7,-1.7 -1.7,-1.7"
   id="path373" />
                <path
   class="st12"
   d="m 132.5,118.3 c -0.9,0 -1.7,0.8 -1.7,1.7 0,0.9 0.8,1.7 1.7,1.7 0.9,0 1.7,-0.8 1.7,-1.7 0,-0.9 -0.8,-1.7 -1.7,-1.7"
   id="path375" />
                <path
   class="st12"
   d="m 133.3,111.9 c -0.9,0 -1.7,0.8 -1.7,1.7 0,1 0.8,1.7 1.7,1.7 0.9,0 1.7,-0.8 1.7,-1.7 0,-1 -0.7,-1.7 -1.7,-1.7"
   id="path377" />
                <path
   class="st12"
   d="m 128.6,108.5 c -0.9,0 -1.7,0.8 -1.7,1.7 0,0.9 0.8,1.7 1.7,1.7 0.9,0 1.7,-0.8 1.7,-1.7 0,-0.9 -0.8,-1.7 -1.7,-1.7"
   id="path379" />
                <path
   class="st12"
   d="m 133.6,105.3 c -0.9,0 -1.7,0.8 -1.7,1.7 0,0.9 0.8,1.7 1.7,1.7 1,0 1.7,-0.8 1.7,-1.7 0,-1 -0.8,-1.7 -1.7,-1.7"
   id="path381" />
                <path
   class="st12"
   d="m 128.6,102.2 c -0.9,0 -1.7,0.8 -1.7,1.7 0,0.9 0.8,1.7 1.7,1.7 0.9,0 1.7,-0.8 1.7,-1.7 0,-1 -0.8,-1.7 -1.7,-1.7"
   id="path383" />
                <path
   class="st12"
   d="m 131.6,100.4 c 0,0.9 0.8,1.7 1.7,1.7 1,0 1.7,-0.8 1.7,-1.7 0,-0.9 -0.8,-1.7 -1.7,-1.7 -0.9,0 -1.7,0.7 -1.7,1.7"
   id="path385" />
                <path
   class="st12"
   d="m 126.5,97.4 c 0,0.9 0.8,1.7 1.7,1.7 0.9,0 1.7,-0.8 1.7,-1.7 0,-0.9 -0.8,-1.7 -1.7,-1.7 -1,0 -1.7,0.8 -1.7,1.7"
   id="path387" />
                <path
   class="st12"
   d="m 132.5,95.5 c 0.9,0 1.7,-0.8 1.7,-1.7 0,-0.9 -0.8,-1.7 -1.7,-1.7 -0.9,0 -1.7,0.8 -1.7,1.7 0,0.9 0.7,1.7 1.7,1.7"
   id="path389" />
                <path
   class="st12"
   d="m 125.8,91 c 0,0.9 0.8,1.7 1.7,1.7 0.9,0 1.7,-0.8 1.7,-1.7 0,-0.9 -0.8,-1.7 -1.7,-1.7 -1,0 -1.7,0.8 -1.7,1.7"
   id="path391" />
                <path
   class="st12"
   d="m 126.3,86.4 c 0.9,0 1.7,-0.8 1.7,-1.7 0,-1 -0.8,-1.7 -1.7,-1.7 -0.9,0 -1.7,0.8 -1.7,1.7 0,0.9 0.7,1.7 1.7,1.7"
   id="path393" />
                <path
   class="st12"
   d="m 120.6,88.6 c 0,0.9 0.8,1.7 1.7,1.7 0.9,0 1.7,-0.8 1.7,-1.7 0,-1 -0.8,-1.7 -1.7,-1.7 -0.9,0 -1.7,0.8 -1.7,1.7"
   id="path395" />
                <path
   class="st12"
   d="m 118.7,90.4 c -0.9,0 -1.7,0.8 -1.7,1.7 0,0.9 0.8,1.7 1.7,1.7 1,0 1.7,-0.8 1.7,-1.7 0,-0.9 -0.7,-1.7 -1.7,-1.7"
   id="path397" />
                <path
   class="st12"
   d="m 113.6,95.6 c 0,0.9 0.8,1.7 1.7,1.7 1,0 1.7,-0.8 1.7,-1.7 0,-0.9 -0.8,-1.7 -1.7,-1.7 -0.9,0 -1.7,0.8 -1.7,1.7"
   id="path399" />
                <path
   class="st12"
   d="m 112.7,89.7 c -0.9,0 -1.7,0.8 -1.7,1.7 0,1 0.8,1.7 1.7,1.7 1,0 1.7,-0.8 1.7,-1.7 0,-1 -0.7,-1.7 -1.7,-1.7"
   id="path401" />
                <path
   class="st12"
   d="m 110,85.3 c -0.9,0 -1.7,0.8 -1.7,1.7 0,0.9 0.8,1.7 1.7,1.7 0.9,0 1.7,-0.8 1.7,-1.7 0,-1 -0.7,-1.7 -1.7,-1.7"
   id="path403" />
                <path
   class="st12"
   d="m 106.8,89.2 c -0.9,0 -1.7,0.8 -1.7,1.7 0,0.9 0.8,1.7 1.7,1.7 0.9,0 1.7,-0.8 1.7,-1.7 0,-0.9 -0.7,-1.7 -1.7,-1.7"
   id="path405" />
                <path
   class="st12"
   d="m 100.8,89.2 c -0.9,0 -1.7,0.8 -1.7,1.7 0,0.9 0.8,1.7 1.7,1.7 0.9,0 1.7,-0.8 1.7,-1.7 0,-0.9 -0.8,-1.7 -1.7,-1.7"
   id="path407" />
                <path
   class="st12"
   d="m 98.2,93.2 c -0.9,0 -1.7,0.8 -1.7,1.7 0,0.9 0.8,1.7 1.7,1.7 0.9,0 1.7,-0.8 1.7,-1.7 0,-0.9 -0.8,-1.7 -1.7,-1.7"
   id="path409" />
                <path
   class="st12"
   d="m 99.3,98.4 c 0,0.9 0.8,1.7 1.7,1.7 1,0 1.7,-0.8 1.7,-1.7 0,-1 -0.8,-1.7 -1.7,-1.7 -0.9,0 -1.7,0.7 -1.7,1.7"
   id="path411" />
                <path
   class="st12"
   d="m 93.8,98.7 c 0,0.9 0.8,1.7 1.7,1.7 0.9,0 1.7,-0.8 1.7,-1.7 0,-0.9 -0.8,-1.7 -1.7,-1.7 -0.9,0 -1.7,0.8 -1.7,1.7"
   id="path413" />
                <path
   class="st12"
   d="m 91.7,99.7 c -0.9,0 -1.7,0.8 -1.7,1.7 0,0.9 0.8,1.7 1.7,1.7 1,0 1.7,-0.8 1.7,-1.7 0,-1 -0.7,-1.7 -1.7,-1.7"
   id="path415" />
                <path
   class="st12"
   d="m 87.7,105.7 c 0.9,0 1.7,-0.8 1.7,-1.7 0,-1 -0.8,-1.7 -1.7,-1.7 -0.9,0 -1.7,0.8 -1.7,1.7 0,0.9 0.8,1.7 1.7,1.7"
   id="path417" />
                <path
   class="st12"
   d="m 86.5,98.1 c 0,0.9 0.8,1.7 1.7,1.7 0.9,0 1.7,-0.8 1.7,-1.7 0,-0.9 -0.8,-1.7 -1.7,-1.7 -0.9,0 -1.7,0.8 -1.7,1.7"
   id="path419" />
                <path
   class="st12"
   d="m 82,100.8 c 0,0.9 0.8,1.7 1.7,1.7 1,0 1.7,-0.8 1.7,-1.7 0,-1 -0.8,-1.7 -1.7,-1.7 -0.9,0 -1.7,0.8 -1.7,1.7"
   id="path421" />
                <path
   class="st12"
   d="m 79,105.5 c 0.9,0 1.7,-0.8 1.7,-1.7 0,-1 -0.8,-1.7 -1.7,-1.7 -0.9,0 -1.7,0.8 -1.7,1.7 0,1 0.8,1.7 1.7,1.7"
   id="path423" />
                <path
   class="st12"
   d="m 74.3,102.1 c 0.9,0 1.7,-0.8 1.7,-1.7 0,-0.9 -0.8,-1.7 -1.7,-1.7 -0.9,0 -1.7,0.8 -1.7,1.7 0,0.9 0.8,1.7 1.7,1.7"
   id="path425" />
                <path
   class="st12"
   d="m 79.5,99.1 c 0.9,0 1.7,-0.8 1.7,-1.7 0,-0.9 -0.8,-1.7 -1.7,-1.7 -1,0 -1.7,0.8 -1.7,1.7 0,1 0.7,1.7 1.7,1.7"
   id="path427" />
                <path
   class="st12"
   d="m 75.2,92.1 c -0.9,0 -1.7,0.8 -1.7,1.7 0,0.9 0.8,1.7 1.7,1.7 1,0 1.7,-0.8 1.7,-1.7 0,-1 -0.7,-1.7 -1.7,-1.7"
   id="path429" />
                <path
   class="st12"
   d="m 80.2,92.8 c 0.9,0 1.7,-0.8 1.7,-1.7 0,-1 -0.8,-1.7 -1.7,-1.7 -1,0 -1.7,0.8 -1.7,1.7 0,0.9 0.8,1.7 1.7,1.7"
   id="path431" />
                <path
   class="st12"
   d="m 84.4,92.9 c -0.9,0 -1.7,0.8 -1.7,1.7 0,0.9 0.8,1.7 1.7,1.7 0.9,0 1.7,-0.8 1.7,-1.7 0,-0.9 -0.8,-1.7 -1.7,-1.7"
   id="path433" />
                <path
   class="st12"
   d="m 87.3,92.1 c 0,0.9 0.8,1.7 1.7,1.7 1,0 1.7,-0.8 1.7,-1.7 0,-0.9 -0.8,-1.7 -1.7,-1.7 -0.9,0 -1.7,0.8 -1.7,1.7"
   id="path435" />
                <path
   class="st12"
   d="m 90.6,95.6 c 0,0.9 0.8,1.7 1.7,1.7 1,0 1.7,-0.8 1.7,-1.7 0,-0.9 -0.8,-1.7 -1.7,-1.7 -0.9,0 -1.7,0.8 -1.7,1.7"
   id="path437" />
                <path
   class="st12"
   d="m 83.5,108.6 c 0.9,0 1.7,-0.8 1.7,-1.7 0,-1 -0.8,-1.7 -1.7,-1.7 -1,0 -1.7,0.8 -1.7,1.7 0,1 0.8,1.7 1.7,1.7"
   id="path439" />
                <path
   class="st12"
   d="m 103.9,93 c -0.9,0 -1.7,0.8 -1.7,1.7 0,0.9 0.8,1.7 1.7,1.7 1,0 1.7,-0.8 1.7,-1.7 0,-0.9 -0.8,-1.7 -1.7,-1.7"
   id="path441" />
                <path
   class="st12"
   d="m 116.2,85.8 c -0.9,0 -1.7,0.8 -1.7,1.7 0,0.9 0.8,1.7 1.7,1.7 0.9,0 1.7,-0.8 1.7,-1.7 0,-0.9 -0.8,-1.7 -1.7,-1.7"
   id="path443" />
                <path
   class="st12"
   d="m 118.1,83.3 c 0,0.9 0.8,1.7 1.7,1.7 1,0 1.7,-0.8 1.7,-1.7 0,-0.9 -0.8,-1.7 -1.7,-1.7 -0.9,0 -1.7,0.8 -1.7,1.7"
   id="path445" />
                <path
   class="st12"
   d="m 113.4,84.4 c 0.9,0 1.7,-0.8 1.7,-1.7 0,-1 -0.8,-1.7 -1.7,-1.7 -0.9,0 -1.7,0.8 -1.7,1.7 0,0.9 0.8,1.7 1.7,1.7"
   id="path447" />
                <path
   class="st12"
   d="m 117,80.1 c 0.9,0 1.7,-0.8 1.7,-1.7 0,-1 -0.8,-1.7 -1.7,-1.7 -0.9,0 -1.7,0.8 -1.7,1.7 0,0.9 0.8,1.7 1.7,1.7"
   id="path449" />
                <path
   class="st12"
   d="m 110.4,79.3 c 0.9,0 1.7,-0.8 1.7,-1.7 0,-1 -0.8,-1.7 -1.7,-1.7 -1,0 -1.7,0.8 -1.7,1.7 0,0.9 0.8,1.7 1.7,1.7"
   id="path451" />
                <path
   class="st12"
   d="m 103.9,78.9 c 0.9,0 1.7,-0.8 1.7,-1.7 0,-1 -0.8,-1.7 -1.7,-1.7 -0.9,0 -1.7,0.8 -1.7,1.7 0,1 0.7,1.7 1.7,1.7"
   id="path453" />
                <path
   class="st12"
   d="m 97.2,79.2 c 0.9,0 1.7,-0.8 1.7,-1.7 0,-0.9 -0.8,-1.7 -1.7,-1.7 -0.9,0 -1.7,0.8 -1.7,1.7 0,0.9 0.8,1.7 1.7,1.7"
   id="path455" />
                <path
   class="st12"
   d="m 90.8,80.1 c 0.9,0 1.7,-0.8 1.7,-1.7 0,-1 -0.8,-1.7 -1.7,-1.7 -1,0 -1.7,0.8 -1.7,1.7 0,0.9 0.7,1.7 1.7,1.7"
   id="path457" />
                <path
   class="st12"
   d="m 100.6,84 c 0.9,0 1.7,-0.8 1.7,-1.7 0,-0.9 -0.8,-1.7 -1.7,-1.7 -0.9,0 -1.7,0.8 -1.7,1.7 0,0.9 0.8,1.7 1.7,1.7"
   id="path459" />
                <path
   class="st12"
   d="m 94.3,84.4 c 0.9,0 1.7,-0.8 1.7,-1.7 0,-1 -0.8,-1.7 -1.7,-1.7 -0.9,0 -1.7,0.8 -1.7,1.7 0,0.9 0.7,1.7 1.7,1.7"
   id="path461" />
                <path
   class="st12"
   d="m 91.5,85.8 c -0.9,0 -1.7,0.8 -1.7,1.7 0,0.9 0.8,1.7 1.7,1.7 0.9,0 1.7,-0.8 1.7,-1.7 0,-0.9 -0.8,-1.7 -1.7,-1.7"
   id="path463" />
                <path
   class="st12"
   d="m 85.3,90.3 c 0.9,0 1.7,-0.8 1.7,-1.7 0,-1 -0.8,-1.7 -1.7,-1.7 -0.9,0 -1.7,0.8 -1.7,1.7 0,1 0.8,1.7 1.7,1.7"
   id="path465" />
                <path
   class="st12"
   d="m 81.7,86.3 c 0.9,0 1.7,-0.8 1.7,-1.7 0,-1 -0.8,-1.7 -1.7,-1.7 -0.9,0 -1.7,0.8 -1.7,1.7 0,0.9 0.8,1.7 1.7,1.7"
   id="path467" />
                <path
   class="st12"
   d="m 87.9,85.1 c 0.9,0 1.7,-0.8 1.7,-1.7 0,-1 -0.8,-1.7 -1.7,-1.7 -0.9,0 -1.7,0.8 -1.7,1.7 0,0.9 0.7,1.7 1.7,1.7"
   id="path469" />
                <path
   class="st12"
   d="m 93.3,91.3 c 0,0.9 0.8,1.7 1.7,1.7 0.9,0 1.7,-0.8 1.7,-1.7 0,-1 -0.8,-1.7 -1.7,-1.7 -0.9,0 -1.7,0.8 -1.7,1.7"
   id="path471" />
                <path
   class="st12"
   d="m 97.6,85.2 c -0.9,0 -1.7,0.8 -1.7,1.7 0,0.9 0.8,1.7 1.7,1.7 1,0 1.7,-0.8 1.7,-1.7 0,-0.9 -0.8,-1.7 -1.7,-1.7"
   id="path473" />
                <path
   class="st12"
   d="m 107,84 c 0.9,0 1.7,-0.8 1.7,-1.7 0,-1 -0.8,-1.7 -1.7,-1.7 -0.9,0 -1.7,0.8 -1.7,1.7 -0.1,0.9 0.7,1.7 1.7,1.7"
   id="path475" />
                <path
   class="st12"
   d="m 103.9,85 c -0.9,0 -1.7,0.8 -1.7,1.7 0,0.9 0.8,1.7 1.7,1.7 1,0 1.7,-0.8 1.7,-1.7 0,-1 -0.8,-1.7 -1.7,-1.7"
   id="path477" />
                <path
   class="st12"
   d="m 113.8,98.7 c 0,-0.9 -0.8,-1.7 -1.7,-1.7 -0.9,0 -1.7,0.8 -1.7,1.7 0,1 0.8,1.7 1.7,1.7 0.9,0 1.7,-0.8 1.7,-1.7"
   id="path479" />
                <path
   class="st12"
   d="m 109.2,99.9 c -0.9,0 -1.7,0.8 -1.7,1.7 0,0.9 0.8,1.7 1.7,1.7 0.9,0 1.7,-0.8 1.7,-1.7 0,-0.9 -0.7,-1.7 -1.7,-1.7"
   id="path481" />
                <path
   class="st12"
   d="m 104.9,98.3 c 0,0.9 0.8,1.7 1.7,1.7 1,0 1.7,-0.8 1.7,-1.7 0,-0.9 -0.8,-1.7 -1.7,-1.7 -0.9,0 -1.7,0.8 -1.7,1.7"
   id="path483" />
                <path
   class="st12"
   d="m 103.9,99.8 c -0.9,0 -1.7,0.8 -1.7,1.7 0,0.9 0.8,1.7 1.7,1.7 0.9,0 1.7,-0.8 1.7,-1.7 0,-0.9 -0.8,-1.7 -1.7,-1.7"
   id="path485" />
                <path
   class="st12"
   d="m 99.5,104.4 c 0,0.9 0.8,1.7 1.7,1.7 1,0 1.7,-0.8 1.7,-1.7 0,-1 -0.8,-1.7 -1.7,-1.7 -0.9,0 -1.7,0.7 -1.7,1.7"
   id="path487" />
                <path
   class="st12"
   d="m 98.5,99.9 c -0.9,0 -1.7,0.8 -1.7,1.7 0,0.9 0.8,1.7 1.7,1.7 0.9,0 1.7,-0.8 1.7,-1.7 0,-0.9 -0.8,-1.7 -1.7,-1.7"
   id="path489" />
                <path
   class="st12"
   d="m 98.3,108.7 c 0.9,0 1.7,-0.8 1.7,-1.7 0,-1 -0.8,-1.7 -1.7,-1.7 -0.9,0 -1.7,0.8 -1.7,1.7 0,0.9 0.8,1.7 1.7,1.7"
   id="path491" />
                <path
   class="st12"
   d="m 95.1,106 c 0.9,0 1.7,-0.8 1.7,-1.7 0,-1 -0.8,-1.7 -1.7,-1.7 -0.9,0 -1.7,0.8 -1.7,1.7 0,0.9 0.8,1.7 1.7,1.7"
   id="path493" />
                <path
   class="st12"
   d="m 95.1,111.5 c 0.9,0 1.7,-0.8 1.7,-1.7 0,-0.9 -0.8,-1.7 -1.7,-1.7 -0.9,0 -1.7,0.8 -1.7,1.7 0,0.9 0.8,1.7 1.7,1.7"
   id="path495" />
                <path
   class="st12"
   d="m 91.5,108.6 c 0.9,0 1.7,-0.8 1.7,-1.7 0,-0.9 -0.8,-1.7 -1.7,-1.7 -0.9,0 -1.7,0.8 -1.7,1.7 0,1 0.8,1.7 1.7,1.7"
   id="path497" />
                <path
   class="st12"
   d="m 91.8,114.4 c 0.9,0 1.7,-0.8 1.7,-1.7 0,-1 -0.8,-1.7 -1.7,-1.7 -0.9,0 -1.7,0.8 -1.7,1.7 0,0.9 0.8,1.7 1.7,1.7"
   id="path499" />
                <path
   class="st12"
   d="m 87.7,111.8 c 0.9,0 1.7,-0.8 1.7,-1.7 0,-0.9 -0.8,-1.7 -1.7,-1.7 -0.9,0 -1.7,0.8 -1.7,1.7 0,0.9 0.8,1.7 1.7,1.7"
   id="path501" />
                <path
   class="st12"
   d="m 88.2,117.6 c 0.9,0 1.7,-0.8 1.7,-1.7 0,-0.9 -0.8,-1.7 -1.7,-1.7 -0.9,0 -1.7,0.8 -1.7,1.7 0,0.9 0.8,1.7 1.7,1.7"
   id="path503" />
                <path
   class="st12"
   d="m 84.4,121.1 c 0.9,0 1.7,-0.8 1.7,-1.7 0,-0.9 -0.8,-1.7 -1.7,-1.7 -0.9,0 -1.7,0.8 -1.7,1.7 0,0.9 0.7,1.7 1.7,1.7"
   id="path505" />
                <path
   class="st12"
   d="m 81.2,116.6 c 0,-0.9 -0.8,-1.7 -1.7,-1.7 -0.9,0 -1.7,0.8 -1.7,1.7 0,0.9 0.8,1.7 1.7,1.7 0.9,0 1.7,-0.8 1.7,-1.7"
   id="path507" />
                <path
   class="st12"
   d="m 76.1,113.6 c 0,-0.9 -0.8,-1.7 -1.7,-1.7 -0.9,0 -1.7,0.8 -1.7,1.7 0,1 0.8,1.7 1.7,1.7 0.9,0 1.7,-0.7 1.7,-1.7"
   id="path509" />
                <path
   class="st12"
   d="m 79,111.9 c 0.9,0 1.7,-0.8 1.7,-1.7 0,-0.9 -0.8,-1.7 -1.7,-1.7 -0.9,0 -1.7,0.8 -1.7,1.7 0,0.9 0.8,1.7 1.7,1.7"
   id="path511" />
                <path
   class="st12"
   d="m 74.1,108.6 c 0.9,0 1.7,-0.8 1.7,-1.7 0,-0.9 -0.8,-1.7 -1.7,-1.7 -0.9,0 -1.7,0.8 -1.7,1.7 -0.1,1 0.7,1.7 1.7,1.7"
   id="path513" />
                <path
   class="st12"
   d="m 83.7,114.9 c 0.9,0 1.7,-0.8 1.7,-1.7 0,-1 -0.8,-1.7 -1.7,-1.7 -0.9,0 -1.7,0.8 -1.7,1.7 0,0.9 0.8,1.7 1.7,1.7"
   id="path515" />
                <path
   class="st12"
   d="m 75.2,118.3 c -0.9,0 -1.7,0.8 -1.7,1.7 0,0.9 0.8,1.7 1.7,1.7 1,0 1.7,-0.8 1.7,-1.7 0,-0.9 -0.7,-1.7 -1.7,-1.7"
   id="path517" />
                <path
   class="st12"
   d="m 81.9,123 c 0,-0.9 -0.8,-1.7 -1.7,-1.7 -0.9,0 -1.7,0.8 -1.7,1.7 0,1 0.8,1.7 1.7,1.7 0.9,0 1.7,-0.7 1.7,-1.7"
   id="path519" />
                <path
   class="st12"
   d="m 102.9,109.7 c 0,-0.9 -0.8,-1.7 -1.7,-1.7 -0.9,0 -1.7,0.8 -1.7,1.7 0,0.9 0.8,1.7 1.7,1.7 0.9,0 1.7,-0.8 1.7,-1.7"
   id="path521" />
                <path
   class="st12"
   d="m 103.9,114.2 c 0.9,0 1.7,-0.8 1.7,-1.7 0,-1 -0.8,-1.7 -1.7,-1.7 -0.9,0 -1.7,0.8 -1.7,1.7 0,0.9 0.7,1.7 1.7,1.7"
   id="path523" />
                <path
   class="st12"
   d="m 102.7,115.7 c 0,-0.9 -0.8,-1.7 -1.7,-1.7 -0.9,0 -1.7,0.8 -1.7,1.7 0,1 0.8,1.7 1.7,1.7 0.9,0 1.7,-0.8 1.7,-1.7"
   id="path525" />
                <path
   class="st12"
   d="m 98.2,120.8 c 0.9,0 1.7,-0.8 1.7,-1.7 0,-0.9 -0.8,-1.7 -1.7,-1.7 -0.9,0 -1.7,0.8 -1.7,1.7 0,0.9 0.8,1.7 1.7,1.7"
   id="path527" />
                <path
   class="st12"
   d="m 100.8,124.8 c 0.9,0 1.7,-0.8 1.7,-1.7 0,-1 -0.8,-1.7 -1.7,-1.7 -0.9,0 -1.7,0.8 -1.7,1.7 0,0.9 0.7,1.7 1.7,1.7"
   id="path529" />
                <path
   class="st12"
   d="m 97.6,128.8 c 0.9,0 1.7,-0.8 1.7,-1.7 0,-0.9 -0.8,-1.7 -1.7,-1.7 -0.9,0 -1.7,0.8 -1.7,1.7 0,0.9 0.8,1.7 1.7,1.7"
   id="path531" />
                <path
   class="st12"
   d="m 91.4,128.1 c 0.9,0 1.7,-0.8 1.7,-1.7 0,-0.9 -0.8,-1.7 -1.7,-1.7 -0.9,0 -1.7,0.8 -1.7,1.7 0,1 0.8,1.7 1.7,1.7"
   id="path533" />
                <path
   class="st12"
   d="m 89,123.6 c 0.9,0 1.7,-0.8 1.7,-1.7 0,-0.9 -0.8,-1.7 -1.7,-1.7 -0.9,0 -1.7,0.8 -1.7,1.7 0,0.9 0.7,1.7 1.7,1.7"
   id="path535" />
                <path
   class="st12"
   d="m 95,124.3 c 0.9,0 1.7,-0.8 1.7,-1.7 0,-1 -0.8,-1.7 -1.7,-1.7 -0.9,0 -1.7,0.8 -1.7,1.7 0,1 0.7,1.7 1.7,1.7"
   id="path537" />
                <path
   class="st12"
   d="m 94,118.4 c 0,-0.9 -0.8,-1.7 -1.7,-1.7 -0.9,0 -1.7,0.8 -1.7,1.7 0,0.9 0.8,1.7 1.7,1.7 1,0 1.7,-0.8 1.7,-1.7"
   id="path539" />
                <path
   class="st12"
   d="m 95.5,117 c 0.9,0 1.7,-0.8 1.7,-1.7 0,-1 -0.8,-1.7 -1.7,-1.7 -0.9,0 -1.7,0.8 -1.7,1.7 0,0.9 0.8,1.7 1.7,1.7"
   id="path541" />
                <path
   class="st12"
   d="m 98.5,114.1 c 0.9,0 1.7,-0.8 1.7,-1.7 0,-0.9 -0.8,-1.7 -1.7,-1.7 -0.9,0 -1.7,0.8 -1.7,1.7 0,0.9 0.7,1.7 1.7,1.7"
   id="path543" />
                <path
   class="st12"
   d="m 87,125.4 c 0,-0.9 -0.8,-1.7 -1.7,-1.7 -0.9,0 -1.7,0.8 -1.7,1.7 0,1 0.8,1.7 1.7,1.7 0.9,0 1.7,-0.8 1.7,-1.7"
   id="path545" />
                <path
   class="st12"
   d="m 87.8,128.9 c -0.9,0 -1.7,0.8 -1.7,1.7 0,0.9 0.8,1.7 1.7,1.7 0.9,0 1.7,-0.8 1.7,-1.7 0,-0.9 -0.7,-1.7 -1.7,-1.7"
   id="path547" />
                <path
   class="st12"
   d="m 81.7,127.7 c -0.9,0 -1.7,0.8 -1.7,1.7 0,0.9 0.8,1.7 1.7,1.7 1,0 1.7,-0.8 1.7,-1.7 0,-0.9 -0.8,-1.7 -1.7,-1.7"
   id="path549" />
                <path
   class="st12"
   d="m 94.2,129.6 c -0.9,0 -1.7,0.8 -1.7,1.7 0,1 0.8,1.7 1.7,1.7 1,0 1.7,-0.8 1.7,-1.7 0,-0.9 -0.7,-1.7 -1.7,-1.7"
   id="path551" />
                <path
   class="st12"
   d="m 109.5,93.3 c -0.9,0 -1.7,0.8 -1.7,1.7 0,0.9 0.8,1.7 1.7,1.7 0.9,0 1.7,-0.8 1.7,-1.7 0,-1 -0.8,-1.7 -1.7,-1.7"
   id="path553" />
                <path
   class="st12"
   d="m 121.5,94.7 c 0,0.9 0.8,1.7 1.7,1.7 0.9,0 1.7,-0.8 1.7,-1.7 0,-0.9 -0.8,-1.7 -1.7,-1.7 -0.9,0 -1.7,0.7 -1.7,1.7"
   id="path555" />
                <path
   class="st12"
   d="m 119.5,96.5 c -0.9,0 -1.7,0.8 -1.7,1.7 0,0.9 0.8,1.7 1.7,1.7 0.9,0 1.7,-0.8 1.7,-1.7 0,-1 -0.8,-1.7 -1.7,-1.7"
   id="path557" />
                <path
   class="st12"
   d="m 123.9,102.5 c 0.9,0 1.7,-0.8 1.7,-1.7 0,-1 -0.8,-1.7 -1.7,-1.7 -0.9,0 -1.7,0.8 -1.7,1.7 0,0.9 0.7,1.7 1.7,1.7"
   id="path559" />
                <path
   class="st12"
   d="m 124.2,105.2 c -0.9,0 -1.7,0.8 -1.7,1.7 0,0.9 0.8,1.7 1.7,1.7 0.9,0 1.7,-0.8 1.7,-1.7 0,-0.9 -0.8,-1.7 -1.7,-1.7"
   id="path561" />
                <path
   class="st12"
   d="m 118.2,104 c 0,0.9 0.8,1.7 1.7,1.7 1,0 1.7,-0.8 1.7,-1.7 0,-1 -0.8,-1.7 -1.7,-1.7 -1,0 -1.7,0.8 -1.7,1.7"
   id="path563" />
                <path
   class="st12"
   d="m 115.9,103.1 c 0.9,0 1.7,-0.8 1.7,-1.7 0,-1 -0.8,-1.7 -1.7,-1.7 -0.9,0 -1.7,0.8 -1.7,1.7 0,0.9 0.8,1.7 1.7,1.7"
   id="path565" />
                <path
   class="st12"
   d="m 164.6,133 v 7.8 c -1.7,0.4 -3.4,0.7 -5.2,0.7 -3.1,0 -4.8,-1.1 -5.7,-2.1 -1,-1 -2.1,-2.8 -2.1,-6 0,-2.9 1,-4.7 1.7,-5.6 0.3,-0.4 1.1,-1.3 2.4,-1.9 0.6,-0.3 1.8,-0.6 3.4,-0.6 1.9,0 3.9,0.6 5,2.3 0.5,0.7 0.6,1.6 0.6,1.8 h -2.4 c -0.1,-0.4 -0.1,-0.7 -0.3,-1 -0.8,-1.4 -2.8,-1.4 -3.2,-1.4 -0.5,0 -1.6,0.1 -2.7,0.8 -0.4,0.3 -0.8,0.6 -1,1 -1.2,1.6 -1.2,3.7 -1.2,4.4 0,0.4 0,1.8 0.4,3.1 0.2,0.6 0.7,1.8 2.2,2.7 0.5,0.3 1.5,0.8 3.1,0.8 0.7,0 1.4,-0.1 2.8,-0.4 V 135 h -3.6 v -1.8 z"
   id="path567" />
                <path
   class="st12"
   d="m 169.4,136.4 c 0,0.3 0,0.6 0.1,0.8 0.1,0.5 0.2,1.5 1.3,2.3 0.7,0.5 1.3,0.5 1.6,0.5 0.9,0 1.7,-0.4 2.1,-1.2 0.1,-0.3 0.3,-0.5 0.4,-1.1 h 2.1 c -0.2,0.9 -0.3,1.6 -0.9,2.3 -0.6,0.8 -1.7,1.5 -3.9,1.5 -0.5,0 -1.8,-0.1 -3,-1 -1.4,-1.1 -1.9,-2.9 -1.9,-4.7 0,-2.1 0.8,-3.5 1.3,-4.1 0.9,-1.1 2.3,-1.7 3.8,-1.7 0.8,0 1.4,0.2 1.8,0.3 1.9,0.7 2.6,2.5 2.7,3.2 0.2,0.9 0.2,1.8 0.2,2.7 z m 5.4,-1.6 c 0,-0.2 0,-0.4 0,-0.7 -0.1,-0.4 -0.2,-1.3 -1.2,-2 -0.6,-0.4 -1.2,-0.4 -1.5,-0.4 -0.3,0 -0.8,0 -1.4,0.4 -1,0.6 -1.2,1.6 -1.4,2.8 z"
   id="path569" />
                <path
   class="st12"
   d="m 181.6,130.4 0.1,1.3 c 1.5,-1.3 1.9,-1.5 3.8,-1.6 v 2.2 c -0.2,0 -0.7,-0.1 -1.2,-0.1 -1.6,0 -2.3,1 -2.6,1.6 -0.2,0.4 -0.2,0.9 -0.2,1.3 v 6.1 h -2.1 v -10.8 c 0.1,0 2.2,0 2.2,0 z"
   id="path571" />
                <path
   class="st12"
   d="m 189.4,131.6 c 0.3,-0.4 0.5,-0.5 0.7,-0.6 0.7,-0.5 1.7,-0.8 2.6,-0.8 0.5,0 1.4,0.1 2.4,0.8 0.2,0.2 0.5,0.4 0.9,0.8 1.1,-0.9 2,-1.6 3.5,-1.6 1.5,0 3,0.9 3.5,2.3 0.2,0.6 0.2,1.3 0.2,2 v 6.9 h -2 V 134 c 0,0 -0.1,-0.5 -0.2,-0.8 -0.3,-0.8 -1.1,-1.3 -2,-1.3 -0.4,0 -1.3,0.1 -2,1.1 -0.6,0.8 -0.6,1.5 -0.6,2.4 v 6 h -2.1 c 0,-1.3 0,-2.6 0,-3.9 0,-1 0.1,-1.9 -0.1,-3.8 -0.1,-0.3 -0.1,-0.5 -0.3,-0.8 -0.2,-0.4 -0.6,-1.1 -1.7,-1.1 -0.8,0 -1.5,0.3 -2,0.9 -0.6,0.6 -0.7,1.3 -0.8,2.2 v 6.5 h -2.1 v -10.8 h 2 z"
   id="path573" />
                <path
   class="st12"
   d="m 206.2,133.4 c 0,-0.3 0,-1.1 0.6,-1.8 0.8,-1.1 2.2,-1.3 2.5,-1.4 0.2,0 0.7,-0.1 1.3,-0.1 0.4,0 0.8,0 1.2,0.1 0.5,0.1 2,0.3 2.6,1.8 0.3,0.7 0.3,1.4 0.3,2.2 v 4.4 c 0,1.2 0.1,1.5 0.4,2.6 H 213 l -0.2,-1.2 c -1.1,0.9 -1.9,1.5 -3.3,1.5 -0.3,0 -0.9,0 -1.6,-0.3 -1.9,-0.7 -2.2,-2.4 -2.2,-3.1 0,-1.3 0.7,-2.4 1.9,-3.1 1.1,-0.6 2.5,-0.7 5.2,-0.6 0,-1.1 0,-1.9 -0.9,-2.5 -0.2,-0.1 -0.8,-0.4 -1.5,-0.4 -1.1,0 -1.6,0.6 -1.9,1 -0.1,0.2 -0.2,0.4 -0.3,0.9 z m 5,2.4 c -0.3,0 -1,0 -1.8,0.3 -0.9,0.3 -1.8,1 -1.8,2.1 0,1.2 1,1.9 2.2,1.9 0.3,0 0.5,0 0.8,-0.1 0.8,-0.3 1.6,-0.9 1.9,-1.7 0.1,-0.2 0.1,-0.4 0.1,-0.8 0,-0.5 0,-1 0,-1.5 -0.4,-0.2 -0.9,-0.2 -1.4,-0.2"
   id="path575" />
                <path
   class="st12"
   d="m 219.8,131.6 c 1.1,-0.8 2,-1.4 3.4,-1.4 1.4,0 2.8,0.8 3.4,2.1 0.2,0.6 0.3,1.2 0.3,1.9 v 7.1 h -2 v -6.5 c -0.1,-1 -0.2,-2 -1,-2.6 -0.2,-0.2 -0.6,-0.4 -1.3,-0.4 -0.3,0 -0.9,0.1 -1.4,0.5 -1.1,0.8 -1.2,1.9 -1.2,3.3 v 5.8 h -2.1 v -6 l -0.1,-4.8 h 2 z"
   id="path577" />
                <path
   class="st12"
   d="m 232.5,136.4 c 0.4,1.2 0.6,1.7 0.8,2.9 l 3.2,-8.9 h 2.3 l -6.1,14.9 h -2.2 l 1.7,-4.4 -4,-10.6 h 2.2 c 0.4,1.3 0.8,2.5 1.2,3.8 z"
   id="path579" />
                <path
   class="st12"
   d="m 162.9,108.4 c 0,1.6 -0.2,2.2 -0.5,2.7 -0.9,1.4 -2.6,1.4 -3.1,1.4 -3.3,0 -3.5,-2.2 -3.5,-4 v -10 h -3.5 v 9.9 c 0,1.5 0.1,2.7 0.8,4 1.5,2.4 4.4,2.8 6,2.8 3.2,0 7,-1.5 7,-6.3 V 98.5 h -3.3 z"
   id="path581" />
                <path
   class="st12"
   d="m 175.5,103.1 c -2.4,0 -3.3,1.4 -3.6,2 l -0.1,-1.7 h -3.1 c 0.1,0.8 0.1,2 0.1,2 v 9.2 h 3.3 V 108 c 0,-0.9 0.2,-1.4 0.4,-1.7 0.4,-0.5 1,-0.9 1.7,-0.9 0.8,0 1.4,0.5 1.6,1 0.2,0.4 0.2,0.8 0.2,1.2 v 7 h 3.4 v -6.1 c 0,-2.1 -0.1,-2.7 -0.3,-3.3 -0.4,-0.8 -1.4,-2.1 -3.6,-2.1"
   id="path583" />
                <rect
   x="181.8"
   y="103.4"
   class="st12"
   width="3.3"
   height="11.2"
   id="rect585" />
                <polygon
   class="st12"
   points="190.1,103.4 186.6,103.4 190.7,114.6 194.4,114.6 198.4,103.4 195.2,103.4 192.6,111 "
   id="polygon587" />
                <path
   class="st12"
   d="m 204.5,103 c -1.2,0 -2.3,0.4 -3.1,0.9 -1.9,1.3 -2.3,3.5 -2.3,5.3 0,1.8 0.4,3.3 1.4,4.4 1.2,1.2 3,1.4 4,1.4 1.6,0 3.1,-0.4 3.9,-1.3 0.9,-1 1,-1.9 1.1,-2.4 h -3 c -0.3,1.2 -1.1,1.6 -2,1.6 -2.3,0 -2.3,-2.3 -2.3,-3 h 7.5 c 0,-0.9 0.1,-2.6 -0.7,-4.1 -1,-2.2 -2.9,-2.8 -4.5,-2.8 m -2.2,4.8 c 0.1,-1.3 0.7,-2.5 2.1,-2.5 1.9,0 2,2 2,2.5 z"
   id="path589" />
                <path
   class="st12"
   d="m 214.8,105.5 -0.1,-2.2 h -3.1 c 0.1,0.6 0.1,2.3 0.1,2.8 v 8.5 h 3.3 v -5.5 c 0,-1.4 0.2,-3.1 3.5,-2.8 v -2.9 c -2.6,-0.2 -3.3,1.1 -3.7,2.1"
   id="path591" />
                <path
   class="st12"
   d="m 226.4,108 -2,-0.6 c -1,-0.3 -1.5,-0.4 -1.5,-1.2 0,-0.7 0.7,-1.1 1.5,-1.1 0.5,0 1.5,0.1 1.6,1.3 h 3 c -0.1,-2.2 -2,-3.3 -4.3,-3.3 -2.9,0 -4.9,1.3 -4.9,3.5 0,2.3 1.9,2.8 2.8,3.1 l 2,0.6 c 1.3,0.4 1.5,0.8 1.5,1.3 0,0.7 -0.6,1.3 -1.7,1.3 -1.4,0 -1.8,-0.8 -1.9,-1.5 h -3.1 c 0,0.5 0.1,1.4 0.8,2.2 1,1.1 2.4,1.4 3.8,1.4 3.5,0 5.1,-1.9 5.1,-3.9 0.3,-1.6 -0.6,-2.6 -2.7,-3.1"
   id="path593" />
                <rect
   x="231.5"
   y="103.4"
   class="st12"
   width="3.3"
   height="11.2"
   id="rect595" />
                <path
   class="st12"
   d="m 242.1,99.5 -3.3,0.6 v 3.4 h -2.2 v 2.2 h 2.2 v 6.1 c 0,0.9 0,3 3.3,3 0.5,0 1.5,-0.1 2.6,-0.4 v -2.2 c -0.4,0.1 -0.6,0.1 -1.1,0.1 -1.5,0 -1.5,-0.6 -1.5,-1.7 v -5.1 h 2.7 v -2.2 H 242 Z"
   id="path597" />
                <path
   class="st12"
   d="m 233.2,98.4 c -1,0 -1.8,0.8 -1.8,1.8 0,1 0.8,1.8 1.8,1.8 1,0 1.8,-0.8 1.8,-1.8 0,-1 -0.8,-1.8 -1.8,-1.8"
   id="path599" />
                <path
   class="st12"
   d="m 183.4,98.4 c -1,0 -1.8,0.8 -1.8,1.8 0,1 0.8,1.8 1.8,1.8 1,0 1.8,-0.8 1.8,-1.8 -0.1,-1 -0.8,-1.8 -1.8,-1.8"
   id="path601" />
                <polygon
   class="st12"
   points="246.1,103.3 249.5,103.3 252.4,111.1 255.2,103.3 258.6,103.3 252.1,118.8 248.8,118.8 250.7,114.3 "
   id="polygon603" />
                <path
   class="st12"
   d="m 272.9,104.6 c 0.2,0.2 0.7,0.8 1,1.3 0.2,0.4 0.4,1 0.4,1.1 0.1,0.3 0.3,1 0.3,1.8 0,0.4 0,0.9 -0.1,1.3 -0.1,1.1 -0.5,2.2 -1.6,3.3 -0.9,0.8 -2.1,1.5 -4.1,1.5 -2,0 -3.1,-0.6 -3.9,-1.3 -0.4,-0.4 -0.7,-0.7 -0.8,-0.8 -0.6,-0.8 -1.1,-2 -1.1,-3.9 0,-0.5 0,-1.4 0.5,-2.6 0.2,-0.5 0.4,-0.9 0.8,-1.4 0.8,-0.9 2.2,-1.8 4.2,-1.9 0.4,0 2,-0.1 3.5,0.8 0.2,0.1 0.3,0.2 0.5,0.4 z m -5.6,1.2 c -0.3,0.3 -0.5,0.5 -0.6,0.6 -0.4,0.6 -0.6,1.5 -0.6,2.9 0,0.1 -0.1,1.8 0.8,2.8 0.1,0.1 0.3,0.3 0.5,0.4 0.3,0.2 0.7,0.4 1.3,0.4 0.1,0 0.4,0 0.6,-0.1 0.8,-0.3 1.2,-0.8 1.4,-1.2 0.6,-1 0.5,-2.6 0.5,-2.7 0,-0.2 0,-1.3 -0.4,-2.2 -0.2,-0.4 -0.4,-0.6 -0.5,-0.8 -0.2,-0.2 -0.4,-0.4 -0.5,-0.4 -0.2,-0.1 -0.7,-0.3 -1.3,-0.3 -0.5,0.1 -0.9,0.4 -1.2,0.6"
   id="path605" />
                <path
   class="st12"
   d="m 282.5,101 c -0.7,0 -1.3,0 -1.6,0.1 -0.6,0.2 -0.6,0.9 -0.6,1.3 v 1 h 2.1 v 2.2 h -2.1 v 9.1 h -3.2 v -9.1 H 275 v -2.2 h 2.1 v -1.3 c 0,0 0,-1 0.3,-1.6 0.5,-1.3 1.6,-1.7 3.6,-1.7 0.5,0 1,0 1.6,0.1 z"
   id="path607" />
                <path
   class="st12"
   d="m 297.3,105.4 c -2.3,-0.6 -3.5,-0.8 -3.5,-2.3 0,-1.3 1,-2.2 2.6,-2.2 2.4,0 2.6,1.9 2.6,2.4 h 3.3 c 0,-0.5 0,-1.8 -0.9,-3 -1.2,-1.5 -3.2,-1.9 -4.8,-1.9 -4.5,0 -6.3,2.3 -6.3,5 0,2.6 2.1,3.9 5.9,4.9 2,0.5 3.1,0.7 3.1,2.2 0,1.4 -1.2,2.2 -3.1,2.2 -2.9,0 -2.9,-2.3 -2.9,-3 h -3.5 c 0,1.6 0.1,5.5 6.2,5.5 4.4,0 6.8,-2.3 6.8,-5.2 -0.1,-3.2 -2.8,-4 -5.5,-4.6"
   id="path609" />
                <path
   class="st12"
   d="m 309.3,100.2 -3.3,1.2 v 2.2 h -2.2 v 2.2 h 2.2 v 6.1 c 0,0.9 0,3 3.3,3 0.5,0 1.5,-0.1 2.6,-0.4 v -2.2 c -0.4,0 -0.6,0.1 -1.1,0.1 -1.5,0 -1.5,-0.6 -1.5,-1.7 v -5.1 h 2.7 v -2.2 h -2.7 z"
   id="path611" />
                <path
   class="st12"
   d="m 324.3,110.9 v -7.4 h -3.4 v 5.7 c 0,1.9 0,3.5 -2.1,3.5 -1.8,0 -1.8,-1.5 -1.8,-2.5 v -6.7 h -3.3 v 7 c 0,0.6 0,2.1 0.7,3 0.6,0.8 1.9,1.5 3.4,1.5 2.1,0 3,-1.3 3.3,-1.8 l 0.1,1.5 h 3.2 c -0.1,-0.3 -0.1,-0.5 -0.1,-0.8 0,-0.3 0,-0.5 0,-3"
   id="path613" />
                <path
   class="st12"
   d="m 339.6,100.2 -3.3,1.2 v 2.2 h -4.8 v -3.4 l -3.3,1.2 v 2.2 H 326 v 2.2 h 2.2 v 6.1 c 0,0.9 0,3 3.3,3 0.5,0 1.5,-0.1 2.6,-0.3 v -2.2 c -0.4,0.1 -0.6,0.1 -1.1,0.1 -1.5,0 -1.5,-0.6 -1.5,-1.7 v -5.1 h 4.8 v 6.1 c 0,0.9 0,3 3.3,3 0.5,0 1.5,-0.1 2.6,-0.3 v -2.2 c -0.4,0.1 -0.6,0.1 -1.1,0.1 -1.5,0 -1.5,-0.6 -1.5,-1.7 v -5.1 h 2.7 v -2.2 h -2.7 z"
   id="path615" />
                <path
   class="st12"
   d="m 351.7,105.1 c -0.3,-0.5 -1.1,-1.6 -3.1,-1.6 -3.2,0 -4.8,2.7 -4.8,5.6 0,2.9 1.5,5.5 4.7,5.5 0.8,0 2,-0.2 3,-1.5 0,1.7 0,2.1 -0.2,2.7 -0.2,1 -1.1,1.5 -2,1.5 -1.7,0 -1.9,-1.2 -1.9,-1.5 h -3.1 c 0.2,3.4 3.3,3.6 4.9,3.6 2.1,0 5.6,-0.4 5.6,-4.5 v -8.3 c 0,-1.1 0.1,-1.9 0.1,-2.8 h -3.1 z m -2.5,7.2 c -2.2,0 -2.2,-2.7 -2.2,-3.3 0,-2.4 1,-3.3 2.3,-3.3 2,0 2.2,2.2 2.2,3.4 0,0.5 0,3.2 -2.3,3.2"
   id="path617" />
                <path
   class="st12"
   d="m 366.6,107.4 c 0,-0.5 0,-1.9 -0.8,-2.8 -1.1,-1.3 -3.1,-1.4 -4,-1.4 -1.1,0 -2.4,0.2 -3.4,0.9 -1.2,0.8 -1.2,2 -1.3,2.6 h 3.2 c 0,-0.3 0,-0.6 0.3,-1 0.3,-0.4 0.8,-0.6 1.2,-0.6 0.3,0 1.2,0.1 1.5,0.9 0.1,0.4 0.2,0.8 0.2,1.5 -1.1,0 -3.1,0 -4.4,0.6 -2.1,1 -2.4,2.6 -2.4,3.5 0,0.9 0.3,1.8 1,2.5 0.4,0.4 1.2,0.9 2.8,0.9 0.6,0 2.1,0 3.4,-1.8 0,0.3 0,0.8 0.1,1.5 h 3 c -0.2,-0.9 -0.3,-1.9 -0.3,-2.8 z m -3.8,4.8 c -0.3,0.4 -0.8,0.6 -1.4,0.6 -1.1,0 -1.6,-0.8 -1.6,-1.6 0,-1.3 1.5,-2 3.6,-1.8 0,1.3 0,2.1 -0.6,2.8"
   id="path619" />
                <path
   class="st12"
   d="m 383.5,105.8 v -2.2 h -2.7 v -3.4 l -3.3,1.2 v 2.2 h -2.2 v 0 c -2.1,0.1 -2.8,1.2 -3.2,2 l -0.1,-2.2 h -3.1 c 0.1,0.6 0.2,2.3 0.2,2.8 v 8.5 h 3.3 v -5.5 c 0,-1.4 -0.1,-3.5 3.5,-3.5 h 1.5 v 6.1 c 0,0.9 0,3 3.3,3 0.5,0 1.5,-0.1 2.6,-0.4 v -2.2 c -0.4,0.1 -0.6,0.1 -1.1,0.1 -1.5,0 -1.5,-0.6 -1.5,-1.7 v -5.1 z"
   id="path621" />
            </g>
        </g>
    </g>
</g>
</svg>
